<svg width="377" height="72" viewBox="0 0 377 72" fill="none" xmlns="http://www.w3.org/2000/svg">
<path d="M1 1H376V71H1V1Z" fill="white"/>
<path d="M71.828 52H70.47V41.969H71.828V52ZM76.098 44.909H77.078C77.1807 44.909 77.2647 44.9347 77.33 44.986C77.3953 45.0373 77.4397 45.098 77.463 45.168L78.821 49.732C78.8583 49.9 78.8933 50.0633 78.926 50.222C78.9587 50.376 78.9867 50.5323 79.01 50.691C79.0473 50.5323 79.0893 50.376 79.136 50.222C79.1827 50.0633 79.2317 49.9 79.283 49.732L80.781 45.14C80.8043 45.07 80.844 45.0117 80.9 44.965C80.9607 44.9183 81.0353 44.895 81.124 44.895H81.663C81.7563 44.895 81.8333 44.9183 81.894 44.965C81.9547 45.0117 81.9967 45.07 82.02 45.14L83.483 49.732C83.5343 49.8953 83.5787 50.0563 83.616 50.215C83.658 50.3737 83.6977 50.53 83.735 50.684C83.7583 50.53 83.7887 50.369 83.826 50.201C83.8633 50.033 83.903 49.8767 83.945 49.732L85.331 45.168C85.3543 45.0933 85.3987 45.0327 85.464 44.986C85.5293 44.9347 85.6063 44.909 85.695 44.909H86.633L84.337 52H83.35C83.2287 52 83.1447 51.9207 83.098 51.762L81.53 46.953C81.4927 46.8457 81.4623 46.7383 81.439 46.631C81.4157 46.519 81.3923 46.4093 81.369 46.302C81.3457 46.4093 81.3223 46.519 81.299 46.631C81.2757 46.743 81.2453 46.8527 81.208 46.96L79.619 51.762C79.5677 51.9207 79.472 52 79.332 52H78.394L76.098 44.909ZM92.9488 52H92.3958C92.2744 52 92.1764 51.9813 92.1018 51.944C92.0271 51.9067 91.9781 51.8273 91.9548 51.706L91.8148 51.048C91.6281 51.216 91.4461 51.3677 91.2688 51.503C91.0914 51.6337 90.9048 51.7457 90.7088 51.839C90.5128 51.9277 90.3028 51.9953 90.0788 52.042C89.8594 52.0887 89.6144 52.112 89.3438 52.112C89.0684 52.112 88.8094 52.0747 88.5667 52C88.3288 51.9207 88.1211 51.804 87.9438 51.65C87.7664 51.496 87.6241 51.3023 87.5168 51.069C87.4141 50.831 87.3628 50.551 87.3628 50.229C87.3628 49.949 87.4398 49.6807 87.5938 49.424C87.7478 49.1627 87.9951 48.9317 88.3358 48.731C88.6811 48.5303 89.1314 48.367 89.6868 48.241C90.2421 48.1103 90.9211 48.0357 91.7238 48.017V47.464C91.7238 46.9133 91.6048 46.498 91.3668 46.218C91.1334 45.9333 90.7858 45.791 90.3238 45.791C90.0204 45.791 89.7638 45.8307 89.5538 45.91C89.3484 45.9847 89.1688 46.071 89.0148 46.169C88.8654 46.2623 88.7348 46.3487 88.6228 46.428C88.5154 46.5027 88.4081 46.54 88.3008 46.54C88.2168 46.54 88.1421 46.519 88.0768 46.477C88.0161 46.4303 87.9671 46.3743 87.9298 46.309L87.7058 45.91C88.0978 45.532 88.5201 45.2497 88.9728 45.063C89.4254 44.8763 89.9271 44.783 90.4778 44.783C90.8744 44.783 91.2268 44.8483 91.5348 44.979C91.8428 45.1097 92.1018 45.2917 92.3118 45.525C92.5218 45.7583 92.6804 46.0407 92.7878 46.372C92.8951 46.7033 92.9488 47.0673 92.9488 47.464V52ZM89.7148 51.237C89.9341 51.237 90.1348 51.216 90.3167 51.174C90.4988 51.1273 90.6691 51.0643 90.8278 50.985C90.9911 50.901 91.1451 50.8007 91.2898 50.684C91.4391 50.5673 91.5838 50.4343 91.7238 50.285V48.808C91.1498 48.8267 90.6621 48.8733 90.2608 48.948C89.8594 49.018 89.5328 49.1113 89.2808 49.228C89.0288 49.3447 88.8444 49.4823 88.7278 49.641C88.6158 49.7997 88.5598 49.977 88.5598 50.173C88.5598 50.3597 88.5901 50.5207 88.6508 50.656C88.7114 50.7913 88.7931 50.9033 88.8958 50.992C88.9984 51.076 89.1198 51.139 89.2598 51.181C89.3998 51.2183 89.5514 51.237 89.7148 51.237ZM94.8365 52V44.909H95.5785C95.7558 44.909 95.8678 44.9953 95.9145 45.168L96.0125 45.938C96.3205 45.5973 96.6635 45.322 97.0415 45.112C97.4241 44.902 97.8651 44.797 98.3645 44.797C98.7518 44.797 99.0925 44.8623 99.3865 44.993C99.6851 45.119 99.9325 45.301 100.128 45.539C100.329 45.7723 100.481 46.0547 100.583 46.386C100.686 46.7173 100.737 47.0837 100.737 47.485V52H99.4915V47.485C99.4915 46.9483 99.3678 46.533 99.1205 46.239C98.8778 45.9403 98.5045 45.791 98.0005 45.791C97.6318 45.791 97.2865 45.8797 96.9645 46.057C96.6471 46.2343 96.3531 46.4747 96.0825 46.778V52H94.8365ZM104.765 52.112C104.205 52.112 103.773 51.9557 103.47 51.643C103.171 51.3303 103.022 50.88 103.022 50.292V45.952H102.168C102.093 45.952 102.03 45.931 101.979 45.889C101.927 45.8423 101.902 45.7723 101.902 45.679V45.182L103.064 45.035L103.351 42.844C103.36 42.774 103.39 42.718 103.442 42.676C103.493 42.6293 103.558 42.606 103.638 42.606H104.268V45.049H106.298V45.952H104.268V50.208C104.268 50.5067 104.34 50.7283 104.485 50.873C104.629 51.0177 104.816 51.09 105.045 51.09C105.175 51.09 105.287 51.0737 105.381 51.041C105.479 51.0037 105.563 50.964 105.633 50.922C105.703 50.88 105.761 50.8427 105.808 50.81C105.859 50.7727 105.903 50.754 105.941 50.754C106.006 50.754 106.064 50.7937 106.116 50.873L106.48 51.468C106.265 51.6687 106.006 51.8273 105.703 51.944C105.399 52.056 105.087 52.112 104.765 52.112ZM112.694 52.112C112.134 52.112 111.703 51.9557 111.399 51.643C111.101 51.3303 110.951 50.88 110.951 50.292V45.952H110.097C110.023 45.952 109.96 45.931 109.908 45.889C109.857 45.8423 109.831 45.7723 109.831 45.679V45.182L110.993 45.035L111.28 42.844C111.29 42.774 111.32 42.718 111.371 42.676C111.423 42.6293 111.488 42.606 111.567 42.606H112.197V45.049H114.227V45.952H112.197V50.208C112.197 50.5067 112.27 50.7283 112.414 50.873C112.559 51.0177 112.746 51.09 112.974 51.09C113.105 51.09 113.217 51.0737 113.31 51.041C113.408 51.0037 113.492 50.964 113.562 50.922C113.632 50.88 113.691 50.8427 113.737 50.81C113.789 50.7727 113.833 50.754 113.87 50.754C113.936 50.754 113.994 50.7937 114.045 50.873L114.409 51.468C114.195 51.6687 113.936 51.8273 113.632 51.944C113.329 52.056 113.016 52.112 112.694 52.112ZM118.638 44.797C119.156 44.797 119.623 44.8833 120.038 45.056C120.458 45.2287 120.813 45.4737 121.102 45.791C121.396 46.1083 121.62 46.4933 121.774 46.946C121.933 47.394 122.012 47.8957 122.012 48.451C122.012 49.011 121.933 49.515 121.774 49.963C121.62 50.411 121.396 50.7937 121.102 51.111C120.813 51.4283 120.458 51.6733 120.038 51.846C119.623 52.014 119.156 52.098 118.638 52.098C118.12 52.098 117.651 52.014 117.231 51.846C116.816 51.6733 116.461 51.4283 116.167 51.111C115.873 50.7937 115.647 50.411 115.488 49.963C115.329 49.515 115.25 49.011 115.25 48.451C115.25 47.8957 115.329 47.394 115.488 46.946C115.647 46.4933 115.873 46.1083 116.167 45.791C116.461 45.4737 116.816 45.2287 117.231 45.056C117.651 44.8833 118.12 44.797 118.638 44.797ZM118.638 51.125C119.338 51.125 119.861 50.8917 120.206 50.425C120.551 49.9537 120.724 49.298 120.724 48.458C120.724 47.6133 120.551 46.9553 120.206 46.484C119.861 46.0127 119.338 45.777 118.638 45.777C118.283 45.777 117.975 45.8377 117.714 45.959C117.453 46.0803 117.233 46.2553 117.056 46.484C116.883 46.7127 116.753 46.995 116.664 47.331C116.58 47.6623 116.538 48.038 116.538 48.458C116.538 48.878 116.58 49.2537 116.664 49.585C116.753 49.9163 116.883 50.1963 117.056 50.425C117.233 50.649 117.453 50.8217 117.714 50.943C117.975 51.0643 118.283 51.125 118.638 51.125ZM128.403 52.112C127.843 52.112 127.412 51.9557 127.108 51.643C126.81 51.3303 126.66 50.88 126.66 50.292V45.952H125.806C125.732 45.952 125.669 45.931 125.617 45.889C125.566 45.8423 125.54 45.7723 125.54 45.679V45.182L126.702 45.035L126.989 42.844C126.999 42.774 127.029 42.718 127.08 42.676C127.132 42.6293 127.197 42.606 127.276 42.606H127.906V45.049H129.936V45.952H127.906V50.208C127.906 50.5067 127.979 50.7283 128.123 50.873C128.268 51.0177 128.455 51.09 128.683 51.09C128.814 51.09 128.926 51.0737 129.019 51.041C129.117 51.0037 129.201 50.964 129.271 50.922C129.341 50.88 129.4 50.8427 129.446 50.81C129.498 50.7727 129.542 50.754 129.579 50.754C129.645 50.754 129.703 50.7937 129.754 50.873L130.118 51.468C129.904 51.6687 129.645 51.8273 129.341 51.944C129.038 52.056 128.725 52.112 128.403 52.112ZM136.685 52H136.132C136.011 52 135.913 51.9813 135.838 51.944C135.763 51.9067 135.714 51.8273 135.691 51.706L135.551 51.048C135.364 51.216 135.182 51.3677 135.005 51.503C134.828 51.6337 134.641 51.7457 134.445 51.839C134.249 51.9277 134.039 51.9953 133.815 52.042C133.596 52.0887 133.351 52.112 133.08 52.112C132.805 52.112 132.546 52.0747 132.303 52C132.065 51.9207 131.857 51.804 131.68 51.65C131.503 51.496 131.36 51.3023 131.253 51.069C131.15 50.831 131.099 50.551 131.099 50.229C131.099 49.949 131.176 49.6807 131.33 49.424C131.484 49.1627 131.731 48.9317 132.072 48.731C132.417 48.5303 132.868 48.367 133.423 48.241C133.978 48.1103 134.657 48.0357 135.46 48.017V47.464C135.46 46.9133 135.341 46.498 135.103 46.218C134.87 45.9333 134.522 45.791 134.06 45.791C133.757 45.791 133.5 45.8307 133.29 45.91C133.085 45.9847 132.905 46.071 132.751 46.169C132.602 46.2623 132.471 46.3487 132.359 46.428C132.252 46.5027 132.144 46.54 132.037 46.54C131.953 46.54 131.878 46.519 131.813 46.477C131.752 46.4303 131.703 46.3743 131.666 46.309L131.442 45.91C131.834 45.532 132.256 45.2497 132.709 45.063C133.162 44.8763 133.663 44.783 134.214 44.783C134.611 44.783 134.963 44.8483 135.271 44.979C135.579 45.1097 135.838 45.2917 136.048 45.525C136.258 45.7583 136.417 46.0407 136.524 46.372C136.631 46.7033 136.685 47.0673 136.685 47.464V52ZM133.451 51.237C133.67 51.237 133.871 51.216 134.053 51.174C134.235 51.1273 134.405 51.0643 134.564 50.985C134.727 50.901 134.881 50.8007 135.026 50.684C135.175 50.5673 135.32 50.4343 135.46 50.285V48.808C134.886 48.8267 134.398 48.8733 133.997 48.948C133.596 49.018 133.269 49.1113 133.017 49.228C132.765 49.3447 132.581 49.4823 132.464 49.641C132.352 49.7997 132.296 49.977 132.296 50.173C132.296 50.3597 132.326 50.5207 132.387 50.656C132.448 50.7913 132.529 50.9033 132.632 50.992C132.735 51.076 132.856 51.139 132.996 51.181C133.136 51.2183 133.288 51.237 133.451 51.237ZM139.959 41.689V52H138.713V41.689H139.959ZM143.45 41.689V47.758H143.772C143.865 47.758 143.942 47.7463 144.003 47.723C144.063 47.695 144.131 47.6413 144.206 47.562L146.446 45.161C146.516 45.0863 146.586 45.0257 146.656 44.979C146.726 44.9323 146.819 44.909 146.936 44.909H148.07L145.459 47.688C145.393 47.7673 145.328 47.8373 145.263 47.898C145.202 47.9587 145.132 48.0123 145.053 48.059C145.137 48.115 145.211 48.1803 145.277 48.255C145.347 48.325 145.412 48.4067 145.473 48.5L148.245 52H147.125C147.022 52 146.933 51.9813 146.859 51.944C146.789 51.902 146.721 51.839 146.656 51.755L144.325 48.85C144.255 48.752 144.185 48.689 144.115 48.661C144.045 48.6283 143.94 48.612 143.8 48.612H143.45V52H142.197V41.689H143.45ZM157.412 52H156.859C156.737 52 156.639 51.9813 156.565 51.944C156.49 51.9067 156.441 51.8273 156.418 51.706L156.278 51.048C156.091 51.216 155.909 51.3677 155.732 51.503C155.554 51.6337 155.368 51.7457 155.172 51.839C154.976 51.9277 154.766 51.9953 154.542 52.042C154.322 52.0887 154.077 52.112 153.807 52.112C153.531 52.112 153.272 52.0747 153.03 52C152.792 51.9207 152.584 51.804 152.407 51.65C152.229 51.496 152.087 51.3023 151.98 51.069C151.877 50.831 151.826 50.551 151.826 50.229C151.826 49.949 151.903 49.6807 152.057 49.424C152.211 49.1627 152.458 48.9317 152.799 48.731C153.144 48.5303 153.594 48.367 154.15 48.241C154.705 48.1103 155.384 48.0357 156.187 48.017V47.464C156.187 46.9133 156.068 46.498 155.83 46.218C155.596 45.9333 155.249 45.791 154.787 45.791C154.483 45.791 154.227 45.8307 154.017 45.91C153.811 45.9847 153.632 46.071 153.478 46.169C153.328 46.2623 153.198 46.3487 153.086 46.428C152.978 46.5027 152.871 46.54 152.764 46.54C152.68 46.54 152.605 46.519 152.54 46.477C152.479 46.4303 152.43 46.3743 152.393 46.309L152.169 45.91C152.561 45.532 152.983 45.2497 153.436 45.063C153.888 44.8763 154.39 44.783 154.941 44.783C155.337 44.783 155.69 44.8483 155.998 44.979C156.306 45.1097 156.565 45.2917 156.775 45.525C156.985 45.7583 157.143 46.0407 157.251 46.372C157.358 46.7033 157.412 47.0673 157.412 47.464V52ZM154.178 51.237C154.397 51.237 154.598 51.216 154.78 51.174C154.962 51.1273 155.132 51.0643 155.291 50.985C155.454 50.901 155.608 50.8007 155.753 50.684C155.902 50.5673 156.047 50.4343 156.187 50.285V48.808C155.613 48.8267 155.125 48.8733 154.724 48.948C154.322 49.018 153.996 49.1113 153.744 49.228C153.492 49.3447 153.307 49.4823 153.191 49.641C153.079 49.7997 153.023 49.977 153.023 50.173C153.023 50.3597 153.053 50.5207 153.114 50.656C153.174 50.7913 153.256 50.9033 153.359 50.992C153.461 51.076 153.583 51.139 153.723 51.181C153.863 51.2183 154.014 51.237 154.178 51.237ZM159.341 52V41.689H160.594V45.931C160.888 45.5903 161.224 45.3173 161.602 45.112C161.985 44.902 162.421 44.797 162.911 44.797C163.322 44.797 163.693 44.874 164.024 45.028C164.356 45.182 164.638 45.413 164.871 45.721C165.105 46.0243 165.284 46.4023 165.41 46.855C165.536 47.303 165.599 47.821 165.599 48.409C165.599 48.9317 165.529 49.4193 165.389 49.872C165.249 50.32 165.046 50.7097 164.78 51.041C164.519 51.3677 164.197 51.6267 163.814 51.818C163.436 52.0047 163.009 52.098 162.533 52.098C162.076 52.098 161.686 52.0093 161.364 51.832C161.047 51.6547 160.769 51.4073 160.531 51.09L160.468 51.734C160.431 51.9113 160.324 52 160.146 52H159.341ZM162.505 45.791C162.099 45.791 161.742 45.8843 161.434 46.071C161.131 46.2577 160.851 46.5213 160.594 46.862V50.292C160.818 50.6 161.066 50.817 161.336 50.943C161.612 51.069 161.917 51.132 162.253 51.132C162.916 51.132 163.425 50.8963 163.779 50.425C164.134 49.9537 164.311 49.2817 164.311 48.409C164.311 47.947 164.269 47.5503 164.185 47.219C164.106 46.8877 163.989 46.617 163.835 46.407C163.681 46.1923 163.492 46.036 163.268 45.938C163.044 45.84 162.79 45.791 162.505 45.791ZM169.99 44.797C170.508 44.797 170.974 44.8833 171.39 45.056C171.81 45.2287 172.164 45.4737 172.454 45.791C172.748 46.1083 172.972 46.4933 173.126 46.946C173.284 47.394 173.364 47.8957 173.364 48.451C173.364 49.011 173.284 49.515 173.126 49.963C172.972 50.411 172.748 50.7937 172.454 51.111C172.164 51.4283 171.81 51.6733 171.39 51.846C170.974 52.014 170.508 52.098 169.99 52.098C169.472 52.098 169.003 52.014 168.583 51.846C168.167 51.6733 167.813 51.4283 167.519 51.111C167.225 50.7937 166.998 50.411 166.84 49.963C166.681 49.515 166.602 49.011 166.602 48.451C166.602 47.8957 166.681 47.394 166.84 46.946C166.998 46.4933 167.225 46.1083 167.519 45.791C167.813 45.4737 168.167 45.2287 168.583 45.056C169.003 44.8833 169.472 44.797 169.99 44.797ZM169.99 51.125C170.69 51.125 171.212 50.8917 171.558 50.425C171.903 49.9537 172.076 49.298 172.076 48.458C172.076 47.6133 171.903 46.9553 171.558 46.484C171.212 46.0127 170.69 45.777 169.99 45.777C169.635 45.777 169.327 45.8377 169.066 45.959C168.804 46.0803 168.585 46.2553 168.408 46.484C168.235 46.7127 168.104 46.995 168.016 47.331C167.932 47.6623 167.89 48.038 167.89 48.458C167.89 48.878 167.932 49.2537 168.016 49.585C168.104 49.9163 168.235 50.1963 168.408 50.425C168.585 50.649 168.804 50.8217 169.066 50.943C169.327 51.0643 169.635 51.125 169.99 51.125ZM175.977 44.909V49.431C175.977 49.9677 176.101 50.383 176.348 50.677C176.595 50.971 176.969 51.118 177.468 51.118C177.832 51.118 178.175 51.0317 178.497 50.859C178.819 50.6863 179.115 50.446 179.386 50.138V44.909H180.632V52H179.89C179.713 52 179.601 51.9137 179.554 51.741L179.456 50.978C179.148 51.3187 178.803 51.594 178.42 51.804C178.037 52.0093 177.599 52.112 177.104 52.112C176.717 52.112 176.374 52.049 176.075 51.923C175.781 51.7923 175.534 51.6103 175.333 51.377C175.132 51.1437 174.981 50.8613 174.878 50.53C174.78 50.1987 174.731 49.8323 174.731 49.431V44.909H175.977ZM184.827 52.112C184.267 52.112 183.836 51.9557 183.532 51.643C183.234 51.3303 183.084 50.88 183.084 50.292V45.952H182.23C182.156 45.952 182.093 45.931 182.041 45.889C181.99 45.8423 181.964 45.7723 181.964 45.679V45.182L183.126 45.035L183.413 42.844C183.423 42.774 183.453 42.718 183.504 42.676C183.556 42.6293 183.621 42.606 183.7 42.606H184.33V45.049H186.36V45.952H184.33V50.208C184.33 50.5067 184.403 50.7283 184.547 50.873C184.692 51.0177 184.879 51.09 185.107 51.09C185.238 51.09 185.35 51.0737 185.443 51.041C185.541 51.0037 185.625 50.964 185.695 50.922C185.765 50.88 185.824 50.8427 185.87 50.81C185.922 50.7727 185.966 50.754 186.003 50.754C186.069 50.754 186.127 50.7937 186.178 50.873L186.542 51.468C186.328 51.6687 186.069 51.8273 185.765 51.944C185.462 52.056 185.149 52.112 184.827 52.112ZM192.757 52.112C192.197 52.112 191.765 51.9557 191.462 51.643C191.163 51.3303 191.014 50.88 191.014 50.292V45.952H190.16C190.085 45.952 190.022 45.931 189.971 45.889C189.92 45.8423 189.894 45.7723 189.894 45.679V45.182L191.056 45.035L191.343 42.844C191.352 42.774 191.383 42.718 191.434 42.676C191.485 42.6293 191.551 42.606 191.63 42.606H192.26V45.049H194.29V45.952H192.26V50.208C192.26 50.5067 192.332 50.7283 192.477 50.873C192.622 51.0177 192.808 51.09 193.037 51.09C193.168 51.09 193.28 51.0737 193.373 51.041C193.471 51.0037 193.555 50.964 193.625 50.922C193.695 50.88 193.753 50.8427 193.8 50.81C193.851 50.7727 193.896 50.754 193.933 50.754C193.998 50.754 194.057 50.7937 194.108 50.873L194.472 51.468C194.257 51.6687 193.998 51.8273 193.695 51.944C193.392 52.056 193.079 52.112 192.757 52.112ZM198.701 44.797C199.219 44.797 199.685 44.8833 200.101 45.056C200.521 45.2287 200.875 45.4737 201.165 45.791C201.459 46.1083 201.683 46.4933 201.837 46.946C201.995 47.394 202.075 47.8957 202.075 48.451C202.075 49.011 201.995 49.515 201.837 49.963C201.683 50.411 201.459 50.7937 201.165 51.111C200.875 51.4283 200.521 51.6733 200.101 51.846C199.685 52.014 199.219 52.098 198.701 52.098C198.183 52.098 197.714 52.014 197.294 51.846C196.878 51.6733 196.524 51.4283 196.23 51.111C195.936 50.7937 195.709 50.411 195.551 49.963C195.392 49.515 195.313 49.011 195.313 48.451C195.313 47.8957 195.392 47.394 195.551 46.946C195.709 46.4933 195.936 46.1083 196.23 45.791C196.524 45.4737 196.878 45.2287 197.294 45.056C197.714 44.8833 198.183 44.797 198.701 44.797ZM198.701 51.125C199.401 51.125 199.923 50.8917 200.269 50.425C200.614 49.9537 200.787 49.298 200.787 48.458C200.787 47.6133 200.614 46.9553 200.269 46.484C199.923 46.0127 199.401 45.777 198.701 45.777C198.346 45.777 198.038 45.8377 197.777 45.959C197.515 46.0803 197.296 46.2553 197.119 46.484C196.946 46.7127 196.815 46.995 196.727 47.331C196.643 47.6623 196.601 48.038 196.601 48.458C196.601 48.878 196.643 49.2537 196.727 49.585C196.815 49.9163 196.946 50.1963 197.119 50.425C197.296 50.649 197.515 50.8217 197.777 50.943C198.038 51.0643 198.346 51.125 198.701 51.125ZM208.466 52.112C207.906 52.112 207.474 51.9557 207.171 51.643C206.872 51.3303 206.723 50.88 206.723 50.292V45.952H205.869C205.794 45.952 205.731 45.931 205.68 45.889C205.629 45.8423 205.603 45.7723 205.603 45.679V45.182L206.765 45.035L207.052 42.844C207.061 42.774 207.092 42.718 207.143 42.676C207.194 42.6293 207.26 42.606 207.339 42.606H207.969V45.049H209.999V45.952H207.969V50.208C207.969 50.5067 208.041 50.7283 208.186 50.873C208.331 51.0177 208.517 51.09 208.746 51.09C208.877 51.09 208.989 51.0737 209.082 51.041C209.18 51.0037 209.264 50.964 209.334 50.922C209.404 50.88 209.462 50.8427 209.509 50.81C209.56 50.7727 209.605 50.754 209.642 50.754C209.707 50.754 209.766 50.7937 209.817 50.873L210.181 51.468C209.966 51.6687 209.707 51.8273 209.404 51.944C209.101 52.056 208.788 52.112 208.466 52.112ZM211.54 52V41.689H212.786V45.861C213.089 45.539 213.425 45.2823 213.794 45.091C214.162 44.895 214.587 44.797 215.068 44.797C215.455 44.797 215.796 44.8623 216.09 44.993C216.388 45.119 216.636 45.301 216.832 45.539C217.032 45.7723 217.184 46.0547 217.287 46.386C217.389 46.7173 217.441 47.0837 217.441 47.485V52H216.195V47.485C216.195 46.9483 216.071 46.533 215.824 46.239C215.581 45.9403 215.208 45.791 214.704 45.791C214.335 45.791 213.99 45.8797 213.668 46.057C213.35 46.2343 213.056 46.4747 212.786 46.778V52H211.54ZM220.705 44.909V52H219.459V44.909H220.705ZM220.985 42.683C220.985 42.8043 220.959 42.9187 220.908 43.026C220.861 43.1287 220.796 43.222 220.712 43.306C220.633 43.3853 220.539 43.4483 220.432 43.495C220.325 43.5417 220.21 43.565 220.089 43.565C219.968 43.565 219.853 43.5417 219.746 43.495C219.643 43.4483 219.55 43.3853 219.466 43.306C219.387 43.222 219.324 43.1287 219.277 43.026C219.23 42.9187 219.207 42.8043 219.207 42.683C219.207 42.5617 219.23 42.4473 219.277 42.34C219.324 42.228 219.387 42.1323 219.466 42.053C219.55 41.969 219.643 41.9037 219.746 41.857C219.853 41.8103 219.968 41.787 220.089 41.787C220.21 41.787 220.325 41.8103 220.432 41.857C220.539 41.9037 220.633 41.969 220.712 42.053C220.796 42.1323 220.861 42.228 220.908 42.34C220.959 42.4473 220.985 42.5617 220.985 42.683ZM222.901 52V44.909H223.643C223.82 44.909 223.932 44.9953 223.979 45.168L224.077 45.938C224.385 45.5973 224.728 45.322 225.106 45.112C225.489 44.902 225.93 44.797 226.429 44.797C226.816 44.797 227.157 44.8623 227.451 44.993C227.75 45.119 227.997 45.301 228.193 45.539C228.394 45.7723 228.545 46.0547 228.648 46.386C228.751 46.7173 228.802 47.0837 228.802 47.485V52H227.556V47.485C227.556 46.9483 227.432 46.533 227.185 46.239C226.942 45.9403 226.569 45.791 226.065 45.791C225.696 45.791 225.351 45.8797 225.029 46.057C224.712 46.2343 224.418 46.4747 224.147 46.778V52H222.901ZM233.067 44.79C233.375 44.79 233.662 44.825 233.928 44.895C234.199 44.9603 234.444 45.0583 234.663 45.189H236.588V45.651C236.588 45.805 236.49 45.903 236.294 45.945L235.489 46.057C235.648 46.3603 235.727 46.6987 235.727 47.072C235.727 47.4173 235.66 47.7323 235.524 48.017C235.394 48.297 235.209 48.5373 234.971 48.738C234.738 48.9387 234.458 49.0927 234.131 49.2C233.809 49.3073 233.455 49.361 233.067 49.361C232.736 49.361 232.423 49.3213 232.129 49.242C231.98 49.3353 231.866 49.4357 231.786 49.543C231.712 49.6503 231.674 49.7553 231.674 49.858C231.674 50.026 231.742 50.1543 231.877 50.243C232.013 50.327 232.192 50.3877 232.416 50.425C232.64 50.4623 232.895 50.4857 233.179 50.495C233.464 50.5043 233.753 50.5207 234.047 50.544C234.346 50.5627 234.638 50.5977 234.922 50.649C235.207 50.7003 235.461 50.7843 235.685 50.901C235.909 51.0177 236.089 51.1787 236.224 51.384C236.36 51.5893 236.427 51.8553 236.427 52.182C236.427 52.4853 236.35 52.7793 236.196 53.064C236.047 53.3487 235.83 53.6007 235.545 53.82C235.261 54.044 234.913 54.2213 234.502 54.352C234.092 54.4873 233.627 54.555 233.109 54.555C232.591 54.555 232.136 54.5037 231.744 54.401C231.357 54.2983 231.035 54.1607 230.778 53.988C230.522 53.8153 230.328 53.6147 230.197 53.386C230.071 53.162 230.008 52.9263 230.008 52.679C230.008 52.329 230.118 52.0327 230.337 51.79C230.561 51.5427 230.867 51.3467 231.254 51.202C231.054 51.1087 230.893 50.985 230.771 50.831C230.655 50.6723 230.596 50.4623 230.596 50.201C230.596 50.0983 230.615 49.9933 230.652 49.886C230.69 49.774 230.746 49.6643 230.82 49.557C230.9 49.4497 230.995 49.347 231.107 49.249C231.219 49.151 231.35 49.0647 231.499 48.99C231.149 48.794 230.874 48.535 230.673 48.213C230.477 47.8863 230.379 47.506 230.379 47.072C230.379 46.7267 230.445 46.414 230.575 46.134C230.711 45.8493 230.897 45.609 231.135 45.413C231.373 45.2123 231.656 45.0583 231.982 44.951C232.314 44.8437 232.675 44.79 233.067 44.79ZM235.279 52.385C235.279 52.2077 235.23 52.0653 235.132 51.958C235.034 51.8507 234.901 51.769 234.733 51.713C234.565 51.6523 234.372 51.608 234.152 51.58C233.933 51.552 233.702 51.5333 233.459 51.524C233.217 51.51 232.969 51.496 232.717 51.482C232.465 51.468 232.225 51.4423 231.996 51.405C231.73 51.531 231.513 51.685 231.345 51.867C231.182 52.049 231.1 52.266 231.1 52.518C231.1 52.6767 231.14 52.8237 231.219 52.959C231.303 53.099 231.429 53.218 231.597 53.316C231.765 53.4187 231.975 53.498 232.227 53.554C232.484 53.6147 232.785 53.645 233.13 53.645C233.466 53.645 233.767 53.6147 234.033 53.554C234.299 53.4933 234.523 53.407 234.705 53.295C234.892 53.183 235.034 53.05 235.132 52.896C235.23 52.742 235.279 52.5717 235.279 52.385ZM233.067 48.535C233.319 48.535 233.541 48.5 233.732 48.43C233.928 48.36 234.092 48.262 234.222 48.136C234.353 48.01 234.451 47.8607 234.516 47.688C234.582 47.5107 234.614 47.317 234.614 47.107C234.614 46.673 234.481 46.3277 234.215 46.071C233.954 45.8143 233.571 45.686 233.067 45.686C232.568 45.686 232.185 45.8143 231.919 46.071C231.658 46.3277 231.527 46.673 231.527 47.107C231.527 47.317 231.56 47.5107 231.625 47.688C231.695 47.8607 231.796 48.01 231.926 48.136C232.057 48.262 232.218 48.36 232.409 48.43C232.601 48.5 232.82 48.535 233.067 48.535ZM241.891 46.078C241.835 46.1807 241.748 46.232 241.632 46.232C241.562 46.232 241.482 46.2063 241.394 46.155C241.305 46.1037 241.195 46.0477 241.065 45.987C240.939 45.9217 240.787 45.8633 240.61 45.812C240.432 45.756 240.222 45.728 239.98 45.728C239.77 45.728 239.581 45.756 239.413 45.812C239.245 45.8633 239.1 45.9357 238.979 46.029C238.862 46.1223 238.771 46.232 238.706 46.358C238.645 46.4793 238.615 46.6123 238.615 46.757C238.615 46.939 238.666 47.0907 238.769 47.212C238.876 47.3333 239.016 47.4383 239.189 47.527C239.361 47.6157 239.557 47.695 239.777 47.765C239.996 47.8303 240.22 47.9027 240.449 47.982C240.682 48.0567 240.908 48.1407 241.128 48.234C241.347 48.3273 241.543 48.444 241.716 48.584C241.888 48.724 242.026 48.8967 242.129 49.102C242.236 49.3027 242.29 49.5453 242.29 49.83C242.29 50.1567 242.231 50.46 242.115 50.74C241.998 51.0153 241.825 51.2557 241.597 51.461C241.368 51.6617 241.088 51.8203 240.757 51.937C240.425 52.0537 240.043 52.112 239.609 52.112C239.114 52.112 238.666 52.0327 238.265 51.874C237.863 51.7107 237.523 51.503 237.243 51.251L237.537 50.775C237.574 50.7143 237.618 50.6677 237.67 50.635C237.721 50.6023 237.789 50.586 237.873 50.586C237.957 50.586 238.045 50.6187 238.139 50.684C238.232 50.7493 238.344 50.8217 238.475 50.901C238.61 50.9803 238.771 51.0527 238.958 51.118C239.149 51.1833 239.387 51.216 239.672 51.216C239.914 51.216 240.127 51.1857 240.309 51.125C240.491 51.0597 240.642 50.9733 240.764 50.866C240.885 50.7587 240.974 50.635 241.03 50.495C241.09 50.355 241.121 50.2057 241.121 50.047C241.121 49.851 241.067 49.69 240.96 49.564C240.857 49.4333 240.719 49.3237 240.547 49.235C240.374 49.1417 240.176 49.0623 239.952 48.997C239.732 48.927 239.506 48.8547 239.273 48.78C239.044 48.7053 238.818 48.6213 238.594 48.528C238.374 48.43 238.178 48.3087 238.006 48.164C237.833 48.0193 237.693 47.842 237.586 47.632C237.483 47.4173 237.432 47.1583 237.432 46.855C237.432 46.5843 237.488 46.3253 237.6 46.078C237.712 45.826 237.875 45.6067 238.09 45.42C238.304 45.2287 238.568 45.077 238.881 44.965C239.193 44.853 239.55 44.797 239.952 44.797C240.418 44.797 240.836 44.8717 241.205 45.021C241.578 45.1657 241.9 45.3663 242.171 45.623L241.891 46.078ZM248.757 52.112C248.197 52.112 247.765 51.9557 247.462 51.643C247.163 51.3303 247.014 50.88 247.014 50.292V45.952H246.16C246.085 45.952 246.022 45.931 245.971 45.889C245.92 45.8423 245.894 45.7723 245.894 45.679V45.182L247.056 45.035L247.343 42.844C247.352 42.774 247.383 42.718 247.434 42.676C247.485 42.6293 247.551 42.606 247.63 42.606H248.26V45.049H250.29V45.952H248.26V50.208C248.26 50.5067 248.332 50.7283 248.477 50.873C248.622 51.0177 248.808 51.09 249.037 51.09C249.168 51.09 249.28 51.0737 249.373 51.041C249.471 51.0037 249.555 50.964 249.625 50.922C249.695 50.88 249.753 50.8427 249.8 50.81C249.851 50.7727 249.896 50.754 249.933 50.754C249.998 50.754 250.057 50.7937 250.108 50.873L250.472 51.468C250.257 51.6687 249.998 51.8273 249.695 51.944C249.392 52.056 249.079 52.112 248.757 52.112ZM251.831 52V41.689H253.077V45.861C253.38 45.539 253.716 45.2823 254.085 45.091C254.453 44.895 254.878 44.797 255.359 44.797C255.746 44.797 256.087 44.8623 256.381 44.993C256.679 45.119 256.927 45.301 257.123 45.539C257.323 45.7723 257.475 46.0547 257.578 46.386C257.68 46.7173 257.732 47.0837 257.732 47.485V52H256.486V47.485C256.486 46.9483 256.362 46.533 256.115 46.239C255.872 45.9403 255.499 45.791 254.995 45.791C254.626 45.791 254.281 45.8797 253.959 46.057C253.641 46.2343 253.347 46.4747 253.077 46.778V52H251.831ZM264.818 52H264.265C264.144 52 264.046 51.9813 263.971 51.944C263.896 51.9067 263.847 51.8273 263.824 51.706L263.684 51.048C263.497 51.216 263.315 51.3677 263.138 51.503C262.961 51.6337 262.774 51.7457 262.578 51.839C262.382 51.9277 262.172 51.9953 261.948 52.042C261.729 52.0887 261.484 52.112 261.213 52.112C260.938 52.112 260.679 52.0747 260.436 52C260.198 51.9207 259.99 51.804 259.813 51.65C259.636 51.496 259.493 51.3023 259.386 51.069C259.283 50.831 259.232 50.551 259.232 50.229C259.232 49.949 259.309 49.6807 259.463 49.424C259.617 49.1627 259.864 48.9317 260.205 48.731C260.55 48.5303 261.001 48.367 261.556 48.241C262.111 48.1103 262.79 48.0357 263.593 48.017V47.464C263.593 46.9133 263.474 46.498 263.236 46.218C263.003 45.9333 262.655 45.791 262.193 45.791C261.89 45.791 261.633 45.8307 261.423 45.91C261.218 45.9847 261.038 46.071 260.884 46.169C260.735 46.2623 260.604 46.3487 260.492 46.428C260.385 46.5027 260.277 46.54 260.17 46.54C260.086 46.54 260.011 46.519 259.946 46.477C259.885 46.4303 259.836 46.3743 259.799 46.309L259.575 45.91C259.967 45.532 260.389 45.2497 260.842 45.063C261.295 44.8763 261.796 44.783 262.347 44.783C262.744 44.783 263.096 44.8483 263.404 44.979C263.712 45.1097 263.971 45.2917 264.181 45.525C264.391 45.7583 264.55 46.0407 264.657 46.372C264.764 46.7033 264.818 47.0673 264.818 47.464V52ZM261.584 51.237C261.803 51.237 262.004 51.216 262.186 51.174C262.368 51.1273 262.538 51.0643 262.697 50.985C262.86 50.901 263.014 50.8007 263.159 50.684C263.308 50.5673 263.453 50.4343 263.593 50.285V48.808C263.019 48.8267 262.531 48.8733 262.13 48.948C261.729 49.018 261.402 49.1113 261.15 49.228C260.898 49.3447 260.714 49.4823 260.597 49.641C260.485 49.7997 260.429 49.977 260.429 50.173C260.429 50.3597 260.459 50.5207 260.52 50.656C260.581 50.7913 260.662 50.9033 260.765 50.992C260.868 51.076 260.989 51.139 261.129 51.181C261.269 51.2183 261.421 51.237 261.584 51.237ZM268.855 52.112C268.295 52.112 267.863 51.9557 267.56 51.643C267.261 51.3303 267.112 50.88 267.112 50.292V45.952H266.258C266.183 45.952 266.12 45.931 266.069 45.889C266.017 45.8423 265.992 45.7723 265.992 45.679V45.182L267.154 45.035L267.441 42.844C267.45 42.774 267.48 42.718 267.532 42.676C267.583 42.6293 267.648 42.606 267.728 42.606H268.358V45.049H270.388V45.952H268.358V50.208C268.358 50.5067 268.43 50.7283 268.575 50.873C268.719 51.0177 268.906 51.09 269.135 51.09C269.265 51.09 269.377 51.0737 269.471 51.041C269.569 51.0037 269.653 50.964 269.723 50.922C269.793 50.88 269.851 50.8427 269.898 50.81C269.949 50.7727 269.993 50.754 270.031 50.754C270.096 50.754 270.154 50.7937 270.206 50.873L270.57 51.468C270.355 51.6687 270.096 51.8273 269.793 51.944C269.489 52.056 269.177 52.112 268.855 52.112ZM279.843 52H279.29C279.169 52 279.071 51.9813 278.996 51.944C278.922 51.9067 278.873 51.8273 278.849 51.706L278.709 51.048C278.523 51.216 278.341 51.3677 278.163 51.503C277.986 51.6337 277.799 51.7457 277.603 51.839C277.407 51.9277 277.197 51.9953 276.973 52.042C276.754 52.0887 276.509 52.112 276.238 52.112C275.963 52.112 275.704 52.0747 275.461 52C275.223 51.9207 275.016 51.804 274.838 51.65C274.661 51.496 274.519 51.3023 274.411 51.069C274.309 50.831 274.257 50.551 274.257 50.229C274.257 49.949 274.334 49.6807 274.488 49.424C274.642 49.1627 274.89 48.9317 275.23 48.731C275.576 48.5303 276.026 48.367 276.581 48.241C277.137 48.1103 277.816 48.0357 278.618 48.017V47.464C278.618 46.9133 278.499 46.498 278.261 46.218C278.028 45.9333 277.68 45.791 277.218 45.791C276.915 45.791 276.658 45.8307 276.448 45.91C276.243 45.9847 276.063 46.071 275.909 46.169C275.76 46.2623 275.629 46.3487 275.517 46.428C275.41 46.5027 275.303 46.54 275.195 46.54C275.111 46.54 275.037 46.519 274.971 46.477C274.911 46.4303 274.862 46.3743 274.824 46.309L274.6 45.91C274.992 45.532 275.415 45.2497 275.867 45.063C276.32 44.8763 276.822 44.783 277.372 44.783C277.769 44.783 278.121 44.8483 278.429 44.979C278.737 45.1097 278.996 45.2917 279.206 45.525C279.416 45.7583 279.575 46.0407 279.682 46.372C279.79 46.7033 279.843 47.0673 279.843 47.464V52ZM276.609 51.237C276.829 51.237 277.029 51.216 277.211 51.174C277.393 51.1273 277.564 51.0643 277.722 50.985C277.886 50.901 278.04 50.8007 278.184 50.684C278.334 50.5673 278.478 50.4343 278.618 50.285V48.808C278.044 48.8267 277.557 48.8733 277.155 48.948C276.754 49.018 276.427 49.1113 276.175 49.228C275.923 49.3447 275.739 49.4823 275.622 49.641C275.51 49.7997 275.454 49.977 275.454 50.173C275.454 50.3597 275.485 50.5207 275.545 50.656C275.606 50.7913 275.688 50.9033 275.79 50.992C275.893 51.076 276.014 51.139 276.154 51.181C276.294 51.2183 276.446 51.237 276.609 51.237ZM281.731 52V44.909H282.445C282.58 44.909 282.674 44.9347 282.725 44.986C282.776 45.0373 282.811 45.126 282.83 45.252L282.914 46.358C283.157 45.8633 283.455 45.4783 283.81 45.203C284.169 44.923 284.589 44.783 285.07 44.783C285.266 44.783 285.443 44.8063 285.602 44.853C285.761 44.895 285.908 44.9557 286.043 45.035L285.882 45.966C285.849 46.0827 285.777 46.141 285.665 46.141C285.6 46.141 285.499 46.12 285.364 46.078C285.229 46.0313 285.04 46.008 284.797 46.008C284.363 46.008 283.999 46.134 283.705 46.386C283.416 46.638 283.173 47.0043 282.977 47.485V52H281.731ZM290.184 44.797C290.609 44.797 291.001 44.8693 291.36 45.014C291.72 45.154 292.03 45.3593 292.291 45.63C292.553 45.896 292.756 46.2273 292.9 46.624C293.05 47.016 293.124 47.464 293.124 47.968C293.124 48.164 293.103 48.2947 293.061 48.36C293.019 48.4253 292.94 48.458 292.823 48.458H288.105C288.115 48.906 288.175 49.2957 288.287 49.627C288.399 49.9583 288.553 50.236 288.749 50.46C288.945 50.6793 289.179 50.845 289.449 50.957C289.72 51.0643 290.023 51.118 290.359 51.118C290.672 51.118 290.94 51.083 291.164 51.013C291.393 50.9383 291.589 50.859 291.752 50.775C291.916 50.691 292.051 50.614 292.158 50.544C292.27 50.4693 292.366 50.432 292.445 50.432C292.548 50.432 292.627 50.4717 292.683 50.551L293.033 51.006C292.879 51.1927 292.695 51.356 292.48 51.496C292.266 51.6313 292.035 51.7433 291.787 51.832C291.545 51.9207 291.293 51.986 291.031 52.028C290.77 52.0747 290.511 52.098 290.254 52.098C289.764 52.098 289.312 52.0163 288.896 51.853C288.486 51.685 288.129 51.4423 287.825 51.125C287.527 50.803 287.293 50.4063 287.125 49.935C286.957 49.4637 286.873 48.9223 286.873 48.311C286.873 47.8163 286.948 47.3543 287.097 46.925C287.251 46.4957 287.471 46.1247 287.755 45.812C288.04 45.4947 288.388 45.2473 288.798 45.07C289.209 44.888 289.671 44.797 290.184 44.797ZM290.212 45.714C289.61 45.714 289.137 45.889 288.791 46.239C288.446 46.5843 288.231 47.065 288.147 47.681H292.004C292.004 47.3917 291.965 47.128 291.885 46.89C291.806 46.6473 291.689 46.4397 291.535 46.267C291.381 46.0897 291.192 45.9543 290.968 45.861C290.749 45.763 290.497 45.714 290.212 45.714ZM303.159 44.909V54.401H301.913V50.95C301.615 51.2953 301.274 51.573 300.891 51.783C300.513 51.993 300.079 52.098 299.589 52.098C299.183 52.098 298.815 52.021 298.483 51.867C298.152 51.7083 297.87 51.4773 297.636 51.174C297.403 50.8707 297.223 50.4927 297.097 50.04C296.971 49.5873 296.908 49.067 296.908 48.479C296.908 47.9563 296.978 47.471 297.118 47.023C297.258 46.5703 297.459 46.1783 297.72 45.847C297.986 45.5157 298.308 45.2567 298.686 45.07C299.064 44.8787 299.494 44.783 299.974 44.783C300.432 44.783 300.819 44.8647 301.136 45.028C301.458 45.1913 301.745 45.4223 301.997 45.721L302.081 45.168C302.128 44.9953 302.24 44.909 302.417 44.909H303.159ZM300.002 51.09C300.408 51.09 300.763 50.9967 301.066 50.81C301.374 50.6233 301.657 50.3597 301.913 50.019V46.589C301.689 46.2903 301.44 46.078 301.164 45.952C300.889 45.8213 300.586 45.756 300.254 45.756C299.592 45.756 299.083 45.9917 298.728 46.463C298.374 46.9343 298.196 47.6063 298.196 48.479C298.196 48.941 298.236 49.3377 298.315 49.669C298.395 49.9957 298.511 50.2663 298.665 50.481C298.819 50.691 299.008 50.845 299.232 50.943C299.456 51.041 299.713 51.09 300.002 51.09ZM306.325 44.909V49.431C306.325 49.9677 306.448 50.383 306.696 50.677C306.943 50.971 307.316 51.118 307.816 51.118C308.18 51.118 308.523 51.0317 308.845 50.859C309.167 50.6863 309.463 50.446 309.734 50.138V44.909H310.98V52H310.238C310.06 52 309.948 51.9137 309.902 51.741L309.804 50.978C309.496 51.3187 309.15 51.594 308.768 51.804C308.385 52.0093 307.946 52.112 307.452 52.112C307.064 52.112 306.721 52.049 306.423 51.923C306.129 51.7923 305.881 51.6103 305.681 51.377C305.48 51.1437 305.328 50.8613 305.226 50.53C305.128 50.1987 305.079 49.8323 305.079 49.431V44.909H306.325ZM314.412 44.909V52H313.166V44.909H314.412ZM314.692 42.683C314.692 42.8043 314.666 42.9187 314.615 43.026C314.568 43.1287 314.503 43.222 314.419 43.306C314.34 43.3853 314.246 43.4483 314.139 43.495C314.032 43.5417 313.917 43.565 313.796 43.565C313.675 43.565 313.56 43.5417 313.453 43.495C313.35 43.4483 313.257 43.3853 313.173 43.306C313.094 43.222 313.031 43.1287 312.984 43.026C312.937 42.9187 312.914 42.8043 312.914 42.683C312.914 42.5617 312.937 42.4473 312.984 42.34C313.031 42.228 313.094 42.1323 313.173 42.053C313.257 41.969 313.35 41.9037 313.453 41.857C313.56 41.8103 313.675 41.787 313.796 41.787C313.917 41.787 314.032 41.8103 314.139 41.857C314.246 41.9037 314.34 41.969 314.419 42.053C314.503 42.1323 314.568 42.228 314.615 42.34C314.666 42.4473 314.692 42.5617 314.692 42.683ZM318.757 52.112C318.197 52.112 317.765 51.9557 317.462 51.643C317.163 51.3303 317.014 50.88 317.014 50.292V45.952H316.16C316.085 45.952 316.022 45.931 315.971 45.889C315.92 45.8423 315.894 45.7723 315.894 45.679V45.182L317.056 45.035L317.343 42.844C317.352 42.774 317.383 42.718 317.434 42.676C317.485 42.6293 317.551 42.606 317.63 42.606H318.26V45.049H320.29V45.952H318.26V50.208C318.26 50.5067 318.332 50.7283 318.477 50.873C318.622 51.0177 318.808 51.09 319.037 51.09C319.168 51.09 319.28 51.0737 319.373 51.041C319.471 51.0037 319.555 50.964 319.625 50.922C319.695 50.88 319.753 50.8427 319.8 50.81C319.851 50.7727 319.896 50.754 319.933 50.754C319.998 50.754 320.057 50.7937 320.108 50.873L320.472 51.468C320.257 51.6687 319.998 51.8273 319.695 51.944C319.392 52.056 319.079 52.112 318.757 52.112ZM324.638 44.797C325.062 44.797 325.454 44.8693 325.814 45.014C326.173 45.154 326.483 45.3593 326.745 45.63C327.006 45.896 327.209 46.2273 327.354 46.624C327.503 47.016 327.578 47.464 327.578 47.968C327.578 48.164 327.557 48.2947 327.515 48.36C327.473 48.4253 327.393 48.458 327.277 48.458H322.559C322.568 48.906 322.629 49.2957 322.741 49.627C322.853 49.9583 323.007 50.236 323.203 50.46C323.399 50.6793 323.632 50.845 323.903 50.957C324.173 51.0643 324.477 51.118 324.813 51.118C325.125 51.118 325.394 51.083 325.618 51.013C325.846 50.9383 326.042 50.859 326.206 50.775C326.369 50.691 326.504 50.614 326.612 50.544C326.724 50.4693 326.819 50.432 326.899 50.432C327.001 50.432 327.081 50.4717 327.137 50.551L327.487 51.006C327.333 51.1927 327.148 51.356 326.934 51.496C326.719 51.6313 326.488 51.7433 326.241 51.832C325.998 51.9207 325.746 51.986 325.485 52.028C325.223 52.0747 324.964 52.098 324.708 52.098C324.218 52.098 323.765 52.0163 323.35 51.853C322.939 51.685 322.582 51.4423 322.279 51.125C321.98 50.803 321.747 50.4063 321.579 49.935C321.411 49.4637 321.327 48.9223 321.327 48.311C321.327 47.8163 321.401 47.3543 321.551 46.925C321.705 46.4957 321.924 46.1247 322.209 45.812C322.493 45.4947 322.841 45.2473 323.252 45.07C323.662 44.888 324.124 44.797 324.638 44.797ZM324.666 45.714C324.064 45.714 323.59 45.889 323.245 46.239C322.899 46.5843 322.685 47.065 322.601 47.681H326.458C326.458 47.3917 326.418 47.128 326.339 46.89C326.259 46.6473 326.143 46.4397 325.989 46.267C325.835 46.0897 325.646 45.9543 325.422 45.861C325.202 45.763 324.95 45.714 324.666 45.714ZM328.766 51.23C328.766 51.1087 328.787 50.9943 328.829 50.887C328.876 50.7797 328.937 50.6863 329.011 50.607C329.091 50.5277 329.184 50.4647 329.291 50.418C329.399 50.3713 329.513 50.348 329.634 50.348C329.756 50.348 329.87 50.3713 329.977 50.418C330.085 50.4647 330.178 50.5277 330.257 50.607C330.337 50.6863 330.397 50.7797 330.439 50.887C330.486 50.9943 330.509 51.1087 330.509 51.23C330.509 51.356 330.486 51.4727 330.439 51.58C330.397 51.6827 330.337 51.7737 330.257 51.853C330.178 51.9323 330.085 51.993 329.977 52.035C329.87 52.0817 329.756 52.105 329.634 52.105C329.513 52.105 329.399 52.0817 329.291 52.035C329.184 51.993 329.091 51.9323 329.011 51.853C328.937 51.7737 328.876 51.6827 328.829 51.58C328.787 51.4727 328.766 51.356 328.766 51.23ZM331.733 51.23C331.733 51.1087 331.754 50.9943 331.796 50.887C331.843 50.7797 331.904 50.6863 331.978 50.607C332.058 50.5277 332.151 50.4647 332.258 50.418C332.366 50.3713 332.48 50.348 332.601 50.348C332.723 50.348 332.837 50.3713 332.944 50.418C333.052 50.4647 333.145 50.5277 333.224 50.607C333.304 50.6863 333.364 50.7797 333.406 50.887C333.453 50.9943 333.476 51.1087 333.476 51.23C333.476 51.356 333.453 51.4727 333.406 51.58C333.364 51.6827 333.304 51.7737 333.224 51.853C333.145 51.9323 333.052 51.993 332.944 52.035C332.837 52.0817 332.723 52.105 332.601 52.105C332.48 52.105 332.366 52.0817 332.258 52.035C332.151 51.993 332.058 51.9323 331.978 51.853C331.904 51.7737 331.843 51.6827 331.796 51.58C331.754 51.4727 331.733 51.356 331.733 51.23ZM334.7 51.23C334.7 51.1087 334.721 50.9943 334.763 50.887C334.81 50.7797 334.87 50.6863 334.945 50.607C335.024 50.5277 335.118 50.4647 335.225 50.418C335.332 50.3713 335.447 50.348 335.568 50.348C335.689 50.348 335.804 50.3713 335.911 50.418C336.018 50.4647 336.112 50.5277 336.191 50.607C336.27 50.6863 336.331 50.7797 336.373 50.887C336.42 50.9943 336.443 51.1087 336.443 51.23C336.443 51.356 336.42 51.4727 336.373 51.58C336.331 51.6827 336.27 51.7737 336.191 51.853C336.112 51.9323 336.018 51.993 335.911 52.035C335.804 52.0817 335.689 52.105 335.568 52.105C335.447 52.105 335.332 52.0817 335.225 52.035C335.118 51.993 335.024 51.9323 334.945 51.853C334.87 51.7737 334.81 51.6827 334.763 51.58C334.721 51.4727 334.7 51.356 334.7 51.23Z" fill="#828282"/>
<path d="M79.01 25.939C79.01 26.681 78.8863 27.3623 78.639 27.983C78.3917 28.6037 78.044 29.138 77.596 29.586C77.148 30.034 76.609 30.3817 75.979 30.629C75.349 30.8763 74.6513 31 73.886 31H70.022V20.878H73.886C74.6513 20.878 75.349 21.004 75.979 21.256C76.609 21.5033 77.148 21.851 77.596 22.299C78.044 22.7423 78.3917 23.2743 78.639 23.895C78.8863 24.5157 79.01 25.197 79.01 25.939ZM77.085 25.939C77.085 25.3837 77.0103 24.8867 76.861 24.448C76.7117 24.0047 76.4993 23.6313 76.224 23.328C75.9487 23.02 75.6127 22.7843 75.216 22.621C74.824 22.4577 74.3807 22.376 73.886 22.376H71.919V29.502H73.886C74.3807 29.502 74.824 29.4203 75.216 29.257C75.6127 29.0937 75.9487 28.8603 76.224 28.557C76.4993 28.249 76.7117 27.8757 76.861 27.437C77.0103 26.9937 77.085 26.4943 77.085 25.939ZM81.965 23.818V28.382C81.965 28.8207 82.0653 29.1613 82.266 29.404C82.4713 29.642 82.777 29.761 83.183 29.761C83.4817 29.761 83.7617 29.6957 84.023 29.565C84.2843 29.4297 84.5317 29.2453 84.765 29.012V23.818H86.494V31H85.437C85.213 31 85.066 30.895 84.996 30.685L84.877 30.111C84.7277 30.2603 84.5737 30.398 84.415 30.524C84.2563 30.6453 84.086 30.7503 83.904 30.839C83.7267 30.923 83.533 30.9883 83.323 31.035C83.1177 31.0863 82.896 31.112 82.658 31.112C82.266 31.112 81.9183 31.0467 81.615 30.916C81.3163 30.7807 81.0643 30.5917 80.859 30.349C80.6537 30.1063 80.4973 29.8193 80.39 29.488C80.2873 29.152 80.236 28.7833 80.236 28.382V23.818H81.965ZM90.181 20.598V31H88.452V20.598H90.181ZM97.1878 25.337C97.1365 25.4023 97.0851 25.4537 97.0338 25.491C96.9871 25.5283 96.9171 25.547 96.8238 25.547C96.7351 25.547 96.6488 25.5213 96.5648 25.47C96.4808 25.414 96.3805 25.3533 96.2638 25.288C96.1471 25.218 96.0071 25.1573 95.8438 25.106C95.6851 25.05 95.4868 25.022 95.2488 25.022C94.9455 25.022 94.6795 25.078 94.4508 25.19C94.2221 25.2973 94.0308 25.4537 93.8768 25.659C93.7275 25.8643 93.6155 26.114 93.5408 26.408C93.4661 26.6973 93.4288 27.0263 93.4288 27.395C93.4288 27.7777 93.4685 28.1183 93.5478 28.417C93.6318 28.7157 93.7508 28.9677 93.9048 29.173C94.0588 29.3737 94.2455 29.5277 94.4648 29.635C94.6841 29.7377 94.9315 29.789 95.2068 29.789C95.4821 29.789 95.7038 29.7563 95.8718 29.691C96.0445 29.621 96.1891 29.5463 96.3058 29.467C96.4225 29.383 96.5228 29.3083 96.6068 29.243C96.6955 29.173 96.7935 29.138 96.9008 29.138C97.0408 29.138 97.1458 29.1917 97.2158 29.299L97.7128 29.929C97.5215 30.153 97.3138 30.342 97.0898 30.496C96.8658 30.6453 96.6325 30.7667 96.3898 30.86C96.1518 30.9487 95.9045 31.0117 95.6478 31.049C95.3911 31.0863 95.1368 31.105 94.8848 31.105C94.4415 31.105 94.0238 31.0233 93.6318 30.86C93.2398 30.692 92.8968 30.4493 92.6028 30.132C92.3135 29.8147 92.0825 29.4273 91.9098 28.97C91.7418 28.508 91.6578 27.983 91.6578 27.395C91.6578 26.8677 91.7325 26.38 91.8818 25.932C92.0358 25.4793 92.2598 25.0897 92.5538 24.763C92.8478 24.4317 93.2118 24.1727 93.6458 23.986C94.0798 23.7993 94.5791 23.706 95.1438 23.706C95.6805 23.706 96.1495 23.7923 96.5508 23.965C96.9568 24.1377 97.3208 24.385 97.6428 24.707L97.1878 25.337ZM101.781 23.706C102.233 23.706 102.649 23.7783 103.027 23.923C103.409 24.0677 103.738 24.28 104.014 24.56C104.289 24.8353 104.504 25.176 104.658 25.582C104.812 25.9833 104.889 26.443 104.889 26.961C104.889 27.0917 104.882 27.2013 104.868 27.29C104.858 27.374 104.837 27.4417 104.805 27.493C104.777 27.5397 104.737 27.5747 104.686 27.598C104.634 27.6167 104.569 27.626 104.49 27.626H100.052C100.103 28.3633 100.301 28.9047 100.647 29.25C100.992 29.5953 101.449 29.768 102.019 29.768C102.299 29.768 102.539 29.7353 102.74 29.67C102.945 29.6047 103.122 29.5323 103.272 29.453C103.426 29.3737 103.559 29.3013 103.671 29.236C103.787 29.1707 103.899 29.138 104.007 29.138C104.077 29.138 104.137 29.152 104.189 29.18C104.24 29.208 104.284 29.2477 104.322 29.299L104.826 29.929C104.634 30.153 104.42 30.342 104.182 30.496C103.944 30.6453 103.694 30.7667 103.433 30.86C103.176 30.9487 102.912 31.0117 102.642 31.049C102.376 31.0863 102.117 31.105 101.865 31.105C101.365 31.105 100.901 31.0233 100.472 30.86C100.042 30.692 99.669 30.447 99.3517 30.125C99.0343 29.7983 98.7847 29.397 98.6027 28.921C98.4207 28.4403 98.3297 27.885 98.3297 27.255C98.3297 26.765 98.409 26.3053 98.5677 25.876C98.7263 25.442 98.9527 25.0663 99.2467 24.749C99.5453 24.427 99.907 24.1727 100.332 23.986C100.761 23.7993 101.244 23.706 101.781 23.706ZM101.816 24.945C101.312 24.945 100.917 25.0873 100.633 25.372C100.348 25.6567 100.166 26.0603 100.087 26.583H103.335C103.335 26.359 103.304 26.149 103.244 25.953C103.183 25.7523 103.09 25.5773 102.964 25.428C102.838 25.2787 102.679 25.162 102.488 25.078C102.296 24.9893 102.072 24.945 101.816 24.945ZM114.521 22.719C114.47 22.8217 114.409 22.894 114.339 22.936C114.274 22.978 114.195 22.999 114.101 22.999C114.008 22.999 113.903 22.964 113.786 22.894C113.67 22.8193 113.532 22.7377 113.373 22.649C113.215 22.5603 113.028 22.481 112.813 22.411C112.603 22.3363 112.354 22.299 112.064 22.299C111.803 22.299 111.574 22.3317 111.378 22.397C111.187 22.4577 111.024 22.544 110.888 22.656C110.758 22.768 110.66 22.9033 110.594 23.062C110.529 23.216 110.496 23.3863 110.496 23.573C110.496 23.811 110.562 24.0093 110.692 24.168C110.828 24.3267 111.005 24.462 111.224 24.574C111.444 24.686 111.693 24.7863 111.973 24.875C112.253 24.9637 112.538 25.0593 112.827 25.162C113.121 25.26 113.408 25.3767 113.688 25.512C113.968 25.6427 114.218 25.8107 114.437 26.016C114.657 26.2167 114.832 26.464 114.962 26.758C115.098 27.052 115.165 27.409 115.165 27.829C115.165 28.2863 115.086 28.7157 114.927 29.117C114.773 29.5137 114.545 29.8613 114.241 30.16C113.943 30.454 113.576 30.6873 113.142 30.86C112.708 31.028 112.211 31.112 111.651 31.112C111.329 31.112 111.012 31.0793 110.699 31.014C110.387 30.9533 110.086 30.8647 109.796 30.748C109.512 30.6313 109.243 30.4913 108.991 30.328C108.744 30.1647 108.522 29.9827 108.326 29.782L108.872 28.879C108.924 28.8137 108.984 28.76 109.054 28.718C109.129 28.6713 109.211 28.648 109.299 28.648C109.416 28.648 109.542 28.697 109.677 28.795C109.813 28.8883 109.971 28.9933 110.153 29.11C110.34 29.2267 110.557 29.334 110.804 29.432C111.056 29.5253 111.357 29.572 111.707 29.572C112.244 29.572 112.659 29.446 112.953 29.194C113.247 28.9373 113.394 28.571 113.394 28.095C113.394 27.829 113.327 27.612 113.191 27.444C113.061 27.276 112.886 27.136 112.666 27.024C112.447 26.9073 112.197 26.8093 111.917 26.73C111.637 26.6507 111.353 26.5643 111.063 26.471C110.774 26.3777 110.489 26.2657 110.209 26.135C109.929 26.0043 109.68 25.834 109.46 25.624C109.241 25.414 109.064 25.1527 108.928 24.84C108.798 24.5227 108.732 24.133 108.732 23.671C108.732 23.3023 108.805 22.943 108.949 22.593C109.099 22.243 109.313 21.9327 109.593 21.662C109.878 21.3913 110.226 21.1743 110.636 21.011C111.047 20.8477 111.516 20.766 112.043 20.766C112.641 20.766 113.191 20.8593 113.695 21.046C114.199 21.2327 114.629 21.494 114.983 21.83L114.521 22.719ZM122.132 31H121.355C121.192 31 121.063 30.9767 120.97 30.93C120.877 30.8787 120.807 30.7783 120.76 30.629L120.606 30.118C120.424 30.2813 120.244 30.426 120.067 30.552C119.894 30.6733 119.715 30.776 119.528 30.86C119.341 30.944 119.143 31.007 118.933 31.049C118.723 31.091 118.49 31.112 118.233 31.112C117.93 31.112 117.65 31.0723 117.393 30.993C117.136 30.909 116.915 30.7853 116.728 30.622C116.546 30.4587 116.404 30.2557 116.301 30.013C116.198 29.7703 116.147 29.488 116.147 29.166C116.147 28.8953 116.217 28.6293 116.357 28.368C116.502 28.102 116.74 27.864 117.071 27.654C117.402 27.4393 117.843 27.262 118.394 27.122C118.945 26.982 119.628 26.9027 120.445 26.884V26.464C120.445 25.9833 120.342 25.6287 120.137 25.4C119.936 25.1667 119.642 25.05 119.255 25.05C118.975 25.05 118.742 25.0827 118.555 25.148C118.368 25.2133 118.205 25.288 118.065 25.372C117.93 25.4513 117.804 25.5237 117.687 25.589C117.57 25.6543 117.442 25.687 117.302 25.687C117.185 25.687 117.085 25.6567 117.001 25.596C116.917 25.5353 116.849 25.4607 116.798 25.372L116.483 24.819C117.309 24.063 118.305 23.685 119.472 23.685C119.892 23.685 120.265 23.755 120.592 23.895C120.923 24.0303 121.203 24.2217 121.432 24.469C121.661 24.7117 121.833 25.0033 121.95 25.344C122.071 25.6847 122.132 26.058 122.132 26.464V31ZM118.772 29.922C118.949 29.922 119.113 29.9057 119.262 29.873C119.411 29.8403 119.551 29.7913 119.682 29.726C119.817 29.6607 119.946 29.5813 120.067 29.488C120.193 29.39 120.319 29.2757 120.445 29.145V27.934C119.941 27.9573 119.519 28.0017 119.178 28.067C118.842 28.1277 118.571 28.207 118.366 28.305C118.161 28.403 118.014 28.5173 117.925 28.648C117.841 28.7787 117.799 28.921 117.799 29.075C117.799 29.3783 117.888 29.5953 118.065 29.726C118.247 29.8567 118.483 29.922 118.772 29.922ZM123.832 31V23.818H124.847C125.025 23.818 125.148 23.8507 125.218 23.916C125.288 23.9813 125.335 24.0933 125.358 24.252L125.463 25.12C125.72 24.6767 126.021 24.3267 126.366 24.07C126.712 23.8133 127.099 23.685 127.528 23.685C127.883 23.685 128.177 23.7667 128.41 23.93L128.186 25.225C128.172 25.309 128.142 25.3697 128.095 25.407C128.049 25.4397 127.986 25.456 127.906 25.456C127.836 25.456 127.741 25.4397 127.619 25.407C127.498 25.3743 127.337 25.358 127.136 25.358C126.777 25.358 126.469 25.4583 126.212 25.659C125.956 25.855 125.739 26.1443 125.561 26.527V31H123.832ZM131.388 23.818V31H129.659V23.818H131.388ZM131.647 21.725C131.647 21.8743 131.617 22.0143 131.556 22.145C131.495 22.2757 131.414 22.39 131.311 22.488C131.213 22.586 131.096 22.6653 130.961 22.726C130.826 22.782 130.681 22.81 130.527 22.81C130.378 22.81 130.235 22.782 130.1 22.726C129.969 22.6653 129.855 22.586 129.757 22.488C129.659 22.39 129.58 22.2757 129.519 22.145C129.463 22.0143 129.435 21.8743 129.435 21.725C129.435 21.571 129.463 21.4263 129.519 21.291C129.58 21.1557 129.659 21.039 129.757 20.941C129.855 20.843 129.969 20.766 130.1 20.71C130.235 20.6493 130.378 20.619 130.527 20.619C130.681 20.619 130.826 20.6493 130.961 20.71C131.096 20.766 131.213 20.843 131.311 20.941C131.414 21.039 131.495 21.1557 131.556 21.291C131.617 21.4263 131.647 21.571 131.647 21.725ZM137.611 25.218C137.564 25.2927 137.515 25.3463 137.464 25.379C137.412 25.407 137.347 25.421 137.268 25.421C137.184 25.421 137.093 25.3977 136.995 25.351C136.901 25.3043 136.792 25.253 136.666 25.197C136.54 25.1363 136.395 25.0827 136.232 25.036C136.073 24.9893 135.884 24.966 135.665 24.966C135.324 24.966 135.056 25.0383 134.86 25.183C134.664 25.3277 134.566 25.5167 134.566 25.75C134.566 25.904 134.615 26.0347 134.713 26.142C134.815 26.2447 134.948 26.3357 135.112 26.415C135.28 26.4943 135.469 26.5667 135.679 26.632C135.889 26.6927 136.103 26.7603 136.323 26.835C136.542 26.9097 136.757 26.996 136.967 27.094C137.177 27.1873 137.363 27.3087 137.527 27.458C137.695 27.6027 137.828 27.7777 137.926 27.983C138.028 28.1883 138.08 28.4357 138.08 28.725C138.08 29.0703 138.017 29.39 137.891 29.684C137.765 29.9733 137.58 30.2253 137.338 30.44C137.095 30.65 136.794 30.8157 136.435 30.937C136.08 31.0537 135.672 31.112 135.21 31.112C134.962 31.112 134.72 31.0887 134.482 31.042C134.248 31 134.022 30.9393 133.803 30.86C133.588 30.7807 133.387 30.6873 133.201 30.58C133.019 30.4727 132.858 30.356 132.718 30.23L133.117 29.572C133.168 29.4927 133.229 29.432 133.299 29.39C133.369 29.348 133.457 29.327 133.565 29.327C133.672 29.327 133.772 29.3573 133.866 29.418C133.964 29.4787 134.076 29.544 134.202 29.614C134.328 29.684 134.475 29.7493 134.643 29.81C134.815 29.8707 135.032 29.901 135.294 29.901C135.499 29.901 135.674 29.8777 135.819 29.831C135.968 29.7797 136.089 29.7143 136.183 29.635C136.281 29.5557 136.351 29.4647 136.393 29.362C136.439 29.2547 136.463 29.145 136.463 29.033C136.463 28.865 136.411 28.7273 136.309 28.62C136.211 28.5127 136.078 28.4193 135.91 28.34C135.746 28.2607 135.557 28.1907 135.343 28.13C135.133 28.0647 134.916 27.9947 134.692 27.92C134.472 27.8453 134.255 27.759 134.041 27.661C133.831 27.5583 133.642 27.43 133.474 27.276C133.31 27.122 133.177 26.933 133.075 26.709C132.977 26.485 132.928 26.2143 132.928 25.897C132.928 25.603 132.986 25.323 133.103 25.057C133.219 24.791 133.39 24.56 133.614 24.364C133.842 24.1633 134.125 24.0047 134.461 23.888C134.801 23.7667 135.193 23.706 135.637 23.706C136.131 23.706 136.582 23.7877 136.988 23.951C137.394 24.1143 137.732 24.329 138.003 24.595L137.611 25.218Z" fill="#1A1C1D"/>
<path d="M153.6 26.204C153.6 26.956 153.518 27.608 153.354 28.16C153.194 28.708 152.974 29.162 152.694 29.522C152.414 29.882 152.082 30.15 151.698 30.326C151.318 30.502 150.91 30.59 150.474 30.59C150.034 30.59 149.624 30.502 149.244 30.326C148.868 30.15 148.54 29.882 148.26 29.522C147.98 29.162 147.76 28.708 147.6 28.16C147.44 27.608 147.36 26.956 147.36 26.204C147.36 25.452 147.44 24.8 147.6 24.248C147.76 23.696 147.98 23.24 148.26 22.88C148.54 22.516 148.868 22.246 149.244 22.07C149.624 21.894 150.034 21.806 150.474 21.806C150.91 21.806 151.318 21.894 151.698 22.07C152.082 22.246 152.414 22.516 152.694 22.88C152.974 23.24 153.194 23.696 153.354 24.248C153.518 24.8 153.6 25.452 153.6 26.204ZM152.49 26.204C152.49 25.548 152.434 24.998 152.322 24.554C152.214 24.106 152.066 23.746 151.878 23.474C151.694 23.202 151.48 23.008 151.236 22.892C150.992 22.772 150.738 22.712 150.474 22.712C150.21 22.712 149.956 22.772 149.712 22.892C149.468 23.008 149.254 23.202 149.07 23.474C148.886 23.746 148.738 24.106 148.626 24.554C148.518 24.998 148.464 25.548 148.464 26.204C148.464 26.86 148.518 27.41 148.626 27.854C148.738 28.298 148.886 28.656 149.07 28.928C149.254 29.2 149.468 29.396 149.712 29.516C149.956 29.632 150.21 29.69 150.474 29.69C150.738 29.69 150.992 29.632 151.236 29.516C151.48 29.396 151.694 29.2 151.878 28.928C152.066 28.656 152.214 28.298 152.322 27.854C152.434 27.41 152.49 26.86 152.49 26.204ZM157.255 26.972C156.931 26.972 156.623 26.918 156.331 26.81C156.043 26.702 155.789 26.544 155.569 26.336C155.349 26.124 155.173 25.866 155.041 25.562C154.913 25.254 154.849 24.902 154.849 24.506C154.849 24.13 154.919 23.778 155.059 23.45C155.199 23.122 155.395 22.836 155.647 22.592C155.899 22.348 156.199 22.156 156.547 22.016C156.895 21.876 157.277 21.806 157.693 21.806C158.105 21.806 158.479 21.874 158.815 22.01C159.151 22.146 159.439 22.336 159.679 22.58C159.919 22.824 160.103 23.116 160.231 23.456C160.363 23.796 160.429 24.172 160.429 24.584C160.429 24.832 160.405 25.068 160.357 25.292C160.313 25.512 160.247 25.728 160.159 25.94C160.071 26.152 159.965 26.364 159.841 26.576C159.721 26.784 159.583 27 159.427 27.224L157.333 30.248C157.281 30.324 157.207 30.386 157.111 30.434C157.015 30.478 156.905 30.5 156.781 30.5H155.797L158.413 27.074C158.501 26.958 158.583 26.848 158.659 26.744C158.735 26.64 158.807 26.536 158.875 26.432C158.655 26.608 158.407 26.742 158.131 26.834C157.855 26.926 157.563 26.972 157.255 26.972ZM159.403 24.458C159.403 24.19 159.359 23.948 159.271 23.732C159.187 23.512 159.069 23.326 158.917 23.174C158.765 23.022 158.583 22.906 158.371 22.826C158.163 22.742 157.933 22.7 157.681 22.7C157.417 22.7 157.175 22.744 156.955 22.832C156.739 22.916 156.553 23.034 156.397 23.186C156.245 23.338 156.127 23.52 156.043 23.732C155.959 23.944 155.917 24.176 155.917 24.428C155.917 24.7 155.955 24.944 156.031 25.16C156.111 25.372 156.223 25.552 156.367 25.7C156.515 25.848 156.693 25.96 156.901 26.036C157.113 26.112 157.349 26.15 157.609 26.15C157.897 26.15 158.151 26.104 158.371 26.012C158.595 25.916 158.783 25.79 158.935 25.634C159.087 25.478 159.203 25.298 159.283 25.094C159.363 24.89 159.403 24.678 159.403 24.458ZM161.69 29.84C161.69 29.736 161.708 29.638 161.744 29.546C161.784 29.454 161.836 29.374 161.9 29.306C161.968 29.238 162.048 29.184 162.14 29.144C162.232 29.104 162.33 29.084 162.434 29.084C162.538 29.084 162.636 29.104 162.728 29.144C162.82 29.184 162.9 29.238 162.968 29.306C163.036 29.374 163.088 29.454 163.124 29.546C163.164 29.638 163.184 29.736 163.184 29.84C163.184 29.948 163.164 30.048 163.124 30.14C163.088 30.228 163.036 30.306 162.968 30.374C162.9 30.442 162.82 30.494 162.728 30.53C162.636 30.57 162.538 30.59 162.434 30.59C162.33 30.59 162.232 30.57 162.14 30.53C162.048 30.494 161.968 30.442 161.9 30.374C161.836 30.306 161.784 30.228 161.744 30.14C161.708 30.048 161.69 29.948 161.69 29.84ZM161.69 25.34C161.69 25.236 161.708 25.138 161.744 25.046C161.784 24.954 161.836 24.874 161.9 24.806C161.968 24.738 162.048 24.684 162.14 24.644C162.232 24.604 162.33 24.584 162.434 24.584C162.538 24.584 162.636 24.604 162.728 24.644C162.82 24.684 162.9 24.738 162.968 24.806C163.036 24.874 163.088 24.954 163.124 25.046C163.164 25.138 163.184 25.236 163.184 25.34C163.184 25.448 163.164 25.548 163.124 25.64C163.088 25.728 163.036 25.806 162.968 25.874C162.9 25.942 162.82 25.996 162.728 26.036C162.636 26.072 162.538 26.09 162.434 26.09C162.33 26.09 162.232 26.072 162.14 26.036C162.048 25.996 161.968 25.942 161.9 25.874C161.836 25.806 161.784 25.728 161.744 25.64C161.708 25.548 161.69 25.448 161.69 25.34ZM167.665 21.806C168.029 21.806 168.365 21.858 168.673 21.962C168.981 22.066 169.245 22.214 169.465 22.406C169.689 22.598 169.863 22.83 169.987 23.102C170.111 23.374 170.173 23.676 170.173 24.008C170.173 24.28 170.137 24.524 170.065 24.74C169.997 24.952 169.897 25.14 169.765 25.304C169.637 25.464 169.481 25.6 169.297 25.712C169.113 25.824 168.907 25.914 168.679 25.982C169.239 26.13 169.659 26.378 169.939 26.726C170.223 27.074 170.365 27.51 170.365 28.034C170.365 28.43 170.289 28.786 170.137 29.102C169.989 29.418 169.785 29.688 169.525 29.912C169.265 30.132 168.961 30.302 168.613 30.422C168.269 30.538 167.899 30.596 167.503 30.596C167.047 30.596 166.657 30.54 166.333 30.428C166.009 30.312 165.735 30.154 165.511 29.954C165.287 29.754 165.103 29.518 164.959 29.246C164.815 28.97 164.693 28.672 164.593 28.352L165.049 28.16C165.133 28.124 165.217 28.106 165.301 28.106C165.381 28.106 165.451 28.124 165.511 28.16C165.575 28.192 165.623 28.244 165.655 28.316C165.663 28.332 165.671 28.35 165.679 28.37C165.687 28.386 165.695 28.404 165.703 28.424C165.759 28.54 165.827 28.672 165.907 28.82C165.987 28.964 166.095 29.1 166.231 29.228C166.367 29.356 166.535 29.464 166.735 29.552C166.939 29.64 167.191 29.684 167.491 29.684C167.791 29.684 168.053 29.636 168.277 29.54C168.505 29.44 168.693 29.312 168.841 29.156C168.993 29 169.107 28.826 169.183 28.634C169.259 28.442 169.297 28.252 169.297 28.064C169.297 27.832 169.265 27.62 169.201 27.428C169.141 27.236 169.029 27.07 168.865 26.93C168.705 26.79 168.481 26.68 168.193 26.6C167.909 26.52 167.543 26.48 167.095 26.48V25.706C167.459 25.702 167.769 25.662 168.025 25.586C168.285 25.51 168.497 25.406 168.661 25.274C168.825 25.142 168.943 24.984 169.015 24.8C169.091 24.616 169.129 24.412 169.129 24.188C169.129 23.94 169.089 23.724 169.009 23.54C168.933 23.356 168.827 23.204 168.691 23.084C168.555 22.964 168.393 22.874 168.205 22.814C168.021 22.754 167.821 22.724 167.605 22.724C167.389 22.724 167.189 22.756 167.005 22.82C166.821 22.884 166.657 22.974 166.513 23.09C166.373 23.202 166.255 23.338 166.159 23.498C166.063 23.654 165.991 23.824 165.943 24.008C165.911 24.124 165.863 24.208 165.799 24.26C165.735 24.312 165.653 24.338 165.553 24.338C165.533 24.338 165.511 24.338 165.487 24.338C165.467 24.334 165.443 24.33 165.415 24.326L164.857 24.23C164.913 23.838 165.021 23.492 165.181 23.192C165.341 22.888 165.543 22.634 165.787 22.43C166.035 22.226 166.317 22.072 166.633 21.968C166.953 21.86 167.297 21.806 167.665 21.806ZM174.38 30.596C173.952 30.596 173.56 30.54 173.204 30.428C172.848 30.312 172.542 30.148 172.286 29.936C172.03 29.724 171.832 29.468 171.692 29.168C171.552 28.864 171.482 28.524 171.482 28.148C171.482 27.596 171.626 27.142 171.914 26.786C172.202 26.426 172.614 26.17 173.15 26.018C172.698 25.85 172.356 25.6 172.124 25.268C171.896 24.932 171.782 24.532 171.782 24.068C171.782 23.752 171.844 23.456 171.968 23.18C172.092 22.904 172.268 22.664 172.496 22.46C172.724 22.256 172.996 22.096 173.312 21.98C173.632 21.864 173.988 21.806 174.38 21.806C174.768 21.806 175.122 21.864 175.442 21.98C175.762 22.096 176.036 22.256 176.264 22.46C176.492 22.664 176.668 22.904 176.792 23.18C176.916 23.456 176.978 23.752 176.978 24.068C176.978 24.532 176.862 24.932 176.63 25.268C176.398 25.6 176.058 25.85 175.61 26.018C176.146 26.17 176.558 26.426 176.846 26.786C177.134 27.142 177.278 27.596 177.278 28.148C177.278 28.524 177.206 28.864 177.062 29.168C176.922 29.468 176.724 29.724 176.468 29.936C176.216 30.148 175.912 30.312 175.556 30.428C175.2 30.54 174.808 30.596 174.38 30.596ZM174.38 29.744C174.66 29.744 174.91 29.706 175.13 29.63C175.354 29.55 175.542 29.44 175.694 29.3C175.85 29.156 175.968 28.986 176.048 28.79C176.132 28.59 176.174 28.37 176.174 28.13C176.174 27.834 176.124 27.582 176.024 27.374C175.928 27.162 175.796 26.99 175.628 26.858C175.464 26.726 175.274 26.63 175.058 26.57C174.842 26.506 174.616 26.474 174.38 26.474C174.144 26.474 173.918 26.506 173.702 26.57C173.486 26.63 173.294 26.726 173.126 26.858C172.962 26.99 172.83 27.162 172.73 27.374C172.634 27.582 172.586 27.834 172.586 28.13C172.586 28.37 172.626 28.59 172.706 28.79C172.79 28.986 172.908 29.156 173.06 29.3C173.216 29.44 173.404 29.55 173.624 29.63C173.848 29.706 174.1 29.744 174.38 29.744ZM174.38 25.616C174.66 25.616 174.898 25.574 175.094 25.49C175.294 25.402 175.456 25.288 175.58 25.148C175.704 25.004 175.794 24.84 175.85 24.656C175.906 24.472 175.934 24.282 175.934 24.086C175.934 23.886 175.9 23.698 175.832 23.522C175.768 23.346 175.67 23.192 175.538 23.06C175.41 22.928 175.248 22.824 175.052 22.748C174.86 22.672 174.636 22.634 174.38 22.634C174.124 22.634 173.898 22.672 173.702 22.748C173.51 22.824 173.348 22.928 173.216 23.06C173.088 23.192 172.99 23.346 172.922 23.522C172.858 23.698 172.826 23.886 172.826 24.086C172.826 24.282 172.854 24.472 172.91 24.656C172.966 24.84 173.056 25.004 173.18 25.148C173.304 25.288 173.464 25.402 173.66 25.49C173.86 25.574 174.1 25.616 174.38 25.616Z" fill="#828282"/>
<rect x="17" y="18" width="36" height="36" rx="8" fill="#F2BE02" fill-opacity="0.5"/>
<path d="M36.2626 36.168C36.2626 37.0107 36.1159 37.7893 35.8226 38.504C35.5346 39.2133 35.1266 39.8293 34.5986 40.352C34.0706 40.8693 33.4332 41.2747 32.6866 41.568C31.9452 41.856 31.1212 42 30.2146 42H25.6866V30.344H30.2146C31.1212 30.344 31.9452 30.4907 32.6866 30.784C33.4332 31.0773 34.0706 31.4827 34.5986 32C35.1266 32.5173 35.5346 33.1333 35.8226 33.848C36.1159 34.5573 36.2626 35.3307 36.2626 36.168ZM33.4946 36.168C33.4946 35.592 33.4199 35.072 33.2706 34.608C33.1212 34.144 32.9052 33.752 32.6226 33.432C32.3452 33.1067 32.0039 32.8587 31.5986 32.688C31.1932 32.512 30.7319 32.424 30.2146 32.424H28.4066V39.92H30.2146C30.7319 39.92 31.1932 39.8347 31.5986 39.664C32.0039 39.488 32.3452 39.24 32.6226 38.92C32.9052 38.5947 33.1212 38.2 33.2706 37.736C33.4199 37.272 33.4946 36.7493 33.4946 36.168ZM44.0576 32.712C43.9776 32.84 43.8922 32.936 43.8016 33C43.7162 33.064 43.6042 33.096 43.4656 33.096C43.3429 33.096 43.2096 33.0587 43.0656 32.984C42.9269 32.904 42.7669 32.816 42.5856 32.72C42.4096 32.624 42.2069 32.5387 41.9776 32.464C41.7482 32.384 41.4869 32.344 41.1936 32.344C40.6869 32.344 40.3082 32.4533 40.0576 32.672C39.8122 32.8853 39.6896 33.176 39.6896 33.544C39.6896 33.7787 39.7642 33.9733 39.9136 34.128C40.0629 34.2827 40.2576 34.416 40.4976 34.528C40.7429 34.64 41.0202 34.744 41.3296 34.84C41.6442 34.9307 41.9642 35.0347 42.2896 35.152C42.6149 35.264 42.9322 35.3973 43.2416 35.552C43.5562 35.7067 43.8336 35.904 44.0736 36.144C44.3189 36.384 44.5162 36.6773 44.6656 37.024C44.8149 37.3653 44.8896 37.7787 44.8896 38.264C44.8896 38.8027 44.7962 39.3067 44.6096 39.776C44.4229 40.2453 44.1509 40.656 43.7936 41.008C43.4416 41.3547 43.0042 41.6293 42.4816 41.832C41.9642 42.0293 41.3749 42.128 40.7136 42.128C40.3509 42.128 39.9802 42.0907 39.6016 42.016C39.2282 41.9413 38.8656 41.8373 38.5136 41.704C38.1616 41.5653 37.8309 41.4027 37.5216 41.216C37.2122 41.0293 36.9429 40.8213 36.7136 40.592L37.5136 39.328C37.5722 39.232 37.6549 39.1547 37.7616 39.096C37.8682 39.0373 37.9829 39.008 38.1056 39.008C38.2656 39.008 38.4256 39.0587 38.5856 39.16C38.7509 39.2613 38.9349 39.3733 39.1376 39.496C39.3456 39.6187 39.5829 39.7307 39.8496 39.832C40.1162 39.9333 40.4309 39.984 40.7936 39.984C41.2842 39.984 41.6656 39.8773 41.9376 39.664C42.2096 39.4453 42.3456 39.1013 42.3456 38.632C42.3456 38.36 42.2709 38.1387 42.1216 37.968C41.9722 37.7973 41.7749 37.656 41.5296 37.544C41.2896 37.432 41.0149 37.3333 40.7056 37.248C40.3962 37.1627 40.0789 37.0693 39.7536 36.968C39.4282 36.8613 39.1109 36.7333 38.8016 36.584C38.4922 36.4293 38.2149 36.2293 37.9696 35.984C37.7296 35.7333 37.5349 35.424 37.3856 35.056C37.2362 34.6827 37.1616 34.224 37.1616 33.68C37.1616 33.2427 37.2496 32.816 37.4256 32.4C37.6016 31.984 37.8602 31.6133 38.2016 31.288C38.5429 30.9627 38.9616 30.704 39.4576 30.512C39.9536 30.3147 40.5216 30.216 41.1616 30.216C41.5189 30.216 41.8656 30.2453 42.2016 30.304C42.5429 30.3573 42.8656 30.44 43.1696 30.552C43.4736 30.6587 43.7562 30.7893 44.0176 30.944C44.2842 31.0933 44.5216 31.264 44.7296 31.456L44.0576 32.712Z" fill="white"/>
<rect x="45" y="11" width="16.6667" height="14.5" rx="7.25" fill="#00CE7D"/>
<path d="M55.0446 14.795C55.0446 14.9717 54.9879 15.115 54.8746 15.225C54.7646 15.335 54.5796 15.39 54.3196 15.39H52.3296L52.0696 16.9C52.3963 16.8333 52.6946 16.8 52.9646 16.8C53.3446 16.8 53.6779 16.8567 53.9646 16.97C54.2546 17.0833 54.4979 17.24 54.6946 17.44C54.8913 17.64 55.0396 17.875 55.1396 18.145C55.2396 18.4117 55.2896 18.7 55.2896 19.01C55.2896 19.3933 55.2213 19.7433 55.0846 20.06C54.9513 20.3767 54.7646 20.6483 54.5246 20.875C54.2846 21.0983 53.9996 21.2717 53.6696 21.395C53.3429 21.5183 52.9863 21.58 52.5996 21.58C52.3729 21.58 52.1579 21.5567 51.9546 21.51C51.7513 21.4633 51.5596 21.4017 51.3796 21.325C51.2029 21.245 51.0379 21.155 50.8846 21.055C50.7346 20.9517 50.5996 20.8433 50.4796 20.73L50.8596 20.205C50.9396 20.0917 51.0463 20.035 51.1796 20.035C51.2629 20.035 51.3463 20.0617 51.4296 20.115C51.5163 20.1683 51.6163 20.2267 51.7296 20.29C51.8429 20.3533 51.9746 20.4117 52.1246 20.465C52.2746 20.5183 52.4563 20.545 52.6696 20.545C52.8963 20.545 53.0963 20.5083 53.2696 20.435C53.4429 20.3617 53.5863 20.26 53.6996 20.13C53.8163 19.9967 53.9029 19.84 53.9596 19.66C54.0196 19.4767 54.0496 19.2783 54.0496 19.065C54.0496 18.6717 53.9346 18.365 53.7046 18.145C53.4779 17.9217 53.1429 17.81 52.6996 17.81C52.3496 17.81 51.9979 17.8733 51.6446 18L50.8746 17.78L51.4746 14.27H55.0446V14.795Z" fill="white"/>
<path d="M1 1V0H0V1H1ZM376 1H377V0H376V1ZM376 71V72H377V71H376ZM1 71H0V72H1V71ZM1 2H376V0H1V2ZM375 1V71H377V1H375ZM376 70H1V72H376V70ZM2 71V1H0V71H2Z" fill="#F3F4F9"/>
</svg>
