<svg width="377" height="72" viewBox="0 0 377 72" fill="none" xmlns="http://www.w3.org/2000/svg">
<path d="M1 1H376V71H1V1Z" fill="white"/>
<path d="M71.828 52H70.47V41.969H71.828V52ZM76.098 44.909H77.078C77.1807 44.909 77.2647 44.9347 77.33 44.986C77.3953 45.0373 77.4397 45.098 77.463 45.168L78.821 49.732C78.8583 49.9 78.8933 50.0633 78.926 50.222C78.9587 50.376 78.9867 50.5323 79.01 50.691C79.0473 50.5323 79.0893 50.376 79.136 50.222C79.1827 50.0633 79.2317 49.9 79.283 49.732L80.781 45.14C80.8043 45.07 80.844 45.0117 80.9 44.965C80.9607 44.9183 81.0353 44.895 81.124 44.895H81.663C81.7563 44.895 81.8333 44.9183 81.894 44.965C81.9547 45.0117 81.9967 45.07 82.02 45.14L83.483 49.732C83.5343 49.8953 83.5787 50.0563 83.616 50.215C83.658 50.3737 83.6977 50.53 83.735 50.684C83.7583 50.53 83.7887 50.369 83.826 50.201C83.8633 50.033 83.903 49.8767 83.945 49.732L85.331 45.168C85.3543 45.0933 85.3987 45.0327 85.464 44.986C85.5293 44.9347 85.6063 44.909 85.695 44.909H86.633L84.337 52H83.35C83.2287 52 83.1447 51.9207 83.098 51.762L81.53 46.953C81.4927 46.8457 81.4623 46.7383 81.439 46.631C81.4157 46.519 81.3923 46.4093 81.369 46.302C81.3457 46.4093 81.3223 46.519 81.299 46.631C81.2757 46.743 81.2453 46.8527 81.208 46.96L79.619 51.762C79.5677 51.9207 79.472 52 79.332 52H78.394L76.098 44.909ZM92.9488 52H92.3958C92.2744 52 92.1764 51.9813 92.1018 51.944C92.0271 51.9067 91.9781 51.8273 91.9548 51.706L91.8148 51.048C91.6281 51.216 91.4461 51.3677 91.2688 51.503C91.0914 51.6337 90.9048 51.7457 90.7088 51.839C90.5128 51.9277 90.3028 51.9953 90.0788 52.042C89.8594 52.0887 89.6144 52.112 89.3438 52.112C89.0684 52.112 88.8094 52.0747 88.5667 52C88.3288 51.9207 88.1211 51.804 87.9438 51.65C87.7664 51.496 87.6241 51.3023 87.5168 51.069C87.4141 50.831 87.3628 50.551 87.3628 50.229C87.3628 49.949 87.4398 49.6807 87.5938 49.424C87.7478 49.1627 87.9951 48.9317 88.3358 48.731C88.6811 48.5303 89.1314 48.367 89.6868 48.241C90.2421 48.1103 90.9211 48.0357 91.7238 48.017V47.464C91.7238 46.9133 91.6048 46.498 91.3668 46.218C91.1334 45.9333 90.7858 45.791 90.3238 45.791C90.0204 45.791 89.7638 45.8307 89.5538 45.91C89.3484 45.9847 89.1688 46.071 89.0148 46.169C88.8654 46.2623 88.7348 46.3487 88.6228 46.428C88.5154 46.5027 88.4081 46.54 88.3008 46.54C88.2168 46.54 88.1421 46.519 88.0768 46.477C88.0161 46.4303 87.9671 46.3743 87.9298 46.309L87.7058 45.91C88.0978 45.532 88.5201 45.2497 88.9728 45.063C89.4254 44.8763 89.9271 44.783 90.4778 44.783C90.8744 44.783 91.2268 44.8483 91.5348 44.979C91.8428 45.1097 92.1018 45.2917 92.3118 45.525C92.5218 45.7583 92.6804 46.0407 92.7878 46.372C92.8951 46.7033 92.9488 47.0673 92.9488 47.464V52ZM89.7148 51.237C89.9341 51.237 90.1348 51.216 90.3167 51.174C90.4988 51.1273 90.6691 51.0643 90.8278 50.985C90.9911 50.901 91.1451 50.8007 91.2898 50.684C91.4391 50.5673 91.5838 50.4343 91.7238 50.285V48.808C91.1498 48.8267 90.6621 48.8733 90.2608 48.948C89.8594 49.018 89.5328 49.1113 89.2808 49.228C89.0288 49.3447 88.8444 49.4823 88.7278 49.641C88.6158 49.7997 88.5598 49.977 88.5598 50.173C88.5598 50.3597 88.5901 50.5207 88.6508 50.656C88.7114 50.7913 88.7931 50.9033 88.8958 50.992C88.9984 51.076 89.1198 51.139 89.2598 51.181C89.3998 51.2183 89.5514 51.237 89.7148 51.237ZM94.8365 52V44.909H95.5785C95.7558 44.909 95.8678 44.9953 95.9145 45.168L96.0125 45.938C96.3205 45.5973 96.6635 45.322 97.0415 45.112C97.4241 44.902 97.8651 44.797 98.3645 44.797C98.7518 44.797 99.0925 44.8623 99.3865 44.993C99.6851 45.119 99.9325 45.301 100.128 45.539C100.329 45.7723 100.481 46.0547 100.583 46.386C100.686 46.7173 100.737 47.0837 100.737 47.485V52H99.4915V47.485C99.4915 46.9483 99.3678 46.533 99.1205 46.239C98.8778 45.9403 98.5045 45.791 98.0005 45.791C97.6318 45.791 97.2865 45.8797 96.9645 46.057C96.6471 46.2343 96.3531 46.4747 96.0825 46.778V52H94.8365ZM104.765 52.112C104.205 52.112 103.773 51.9557 103.47 51.643C103.171 51.3303 103.022 50.88 103.022 50.292V45.952H102.168C102.093 45.952 102.03 45.931 101.979 45.889C101.927 45.8423 101.902 45.7723 101.902 45.679V45.182L103.064 45.035L103.351 42.844C103.36 42.774 103.39 42.718 103.442 42.676C103.493 42.6293 103.558 42.606 103.638 42.606H104.268V45.049H106.298V45.952H104.268V50.208C104.268 50.5067 104.34 50.7283 104.485 50.873C104.629 51.0177 104.816 51.09 105.045 51.09C105.175 51.09 105.287 51.0737 105.381 51.041C105.479 51.0037 105.563 50.964 105.633 50.922C105.703 50.88 105.761 50.8427 105.808 50.81C105.859 50.7727 105.903 50.754 105.941 50.754C106.006 50.754 106.064 50.7937 106.116 50.873L106.48 51.468C106.265 51.6687 106.006 51.8273 105.703 51.944C105.399 52.056 105.087 52.112 104.765 52.112ZM112.694 52.112C112.134 52.112 111.703 51.9557 111.399 51.643C111.101 51.3303 110.951 50.88 110.951 50.292V45.952H110.097C110.023 45.952 109.96 45.931 109.908 45.889C109.857 45.8423 109.831 45.7723 109.831 45.679V45.182L110.993 45.035L111.28 42.844C111.29 42.774 111.32 42.718 111.371 42.676C111.423 42.6293 111.488 42.606 111.567 42.606H112.197V45.049H114.227V45.952H112.197V50.208C112.197 50.5067 112.27 50.7283 112.414 50.873C112.559 51.0177 112.746 51.09 112.974 51.09C113.105 51.09 113.217 51.0737 113.31 51.041C113.408 51.0037 113.492 50.964 113.562 50.922C113.632 50.88 113.691 50.8427 113.737 50.81C113.789 50.7727 113.833 50.754 113.87 50.754C113.936 50.754 113.994 50.7937 114.045 50.873L114.409 51.468C114.195 51.6687 113.936 51.8273 113.632 51.944C113.329 52.056 113.016 52.112 112.694 52.112ZM118.638 44.797C119.156 44.797 119.623 44.8833 120.038 45.056C120.458 45.2287 120.813 45.4737 121.102 45.791C121.396 46.1083 121.62 46.4933 121.774 46.946C121.933 47.394 122.012 47.8957 122.012 48.451C122.012 49.011 121.933 49.515 121.774 49.963C121.62 50.411 121.396 50.7937 121.102 51.111C120.813 51.4283 120.458 51.6733 120.038 51.846C119.623 52.014 119.156 52.098 118.638 52.098C118.12 52.098 117.651 52.014 117.231 51.846C116.816 51.6733 116.461 51.4283 116.167 51.111C115.873 50.7937 115.647 50.411 115.488 49.963C115.329 49.515 115.25 49.011 115.25 48.451C115.25 47.8957 115.329 47.394 115.488 46.946C115.647 46.4933 115.873 46.1083 116.167 45.791C116.461 45.4737 116.816 45.2287 117.231 45.056C117.651 44.8833 118.12 44.797 118.638 44.797ZM118.638 51.125C119.338 51.125 119.861 50.8917 120.206 50.425C120.551 49.9537 120.724 49.298 120.724 48.458C120.724 47.6133 120.551 46.9553 120.206 46.484C119.861 46.0127 119.338 45.777 118.638 45.777C118.283 45.777 117.975 45.8377 117.714 45.959C117.453 46.0803 117.233 46.2553 117.056 46.484C116.883 46.7127 116.753 46.995 116.664 47.331C116.58 47.6623 116.538 48.038 116.538 48.458C116.538 48.878 116.58 49.2537 116.664 49.585C116.753 49.9163 116.883 50.1963 117.056 50.425C117.233 50.649 117.453 50.8217 117.714 50.943C117.975 51.0643 118.283 51.125 118.638 51.125ZM128.403 52.112C127.843 52.112 127.412 51.9557 127.108 51.643C126.81 51.3303 126.66 50.88 126.66 50.292V45.952H125.806C125.732 45.952 125.669 45.931 125.617 45.889C125.566 45.8423 125.54 45.7723 125.54 45.679V45.182L126.702 45.035L126.989 42.844C126.999 42.774 127.029 42.718 127.08 42.676C127.132 42.6293 127.197 42.606 127.276 42.606H127.906V45.049H129.936V45.952H127.906V50.208C127.906 50.5067 127.979 50.7283 128.123 50.873C128.268 51.0177 128.455 51.09 128.683 51.09C128.814 51.09 128.926 51.0737 129.019 51.041C129.117 51.0037 129.201 50.964 129.271 50.922C129.341 50.88 129.4 50.8427 129.446 50.81C129.498 50.7727 129.542 50.754 129.579 50.754C129.645 50.754 129.703 50.7937 129.754 50.873L130.118 51.468C129.904 51.6687 129.645 51.8273 129.341 51.944C129.038 52.056 128.725 52.112 128.403 52.112ZM136.685 52H136.132C136.011 52 135.913 51.9813 135.838 51.944C135.763 51.9067 135.714 51.8273 135.691 51.706L135.551 51.048C135.364 51.216 135.182 51.3677 135.005 51.503C134.828 51.6337 134.641 51.7457 134.445 51.839C134.249 51.9277 134.039 51.9953 133.815 52.042C133.596 52.0887 133.351 52.112 133.08 52.112C132.805 52.112 132.546 52.0747 132.303 52C132.065 51.9207 131.857 51.804 131.68 51.65C131.503 51.496 131.36 51.3023 131.253 51.069C131.15 50.831 131.099 50.551 131.099 50.229C131.099 49.949 131.176 49.6807 131.33 49.424C131.484 49.1627 131.731 48.9317 132.072 48.731C132.417 48.5303 132.868 48.367 133.423 48.241C133.978 48.1103 134.657 48.0357 135.46 48.017V47.464C135.46 46.9133 135.341 46.498 135.103 46.218C134.87 45.9333 134.522 45.791 134.06 45.791C133.757 45.791 133.5 45.8307 133.29 45.91C133.085 45.9847 132.905 46.071 132.751 46.169C132.602 46.2623 132.471 46.3487 132.359 46.428C132.252 46.5027 132.144 46.54 132.037 46.54C131.953 46.54 131.878 46.519 131.813 46.477C131.752 46.4303 131.703 46.3743 131.666 46.309L131.442 45.91C131.834 45.532 132.256 45.2497 132.709 45.063C133.162 44.8763 133.663 44.783 134.214 44.783C134.611 44.783 134.963 44.8483 135.271 44.979C135.579 45.1097 135.838 45.2917 136.048 45.525C136.258 45.7583 136.417 46.0407 136.524 46.372C136.631 46.7033 136.685 47.0673 136.685 47.464V52ZM133.451 51.237C133.67 51.237 133.871 51.216 134.053 51.174C134.235 51.1273 134.405 51.0643 134.564 50.985C134.727 50.901 134.881 50.8007 135.026 50.684C135.175 50.5673 135.32 50.4343 135.46 50.285V48.808C134.886 48.8267 134.398 48.8733 133.997 48.948C133.596 49.018 133.269 49.1113 133.017 49.228C132.765 49.3447 132.581 49.4823 132.464 49.641C132.352 49.7997 132.296 49.977 132.296 50.173C132.296 50.3597 132.326 50.5207 132.387 50.656C132.448 50.7913 132.529 50.9033 132.632 50.992C132.735 51.076 132.856 51.139 132.996 51.181C133.136 51.2183 133.288 51.237 133.451 51.237ZM139.959 41.689V52H138.713V41.689H139.959ZM143.45 41.689V47.758H143.772C143.865 47.758 143.942 47.7463 144.003 47.723C144.063 47.695 144.131 47.6413 144.206 47.562L146.446 45.161C146.516 45.0863 146.586 45.0257 146.656 44.979C146.726 44.9323 146.819 44.909 146.936 44.909H148.07L145.459 47.688C145.393 47.7673 145.328 47.8373 145.263 47.898C145.202 47.9587 145.132 48.0123 145.053 48.059C145.137 48.115 145.211 48.1803 145.277 48.255C145.347 48.325 145.412 48.4067 145.473 48.5L148.245 52H147.125C147.022 52 146.933 51.9813 146.859 51.944C146.789 51.902 146.721 51.839 146.656 51.755L144.325 48.85C144.255 48.752 144.185 48.689 144.115 48.661C144.045 48.6283 143.94 48.612 143.8 48.612H143.45V52H142.197V41.689H143.45ZM157.412 52H156.859C156.737 52 156.639 51.9813 156.565 51.944C156.49 51.9067 156.441 51.8273 156.418 51.706L156.278 51.048C156.091 51.216 155.909 51.3677 155.732 51.503C155.554 51.6337 155.368 51.7457 155.172 51.839C154.976 51.9277 154.766 51.9953 154.542 52.042C154.322 52.0887 154.077 52.112 153.807 52.112C153.531 52.112 153.272 52.0747 153.03 52C152.792 51.9207 152.584 51.804 152.407 51.65C152.229 51.496 152.087 51.3023 151.98 51.069C151.877 50.831 151.826 50.551 151.826 50.229C151.826 49.949 151.903 49.6807 152.057 49.424C152.211 49.1627 152.458 48.9317 152.799 48.731C153.144 48.5303 153.594 48.367 154.15 48.241C154.705 48.1103 155.384 48.0357 156.187 48.017V47.464C156.187 46.9133 156.068 46.498 155.83 46.218C155.596 45.9333 155.249 45.791 154.787 45.791C154.483 45.791 154.227 45.8307 154.017 45.91C153.811 45.9847 153.632 46.071 153.478 46.169C153.328 46.2623 153.198 46.3487 153.086 46.428C152.978 46.5027 152.871 46.54 152.764 46.54C152.68 46.54 152.605 46.519 152.54 46.477C152.479 46.4303 152.43 46.3743 152.393 46.309L152.169 45.91C152.561 45.532 152.983 45.2497 153.436 45.063C153.888 44.8763 154.39 44.783 154.941 44.783C155.337 44.783 155.69 44.8483 155.998 44.979C156.306 45.1097 156.565 45.2917 156.775 45.525C156.985 45.7583 157.143 46.0407 157.251 46.372C157.358 46.7033 157.412 47.0673 157.412 47.464V52ZM154.178 51.237C154.397 51.237 154.598 51.216 154.78 51.174C154.962 51.1273 155.132 51.0643 155.291 50.985C155.454 50.901 155.608 50.8007 155.753 50.684C155.902 50.5673 156.047 50.4343 156.187 50.285V48.808C155.613 48.8267 155.125 48.8733 154.724 48.948C154.322 49.018 153.996 49.1113 153.744 49.228C153.492 49.3447 153.307 49.4823 153.191 49.641C153.079 49.7997 153.023 49.977 153.023 50.173C153.023 50.3597 153.053 50.5207 153.114 50.656C153.174 50.7913 153.256 50.9033 153.359 50.992C153.461 51.076 153.583 51.139 153.723 51.181C153.863 51.2183 154.014 51.237 154.178 51.237ZM159.341 52V41.689H160.594V45.931C160.888 45.5903 161.224 45.3173 161.602 45.112C161.985 44.902 162.421 44.797 162.911 44.797C163.322 44.797 163.693 44.874 164.024 45.028C164.356 45.182 164.638 45.413 164.871 45.721C165.105 46.0243 165.284 46.4023 165.41 46.855C165.536 47.303 165.599 47.821 165.599 48.409C165.599 48.9317 165.529 49.4193 165.389 49.872C165.249 50.32 165.046 50.7097 164.78 51.041C164.519 51.3677 164.197 51.6267 163.814 51.818C163.436 52.0047 163.009 52.098 162.533 52.098C162.076 52.098 161.686 52.0093 161.364 51.832C161.047 51.6547 160.769 51.4073 160.531 51.09L160.468 51.734C160.431 51.9113 160.324 52 160.146 52H159.341ZM162.505 45.791C162.099 45.791 161.742 45.8843 161.434 46.071C161.131 46.2577 160.851 46.5213 160.594 46.862V50.292C160.818 50.6 161.066 50.817 161.336 50.943C161.612 51.069 161.917 51.132 162.253 51.132C162.916 51.132 163.425 50.8963 163.779 50.425C164.134 49.9537 164.311 49.2817 164.311 48.409C164.311 47.947 164.269 47.5503 164.185 47.219C164.106 46.8877 163.989 46.617 163.835 46.407C163.681 46.1923 163.492 46.036 163.268 45.938C163.044 45.84 162.79 45.791 162.505 45.791ZM169.99 44.797C170.508 44.797 170.974 44.8833 171.39 45.056C171.81 45.2287 172.164 45.4737 172.454 45.791C172.748 46.1083 172.972 46.4933 173.126 46.946C173.284 47.394 173.364 47.8957 173.364 48.451C173.364 49.011 173.284 49.515 173.126 49.963C172.972 50.411 172.748 50.7937 172.454 51.111C172.164 51.4283 171.81 51.6733 171.39 51.846C170.974 52.014 170.508 52.098 169.99 52.098C169.472 52.098 169.003 52.014 168.583 51.846C168.167 51.6733 167.813 51.4283 167.519 51.111C167.225 50.7937 166.998 50.411 166.84 49.963C166.681 49.515 166.602 49.011 166.602 48.451C166.602 47.8957 166.681 47.394 166.84 46.946C166.998 46.4933 167.225 46.1083 167.519 45.791C167.813 45.4737 168.167 45.2287 168.583 45.056C169.003 44.8833 169.472 44.797 169.99 44.797ZM169.99 51.125C170.69 51.125 171.212 50.8917 171.558 50.425C171.903 49.9537 172.076 49.298 172.076 48.458C172.076 47.6133 171.903 46.9553 171.558 46.484C171.212 46.0127 170.69 45.777 169.99 45.777C169.635 45.777 169.327 45.8377 169.066 45.959C168.804 46.0803 168.585 46.2553 168.408 46.484C168.235 46.7127 168.104 46.995 168.016 47.331C167.932 47.6623 167.89 48.038 167.89 48.458C167.89 48.878 167.932 49.2537 168.016 49.585C168.104 49.9163 168.235 50.1963 168.408 50.425C168.585 50.649 168.804 50.8217 169.066 50.943C169.327 51.0643 169.635 51.125 169.99 51.125ZM175.977 44.909V49.431C175.977 49.9677 176.101 50.383 176.348 50.677C176.595 50.971 176.969 51.118 177.468 51.118C177.832 51.118 178.175 51.0317 178.497 50.859C178.819 50.6863 179.115 50.446 179.386 50.138V44.909H180.632V52H179.89C179.713 52 179.601 51.9137 179.554 51.741L179.456 50.978C179.148 51.3187 178.803 51.594 178.42 51.804C178.037 52.0093 177.599 52.112 177.104 52.112C176.717 52.112 176.374 52.049 176.075 51.923C175.781 51.7923 175.534 51.6103 175.333 51.377C175.132 51.1437 174.981 50.8613 174.878 50.53C174.78 50.1987 174.731 49.8323 174.731 49.431V44.909H175.977ZM184.827 52.112C184.267 52.112 183.836 51.9557 183.532 51.643C183.234 51.3303 183.084 50.88 183.084 50.292V45.952H182.23C182.156 45.952 182.093 45.931 182.041 45.889C181.99 45.8423 181.964 45.7723 181.964 45.679V45.182L183.126 45.035L183.413 42.844C183.423 42.774 183.453 42.718 183.504 42.676C183.556 42.6293 183.621 42.606 183.7 42.606H184.33V45.049H186.36V45.952H184.33V50.208C184.33 50.5067 184.403 50.7283 184.547 50.873C184.692 51.0177 184.879 51.09 185.107 51.09C185.238 51.09 185.35 51.0737 185.443 51.041C185.541 51.0037 185.625 50.964 185.695 50.922C185.765 50.88 185.824 50.8427 185.87 50.81C185.922 50.7727 185.966 50.754 186.003 50.754C186.069 50.754 186.127 50.7937 186.178 50.873L186.542 51.468C186.328 51.6687 186.069 51.8273 185.765 51.944C185.462 52.056 185.149 52.112 184.827 52.112ZM192.757 52.112C192.197 52.112 191.765 51.9557 191.462 51.643C191.163 51.3303 191.014 50.88 191.014 50.292V45.952H190.16C190.085 45.952 190.022 45.931 189.971 45.889C189.92 45.8423 189.894 45.7723 189.894 45.679V45.182L191.056 45.035L191.343 42.844C191.352 42.774 191.383 42.718 191.434 42.676C191.485 42.6293 191.551 42.606 191.63 42.606H192.26V45.049H194.29V45.952H192.26V50.208C192.26 50.5067 192.332 50.7283 192.477 50.873C192.622 51.0177 192.808 51.09 193.037 51.09C193.168 51.09 193.28 51.0737 193.373 51.041C193.471 51.0037 193.555 50.964 193.625 50.922C193.695 50.88 193.753 50.8427 193.8 50.81C193.851 50.7727 193.896 50.754 193.933 50.754C193.998 50.754 194.057 50.7937 194.108 50.873L194.472 51.468C194.257 51.6687 193.998 51.8273 193.695 51.944C193.392 52.056 193.079 52.112 192.757 52.112ZM198.701 44.797C199.219 44.797 199.685 44.8833 200.101 45.056C200.521 45.2287 200.875 45.4737 201.165 45.791C201.459 46.1083 201.683 46.4933 201.837 46.946C201.995 47.394 202.075 47.8957 202.075 48.451C202.075 49.011 201.995 49.515 201.837 49.963C201.683 50.411 201.459 50.7937 201.165 51.111C200.875 51.4283 200.521 51.6733 200.101 51.846C199.685 52.014 199.219 52.098 198.701 52.098C198.183 52.098 197.714 52.014 197.294 51.846C196.878 51.6733 196.524 51.4283 196.23 51.111C195.936 50.7937 195.709 50.411 195.551 49.963C195.392 49.515 195.313 49.011 195.313 48.451C195.313 47.8957 195.392 47.394 195.551 46.946C195.709 46.4933 195.936 46.1083 196.23 45.791C196.524 45.4737 196.878 45.2287 197.294 45.056C197.714 44.8833 198.183 44.797 198.701 44.797ZM198.701 51.125C199.401 51.125 199.923 50.8917 200.269 50.425C200.614 49.9537 200.787 49.298 200.787 48.458C200.787 47.6133 200.614 46.9553 200.269 46.484C199.923 46.0127 199.401 45.777 198.701 45.777C198.346 45.777 198.038 45.8377 197.777 45.959C197.515 46.0803 197.296 46.2553 197.119 46.484C196.946 46.7127 196.815 46.995 196.727 47.331C196.643 47.6623 196.601 48.038 196.601 48.458C196.601 48.878 196.643 49.2537 196.727 49.585C196.815 49.9163 196.946 50.1963 197.119 50.425C197.296 50.649 197.515 50.8217 197.777 50.943C198.038 51.0643 198.346 51.125 198.701 51.125ZM208.466 52.112C207.906 52.112 207.474 51.9557 207.171 51.643C206.872 51.3303 206.723 50.88 206.723 50.292V45.952H205.869C205.794 45.952 205.731 45.931 205.68 45.889C205.629 45.8423 205.603 45.7723 205.603 45.679V45.182L206.765 45.035L207.052 42.844C207.061 42.774 207.092 42.718 207.143 42.676C207.194 42.6293 207.26 42.606 207.339 42.606H207.969V45.049H209.999V45.952H207.969V50.208C207.969 50.5067 208.041 50.7283 208.186 50.873C208.331 51.0177 208.517 51.09 208.746 51.09C208.877 51.09 208.989 51.0737 209.082 51.041C209.18 51.0037 209.264 50.964 209.334 50.922C209.404 50.88 209.462 50.8427 209.509 50.81C209.56 50.7727 209.605 50.754 209.642 50.754C209.707 50.754 209.766 50.7937 209.817 50.873L210.181 51.468C209.966 51.6687 209.707 51.8273 209.404 51.944C209.101 52.056 208.788 52.112 208.466 52.112ZM211.54 52V41.689H212.786V45.861C213.089 45.539 213.425 45.2823 213.794 45.091C214.162 44.895 214.587 44.797 215.068 44.797C215.455 44.797 215.796 44.8623 216.09 44.993C216.388 45.119 216.636 45.301 216.832 45.539C217.032 45.7723 217.184 46.0547 217.287 46.386C217.389 46.7173 217.441 47.0837 217.441 47.485V52H216.195V47.485C216.195 46.9483 216.071 46.533 215.824 46.239C215.581 45.9403 215.208 45.791 214.704 45.791C214.335 45.791 213.99 45.8797 213.668 46.057C213.35 46.2343 213.056 46.4747 212.786 46.778V52H211.54ZM220.705 44.909V52H219.459V44.909H220.705ZM220.985 42.683C220.985 42.8043 220.959 42.9187 220.908 43.026C220.861 43.1287 220.796 43.222 220.712 43.306C220.633 43.3853 220.539 43.4483 220.432 43.495C220.325 43.5417 220.21 43.565 220.089 43.565C219.968 43.565 219.853 43.5417 219.746 43.495C219.643 43.4483 219.55 43.3853 219.466 43.306C219.387 43.222 219.324 43.1287 219.277 43.026C219.23 42.9187 219.207 42.8043 219.207 42.683C219.207 42.5617 219.23 42.4473 219.277 42.34C219.324 42.228 219.387 42.1323 219.466 42.053C219.55 41.969 219.643 41.9037 219.746 41.857C219.853 41.8103 219.968 41.787 220.089 41.787C220.21 41.787 220.325 41.8103 220.432 41.857C220.539 41.9037 220.633 41.969 220.712 42.053C220.796 42.1323 220.861 42.228 220.908 42.34C220.959 42.4473 220.985 42.5617 220.985 42.683ZM222.901 52V44.909H223.643C223.82 44.909 223.932 44.9953 223.979 45.168L224.077 45.938C224.385 45.5973 224.728 45.322 225.106 45.112C225.489 44.902 225.93 44.797 226.429 44.797C226.816 44.797 227.157 44.8623 227.451 44.993C227.75 45.119 227.997 45.301 228.193 45.539C228.394 45.7723 228.545 46.0547 228.648 46.386C228.751 46.7173 228.802 47.0837 228.802 47.485V52H227.556V47.485C227.556 46.9483 227.432 46.533 227.185 46.239C226.942 45.9403 226.569 45.791 226.065 45.791C225.696 45.791 225.351 45.8797 225.029 46.057C224.712 46.2343 224.418 46.4747 224.147 46.778V52H222.901ZM233.067 44.79C233.375 44.79 233.662 44.825 233.928 44.895C234.199 44.9603 234.444 45.0583 234.663 45.189H236.588V45.651C236.588 45.805 236.49 45.903 236.294 45.945L235.489 46.057C235.648 46.3603 235.727 46.6987 235.727 47.072C235.727 47.4173 235.66 47.7323 235.524 48.017C235.394 48.297 235.209 48.5373 234.971 48.738C234.738 48.9387 234.458 49.0927 234.131 49.2C233.809 49.3073 233.455 49.361 233.067 49.361C232.736 49.361 232.423 49.3213 232.129 49.242C231.98 49.3353 231.866 49.4357 231.786 49.543C231.712 49.6503 231.674 49.7553 231.674 49.858C231.674 50.026 231.742 50.1543 231.877 50.243C232.013 50.327 232.192 50.3877 232.416 50.425C232.64 50.4623 232.895 50.4857 233.179 50.495C233.464 50.5043 233.753 50.5207 234.047 50.544C234.346 50.5627 234.638 50.5977 234.922 50.649C235.207 50.7003 235.461 50.7843 235.685 50.901C235.909 51.0177 236.089 51.1787 236.224 51.384C236.36 51.5893 236.427 51.8553 236.427 52.182C236.427 52.4853 236.35 52.7793 236.196 53.064C236.047 53.3487 235.83 53.6007 235.545 53.82C235.261 54.044 234.913 54.2213 234.502 54.352C234.092 54.4873 233.627 54.555 233.109 54.555C232.591 54.555 232.136 54.5037 231.744 54.401C231.357 54.2983 231.035 54.1607 230.778 53.988C230.522 53.8153 230.328 53.6147 230.197 53.386C230.071 53.162 230.008 52.9263 230.008 52.679C230.008 52.329 230.118 52.0327 230.337 51.79C230.561 51.5427 230.867 51.3467 231.254 51.202C231.054 51.1087 230.893 50.985 230.771 50.831C230.655 50.6723 230.596 50.4623 230.596 50.201C230.596 50.0983 230.615 49.9933 230.652 49.886C230.69 49.774 230.746 49.6643 230.82 49.557C230.9 49.4497 230.995 49.347 231.107 49.249C231.219 49.151 231.35 49.0647 231.499 48.99C231.149 48.794 230.874 48.535 230.673 48.213C230.477 47.8863 230.379 47.506 230.379 47.072C230.379 46.7267 230.445 46.414 230.575 46.134C230.711 45.8493 230.897 45.609 231.135 45.413C231.373 45.2123 231.656 45.0583 231.982 44.951C232.314 44.8437 232.675 44.79 233.067 44.79ZM235.279 52.385C235.279 52.2077 235.23 52.0653 235.132 51.958C235.034 51.8507 234.901 51.769 234.733 51.713C234.565 51.6523 234.372 51.608 234.152 51.58C233.933 51.552 233.702 51.5333 233.459 51.524C233.217 51.51 232.969 51.496 232.717 51.482C232.465 51.468 232.225 51.4423 231.996 51.405C231.73 51.531 231.513 51.685 231.345 51.867C231.182 52.049 231.1 52.266 231.1 52.518C231.1 52.6767 231.14 52.8237 231.219 52.959C231.303 53.099 231.429 53.218 231.597 53.316C231.765 53.4187 231.975 53.498 232.227 53.554C232.484 53.6147 232.785 53.645 233.13 53.645C233.466 53.645 233.767 53.6147 234.033 53.554C234.299 53.4933 234.523 53.407 234.705 53.295C234.892 53.183 235.034 53.05 235.132 52.896C235.23 52.742 235.279 52.5717 235.279 52.385ZM233.067 48.535C233.319 48.535 233.541 48.5 233.732 48.43C233.928 48.36 234.092 48.262 234.222 48.136C234.353 48.01 234.451 47.8607 234.516 47.688C234.582 47.5107 234.614 47.317 234.614 47.107C234.614 46.673 234.481 46.3277 234.215 46.071C233.954 45.8143 233.571 45.686 233.067 45.686C232.568 45.686 232.185 45.8143 231.919 46.071C231.658 46.3277 231.527 46.673 231.527 47.107C231.527 47.317 231.56 47.5107 231.625 47.688C231.695 47.8607 231.796 48.01 231.926 48.136C232.057 48.262 232.218 48.36 232.409 48.43C232.601 48.5 232.82 48.535 233.067 48.535ZM241.891 46.078C241.835 46.1807 241.748 46.232 241.632 46.232C241.562 46.232 241.482 46.2063 241.394 46.155C241.305 46.1037 241.195 46.0477 241.065 45.987C240.939 45.9217 240.787 45.8633 240.61 45.812C240.432 45.756 240.222 45.728 239.98 45.728C239.77 45.728 239.581 45.756 239.413 45.812C239.245 45.8633 239.1 45.9357 238.979 46.029C238.862 46.1223 238.771 46.232 238.706 46.358C238.645 46.4793 238.615 46.6123 238.615 46.757C238.615 46.939 238.666 47.0907 238.769 47.212C238.876 47.3333 239.016 47.4383 239.189 47.527C239.361 47.6157 239.557 47.695 239.777 47.765C239.996 47.8303 240.22 47.9027 240.449 47.982C240.682 48.0567 240.908 48.1407 241.128 48.234C241.347 48.3273 241.543 48.444 241.716 48.584C241.888 48.724 242.026 48.8967 242.129 49.102C242.236 49.3027 242.29 49.5453 242.29 49.83C242.29 50.1567 242.231 50.46 242.115 50.74C241.998 51.0153 241.825 51.2557 241.597 51.461C241.368 51.6617 241.088 51.8203 240.757 51.937C240.425 52.0537 240.043 52.112 239.609 52.112C239.114 52.112 238.666 52.0327 238.265 51.874C237.863 51.7107 237.523 51.503 237.243 51.251L237.537 50.775C237.574 50.7143 237.618 50.6677 237.67 50.635C237.721 50.6023 237.789 50.586 237.873 50.586C237.957 50.586 238.045 50.6187 238.139 50.684C238.232 50.7493 238.344 50.8217 238.475 50.901C238.61 50.9803 238.771 51.0527 238.958 51.118C239.149 51.1833 239.387 51.216 239.672 51.216C239.914 51.216 240.127 51.1857 240.309 51.125C240.491 51.0597 240.642 50.9733 240.764 50.866C240.885 50.7587 240.974 50.635 241.03 50.495C241.09 50.355 241.121 50.2057 241.121 50.047C241.121 49.851 241.067 49.69 240.96 49.564C240.857 49.4333 240.719 49.3237 240.547 49.235C240.374 49.1417 240.176 49.0623 239.952 48.997C239.732 48.927 239.506 48.8547 239.273 48.78C239.044 48.7053 238.818 48.6213 238.594 48.528C238.374 48.43 238.178 48.3087 238.006 48.164C237.833 48.0193 237.693 47.842 237.586 47.632C237.483 47.4173 237.432 47.1583 237.432 46.855C237.432 46.5843 237.488 46.3253 237.6 46.078C237.712 45.826 237.875 45.6067 238.09 45.42C238.304 45.2287 238.568 45.077 238.881 44.965C239.193 44.853 239.55 44.797 239.952 44.797C240.418 44.797 240.836 44.8717 241.205 45.021C241.578 45.1657 241.9 45.3663 242.171 45.623L241.891 46.078ZM248.757 52.112C248.197 52.112 247.765 51.9557 247.462 51.643C247.163 51.3303 247.014 50.88 247.014 50.292V45.952H246.16C246.085 45.952 246.022 45.931 245.971 45.889C245.92 45.8423 245.894 45.7723 245.894 45.679V45.182L247.056 45.035L247.343 42.844C247.352 42.774 247.383 42.718 247.434 42.676C247.485 42.6293 247.551 42.606 247.63 42.606H248.26V45.049H250.29V45.952H248.26V50.208C248.26 50.5067 248.332 50.7283 248.477 50.873C248.622 51.0177 248.808 51.09 249.037 51.09C249.168 51.09 249.28 51.0737 249.373 51.041C249.471 51.0037 249.555 50.964 249.625 50.922C249.695 50.88 249.753 50.8427 249.8 50.81C249.851 50.7727 249.896 50.754 249.933 50.754C249.998 50.754 250.057 50.7937 250.108 50.873L250.472 51.468C250.257 51.6687 249.998 51.8273 249.695 51.944C249.392 52.056 249.079 52.112 248.757 52.112ZM251.831 52V41.689H253.077V45.861C253.38 45.539 253.716 45.2823 254.085 45.091C254.453 44.895 254.878 44.797 255.359 44.797C255.746 44.797 256.087 44.8623 256.381 44.993C256.679 45.119 256.927 45.301 257.123 45.539C257.323 45.7723 257.475 46.0547 257.578 46.386C257.68 46.7173 257.732 47.0837 257.732 47.485V52H256.486V47.485C256.486 46.9483 256.362 46.533 256.115 46.239C255.872 45.9403 255.499 45.791 254.995 45.791C254.626 45.791 254.281 45.8797 253.959 46.057C253.641 46.2343 253.347 46.4747 253.077 46.778V52H251.831ZM264.818 52H264.265C264.144 52 264.046 51.9813 263.971 51.944C263.896 51.9067 263.847 51.8273 263.824 51.706L263.684 51.048C263.497 51.216 263.315 51.3677 263.138 51.503C262.961 51.6337 262.774 51.7457 262.578 51.839C262.382 51.9277 262.172 51.9953 261.948 52.042C261.729 52.0887 261.484 52.112 261.213 52.112C260.938 52.112 260.679 52.0747 260.436 52C260.198 51.9207 259.99 51.804 259.813 51.65C259.636 51.496 259.493 51.3023 259.386 51.069C259.283 50.831 259.232 50.551 259.232 50.229C259.232 49.949 259.309 49.6807 259.463 49.424C259.617 49.1627 259.864 48.9317 260.205 48.731C260.55 48.5303 261.001 48.367 261.556 48.241C262.111 48.1103 262.79 48.0357 263.593 48.017V47.464C263.593 46.9133 263.474 46.498 263.236 46.218C263.003 45.9333 262.655 45.791 262.193 45.791C261.89 45.791 261.633 45.8307 261.423 45.91C261.218 45.9847 261.038 46.071 260.884 46.169C260.735 46.2623 260.604 46.3487 260.492 46.428C260.385 46.5027 260.277 46.54 260.17 46.54C260.086 46.54 260.011 46.519 259.946 46.477C259.885 46.4303 259.836 46.3743 259.799 46.309L259.575 45.91C259.967 45.532 260.389 45.2497 260.842 45.063C261.295 44.8763 261.796 44.783 262.347 44.783C262.744 44.783 263.096 44.8483 263.404 44.979C263.712 45.1097 263.971 45.2917 264.181 45.525C264.391 45.7583 264.55 46.0407 264.657 46.372C264.764 46.7033 264.818 47.0673 264.818 47.464V52ZM261.584 51.237C261.803 51.237 262.004 51.216 262.186 51.174C262.368 51.1273 262.538 51.0643 262.697 50.985C262.86 50.901 263.014 50.8007 263.159 50.684C263.308 50.5673 263.453 50.4343 263.593 50.285V48.808C263.019 48.8267 262.531 48.8733 262.13 48.948C261.729 49.018 261.402 49.1113 261.15 49.228C260.898 49.3447 260.714 49.4823 260.597 49.641C260.485 49.7997 260.429 49.977 260.429 50.173C260.429 50.3597 260.459 50.5207 260.52 50.656C260.581 50.7913 260.662 50.9033 260.765 50.992C260.868 51.076 260.989 51.139 261.129 51.181C261.269 51.2183 261.421 51.237 261.584 51.237ZM268.855 52.112C268.295 52.112 267.863 51.9557 267.56 51.643C267.261 51.3303 267.112 50.88 267.112 50.292V45.952H266.258C266.183 45.952 266.12 45.931 266.069 45.889C266.017 45.8423 265.992 45.7723 265.992 45.679V45.182L267.154 45.035L267.441 42.844C267.45 42.774 267.48 42.718 267.532 42.676C267.583 42.6293 267.648 42.606 267.728 42.606H268.358V45.049H270.388V45.952H268.358V50.208C268.358 50.5067 268.43 50.7283 268.575 50.873C268.719 51.0177 268.906 51.09 269.135 51.09C269.265 51.09 269.377 51.0737 269.471 51.041C269.569 51.0037 269.653 50.964 269.723 50.922C269.793 50.88 269.851 50.8427 269.898 50.81C269.949 50.7727 269.993 50.754 270.031 50.754C270.096 50.754 270.154 50.7937 270.206 50.873L270.57 51.468C270.355 51.6687 270.096 51.8273 269.793 51.944C269.489 52.056 269.177 52.112 268.855 52.112ZM279.843 52H279.29C279.169 52 279.071 51.9813 278.996 51.944C278.922 51.9067 278.873 51.8273 278.849 51.706L278.709 51.048C278.523 51.216 278.341 51.3677 278.163 51.503C277.986 51.6337 277.799 51.7457 277.603 51.839C277.407 51.9277 277.197 51.9953 276.973 52.042C276.754 52.0887 276.509 52.112 276.238 52.112C275.963 52.112 275.704 52.0747 275.461 52C275.223 51.9207 275.016 51.804 274.838 51.65C274.661 51.496 274.519 51.3023 274.411 51.069C274.309 50.831 274.257 50.551 274.257 50.229C274.257 49.949 274.334 49.6807 274.488 49.424C274.642 49.1627 274.89 48.9317 275.23 48.731C275.576 48.5303 276.026 48.367 276.581 48.241C277.137 48.1103 277.816 48.0357 278.618 48.017V47.464C278.618 46.9133 278.499 46.498 278.261 46.218C278.028 45.9333 277.68 45.791 277.218 45.791C276.915 45.791 276.658 45.8307 276.448 45.91C276.243 45.9847 276.063 46.071 275.909 46.169C275.76 46.2623 275.629 46.3487 275.517 46.428C275.41 46.5027 275.303 46.54 275.195 46.54C275.111 46.54 275.037 46.519 274.971 46.477C274.911 46.4303 274.862 46.3743 274.824 46.309L274.6 45.91C274.992 45.532 275.415 45.2497 275.867 45.063C276.32 44.8763 276.822 44.783 277.372 44.783C277.769 44.783 278.121 44.8483 278.429 44.979C278.737 45.1097 278.996 45.2917 279.206 45.525C279.416 45.7583 279.575 46.0407 279.682 46.372C279.79 46.7033 279.843 47.0673 279.843 47.464V52ZM276.609 51.237C276.829 51.237 277.029 51.216 277.211 51.174C277.393 51.1273 277.564 51.0643 277.722 50.985C277.886 50.901 278.04 50.8007 278.184 50.684C278.334 50.5673 278.478 50.4343 278.618 50.285V48.808C278.044 48.8267 277.557 48.8733 277.155 48.948C276.754 49.018 276.427 49.1113 276.175 49.228C275.923 49.3447 275.739 49.4823 275.622 49.641C275.51 49.7997 275.454 49.977 275.454 50.173C275.454 50.3597 275.485 50.5207 275.545 50.656C275.606 50.7913 275.688 50.9033 275.79 50.992C275.893 51.076 276.014 51.139 276.154 51.181C276.294 51.2183 276.446 51.237 276.609 51.237ZM281.731 52V44.909H282.445C282.58 44.909 282.674 44.9347 282.725 44.986C282.776 45.0373 282.811 45.126 282.83 45.252L282.914 46.358C283.157 45.8633 283.455 45.4783 283.81 45.203C284.169 44.923 284.589 44.783 285.07 44.783C285.266 44.783 285.443 44.8063 285.602 44.853C285.761 44.895 285.908 44.9557 286.043 45.035L285.882 45.966C285.849 46.0827 285.777 46.141 285.665 46.141C285.6 46.141 285.499 46.12 285.364 46.078C285.229 46.0313 285.04 46.008 284.797 46.008C284.363 46.008 283.999 46.134 283.705 46.386C283.416 46.638 283.173 47.0043 282.977 47.485V52H281.731ZM290.184 44.797C290.609 44.797 291.001 44.8693 291.36 45.014C291.72 45.154 292.03 45.3593 292.291 45.63C292.553 45.896 292.756 46.2273 292.9 46.624C293.05 47.016 293.124 47.464 293.124 47.968C293.124 48.164 293.103 48.2947 293.061 48.36C293.019 48.4253 292.94 48.458 292.823 48.458H288.105C288.115 48.906 288.175 49.2957 288.287 49.627C288.399 49.9583 288.553 50.236 288.749 50.46C288.945 50.6793 289.179 50.845 289.449 50.957C289.72 51.0643 290.023 51.118 290.359 51.118C290.672 51.118 290.94 51.083 291.164 51.013C291.393 50.9383 291.589 50.859 291.752 50.775C291.916 50.691 292.051 50.614 292.158 50.544C292.27 50.4693 292.366 50.432 292.445 50.432C292.548 50.432 292.627 50.4717 292.683 50.551L293.033 51.006C292.879 51.1927 292.695 51.356 292.48 51.496C292.266 51.6313 292.035 51.7433 291.787 51.832C291.545 51.9207 291.293 51.986 291.031 52.028C290.77 52.0747 290.511 52.098 290.254 52.098C289.764 52.098 289.312 52.0163 288.896 51.853C288.486 51.685 288.129 51.4423 287.825 51.125C287.527 50.803 287.293 50.4063 287.125 49.935C286.957 49.4637 286.873 48.9223 286.873 48.311C286.873 47.8163 286.948 47.3543 287.097 46.925C287.251 46.4957 287.471 46.1247 287.755 45.812C288.04 45.4947 288.388 45.2473 288.798 45.07C289.209 44.888 289.671 44.797 290.184 44.797ZM290.212 45.714C289.61 45.714 289.137 45.889 288.791 46.239C288.446 46.5843 288.231 47.065 288.147 47.681H292.004C292.004 47.3917 291.965 47.128 291.885 46.89C291.806 46.6473 291.689 46.4397 291.535 46.267C291.381 46.0897 291.192 45.9543 290.968 45.861C290.749 45.763 290.497 45.714 290.212 45.714ZM303.159 44.909V54.401H301.913V50.95C301.615 51.2953 301.274 51.573 300.891 51.783C300.513 51.993 300.079 52.098 299.589 52.098C299.183 52.098 298.815 52.021 298.483 51.867C298.152 51.7083 297.87 51.4773 297.636 51.174C297.403 50.8707 297.223 50.4927 297.097 50.04C296.971 49.5873 296.908 49.067 296.908 48.479C296.908 47.9563 296.978 47.471 297.118 47.023C297.258 46.5703 297.459 46.1783 297.72 45.847C297.986 45.5157 298.308 45.2567 298.686 45.07C299.064 44.8787 299.494 44.783 299.974 44.783C300.432 44.783 300.819 44.8647 301.136 45.028C301.458 45.1913 301.745 45.4223 301.997 45.721L302.081 45.168C302.128 44.9953 302.24 44.909 302.417 44.909H303.159ZM300.002 51.09C300.408 51.09 300.763 50.9967 301.066 50.81C301.374 50.6233 301.657 50.3597 301.913 50.019V46.589C301.689 46.2903 301.44 46.078 301.164 45.952C300.889 45.8213 300.586 45.756 300.254 45.756C299.592 45.756 299.083 45.9917 298.728 46.463C298.374 46.9343 298.196 47.6063 298.196 48.479C298.196 48.941 298.236 49.3377 298.315 49.669C298.395 49.9957 298.511 50.2663 298.665 50.481C298.819 50.691 299.008 50.845 299.232 50.943C299.456 51.041 299.713 51.09 300.002 51.09ZM306.325 44.909V49.431C306.325 49.9677 306.448 50.383 306.696 50.677C306.943 50.971 307.316 51.118 307.816 51.118C308.18 51.118 308.523 51.0317 308.845 50.859C309.167 50.6863 309.463 50.446 309.734 50.138V44.909H310.98V52H310.238C310.06 52 309.948 51.9137 309.902 51.741L309.804 50.978C309.496 51.3187 309.15 51.594 308.768 51.804C308.385 52.0093 307.946 52.112 307.452 52.112C307.064 52.112 306.721 52.049 306.423 51.923C306.129 51.7923 305.881 51.6103 305.681 51.377C305.48 51.1437 305.328 50.8613 305.226 50.53C305.128 50.1987 305.079 49.8323 305.079 49.431V44.909H306.325ZM314.412 44.909V52H313.166V44.909H314.412ZM314.692 42.683C314.692 42.8043 314.666 42.9187 314.615 43.026C314.568 43.1287 314.503 43.222 314.419 43.306C314.34 43.3853 314.246 43.4483 314.139 43.495C314.032 43.5417 313.917 43.565 313.796 43.565C313.675 43.565 313.56 43.5417 313.453 43.495C313.35 43.4483 313.257 43.3853 313.173 43.306C313.094 43.222 313.031 43.1287 312.984 43.026C312.937 42.9187 312.914 42.8043 312.914 42.683C312.914 42.5617 312.937 42.4473 312.984 42.34C313.031 42.228 313.094 42.1323 313.173 42.053C313.257 41.969 313.35 41.9037 313.453 41.857C313.56 41.8103 313.675 41.787 313.796 41.787C313.917 41.787 314.032 41.8103 314.139 41.857C314.246 41.9037 314.34 41.969 314.419 42.053C314.503 42.1323 314.568 42.228 314.615 42.34C314.666 42.4473 314.692 42.5617 314.692 42.683ZM318.757 52.112C318.197 52.112 317.765 51.9557 317.462 51.643C317.163 51.3303 317.014 50.88 317.014 50.292V45.952H316.16C316.085 45.952 316.022 45.931 315.971 45.889C315.92 45.8423 315.894 45.7723 315.894 45.679V45.182L317.056 45.035L317.343 42.844C317.352 42.774 317.383 42.718 317.434 42.676C317.485 42.6293 317.551 42.606 317.63 42.606H318.26V45.049H320.29V45.952H318.26V50.208C318.26 50.5067 318.332 50.7283 318.477 50.873C318.622 51.0177 318.808 51.09 319.037 51.09C319.168 51.09 319.28 51.0737 319.373 51.041C319.471 51.0037 319.555 50.964 319.625 50.922C319.695 50.88 319.753 50.8427 319.8 50.81C319.851 50.7727 319.896 50.754 319.933 50.754C319.998 50.754 320.057 50.7937 320.108 50.873L320.472 51.468C320.257 51.6687 319.998 51.8273 319.695 51.944C319.392 52.056 319.079 52.112 318.757 52.112ZM324.638 44.797C325.062 44.797 325.454 44.8693 325.814 45.014C326.173 45.154 326.483 45.3593 326.745 45.63C327.006 45.896 327.209 46.2273 327.354 46.624C327.503 47.016 327.578 47.464 327.578 47.968C327.578 48.164 327.557 48.2947 327.515 48.36C327.473 48.4253 327.393 48.458 327.277 48.458H322.559C322.568 48.906 322.629 49.2957 322.741 49.627C322.853 49.9583 323.007 50.236 323.203 50.46C323.399 50.6793 323.632 50.845 323.903 50.957C324.173 51.0643 324.477 51.118 324.813 51.118C325.125 51.118 325.394 51.083 325.618 51.013C325.846 50.9383 326.042 50.859 326.206 50.775C326.369 50.691 326.504 50.614 326.612 50.544C326.724 50.4693 326.819 50.432 326.899 50.432C327.001 50.432 327.081 50.4717 327.137 50.551L327.487 51.006C327.333 51.1927 327.148 51.356 326.934 51.496C326.719 51.6313 326.488 51.7433 326.241 51.832C325.998 51.9207 325.746 51.986 325.485 52.028C325.223 52.0747 324.964 52.098 324.708 52.098C324.218 52.098 323.765 52.0163 323.35 51.853C322.939 51.685 322.582 51.4423 322.279 51.125C321.98 50.803 321.747 50.4063 321.579 49.935C321.411 49.4637 321.327 48.9223 321.327 48.311C321.327 47.8163 321.401 47.3543 321.551 46.925C321.705 46.4957 321.924 46.1247 322.209 45.812C322.493 45.4947 322.841 45.2473 323.252 45.07C323.662 44.888 324.124 44.797 324.638 44.797ZM324.666 45.714C324.064 45.714 323.59 45.889 323.245 46.239C322.899 46.5843 322.685 47.065 322.601 47.681H326.458C326.458 47.3917 326.418 47.128 326.339 46.89C326.259 46.6473 326.143 46.4397 325.989 46.267C325.835 46.0897 325.646 45.9543 325.422 45.861C325.202 45.763 324.95 45.714 324.666 45.714ZM328.766 51.23C328.766 51.1087 328.787 50.9943 328.829 50.887C328.876 50.7797 328.937 50.6863 329.011 50.607C329.091 50.5277 329.184 50.4647 329.291 50.418C329.399 50.3713 329.513 50.348 329.634 50.348C329.756 50.348 329.87 50.3713 329.977 50.418C330.085 50.4647 330.178 50.5277 330.257 50.607C330.337 50.6863 330.397 50.7797 330.439 50.887C330.486 50.9943 330.509 51.1087 330.509 51.23C330.509 51.356 330.486 51.4727 330.439 51.58C330.397 51.6827 330.337 51.7737 330.257 51.853C330.178 51.9323 330.085 51.993 329.977 52.035C329.87 52.0817 329.756 52.105 329.634 52.105C329.513 52.105 329.399 52.0817 329.291 52.035C329.184 51.993 329.091 51.9323 329.011 51.853C328.937 51.7737 328.876 51.6827 328.829 51.58C328.787 51.4727 328.766 51.356 328.766 51.23ZM331.733 51.23C331.733 51.1087 331.754 50.9943 331.796 50.887C331.843 50.7797 331.904 50.6863 331.978 50.607C332.058 50.5277 332.151 50.4647 332.258 50.418C332.366 50.3713 332.48 50.348 332.601 50.348C332.723 50.348 332.837 50.3713 332.944 50.418C333.052 50.4647 333.145 50.5277 333.224 50.607C333.304 50.6863 333.364 50.7797 333.406 50.887C333.453 50.9943 333.476 51.1087 333.476 51.23C333.476 51.356 333.453 51.4727 333.406 51.58C333.364 51.6827 333.304 51.7737 333.224 51.853C333.145 51.9323 333.052 51.993 332.944 52.035C332.837 52.0817 332.723 52.105 332.601 52.105C332.48 52.105 332.366 52.0817 332.258 52.035C332.151 51.993 332.058 51.9323 331.978 51.853C331.904 51.7737 331.843 51.6827 331.796 51.58C331.754 51.4727 331.733 51.356 331.733 51.23ZM334.7 51.23C334.7 51.1087 334.721 50.9943 334.763 50.887C334.81 50.7797 334.87 50.6863 334.945 50.607C335.024 50.5277 335.118 50.4647 335.225 50.418C335.332 50.3713 335.447 50.348 335.568 50.348C335.689 50.348 335.804 50.3713 335.911 50.418C336.018 50.4647 336.112 50.5277 336.191 50.607C336.27 50.6863 336.331 50.7797 336.373 50.887C336.42 50.9943 336.443 51.1087 336.443 51.23C336.443 51.356 336.42 51.4727 336.373 51.58C336.331 51.6827 336.27 51.7737 336.191 51.853C336.112 51.9323 336.018 51.993 335.911 52.035C335.804 52.0817 335.689 52.105 335.568 52.105C335.447 52.105 335.332 52.0817 335.225 52.035C335.118 51.993 335.024 51.9323 334.945 51.853C334.87 51.7737 334.81 51.6827 334.763 51.58C334.721 51.4727 334.7 51.356 334.7 51.23Z" fill="#828282"/>
<path d="M76.98 28.613C77.0827 28.613 77.1713 28.6527 77.246 28.732L77.988 29.537C77.5773 30.0457 77.071 30.4353 76.469 30.706C75.8717 30.9767 75.153 31.112 74.313 31.112C73.5617 31.112 72.885 30.9837 72.283 30.727C71.6857 30.4703 71.1747 30.1133 70.75 29.656C70.3253 29.1987 69.9987 28.6527 69.77 28.018C69.546 27.3833 69.434 26.6903 69.434 25.939C69.434 25.1783 69.56 24.483 69.812 23.853C70.064 23.2183 70.4187 22.6723 70.876 22.215C71.3333 21.7577 71.8793 21.403 72.514 21.151C73.1533 20.8943 73.858 20.766 74.628 20.766C75.3793 20.766 76.035 20.8873 76.595 21.13C77.1597 21.368 77.6427 21.6853 78.044 22.082L77.414 22.957C77.3767 23.013 77.3277 23.062 77.267 23.104C77.211 23.146 77.1317 23.167 77.029 23.167C76.9217 23.167 76.812 23.125 76.7 23.041C76.588 22.957 76.4457 22.866 76.273 22.768C76.1003 22.67 75.881 22.579 75.615 22.495C75.3537 22.411 75.02 22.369 74.614 22.369C74.138 22.369 73.6993 22.453 73.298 22.621C72.9013 22.7843 72.5583 23.02 72.269 23.328C71.9843 23.636 71.7603 24.0117 71.597 24.455C71.4383 24.8937 71.359 25.3883 71.359 25.939C71.359 26.5083 71.4383 27.0147 71.597 27.458C71.7603 27.9013 71.9797 28.2747 72.255 28.578C72.5303 28.8813 72.8547 29.1147 73.228 29.278C73.6013 29.4367 74.0027 29.516 74.432 29.516C74.6887 29.516 74.9197 29.502 75.125 29.474C75.335 29.446 75.5263 29.4017 75.699 29.341C75.8763 29.2803 76.042 29.2033 76.196 29.11C76.3547 29.012 76.511 28.893 76.665 28.753C76.7117 28.711 76.7607 28.6783 76.812 28.655C76.8633 28.627 76.9193 28.613 76.98 28.613ZM84.9446 31H84.1676C84.0042 31 83.8759 30.9767 83.7826 30.93C83.6892 30.8787 83.6192 30.7783 83.5726 30.629L83.4186 30.118C83.2366 30.2813 83.0569 30.426 82.8796 30.552C82.7069 30.6733 82.5272 30.776 82.3406 30.86C82.1539 30.944 81.9556 31.007 81.7456 31.049C81.5356 31.091 81.3022 31.112 81.0456 31.112C80.7422 31.112 80.4622 31.0723 80.2056 30.993C79.9489 30.909 79.7272 30.7853 79.5406 30.622C79.3586 30.4587 79.2162 30.2557 79.1136 30.013C79.0109 29.7703 78.9596 29.488 78.9596 29.166C78.9596 28.8953 79.0296 28.6293 79.1696 28.368C79.3142 28.102 79.5522 27.864 79.8836 27.654C80.2149 27.4393 80.6559 27.262 81.2066 27.122C81.7572 26.982 82.4409 26.9027 83.2576 26.884V26.464C83.2576 25.9833 83.1549 25.6287 82.9496 25.4C82.7489 25.1667 82.4549 25.05 82.0676 25.05C81.7876 25.05 81.5542 25.0827 81.3676 25.148C81.1809 25.2133 81.0176 25.288 80.8776 25.372C80.7422 25.4513 80.6162 25.5237 80.4996 25.589C80.3829 25.6543 80.2546 25.687 80.1146 25.687C79.9979 25.687 79.8976 25.6567 79.8136 25.596C79.7296 25.5353 79.6619 25.4607 79.6106 25.372L79.2956 24.819C80.1216 24.063 81.1179 23.685 82.2846 23.685C82.7046 23.685 83.0779 23.755 83.4046 23.895C83.7359 24.0303 84.0159 24.2217 84.2446 24.469C84.4732 24.7117 84.6459 25.0033 84.7626 25.344C84.8839 25.6847 84.9446 26.058 84.9446 26.464V31ZM81.5846 29.922C81.7619 29.922 81.9252 29.9057 82.0746 29.873C82.2239 29.8403 82.3639 29.7913 82.4946 29.726C82.6299 29.6607 82.7582 29.5813 82.8796 29.488C83.0056 29.39 83.1316 29.2757 83.2576 29.145V27.934C82.7536 27.9573 82.3312 28.0017 81.9906 28.067C81.6546 28.1277 81.3839 28.207 81.1786 28.305C80.9732 28.403 80.8262 28.5173 80.7376 28.648C80.6536 28.7787 80.6116 28.921 80.6116 29.075C80.6116 29.3783 80.7002 29.5953 80.8776 29.726C81.0596 29.8567 81.2952 29.922 81.5846 29.922ZM86.6447 31V23.818H87.6597C87.837 23.818 87.9607 23.8507 88.0307 23.916C88.1007 23.9813 88.1474 24.0933 88.1707 24.252L88.2757 25.12C88.5324 24.6767 88.8334 24.3267 89.1787 24.07C89.524 23.8133 89.9114 23.685 90.3407 23.685C90.6954 23.685 90.9894 23.7667 91.2227 23.93L90.9987 25.225C90.9847 25.309 90.9544 25.3697 90.9077 25.407C90.861 25.4397 90.798 25.456 90.7187 25.456C90.6487 25.456 90.553 25.4397 90.4317 25.407C90.3104 25.3743 90.1494 25.358 89.9487 25.358C89.5894 25.358 89.2814 25.4583 89.0247 25.659C88.768 25.855 88.551 26.1443 88.3737 26.527V31H86.6447ZM94.7185 31.112C94.0979 31.112 93.6195 30.937 93.2835 30.587C92.9475 30.2323 92.7795 29.7447 92.7795 29.124V25.113H92.0515C91.9582 25.113 91.8765 25.0827 91.8065 25.022C91.7412 24.9613 91.7085 24.8703 91.7085 24.749V24.063L92.8635 23.874L93.2275 21.914C93.2462 21.8207 93.2882 21.7483 93.3535 21.697C93.4235 21.6457 93.5099 21.62 93.6125 21.62H94.5085V23.881H96.3985V25.113H94.5085V29.005C94.5085 29.229 94.5645 29.404 94.6765 29.53C94.7885 29.656 94.9379 29.719 95.1245 29.719C95.2319 29.719 95.3205 29.7073 95.3905 29.684C95.4652 29.656 95.5282 29.628 95.5795 29.6C95.6355 29.572 95.6845 29.5463 95.7265 29.523C95.7685 29.495 95.8105 29.481 95.8525 29.481C95.9039 29.481 95.9459 29.495 95.9785 29.523C96.0112 29.5463 96.0462 29.5837 96.0835 29.635L96.6015 30.475C96.3495 30.685 96.0602 30.8437 95.7335 30.951C95.4069 31.0583 95.0685 31.112 94.7185 31.112ZM100.742 23.706C101.194 23.706 101.61 23.7783 101.988 23.923C102.37 24.0677 102.699 24.28 102.975 24.56C103.25 24.8353 103.465 25.176 103.619 25.582C103.773 25.9833 103.85 26.443 103.85 26.961C103.85 27.0917 103.843 27.2013 103.829 27.29C103.819 27.374 103.798 27.4417 103.766 27.493C103.738 27.5397 103.698 27.5747 103.647 27.598C103.595 27.6167 103.53 27.626 103.451 27.626H99.0126C99.0639 28.3633 99.2623 28.9047 99.6076 29.25C99.9529 29.5953 100.41 29.768 100.98 29.768C101.26 29.768 101.5 29.7353 101.701 29.67C101.906 29.6047 102.083 29.5323 102.233 29.453C102.387 29.3737 102.52 29.3013 102.632 29.236C102.748 29.1707 102.86 29.138 102.968 29.138C103.038 29.138 103.098 29.152 103.15 29.18C103.201 29.208 103.245 29.2477 103.283 29.299L103.787 29.929C103.595 30.153 103.381 30.342 103.143 30.496C102.905 30.6453 102.655 30.7667 102.394 30.86C102.137 30.9487 101.873 31.0117 101.603 31.049C101.337 31.0863 101.078 31.105 100.826 31.105C100.326 31.105 99.8619 31.0233 99.4326 30.86C99.0033 30.692 98.6299 30.447 98.3126 30.125C97.9953 29.7983 97.7456 29.397 97.5636 28.921C97.3816 28.4403 97.2906 27.885 97.2906 27.255C97.2906 26.765 97.3699 26.3053 97.5286 25.876C97.6873 25.442 97.9136 25.0663 98.2076 24.749C98.5063 24.427 98.8679 24.1727 99.2926 23.986C99.7219 23.7993 100.205 23.706 100.742 23.706ZM100.777 24.945C100.273 24.945 99.8783 25.0873 99.5936 25.372C99.3089 25.6567 99.1269 26.0603 99.0476 26.583H102.296C102.296 26.359 102.265 26.149 102.205 25.953C102.144 25.7523 102.051 25.5773 101.925 25.428C101.799 25.2787 101.64 25.162 101.449 25.078C101.257 24.9893 101.033 24.945 100.777 24.945ZM105.252 31V23.818H106.267C106.444 23.818 106.568 23.8507 106.638 23.916C106.708 23.9813 106.755 24.0933 106.778 24.252L106.883 25.12C107.14 24.6767 107.441 24.3267 107.786 24.07C108.131 23.8133 108.519 23.685 108.948 23.685C109.303 23.685 109.597 23.7667 109.83 23.93L109.606 25.225C109.592 25.309 109.562 25.3697 109.515 25.407C109.468 25.4397 109.405 25.456 109.326 25.456C109.256 25.456 109.16 25.4397 109.039 25.407C108.918 25.3743 108.757 25.358 108.556 25.358C108.197 25.358 107.889 25.4583 107.632 25.659C107.375 25.855 107.158 26.1443 106.981 26.527V31H105.252ZM122.312 31H120.415V26.576H115.669V31H113.772V20.878H115.669V25.232H120.415V20.878H122.312V31ZM127.224 23.706C127.677 23.706 128.092 23.7783 128.47 23.923C128.853 24.0677 129.182 24.28 129.457 24.56C129.732 24.8353 129.947 25.176 130.101 25.582C130.255 25.9833 130.332 26.443 130.332 26.961C130.332 27.0917 130.325 27.2013 130.311 27.29C130.302 27.374 130.281 27.4417 130.248 27.493C130.22 27.5397 130.18 27.5747 130.129 27.598C130.078 27.6167 130.012 27.626 129.933 27.626H125.495C125.546 28.3633 125.745 28.9047 126.09 29.25C126.435 29.5953 126.893 29.768 127.462 29.768C127.742 29.768 127.982 29.7353 128.183 29.67C128.388 29.6047 128.566 29.5323 128.715 29.453C128.869 29.3737 129.002 29.3013 129.114 29.236C129.231 29.1707 129.343 29.138 129.45 29.138C129.52 29.138 129.581 29.152 129.632 29.18C129.683 29.208 129.728 29.2477 129.765 29.299L130.269 29.929C130.078 30.153 129.863 30.342 129.625 30.496C129.387 30.6453 129.137 30.7667 128.876 30.86C128.619 30.9487 128.356 31.0117 128.085 31.049C127.819 31.0863 127.56 31.105 127.308 31.105C126.809 31.105 126.344 31.0233 125.915 30.86C125.486 30.692 125.112 30.447 124.795 30.125C124.478 29.7983 124.228 29.397 124.046 28.921C123.864 28.4403 123.773 27.885 123.773 27.255C123.773 26.765 123.852 26.3053 124.011 25.876C124.17 25.442 124.396 25.0663 124.69 24.749C124.989 24.427 125.35 24.1727 125.775 23.986C126.204 23.7993 126.687 23.706 127.224 23.706ZM127.259 24.945C126.755 24.945 126.361 25.0873 126.076 25.372C125.791 25.6567 125.609 26.0603 125.53 26.583H128.778C128.778 26.359 128.748 26.149 128.687 25.953C128.626 25.7523 128.533 25.5773 128.407 25.428C128.281 25.2787 128.122 25.162 127.931 25.078C127.74 24.9893 127.516 24.945 127.259 24.945ZM131.735 31V23.818H132.75C132.927 23.818 133.051 23.8507 133.121 23.916C133.191 23.9813 133.237 24.0933 133.261 24.252L133.366 25.12C133.622 24.6767 133.923 24.3267 134.269 24.07C134.614 23.8133 135.001 23.685 135.431 23.685C135.785 23.685 136.079 23.7667 136.313 23.93L136.089 25.225C136.075 25.309 136.044 25.3697 135.998 25.407C135.951 25.4397 135.888 25.456 135.809 25.456C135.739 25.456 135.643 25.4397 135.522 25.407C135.4 25.3743 135.239 25.358 135.039 25.358C134.679 25.358 134.371 25.4583 134.115 25.659C133.858 25.855 133.641 26.1443 133.464 26.527V31H131.735ZM136.574 23.818H137.946C138.077 23.818 138.187 23.8483 138.275 23.909C138.364 23.9697 138.42 24.0467 138.443 24.14L139.472 27.976C139.528 28.186 139.573 28.3913 139.605 28.592C139.643 28.7927 139.678 28.9933 139.71 29.194C139.762 28.9933 139.815 28.7927 139.871 28.592C139.932 28.3913 139.995 28.186 140.06 27.976L141.25 24.126C141.278 24.0327 141.334 23.9557 141.418 23.895C141.502 23.8343 141.6 23.804 141.712 23.804H142.475C142.601 23.804 142.706 23.8343 142.79 23.895C142.874 23.9557 142.93 24.0327 142.958 24.126L144.134 28.046C144.195 28.2467 144.249 28.4427 144.295 28.634C144.347 28.8207 144.396 29.0097 144.442 29.201C144.475 29.0003 144.51 28.7997 144.547 28.599C144.589 28.3983 144.641 28.1907 144.701 27.976L145.765 24.14C145.789 24.0467 145.845 23.9697 145.933 23.909C146.022 23.8483 146.125 23.818 146.241 23.818H147.55L145.275 31H143.882C143.733 31 143.626 30.8973 143.56 30.692L142.265 26.541C142.223 26.4057 142.184 26.2703 142.146 26.135C142.114 25.995 142.086 25.8573 142.062 25.722C142.034 25.862 142.004 26.002 141.971 26.142C141.939 26.2773 141.901 26.415 141.859 26.555L140.55 30.692C140.485 30.8973 140.359 31 140.172 31H138.849L136.574 23.818ZM150.365 23.818V31H148.636V23.818H150.365ZM150.624 21.725C150.624 21.8743 150.593 22.0143 150.533 22.145C150.472 22.2757 150.39 22.39 150.288 22.488C150.19 22.586 150.073 22.6653 149.938 22.726C149.802 22.782 149.658 22.81 149.504 22.81C149.354 22.81 149.212 22.782 149.077 22.726C148.946 22.6653 148.832 22.586 148.734 22.488C148.636 22.39 148.556 22.2757 148.496 22.145C148.44 22.0143 148.412 21.8743 148.412 21.725C148.412 21.571 148.44 21.4263 148.496 21.291C148.556 21.1557 148.636 21.039 148.734 20.941C148.832 20.843 148.946 20.766 149.077 20.71C149.212 20.6493 149.354 20.619 149.504 20.619C149.658 20.619 149.802 20.6493 149.938 20.71C150.073 20.766 150.19 20.843 150.288 20.941C150.39 21.039 150.472 21.1557 150.533 21.291C150.593 21.4263 150.624 21.571 150.624 21.725ZM154.683 31.112C154.063 31.112 153.584 30.937 153.248 30.587C152.912 30.2323 152.744 29.7447 152.744 29.124V25.113H152.016C151.923 25.113 151.841 25.0827 151.771 25.022C151.706 24.9613 151.673 24.8703 151.673 24.749V24.063L152.828 23.874L153.192 21.914C153.211 21.8207 153.253 21.7483 153.318 21.697C153.388 21.6457 153.475 21.62 153.577 21.62H154.473V23.881H156.363V25.113H154.473V29.005C154.473 29.229 154.529 29.404 154.641 29.53C154.753 29.656 154.903 29.719 155.089 29.719C155.197 29.719 155.285 29.7073 155.355 29.684C155.43 29.656 155.493 29.628 155.544 29.6C155.6 29.572 155.649 29.5463 155.691 29.523C155.733 29.495 155.775 29.481 155.817 29.481C155.869 29.481 155.911 29.495 155.943 29.523C155.976 29.5463 156.011 29.5837 156.048 29.635L156.566 30.475C156.314 30.685 156.025 30.8437 155.698 30.951C155.372 31.0583 155.033 31.112 154.683 31.112ZM162.932 24.532C162.932 24.6533 162.909 24.7723 162.862 24.889C162.82 25.001 162.769 25.0967 162.708 25.176L159.292 29.67H162.834V31H157.283V30.279C157.283 30.1997 157.302 30.1063 157.339 29.999C157.377 29.887 157.435 29.782 157.514 29.684L160.958 25.141H157.486V23.818H162.932V24.532Z" fill="#1A1C1D"/>
<path d="M176.356 27.08V30.5H175.198V27.08L172.048 21.902H173.068C173.172 21.902 173.254 21.928 173.314 21.98C173.374 22.032 173.426 22.096 173.47 22.172L175.438 25.514C175.518 25.654 175.584 25.786 175.636 25.91C175.692 26.034 175.742 26.156 175.786 26.276C175.83 26.152 175.878 26.028 175.93 25.904C175.982 25.78 176.048 25.65 176.128 25.514L178.09 22.172C178.126 22.108 178.174 22.048 178.234 21.992C178.298 21.932 178.38 21.902 178.48 21.902H179.512L176.356 27.08ZM181.868 24.326C182.232 24.326 182.568 24.388 182.876 24.512C183.184 24.632 183.45 24.808 183.674 25.04C183.898 25.268 184.072 25.552 184.196 25.892C184.324 26.228 184.388 26.612 184.388 27.044C184.388 27.212 184.37 27.324 184.334 27.38C184.298 27.436 184.23 27.464 184.13 27.464H180.086C180.094 27.848 180.146 28.182 180.242 28.466C180.338 28.75 180.47 28.988 180.638 29.18C180.806 29.368 181.006 29.51 181.238 29.606C181.47 29.698 181.73 29.744 182.018 29.744C182.286 29.744 182.516 29.714 182.708 29.654C182.904 29.59 183.072 29.522 183.212 29.45C183.352 29.378 183.468 29.312 183.56 29.252C183.656 29.188 183.738 29.156 183.806 29.156C183.894 29.156 183.962 29.19 184.01 29.258L184.31 29.648C184.178 29.808 184.02 29.948 183.836 30.068C183.652 30.184 183.454 30.28 183.242 30.356C183.034 30.432 182.818 30.488 182.594 30.524C182.37 30.564 182.148 30.584 181.928 30.584C181.508 30.584 181.12 30.514 180.764 30.374C180.412 30.23 180.106 30.022 179.846 29.75C179.59 29.474 179.39 29.134 179.246 28.73C179.102 28.326 179.03 27.862 179.03 27.338C179.03 26.914 179.094 26.518 179.222 26.15C179.354 25.782 179.542 25.464 179.786 25.196C180.03 24.924 180.328 24.712 180.68 24.56C181.032 24.404 181.428 24.326 181.868 24.326ZM181.892 25.112C181.376 25.112 180.97 25.262 180.674 25.562C180.378 25.858 180.194 26.27 180.122 26.798H183.428C183.428 26.55 183.394 26.324 183.326 26.12C183.258 25.912 183.158 25.734 183.026 25.586C182.894 25.434 182.732 25.318 182.54 25.238C182.352 25.154 182.136 25.112 181.892 25.112ZM189.235 25.424C189.187 25.512 189.113 25.556 189.013 25.556C188.953 25.556 188.885 25.534 188.809 25.49C188.733 25.446 188.639 25.398 188.527 25.346C188.419 25.29 188.289 25.24 188.137 25.196C187.985 25.148 187.805 25.124 187.597 25.124C187.417 25.124 187.255 25.148 187.111 25.196C186.967 25.24 186.843 25.302 186.739 25.382C186.639 25.462 186.561 25.556 186.505 25.664C186.453 25.768 186.427 25.882 186.427 26.006C186.427 26.162 186.471 26.292 186.559 26.396C186.651 26.5 186.771 26.59 186.919 26.666C187.067 26.742 187.235 26.81 187.423 26.87C187.611 26.926 187.803 26.988 187.999 27.056C188.199 27.12 188.393 27.192 188.581 27.272C188.769 27.352 188.937 27.452 189.085 27.572C189.233 27.692 189.351 27.84 189.439 28.016C189.531 28.188 189.577 28.396 189.577 28.64C189.577 28.92 189.527 29.18 189.427 29.42C189.327 29.656 189.179 29.862 188.983 30.038C188.787 30.21 188.547 30.346 188.263 30.446C187.979 30.546 187.651 30.596 187.279 30.596C186.855 30.596 186.471 30.528 186.127 30.392C185.783 30.252 185.491 30.074 185.251 29.858L185.503 29.45C185.535 29.398 185.573 29.358 185.617 29.33C185.661 29.302 185.719 29.288 185.791 29.288C185.863 29.288 185.939 29.316 186.019 29.372C186.099 29.428 186.195 29.49 186.307 29.558C186.423 29.626 186.561 29.688 186.721 29.744C186.885 29.8 187.089 29.828 187.333 29.828C187.541 29.828 187.723 29.802 187.879 29.75C188.035 29.694 188.165 29.62 188.269 29.528C188.373 29.436 188.449 29.33 188.497 29.21C188.549 29.09 188.575 28.962 188.575 28.826C188.575 28.658 188.529 28.52 188.437 28.412C188.349 28.3 188.231 28.206 188.083 28.13C187.935 28.05 187.765 27.982 187.573 27.926C187.385 27.866 187.191 27.804 186.991 27.74C186.795 27.676 186.601 27.604 186.409 27.524C186.221 27.44 186.053 27.336 185.905 27.212C185.757 27.088 185.637 26.936 185.545 26.756C185.457 26.572 185.413 26.35 185.413 26.09C185.413 25.858 185.461 25.636 185.557 25.424C185.653 25.208 185.793 25.02 185.977 24.86C186.161 24.696 186.387 24.566 186.655 24.47C186.923 24.374 187.229 24.326 187.573 24.326C187.973 24.326 188.331 24.39 188.647 24.518C188.967 24.642 189.243 24.814 189.475 25.034L189.235 25.424ZM192.8 30.596C192.32 30.596 191.95 30.462 191.69 30.194C191.434 29.926 191.306 29.54 191.306 29.036V25.316H190.574C190.51 25.316 190.456 25.298 190.412 25.262C190.368 25.222 190.346 25.162 190.346 25.082V24.656L191.342 24.53L191.588 22.652C191.596 22.592 191.622 22.544 191.666 22.508C191.71 22.468 191.766 22.448 191.834 22.448H192.374V24.542H194.114V25.316H192.374V28.964C192.374 29.22 192.436 29.41 192.56 29.534C192.684 29.658 192.844 29.72 193.04 29.72C193.152 29.72 193.248 29.706 193.328 29.678C193.412 29.646 193.484 29.612 193.544 29.576C193.604 29.54 193.654 29.508 193.694 29.48C193.738 29.448 193.776 29.432 193.808 29.432C193.864 29.432 193.914 29.466 193.958 29.534L194.27 30.044C194.086 30.216 193.864 30.352 193.604 30.452C193.344 30.548 193.076 30.596 192.8 30.596ZM197.841 24.326C198.205 24.326 198.541 24.388 198.849 24.512C199.157 24.632 199.423 24.808 199.647 25.04C199.871 25.268 200.045 25.552 200.169 25.892C200.297 26.228 200.361 26.612 200.361 27.044C200.361 27.212 200.343 27.324 200.307 27.38C200.271 27.436 200.203 27.464 200.103 27.464H196.059C196.067 27.848 196.119 28.182 196.215 28.466C196.311 28.75 196.443 28.988 196.611 29.18C196.779 29.368 196.979 29.51 197.211 29.606C197.443 29.698 197.703 29.744 197.991 29.744C198.259 29.744 198.489 29.714 198.681 29.654C198.877 29.59 199.045 29.522 199.185 29.45C199.325 29.378 199.441 29.312 199.533 29.252C199.629 29.188 199.711 29.156 199.779 29.156C199.867 29.156 199.935 29.19 199.983 29.258L200.283 29.648C200.151 29.808 199.993 29.948 199.809 30.068C199.625 30.184 199.427 30.28 199.215 30.356C199.007 30.432 198.791 30.488 198.567 30.524C198.343 30.564 198.121 30.584 197.901 30.584C197.481 30.584 197.093 30.514 196.737 30.374C196.385 30.23 196.079 30.022 195.819 29.75C195.563 29.474 195.363 29.134 195.219 28.73C195.075 28.326 195.003 27.862 195.003 27.338C195.003 26.914 195.067 26.518 195.195 26.15C195.327 25.782 195.515 25.464 195.759 25.196C196.003 24.924 196.301 24.712 196.653 24.56C197.005 24.404 197.401 24.326 197.841 24.326ZM197.865 25.112C197.349 25.112 196.943 25.262 196.647 25.562C196.351 25.858 196.167 26.27 196.095 26.798H199.401C199.401 26.55 199.367 26.324 199.299 26.12C199.231 25.912 199.131 25.734 198.999 25.586C198.867 25.434 198.705 25.318 198.513 25.238C198.325 25.154 198.109 25.112 197.865 25.112ZM201.728 30.5V24.422H202.34C202.456 24.422 202.536 24.444 202.58 24.488C202.624 24.532 202.654 24.608 202.67 24.716L202.742 25.664C202.95 25.24 203.206 24.91 203.51 24.674C203.818 24.434 204.178 24.314 204.59 24.314C204.758 24.314 204.91 24.334 205.046 24.374C205.182 24.41 205.308 24.462 205.424 24.53L205.286 25.328C205.258 25.428 205.196 25.478 205.1 25.478C205.044 25.478 204.958 25.46 204.842 25.424C204.726 25.384 204.564 25.364 204.356 25.364C203.984 25.364 203.672 25.472 203.42 25.688C203.172 25.904 202.964 26.218 202.796 26.63V30.5H201.728ZM210.845 30.5C210.693 30.5 210.597 30.426 210.557 30.278L210.461 29.54C210.201 29.856 209.903 30.11 209.567 30.302C209.235 30.49 208.853 30.584 208.421 30.584C208.073 30.584 207.757 30.518 207.473 30.386C207.189 30.25 206.947 30.052 206.747 29.792C206.547 29.532 206.393 29.208 206.285 28.82C206.177 28.432 206.123 27.986 206.123 27.482C206.123 27.034 206.183 26.618 206.303 26.234C206.423 25.846 206.595 25.51 206.819 25.226C207.047 24.942 207.323 24.72 207.647 24.56C207.971 24.396 208.339 24.314 208.751 24.314C209.123 24.314 209.441 24.378 209.705 24.506C209.969 24.63 210.205 24.806 210.413 25.034V21.662H211.481V30.5H210.845ZM208.775 29.72C209.123 29.72 209.427 29.64 209.687 29.48C209.951 29.32 210.193 29.094 210.413 28.802V25.862C210.217 25.598 210.001 25.414 209.765 25.31C209.533 25.202 209.275 25.148 208.991 25.148C208.423 25.148 207.987 25.35 207.683 25.754C207.379 26.158 207.227 26.734 207.227 27.482C207.227 27.878 207.261 28.218 207.329 28.502C207.397 28.782 207.497 29.014 207.629 29.198C207.761 29.378 207.923 29.51 208.115 29.594C208.307 29.678 208.527 29.72 208.775 29.72ZM217.735 30.5H217.261C217.157 30.5 217.073 30.484 217.009 30.452C216.945 30.42 216.903 30.352 216.883 30.248L216.763 29.684C216.603 29.828 216.447 29.958 216.295 30.074C216.143 30.186 215.983 30.282 215.815 30.362C215.647 30.438 215.467 30.496 215.275 30.536C215.087 30.576 214.877 30.596 214.645 30.596C214.409 30.596 214.187 30.564 213.979 30.5C213.775 30.432 213.597 30.332 213.445 30.2C213.293 30.068 213.171 29.902 213.079 29.702C212.991 29.498 212.947 29.258 212.947 28.982C212.947 28.742 213.013 28.512 213.145 28.292C213.277 28.068 213.489 27.87 213.781 27.698C214.077 27.526 214.463 27.386 214.939 27.278C215.415 27.166 215.997 27.102 216.685 27.086V26.612C216.685 26.14 216.583 25.784 216.379 25.544C216.179 25.3 215.881 25.178 215.485 25.178C215.225 25.178 215.005 25.212 214.825 25.28C214.649 25.344 214.495 25.418 214.363 25.502C214.235 25.582 214.123 25.656 214.027 25.724C213.935 25.788 213.843 25.82 213.751 25.82C213.679 25.82 213.615 25.802 213.559 25.766C213.507 25.726 213.465 25.678 213.433 25.622L213.241 25.28C213.577 24.956 213.939 24.714 214.327 24.554C214.715 24.394 215.145 24.314 215.617 24.314C215.957 24.314 216.259 24.37 216.523 24.482C216.787 24.594 217.009 24.75 217.189 24.95C217.369 25.15 217.505 25.392 217.597 25.676C217.689 25.96 217.735 26.272 217.735 26.612V30.5ZM214.963 29.846C215.151 29.846 215.323 29.828 215.479 29.792C215.635 29.752 215.781 29.698 215.917 29.63C216.057 29.558 216.189 29.472 216.313 29.372C216.441 29.272 216.565 29.158 216.685 29.03V27.764C216.193 27.78 215.775 27.82 215.431 27.884C215.087 27.944 214.807 28.024 214.591 28.124C214.375 28.224 214.217 28.342 214.117 28.478C214.021 28.614 213.973 28.766 213.973 28.934C213.973 29.094 213.999 29.232 214.051 29.348C214.103 29.464 214.173 29.56 214.261 29.636C214.349 29.708 214.453 29.762 214.573 29.798C214.693 29.83 214.823 29.846 214.963 29.846ZM220.947 32.294C220.911 32.374 220.865 32.438 220.809 32.486C220.757 32.534 220.675 32.558 220.563 32.558H219.771L220.881 30.146L218.373 24.422H219.297C219.389 24.422 219.461 24.446 219.513 24.494C219.565 24.538 219.603 24.588 219.627 24.644L221.253 28.472C221.289 28.56 221.319 28.648 221.343 28.736C221.371 28.824 221.395 28.914 221.415 29.006C221.443 28.914 221.471 28.824 221.499 28.736C221.527 28.648 221.559 28.558 221.595 28.466L223.173 24.644C223.197 24.58 223.237 24.528 223.293 24.488C223.353 24.444 223.417 24.422 223.485 24.422H224.337L220.947 32.294ZM228.13 21.302H228.958V32.558H228.13V21.302ZM236.274 21.806C236.638 21.806 236.978 21.86 237.294 21.968C237.61 22.076 237.882 22.234 238.11 22.442C238.342 22.646 238.524 22.896 238.656 23.192C238.788 23.488 238.854 23.824 238.854 24.2C238.854 24.52 238.806 24.816 238.71 25.088C238.614 25.36 238.484 25.622 238.32 25.874C238.156 26.122 237.966 26.364 237.75 26.6C237.538 26.832 237.312 27.07 237.072 27.314L234.81 29.63C234.97 29.586 235.132 29.552 235.296 29.528C235.46 29.5 235.618 29.486 235.77 29.486H238.65C238.766 29.486 238.858 29.52 238.926 29.588C238.994 29.656 239.028 29.744 239.028 29.852V30.5H233.292V30.134C233.292 30.058 233.306 29.98 233.334 29.9C233.366 29.82 233.416 29.746 233.484 29.678L236.238 26.912C236.466 26.68 236.674 26.458 236.862 26.246C237.05 26.03 237.21 25.814 237.342 25.598C237.478 25.382 237.582 25.164 237.654 24.944C237.726 24.72 237.762 24.482 237.762 24.23C237.762 23.978 237.722 23.758 237.642 23.57C237.562 23.378 237.452 23.22 237.312 23.096C237.172 22.972 237.008 22.88 236.82 22.82C236.632 22.756 236.43 22.724 236.214 22.724C235.998 22.724 235.798 22.756 235.614 22.82C235.43 22.884 235.266 22.974 235.122 23.09C234.982 23.202 234.862 23.336 234.762 23.492C234.666 23.648 234.598 23.82 234.558 24.008C234.526 24.124 234.478 24.208 234.414 24.26C234.35 24.312 234.266 24.338 234.162 24.338C234.142 24.338 234.12 24.338 234.096 24.338C234.076 24.334 234.052 24.33 234.024 24.326L233.466 24.23C233.522 23.838 233.63 23.492 233.79 23.192C233.95 22.888 234.152 22.634 234.396 22.43C234.644 22.226 234.926 22.072 235.242 21.968C235.562 21.86 235.906 21.806 236.274 21.806ZM241.351 29.684H243.199V23.822C243.199 23.646 243.205 23.468 243.217 23.288L241.681 24.602C241.641 24.634 241.601 24.658 241.561 24.674C241.521 24.686 241.483 24.692 241.447 24.692C241.387 24.692 241.333 24.68 241.285 24.656C241.237 24.628 241.201 24.596 241.177 24.56L240.841 24.098L243.397 21.884H244.267V29.684H245.959V30.5H241.351V29.684ZM247.358 29.84C247.358 29.736 247.376 29.638 247.412 29.546C247.452 29.454 247.504 29.374 247.568 29.306C247.636 29.238 247.716 29.184 247.808 29.144C247.9 29.104 247.998 29.084 248.102 29.084C248.206 29.084 248.304 29.104 248.396 29.144C248.488 29.184 248.568 29.238 248.636 29.306C248.704 29.374 248.756 29.454 248.792 29.546C248.832 29.638 248.852 29.736 248.852 29.84C248.852 29.948 248.832 30.048 248.792 30.14C248.756 30.228 248.704 30.306 248.636 30.374C248.568 30.442 248.488 30.494 248.396 30.53C248.304 30.57 248.206 30.59 248.102 30.59C247.998 30.59 247.9 30.57 247.808 30.53C247.716 30.494 247.636 30.442 247.568 30.374C247.504 30.306 247.452 30.228 247.412 30.14C247.376 30.048 247.358 29.948 247.358 29.84ZM247.358 25.34C247.358 25.236 247.376 25.138 247.412 25.046C247.452 24.954 247.504 24.874 247.568 24.806C247.636 24.738 247.716 24.684 247.808 24.644C247.9 24.604 247.998 24.584 248.102 24.584C248.206 24.584 248.304 24.604 248.396 24.644C248.488 24.684 248.568 24.738 248.636 24.806C248.704 24.874 248.756 24.954 248.792 25.046C248.832 25.138 248.852 25.236 248.852 25.34C248.852 25.448 248.832 25.548 248.792 25.64C248.756 25.728 248.704 25.806 248.636 25.874C248.568 25.942 248.488 25.996 248.396 26.036C248.304 26.072 248.206 26.09 248.102 26.09C247.998 26.09 247.9 26.072 247.808 26.036C247.716 25.996 247.636 25.942 247.568 25.874C247.504 25.806 247.452 25.728 247.412 25.64C247.376 25.548 247.358 25.448 247.358 25.34ZM255.031 27.398H256.333V28.01C256.333 28.074 256.313 28.128 256.273 28.172C256.237 28.216 256.179 28.238 256.099 28.238H255.031V30.5H254.089V28.238H250.279C250.199 28.238 250.129 28.216 250.069 28.172C250.013 28.124 249.977 28.066 249.961 27.998L249.853 27.452L254.035 21.902H255.031V27.398ZM254.089 23.852C254.089 23.748 254.091 23.636 254.095 23.516C254.103 23.396 254.117 23.272 254.137 23.144L251.011 27.398H254.089V23.852ZM260.294 21.806C260.658 21.806 260.994 21.858 261.302 21.962C261.61 22.066 261.874 22.214 262.094 22.406C262.318 22.598 262.492 22.83 262.616 23.102C262.74 23.374 262.802 23.676 262.802 24.008C262.802 24.28 262.766 24.524 262.694 24.74C262.626 24.952 262.526 25.14 262.394 25.304C262.266 25.464 262.11 25.6 261.926 25.712C261.742 25.824 261.536 25.914 261.308 25.982C261.868 26.13 262.288 26.378 262.568 26.726C262.852 27.074 262.994 27.51 262.994 28.034C262.994 28.43 262.918 28.786 262.766 29.102C262.618 29.418 262.414 29.688 262.154 29.912C261.894 30.132 261.59 30.302 261.242 30.422C260.898 30.538 260.528 30.596 260.132 30.596C259.676 30.596 259.286 30.54 258.962 30.428C258.638 30.312 258.364 30.154 258.14 29.954C257.916 29.754 257.732 29.518 257.588 29.246C257.444 28.97 257.322 28.672 257.222 28.352L257.678 28.16C257.762 28.124 257.846 28.106 257.93 28.106C258.01 28.106 258.08 28.124 258.14 28.16C258.204 28.192 258.252 28.244 258.284 28.316C258.292 28.332 258.3 28.35 258.308 28.37C258.316 28.386 258.324 28.404 258.332 28.424C258.388 28.54 258.456 28.672 258.536 28.82C258.616 28.964 258.724 29.1 258.86 29.228C258.996 29.356 259.164 29.464 259.364 29.552C259.568 29.64 259.82 29.684 260.12 29.684C260.42 29.684 260.682 29.636 260.906 29.54C261.134 29.44 261.322 29.312 261.47 29.156C261.622 29 261.736 28.826 261.812 28.634C261.888 28.442 261.926 28.252 261.926 28.064C261.926 27.832 261.894 27.62 261.83 27.428C261.77 27.236 261.658 27.07 261.494 26.93C261.334 26.79 261.11 26.68 260.822 26.6C260.538 26.52 260.172 26.48 259.724 26.48V25.706C260.088 25.702 260.398 25.662 260.654 25.586C260.914 25.51 261.126 25.406 261.29 25.274C261.454 25.142 261.572 24.984 261.644 24.8C261.72 24.616 261.758 24.412 261.758 24.188C261.758 23.94 261.718 23.724 261.638 23.54C261.562 23.356 261.456 23.204 261.32 23.084C261.184 22.964 261.022 22.874 260.834 22.814C260.65 22.754 260.45 22.724 260.234 22.724C260.018 22.724 259.818 22.756 259.634 22.82C259.45 22.884 259.286 22.974 259.142 23.09C259.002 23.202 258.884 23.338 258.788 23.498C258.692 23.654 258.62 23.824 258.572 24.008C258.54 24.124 258.492 24.208 258.428 24.26C258.364 24.312 258.282 24.338 258.182 24.338C258.162 24.338 258.14 24.338 258.116 24.338C258.096 24.334 258.072 24.33 258.044 24.326L257.486 24.23C257.542 23.838 257.65 23.492 257.81 23.192C257.97 22.888 258.172 22.634 258.416 22.43C258.664 22.226 258.946 22.072 259.262 21.968C259.582 21.86 259.926 21.806 260.294 21.806Z" fill="#828282"/>
<rect x="17" y="18" width="36" height="36" rx="8" fill="#F49D2D" fill-opacity="0.5"/>
<path d="M32.4873 38.984C32.5513 38.984 32.6153 38.9973 32.6793 39.024C32.7433 39.0453 32.8046 39.0853 32.8633 39.144L33.9353 40.272C33.466 40.8853 32.8766 41.3493 32.1673 41.664C31.4633 41.9733 30.6286 42.128 29.6633 42.128C28.778 42.128 27.9833 41.9787 27.2793 41.68C26.5806 41.376 25.986 40.96 25.4953 40.432C25.01 39.8987 24.6366 39.2693 24.3753 38.544C24.114 37.8133 23.9833 37.0213 23.9833 36.168C23.9833 35.2987 24.1326 34.5013 24.4313 33.776C24.73 33.0453 25.146 32.416 25.6793 31.888C26.218 31.36 26.8606 30.9493 27.6073 30.656C28.354 30.3627 29.178 30.216 30.0793 30.216C30.5166 30.216 30.9273 30.256 31.3113 30.336C31.7006 30.4107 32.0633 30.5173 32.3993 30.656C32.7353 30.7893 33.0446 30.952 33.3273 31.144C33.61 31.3307 33.8606 31.5387 34.0793 31.768L33.1673 32.992C33.1086 33.0667 33.0393 33.136 32.9593 33.2C32.8793 33.2587 32.7673 33.288 32.6233 33.288C32.5273 33.288 32.4366 33.2667 32.3513 33.224C32.266 33.1813 32.1753 33.1307 32.0793 33.072C31.9833 33.008 31.8766 32.9413 31.7593 32.872C31.6473 32.7973 31.5113 32.7307 31.3513 32.672C31.1966 32.608 31.0126 32.5547 30.7993 32.512C30.5913 32.4693 30.346 32.448 30.0633 32.448C29.5726 32.448 29.1246 32.536 28.7193 32.712C28.314 32.8827 27.9646 33.1307 27.6713 33.456C27.3833 33.776 27.1566 34.1653 26.9913 34.624C26.8313 35.0827 26.7513 35.5973 26.7513 36.168C26.7513 36.7653 26.8313 37.296 26.9913 37.76C27.1566 38.224 27.378 38.616 27.6553 38.936C27.938 39.2507 28.266 39.4907 28.6393 39.656C29.0126 39.8213 29.4126 39.904 29.8393 39.904C30.0846 39.904 30.3086 39.8933 30.5113 39.872C30.714 39.8453 30.9006 39.8027 31.0713 39.744C31.2473 39.6853 31.4126 39.6107 31.5673 39.52C31.7273 39.424 31.8873 39.3067 32.0473 39.168C32.1113 39.1147 32.1806 39.072 32.2553 39.04C32.33 39.0027 32.4073 38.984 32.4873 38.984ZM45.3469 42H42.6269V37.072H37.8909V42H35.1709V30.344H37.8909V35.216H42.6269V30.344H45.3469V42Z" fill="white"/>
<path d="M1 1V0H0V1H1ZM376 1H377V0H376V1ZM376 71V72H377V71H376ZM1 71H0V72H1V71ZM1 2H376V0H1V2ZM375 1V71H377V1H375ZM376 70H1V72H376V70ZM2 71V1H0V71H2Z" fill="#F3F4F9"/>
</svg>
