<svg width="377" height="72" viewBox="0 0 377 72" fill="none" xmlns="http://www.w3.org/2000/svg">
<path d="M1 1H376V71H1V1Z" fill="white"/>
<path d="M71.828 52H70.47V41.969H71.828V52ZM76.098 44.909H77.078C77.1807 44.909 77.2647 44.9347 77.33 44.986C77.3953 45.0373 77.4397 45.098 77.463 45.168L78.821 49.732C78.8583 49.9 78.8933 50.0633 78.926 50.222C78.9587 50.376 78.9867 50.5323 79.01 50.691C79.0473 50.5323 79.0893 50.376 79.136 50.222C79.1827 50.0633 79.2317 49.9 79.283 49.732L80.781 45.14C80.8043 45.07 80.844 45.0117 80.9 44.965C80.9607 44.9183 81.0353 44.895 81.124 44.895H81.663C81.7563 44.895 81.8333 44.9183 81.894 44.965C81.9547 45.0117 81.9967 45.07 82.02 45.14L83.483 49.732C83.5343 49.8953 83.5787 50.0563 83.616 50.215C83.658 50.3737 83.6977 50.53 83.735 50.684C83.7583 50.53 83.7887 50.369 83.826 50.201C83.8633 50.033 83.903 49.8767 83.945 49.732L85.331 45.168C85.3543 45.0933 85.3987 45.0327 85.464 44.986C85.5293 44.9347 85.6063 44.909 85.695 44.909H86.633L84.337 52H83.35C83.2287 52 83.1447 51.9207 83.098 51.762L81.53 46.953C81.4927 46.8457 81.4623 46.7383 81.439 46.631C81.4157 46.519 81.3923 46.4093 81.369 46.302C81.3457 46.4093 81.3223 46.519 81.299 46.631C81.2757 46.743 81.2453 46.8527 81.208 46.96L79.619 51.762C79.5677 51.9207 79.472 52 79.332 52H78.394L76.098 44.909ZM92.9488 52H92.3958C92.2744 52 92.1764 51.9813 92.1018 51.944C92.0271 51.9067 91.9781 51.8273 91.9548 51.706L91.8148 51.048C91.6281 51.216 91.4461 51.3677 91.2688 51.503C91.0914 51.6337 90.9048 51.7457 90.7088 51.839C90.5128 51.9277 90.3028 51.9953 90.0788 52.042C89.8594 52.0887 89.6144 52.112 89.3438 52.112C89.0684 52.112 88.8094 52.0747 88.5667 52C88.3288 51.9207 88.1211 51.804 87.9438 51.65C87.7664 51.496 87.6241 51.3023 87.5168 51.069C87.4141 50.831 87.3628 50.551 87.3628 50.229C87.3628 49.949 87.4398 49.6807 87.5938 49.424C87.7478 49.1627 87.9951 48.9317 88.3358 48.731C88.6811 48.5303 89.1314 48.367 89.6868 48.241C90.2421 48.1103 90.9211 48.0357 91.7238 48.017V47.464C91.7238 46.9133 91.6048 46.498 91.3668 46.218C91.1334 45.9333 90.7858 45.791 90.3238 45.791C90.0204 45.791 89.7638 45.8307 89.5538 45.91C89.3484 45.9847 89.1688 46.071 89.0148 46.169C88.8654 46.2623 88.7348 46.3487 88.6228 46.428C88.5154 46.5027 88.4081 46.54 88.3008 46.54C88.2168 46.54 88.1421 46.519 88.0768 46.477C88.0161 46.4303 87.9671 46.3743 87.9298 46.309L87.7058 45.91C88.0978 45.532 88.5201 45.2497 88.9728 45.063C89.4254 44.8763 89.9271 44.783 90.4778 44.783C90.8744 44.783 91.2268 44.8483 91.5348 44.979C91.8428 45.1097 92.1018 45.2917 92.3118 45.525C92.5218 45.7583 92.6804 46.0407 92.7878 46.372C92.8951 46.7033 92.9488 47.0673 92.9488 47.464V52ZM89.7148 51.237C89.9341 51.237 90.1348 51.216 90.3167 51.174C90.4988 51.1273 90.6691 51.0643 90.8278 50.985C90.9911 50.901 91.1451 50.8007 91.2898 50.684C91.4391 50.5673 91.5838 50.4343 91.7238 50.285V48.808C91.1498 48.8267 90.6621 48.8733 90.2608 48.948C89.8594 49.018 89.5328 49.1113 89.2808 49.228C89.0288 49.3447 88.8444 49.4823 88.7278 49.641C88.6158 49.7997 88.5598 49.977 88.5598 50.173C88.5598 50.3597 88.5901 50.5207 88.6508 50.656C88.7114 50.7913 88.7931 50.9033 88.8958 50.992C88.9984 51.076 89.1198 51.139 89.2598 51.181C89.3998 51.2183 89.5514 51.237 89.7148 51.237ZM94.8365 52V44.909H95.5785C95.7558 44.909 95.8678 44.9953 95.9145 45.168L96.0125 45.938C96.3205 45.5973 96.6635 45.322 97.0415 45.112C97.4241 44.902 97.8651 44.797 98.3645 44.797C98.7518 44.797 99.0925 44.8623 99.3865 44.993C99.6851 45.119 99.9325 45.301 100.128 45.539C100.329 45.7723 100.481 46.0547 100.583 46.386C100.686 46.7173 100.737 47.0837 100.737 47.485V52H99.4915V47.485C99.4915 46.9483 99.3678 46.533 99.1205 46.239C98.8778 45.9403 98.5045 45.791 98.0005 45.791C97.6318 45.791 97.2865 45.8797 96.9645 46.057C96.6471 46.2343 96.3531 46.4747 96.0825 46.778V52H94.8365ZM104.765 52.112C104.205 52.112 103.773 51.9557 103.47 51.643C103.171 51.3303 103.022 50.88 103.022 50.292V45.952H102.168C102.093 45.952 102.03 45.931 101.979 45.889C101.927 45.8423 101.902 45.7723 101.902 45.679V45.182L103.064 45.035L103.351 42.844C103.36 42.774 103.39 42.718 103.442 42.676C103.493 42.6293 103.558 42.606 103.638 42.606H104.268V45.049H106.298V45.952H104.268V50.208C104.268 50.5067 104.34 50.7283 104.485 50.873C104.629 51.0177 104.816 51.09 105.045 51.09C105.175 51.09 105.287 51.0737 105.381 51.041C105.479 51.0037 105.563 50.964 105.633 50.922C105.703 50.88 105.761 50.8427 105.808 50.81C105.859 50.7727 105.903 50.754 105.941 50.754C106.006 50.754 106.064 50.7937 106.116 50.873L106.48 51.468C106.265 51.6687 106.006 51.8273 105.703 51.944C105.399 52.056 105.087 52.112 104.765 52.112ZM112.694 52.112C112.134 52.112 111.703 51.9557 111.399 51.643C111.101 51.3303 110.951 50.88 110.951 50.292V45.952H110.097C110.023 45.952 109.96 45.931 109.908 45.889C109.857 45.8423 109.831 45.7723 109.831 45.679V45.182L110.993 45.035L111.28 42.844C111.29 42.774 111.32 42.718 111.371 42.676C111.423 42.6293 111.488 42.606 111.567 42.606H112.197V45.049H114.227V45.952H112.197V50.208C112.197 50.5067 112.27 50.7283 112.414 50.873C112.559 51.0177 112.746 51.09 112.974 51.09C113.105 51.09 113.217 51.0737 113.31 51.041C113.408 51.0037 113.492 50.964 113.562 50.922C113.632 50.88 113.691 50.8427 113.737 50.81C113.789 50.7727 113.833 50.754 113.87 50.754C113.936 50.754 113.994 50.7937 114.045 50.873L114.409 51.468C114.195 51.6687 113.936 51.8273 113.632 51.944C113.329 52.056 113.016 52.112 112.694 52.112ZM118.638 44.797C119.156 44.797 119.623 44.8833 120.038 45.056C120.458 45.2287 120.813 45.4737 121.102 45.791C121.396 46.1083 121.62 46.4933 121.774 46.946C121.933 47.394 122.012 47.8957 122.012 48.451C122.012 49.011 121.933 49.515 121.774 49.963C121.62 50.411 121.396 50.7937 121.102 51.111C120.813 51.4283 120.458 51.6733 120.038 51.846C119.623 52.014 119.156 52.098 118.638 52.098C118.12 52.098 117.651 52.014 117.231 51.846C116.816 51.6733 116.461 51.4283 116.167 51.111C115.873 50.7937 115.647 50.411 115.488 49.963C115.329 49.515 115.25 49.011 115.25 48.451C115.25 47.8957 115.329 47.394 115.488 46.946C115.647 46.4933 115.873 46.1083 116.167 45.791C116.461 45.4737 116.816 45.2287 117.231 45.056C117.651 44.8833 118.12 44.797 118.638 44.797ZM118.638 51.125C119.338 51.125 119.861 50.8917 120.206 50.425C120.551 49.9537 120.724 49.298 120.724 48.458C120.724 47.6133 120.551 46.9553 120.206 46.484C119.861 46.0127 119.338 45.777 118.638 45.777C118.283 45.777 117.975 45.8377 117.714 45.959C117.453 46.0803 117.233 46.2553 117.056 46.484C116.883 46.7127 116.753 46.995 116.664 47.331C116.58 47.6623 116.538 48.038 116.538 48.458C116.538 48.878 116.58 49.2537 116.664 49.585C116.753 49.9163 116.883 50.1963 117.056 50.425C117.233 50.649 117.453 50.8217 117.714 50.943C117.975 51.0643 118.283 51.125 118.638 51.125ZM128.403 52.112C127.843 52.112 127.412 51.9557 127.108 51.643C126.81 51.3303 126.66 50.88 126.66 50.292V45.952H125.806C125.732 45.952 125.669 45.931 125.617 45.889C125.566 45.8423 125.54 45.7723 125.54 45.679V45.182L126.702 45.035L126.989 42.844C126.999 42.774 127.029 42.718 127.08 42.676C127.132 42.6293 127.197 42.606 127.276 42.606H127.906V45.049H129.936V45.952H127.906V50.208C127.906 50.5067 127.979 50.7283 128.123 50.873C128.268 51.0177 128.455 51.09 128.683 51.09C128.814 51.09 128.926 51.0737 129.019 51.041C129.117 51.0037 129.201 50.964 129.271 50.922C129.341 50.88 129.4 50.8427 129.446 50.81C129.498 50.7727 129.542 50.754 129.579 50.754C129.645 50.754 129.703 50.7937 129.754 50.873L130.118 51.468C129.904 51.6687 129.645 51.8273 129.341 51.944C129.038 52.056 128.725 52.112 128.403 52.112ZM136.685 52H136.132C136.011 52 135.913 51.9813 135.838 51.944C135.763 51.9067 135.714 51.8273 135.691 51.706L135.551 51.048C135.364 51.216 135.182 51.3677 135.005 51.503C134.828 51.6337 134.641 51.7457 134.445 51.839C134.249 51.9277 134.039 51.9953 133.815 52.042C133.596 52.0887 133.351 52.112 133.08 52.112C132.805 52.112 132.546 52.0747 132.303 52C132.065 51.9207 131.857 51.804 131.68 51.65C131.503 51.496 131.36 51.3023 131.253 51.069C131.15 50.831 131.099 50.551 131.099 50.229C131.099 49.949 131.176 49.6807 131.33 49.424C131.484 49.1627 131.731 48.9317 132.072 48.731C132.417 48.5303 132.868 48.367 133.423 48.241C133.978 48.1103 134.657 48.0357 135.46 48.017V47.464C135.46 46.9133 135.341 46.498 135.103 46.218C134.87 45.9333 134.522 45.791 134.06 45.791C133.757 45.791 133.5 45.8307 133.29 45.91C133.085 45.9847 132.905 46.071 132.751 46.169C132.602 46.2623 132.471 46.3487 132.359 46.428C132.252 46.5027 132.144 46.54 132.037 46.54C131.953 46.54 131.878 46.519 131.813 46.477C131.752 46.4303 131.703 46.3743 131.666 46.309L131.442 45.91C131.834 45.532 132.256 45.2497 132.709 45.063C133.162 44.8763 133.663 44.783 134.214 44.783C134.611 44.783 134.963 44.8483 135.271 44.979C135.579 45.1097 135.838 45.2917 136.048 45.525C136.258 45.7583 136.417 46.0407 136.524 46.372C136.631 46.7033 136.685 47.0673 136.685 47.464V52ZM133.451 51.237C133.67 51.237 133.871 51.216 134.053 51.174C134.235 51.1273 134.405 51.0643 134.564 50.985C134.727 50.901 134.881 50.8007 135.026 50.684C135.175 50.5673 135.32 50.4343 135.46 50.285V48.808C134.886 48.8267 134.398 48.8733 133.997 48.948C133.596 49.018 133.269 49.1113 133.017 49.228C132.765 49.3447 132.581 49.4823 132.464 49.641C132.352 49.7997 132.296 49.977 132.296 50.173C132.296 50.3597 132.326 50.5207 132.387 50.656C132.448 50.7913 132.529 50.9033 132.632 50.992C132.735 51.076 132.856 51.139 132.996 51.181C133.136 51.2183 133.288 51.237 133.451 51.237ZM139.959 41.689V52H138.713V41.689H139.959ZM143.45 41.689V47.758H143.772C143.865 47.758 143.942 47.7463 144.003 47.723C144.063 47.695 144.131 47.6413 144.206 47.562L146.446 45.161C146.516 45.0863 146.586 45.0257 146.656 44.979C146.726 44.9323 146.819 44.909 146.936 44.909H148.07L145.459 47.688C145.393 47.7673 145.328 47.8373 145.263 47.898C145.202 47.9587 145.132 48.0123 145.053 48.059C145.137 48.115 145.211 48.1803 145.277 48.255C145.347 48.325 145.412 48.4067 145.473 48.5L148.245 52H147.125C147.022 52 146.933 51.9813 146.859 51.944C146.789 51.902 146.721 51.839 146.656 51.755L144.325 48.85C144.255 48.752 144.185 48.689 144.115 48.661C144.045 48.6283 143.94 48.612 143.8 48.612H143.45V52H142.197V41.689H143.45ZM157.412 52H156.859C156.737 52 156.639 51.9813 156.565 51.944C156.49 51.9067 156.441 51.8273 156.418 51.706L156.278 51.048C156.091 51.216 155.909 51.3677 155.732 51.503C155.554 51.6337 155.368 51.7457 155.172 51.839C154.976 51.9277 154.766 51.9953 154.542 52.042C154.322 52.0887 154.077 52.112 153.807 52.112C153.531 52.112 153.272 52.0747 153.03 52C152.792 51.9207 152.584 51.804 152.407 51.65C152.229 51.496 152.087 51.3023 151.98 51.069C151.877 50.831 151.826 50.551 151.826 50.229C151.826 49.949 151.903 49.6807 152.057 49.424C152.211 49.1627 152.458 48.9317 152.799 48.731C153.144 48.5303 153.594 48.367 154.15 48.241C154.705 48.1103 155.384 48.0357 156.187 48.017V47.464C156.187 46.9133 156.068 46.498 155.83 46.218C155.596 45.9333 155.249 45.791 154.787 45.791C154.483 45.791 154.227 45.8307 154.017 45.91C153.811 45.9847 153.632 46.071 153.478 46.169C153.328 46.2623 153.198 46.3487 153.086 46.428C152.978 46.5027 152.871 46.54 152.764 46.54C152.68 46.54 152.605 46.519 152.54 46.477C152.479 46.4303 152.43 46.3743 152.393 46.309L152.169 45.91C152.561 45.532 152.983 45.2497 153.436 45.063C153.888 44.8763 154.39 44.783 154.941 44.783C155.337 44.783 155.69 44.8483 155.998 44.979C156.306 45.1097 156.565 45.2917 156.775 45.525C156.985 45.7583 157.143 46.0407 157.251 46.372C157.358 46.7033 157.412 47.0673 157.412 47.464V52ZM154.178 51.237C154.397 51.237 154.598 51.216 154.78 51.174C154.962 51.1273 155.132 51.0643 155.291 50.985C155.454 50.901 155.608 50.8007 155.753 50.684C155.902 50.5673 156.047 50.4343 156.187 50.285V48.808C155.613 48.8267 155.125 48.8733 154.724 48.948C154.322 49.018 153.996 49.1113 153.744 49.228C153.492 49.3447 153.307 49.4823 153.191 49.641C153.079 49.7997 153.023 49.977 153.023 50.173C153.023 50.3597 153.053 50.5207 153.114 50.656C153.174 50.7913 153.256 50.9033 153.359 50.992C153.461 51.076 153.583 51.139 153.723 51.181C153.863 51.2183 154.014 51.237 154.178 51.237ZM159.341 52V41.689H160.594V45.931C160.888 45.5903 161.224 45.3173 161.602 45.112C161.985 44.902 162.421 44.797 162.911 44.797C163.322 44.797 163.693 44.874 164.024 45.028C164.356 45.182 164.638 45.413 164.871 45.721C165.105 46.0243 165.284 46.4023 165.41 46.855C165.536 47.303 165.599 47.821 165.599 48.409C165.599 48.9317 165.529 49.4193 165.389 49.872C165.249 50.32 165.046 50.7097 164.78 51.041C164.519 51.3677 164.197 51.6267 163.814 51.818C163.436 52.0047 163.009 52.098 162.533 52.098C162.076 52.098 161.686 52.0093 161.364 51.832C161.047 51.6547 160.769 51.4073 160.531 51.09L160.468 51.734C160.431 51.9113 160.324 52 160.146 52H159.341ZM162.505 45.791C162.099 45.791 161.742 45.8843 161.434 46.071C161.131 46.2577 160.851 46.5213 160.594 46.862V50.292C160.818 50.6 161.066 50.817 161.336 50.943C161.612 51.069 161.917 51.132 162.253 51.132C162.916 51.132 163.425 50.8963 163.779 50.425C164.134 49.9537 164.311 49.2817 164.311 48.409C164.311 47.947 164.269 47.5503 164.185 47.219C164.106 46.8877 163.989 46.617 163.835 46.407C163.681 46.1923 163.492 46.036 163.268 45.938C163.044 45.84 162.79 45.791 162.505 45.791ZM169.99 44.797C170.508 44.797 170.974 44.8833 171.39 45.056C171.81 45.2287 172.164 45.4737 172.454 45.791C172.748 46.1083 172.972 46.4933 173.126 46.946C173.284 47.394 173.364 47.8957 173.364 48.451C173.364 49.011 173.284 49.515 173.126 49.963C172.972 50.411 172.748 50.7937 172.454 51.111C172.164 51.4283 171.81 51.6733 171.39 51.846C170.974 52.014 170.508 52.098 169.99 52.098C169.472 52.098 169.003 52.014 168.583 51.846C168.167 51.6733 167.813 51.4283 167.519 51.111C167.225 50.7937 166.998 50.411 166.84 49.963C166.681 49.515 166.602 49.011 166.602 48.451C166.602 47.8957 166.681 47.394 166.84 46.946C166.998 46.4933 167.225 46.1083 167.519 45.791C167.813 45.4737 168.167 45.2287 168.583 45.056C169.003 44.8833 169.472 44.797 169.99 44.797ZM169.99 51.125C170.69 51.125 171.212 50.8917 171.558 50.425C171.903 49.9537 172.076 49.298 172.076 48.458C172.076 47.6133 171.903 46.9553 171.558 46.484C171.212 46.0127 170.69 45.777 169.99 45.777C169.635 45.777 169.327 45.8377 169.066 45.959C168.804 46.0803 168.585 46.2553 168.408 46.484C168.235 46.7127 168.104 46.995 168.016 47.331C167.932 47.6623 167.89 48.038 167.89 48.458C167.89 48.878 167.932 49.2537 168.016 49.585C168.104 49.9163 168.235 50.1963 168.408 50.425C168.585 50.649 168.804 50.8217 169.066 50.943C169.327 51.0643 169.635 51.125 169.99 51.125ZM175.977 44.909V49.431C175.977 49.9677 176.101 50.383 176.348 50.677C176.595 50.971 176.969 51.118 177.468 51.118C177.832 51.118 178.175 51.0317 178.497 50.859C178.819 50.6863 179.115 50.446 179.386 50.138V44.909H180.632V52H179.89C179.713 52 179.601 51.9137 179.554 51.741L179.456 50.978C179.148 51.3187 178.803 51.594 178.42 51.804C178.037 52.0093 177.599 52.112 177.104 52.112C176.717 52.112 176.374 52.049 176.075 51.923C175.781 51.7923 175.534 51.6103 175.333 51.377C175.132 51.1437 174.981 50.8613 174.878 50.53C174.78 50.1987 174.731 49.8323 174.731 49.431V44.909H175.977ZM184.827 52.112C184.267 52.112 183.836 51.9557 183.532 51.643C183.234 51.3303 183.084 50.88 183.084 50.292V45.952H182.23C182.156 45.952 182.093 45.931 182.041 45.889C181.99 45.8423 181.964 45.7723 181.964 45.679V45.182L183.126 45.035L183.413 42.844C183.423 42.774 183.453 42.718 183.504 42.676C183.556 42.6293 183.621 42.606 183.7 42.606H184.33V45.049H186.36V45.952H184.33V50.208C184.33 50.5067 184.403 50.7283 184.547 50.873C184.692 51.0177 184.879 51.09 185.107 51.09C185.238 51.09 185.35 51.0737 185.443 51.041C185.541 51.0037 185.625 50.964 185.695 50.922C185.765 50.88 185.824 50.8427 185.87 50.81C185.922 50.7727 185.966 50.754 186.003 50.754C186.069 50.754 186.127 50.7937 186.178 50.873L186.542 51.468C186.328 51.6687 186.069 51.8273 185.765 51.944C185.462 52.056 185.149 52.112 184.827 52.112ZM192.757 52.112C192.197 52.112 191.765 51.9557 191.462 51.643C191.163 51.3303 191.014 50.88 191.014 50.292V45.952H190.16C190.085 45.952 190.022 45.931 189.971 45.889C189.92 45.8423 189.894 45.7723 189.894 45.679V45.182L191.056 45.035L191.343 42.844C191.352 42.774 191.383 42.718 191.434 42.676C191.485 42.6293 191.551 42.606 191.63 42.606H192.26V45.049H194.29V45.952H192.26V50.208C192.26 50.5067 192.332 50.7283 192.477 50.873C192.622 51.0177 192.808 51.09 193.037 51.09C193.168 51.09 193.28 51.0737 193.373 51.041C193.471 51.0037 193.555 50.964 193.625 50.922C193.695 50.88 193.753 50.8427 193.8 50.81C193.851 50.7727 193.896 50.754 193.933 50.754C193.998 50.754 194.057 50.7937 194.108 50.873L194.472 51.468C194.257 51.6687 193.998 51.8273 193.695 51.944C193.392 52.056 193.079 52.112 192.757 52.112ZM198.701 44.797C199.219 44.797 199.685 44.8833 200.101 45.056C200.521 45.2287 200.875 45.4737 201.165 45.791C201.459 46.1083 201.683 46.4933 201.837 46.946C201.995 47.394 202.075 47.8957 202.075 48.451C202.075 49.011 201.995 49.515 201.837 49.963C201.683 50.411 201.459 50.7937 201.165 51.111C200.875 51.4283 200.521 51.6733 200.101 51.846C199.685 52.014 199.219 52.098 198.701 52.098C198.183 52.098 197.714 52.014 197.294 51.846C196.878 51.6733 196.524 51.4283 196.23 51.111C195.936 50.7937 195.709 50.411 195.551 49.963C195.392 49.515 195.313 49.011 195.313 48.451C195.313 47.8957 195.392 47.394 195.551 46.946C195.709 46.4933 195.936 46.1083 196.23 45.791C196.524 45.4737 196.878 45.2287 197.294 45.056C197.714 44.8833 198.183 44.797 198.701 44.797ZM198.701 51.125C199.401 51.125 199.923 50.8917 200.269 50.425C200.614 49.9537 200.787 49.298 200.787 48.458C200.787 47.6133 200.614 46.9553 200.269 46.484C199.923 46.0127 199.401 45.777 198.701 45.777C198.346 45.777 198.038 45.8377 197.777 45.959C197.515 46.0803 197.296 46.2553 197.119 46.484C196.946 46.7127 196.815 46.995 196.727 47.331C196.643 47.6623 196.601 48.038 196.601 48.458C196.601 48.878 196.643 49.2537 196.727 49.585C196.815 49.9163 196.946 50.1963 197.119 50.425C197.296 50.649 197.515 50.8217 197.777 50.943C198.038 51.0643 198.346 51.125 198.701 51.125ZM208.466 52.112C207.906 52.112 207.474 51.9557 207.171 51.643C206.872 51.3303 206.723 50.88 206.723 50.292V45.952H205.869C205.794 45.952 205.731 45.931 205.68 45.889C205.629 45.8423 205.603 45.7723 205.603 45.679V45.182L206.765 45.035L207.052 42.844C207.061 42.774 207.092 42.718 207.143 42.676C207.194 42.6293 207.26 42.606 207.339 42.606H207.969V45.049H209.999V45.952H207.969V50.208C207.969 50.5067 208.041 50.7283 208.186 50.873C208.331 51.0177 208.517 51.09 208.746 51.09C208.877 51.09 208.989 51.0737 209.082 51.041C209.18 51.0037 209.264 50.964 209.334 50.922C209.404 50.88 209.462 50.8427 209.509 50.81C209.56 50.7727 209.605 50.754 209.642 50.754C209.707 50.754 209.766 50.7937 209.817 50.873L210.181 51.468C209.966 51.6687 209.707 51.8273 209.404 51.944C209.101 52.056 208.788 52.112 208.466 52.112ZM211.54 52V41.689H212.786V45.861C213.089 45.539 213.425 45.2823 213.794 45.091C214.162 44.895 214.587 44.797 215.068 44.797C215.455 44.797 215.796 44.8623 216.09 44.993C216.388 45.119 216.636 45.301 216.832 45.539C217.032 45.7723 217.184 46.0547 217.287 46.386C217.389 46.7173 217.441 47.0837 217.441 47.485V52H216.195V47.485C216.195 46.9483 216.071 46.533 215.824 46.239C215.581 45.9403 215.208 45.791 214.704 45.791C214.335 45.791 213.99 45.8797 213.668 46.057C213.35 46.2343 213.056 46.4747 212.786 46.778V52H211.54ZM220.705 44.909V52H219.459V44.909H220.705ZM220.985 42.683C220.985 42.8043 220.959 42.9187 220.908 43.026C220.861 43.1287 220.796 43.222 220.712 43.306C220.633 43.3853 220.539 43.4483 220.432 43.495C220.325 43.5417 220.21 43.565 220.089 43.565C219.968 43.565 219.853 43.5417 219.746 43.495C219.643 43.4483 219.55 43.3853 219.466 43.306C219.387 43.222 219.324 43.1287 219.277 43.026C219.23 42.9187 219.207 42.8043 219.207 42.683C219.207 42.5617 219.23 42.4473 219.277 42.34C219.324 42.228 219.387 42.1323 219.466 42.053C219.55 41.969 219.643 41.9037 219.746 41.857C219.853 41.8103 219.968 41.787 220.089 41.787C220.21 41.787 220.325 41.8103 220.432 41.857C220.539 41.9037 220.633 41.969 220.712 42.053C220.796 42.1323 220.861 42.228 220.908 42.34C220.959 42.4473 220.985 42.5617 220.985 42.683ZM222.901 52V44.909H223.643C223.82 44.909 223.932 44.9953 223.979 45.168L224.077 45.938C224.385 45.5973 224.728 45.322 225.106 45.112C225.489 44.902 225.93 44.797 226.429 44.797C226.816 44.797 227.157 44.8623 227.451 44.993C227.75 45.119 227.997 45.301 228.193 45.539C228.394 45.7723 228.545 46.0547 228.648 46.386C228.751 46.7173 228.802 47.0837 228.802 47.485V52H227.556V47.485C227.556 46.9483 227.432 46.533 227.185 46.239C226.942 45.9403 226.569 45.791 226.065 45.791C225.696 45.791 225.351 45.8797 225.029 46.057C224.712 46.2343 224.418 46.4747 224.147 46.778V52H222.901ZM233.067 44.79C233.375 44.79 233.662 44.825 233.928 44.895C234.199 44.9603 234.444 45.0583 234.663 45.189H236.588V45.651C236.588 45.805 236.49 45.903 236.294 45.945L235.489 46.057C235.648 46.3603 235.727 46.6987 235.727 47.072C235.727 47.4173 235.66 47.7323 235.524 48.017C235.394 48.297 235.209 48.5373 234.971 48.738C234.738 48.9387 234.458 49.0927 234.131 49.2C233.809 49.3073 233.455 49.361 233.067 49.361C232.736 49.361 232.423 49.3213 232.129 49.242C231.98 49.3353 231.866 49.4357 231.786 49.543C231.712 49.6503 231.674 49.7553 231.674 49.858C231.674 50.026 231.742 50.1543 231.877 50.243C232.013 50.327 232.192 50.3877 232.416 50.425C232.64 50.4623 232.895 50.4857 233.179 50.495C233.464 50.5043 233.753 50.5207 234.047 50.544C234.346 50.5627 234.638 50.5977 234.922 50.649C235.207 50.7003 235.461 50.7843 235.685 50.901C235.909 51.0177 236.089 51.1787 236.224 51.384C236.36 51.5893 236.427 51.8553 236.427 52.182C236.427 52.4853 236.35 52.7793 236.196 53.064C236.047 53.3487 235.83 53.6007 235.545 53.82C235.261 54.044 234.913 54.2213 234.502 54.352C234.092 54.4873 233.627 54.555 233.109 54.555C232.591 54.555 232.136 54.5037 231.744 54.401C231.357 54.2983 231.035 54.1607 230.778 53.988C230.522 53.8153 230.328 53.6147 230.197 53.386C230.071 53.162 230.008 52.9263 230.008 52.679C230.008 52.329 230.118 52.0327 230.337 51.79C230.561 51.5427 230.867 51.3467 231.254 51.202C231.054 51.1087 230.893 50.985 230.771 50.831C230.655 50.6723 230.596 50.4623 230.596 50.201C230.596 50.0983 230.615 49.9933 230.652 49.886C230.69 49.774 230.746 49.6643 230.82 49.557C230.9 49.4497 230.995 49.347 231.107 49.249C231.219 49.151 231.35 49.0647 231.499 48.99C231.149 48.794 230.874 48.535 230.673 48.213C230.477 47.8863 230.379 47.506 230.379 47.072C230.379 46.7267 230.445 46.414 230.575 46.134C230.711 45.8493 230.897 45.609 231.135 45.413C231.373 45.2123 231.656 45.0583 231.982 44.951C232.314 44.8437 232.675 44.79 233.067 44.79ZM235.279 52.385C235.279 52.2077 235.23 52.0653 235.132 51.958C235.034 51.8507 234.901 51.769 234.733 51.713C234.565 51.6523 234.372 51.608 234.152 51.58C233.933 51.552 233.702 51.5333 233.459 51.524C233.217 51.51 232.969 51.496 232.717 51.482C232.465 51.468 232.225 51.4423 231.996 51.405C231.73 51.531 231.513 51.685 231.345 51.867C231.182 52.049 231.1 52.266 231.1 52.518C231.1 52.6767 231.14 52.8237 231.219 52.959C231.303 53.099 231.429 53.218 231.597 53.316C231.765 53.4187 231.975 53.498 232.227 53.554C232.484 53.6147 232.785 53.645 233.13 53.645C233.466 53.645 233.767 53.6147 234.033 53.554C234.299 53.4933 234.523 53.407 234.705 53.295C234.892 53.183 235.034 53.05 235.132 52.896C235.23 52.742 235.279 52.5717 235.279 52.385ZM233.067 48.535C233.319 48.535 233.541 48.5 233.732 48.43C233.928 48.36 234.092 48.262 234.222 48.136C234.353 48.01 234.451 47.8607 234.516 47.688C234.582 47.5107 234.614 47.317 234.614 47.107C234.614 46.673 234.481 46.3277 234.215 46.071C233.954 45.8143 233.571 45.686 233.067 45.686C232.568 45.686 232.185 45.8143 231.919 46.071C231.658 46.3277 231.527 46.673 231.527 47.107C231.527 47.317 231.56 47.5107 231.625 47.688C231.695 47.8607 231.796 48.01 231.926 48.136C232.057 48.262 232.218 48.36 232.409 48.43C232.601 48.5 232.82 48.535 233.067 48.535ZM241.891 46.078C241.835 46.1807 241.748 46.232 241.632 46.232C241.562 46.232 241.482 46.2063 241.394 46.155C241.305 46.1037 241.195 46.0477 241.065 45.987C240.939 45.9217 240.787 45.8633 240.61 45.812C240.432 45.756 240.222 45.728 239.98 45.728C239.77 45.728 239.581 45.756 239.413 45.812C239.245 45.8633 239.1 45.9357 238.979 46.029C238.862 46.1223 238.771 46.232 238.706 46.358C238.645 46.4793 238.615 46.6123 238.615 46.757C238.615 46.939 238.666 47.0907 238.769 47.212C238.876 47.3333 239.016 47.4383 239.189 47.527C239.361 47.6157 239.557 47.695 239.777 47.765C239.996 47.8303 240.22 47.9027 240.449 47.982C240.682 48.0567 240.908 48.1407 241.128 48.234C241.347 48.3273 241.543 48.444 241.716 48.584C241.888 48.724 242.026 48.8967 242.129 49.102C242.236 49.3027 242.29 49.5453 242.29 49.83C242.29 50.1567 242.231 50.46 242.115 50.74C241.998 51.0153 241.825 51.2557 241.597 51.461C241.368 51.6617 241.088 51.8203 240.757 51.937C240.425 52.0537 240.043 52.112 239.609 52.112C239.114 52.112 238.666 52.0327 238.265 51.874C237.863 51.7107 237.523 51.503 237.243 51.251L237.537 50.775C237.574 50.7143 237.618 50.6677 237.67 50.635C237.721 50.6023 237.789 50.586 237.873 50.586C237.957 50.586 238.045 50.6187 238.139 50.684C238.232 50.7493 238.344 50.8217 238.475 50.901C238.61 50.9803 238.771 51.0527 238.958 51.118C239.149 51.1833 239.387 51.216 239.672 51.216C239.914 51.216 240.127 51.1857 240.309 51.125C240.491 51.0597 240.642 50.9733 240.764 50.866C240.885 50.7587 240.974 50.635 241.03 50.495C241.09 50.355 241.121 50.2057 241.121 50.047C241.121 49.851 241.067 49.69 240.96 49.564C240.857 49.4333 240.719 49.3237 240.547 49.235C240.374 49.1417 240.176 49.0623 239.952 48.997C239.732 48.927 239.506 48.8547 239.273 48.78C239.044 48.7053 238.818 48.6213 238.594 48.528C238.374 48.43 238.178 48.3087 238.006 48.164C237.833 48.0193 237.693 47.842 237.586 47.632C237.483 47.4173 237.432 47.1583 237.432 46.855C237.432 46.5843 237.488 46.3253 237.6 46.078C237.712 45.826 237.875 45.6067 238.09 45.42C238.304 45.2287 238.568 45.077 238.881 44.965C239.193 44.853 239.55 44.797 239.952 44.797C240.418 44.797 240.836 44.8717 241.205 45.021C241.578 45.1657 241.9 45.3663 242.171 45.623L241.891 46.078ZM248.757 52.112C248.197 52.112 247.765 51.9557 247.462 51.643C247.163 51.3303 247.014 50.88 247.014 50.292V45.952H246.16C246.085 45.952 246.022 45.931 245.971 45.889C245.92 45.8423 245.894 45.7723 245.894 45.679V45.182L247.056 45.035L247.343 42.844C247.352 42.774 247.383 42.718 247.434 42.676C247.485 42.6293 247.551 42.606 247.63 42.606H248.26V45.049H250.29V45.952H248.26V50.208C248.26 50.5067 248.332 50.7283 248.477 50.873C248.622 51.0177 248.808 51.09 249.037 51.09C249.168 51.09 249.28 51.0737 249.373 51.041C249.471 51.0037 249.555 50.964 249.625 50.922C249.695 50.88 249.753 50.8427 249.8 50.81C249.851 50.7727 249.896 50.754 249.933 50.754C249.998 50.754 250.057 50.7937 250.108 50.873L250.472 51.468C250.257 51.6687 249.998 51.8273 249.695 51.944C249.392 52.056 249.079 52.112 248.757 52.112ZM251.831 52V41.689H253.077V45.861C253.38 45.539 253.716 45.2823 254.085 45.091C254.453 44.895 254.878 44.797 255.359 44.797C255.746 44.797 256.087 44.8623 256.381 44.993C256.679 45.119 256.927 45.301 257.123 45.539C257.323 45.7723 257.475 46.0547 257.578 46.386C257.68 46.7173 257.732 47.0837 257.732 47.485V52H256.486V47.485C256.486 46.9483 256.362 46.533 256.115 46.239C255.872 45.9403 255.499 45.791 254.995 45.791C254.626 45.791 254.281 45.8797 253.959 46.057C253.641 46.2343 253.347 46.4747 253.077 46.778V52H251.831ZM264.818 52H264.265C264.144 52 264.046 51.9813 263.971 51.944C263.896 51.9067 263.847 51.8273 263.824 51.706L263.684 51.048C263.497 51.216 263.315 51.3677 263.138 51.503C262.961 51.6337 262.774 51.7457 262.578 51.839C262.382 51.9277 262.172 51.9953 261.948 52.042C261.729 52.0887 261.484 52.112 261.213 52.112C260.938 52.112 260.679 52.0747 260.436 52C260.198 51.9207 259.99 51.804 259.813 51.65C259.636 51.496 259.493 51.3023 259.386 51.069C259.283 50.831 259.232 50.551 259.232 50.229C259.232 49.949 259.309 49.6807 259.463 49.424C259.617 49.1627 259.864 48.9317 260.205 48.731C260.55 48.5303 261.001 48.367 261.556 48.241C262.111 48.1103 262.79 48.0357 263.593 48.017V47.464C263.593 46.9133 263.474 46.498 263.236 46.218C263.003 45.9333 262.655 45.791 262.193 45.791C261.89 45.791 261.633 45.8307 261.423 45.91C261.218 45.9847 261.038 46.071 260.884 46.169C260.735 46.2623 260.604 46.3487 260.492 46.428C260.385 46.5027 260.277 46.54 260.17 46.54C260.086 46.54 260.011 46.519 259.946 46.477C259.885 46.4303 259.836 46.3743 259.799 46.309L259.575 45.91C259.967 45.532 260.389 45.2497 260.842 45.063C261.295 44.8763 261.796 44.783 262.347 44.783C262.744 44.783 263.096 44.8483 263.404 44.979C263.712 45.1097 263.971 45.2917 264.181 45.525C264.391 45.7583 264.55 46.0407 264.657 46.372C264.764 46.7033 264.818 47.0673 264.818 47.464V52ZM261.584 51.237C261.803 51.237 262.004 51.216 262.186 51.174C262.368 51.1273 262.538 51.0643 262.697 50.985C262.86 50.901 263.014 50.8007 263.159 50.684C263.308 50.5673 263.453 50.4343 263.593 50.285V48.808C263.019 48.8267 262.531 48.8733 262.13 48.948C261.729 49.018 261.402 49.1113 261.15 49.228C260.898 49.3447 260.714 49.4823 260.597 49.641C260.485 49.7997 260.429 49.977 260.429 50.173C260.429 50.3597 260.459 50.5207 260.52 50.656C260.581 50.7913 260.662 50.9033 260.765 50.992C260.868 51.076 260.989 51.139 261.129 51.181C261.269 51.2183 261.421 51.237 261.584 51.237ZM268.855 52.112C268.295 52.112 267.863 51.9557 267.56 51.643C267.261 51.3303 267.112 50.88 267.112 50.292V45.952H266.258C266.183 45.952 266.12 45.931 266.069 45.889C266.017 45.8423 265.992 45.7723 265.992 45.679V45.182L267.154 45.035L267.441 42.844C267.45 42.774 267.48 42.718 267.532 42.676C267.583 42.6293 267.648 42.606 267.728 42.606H268.358V45.049H270.388V45.952H268.358V50.208C268.358 50.5067 268.43 50.7283 268.575 50.873C268.719 51.0177 268.906 51.09 269.135 51.09C269.265 51.09 269.377 51.0737 269.471 51.041C269.569 51.0037 269.653 50.964 269.723 50.922C269.793 50.88 269.851 50.8427 269.898 50.81C269.949 50.7727 269.993 50.754 270.031 50.754C270.096 50.754 270.154 50.7937 270.206 50.873L270.57 51.468C270.355 51.6687 270.096 51.8273 269.793 51.944C269.489 52.056 269.177 52.112 268.855 52.112ZM279.843 52H279.29C279.169 52 279.071 51.9813 278.996 51.944C278.922 51.9067 278.873 51.8273 278.849 51.706L278.709 51.048C278.523 51.216 278.341 51.3677 278.163 51.503C277.986 51.6337 277.799 51.7457 277.603 51.839C277.407 51.9277 277.197 51.9953 276.973 52.042C276.754 52.0887 276.509 52.112 276.238 52.112C275.963 52.112 275.704 52.0747 275.461 52C275.223 51.9207 275.016 51.804 274.838 51.65C274.661 51.496 274.519 51.3023 274.411 51.069C274.309 50.831 274.257 50.551 274.257 50.229C274.257 49.949 274.334 49.6807 274.488 49.424C274.642 49.1627 274.89 48.9317 275.23 48.731C275.576 48.5303 276.026 48.367 276.581 48.241C277.137 48.1103 277.816 48.0357 278.618 48.017V47.464C278.618 46.9133 278.499 46.498 278.261 46.218C278.028 45.9333 277.68 45.791 277.218 45.791C276.915 45.791 276.658 45.8307 276.448 45.91C276.243 45.9847 276.063 46.071 275.909 46.169C275.76 46.2623 275.629 46.3487 275.517 46.428C275.41 46.5027 275.303 46.54 275.195 46.54C275.111 46.54 275.037 46.519 274.971 46.477C274.911 46.4303 274.862 46.3743 274.824 46.309L274.6 45.91C274.992 45.532 275.415 45.2497 275.867 45.063C276.32 44.8763 276.822 44.783 277.372 44.783C277.769 44.783 278.121 44.8483 278.429 44.979C278.737 45.1097 278.996 45.2917 279.206 45.525C279.416 45.7583 279.575 46.0407 279.682 46.372C279.79 46.7033 279.843 47.0673 279.843 47.464V52ZM276.609 51.237C276.829 51.237 277.029 51.216 277.211 51.174C277.393 51.1273 277.564 51.0643 277.722 50.985C277.886 50.901 278.04 50.8007 278.184 50.684C278.334 50.5673 278.478 50.4343 278.618 50.285V48.808C278.044 48.8267 277.557 48.8733 277.155 48.948C276.754 49.018 276.427 49.1113 276.175 49.228C275.923 49.3447 275.739 49.4823 275.622 49.641C275.51 49.7997 275.454 49.977 275.454 50.173C275.454 50.3597 275.485 50.5207 275.545 50.656C275.606 50.7913 275.688 50.9033 275.79 50.992C275.893 51.076 276.014 51.139 276.154 51.181C276.294 51.2183 276.446 51.237 276.609 51.237ZM281.731 52V44.909H282.445C282.58 44.909 282.674 44.9347 282.725 44.986C282.776 45.0373 282.811 45.126 282.83 45.252L282.914 46.358C283.157 45.8633 283.455 45.4783 283.81 45.203C284.169 44.923 284.589 44.783 285.07 44.783C285.266 44.783 285.443 44.8063 285.602 44.853C285.761 44.895 285.908 44.9557 286.043 45.035L285.882 45.966C285.849 46.0827 285.777 46.141 285.665 46.141C285.6 46.141 285.499 46.12 285.364 46.078C285.229 46.0313 285.04 46.008 284.797 46.008C284.363 46.008 283.999 46.134 283.705 46.386C283.416 46.638 283.173 47.0043 282.977 47.485V52H281.731ZM290.184 44.797C290.609 44.797 291.001 44.8693 291.36 45.014C291.72 45.154 292.03 45.3593 292.291 45.63C292.553 45.896 292.756 46.2273 292.9 46.624C293.05 47.016 293.124 47.464 293.124 47.968C293.124 48.164 293.103 48.2947 293.061 48.36C293.019 48.4253 292.94 48.458 292.823 48.458H288.105C288.115 48.906 288.175 49.2957 288.287 49.627C288.399 49.9583 288.553 50.236 288.749 50.46C288.945 50.6793 289.179 50.845 289.449 50.957C289.72 51.0643 290.023 51.118 290.359 51.118C290.672 51.118 290.94 51.083 291.164 51.013C291.393 50.9383 291.589 50.859 291.752 50.775C291.916 50.691 292.051 50.614 292.158 50.544C292.27 50.4693 292.366 50.432 292.445 50.432C292.548 50.432 292.627 50.4717 292.683 50.551L293.033 51.006C292.879 51.1927 292.695 51.356 292.48 51.496C292.266 51.6313 292.035 51.7433 291.787 51.832C291.545 51.9207 291.293 51.986 291.031 52.028C290.77 52.0747 290.511 52.098 290.254 52.098C289.764 52.098 289.312 52.0163 288.896 51.853C288.486 51.685 288.129 51.4423 287.825 51.125C287.527 50.803 287.293 50.4063 287.125 49.935C286.957 49.4637 286.873 48.9223 286.873 48.311C286.873 47.8163 286.948 47.3543 287.097 46.925C287.251 46.4957 287.471 46.1247 287.755 45.812C288.04 45.4947 288.388 45.2473 288.798 45.07C289.209 44.888 289.671 44.797 290.184 44.797ZM290.212 45.714C289.61 45.714 289.137 45.889 288.791 46.239C288.446 46.5843 288.231 47.065 288.147 47.681H292.004C292.004 47.3917 291.965 47.128 291.885 46.89C291.806 46.6473 291.689 46.4397 291.535 46.267C291.381 46.0897 291.192 45.9543 290.968 45.861C290.749 45.763 290.497 45.714 290.212 45.714ZM303.159 44.909V54.401H301.913V50.95C301.615 51.2953 301.274 51.573 300.891 51.783C300.513 51.993 300.079 52.098 299.589 52.098C299.183 52.098 298.815 52.021 298.483 51.867C298.152 51.7083 297.87 51.4773 297.636 51.174C297.403 50.8707 297.223 50.4927 297.097 50.04C296.971 49.5873 296.908 49.067 296.908 48.479C296.908 47.9563 296.978 47.471 297.118 47.023C297.258 46.5703 297.459 46.1783 297.72 45.847C297.986 45.5157 298.308 45.2567 298.686 45.07C299.064 44.8787 299.494 44.783 299.974 44.783C300.432 44.783 300.819 44.8647 301.136 45.028C301.458 45.1913 301.745 45.4223 301.997 45.721L302.081 45.168C302.128 44.9953 302.24 44.909 302.417 44.909H303.159ZM300.002 51.09C300.408 51.09 300.763 50.9967 301.066 50.81C301.374 50.6233 301.657 50.3597 301.913 50.019V46.589C301.689 46.2903 301.44 46.078 301.164 45.952C300.889 45.8213 300.586 45.756 300.254 45.756C299.592 45.756 299.083 45.9917 298.728 46.463C298.374 46.9343 298.196 47.6063 298.196 48.479C298.196 48.941 298.236 49.3377 298.315 49.669C298.395 49.9957 298.511 50.2663 298.665 50.481C298.819 50.691 299.008 50.845 299.232 50.943C299.456 51.041 299.713 51.09 300.002 51.09ZM306.325 44.909V49.431C306.325 49.9677 306.448 50.383 306.696 50.677C306.943 50.971 307.316 51.118 307.816 51.118C308.18 51.118 308.523 51.0317 308.845 50.859C309.167 50.6863 309.463 50.446 309.734 50.138V44.909H310.98V52H310.238C310.06 52 309.948 51.9137 309.902 51.741L309.804 50.978C309.496 51.3187 309.15 51.594 308.768 51.804C308.385 52.0093 307.946 52.112 307.452 52.112C307.064 52.112 306.721 52.049 306.423 51.923C306.129 51.7923 305.881 51.6103 305.681 51.377C305.48 51.1437 305.328 50.8613 305.226 50.53C305.128 50.1987 305.079 49.8323 305.079 49.431V44.909H306.325ZM314.412 44.909V52H313.166V44.909H314.412ZM314.692 42.683C314.692 42.8043 314.666 42.9187 314.615 43.026C314.568 43.1287 314.503 43.222 314.419 43.306C314.34 43.3853 314.246 43.4483 314.139 43.495C314.032 43.5417 313.917 43.565 313.796 43.565C313.675 43.565 313.56 43.5417 313.453 43.495C313.35 43.4483 313.257 43.3853 313.173 43.306C313.094 43.222 313.031 43.1287 312.984 43.026C312.937 42.9187 312.914 42.8043 312.914 42.683C312.914 42.5617 312.937 42.4473 312.984 42.34C313.031 42.228 313.094 42.1323 313.173 42.053C313.257 41.969 313.35 41.9037 313.453 41.857C313.56 41.8103 313.675 41.787 313.796 41.787C313.917 41.787 314.032 41.8103 314.139 41.857C314.246 41.9037 314.34 41.969 314.419 42.053C314.503 42.1323 314.568 42.228 314.615 42.34C314.666 42.4473 314.692 42.5617 314.692 42.683ZM318.757 52.112C318.197 52.112 317.765 51.9557 317.462 51.643C317.163 51.3303 317.014 50.88 317.014 50.292V45.952H316.16C316.085 45.952 316.022 45.931 315.971 45.889C315.92 45.8423 315.894 45.7723 315.894 45.679V45.182L317.056 45.035L317.343 42.844C317.352 42.774 317.383 42.718 317.434 42.676C317.485 42.6293 317.551 42.606 317.63 42.606H318.26V45.049H320.29V45.952H318.26V50.208C318.26 50.5067 318.332 50.7283 318.477 50.873C318.622 51.0177 318.808 51.09 319.037 51.09C319.168 51.09 319.28 51.0737 319.373 51.041C319.471 51.0037 319.555 50.964 319.625 50.922C319.695 50.88 319.753 50.8427 319.8 50.81C319.851 50.7727 319.896 50.754 319.933 50.754C319.998 50.754 320.057 50.7937 320.108 50.873L320.472 51.468C320.257 51.6687 319.998 51.8273 319.695 51.944C319.392 52.056 319.079 52.112 318.757 52.112ZM324.638 44.797C325.062 44.797 325.454 44.8693 325.814 45.014C326.173 45.154 326.483 45.3593 326.745 45.63C327.006 45.896 327.209 46.2273 327.354 46.624C327.503 47.016 327.578 47.464 327.578 47.968C327.578 48.164 327.557 48.2947 327.515 48.36C327.473 48.4253 327.393 48.458 327.277 48.458H322.559C322.568 48.906 322.629 49.2957 322.741 49.627C322.853 49.9583 323.007 50.236 323.203 50.46C323.399 50.6793 323.632 50.845 323.903 50.957C324.173 51.0643 324.477 51.118 324.813 51.118C325.125 51.118 325.394 51.083 325.618 51.013C325.846 50.9383 326.042 50.859 326.206 50.775C326.369 50.691 326.504 50.614 326.612 50.544C326.724 50.4693 326.819 50.432 326.899 50.432C327.001 50.432 327.081 50.4717 327.137 50.551L327.487 51.006C327.333 51.1927 327.148 51.356 326.934 51.496C326.719 51.6313 326.488 51.7433 326.241 51.832C325.998 51.9207 325.746 51.986 325.485 52.028C325.223 52.0747 324.964 52.098 324.708 52.098C324.218 52.098 323.765 52.0163 323.35 51.853C322.939 51.685 322.582 51.4423 322.279 51.125C321.98 50.803 321.747 50.4063 321.579 49.935C321.411 49.4637 321.327 48.9223 321.327 48.311C321.327 47.8163 321.401 47.3543 321.551 46.925C321.705 46.4957 321.924 46.1247 322.209 45.812C322.493 45.4947 322.841 45.2473 323.252 45.07C323.662 44.888 324.124 44.797 324.638 44.797ZM324.666 45.714C324.064 45.714 323.59 45.889 323.245 46.239C322.899 46.5843 322.685 47.065 322.601 47.681H326.458C326.458 47.3917 326.418 47.128 326.339 46.89C326.259 46.6473 326.143 46.4397 325.989 46.267C325.835 46.0897 325.646 45.9543 325.422 45.861C325.202 45.763 324.95 45.714 324.666 45.714ZM328.766 51.23C328.766 51.1087 328.787 50.9943 328.829 50.887C328.876 50.7797 328.937 50.6863 329.011 50.607C329.091 50.5277 329.184 50.4647 329.291 50.418C329.399 50.3713 329.513 50.348 329.634 50.348C329.756 50.348 329.87 50.3713 329.977 50.418C330.085 50.4647 330.178 50.5277 330.257 50.607C330.337 50.6863 330.397 50.7797 330.439 50.887C330.486 50.9943 330.509 51.1087 330.509 51.23C330.509 51.356 330.486 51.4727 330.439 51.58C330.397 51.6827 330.337 51.7737 330.257 51.853C330.178 51.9323 330.085 51.993 329.977 52.035C329.87 52.0817 329.756 52.105 329.634 52.105C329.513 52.105 329.399 52.0817 329.291 52.035C329.184 51.993 329.091 51.9323 329.011 51.853C328.937 51.7737 328.876 51.6827 328.829 51.58C328.787 51.4727 328.766 51.356 328.766 51.23ZM331.733 51.23C331.733 51.1087 331.754 50.9943 331.796 50.887C331.843 50.7797 331.904 50.6863 331.978 50.607C332.058 50.5277 332.151 50.4647 332.258 50.418C332.366 50.3713 332.48 50.348 332.601 50.348C332.723 50.348 332.837 50.3713 332.944 50.418C333.052 50.4647 333.145 50.5277 333.224 50.607C333.304 50.6863 333.364 50.7797 333.406 50.887C333.453 50.9943 333.476 51.1087 333.476 51.23C333.476 51.356 333.453 51.4727 333.406 51.58C333.364 51.6827 333.304 51.7737 333.224 51.853C333.145 51.9323 333.052 51.993 332.944 52.035C332.837 52.0817 332.723 52.105 332.601 52.105C332.48 52.105 332.366 52.0817 332.258 52.035C332.151 51.993 332.058 51.9323 331.978 51.853C331.904 51.7737 331.843 51.6827 331.796 51.58C331.754 51.4727 331.733 51.356 331.733 51.23ZM334.7 51.23C334.7 51.1087 334.721 50.9943 334.763 50.887C334.81 50.7797 334.87 50.6863 334.945 50.607C335.024 50.5277 335.118 50.4647 335.225 50.418C335.332 50.3713 335.447 50.348 335.568 50.348C335.689 50.348 335.804 50.3713 335.911 50.418C336.018 50.4647 336.112 50.5277 336.191 50.607C336.27 50.6863 336.331 50.7797 336.373 50.887C336.42 50.9943 336.443 51.1087 336.443 51.23C336.443 51.356 336.42 51.4727 336.373 51.58C336.331 51.6827 336.27 51.7737 336.191 51.853C336.112 51.9323 336.018 51.993 335.911 52.035C335.804 52.0817 335.689 52.105 335.568 52.105C335.447 52.105 335.332 52.0817 335.225 52.035C335.118 51.993 335.024 51.9323 334.945 51.853C334.87 51.7737 334.81 51.6827 334.763 51.58C334.721 51.4727 334.7 51.356 334.7 51.23Z" fill="#828282"/>
<path d="M71.968 27.045V31H70.085V20.878H73.172C73.8627 20.878 74.453 20.9503 74.943 21.095C75.4377 21.235 75.8413 21.4333 76.154 21.69C76.4713 21.9467 76.7023 22.2547 76.847 22.614C76.9963 22.9687 77.071 23.3607 77.071 23.79C77.071 24.1307 77.0197 24.4527 76.917 24.756C76.819 25.0593 76.6743 25.3347 76.483 25.582C76.2963 25.8293 76.063 26.0463 75.783 26.233C75.5077 26.4197 75.1927 26.569 74.838 26.681C75.076 26.8163 75.2813 27.01 75.454 27.262L77.988 31H76.294C76.1307 31 75.9907 30.9673 75.874 30.902C75.762 30.8367 75.6663 30.7433 75.587 30.622L73.459 27.381C73.3797 27.2597 73.291 27.1733 73.193 27.122C73.0997 27.0707 72.9597 27.045 72.773 27.045H71.968ZM71.968 25.694H73.144C73.4987 25.694 73.8067 25.6497 74.068 25.561C74.334 25.4723 74.551 25.351 74.719 25.197C74.8917 25.0383 75.02 24.8517 75.104 24.637C75.188 24.4223 75.23 24.1867 75.23 23.93C75.23 23.4167 75.0597 23.0223 74.719 22.747C74.383 22.4717 73.8673 22.334 73.172 22.334H71.968V25.694ZM84.7258 31H83.9488C83.7855 31 83.6572 30.9767 83.5638 30.93C83.4705 30.8787 83.4005 30.7783 83.3538 30.629L83.1998 30.118C83.0178 30.2813 82.8382 30.426 82.6608 30.552C82.4882 30.6733 82.3085 30.776 82.1218 30.86C81.9352 30.944 81.7368 31.007 81.5268 31.049C81.3168 31.091 81.0835 31.112 80.8268 31.112C80.5235 31.112 80.2435 31.0723 79.9868 30.993C79.7302 30.909 79.5085 30.7853 79.3218 30.622C79.1398 30.4587 78.9975 30.2557 78.8948 30.013C78.7922 29.7703 78.7408 29.488 78.7408 29.166C78.7408 28.8953 78.8108 28.6293 78.9508 28.368C79.0955 28.102 79.3335 27.864 79.6648 27.654C79.9962 27.4393 80.4372 27.262 80.9878 27.122C81.5385 26.982 82.2222 26.9027 83.0388 26.884V26.464C83.0388 25.9833 82.9362 25.6287 82.7308 25.4C82.5302 25.1667 82.2362 25.05 81.8488 25.05C81.5688 25.05 81.3355 25.0827 81.1488 25.148C80.9622 25.2133 80.7988 25.288 80.6588 25.372C80.5235 25.4513 80.3975 25.5237 80.2808 25.589C80.1642 25.6543 80.0358 25.687 79.8958 25.687C79.7792 25.687 79.6788 25.6567 79.5948 25.596C79.5108 25.5353 79.4432 25.4607 79.3918 25.372L79.0768 24.819C79.9028 24.063 80.8992 23.685 82.0658 23.685C82.4858 23.685 82.8592 23.755 83.1858 23.895C83.5172 24.0303 83.7972 24.2217 84.0258 24.469C84.2545 24.7117 84.4272 25.0033 84.5438 25.344C84.6652 25.6847 84.7258 26.058 84.7258 26.464V31ZM81.3658 29.922C81.5432 29.922 81.7065 29.9057 81.8558 29.873C82.0052 29.8403 82.1452 29.7913 82.2758 29.726C82.4112 29.6607 82.5395 29.5813 82.6608 29.488C82.7868 29.39 82.9128 29.2757 83.0388 29.145V27.934C82.5348 27.9573 82.1125 28.0017 81.7718 28.067C81.4358 28.1277 81.1652 28.207 80.9598 28.305C80.7545 28.403 80.6075 28.5173 80.5188 28.648C80.4348 28.7787 80.3928 28.921 80.3928 29.075C80.3928 29.3783 80.4815 29.5953 80.6588 29.726C80.8408 29.8567 81.0765 29.922 81.3658 29.922ZM88.7279 32.974C88.6765 33.0953 88.6089 33.1863 88.5249 33.247C88.4455 33.3123 88.3219 33.345 88.1539 33.345H86.8659L88.2099 30.468L85.3049 23.818H86.8169C86.9569 23.818 87.0642 23.8507 87.1389 23.916C87.2135 23.9813 87.2695 24.056 87.3069 24.14L88.8399 27.864C88.8912 27.9853 88.9355 28.1113 88.9729 28.242C89.0102 28.3727 89.0429 28.5033 89.0709 28.634C89.1082 28.4987 89.1479 28.368 89.1899 28.242C89.2365 28.116 89.2855 27.9877 89.3369 27.857L90.7789 24.14C90.8162 24.0467 90.8769 23.9697 90.9609 23.909C91.0495 23.8483 91.1475 23.818 91.2549 23.818H92.6409L88.7279 32.974ZM93.6447 31V23.818H94.7017C94.9257 23.818 95.0727 23.923 95.1427 24.133L95.2617 24.7C95.4064 24.5507 95.558 24.4153 95.7167 24.294C95.88 24.1727 96.0504 24.0677 96.2277 23.979C96.4097 23.8903 96.6034 23.8227 96.8087 23.776C97.014 23.7293 97.238 23.706 97.4807 23.706C97.8727 23.706 98.2204 23.7737 98.5237 23.909C98.827 24.0397 99.079 24.2263 99.2797 24.469C99.485 24.707 99.639 24.994 99.7417 25.33C99.849 25.6613 99.9027 26.0277 99.9027 26.429V31H98.1737V26.429C98.1737 25.9903 98.071 25.652 97.8657 25.414C97.665 25.1713 97.3617 25.05 96.9557 25.05C96.657 25.05 96.377 25.1177 96.1157 25.253C95.8544 25.3883 95.607 25.5727 95.3737 25.806V31H93.6447ZM107.23 31H106.453C106.289 31 106.161 30.9767 106.068 30.93C105.974 30.8787 105.904 30.7783 105.858 30.629L105.704 30.118C105.522 30.2813 105.342 30.426 105.165 30.552C104.992 30.6733 104.812 30.776 104.626 30.86C104.439 30.944 104.241 31.007 104.031 31.049C103.821 31.091 103.587 31.112 103.331 31.112C103.027 31.112 102.747 31.0723 102.491 30.993C102.234 30.909 102.012 30.7853 101.826 30.622C101.644 30.4587 101.501 30.2557 101.399 30.013C101.296 29.7703 101.245 29.488 101.245 29.166C101.245 28.8953 101.315 28.6293 101.455 28.368C101.599 28.102 101.837 27.864 102.169 27.654C102.5 27.4393 102.941 27.262 103.492 27.122C104.042 26.982 104.726 26.9027 105.543 26.884V26.464C105.543 25.9833 105.44 25.6287 105.235 25.4C105.034 25.1667 104.74 25.05 104.353 25.05C104.073 25.05 103.839 25.0827 103.653 25.148C103.466 25.2133 103.303 25.288 103.163 25.372C103.027 25.4513 102.901 25.5237 102.785 25.589C102.668 25.6543 102.54 25.687 102.4 25.687C102.283 25.687 102.183 25.6567 102.099 25.596C102.015 25.5353 101.947 25.4607 101.896 25.372L101.581 24.819C102.407 24.063 103.403 23.685 104.57 23.685C104.99 23.685 105.363 23.755 105.69 23.895C106.021 24.0303 106.301 24.2217 106.53 24.469C106.758 24.7117 106.931 25.0033 107.048 25.344C107.169 25.6847 107.23 26.058 107.23 26.464V31ZM103.87 29.922C104.047 29.922 104.21 29.9057 104.36 29.873C104.509 29.8403 104.649 29.7913 104.78 29.726C104.915 29.6607 105.043 29.5813 105.165 29.488C105.291 29.39 105.417 29.2757 105.543 29.145V27.934C105.039 27.9573 104.616 28.0017 104.276 28.067C103.94 28.1277 103.669 28.207 103.464 28.305C103.258 28.403 103.111 28.5173 103.023 28.648C102.939 28.7787 102.897 28.921 102.897 29.075C102.897 29.3783 102.985 29.5953 103.163 29.726C103.345 29.8567 103.58 29.922 103.87 29.922ZM117.16 22.719C117.109 22.8217 117.048 22.894 116.978 22.936C116.913 22.978 116.833 22.999 116.74 22.999C116.647 22.999 116.542 22.964 116.425 22.894C116.308 22.8193 116.171 22.7377 116.012 22.649C115.853 22.5603 115.667 22.481 115.452 22.411C115.242 22.3363 114.992 22.299 114.703 22.299C114.442 22.299 114.213 22.3317 114.017 22.397C113.826 22.4577 113.662 22.544 113.527 22.656C113.396 22.768 113.298 22.9033 113.233 23.062C113.168 23.216 113.135 23.3863 113.135 23.573C113.135 23.811 113.2 24.0093 113.331 24.168C113.466 24.3267 113.644 24.462 113.863 24.574C114.082 24.686 114.332 24.7863 114.612 24.875C114.892 24.9637 115.177 25.0593 115.466 25.162C115.76 25.26 116.047 25.3767 116.327 25.512C116.607 25.6427 116.857 25.8107 117.076 26.016C117.295 26.2167 117.47 26.464 117.601 26.758C117.736 27.052 117.804 27.409 117.804 27.829C117.804 28.2863 117.725 28.7157 117.566 29.117C117.412 29.5137 117.183 29.8613 116.88 30.16C116.581 30.454 116.215 30.6873 115.781 30.86C115.347 31.028 114.85 31.112 114.29 31.112C113.968 31.112 113.651 31.0793 113.338 31.014C113.025 30.9533 112.724 30.8647 112.435 30.748C112.15 30.6313 111.882 30.4913 111.63 30.328C111.383 30.1647 111.161 29.9827 110.965 29.782L111.511 28.879C111.562 28.8137 111.623 28.76 111.693 28.718C111.768 28.6713 111.849 28.648 111.938 28.648C112.055 28.648 112.181 28.697 112.316 28.795C112.451 28.8883 112.61 28.9933 112.792 29.11C112.979 29.2267 113.196 29.334 113.443 29.432C113.695 29.5253 113.996 29.572 114.346 29.572C114.883 29.572 115.298 29.446 115.592 29.194C115.886 28.9373 116.033 28.571 116.033 28.095C116.033 27.829 115.965 27.612 115.83 27.444C115.699 27.276 115.524 27.136 115.305 27.024C115.086 26.9073 114.836 26.8093 114.556 26.73C114.276 26.6507 113.991 26.5643 113.702 26.471C113.413 26.3777 113.128 26.2657 112.848 26.135C112.568 26.0043 112.318 25.834 112.099 25.624C111.88 25.414 111.702 25.1527 111.567 24.84C111.436 24.5227 111.371 24.133 111.371 23.671C111.371 23.3023 111.443 22.943 111.588 22.593C111.737 22.243 111.952 21.9327 112.232 21.662C112.517 21.3913 112.864 21.1743 113.275 21.011C113.686 20.8477 114.155 20.766 114.682 20.766C115.279 20.766 115.83 20.8593 116.334 21.046C116.838 21.2327 117.267 21.494 117.622 21.83L117.16 22.719ZM120.984 23.818V31H119.255V23.818H120.984ZM121.243 21.725C121.243 21.8743 121.212 22.0143 121.152 22.145C121.091 22.2757 121.009 22.39 120.907 22.488C120.809 22.586 120.692 22.6653 120.557 22.726C120.421 22.782 120.277 22.81 120.123 22.81C119.973 22.81 119.831 22.782 119.696 22.726C119.565 22.6653 119.451 22.586 119.353 22.488C119.255 22.39 119.175 22.2757 119.115 22.145C119.059 22.0143 119.031 21.8743 119.031 21.725C119.031 21.571 119.059 21.4263 119.115 21.291C119.175 21.1557 119.255 21.039 119.353 20.941C119.451 20.843 119.565 20.766 119.696 20.71C119.831 20.6493 119.973 20.619 120.123 20.619C120.277 20.619 120.421 20.6493 120.557 20.71C120.692 20.766 120.809 20.843 120.907 20.941C121.009 21.039 121.091 21.1557 121.152 21.291C121.212 21.4263 121.243 21.571 121.243 21.725ZM122.944 33.345V23.818H124.001C124.113 23.818 124.208 23.8437 124.288 23.895C124.367 23.9463 124.418 24.0257 124.442 24.133L124.582 24.798C124.871 24.4667 125.202 24.1983 125.576 23.993C125.954 23.7877 126.395 23.685 126.899 23.685C127.291 23.685 127.648 23.7667 127.97 23.93C128.296 24.0933 128.576 24.3313 128.81 24.644C129.048 24.952 129.23 25.3347 129.356 25.792C129.486 26.2447 129.552 26.765 129.552 27.353C129.552 27.8897 129.479 28.3867 129.335 28.844C129.19 29.3013 128.982 29.698 128.712 30.034C128.446 30.37 128.121 30.6337 127.739 30.825C127.361 31.0117 126.936 31.105 126.465 31.105C126.059 31.105 125.713 31.0443 125.429 30.923C125.149 30.797 124.897 30.6243 124.673 30.405V33.345H122.944ZM126.304 25.05C125.944 25.05 125.636 25.127 125.38 25.281C125.128 25.4303 124.892 25.6427 124.673 25.918V29.138C124.869 29.3807 125.081 29.551 125.31 29.649C125.543 29.7423 125.793 29.789 126.059 29.789C126.32 29.789 126.556 29.74 126.766 29.642C126.98 29.544 127.16 29.3947 127.305 29.194C127.454 28.9933 127.568 28.7413 127.648 28.438C127.727 28.13 127.767 27.7683 127.767 27.353C127.767 26.933 127.732 26.5783 127.662 26.289C127.596 25.995 127.501 25.757 127.375 25.575C127.249 25.393 127.095 25.26 126.913 25.176C126.735 25.092 126.532 25.05 126.304 25.05ZM130.86 31V20.598H132.589V24.595C132.869 24.329 133.177 24.1143 133.513 23.951C133.849 23.7877 134.243 23.706 134.696 23.706C135.088 23.706 135.435 23.7737 135.739 23.909C136.042 24.0397 136.294 24.2263 136.495 24.469C136.7 24.707 136.854 24.994 136.957 25.33C137.064 25.6613 137.118 26.0277 137.118 26.429V31H135.389V26.429C135.389 25.9903 135.286 25.652 135.081 25.414C134.88 25.1713 134.577 25.05 134.171 25.05C133.872 25.05 133.592 25.1177 133.331 25.253C133.069 25.3883 132.822 25.5727 132.589 25.806V31H130.86ZM138.817 31V23.818H139.832C140.009 23.818 140.133 23.8507 140.203 23.916C140.273 23.9813 140.319 24.0933 140.343 24.252L140.448 25.12C140.704 24.6767 141.005 24.3267 141.351 24.07C141.696 23.8133 142.083 23.685 142.513 23.685C142.867 23.685 143.161 23.7667 143.395 23.93L143.171 25.225C143.157 25.309 143.126 25.3697 143.08 25.407C143.033 25.4397 142.97 25.456 142.891 25.456C142.821 25.456 142.725 25.4397 142.604 25.407C142.482 25.3743 142.321 25.358 142.121 25.358C141.761 25.358 141.453 25.4583 141.197 25.659C140.94 25.855 140.723 26.1443 140.546 26.527V31H138.817ZM147.597 23.706C148.134 23.706 148.619 23.7923 149.053 23.965C149.492 24.1377 149.865 24.3827 150.173 24.7C150.481 25.0173 150.719 25.4047 150.887 25.862C151.055 26.3193 151.139 26.8303 151.139 27.395C151.139 27.9643 151.055 28.4777 150.887 28.935C150.719 29.3923 150.481 29.782 150.173 30.104C149.865 30.426 149.492 30.6733 149.053 30.846C148.619 31.0187 148.134 31.105 147.597 31.105C147.061 31.105 146.573 31.0187 146.134 30.846C145.696 30.6733 145.32 30.426 145.007 30.104C144.699 29.782 144.459 29.3923 144.286 28.935C144.118 28.4777 144.034 27.9643 144.034 27.395C144.034 26.8303 144.118 26.3193 144.286 25.862C144.459 25.4047 144.699 25.0173 145.007 24.7C145.32 24.3827 145.696 24.1377 146.134 23.965C146.573 23.7923 147.061 23.706 147.597 23.706ZM147.597 29.775C148.195 29.775 148.636 29.5743 148.92 29.173C149.21 28.7717 149.354 28.1837 149.354 27.409C149.354 26.6343 149.21 26.044 148.92 25.638C148.636 25.232 148.195 25.029 147.597 25.029C146.991 25.029 146.543 25.2343 146.253 25.645C145.964 26.051 145.819 26.639 145.819 27.409C145.819 28.179 145.964 28.767 146.253 29.173C146.543 29.5743 146.991 29.775 147.597 29.775ZM152.488 31V23.818H153.545C153.769 23.818 153.916 23.923 153.986 24.133L154.105 24.7C154.25 24.5507 154.402 24.4153 154.56 24.294C154.724 24.1727 154.894 24.0677 155.071 23.979C155.253 23.8903 155.447 23.8227 155.652 23.776C155.858 23.7293 156.082 23.706 156.324 23.706C156.716 23.706 157.064 23.7737 157.367 23.909C157.671 24.0397 157.923 24.2263 158.123 24.469C158.329 24.707 158.483 24.994 158.585 25.33C158.693 25.6613 158.746 26.0277 158.746 26.429V31H157.017V26.429C157.017 25.9903 156.915 25.652 156.709 25.414C156.509 25.1713 156.205 25.05 155.799 25.05C155.501 25.05 155.221 25.1177 154.959 25.253C154.698 25.3883 154.451 25.5727 154.217 25.806V31H152.488Z" fill="#1A1C1D"/>
<path d="M174.6 26.204C174.6 26.956 174.518 27.608 174.354 28.16C174.194 28.708 173.974 29.162 173.694 29.522C173.414 29.882 173.082 30.15 172.698 30.326C172.318 30.502 171.91 30.59 171.474 30.59C171.034 30.59 170.624 30.502 170.244 30.326C169.868 30.15 169.54 29.882 169.26 29.522C168.98 29.162 168.76 28.708 168.6 28.16C168.44 27.608 168.36 26.956 168.36 26.204C168.36 25.452 168.44 24.8 168.6 24.248C168.76 23.696 168.98 23.24 169.26 22.88C169.54 22.516 169.868 22.246 170.244 22.07C170.624 21.894 171.034 21.806 171.474 21.806C171.91 21.806 172.318 21.894 172.698 22.07C173.082 22.246 173.414 22.516 173.694 22.88C173.974 23.24 174.194 23.696 174.354 24.248C174.518 24.8 174.6 25.452 174.6 26.204ZM173.49 26.204C173.49 25.548 173.434 24.998 173.322 24.554C173.214 24.106 173.066 23.746 172.878 23.474C172.694 23.202 172.48 23.008 172.236 22.892C171.992 22.772 171.738 22.712 171.474 22.712C171.21 22.712 170.956 22.772 170.712 22.892C170.468 23.008 170.254 23.202 170.07 23.474C169.886 23.746 169.738 24.106 169.626 24.554C169.518 24.998 169.464 25.548 169.464 26.204C169.464 26.86 169.518 27.41 169.626 27.854C169.738 28.298 169.886 28.656 170.07 28.928C170.254 29.2 170.468 29.396 170.712 29.516C170.956 29.632 171.21 29.69 171.474 29.69C171.738 29.69 171.992 29.632 172.236 29.516C172.48 29.396 172.694 29.2 172.878 28.928C173.066 28.656 173.214 28.298 173.322 27.854C173.434 27.41 173.49 26.86 173.49 26.204ZM181.465 21.902V22.382C181.465 22.518 181.449 22.63 181.417 22.718C181.389 22.806 181.359 22.88 181.327 22.94L177.769 30.122C177.717 30.226 177.645 30.316 177.553 30.392C177.461 30.464 177.337 30.5 177.181 30.5H176.419L180.031 23.408C180.083 23.308 180.135 23.216 180.187 23.132C180.243 23.048 180.305 22.968 180.373 22.892H175.885C175.817 22.892 175.755 22.866 175.699 22.814C175.647 22.758 175.621 22.696 175.621 22.628V21.902H181.465ZM182.69 29.84C182.69 29.736 182.708 29.638 182.744 29.546C182.784 29.454 182.836 29.374 182.9 29.306C182.968 29.238 183.048 29.184 183.14 29.144C183.232 29.104 183.33 29.084 183.434 29.084C183.538 29.084 183.636 29.104 183.728 29.144C183.82 29.184 183.9 29.238 183.968 29.306C184.036 29.374 184.088 29.454 184.124 29.546C184.164 29.638 184.184 29.736 184.184 29.84C184.184 29.948 184.164 30.048 184.124 30.14C184.088 30.228 184.036 30.306 183.968 30.374C183.9 30.442 183.82 30.494 183.728 30.53C183.636 30.57 183.538 30.59 183.434 30.59C183.33 30.59 183.232 30.57 183.14 30.53C183.048 30.494 182.968 30.442 182.9 30.374C182.836 30.306 182.784 30.228 182.744 30.14C182.708 30.048 182.69 29.948 182.69 29.84ZM182.69 25.34C182.69 25.236 182.708 25.138 182.744 25.046C182.784 24.954 182.836 24.874 182.9 24.806C182.968 24.738 183.048 24.684 183.14 24.644C183.232 24.604 183.33 24.584 183.434 24.584C183.538 24.584 183.636 24.604 183.728 24.644C183.82 24.684 183.9 24.738 183.968 24.806C184.036 24.874 184.088 24.954 184.124 25.046C184.164 25.138 184.184 25.236 184.184 25.34C184.184 25.448 184.164 25.548 184.124 25.64C184.088 25.728 184.036 25.806 183.968 25.874C183.9 25.942 183.82 25.996 183.728 26.036C183.636 26.072 183.538 26.09 183.434 26.09C183.33 26.09 183.232 26.072 183.14 26.036C183.048 25.996 182.968 25.942 182.9 25.874C182.836 25.806 182.784 25.728 182.744 25.64C182.708 25.548 182.69 25.448 182.69 25.34ZM190.363 27.398H191.665V28.01C191.665 28.074 191.645 28.128 191.605 28.172C191.569 28.216 191.511 28.238 191.431 28.238H190.363V30.5H189.421V28.238H185.611C185.531 28.238 185.461 28.216 185.401 28.172C185.345 28.124 185.309 28.066 185.293 27.998L185.185 27.452L189.367 21.902H190.363V27.398ZM189.421 23.852C189.421 23.748 189.423 23.636 189.427 23.516C189.435 23.396 189.449 23.272 189.469 23.144L186.343 27.398H189.421V23.852ZM195.38 30.596C194.952 30.596 194.56 30.54 194.204 30.428C193.848 30.312 193.542 30.148 193.286 29.936C193.03 29.724 192.832 29.468 192.692 29.168C192.552 28.864 192.482 28.524 192.482 28.148C192.482 27.596 192.626 27.142 192.914 26.786C193.202 26.426 193.614 26.17 194.15 26.018C193.698 25.85 193.356 25.6 193.124 25.268C192.896 24.932 192.782 24.532 192.782 24.068C192.782 23.752 192.844 23.456 192.968 23.18C193.092 22.904 193.268 22.664 193.496 22.46C193.724 22.256 193.996 22.096 194.312 21.98C194.632 21.864 194.988 21.806 195.38 21.806C195.768 21.806 196.122 21.864 196.442 21.98C196.762 22.096 197.036 22.256 197.264 22.46C197.492 22.664 197.668 22.904 197.792 23.18C197.916 23.456 197.978 23.752 197.978 24.068C197.978 24.532 197.862 24.932 197.63 25.268C197.398 25.6 197.058 25.85 196.61 26.018C197.146 26.17 197.558 26.426 197.846 26.786C198.134 27.142 198.278 27.596 198.278 28.148C198.278 28.524 198.206 28.864 198.062 29.168C197.922 29.468 197.724 29.724 197.468 29.936C197.216 30.148 196.912 30.312 196.556 30.428C196.2 30.54 195.808 30.596 195.38 30.596ZM195.38 29.744C195.66 29.744 195.91 29.706 196.13 29.63C196.354 29.55 196.542 29.44 196.694 29.3C196.85 29.156 196.968 28.986 197.048 28.79C197.132 28.59 197.174 28.37 197.174 28.13C197.174 27.834 197.124 27.582 197.024 27.374C196.928 27.162 196.796 26.99 196.628 26.858C196.464 26.726 196.274 26.63 196.058 26.57C195.842 26.506 195.616 26.474 195.38 26.474C195.144 26.474 194.918 26.506 194.702 26.57C194.486 26.63 194.294 26.726 194.126 26.858C193.962 26.99 193.83 27.162 193.73 27.374C193.634 27.582 193.586 27.834 193.586 28.13C193.586 28.37 193.626 28.59 193.706 28.79C193.79 28.986 193.908 29.156 194.06 29.3C194.216 29.44 194.404 29.55 194.624 29.63C194.848 29.706 195.1 29.744 195.38 29.744ZM195.38 25.616C195.66 25.616 195.898 25.574 196.094 25.49C196.294 25.402 196.456 25.288 196.58 25.148C196.704 25.004 196.794 24.84 196.85 24.656C196.906 24.472 196.934 24.282 196.934 24.086C196.934 23.886 196.9 23.698 196.832 23.522C196.768 23.346 196.67 23.192 196.538 23.06C196.41 22.928 196.248 22.824 196.052 22.748C195.86 22.672 195.636 22.634 195.38 22.634C195.124 22.634 194.898 22.672 194.702 22.748C194.51 22.824 194.348 22.928 194.216 23.06C194.088 23.192 193.99 23.346 193.922 23.522C193.858 23.698 193.826 23.886 193.826 24.086C193.826 24.282 193.854 24.472 193.91 24.656C193.966 24.84 194.056 25.004 194.18 25.148C194.304 25.288 194.464 25.402 194.66 25.49C194.86 25.574 195.1 25.616 195.38 25.616Z" fill="#828282"/>
<rect x="17" y="18" width="36" height="36" rx="8" fill="#B92C93" fill-opacity="0.5"/>
<path d="M29.0078 37.688V42H26.3038V30.344H30.0958C30.9384 30.344 31.6558 30.432 32.2478 30.608C32.8451 30.7787 33.3304 31.0187 33.7038 31.328C34.0824 31.6373 34.3571 32.0027 34.5278 32.424C34.6984 32.8453 34.7838 33.304 34.7838 33.8C34.7838 34.1787 34.7331 34.536 34.6318 34.872C34.5304 35.208 34.3784 35.52 34.1758 35.808C33.9784 36.0907 33.7331 36.344 33.4398 36.568C33.1518 36.792 32.8184 36.976 32.4398 37.12C32.6211 37.2107 32.7891 37.3227 32.9438 37.456C33.1038 37.5893 33.2424 37.752 33.3598 37.944L35.8398 42H33.3918C32.9384 42 32.6131 41.8293 32.4158 41.488L30.4798 38.104C30.3944 37.9547 30.2931 37.848 30.1758 37.784C30.0638 37.72 29.9038 37.688 29.6958 37.688H29.0078ZM29.0078 35.824H30.0958C30.4638 35.824 30.7758 35.7787 31.0318 35.688C31.2931 35.592 31.5064 35.4613 31.6718 35.296C31.8371 35.1307 31.9571 34.9387 32.0318 34.72C32.1064 34.496 32.1438 34.256 32.1438 34C32.1438 33.488 31.9758 33.088 31.6398 32.8C31.3091 32.512 30.7944 32.368 30.0958 32.368H29.0078V35.824ZM43.4404 32.712C43.3604 32.84 43.275 32.936 43.1844 33C43.099 33.064 42.987 33.096 42.8484 33.096C42.7257 33.096 42.5924 33.0587 42.4484 32.984C42.3097 32.904 42.1497 32.816 41.9684 32.72C41.7924 32.624 41.5897 32.5387 41.3604 32.464C41.131 32.384 40.8697 32.344 40.5764 32.344C40.0697 32.344 39.691 32.4533 39.4404 32.672C39.195 32.8853 39.0724 33.176 39.0724 33.544C39.0724 33.7787 39.147 33.9733 39.2964 34.128C39.4457 34.2827 39.6404 34.416 39.8804 34.528C40.1257 34.64 40.403 34.744 40.7124 34.84C41.027 34.9307 41.347 35.0347 41.6724 35.152C41.9977 35.264 42.315 35.3973 42.6244 35.552C42.939 35.7067 43.2164 35.904 43.4564 36.144C43.7017 36.384 43.899 36.6773 44.0484 37.024C44.1977 37.3653 44.2724 37.7787 44.2724 38.264C44.2724 38.8027 44.179 39.3067 43.9924 39.776C43.8057 40.2453 43.5337 40.656 43.1764 41.008C42.8244 41.3547 42.387 41.6293 41.8644 41.832C41.347 42.0293 40.7577 42.128 40.0964 42.128C39.7337 42.128 39.363 42.0907 38.9844 42.016C38.611 41.9413 38.2484 41.8373 37.8964 41.704C37.5444 41.5653 37.2137 41.4027 36.9044 41.216C36.595 41.0293 36.3257 40.8213 36.0964 40.592L36.8964 39.328C36.955 39.232 37.0377 39.1547 37.1444 39.096C37.251 39.0373 37.3657 39.008 37.4884 39.008C37.6484 39.008 37.8084 39.0587 37.9684 39.16C38.1337 39.2613 38.3177 39.3733 38.5204 39.496C38.7284 39.6187 38.9657 39.7307 39.2324 39.832C39.499 39.9333 39.8137 39.984 40.1764 39.984C40.667 39.984 41.0484 39.8773 41.3204 39.664C41.5924 39.4453 41.7284 39.1013 41.7284 38.632C41.7284 38.36 41.6537 38.1387 41.5044 37.968C41.355 37.7973 41.1577 37.656 40.9124 37.544C40.6724 37.432 40.3977 37.3333 40.0884 37.248C39.779 37.1627 39.4617 37.0693 39.1364 36.968C38.811 36.8613 38.4937 36.7333 38.1844 36.584C37.875 36.4293 37.5977 36.2293 37.3524 35.984C37.1124 35.7333 36.9177 35.424 36.7684 35.056C36.619 34.6827 36.5444 34.224 36.5444 33.68C36.5444 33.2427 36.6324 32.816 36.8084 32.4C36.9844 31.984 37.243 31.6133 37.5844 31.288C37.9257 30.9627 38.3444 30.704 38.8404 30.512C39.3364 30.3147 39.9044 30.216 40.5444 30.216C40.9017 30.216 41.2484 30.2453 41.5844 30.304C41.9257 30.3573 42.2484 30.44 42.5524 30.552C42.8564 30.6587 43.139 30.7893 43.4004 30.944C43.667 31.0933 43.9044 31.264 44.1124 31.456L43.4404 32.712Z" fill="white"/>
<path d="M1 1V0H0V1H1ZM376 1H377V0H376V1ZM376 71V72H377V71H376ZM1 71H0V72H1V71ZM1 2H376V0H1V2ZM375 1V71H377V1H375ZM376 70H1V72H376V70ZM2 71V1H0V71H2Z" fill="#F3F4F9"/>
</svg>
