<svg width="377" height="72" viewBox="0 0 377 72" fill="none" xmlns="http://www.w3.org/2000/svg">
<path d="M1 1H376V71H1V1Z" fill="white"/>
<path d="M71.828 52H70.47V41.969H71.828V52ZM76.098 44.909H77.078C77.1807 44.909 77.2647 44.9347 77.33 44.986C77.3953 45.0373 77.4397 45.098 77.463 45.168L78.821 49.732C78.8583 49.9 78.8933 50.0633 78.926 50.222C78.9587 50.376 78.9867 50.5323 79.01 50.691C79.0473 50.5323 79.0893 50.376 79.136 50.222C79.1827 50.0633 79.2317 49.9 79.283 49.732L80.781 45.14C80.8043 45.07 80.844 45.0117 80.9 44.965C80.9607 44.9183 81.0353 44.895 81.124 44.895H81.663C81.7563 44.895 81.8333 44.9183 81.894 44.965C81.9547 45.0117 81.9967 45.07 82.02 45.14L83.483 49.732C83.5343 49.8953 83.5787 50.0563 83.616 50.215C83.658 50.3737 83.6977 50.53 83.735 50.684C83.7583 50.53 83.7887 50.369 83.826 50.201C83.8633 50.033 83.903 49.8767 83.945 49.732L85.331 45.168C85.3543 45.0933 85.3987 45.0327 85.464 44.986C85.5293 44.9347 85.6063 44.909 85.695 44.909H86.633L84.337 52H83.35C83.2287 52 83.1447 51.9207 83.098 51.762L81.53 46.953C81.4927 46.8457 81.4623 46.7383 81.439 46.631C81.4157 46.519 81.3923 46.4093 81.369 46.302C81.3457 46.4093 81.3223 46.519 81.299 46.631C81.2757 46.743 81.2453 46.8527 81.208 46.96L79.619 51.762C79.5677 51.9207 79.472 52 79.332 52H78.394L76.098 44.909ZM92.9488 52H92.3958C92.2744 52 92.1764 51.9813 92.1018 51.944C92.0271 51.9067 91.9781 51.8273 91.9548 51.706L91.8148 51.048C91.6281 51.216 91.4461 51.3677 91.2688 51.503C91.0914 51.6337 90.9048 51.7457 90.7088 51.839C90.5128 51.9277 90.3028 51.9953 90.0788 52.042C89.8594 52.0887 89.6144 52.112 89.3438 52.112C89.0684 52.112 88.8094 52.0747 88.5667 52C88.3288 51.9207 88.1211 51.804 87.9438 51.65C87.7664 51.496 87.6241 51.3023 87.5168 51.069C87.4141 50.831 87.3628 50.551 87.3628 50.229C87.3628 49.949 87.4398 49.6807 87.5938 49.424C87.7478 49.1627 87.9951 48.9317 88.3358 48.731C88.6811 48.5303 89.1314 48.367 89.6868 48.241C90.2421 48.1103 90.9211 48.0357 91.7238 48.017V47.464C91.7238 46.9133 91.6048 46.498 91.3668 46.218C91.1334 45.9333 90.7858 45.791 90.3238 45.791C90.0204 45.791 89.7638 45.8307 89.5538 45.91C89.3484 45.9847 89.1688 46.071 89.0148 46.169C88.8654 46.2623 88.7348 46.3487 88.6228 46.428C88.5154 46.5027 88.4081 46.54 88.3008 46.54C88.2168 46.54 88.1421 46.519 88.0768 46.477C88.0161 46.4303 87.9671 46.3743 87.9298 46.309L87.7058 45.91C88.0978 45.532 88.5201 45.2497 88.9728 45.063C89.4254 44.8763 89.9271 44.783 90.4778 44.783C90.8744 44.783 91.2268 44.8483 91.5348 44.979C91.8428 45.1097 92.1018 45.2917 92.3118 45.525C92.5218 45.7583 92.6804 46.0407 92.7878 46.372C92.8951 46.7033 92.9488 47.0673 92.9488 47.464V52ZM89.7148 51.237C89.9341 51.237 90.1348 51.216 90.3167 51.174C90.4988 51.1273 90.6691 51.0643 90.8278 50.985C90.9911 50.901 91.1451 50.8007 91.2898 50.684C91.4391 50.5673 91.5838 50.4343 91.7238 50.285V48.808C91.1498 48.8267 90.6621 48.8733 90.2608 48.948C89.8594 49.018 89.5328 49.1113 89.2808 49.228C89.0288 49.3447 88.8444 49.4823 88.7278 49.641C88.6158 49.7997 88.5598 49.977 88.5598 50.173C88.5598 50.3597 88.5901 50.5207 88.6508 50.656C88.7114 50.7913 88.7931 50.9033 88.8958 50.992C88.9984 51.076 89.1198 51.139 89.2598 51.181C89.3998 51.2183 89.5514 51.237 89.7148 51.237ZM94.8365 52V44.909H95.5785C95.7558 44.909 95.8678 44.9953 95.9145 45.168L96.0125 45.938C96.3205 45.5973 96.6635 45.322 97.0415 45.112C97.4241 44.902 97.8651 44.797 98.3645 44.797C98.7518 44.797 99.0925 44.8623 99.3865 44.993C99.6851 45.119 99.9325 45.301 100.128 45.539C100.329 45.7723 100.481 46.0547 100.583 46.386C100.686 46.7173 100.737 47.0837 100.737 47.485V52H99.4915V47.485C99.4915 46.9483 99.3678 46.533 99.1205 46.239C98.8778 45.9403 98.5045 45.791 98.0005 45.791C97.6318 45.791 97.2865 45.8797 96.9645 46.057C96.6471 46.2343 96.3531 46.4747 96.0825 46.778V52H94.8365ZM104.765 52.112C104.205 52.112 103.773 51.9557 103.47 51.643C103.171 51.3303 103.022 50.88 103.022 50.292V45.952H102.168C102.093 45.952 102.03 45.931 101.979 45.889C101.927 45.8423 101.902 45.7723 101.902 45.679V45.182L103.064 45.035L103.351 42.844C103.36 42.774 103.39 42.718 103.442 42.676C103.493 42.6293 103.558 42.606 103.638 42.606H104.268V45.049H106.298V45.952H104.268V50.208C104.268 50.5067 104.34 50.7283 104.485 50.873C104.629 51.0177 104.816 51.09 105.045 51.09C105.175 51.09 105.287 51.0737 105.381 51.041C105.479 51.0037 105.563 50.964 105.633 50.922C105.703 50.88 105.761 50.8427 105.808 50.81C105.859 50.7727 105.903 50.754 105.941 50.754C106.006 50.754 106.064 50.7937 106.116 50.873L106.48 51.468C106.265 51.6687 106.006 51.8273 105.703 51.944C105.399 52.056 105.087 52.112 104.765 52.112ZM112.694 52.112C112.134 52.112 111.703 51.9557 111.399 51.643C111.101 51.3303 110.951 50.88 110.951 50.292V45.952H110.097C110.023 45.952 109.96 45.931 109.908 45.889C109.857 45.8423 109.831 45.7723 109.831 45.679V45.182L110.993 45.035L111.28 42.844C111.29 42.774 111.32 42.718 111.371 42.676C111.423 42.6293 111.488 42.606 111.567 42.606H112.197V45.049H114.227V45.952H112.197V50.208C112.197 50.5067 112.27 50.7283 112.414 50.873C112.559 51.0177 112.746 51.09 112.974 51.09C113.105 51.09 113.217 51.0737 113.31 51.041C113.408 51.0037 113.492 50.964 113.562 50.922C113.632 50.88 113.691 50.8427 113.737 50.81C113.789 50.7727 113.833 50.754 113.87 50.754C113.936 50.754 113.994 50.7937 114.045 50.873L114.409 51.468C114.195 51.6687 113.936 51.8273 113.632 51.944C113.329 52.056 113.016 52.112 112.694 52.112ZM118.638 44.797C119.156 44.797 119.623 44.8833 120.038 45.056C120.458 45.2287 120.813 45.4737 121.102 45.791C121.396 46.1083 121.62 46.4933 121.774 46.946C121.933 47.394 122.012 47.8957 122.012 48.451C122.012 49.011 121.933 49.515 121.774 49.963C121.62 50.411 121.396 50.7937 121.102 51.111C120.813 51.4283 120.458 51.6733 120.038 51.846C119.623 52.014 119.156 52.098 118.638 52.098C118.12 52.098 117.651 52.014 117.231 51.846C116.816 51.6733 116.461 51.4283 116.167 51.111C115.873 50.7937 115.647 50.411 115.488 49.963C115.329 49.515 115.25 49.011 115.25 48.451C115.25 47.8957 115.329 47.394 115.488 46.946C115.647 46.4933 115.873 46.1083 116.167 45.791C116.461 45.4737 116.816 45.2287 117.231 45.056C117.651 44.8833 118.12 44.797 118.638 44.797ZM118.638 51.125C119.338 51.125 119.861 50.8917 120.206 50.425C120.551 49.9537 120.724 49.298 120.724 48.458C120.724 47.6133 120.551 46.9553 120.206 46.484C119.861 46.0127 119.338 45.777 118.638 45.777C118.283 45.777 117.975 45.8377 117.714 45.959C117.453 46.0803 117.233 46.2553 117.056 46.484C116.883 46.7127 116.753 46.995 116.664 47.331C116.58 47.6623 116.538 48.038 116.538 48.458C116.538 48.878 116.58 49.2537 116.664 49.585C116.753 49.9163 116.883 50.1963 117.056 50.425C117.233 50.649 117.453 50.8217 117.714 50.943C117.975 51.0643 118.283 51.125 118.638 51.125ZM128.403 52.112C127.843 52.112 127.412 51.9557 127.108 51.643C126.81 51.3303 126.66 50.88 126.66 50.292V45.952H125.806C125.732 45.952 125.669 45.931 125.617 45.889C125.566 45.8423 125.54 45.7723 125.54 45.679V45.182L126.702 45.035L126.989 42.844C126.999 42.774 127.029 42.718 127.08 42.676C127.132 42.6293 127.197 42.606 127.276 42.606H127.906V45.049H129.936V45.952H127.906V50.208C127.906 50.5067 127.979 50.7283 128.123 50.873C128.268 51.0177 128.455 51.09 128.683 51.09C128.814 51.09 128.926 51.0737 129.019 51.041C129.117 51.0037 129.201 50.964 129.271 50.922C129.341 50.88 129.4 50.8427 129.446 50.81C129.498 50.7727 129.542 50.754 129.579 50.754C129.645 50.754 129.703 50.7937 129.754 50.873L130.118 51.468C129.904 51.6687 129.645 51.8273 129.341 51.944C129.038 52.056 128.725 52.112 128.403 52.112ZM136.685 52H136.132C136.011 52 135.913 51.9813 135.838 51.944C135.763 51.9067 135.714 51.8273 135.691 51.706L135.551 51.048C135.364 51.216 135.182 51.3677 135.005 51.503C134.828 51.6337 134.641 51.7457 134.445 51.839C134.249 51.9277 134.039 51.9953 133.815 52.042C133.596 52.0887 133.351 52.112 133.08 52.112C132.805 52.112 132.546 52.0747 132.303 52C132.065 51.9207 131.857 51.804 131.68 51.65C131.503 51.496 131.36 51.3023 131.253 51.069C131.15 50.831 131.099 50.551 131.099 50.229C131.099 49.949 131.176 49.6807 131.33 49.424C131.484 49.1627 131.731 48.9317 132.072 48.731C132.417 48.5303 132.868 48.367 133.423 48.241C133.978 48.1103 134.657 48.0357 135.46 48.017V47.464C135.46 46.9133 135.341 46.498 135.103 46.218C134.87 45.9333 134.522 45.791 134.06 45.791C133.757 45.791 133.5 45.8307 133.29 45.91C133.085 45.9847 132.905 46.071 132.751 46.169C132.602 46.2623 132.471 46.3487 132.359 46.428C132.252 46.5027 132.144 46.54 132.037 46.54C131.953 46.54 131.878 46.519 131.813 46.477C131.752 46.4303 131.703 46.3743 131.666 46.309L131.442 45.91C131.834 45.532 132.256 45.2497 132.709 45.063C133.162 44.8763 133.663 44.783 134.214 44.783C134.611 44.783 134.963 44.8483 135.271 44.979C135.579 45.1097 135.838 45.2917 136.048 45.525C136.258 45.7583 136.417 46.0407 136.524 46.372C136.631 46.7033 136.685 47.0673 136.685 47.464V52ZM133.451 51.237C133.67 51.237 133.871 51.216 134.053 51.174C134.235 51.1273 134.405 51.0643 134.564 50.985C134.727 50.901 134.881 50.8007 135.026 50.684C135.175 50.5673 135.32 50.4343 135.46 50.285V48.808C134.886 48.8267 134.398 48.8733 133.997 48.948C133.596 49.018 133.269 49.1113 133.017 49.228C132.765 49.3447 132.581 49.4823 132.464 49.641C132.352 49.7997 132.296 49.977 132.296 50.173C132.296 50.3597 132.326 50.5207 132.387 50.656C132.448 50.7913 132.529 50.9033 132.632 50.992C132.735 51.076 132.856 51.139 132.996 51.181C133.136 51.2183 133.288 51.237 133.451 51.237ZM139.959 41.689V52H138.713V41.689H139.959ZM143.45 41.689V47.758H143.772C143.865 47.758 143.942 47.7463 144.003 47.723C144.063 47.695 144.131 47.6413 144.206 47.562L146.446 45.161C146.516 45.0863 146.586 45.0257 146.656 44.979C146.726 44.9323 146.819 44.909 146.936 44.909H148.07L145.459 47.688C145.393 47.7673 145.328 47.8373 145.263 47.898C145.202 47.9587 145.132 48.0123 145.053 48.059C145.137 48.115 145.211 48.1803 145.277 48.255C145.347 48.325 145.412 48.4067 145.473 48.5L148.245 52H147.125C147.022 52 146.933 51.9813 146.859 51.944C146.789 51.902 146.721 51.839 146.656 51.755L144.325 48.85C144.255 48.752 144.185 48.689 144.115 48.661C144.045 48.6283 143.94 48.612 143.8 48.612H143.45V52H142.197V41.689H143.45ZM157.412 52H156.859C156.737 52 156.639 51.9813 156.565 51.944C156.49 51.9067 156.441 51.8273 156.418 51.706L156.278 51.048C156.091 51.216 155.909 51.3677 155.732 51.503C155.554 51.6337 155.368 51.7457 155.172 51.839C154.976 51.9277 154.766 51.9953 154.542 52.042C154.322 52.0887 154.077 52.112 153.807 52.112C153.531 52.112 153.272 52.0747 153.03 52C152.792 51.9207 152.584 51.804 152.407 51.65C152.229 51.496 152.087 51.3023 151.98 51.069C151.877 50.831 151.826 50.551 151.826 50.229C151.826 49.949 151.903 49.6807 152.057 49.424C152.211 49.1627 152.458 48.9317 152.799 48.731C153.144 48.5303 153.594 48.367 154.15 48.241C154.705 48.1103 155.384 48.0357 156.187 48.017V47.464C156.187 46.9133 156.068 46.498 155.83 46.218C155.596 45.9333 155.249 45.791 154.787 45.791C154.483 45.791 154.227 45.8307 154.017 45.91C153.811 45.9847 153.632 46.071 153.478 46.169C153.328 46.2623 153.198 46.3487 153.086 46.428C152.978 46.5027 152.871 46.54 152.764 46.54C152.68 46.54 152.605 46.519 152.54 46.477C152.479 46.4303 152.43 46.3743 152.393 46.309L152.169 45.91C152.561 45.532 152.983 45.2497 153.436 45.063C153.888 44.8763 154.39 44.783 154.941 44.783C155.337 44.783 155.69 44.8483 155.998 44.979C156.306 45.1097 156.565 45.2917 156.775 45.525C156.985 45.7583 157.143 46.0407 157.251 46.372C157.358 46.7033 157.412 47.0673 157.412 47.464V52ZM154.178 51.237C154.397 51.237 154.598 51.216 154.78 51.174C154.962 51.1273 155.132 51.0643 155.291 50.985C155.454 50.901 155.608 50.8007 155.753 50.684C155.902 50.5673 156.047 50.4343 156.187 50.285V48.808C155.613 48.8267 155.125 48.8733 154.724 48.948C154.322 49.018 153.996 49.1113 153.744 49.228C153.492 49.3447 153.307 49.4823 153.191 49.641C153.079 49.7997 153.023 49.977 153.023 50.173C153.023 50.3597 153.053 50.5207 153.114 50.656C153.174 50.7913 153.256 50.9033 153.359 50.992C153.461 51.076 153.583 51.139 153.723 51.181C153.863 51.2183 154.014 51.237 154.178 51.237ZM159.341 52V41.689H160.594V45.931C160.888 45.5903 161.224 45.3173 161.602 45.112C161.985 44.902 162.421 44.797 162.911 44.797C163.322 44.797 163.693 44.874 164.024 45.028C164.356 45.182 164.638 45.413 164.871 45.721C165.105 46.0243 165.284 46.4023 165.41 46.855C165.536 47.303 165.599 47.821 165.599 48.409C165.599 48.9317 165.529 49.4193 165.389 49.872C165.249 50.32 165.046 50.7097 164.78 51.041C164.519 51.3677 164.197 51.6267 163.814 51.818C163.436 52.0047 163.009 52.098 162.533 52.098C162.076 52.098 161.686 52.0093 161.364 51.832C161.047 51.6547 160.769 51.4073 160.531 51.09L160.468 51.734C160.431 51.9113 160.324 52 160.146 52H159.341ZM162.505 45.791C162.099 45.791 161.742 45.8843 161.434 46.071C161.131 46.2577 160.851 46.5213 160.594 46.862V50.292C160.818 50.6 161.066 50.817 161.336 50.943C161.612 51.069 161.917 51.132 162.253 51.132C162.916 51.132 163.425 50.8963 163.779 50.425C164.134 49.9537 164.311 49.2817 164.311 48.409C164.311 47.947 164.269 47.5503 164.185 47.219C164.106 46.8877 163.989 46.617 163.835 46.407C163.681 46.1923 163.492 46.036 163.268 45.938C163.044 45.84 162.79 45.791 162.505 45.791ZM169.99 44.797C170.508 44.797 170.974 44.8833 171.39 45.056C171.81 45.2287 172.164 45.4737 172.454 45.791C172.748 46.1083 172.972 46.4933 173.126 46.946C173.284 47.394 173.364 47.8957 173.364 48.451C173.364 49.011 173.284 49.515 173.126 49.963C172.972 50.411 172.748 50.7937 172.454 51.111C172.164 51.4283 171.81 51.6733 171.39 51.846C170.974 52.014 170.508 52.098 169.99 52.098C169.472 52.098 169.003 52.014 168.583 51.846C168.167 51.6733 167.813 51.4283 167.519 51.111C167.225 50.7937 166.998 50.411 166.84 49.963C166.681 49.515 166.602 49.011 166.602 48.451C166.602 47.8957 166.681 47.394 166.84 46.946C166.998 46.4933 167.225 46.1083 167.519 45.791C167.813 45.4737 168.167 45.2287 168.583 45.056C169.003 44.8833 169.472 44.797 169.99 44.797ZM169.99 51.125C170.69 51.125 171.212 50.8917 171.558 50.425C171.903 49.9537 172.076 49.298 172.076 48.458C172.076 47.6133 171.903 46.9553 171.558 46.484C171.212 46.0127 170.69 45.777 169.99 45.777C169.635 45.777 169.327 45.8377 169.066 45.959C168.804 46.0803 168.585 46.2553 168.408 46.484C168.235 46.7127 168.104 46.995 168.016 47.331C167.932 47.6623 167.89 48.038 167.89 48.458C167.89 48.878 167.932 49.2537 168.016 49.585C168.104 49.9163 168.235 50.1963 168.408 50.425C168.585 50.649 168.804 50.8217 169.066 50.943C169.327 51.0643 169.635 51.125 169.99 51.125ZM175.977 44.909V49.431C175.977 49.9677 176.101 50.383 176.348 50.677C176.595 50.971 176.969 51.118 177.468 51.118C177.832 51.118 178.175 51.0317 178.497 50.859C178.819 50.6863 179.115 50.446 179.386 50.138V44.909H180.632V52H179.89C179.713 52 179.601 51.9137 179.554 51.741L179.456 50.978C179.148 51.3187 178.803 51.594 178.42 51.804C178.037 52.0093 177.599 52.112 177.104 52.112C176.717 52.112 176.374 52.049 176.075 51.923C175.781 51.7923 175.534 51.6103 175.333 51.377C175.132 51.1437 174.981 50.8613 174.878 50.53C174.78 50.1987 174.731 49.8323 174.731 49.431V44.909H175.977ZM184.827 52.112C184.267 52.112 183.836 51.9557 183.532 51.643C183.234 51.3303 183.084 50.88 183.084 50.292V45.952H182.23C182.156 45.952 182.093 45.931 182.041 45.889C181.99 45.8423 181.964 45.7723 181.964 45.679V45.182L183.126 45.035L183.413 42.844C183.423 42.774 183.453 42.718 183.504 42.676C183.556 42.6293 183.621 42.606 183.7 42.606H184.33V45.049H186.36V45.952H184.33V50.208C184.33 50.5067 184.403 50.7283 184.547 50.873C184.692 51.0177 184.879 51.09 185.107 51.09C185.238 51.09 185.35 51.0737 185.443 51.041C185.541 51.0037 185.625 50.964 185.695 50.922C185.765 50.88 185.824 50.8427 185.87 50.81C185.922 50.7727 185.966 50.754 186.003 50.754C186.069 50.754 186.127 50.7937 186.178 50.873L186.542 51.468C186.328 51.6687 186.069 51.8273 185.765 51.944C185.462 52.056 185.149 52.112 184.827 52.112ZM192.757 52.112C192.197 52.112 191.765 51.9557 191.462 51.643C191.163 51.3303 191.014 50.88 191.014 50.292V45.952H190.16C190.085 45.952 190.022 45.931 189.971 45.889C189.92 45.8423 189.894 45.7723 189.894 45.679V45.182L191.056 45.035L191.343 42.844C191.352 42.774 191.383 42.718 191.434 42.676C191.485 42.6293 191.551 42.606 191.63 42.606H192.26V45.049H194.29V45.952H192.26V50.208C192.26 50.5067 192.332 50.7283 192.477 50.873C192.622 51.0177 192.808 51.09 193.037 51.09C193.168 51.09 193.28 51.0737 193.373 51.041C193.471 51.0037 193.555 50.964 193.625 50.922C193.695 50.88 193.753 50.8427 193.8 50.81C193.851 50.7727 193.896 50.754 193.933 50.754C193.998 50.754 194.057 50.7937 194.108 50.873L194.472 51.468C194.257 51.6687 193.998 51.8273 193.695 51.944C193.392 52.056 193.079 52.112 192.757 52.112ZM198.701 44.797C199.219 44.797 199.685 44.8833 200.101 45.056C200.521 45.2287 200.875 45.4737 201.165 45.791C201.459 46.1083 201.683 46.4933 201.837 46.946C201.995 47.394 202.075 47.8957 202.075 48.451C202.075 49.011 201.995 49.515 201.837 49.963C201.683 50.411 201.459 50.7937 201.165 51.111C200.875 51.4283 200.521 51.6733 200.101 51.846C199.685 52.014 199.219 52.098 198.701 52.098C198.183 52.098 197.714 52.014 197.294 51.846C196.878 51.6733 196.524 51.4283 196.23 51.111C195.936 50.7937 195.709 50.411 195.551 49.963C195.392 49.515 195.313 49.011 195.313 48.451C195.313 47.8957 195.392 47.394 195.551 46.946C195.709 46.4933 195.936 46.1083 196.23 45.791C196.524 45.4737 196.878 45.2287 197.294 45.056C197.714 44.8833 198.183 44.797 198.701 44.797ZM198.701 51.125C199.401 51.125 199.923 50.8917 200.269 50.425C200.614 49.9537 200.787 49.298 200.787 48.458C200.787 47.6133 200.614 46.9553 200.269 46.484C199.923 46.0127 199.401 45.777 198.701 45.777C198.346 45.777 198.038 45.8377 197.777 45.959C197.515 46.0803 197.296 46.2553 197.119 46.484C196.946 46.7127 196.815 46.995 196.727 47.331C196.643 47.6623 196.601 48.038 196.601 48.458C196.601 48.878 196.643 49.2537 196.727 49.585C196.815 49.9163 196.946 50.1963 197.119 50.425C197.296 50.649 197.515 50.8217 197.777 50.943C198.038 51.0643 198.346 51.125 198.701 51.125ZM208.466 52.112C207.906 52.112 207.474 51.9557 207.171 51.643C206.872 51.3303 206.723 50.88 206.723 50.292V45.952H205.869C205.794 45.952 205.731 45.931 205.68 45.889C205.629 45.8423 205.603 45.7723 205.603 45.679V45.182L206.765 45.035L207.052 42.844C207.061 42.774 207.092 42.718 207.143 42.676C207.194 42.6293 207.26 42.606 207.339 42.606H207.969V45.049H209.999V45.952H207.969V50.208C207.969 50.5067 208.041 50.7283 208.186 50.873C208.331 51.0177 208.517 51.09 208.746 51.09C208.877 51.09 208.989 51.0737 209.082 51.041C209.18 51.0037 209.264 50.964 209.334 50.922C209.404 50.88 209.462 50.8427 209.509 50.81C209.56 50.7727 209.605 50.754 209.642 50.754C209.707 50.754 209.766 50.7937 209.817 50.873L210.181 51.468C209.966 51.6687 209.707 51.8273 209.404 51.944C209.101 52.056 208.788 52.112 208.466 52.112ZM211.54 52V41.689H212.786V45.861C213.089 45.539 213.425 45.2823 213.794 45.091C214.162 44.895 214.587 44.797 215.068 44.797C215.455 44.797 215.796 44.8623 216.09 44.993C216.388 45.119 216.636 45.301 216.832 45.539C217.032 45.7723 217.184 46.0547 217.287 46.386C217.389 46.7173 217.441 47.0837 217.441 47.485V52H216.195V47.485C216.195 46.9483 216.071 46.533 215.824 46.239C215.581 45.9403 215.208 45.791 214.704 45.791C214.335 45.791 213.99 45.8797 213.668 46.057C213.35 46.2343 213.056 46.4747 212.786 46.778V52H211.54ZM220.705 44.909V52H219.459V44.909H220.705ZM220.985 42.683C220.985 42.8043 220.959 42.9187 220.908 43.026C220.861 43.1287 220.796 43.222 220.712 43.306C220.633 43.3853 220.539 43.4483 220.432 43.495C220.325 43.5417 220.21 43.565 220.089 43.565C219.968 43.565 219.853 43.5417 219.746 43.495C219.643 43.4483 219.55 43.3853 219.466 43.306C219.387 43.222 219.324 43.1287 219.277 43.026C219.23 42.9187 219.207 42.8043 219.207 42.683C219.207 42.5617 219.23 42.4473 219.277 42.34C219.324 42.228 219.387 42.1323 219.466 42.053C219.55 41.969 219.643 41.9037 219.746 41.857C219.853 41.8103 219.968 41.787 220.089 41.787C220.21 41.787 220.325 41.8103 220.432 41.857C220.539 41.9037 220.633 41.969 220.712 42.053C220.796 42.1323 220.861 42.228 220.908 42.34C220.959 42.4473 220.985 42.5617 220.985 42.683ZM222.901 52V44.909H223.643C223.82 44.909 223.932 44.9953 223.979 45.168L224.077 45.938C224.385 45.5973 224.728 45.322 225.106 45.112C225.489 44.902 225.93 44.797 226.429 44.797C226.816 44.797 227.157 44.8623 227.451 44.993C227.75 45.119 227.997 45.301 228.193 45.539C228.394 45.7723 228.545 46.0547 228.648 46.386C228.751 46.7173 228.802 47.0837 228.802 47.485V52H227.556V47.485C227.556 46.9483 227.432 46.533 227.185 46.239C226.942 45.9403 226.569 45.791 226.065 45.791C225.696 45.791 225.351 45.8797 225.029 46.057C224.712 46.2343 224.418 46.4747 224.147 46.778V52H222.901ZM233.067 44.79C233.375 44.79 233.662 44.825 233.928 44.895C234.199 44.9603 234.444 45.0583 234.663 45.189H236.588V45.651C236.588 45.805 236.49 45.903 236.294 45.945L235.489 46.057C235.648 46.3603 235.727 46.6987 235.727 47.072C235.727 47.4173 235.66 47.7323 235.524 48.017C235.394 48.297 235.209 48.5373 234.971 48.738C234.738 48.9387 234.458 49.0927 234.131 49.2C233.809 49.3073 233.455 49.361 233.067 49.361C232.736 49.361 232.423 49.3213 232.129 49.242C231.98 49.3353 231.866 49.4357 231.786 49.543C231.712 49.6503 231.674 49.7553 231.674 49.858C231.674 50.026 231.742 50.1543 231.877 50.243C232.013 50.327 232.192 50.3877 232.416 50.425C232.64 50.4623 232.895 50.4857 233.179 50.495C233.464 50.5043 233.753 50.5207 234.047 50.544C234.346 50.5627 234.638 50.5977 234.922 50.649C235.207 50.7003 235.461 50.7843 235.685 50.901C235.909 51.0177 236.089 51.1787 236.224 51.384C236.36 51.5893 236.427 51.8553 236.427 52.182C236.427 52.4853 236.35 52.7793 236.196 53.064C236.047 53.3487 235.83 53.6007 235.545 53.82C235.261 54.044 234.913 54.2213 234.502 54.352C234.092 54.4873 233.627 54.555 233.109 54.555C232.591 54.555 232.136 54.5037 231.744 54.401C231.357 54.2983 231.035 54.1607 230.778 53.988C230.522 53.8153 230.328 53.6147 230.197 53.386C230.071 53.162 230.008 52.9263 230.008 52.679C230.008 52.329 230.118 52.0327 230.337 51.79C230.561 51.5427 230.867 51.3467 231.254 51.202C231.054 51.1087 230.893 50.985 230.771 50.831C230.655 50.6723 230.596 50.4623 230.596 50.201C230.596 50.0983 230.615 49.9933 230.652 49.886C230.69 49.774 230.746 49.6643 230.82 49.557C230.9 49.4497 230.995 49.347 231.107 49.249C231.219 49.151 231.35 49.0647 231.499 48.99C231.149 48.794 230.874 48.535 230.673 48.213C230.477 47.8863 230.379 47.506 230.379 47.072C230.379 46.7267 230.445 46.414 230.575 46.134C230.711 45.8493 230.897 45.609 231.135 45.413C231.373 45.2123 231.656 45.0583 231.982 44.951C232.314 44.8437 232.675 44.79 233.067 44.79ZM235.279 52.385C235.279 52.2077 235.23 52.0653 235.132 51.958C235.034 51.8507 234.901 51.769 234.733 51.713C234.565 51.6523 234.372 51.608 234.152 51.58C233.933 51.552 233.702 51.5333 233.459 51.524C233.217 51.51 232.969 51.496 232.717 51.482C232.465 51.468 232.225 51.4423 231.996 51.405C231.73 51.531 231.513 51.685 231.345 51.867C231.182 52.049 231.1 52.266 231.1 52.518C231.1 52.6767 231.14 52.8237 231.219 52.959C231.303 53.099 231.429 53.218 231.597 53.316C231.765 53.4187 231.975 53.498 232.227 53.554C232.484 53.6147 232.785 53.645 233.13 53.645C233.466 53.645 233.767 53.6147 234.033 53.554C234.299 53.4933 234.523 53.407 234.705 53.295C234.892 53.183 235.034 53.05 235.132 52.896C235.23 52.742 235.279 52.5717 235.279 52.385ZM233.067 48.535C233.319 48.535 233.541 48.5 233.732 48.43C233.928 48.36 234.092 48.262 234.222 48.136C234.353 48.01 234.451 47.8607 234.516 47.688C234.582 47.5107 234.614 47.317 234.614 47.107C234.614 46.673 234.481 46.3277 234.215 46.071C233.954 45.8143 233.571 45.686 233.067 45.686C232.568 45.686 232.185 45.8143 231.919 46.071C231.658 46.3277 231.527 46.673 231.527 47.107C231.527 47.317 231.56 47.5107 231.625 47.688C231.695 47.8607 231.796 48.01 231.926 48.136C232.057 48.262 232.218 48.36 232.409 48.43C232.601 48.5 232.82 48.535 233.067 48.535ZM241.891 46.078C241.835 46.1807 241.748 46.232 241.632 46.232C241.562 46.232 241.482 46.2063 241.394 46.155C241.305 46.1037 241.195 46.0477 241.065 45.987C240.939 45.9217 240.787 45.8633 240.61 45.812C240.432 45.756 240.222 45.728 239.98 45.728C239.77 45.728 239.581 45.756 239.413 45.812C239.245 45.8633 239.1 45.9357 238.979 46.029C238.862 46.1223 238.771 46.232 238.706 46.358C238.645 46.4793 238.615 46.6123 238.615 46.757C238.615 46.939 238.666 47.0907 238.769 47.212C238.876 47.3333 239.016 47.4383 239.189 47.527C239.361 47.6157 239.557 47.695 239.777 47.765C239.996 47.8303 240.22 47.9027 240.449 47.982C240.682 48.0567 240.908 48.1407 241.128 48.234C241.347 48.3273 241.543 48.444 241.716 48.584C241.888 48.724 242.026 48.8967 242.129 49.102C242.236 49.3027 242.29 49.5453 242.29 49.83C242.29 50.1567 242.231 50.46 242.115 50.74C241.998 51.0153 241.825 51.2557 241.597 51.461C241.368 51.6617 241.088 51.8203 240.757 51.937C240.425 52.0537 240.043 52.112 239.609 52.112C239.114 52.112 238.666 52.0327 238.265 51.874C237.863 51.7107 237.523 51.503 237.243 51.251L237.537 50.775C237.574 50.7143 237.618 50.6677 237.67 50.635C237.721 50.6023 237.789 50.586 237.873 50.586C237.957 50.586 238.045 50.6187 238.139 50.684C238.232 50.7493 238.344 50.8217 238.475 50.901C238.61 50.9803 238.771 51.0527 238.958 51.118C239.149 51.1833 239.387 51.216 239.672 51.216C239.914 51.216 240.127 51.1857 240.309 51.125C240.491 51.0597 240.642 50.9733 240.764 50.866C240.885 50.7587 240.974 50.635 241.03 50.495C241.09 50.355 241.121 50.2057 241.121 50.047C241.121 49.851 241.067 49.69 240.96 49.564C240.857 49.4333 240.719 49.3237 240.547 49.235C240.374 49.1417 240.176 49.0623 239.952 48.997C239.732 48.927 239.506 48.8547 239.273 48.78C239.044 48.7053 238.818 48.6213 238.594 48.528C238.374 48.43 238.178 48.3087 238.006 48.164C237.833 48.0193 237.693 47.842 237.586 47.632C237.483 47.4173 237.432 47.1583 237.432 46.855C237.432 46.5843 237.488 46.3253 237.6 46.078C237.712 45.826 237.875 45.6067 238.09 45.42C238.304 45.2287 238.568 45.077 238.881 44.965C239.193 44.853 239.55 44.797 239.952 44.797C240.418 44.797 240.836 44.8717 241.205 45.021C241.578 45.1657 241.9 45.3663 242.171 45.623L241.891 46.078ZM248.757 52.112C248.197 52.112 247.765 51.9557 247.462 51.643C247.163 51.3303 247.014 50.88 247.014 50.292V45.952H246.16C246.085 45.952 246.022 45.931 245.971 45.889C245.92 45.8423 245.894 45.7723 245.894 45.679V45.182L247.056 45.035L247.343 42.844C247.352 42.774 247.383 42.718 247.434 42.676C247.485 42.6293 247.551 42.606 247.63 42.606H248.26V45.049H250.29V45.952H248.26V50.208C248.26 50.5067 248.332 50.7283 248.477 50.873C248.622 51.0177 248.808 51.09 249.037 51.09C249.168 51.09 249.28 51.0737 249.373 51.041C249.471 51.0037 249.555 50.964 249.625 50.922C249.695 50.88 249.753 50.8427 249.8 50.81C249.851 50.7727 249.896 50.754 249.933 50.754C249.998 50.754 250.057 50.7937 250.108 50.873L250.472 51.468C250.257 51.6687 249.998 51.8273 249.695 51.944C249.392 52.056 249.079 52.112 248.757 52.112ZM251.831 52V41.689H253.077V45.861C253.38 45.539 253.716 45.2823 254.085 45.091C254.453 44.895 254.878 44.797 255.359 44.797C255.746 44.797 256.087 44.8623 256.381 44.993C256.679 45.119 256.927 45.301 257.123 45.539C257.323 45.7723 257.475 46.0547 257.578 46.386C257.68 46.7173 257.732 47.0837 257.732 47.485V52H256.486V47.485C256.486 46.9483 256.362 46.533 256.115 46.239C255.872 45.9403 255.499 45.791 254.995 45.791C254.626 45.791 254.281 45.8797 253.959 46.057C253.641 46.2343 253.347 46.4747 253.077 46.778V52H251.831ZM264.818 52H264.265C264.144 52 264.046 51.9813 263.971 51.944C263.896 51.9067 263.847 51.8273 263.824 51.706L263.684 51.048C263.497 51.216 263.315 51.3677 263.138 51.503C262.961 51.6337 262.774 51.7457 262.578 51.839C262.382 51.9277 262.172 51.9953 261.948 52.042C261.729 52.0887 261.484 52.112 261.213 52.112C260.938 52.112 260.679 52.0747 260.436 52C260.198 51.9207 259.99 51.804 259.813 51.65C259.636 51.496 259.493 51.3023 259.386 51.069C259.283 50.831 259.232 50.551 259.232 50.229C259.232 49.949 259.309 49.6807 259.463 49.424C259.617 49.1627 259.864 48.9317 260.205 48.731C260.55 48.5303 261.001 48.367 261.556 48.241C262.111 48.1103 262.79 48.0357 263.593 48.017V47.464C263.593 46.9133 263.474 46.498 263.236 46.218C263.003 45.9333 262.655 45.791 262.193 45.791C261.89 45.791 261.633 45.8307 261.423 45.91C261.218 45.9847 261.038 46.071 260.884 46.169C260.735 46.2623 260.604 46.3487 260.492 46.428C260.385 46.5027 260.277 46.54 260.17 46.54C260.086 46.54 260.011 46.519 259.946 46.477C259.885 46.4303 259.836 46.3743 259.799 46.309L259.575 45.91C259.967 45.532 260.389 45.2497 260.842 45.063C261.295 44.8763 261.796 44.783 262.347 44.783C262.744 44.783 263.096 44.8483 263.404 44.979C263.712 45.1097 263.971 45.2917 264.181 45.525C264.391 45.7583 264.55 46.0407 264.657 46.372C264.764 46.7033 264.818 47.0673 264.818 47.464V52ZM261.584 51.237C261.803 51.237 262.004 51.216 262.186 51.174C262.368 51.1273 262.538 51.0643 262.697 50.985C262.86 50.901 263.014 50.8007 263.159 50.684C263.308 50.5673 263.453 50.4343 263.593 50.285V48.808C263.019 48.8267 262.531 48.8733 262.13 48.948C261.729 49.018 261.402 49.1113 261.15 49.228C260.898 49.3447 260.714 49.4823 260.597 49.641C260.485 49.7997 260.429 49.977 260.429 50.173C260.429 50.3597 260.459 50.5207 260.52 50.656C260.581 50.7913 260.662 50.9033 260.765 50.992C260.868 51.076 260.989 51.139 261.129 51.181C261.269 51.2183 261.421 51.237 261.584 51.237ZM268.855 52.112C268.295 52.112 267.863 51.9557 267.56 51.643C267.261 51.3303 267.112 50.88 267.112 50.292V45.952H266.258C266.183 45.952 266.12 45.931 266.069 45.889C266.017 45.8423 265.992 45.7723 265.992 45.679V45.182L267.154 45.035L267.441 42.844C267.45 42.774 267.48 42.718 267.532 42.676C267.583 42.6293 267.648 42.606 267.728 42.606H268.358V45.049H270.388V45.952H268.358V50.208C268.358 50.5067 268.43 50.7283 268.575 50.873C268.719 51.0177 268.906 51.09 269.135 51.09C269.265 51.09 269.377 51.0737 269.471 51.041C269.569 51.0037 269.653 50.964 269.723 50.922C269.793 50.88 269.851 50.8427 269.898 50.81C269.949 50.7727 269.993 50.754 270.031 50.754C270.096 50.754 270.154 50.7937 270.206 50.873L270.57 51.468C270.355 51.6687 270.096 51.8273 269.793 51.944C269.489 52.056 269.177 52.112 268.855 52.112ZM279.843 52H279.29C279.169 52 279.071 51.9813 278.996 51.944C278.922 51.9067 278.873 51.8273 278.849 51.706L278.709 51.048C278.523 51.216 278.341 51.3677 278.163 51.503C277.986 51.6337 277.799 51.7457 277.603 51.839C277.407 51.9277 277.197 51.9953 276.973 52.042C276.754 52.0887 276.509 52.112 276.238 52.112C275.963 52.112 275.704 52.0747 275.461 52C275.223 51.9207 275.016 51.804 274.838 51.65C274.661 51.496 274.519 51.3023 274.411 51.069C274.309 50.831 274.257 50.551 274.257 50.229C274.257 49.949 274.334 49.6807 274.488 49.424C274.642 49.1627 274.89 48.9317 275.23 48.731C275.576 48.5303 276.026 48.367 276.581 48.241C277.137 48.1103 277.816 48.0357 278.618 48.017V47.464C278.618 46.9133 278.499 46.498 278.261 46.218C278.028 45.9333 277.68 45.791 277.218 45.791C276.915 45.791 276.658 45.8307 276.448 45.91C276.243 45.9847 276.063 46.071 275.909 46.169C275.76 46.2623 275.629 46.3487 275.517 46.428C275.41 46.5027 275.303 46.54 275.195 46.54C275.111 46.54 275.037 46.519 274.971 46.477C274.911 46.4303 274.862 46.3743 274.824 46.309L274.6 45.91C274.992 45.532 275.415 45.2497 275.867 45.063C276.32 44.8763 276.822 44.783 277.372 44.783C277.769 44.783 278.121 44.8483 278.429 44.979C278.737 45.1097 278.996 45.2917 279.206 45.525C279.416 45.7583 279.575 46.0407 279.682 46.372C279.79 46.7033 279.843 47.0673 279.843 47.464V52ZM276.609 51.237C276.829 51.237 277.029 51.216 277.211 51.174C277.393 51.1273 277.564 51.0643 277.722 50.985C277.886 50.901 278.04 50.8007 278.184 50.684C278.334 50.5673 278.478 50.4343 278.618 50.285V48.808C278.044 48.8267 277.557 48.8733 277.155 48.948C276.754 49.018 276.427 49.1113 276.175 49.228C275.923 49.3447 275.739 49.4823 275.622 49.641C275.51 49.7997 275.454 49.977 275.454 50.173C275.454 50.3597 275.485 50.5207 275.545 50.656C275.606 50.7913 275.688 50.9033 275.79 50.992C275.893 51.076 276.014 51.139 276.154 51.181C276.294 51.2183 276.446 51.237 276.609 51.237ZM281.731 52V44.909H282.445C282.58 44.909 282.674 44.9347 282.725 44.986C282.776 45.0373 282.811 45.126 282.83 45.252L282.914 46.358C283.157 45.8633 283.455 45.4783 283.81 45.203C284.169 44.923 284.589 44.783 285.07 44.783C285.266 44.783 285.443 44.8063 285.602 44.853C285.761 44.895 285.908 44.9557 286.043 45.035L285.882 45.966C285.849 46.0827 285.777 46.141 285.665 46.141C285.6 46.141 285.499 46.12 285.364 46.078C285.229 46.0313 285.04 46.008 284.797 46.008C284.363 46.008 283.999 46.134 283.705 46.386C283.416 46.638 283.173 47.0043 282.977 47.485V52H281.731ZM290.184 44.797C290.609 44.797 291.001 44.8693 291.36 45.014C291.72 45.154 292.03 45.3593 292.291 45.63C292.553 45.896 292.756 46.2273 292.9 46.624C293.05 47.016 293.124 47.464 293.124 47.968C293.124 48.164 293.103 48.2947 293.061 48.36C293.019 48.4253 292.94 48.458 292.823 48.458H288.105C288.115 48.906 288.175 49.2957 288.287 49.627C288.399 49.9583 288.553 50.236 288.749 50.46C288.945 50.6793 289.179 50.845 289.449 50.957C289.72 51.0643 290.023 51.118 290.359 51.118C290.672 51.118 290.94 51.083 291.164 51.013C291.393 50.9383 291.589 50.859 291.752 50.775C291.916 50.691 292.051 50.614 292.158 50.544C292.27 50.4693 292.366 50.432 292.445 50.432C292.548 50.432 292.627 50.4717 292.683 50.551L293.033 51.006C292.879 51.1927 292.695 51.356 292.48 51.496C292.266 51.6313 292.035 51.7433 291.787 51.832C291.545 51.9207 291.293 51.986 291.031 52.028C290.77 52.0747 290.511 52.098 290.254 52.098C289.764 52.098 289.312 52.0163 288.896 51.853C288.486 51.685 288.129 51.4423 287.825 51.125C287.527 50.803 287.293 50.4063 287.125 49.935C286.957 49.4637 286.873 48.9223 286.873 48.311C286.873 47.8163 286.948 47.3543 287.097 46.925C287.251 46.4957 287.471 46.1247 287.755 45.812C288.04 45.4947 288.388 45.2473 288.798 45.07C289.209 44.888 289.671 44.797 290.184 44.797ZM290.212 45.714C289.61 45.714 289.137 45.889 288.791 46.239C288.446 46.5843 288.231 47.065 288.147 47.681H292.004C292.004 47.3917 291.965 47.128 291.885 46.89C291.806 46.6473 291.689 46.4397 291.535 46.267C291.381 46.0897 291.192 45.9543 290.968 45.861C290.749 45.763 290.497 45.714 290.212 45.714ZM303.159 44.909V54.401H301.913V50.95C301.615 51.2953 301.274 51.573 300.891 51.783C300.513 51.993 300.079 52.098 299.589 52.098C299.183 52.098 298.815 52.021 298.483 51.867C298.152 51.7083 297.87 51.4773 297.636 51.174C297.403 50.8707 297.223 50.4927 297.097 50.04C296.971 49.5873 296.908 49.067 296.908 48.479C296.908 47.9563 296.978 47.471 297.118 47.023C297.258 46.5703 297.459 46.1783 297.72 45.847C297.986 45.5157 298.308 45.2567 298.686 45.07C299.064 44.8787 299.494 44.783 299.974 44.783C300.432 44.783 300.819 44.8647 301.136 45.028C301.458 45.1913 301.745 45.4223 301.997 45.721L302.081 45.168C302.128 44.9953 302.24 44.909 302.417 44.909H303.159ZM300.002 51.09C300.408 51.09 300.763 50.9967 301.066 50.81C301.374 50.6233 301.657 50.3597 301.913 50.019V46.589C301.689 46.2903 301.44 46.078 301.164 45.952C300.889 45.8213 300.586 45.756 300.254 45.756C299.592 45.756 299.083 45.9917 298.728 46.463C298.374 46.9343 298.196 47.6063 298.196 48.479C298.196 48.941 298.236 49.3377 298.315 49.669C298.395 49.9957 298.511 50.2663 298.665 50.481C298.819 50.691 299.008 50.845 299.232 50.943C299.456 51.041 299.713 51.09 300.002 51.09ZM306.325 44.909V49.431C306.325 49.9677 306.448 50.383 306.696 50.677C306.943 50.971 307.316 51.118 307.816 51.118C308.18 51.118 308.523 51.0317 308.845 50.859C309.167 50.6863 309.463 50.446 309.734 50.138V44.909H310.98V52H310.238C310.06 52 309.948 51.9137 309.902 51.741L309.804 50.978C309.496 51.3187 309.15 51.594 308.768 51.804C308.385 52.0093 307.946 52.112 307.452 52.112C307.064 52.112 306.721 52.049 306.423 51.923C306.129 51.7923 305.881 51.6103 305.681 51.377C305.48 51.1437 305.328 50.8613 305.226 50.53C305.128 50.1987 305.079 49.8323 305.079 49.431V44.909H306.325ZM314.412 44.909V52H313.166V44.909H314.412ZM314.692 42.683C314.692 42.8043 314.666 42.9187 314.615 43.026C314.568 43.1287 314.503 43.222 314.419 43.306C314.34 43.3853 314.246 43.4483 314.139 43.495C314.032 43.5417 313.917 43.565 313.796 43.565C313.675 43.565 313.56 43.5417 313.453 43.495C313.35 43.4483 313.257 43.3853 313.173 43.306C313.094 43.222 313.031 43.1287 312.984 43.026C312.937 42.9187 312.914 42.8043 312.914 42.683C312.914 42.5617 312.937 42.4473 312.984 42.34C313.031 42.228 313.094 42.1323 313.173 42.053C313.257 41.969 313.35 41.9037 313.453 41.857C313.56 41.8103 313.675 41.787 313.796 41.787C313.917 41.787 314.032 41.8103 314.139 41.857C314.246 41.9037 314.34 41.969 314.419 42.053C314.503 42.1323 314.568 42.228 314.615 42.34C314.666 42.4473 314.692 42.5617 314.692 42.683ZM318.757 52.112C318.197 52.112 317.765 51.9557 317.462 51.643C317.163 51.3303 317.014 50.88 317.014 50.292V45.952H316.16C316.085 45.952 316.022 45.931 315.971 45.889C315.92 45.8423 315.894 45.7723 315.894 45.679V45.182L317.056 45.035L317.343 42.844C317.352 42.774 317.383 42.718 317.434 42.676C317.485 42.6293 317.551 42.606 317.63 42.606H318.26V45.049H320.29V45.952H318.26V50.208C318.26 50.5067 318.332 50.7283 318.477 50.873C318.622 51.0177 318.808 51.09 319.037 51.09C319.168 51.09 319.28 51.0737 319.373 51.041C319.471 51.0037 319.555 50.964 319.625 50.922C319.695 50.88 319.753 50.8427 319.8 50.81C319.851 50.7727 319.896 50.754 319.933 50.754C319.998 50.754 320.057 50.7937 320.108 50.873L320.472 51.468C320.257 51.6687 319.998 51.8273 319.695 51.944C319.392 52.056 319.079 52.112 318.757 52.112ZM324.638 44.797C325.062 44.797 325.454 44.8693 325.814 45.014C326.173 45.154 326.483 45.3593 326.745 45.63C327.006 45.896 327.209 46.2273 327.354 46.624C327.503 47.016 327.578 47.464 327.578 47.968C327.578 48.164 327.557 48.2947 327.515 48.36C327.473 48.4253 327.393 48.458 327.277 48.458H322.559C322.568 48.906 322.629 49.2957 322.741 49.627C322.853 49.9583 323.007 50.236 323.203 50.46C323.399 50.6793 323.632 50.845 323.903 50.957C324.173 51.0643 324.477 51.118 324.813 51.118C325.125 51.118 325.394 51.083 325.618 51.013C325.846 50.9383 326.042 50.859 326.206 50.775C326.369 50.691 326.504 50.614 326.612 50.544C326.724 50.4693 326.819 50.432 326.899 50.432C327.001 50.432 327.081 50.4717 327.137 50.551L327.487 51.006C327.333 51.1927 327.148 51.356 326.934 51.496C326.719 51.6313 326.488 51.7433 326.241 51.832C325.998 51.9207 325.746 51.986 325.485 52.028C325.223 52.0747 324.964 52.098 324.708 52.098C324.218 52.098 323.765 52.0163 323.35 51.853C322.939 51.685 322.582 51.4423 322.279 51.125C321.98 50.803 321.747 50.4063 321.579 49.935C321.411 49.4637 321.327 48.9223 321.327 48.311C321.327 47.8163 321.401 47.3543 321.551 46.925C321.705 46.4957 321.924 46.1247 322.209 45.812C322.493 45.4947 322.841 45.2473 323.252 45.07C323.662 44.888 324.124 44.797 324.638 44.797ZM324.666 45.714C324.064 45.714 323.59 45.889 323.245 46.239C322.899 46.5843 322.685 47.065 322.601 47.681H326.458C326.458 47.3917 326.418 47.128 326.339 46.89C326.259 46.6473 326.143 46.4397 325.989 46.267C325.835 46.0897 325.646 45.9543 325.422 45.861C325.202 45.763 324.95 45.714 324.666 45.714ZM328.766 51.23C328.766 51.1087 328.787 50.9943 328.829 50.887C328.876 50.7797 328.937 50.6863 329.011 50.607C329.091 50.5277 329.184 50.4647 329.291 50.418C329.399 50.3713 329.513 50.348 329.634 50.348C329.756 50.348 329.87 50.3713 329.977 50.418C330.085 50.4647 330.178 50.5277 330.257 50.607C330.337 50.6863 330.397 50.7797 330.439 50.887C330.486 50.9943 330.509 51.1087 330.509 51.23C330.509 51.356 330.486 51.4727 330.439 51.58C330.397 51.6827 330.337 51.7737 330.257 51.853C330.178 51.9323 330.085 51.993 329.977 52.035C329.87 52.0817 329.756 52.105 329.634 52.105C329.513 52.105 329.399 52.0817 329.291 52.035C329.184 51.993 329.091 51.9323 329.011 51.853C328.937 51.7737 328.876 51.6827 328.829 51.58C328.787 51.4727 328.766 51.356 328.766 51.23ZM331.733 51.23C331.733 51.1087 331.754 50.9943 331.796 50.887C331.843 50.7797 331.904 50.6863 331.978 50.607C332.058 50.5277 332.151 50.4647 332.258 50.418C332.366 50.3713 332.48 50.348 332.601 50.348C332.723 50.348 332.837 50.3713 332.944 50.418C333.052 50.4647 333.145 50.5277 333.224 50.607C333.304 50.6863 333.364 50.7797 333.406 50.887C333.453 50.9943 333.476 51.1087 333.476 51.23C333.476 51.356 333.453 51.4727 333.406 51.58C333.364 51.6827 333.304 51.7737 333.224 51.853C333.145 51.9323 333.052 51.993 332.944 52.035C332.837 52.0817 332.723 52.105 332.601 52.105C332.48 52.105 332.366 52.0817 332.258 52.035C332.151 51.993 332.058 51.9323 331.978 51.853C331.904 51.7737 331.843 51.6827 331.796 51.58C331.754 51.4727 331.733 51.356 331.733 51.23ZM334.7 51.23C334.7 51.1087 334.721 50.9943 334.763 50.887C334.81 50.7797 334.87 50.6863 334.945 50.607C335.024 50.5277 335.118 50.4647 335.225 50.418C335.332 50.3713 335.447 50.348 335.568 50.348C335.689 50.348 335.804 50.3713 335.911 50.418C336.018 50.4647 336.112 50.5277 336.191 50.607C336.27 50.6863 336.331 50.7797 336.373 50.887C336.42 50.9943 336.443 51.1087 336.443 51.23C336.443 51.356 336.42 51.4727 336.373 51.58C336.331 51.6827 336.27 51.7737 336.191 51.853C336.112 51.9323 336.018 51.993 335.911 52.035C335.804 52.0817 335.689 52.105 335.568 52.105C335.447 52.105 335.332 52.0817 335.225 52.035C335.118 51.993 335.024 51.9323 334.945 51.853C334.87 51.7737 334.81 51.6827 334.763 51.58C334.721 51.4727 334.7 51.356 334.7 51.23Z" fill="#828282"/>
<path d="M75.104 26.8C75.1833 26.9493 75.2557 27.1057 75.321 27.269C75.391 27.4277 75.4587 27.5887 75.524 27.752C75.5893 27.584 75.657 27.4183 75.727 27.255C75.797 27.0917 75.8717 26.9353 75.951 26.786L78.947 21.179C78.9843 21.109 79.0217 21.053 79.059 21.011C79.101 20.969 79.1453 20.9387 79.192 20.92C79.2433 20.9013 79.2993 20.8897 79.36 20.885C79.4207 20.8803 79.493 20.878 79.577 20.878H80.998V31H79.339V24.462C79.339 24.3407 79.3413 24.2077 79.346 24.063C79.3553 23.9183 79.367 23.7713 79.381 23.622L76.322 29.362C76.252 29.4927 76.161 29.5953 76.049 29.67C75.937 29.74 75.8063 29.775 75.657 29.775H75.398C75.2487 29.775 75.118 29.74 75.006 29.67C74.894 29.5953 74.803 29.4927 74.733 29.362L71.632 23.601C71.6507 23.755 71.6623 23.9067 71.667 24.056C71.6763 24.2007 71.681 24.336 71.681 24.462V31H70.022V20.878H71.443C71.527 20.878 71.5993 20.8803 71.66 20.885C71.7207 20.8897 71.7743 20.9013 71.821 20.92C71.8723 20.9387 71.919 20.969 71.961 21.011C72.003 21.053 72.0427 21.109 72.08 21.179L75.104 26.8ZM88.5676 31H87.7906C87.6273 31 87.499 30.9767 87.4056 30.93C87.3123 30.8787 87.2423 30.7783 87.1956 30.629L87.0416 30.118C86.8596 30.2813 86.68 30.426 86.5026 30.552C86.33 30.6733 86.1503 30.776 85.9636 30.86C85.777 30.944 85.5786 31.007 85.3686 31.049C85.1586 31.091 84.9253 31.112 84.6686 31.112C84.3653 31.112 84.0853 31.0723 83.8286 30.993C83.572 30.909 83.3503 30.7853 83.1636 30.622C82.9816 30.4587 82.8393 30.2557 82.7366 30.013C82.634 29.7703 82.5826 29.488 82.5826 29.166C82.5826 28.8953 82.6526 28.6293 82.7926 28.368C82.9373 28.102 83.1753 27.864 83.5066 27.654C83.838 27.4393 84.279 27.262 84.8296 27.122C85.3803 26.982 86.064 26.9027 86.8806 26.884V26.464C86.8806 25.9833 86.778 25.6287 86.5726 25.4C86.372 25.1667 86.078 25.05 85.6906 25.05C85.4106 25.05 85.1773 25.0827 84.9906 25.148C84.804 25.2133 84.6406 25.288 84.5006 25.372C84.3653 25.4513 84.2393 25.5237 84.1226 25.589C84.006 25.6543 83.8776 25.687 83.7376 25.687C83.621 25.687 83.5206 25.6567 83.4366 25.596C83.3526 25.5353 83.285 25.4607 83.2336 25.372L82.9186 24.819C83.7446 24.063 84.741 23.685 85.9076 23.685C86.3276 23.685 86.701 23.755 87.0276 23.895C87.359 24.0303 87.639 24.2217 87.8676 24.469C88.0963 24.7117 88.269 25.0033 88.3856 25.344C88.507 25.6847 88.5676 26.058 88.5676 26.464V31ZM85.2076 29.922C85.385 29.922 85.5483 29.9057 85.6976 29.873C85.847 29.8403 85.987 29.7913 86.1176 29.726C86.253 29.6607 86.3813 29.5813 86.5026 29.488C86.6286 29.39 86.7546 29.2757 86.8806 29.145V27.934C86.3766 27.9573 85.9543 28.0017 85.6136 28.067C85.2776 28.1277 85.007 28.207 84.8016 28.305C84.5963 28.403 84.4493 28.5173 84.3606 28.648C84.2766 28.7787 84.2346 28.921 84.2346 29.075C84.2346 29.3783 84.3233 29.5953 84.5006 29.726C84.6826 29.8567 84.9183 29.922 85.2076 29.922ZM90.2677 31V23.818H91.2828C91.4601 23.818 91.5838 23.8507 91.6538 23.916C91.7238 23.9813 91.7704 24.0933 91.7938 24.252L91.8988 25.12C92.1554 24.6767 92.4564 24.3267 92.8018 24.07C93.1471 23.8133 93.5344 23.685 93.9638 23.685C94.3184 23.685 94.6124 23.7667 94.8458 23.93L94.6218 25.225C94.6078 25.309 94.5774 25.3697 94.5308 25.407C94.4841 25.4397 94.4211 25.456 94.3418 25.456C94.2718 25.456 94.1761 25.4397 94.0548 25.407C93.9334 25.3743 93.7724 25.358 93.5718 25.358C93.2124 25.358 92.9044 25.4583 92.6478 25.659C92.3911 25.855 92.1741 26.1443 91.9968 26.527V31H90.2677ZM97.8236 23.818V31H96.0946V23.818H97.8236ZM98.0826 21.725C98.0826 21.8743 98.0523 22.0143 97.9916 22.145C97.9309 22.2757 97.8493 22.39 97.7466 22.488C97.6486 22.586 97.5319 22.6653 97.3966 22.726C97.2613 22.782 97.1166 22.81 96.9626 22.81C96.8133 22.81 96.6709 22.782 96.5356 22.726C96.4049 22.6653 96.2906 22.586 96.1926 22.488C96.0946 22.39 96.0153 22.2757 95.9546 22.145C95.8986 22.0143 95.8706 21.8743 95.8706 21.725C95.8706 21.571 95.8986 21.4263 95.9546 21.291C96.0153 21.1557 96.0946 21.039 96.1926 20.941C96.2906 20.843 96.4049 20.766 96.5356 20.71C96.6709 20.6493 96.8133 20.619 96.9626 20.619C97.1166 20.619 97.2613 20.6493 97.3966 20.71C97.5319 20.766 97.6486 20.843 97.7466 20.941C97.8493 21.039 97.9309 21.1557 97.9916 21.291C98.0523 21.4263 98.0826 21.571 98.0826 21.725ZM101.624 20.598V31H99.8954V20.598H101.624ZM106.132 32.974C106.081 33.0953 106.013 33.1863 105.929 33.247C105.85 33.3123 105.726 33.345 105.558 33.345H104.27L105.614 30.468L102.709 23.818H104.221C104.361 23.818 104.468 23.8507 104.543 23.916C104.618 23.9813 104.674 24.056 104.711 24.14L106.244 27.864C106.295 27.9853 106.34 28.1113 106.377 28.242C106.414 28.3727 106.447 28.5033 106.475 28.634C106.512 28.4987 106.552 28.368 106.594 28.242C106.641 28.116 106.69 27.9877 106.741 27.857L108.183 24.14C108.22 24.0467 108.281 23.9697 108.365 23.909C108.454 23.8483 108.552 23.818 108.659 23.818H110.045L106.132 32.974ZM111.049 31V23.818H112.106C112.33 23.818 112.477 23.923 112.547 24.133L112.666 24.7C112.811 24.5507 112.962 24.4153 113.121 24.294C113.284 24.1727 113.455 24.0677 113.632 23.979C113.814 23.8903 114.008 23.8227 114.213 23.776C114.418 23.7293 114.642 23.706 114.885 23.706C115.277 23.706 115.625 23.7737 115.928 23.909C116.231 24.0397 116.483 24.2263 116.684 24.469C116.889 24.707 117.043 24.994 117.146 25.33C117.253 25.6613 117.307 26.0277 117.307 26.429V31H115.578V26.429C115.578 25.9903 115.475 25.652 115.27 25.414C115.069 25.1713 114.766 25.05 114.36 25.05C114.061 25.05 113.781 25.1177 113.52 25.253C113.259 25.3883 113.011 25.5727 112.778 25.806V31H111.049ZM123.757 25.12H124.198C124.375 25.12 124.522 25.0967 124.639 25.05C124.756 24.9987 124.856 24.9193 124.94 24.812L127.733 21.277C127.85 21.1277 127.971 21.025 128.097 20.969C128.228 20.9083 128.391 20.878 128.587 20.878H130.211L126.802 25.085C126.695 25.2157 126.592 25.3253 126.494 25.414C126.396 25.5027 126.291 25.575 126.179 25.631C126.333 25.687 126.471 25.7663 126.592 25.869C126.718 25.9717 126.839 26.1023 126.956 26.261L130.47 31H128.804C128.58 31 128.412 30.9697 128.3 30.909C128.193 30.8437 128.102 30.7503 128.027 30.629L125.164 26.891C125.071 26.7697 124.966 26.6833 124.849 26.632C124.732 26.576 124.567 26.548 124.352 26.548H123.757V31H121.874V20.871H123.757V25.12ZM134.156 23.706C134.608 23.706 135.024 23.7783 135.402 23.923C135.784 24.0677 136.113 24.28 136.389 24.56C136.664 24.8353 136.879 25.176 137.033 25.582C137.187 25.9833 137.264 26.443 137.264 26.961C137.264 27.0917 137.257 27.2013 137.243 27.29C137.233 27.374 137.212 27.4417 137.18 27.493C137.152 27.5397 137.112 27.5747 137.061 27.598C137.009 27.6167 136.944 27.626 136.865 27.626H132.427C132.478 28.3633 132.676 28.9047 133.022 29.25C133.367 29.5953 133.824 29.768 134.394 29.768C134.674 29.768 134.914 29.7353 135.115 29.67C135.32 29.6047 135.497 29.5323 135.647 29.453C135.801 29.3737 135.934 29.3013 136.046 29.236C136.162 29.1707 136.274 29.138 136.382 29.138C136.452 29.138 136.512 29.152 136.564 29.18C136.615 29.208 136.659 29.2477 136.697 29.299L137.201 29.929C137.009 30.153 136.795 30.342 136.557 30.496C136.319 30.6453 136.069 30.7667 135.808 30.86C135.551 30.9487 135.287 31.0117 135.017 31.049C134.751 31.0863 134.492 31.105 134.24 31.105C133.74 31.105 133.276 31.0233 132.847 30.86C132.417 30.692 132.044 30.447 131.727 30.125C131.409 29.7983 131.16 29.397 130.978 28.921C130.796 28.4403 130.705 27.885 130.705 27.255C130.705 26.765 130.784 26.3053 130.943 25.876C131.101 25.442 131.328 25.0663 131.622 24.749C131.92 24.427 132.282 24.1727 132.707 23.986C133.136 23.7993 133.619 23.706 134.156 23.706ZM134.191 24.945C133.687 24.945 133.292 25.0873 133.008 25.372C132.723 25.6567 132.541 26.0603 132.462 26.583H135.71C135.71 26.359 135.679 26.149 135.619 25.953C135.558 25.7523 135.465 25.5773 135.339 25.428C135.213 25.2787 135.054 25.162 134.863 25.078C134.671 24.9893 134.447 24.945 134.191 24.945ZM138.666 31V23.818H139.723C139.947 23.818 140.094 23.923 140.164 24.133L140.283 24.7C140.428 24.5507 140.58 24.4153 140.738 24.294C140.902 24.1727 141.072 24.0677 141.249 23.979C141.431 23.8903 141.625 23.8227 141.83 23.776C142.036 23.7293 142.26 23.706 142.502 23.706C142.894 23.706 143.242 23.7737 143.545 23.909C143.849 24.0397 144.101 24.2263 144.301 24.469C144.507 24.707 144.661 24.994 144.763 25.33C144.871 25.6613 144.924 26.0277 144.924 26.429V31H143.195V26.429C143.195 25.9903 143.093 25.652 142.887 25.414C142.687 25.1713 142.383 25.05 141.977 25.05C141.679 25.05 141.399 25.1177 141.137 25.253C140.876 25.3883 140.629 25.5727 140.395 25.806V31H138.666ZM148.982 31.112C148.362 31.112 147.883 30.937 147.547 30.587C147.211 30.2323 147.043 29.7447 147.043 29.124V25.113H146.315C146.222 25.113 146.14 25.0827 146.07 25.022C146.005 24.9613 145.972 24.8703 145.972 24.749V24.063L147.127 23.874L147.491 21.914C147.51 21.8207 147.552 21.7483 147.617 21.697C147.687 21.6457 147.774 21.62 147.876 21.62H148.772V23.881H150.662V25.113H148.772V29.005C148.772 29.229 148.828 29.404 148.94 29.53C149.052 29.656 149.202 29.719 149.388 29.719C149.496 29.719 149.584 29.7073 149.654 29.684C149.729 29.656 149.792 29.628 149.843 29.6C149.899 29.572 149.948 29.5463 149.99 29.523C150.032 29.495 150.074 29.481 150.116 29.481C150.168 29.481 150.21 29.495 150.242 29.523C150.275 29.5463 150.31 29.5837 150.347 29.635L150.865 30.475C150.613 30.685 150.324 30.8437 149.997 30.951C149.671 31.0583 149.332 31.112 148.982 31.112ZM155.005 23.706C155.458 23.706 155.873 23.7783 156.251 23.923C156.634 24.0677 156.963 24.28 157.238 24.56C157.514 24.8353 157.728 25.176 157.882 25.582C158.036 25.9833 158.113 26.443 158.113 26.961C158.113 27.0917 158.106 27.2013 158.092 27.29C158.083 27.374 158.062 27.4417 158.029 27.493C158.001 27.5397 157.962 27.5747 157.91 27.598C157.859 27.6167 157.794 27.626 157.714 27.626H153.276C153.328 28.3633 153.526 28.9047 153.871 29.25C154.217 29.5953 154.674 29.768 155.243 29.768C155.523 29.768 155.764 29.7353 155.964 29.67C156.17 29.6047 156.347 29.5323 156.496 29.453C156.65 29.3737 156.783 29.3013 156.895 29.236C157.012 29.1707 157.124 29.138 157.231 29.138C157.301 29.138 157.362 29.152 157.413 29.18C157.465 29.208 157.509 29.2477 157.546 29.299L158.05 29.929C157.859 30.153 157.644 30.342 157.406 30.496C157.168 30.6453 156.919 30.7667 156.657 30.86C156.401 30.9487 156.137 31.0117 155.866 31.049C155.6 31.0863 155.341 31.105 155.089 31.105C154.59 31.105 154.126 31.0233 153.696 30.86C153.267 30.692 152.894 30.447 152.576 30.125C152.259 29.7983 152.009 29.397 151.827 28.921C151.645 28.4403 151.554 27.885 151.554 27.255C151.554 26.765 151.634 26.3053 151.792 25.876C151.951 25.442 152.177 25.0663 152.471 24.749C152.77 24.427 153.132 24.1727 153.556 23.986C153.986 23.7993 154.469 23.706 155.005 23.706ZM155.04 24.945C154.536 24.945 154.142 25.0873 153.857 25.372C153.573 25.6567 153.391 26.0603 153.311 26.583H156.559C156.559 26.359 156.529 26.149 156.468 25.953C156.408 25.7523 156.314 25.5773 156.188 25.428C156.062 25.2787 155.904 25.162 155.712 25.078C155.521 24.9893 155.297 24.945 155.04 24.945ZM159.516 31V23.818H160.531C160.708 23.818 160.832 23.8507 160.902 23.916C160.972 23.9813 161.018 24.0933 161.042 24.252L161.147 25.12C161.403 24.6767 161.704 24.3267 162.05 24.07C162.395 23.8133 162.782 23.685 163.212 23.685C163.566 23.685 163.86 23.7667 164.094 23.93L163.87 25.225C163.856 25.309 163.825 25.3697 163.779 25.407C163.732 25.4397 163.669 25.456 163.59 25.456C163.52 25.456 163.424 25.4397 163.303 25.407C163.181 25.3743 163.02 25.358 162.82 25.358C162.46 25.358 162.152 25.4583 161.896 25.659C161.639 25.855 161.422 26.1443 161.245 26.527V31H159.516Z" fill="#1A1C1D"/>
<path d="M176.474 30.596C176.046 30.596 175.654 30.54 175.298 30.428C174.942 30.312 174.636 30.148 174.38 29.936C174.124 29.724 173.926 29.468 173.786 29.168C173.646 28.864 173.576 28.524 173.576 28.148C173.576 27.596 173.72 27.142 174.008 26.786C174.296 26.426 174.708 26.17 175.244 26.018C174.792 25.85 174.45 25.6 174.218 25.268C173.99 24.932 173.876 24.532 173.876 24.068C173.876 23.752 173.938 23.456 174.062 23.18C174.186 22.904 174.362 22.664 174.59 22.46C174.818 22.256 175.09 22.096 175.406 21.98C175.726 21.864 176.082 21.806 176.474 21.806C176.862 21.806 177.216 21.864 177.536 21.98C177.856 22.096 178.13 22.256 178.358 22.46C178.586 22.664 178.762 22.904 178.886 23.18C179.01 23.456 179.072 23.752 179.072 24.068C179.072 24.532 178.956 24.932 178.724 25.268C178.492 25.6 178.152 25.85 177.704 26.018C178.24 26.17 178.652 26.426 178.94 26.786C179.228 27.142 179.372 27.596 179.372 28.148C179.372 28.524 179.3 28.864 179.156 29.168C179.016 29.468 178.818 29.724 178.562 29.936C178.31 30.148 178.006 30.312 177.65 30.428C177.294 30.54 176.902 30.596 176.474 30.596ZM176.474 29.744C176.754 29.744 177.004 29.706 177.224 29.63C177.448 29.55 177.636 29.44 177.788 29.3C177.944 29.156 178.062 28.986 178.142 28.79C178.226 28.59 178.268 28.37 178.268 28.13C178.268 27.834 178.218 27.582 178.118 27.374C178.022 27.162 177.89 26.99 177.722 26.858C177.558 26.726 177.368 26.63 177.152 26.57C176.936 26.506 176.71 26.474 176.474 26.474C176.238 26.474 176.012 26.506 175.796 26.57C175.58 26.63 175.388 26.726 175.22 26.858C175.056 26.99 174.924 27.162 174.824 27.374C174.728 27.582 174.68 27.834 174.68 28.13C174.68 28.37 174.72 28.59 174.8 28.79C174.884 28.986 175.002 29.156 175.154 29.3C175.31 29.44 175.498 29.55 175.718 29.63C175.942 29.706 176.194 29.744 176.474 29.744ZM176.474 25.616C176.754 25.616 176.992 25.574 177.188 25.49C177.388 25.402 177.55 25.288 177.674 25.148C177.798 25.004 177.888 24.84 177.944 24.656C178 24.472 178.028 24.282 178.028 24.086C178.028 23.886 177.994 23.698 177.926 23.522C177.862 23.346 177.764 23.192 177.632 23.06C177.504 22.928 177.342 22.824 177.146 22.748C176.954 22.672 176.73 22.634 176.474 22.634C176.218 22.634 175.992 22.672 175.796 22.748C175.604 22.824 175.442 22.928 175.31 23.06C175.182 23.192 175.084 23.346 175.016 23.522C174.952 23.698 174.92 23.886 174.92 24.086C174.92 24.282 174.948 24.472 175.004 24.656C175.06 24.84 175.15 25.004 175.274 25.148C175.398 25.288 175.558 25.402 175.754 25.49C175.954 25.574 176.194 25.616 176.474 25.616ZM180.489 29.84C180.489 29.736 180.507 29.638 180.543 29.546C180.583 29.454 180.635 29.374 180.699 29.306C180.767 29.238 180.847 29.184 180.939 29.144C181.031 29.104 181.129 29.084 181.233 29.084C181.337 29.084 181.435 29.104 181.527 29.144C181.619 29.184 181.699 29.238 181.767 29.306C181.835 29.374 181.887 29.454 181.923 29.546C181.963 29.638 181.983 29.736 181.983 29.84C181.983 29.948 181.963 30.048 181.923 30.14C181.887 30.228 181.835 30.306 181.767 30.374C181.699 30.442 181.619 30.494 181.527 30.53C181.435 30.57 181.337 30.59 181.233 30.59C181.129 30.59 181.031 30.57 180.939 30.53C180.847 30.494 180.767 30.442 180.699 30.374C180.635 30.306 180.583 30.228 180.543 30.14C180.507 30.048 180.489 29.948 180.489 29.84ZM189.104 26.204C189.104 26.956 189.022 27.608 188.858 28.16C188.698 28.708 188.478 29.162 188.198 29.522C187.918 29.882 187.586 30.15 187.202 30.326C186.822 30.502 186.414 30.59 185.978 30.59C185.538 30.59 185.128 30.502 184.748 30.326C184.372 30.15 184.044 29.882 183.764 29.522C183.484 29.162 183.264 28.708 183.104 28.16C182.944 27.608 182.864 26.956 182.864 26.204C182.864 25.452 182.944 24.8 183.104 24.248C183.264 23.696 183.484 23.24 183.764 22.88C184.044 22.516 184.372 22.246 184.748 22.07C185.128 21.894 185.538 21.806 185.978 21.806C186.414 21.806 186.822 21.894 187.202 22.07C187.586 22.246 187.918 22.516 188.198 22.88C188.478 23.24 188.698 23.696 188.858 24.248C189.022 24.8 189.104 25.452 189.104 26.204ZM187.994 26.204C187.994 25.548 187.938 24.998 187.826 24.554C187.718 24.106 187.57 23.746 187.382 23.474C187.198 23.202 186.984 23.008 186.74 22.892C186.496 22.772 186.242 22.712 185.978 22.712C185.714 22.712 185.46 22.772 185.216 22.892C184.972 23.008 184.758 23.202 184.574 23.474C184.39 23.746 184.242 24.106 184.13 24.554C184.022 24.998 183.968 25.548 183.968 26.204C183.968 26.86 184.022 27.41 184.13 27.854C184.242 28.298 184.39 28.656 184.574 28.928C184.758 29.2 184.972 29.396 185.216 29.516C185.46 29.632 185.714 29.69 185.978 29.69C186.242 29.69 186.496 29.632 186.74 29.516C186.984 29.396 187.198 29.2 187.382 28.928C187.57 28.656 187.718 28.298 187.826 27.854C187.938 27.41 187.994 26.86 187.994 26.204ZM192.939 30.596C192.511 30.596 192.119 30.54 191.763 30.428C191.407 30.312 191.101 30.148 190.845 29.936C190.589 29.724 190.391 29.468 190.251 29.168C190.111 28.864 190.041 28.524 190.041 28.148C190.041 27.596 190.185 27.142 190.473 26.786C190.761 26.426 191.173 26.17 191.709 26.018C191.257 25.85 190.915 25.6 190.683 25.268C190.455 24.932 190.341 24.532 190.341 24.068C190.341 23.752 190.403 23.456 190.527 23.18C190.651 22.904 190.827 22.664 191.055 22.46C191.283 22.256 191.555 22.096 191.871 21.98C192.191 21.864 192.547 21.806 192.939 21.806C193.327 21.806 193.681 21.864 194.001 21.98C194.321 22.096 194.595 22.256 194.823 22.46C195.051 22.664 195.227 22.904 195.351 23.18C195.475 23.456 195.537 23.752 195.537 24.068C195.537 24.532 195.421 24.932 195.189 25.268C194.957 25.6 194.617 25.85 194.169 26.018C194.705 26.17 195.117 26.426 195.405 26.786C195.693 27.142 195.837 27.596 195.837 28.148C195.837 28.524 195.765 28.864 195.621 29.168C195.481 29.468 195.283 29.724 195.027 29.936C194.775 30.148 194.471 30.312 194.115 30.428C193.759 30.54 193.367 30.596 192.939 30.596ZM192.939 29.744C193.219 29.744 193.469 29.706 193.689 29.63C193.913 29.55 194.101 29.44 194.253 29.3C194.409 29.156 194.527 28.986 194.607 28.79C194.691 28.59 194.733 28.37 194.733 28.13C194.733 27.834 194.683 27.582 194.583 27.374C194.487 27.162 194.355 26.99 194.187 26.858C194.023 26.726 193.833 26.63 193.617 26.57C193.401 26.506 193.175 26.474 192.939 26.474C192.703 26.474 192.477 26.506 192.261 26.57C192.045 26.63 191.853 26.726 191.685 26.858C191.521 26.99 191.389 27.162 191.289 27.374C191.193 27.582 191.145 27.834 191.145 28.13C191.145 28.37 191.185 28.59 191.265 28.79C191.349 28.986 191.467 29.156 191.619 29.3C191.775 29.44 191.963 29.55 192.183 29.63C192.407 29.706 192.659 29.744 192.939 29.744ZM192.939 25.616C193.219 25.616 193.457 25.574 193.653 25.49C193.853 25.402 194.015 25.288 194.139 25.148C194.263 25.004 194.353 24.84 194.409 24.656C194.465 24.472 194.493 24.282 194.493 24.086C194.493 23.886 194.459 23.698 194.391 23.522C194.327 23.346 194.229 23.192 194.097 23.06C193.969 22.928 193.807 22.824 193.611 22.748C193.419 22.672 193.195 22.634 192.939 22.634C192.683 22.634 192.457 22.672 192.261 22.748C192.069 22.824 191.907 22.928 191.775 23.06C191.647 23.192 191.549 23.346 191.481 23.522C191.417 23.698 191.385 23.886 191.385 24.086C191.385 24.282 191.413 24.472 191.469 24.656C191.525 24.84 191.615 25.004 191.739 25.148C191.863 25.288 192.023 25.402 192.219 25.49C192.419 25.574 192.659 25.616 192.939 25.616ZM200.126 21.302H200.954V32.558H200.126V21.302ZM206.386 29.684H208.234V23.822C208.234 23.646 208.24 23.468 208.252 23.288L206.716 24.602C206.676 24.634 206.636 24.658 206.596 24.674C206.556 24.686 206.518 24.692 206.482 24.692C206.422 24.692 206.368 24.68 206.32 24.656C206.272 24.628 206.236 24.596 206.212 24.56L205.876 24.098L208.432 21.884H209.302V29.684H210.994V30.5H206.386V29.684ZM218.225 26.204C218.225 26.956 218.143 27.608 217.979 28.16C217.819 28.708 217.599 29.162 217.319 29.522C217.039 29.882 216.707 30.15 216.323 30.326C215.943 30.502 215.535 30.59 215.099 30.59C214.659 30.59 214.249 30.502 213.869 30.326C213.493 30.15 213.165 29.882 212.885 29.522C212.605 29.162 212.385 28.708 212.225 28.16C212.065 27.608 211.985 26.956 211.985 26.204C211.985 25.452 212.065 24.8 212.225 24.248C212.385 23.696 212.605 23.24 212.885 22.88C213.165 22.516 213.493 22.246 213.869 22.07C214.249 21.894 214.659 21.806 215.099 21.806C215.535 21.806 215.943 21.894 216.323 22.07C216.707 22.246 217.039 22.516 217.319 22.88C217.599 23.24 217.819 23.696 217.979 24.248C218.143 24.8 218.225 25.452 218.225 26.204ZM217.115 26.204C217.115 25.548 217.059 24.998 216.947 24.554C216.839 24.106 216.691 23.746 216.503 23.474C216.319 23.202 216.105 23.008 215.861 22.892C215.617 22.772 215.363 22.712 215.099 22.712C214.835 22.712 214.581 22.772 214.337 22.892C214.093 23.008 213.879 23.202 213.695 23.474C213.511 23.746 213.363 24.106 213.251 24.554C213.143 24.998 213.089 25.548 213.089 26.204C213.089 26.86 213.143 27.41 213.251 27.854C213.363 28.298 213.511 28.656 213.695 28.928C213.879 29.2 214.093 29.396 214.337 29.516C214.581 29.632 214.835 29.69 215.099 29.69C215.363 29.69 215.617 29.632 215.861 29.516C216.105 29.396 216.319 29.2 216.503 28.928C216.691 28.656 216.839 28.298 216.947 27.854C217.059 27.41 217.115 26.86 217.115 26.204ZM219.354 29.84C219.354 29.736 219.372 29.638 219.408 29.546C219.448 29.454 219.5 29.374 219.564 29.306C219.632 29.238 219.712 29.184 219.804 29.144C219.896 29.104 219.994 29.084 220.098 29.084C220.202 29.084 220.3 29.104 220.392 29.144C220.484 29.184 220.564 29.238 220.632 29.306C220.7 29.374 220.752 29.454 220.788 29.546C220.828 29.638 220.848 29.736 220.848 29.84C220.848 29.948 220.828 30.048 220.788 30.14C220.752 30.228 220.7 30.306 220.632 30.374C220.564 30.442 220.484 30.494 220.392 30.53C220.3 30.57 220.202 30.59 220.098 30.59C219.994 30.59 219.896 30.57 219.804 30.53C219.712 30.494 219.632 30.442 219.564 30.374C219.5 30.306 219.448 30.228 219.408 30.14C219.372 30.048 219.354 29.948 219.354 29.84ZM219.354 25.34C219.354 25.236 219.372 25.138 219.408 25.046C219.448 24.954 219.5 24.874 219.564 24.806C219.632 24.738 219.712 24.684 219.804 24.644C219.896 24.604 219.994 24.584 220.098 24.584C220.202 24.584 220.3 24.604 220.392 24.644C220.484 24.684 220.564 24.738 220.632 24.806C220.7 24.874 220.752 24.954 220.788 25.046C220.828 25.138 220.848 25.236 220.848 25.34C220.848 25.448 220.828 25.548 220.788 25.64C220.752 25.728 220.7 25.806 220.632 25.874C220.564 25.942 220.484 25.996 220.392 26.036C220.3 26.072 220.202 26.09 220.098 26.09C219.994 26.09 219.896 26.072 219.804 26.036C219.712 25.996 219.632 25.942 219.564 25.874C219.5 25.806 219.448 25.728 219.408 25.64C219.372 25.548 219.354 25.448 219.354 25.34ZM225.329 21.806C225.693 21.806 226.029 21.858 226.337 21.962C226.645 22.066 226.909 22.214 227.129 22.406C227.353 22.598 227.527 22.83 227.651 23.102C227.775 23.374 227.837 23.676 227.837 24.008C227.837 24.28 227.801 24.524 227.729 24.74C227.661 24.952 227.561 25.14 227.429 25.304C227.301 25.464 227.145 25.6 226.961 25.712C226.777 25.824 226.571 25.914 226.343 25.982C226.903 26.13 227.323 26.378 227.603 26.726C227.887 27.074 228.029 27.51 228.029 28.034C228.029 28.43 227.953 28.786 227.801 29.102C227.653 29.418 227.449 29.688 227.189 29.912C226.929 30.132 226.625 30.302 226.277 30.422C225.933 30.538 225.563 30.596 225.167 30.596C224.711 30.596 224.321 30.54 223.997 30.428C223.673 30.312 223.399 30.154 223.175 29.954C222.951 29.754 222.767 29.518 222.623 29.246C222.479 28.97 222.357 28.672 222.257 28.352L222.713 28.16C222.797 28.124 222.881 28.106 222.965 28.106C223.045 28.106 223.115 28.124 223.175 28.16C223.239 28.192 223.287 28.244 223.319 28.316C223.327 28.332 223.335 28.35 223.343 28.37C223.351 28.386 223.359 28.404 223.367 28.424C223.423 28.54 223.491 28.672 223.571 28.82C223.651 28.964 223.759 29.1 223.895 29.228C224.031 29.356 224.199 29.464 224.399 29.552C224.603 29.64 224.855 29.684 225.155 29.684C225.455 29.684 225.717 29.636 225.941 29.54C226.169 29.44 226.357 29.312 226.505 29.156C226.657 29 226.771 28.826 226.847 28.634C226.923 28.442 226.961 28.252 226.961 28.064C226.961 27.832 226.929 27.62 226.865 27.428C226.805 27.236 226.693 27.07 226.529 26.93C226.369 26.79 226.145 26.68 225.857 26.6C225.573 26.52 225.207 26.48 224.759 26.48V25.706C225.123 25.702 225.433 25.662 225.689 25.586C225.949 25.51 226.161 25.406 226.325 25.274C226.489 25.142 226.607 24.984 226.679 24.8C226.755 24.616 226.793 24.412 226.793 24.188C226.793 23.94 226.753 23.724 226.673 23.54C226.597 23.356 226.491 23.204 226.355 23.084C226.219 22.964 226.057 22.874 225.869 22.814C225.685 22.754 225.485 22.724 225.269 22.724C225.053 22.724 224.853 22.756 224.669 22.82C224.485 22.884 224.321 22.974 224.177 23.09C224.037 23.202 223.919 23.338 223.823 23.498C223.727 23.654 223.655 23.824 223.607 24.008C223.575 24.124 223.527 24.208 223.463 24.26C223.399 24.312 223.317 24.338 223.217 24.338C223.197 24.338 223.175 24.338 223.151 24.338C223.131 24.334 223.107 24.33 223.079 24.326L222.521 24.23C222.577 23.838 222.685 23.492 222.845 23.192C223.005 22.888 223.207 22.634 223.451 22.43C223.699 22.226 223.981 22.072 224.297 21.968C224.617 21.86 224.961 21.806 225.329 21.806ZM232.044 30.596C231.616 30.596 231.224 30.54 230.868 30.428C230.512 30.312 230.206 30.148 229.95 29.936C229.694 29.724 229.496 29.468 229.356 29.168C229.216 28.864 229.146 28.524 229.146 28.148C229.146 27.596 229.29 27.142 229.578 26.786C229.866 26.426 230.278 26.17 230.814 26.018C230.362 25.85 230.02 25.6 229.788 25.268C229.56 24.932 229.446 24.532 229.446 24.068C229.446 23.752 229.508 23.456 229.632 23.18C229.756 22.904 229.932 22.664 230.16 22.46C230.388 22.256 230.66 22.096 230.976 21.98C231.296 21.864 231.652 21.806 232.044 21.806C232.432 21.806 232.786 21.864 233.106 21.98C233.426 22.096 233.7 22.256 233.928 22.46C234.156 22.664 234.332 22.904 234.456 23.18C234.58 23.456 234.642 23.752 234.642 24.068C234.642 24.532 234.526 24.932 234.294 25.268C234.062 25.6 233.722 25.85 233.274 26.018C233.81 26.17 234.222 26.426 234.51 26.786C234.798 27.142 234.942 27.596 234.942 28.148C234.942 28.524 234.87 28.864 234.726 29.168C234.586 29.468 234.388 29.724 234.132 29.936C233.88 30.148 233.576 30.312 233.22 30.428C232.864 30.54 232.472 30.596 232.044 30.596ZM232.044 29.744C232.324 29.744 232.574 29.706 232.794 29.63C233.018 29.55 233.206 29.44 233.358 29.3C233.514 29.156 233.632 28.986 233.712 28.79C233.796 28.59 233.838 28.37 233.838 28.13C233.838 27.834 233.788 27.582 233.688 27.374C233.592 27.162 233.46 26.99 233.292 26.858C233.128 26.726 232.938 26.63 232.722 26.57C232.506 26.506 232.28 26.474 232.044 26.474C231.808 26.474 231.582 26.506 231.366 26.57C231.15 26.63 230.958 26.726 230.79 26.858C230.626 26.99 230.494 27.162 230.394 27.374C230.298 27.582 230.25 27.834 230.25 28.13C230.25 28.37 230.29 28.59 230.37 28.79C230.454 28.986 230.572 29.156 230.724 29.3C230.88 29.44 231.068 29.55 231.288 29.63C231.512 29.706 231.764 29.744 232.044 29.744ZM232.044 25.616C232.324 25.616 232.562 25.574 232.758 25.49C232.958 25.402 233.12 25.288 233.244 25.148C233.368 25.004 233.458 24.84 233.514 24.656C233.57 24.472 233.598 24.282 233.598 24.086C233.598 23.886 233.564 23.698 233.496 23.522C233.432 23.346 233.334 23.192 233.202 23.06C233.074 22.928 232.912 22.824 232.716 22.748C232.524 22.672 232.3 22.634 232.044 22.634C231.788 22.634 231.562 22.672 231.366 22.748C231.174 22.824 231.012 22.928 230.88 23.06C230.752 23.192 230.654 23.346 230.586 23.522C230.522 23.698 230.49 23.886 230.49 24.086C230.49 24.282 230.518 24.472 230.574 24.656C230.63 24.84 230.72 25.004 230.844 25.148C230.968 25.288 231.128 25.402 231.324 25.49C231.524 25.574 231.764 25.616 232.044 25.616Z" fill="#828282"/>
<rect x="17" y="18" width="36" height="36" rx="8" fill="#3D4B27" fill-opacity="0.5"/>
<path d="M28.6934 36.672C28.8001 36.8747 28.9014 37.0853 28.9974 37.304C29.0988 37.5227 29.1948 37.7467 29.2854 37.976C29.3761 37.7413 29.4721 37.5147 29.5734 37.296C29.6748 37.072 29.7788 36.856 29.8854 36.648L32.8774 30.76C32.9308 30.6587 32.9841 30.5813 33.0374 30.528C33.0961 30.4693 33.1601 30.4267 33.2294 30.4C33.2988 30.3733 33.3761 30.3573 33.4614 30.352C33.5521 30.3467 33.6561 30.344 33.7734 30.344H35.8374V42H33.4534V35.296C33.4534 34.9707 33.4694 34.6187 33.5014 34.24L30.4134 40.232C30.3174 40.4187 30.1868 40.56 30.0214 40.656C29.8614 40.752 29.6774 40.8 29.4694 40.8H29.1014C28.8934 40.8 28.7068 40.752 28.5414 40.656C28.3814 40.56 28.2534 40.4187 28.1574 40.232L25.0534 34.232C25.0748 34.4187 25.0908 34.6053 25.1014 34.792C25.1121 34.9733 25.1174 35.1413 25.1174 35.296V42H22.7334V30.344H24.7974C24.9148 30.344 25.0161 30.3467 25.1014 30.352C25.1921 30.3573 25.2721 30.3733 25.3414 30.4C25.4108 30.4267 25.4721 30.4693 25.5254 30.528C25.5841 30.5813 25.6401 30.6587 25.6934 30.76L28.6934 36.672ZM40.4687 35.064H40.9007C41.3007 35.064 41.5887 34.9387 41.7647 34.688L44.3887 30.88C44.5327 30.672 44.6954 30.5307 44.8767 30.456C45.0634 30.3813 45.29 30.344 45.5567 30.344H47.9087L44.4527 35.056C44.33 35.2267 44.202 35.368 44.0687 35.48C43.9354 35.592 43.7994 35.6853 43.6607 35.76C43.8634 35.8347 44.0474 35.9387 44.2127 36.072C44.3834 36.2 44.538 36.3733 44.6767 36.592L48.1967 42H45.7807C45.626 42 45.4927 41.9893 45.3807 41.968C45.274 41.9467 45.1807 41.9147 45.1007 41.872C45.0207 41.8293 44.9514 41.7787 44.8927 41.72C44.834 41.656 44.778 41.584 44.7247 41.504L42.0847 37.448C41.9887 37.2987 41.866 37.1947 41.7167 37.136C41.5727 37.072 41.3754 37.04 41.1247 37.04H40.4687V42H37.7647V30.344H40.4687V35.064Z" fill="white"/>
<path d="M1 1V0H0V1H1ZM376 1H377V0H376V1ZM376 71V72H377V71H376ZM1 71H0V72H1V71ZM1 2H376V0H1V2ZM375 1V71H377V1H375ZM376 70H1V72H376V70ZM2 71V1H0V71H2Z" fill="#F3F4F9"/>
</svg>
