<svg width="377" height="72" viewBox="0 0 377 72" fill="none" xmlns="http://www.w3.org/2000/svg">
<path d="M1 1H376V71H1V1Z" fill="white"/>
<path d="M71.828 52H70.47V41.969H71.828V52ZM76.098 44.909H77.078C77.1807 44.909 77.2647 44.9347 77.33 44.986C77.3953 45.0373 77.4397 45.098 77.463 45.168L78.821 49.732C78.8583 49.9 78.8933 50.0633 78.926 50.222C78.9587 50.376 78.9867 50.5323 79.01 50.691C79.0473 50.5323 79.0893 50.376 79.136 50.222C79.1827 50.0633 79.2317 49.9 79.283 49.732L80.781 45.14C80.8043 45.07 80.844 45.0117 80.9 44.965C80.9607 44.9183 81.0353 44.895 81.124 44.895H81.663C81.7563 44.895 81.8333 44.9183 81.894 44.965C81.9547 45.0117 81.9967 45.07 82.02 45.14L83.483 49.732C83.5343 49.8953 83.5787 50.0563 83.616 50.215C83.658 50.3737 83.6977 50.53 83.735 50.684C83.7583 50.53 83.7887 50.369 83.826 50.201C83.8633 50.033 83.903 49.8767 83.945 49.732L85.331 45.168C85.3543 45.0933 85.3987 45.0327 85.464 44.986C85.5293 44.9347 85.6063 44.909 85.695 44.909H86.633L84.337 52H83.35C83.2287 52 83.1447 51.9207 83.098 51.762L81.53 46.953C81.4927 46.8457 81.4623 46.7383 81.439 46.631C81.4157 46.519 81.3923 46.4093 81.369 46.302C81.3457 46.4093 81.3223 46.519 81.299 46.631C81.2757 46.743 81.2453 46.8527 81.208 46.96L79.619 51.762C79.5677 51.9207 79.472 52 79.332 52H78.394L76.098 44.909ZM92.9488 52H92.3958C92.2744 52 92.1764 51.9813 92.1018 51.944C92.0271 51.9067 91.9781 51.8273 91.9548 51.706L91.8148 51.048C91.6281 51.216 91.4461 51.3677 91.2688 51.503C91.0914 51.6337 90.9048 51.7457 90.7088 51.839C90.5128 51.9277 90.3028 51.9953 90.0788 52.042C89.8594 52.0887 89.6144 52.112 89.3438 52.112C89.0684 52.112 88.8094 52.0747 88.5667 52C88.3288 51.9207 88.1211 51.804 87.9438 51.65C87.7664 51.496 87.6241 51.3023 87.5168 51.069C87.4141 50.831 87.3628 50.551 87.3628 50.229C87.3628 49.949 87.4398 49.6807 87.5938 49.424C87.7478 49.1627 87.9951 48.9317 88.3358 48.731C88.6811 48.5303 89.1314 48.367 89.6868 48.241C90.2421 48.1103 90.9211 48.0357 91.7238 48.017V47.464C91.7238 46.9133 91.6048 46.498 91.3668 46.218C91.1334 45.9333 90.7858 45.791 90.3238 45.791C90.0204 45.791 89.7638 45.8307 89.5538 45.91C89.3484 45.9847 89.1688 46.071 89.0148 46.169C88.8654 46.2623 88.7348 46.3487 88.6228 46.428C88.5154 46.5027 88.4081 46.54 88.3008 46.54C88.2168 46.54 88.1421 46.519 88.0768 46.477C88.0161 46.4303 87.9671 46.3743 87.9298 46.309L87.7058 45.91C88.0978 45.532 88.5201 45.2497 88.9728 45.063C89.4254 44.8763 89.9271 44.783 90.4778 44.783C90.8744 44.783 91.2268 44.8483 91.5348 44.979C91.8428 45.1097 92.1018 45.2917 92.3118 45.525C92.5218 45.7583 92.6804 46.0407 92.7878 46.372C92.8951 46.7033 92.9488 47.0673 92.9488 47.464V52ZM89.7148 51.237C89.9341 51.237 90.1348 51.216 90.3167 51.174C90.4988 51.1273 90.6691 51.0643 90.8278 50.985C90.9911 50.901 91.1451 50.8007 91.2898 50.684C91.4391 50.5673 91.5838 50.4343 91.7238 50.285V48.808C91.1498 48.8267 90.6621 48.8733 90.2608 48.948C89.8594 49.018 89.5328 49.1113 89.2808 49.228C89.0288 49.3447 88.8444 49.4823 88.7278 49.641C88.6158 49.7997 88.5598 49.977 88.5598 50.173C88.5598 50.3597 88.5901 50.5207 88.6508 50.656C88.7114 50.7913 88.7931 50.9033 88.8958 50.992C88.9984 51.076 89.1198 51.139 89.2598 51.181C89.3998 51.2183 89.5514 51.237 89.7148 51.237ZM94.8365 52V44.909H95.5785C95.7558 44.909 95.8678 44.9953 95.9145 45.168L96.0125 45.938C96.3205 45.5973 96.6635 45.322 97.0415 45.112C97.4241 44.902 97.8651 44.797 98.3645 44.797C98.7518 44.797 99.0925 44.8623 99.3865 44.993C99.6851 45.119 99.9325 45.301 100.128 45.539C100.329 45.7723 100.481 46.0547 100.583 46.386C100.686 46.7173 100.737 47.0837 100.737 47.485V52H99.4915V47.485C99.4915 46.9483 99.3678 46.533 99.1205 46.239C98.8778 45.9403 98.5045 45.791 98.0005 45.791C97.6318 45.791 97.2865 45.8797 96.9645 46.057C96.6471 46.2343 96.3531 46.4747 96.0825 46.778V52H94.8365ZM104.765 52.112C104.205 52.112 103.773 51.9557 103.47 51.643C103.171 51.3303 103.022 50.88 103.022 50.292V45.952H102.168C102.093 45.952 102.03 45.931 101.979 45.889C101.927 45.8423 101.902 45.7723 101.902 45.679V45.182L103.064 45.035L103.351 42.844C103.36 42.774 103.39 42.718 103.442 42.676C103.493 42.6293 103.558 42.606 103.638 42.606H104.268V45.049H106.298V45.952H104.268V50.208C104.268 50.5067 104.34 50.7283 104.485 50.873C104.629 51.0177 104.816 51.09 105.045 51.09C105.175 51.09 105.287 51.0737 105.381 51.041C105.479 51.0037 105.563 50.964 105.633 50.922C105.703 50.88 105.761 50.8427 105.808 50.81C105.859 50.7727 105.903 50.754 105.941 50.754C106.006 50.754 106.064 50.7937 106.116 50.873L106.48 51.468C106.265 51.6687 106.006 51.8273 105.703 51.944C105.399 52.056 105.087 52.112 104.765 52.112ZM112.694 52.112C112.134 52.112 111.703 51.9557 111.399 51.643C111.101 51.3303 110.951 50.88 110.951 50.292V45.952H110.097C110.023 45.952 109.96 45.931 109.908 45.889C109.857 45.8423 109.831 45.7723 109.831 45.679V45.182L110.993 45.035L111.28 42.844C111.29 42.774 111.32 42.718 111.371 42.676C111.423 42.6293 111.488 42.606 111.567 42.606H112.197V45.049H114.227V45.952H112.197V50.208C112.197 50.5067 112.27 50.7283 112.414 50.873C112.559 51.0177 112.746 51.09 112.974 51.09C113.105 51.09 113.217 51.0737 113.31 51.041C113.408 51.0037 113.492 50.964 113.562 50.922C113.632 50.88 113.691 50.8427 113.737 50.81C113.789 50.7727 113.833 50.754 113.87 50.754C113.936 50.754 113.994 50.7937 114.045 50.873L114.409 51.468C114.195 51.6687 113.936 51.8273 113.632 51.944C113.329 52.056 113.016 52.112 112.694 52.112ZM118.638 44.797C119.156 44.797 119.623 44.8833 120.038 45.056C120.458 45.2287 120.813 45.4737 121.102 45.791C121.396 46.1083 121.62 46.4933 121.774 46.946C121.933 47.394 122.012 47.8957 122.012 48.451C122.012 49.011 121.933 49.515 121.774 49.963C121.62 50.411 121.396 50.7937 121.102 51.111C120.813 51.4283 120.458 51.6733 120.038 51.846C119.623 52.014 119.156 52.098 118.638 52.098C118.12 52.098 117.651 52.014 117.231 51.846C116.816 51.6733 116.461 51.4283 116.167 51.111C115.873 50.7937 115.647 50.411 115.488 49.963C115.329 49.515 115.25 49.011 115.25 48.451C115.25 47.8957 115.329 47.394 115.488 46.946C115.647 46.4933 115.873 46.1083 116.167 45.791C116.461 45.4737 116.816 45.2287 117.231 45.056C117.651 44.8833 118.12 44.797 118.638 44.797ZM118.638 51.125C119.338 51.125 119.861 50.8917 120.206 50.425C120.551 49.9537 120.724 49.298 120.724 48.458C120.724 47.6133 120.551 46.9553 120.206 46.484C119.861 46.0127 119.338 45.777 118.638 45.777C118.283 45.777 117.975 45.8377 117.714 45.959C117.453 46.0803 117.233 46.2553 117.056 46.484C116.883 46.7127 116.753 46.995 116.664 47.331C116.58 47.6623 116.538 48.038 116.538 48.458C116.538 48.878 116.58 49.2537 116.664 49.585C116.753 49.9163 116.883 50.1963 117.056 50.425C117.233 50.649 117.453 50.8217 117.714 50.943C117.975 51.0643 118.283 51.125 118.638 51.125ZM128.403 52.112C127.843 52.112 127.412 51.9557 127.108 51.643C126.81 51.3303 126.66 50.88 126.66 50.292V45.952H125.806C125.732 45.952 125.669 45.931 125.617 45.889C125.566 45.8423 125.54 45.7723 125.54 45.679V45.182L126.702 45.035L126.989 42.844C126.999 42.774 127.029 42.718 127.08 42.676C127.132 42.6293 127.197 42.606 127.276 42.606H127.906V45.049H129.936V45.952H127.906V50.208C127.906 50.5067 127.979 50.7283 128.123 50.873C128.268 51.0177 128.455 51.09 128.683 51.09C128.814 51.09 128.926 51.0737 129.019 51.041C129.117 51.0037 129.201 50.964 129.271 50.922C129.341 50.88 129.4 50.8427 129.446 50.81C129.498 50.7727 129.542 50.754 129.579 50.754C129.645 50.754 129.703 50.7937 129.754 50.873L130.118 51.468C129.904 51.6687 129.645 51.8273 129.341 51.944C129.038 52.056 128.725 52.112 128.403 52.112ZM136.685 52H136.132C136.011 52 135.913 51.9813 135.838 51.944C135.763 51.9067 135.714 51.8273 135.691 51.706L135.551 51.048C135.364 51.216 135.182 51.3677 135.005 51.503C134.828 51.6337 134.641 51.7457 134.445 51.839C134.249 51.9277 134.039 51.9953 133.815 52.042C133.596 52.0887 133.351 52.112 133.08 52.112C132.805 52.112 132.546 52.0747 132.303 52C132.065 51.9207 131.857 51.804 131.68 51.65C131.503 51.496 131.36 51.3023 131.253 51.069C131.15 50.831 131.099 50.551 131.099 50.229C131.099 49.949 131.176 49.6807 131.33 49.424C131.484 49.1627 131.731 48.9317 132.072 48.731C132.417 48.5303 132.868 48.367 133.423 48.241C133.978 48.1103 134.657 48.0357 135.46 48.017V47.464C135.46 46.9133 135.341 46.498 135.103 46.218C134.87 45.9333 134.522 45.791 134.06 45.791C133.757 45.791 133.5 45.8307 133.29 45.91C133.085 45.9847 132.905 46.071 132.751 46.169C132.602 46.2623 132.471 46.3487 132.359 46.428C132.252 46.5027 132.144 46.54 132.037 46.54C131.953 46.54 131.878 46.519 131.813 46.477C131.752 46.4303 131.703 46.3743 131.666 46.309L131.442 45.91C131.834 45.532 132.256 45.2497 132.709 45.063C133.162 44.8763 133.663 44.783 134.214 44.783C134.611 44.783 134.963 44.8483 135.271 44.979C135.579 45.1097 135.838 45.2917 136.048 45.525C136.258 45.7583 136.417 46.0407 136.524 46.372C136.631 46.7033 136.685 47.0673 136.685 47.464V52ZM133.451 51.237C133.67 51.237 133.871 51.216 134.053 51.174C134.235 51.1273 134.405 51.0643 134.564 50.985C134.727 50.901 134.881 50.8007 135.026 50.684C135.175 50.5673 135.32 50.4343 135.46 50.285V48.808C134.886 48.8267 134.398 48.8733 133.997 48.948C133.596 49.018 133.269 49.1113 133.017 49.228C132.765 49.3447 132.581 49.4823 132.464 49.641C132.352 49.7997 132.296 49.977 132.296 50.173C132.296 50.3597 132.326 50.5207 132.387 50.656C132.448 50.7913 132.529 50.9033 132.632 50.992C132.735 51.076 132.856 51.139 132.996 51.181C133.136 51.2183 133.288 51.237 133.451 51.237ZM139.959 41.689V52H138.713V41.689H139.959ZM143.45 41.689V47.758H143.772C143.865 47.758 143.942 47.7463 144.003 47.723C144.063 47.695 144.131 47.6413 144.206 47.562L146.446 45.161C146.516 45.0863 146.586 45.0257 146.656 44.979C146.726 44.9323 146.819 44.909 146.936 44.909H148.07L145.459 47.688C145.393 47.7673 145.328 47.8373 145.263 47.898C145.202 47.9587 145.132 48.0123 145.053 48.059C145.137 48.115 145.211 48.1803 145.277 48.255C145.347 48.325 145.412 48.4067 145.473 48.5L148.245 52H147.125C147.022 52 146.933 51.9813 146.859 51.944C146.789 51.902 146.721 51.839 146.656 51.755L144.325 48.85C144.255 48.752 144.185 48.689 144.115 48.661C144.045 48.6283 143.94 48.612 143.8 48.612H143.45V52H142.197V41.689H143.45ZM157.412 52H156.859C156.737 52 156.639 51.9813 156.565 51.944C156.49 51.9067 156.441 51.8273 156.418 51.706L156.278 51.048C156.091 51.216 155.909 51.3677 155.732 51.503C155.554 51.6337 155.368 51.7457 155.172 51.839C154.976 51.9277 154.766 51.9953 154.542 52.042C154.322 52.0887 154.077 52.112 153.807 52.112C153.531 52.112 153.272 52.0747 153.03 52C152.792 51.9207 152.584 51.804 152.407 51.65C152.229 51.496 152.087 51.3023 151.98 51.069C151.877 50.831 151.826 50.551 151.826 50.229C151.826 49.949 151.903 49.6807 152.057 49.424C152.211 49.1627 152.458 48.9317 152.799 48.731C153.144 48.5303 153.594 48.367 154.15 48.241C154.705 48.1103 155.384 48.0357 156.187 48.017V47.464C156.187 46.9133 156.068 46.498 155.83 46.218C155.596 45.9333 155.249 45.791 154.787 45.791C154.483 45.791 154.227 45.8307 154.017 45.91C153.811 45.9847 153.632 46.071 153.478 46.169C153.328 46.2623 153.198 46.3487 153.086 46.428C152.978 46.5027 152.871 46.54 152.764 46.54C152.68 46.54 152.605 46.519 152.54 46.477C152.479 46.4303 152.43 46.3743 152.393 46.309L152.169 45.91C152.561 45.532 152.983 45.2497 153.436 45.063C153.888 44.8763 154.39 44.783 154.941 44.783C155.337 44.783 155.69 44.8483 155.998 44.979C156.306 45.1097 156.565 45.2917 156.775 45.525C156.985 45.7583 157.143 46.0407 157.251 46.372C157.358 46.7033 157.412 47.0673 157.412 47.464V52ZM154.178 51.237C154.397 51.237 154.598 51.216 154.78 51.174C154.962 51.1273 155.132 51.0643 155.291 50.985C155.454 50.901 155.608 50.8007 155.753 50.684C155.902 50.5673 156.047 50.4343 156.187 50.285V48.808C155.613 48.8267 155.125 48.8733 154.724 48.948C154.322 49.018 153.996 49.1113 153.744 49.228C153.492 49.3447 153.307 49.4823 153.191 49.641C153.079 49.7997 153.023 49.977 153.023 50.173C153.023 50.3597 153.053 50.5207 153.114 50.656C153.174 50.7913 153.256 50.9033 153.359 50.992C153.461 51.076 153.583 51.139 153.723 51.181C153.863 51.2183 154.014 51.237 154.178 51.237ZM159.341 52V41.689H160.594V45.931C160.888 45.5903 161.224 45.3173 161.602 45.112C161.985 44.902 162.421 44.797 162.911 44.797C163.322 44.797 163.693 44.874 164.024 45.028C164.356 45.182 164.638 45.413 164.871 45.721C165.105 46.0243 165.284 46.4023 165.41 46.855C165.536 47.303 165.599 47.821 165.599 48.409C165.599 48.9317 165.529 49.4193 165.389 49.872C165.249 50.32 165.046 50.7097 164.78 51.041C164.519 51.3677 164.197 51.6267 163.814 51.818C163.436 52.0047 163.009 52.098 162.533 52.098C162.076 52.098 161.686 52.0093 161.364 51.832C161.047 51.6547 160.769 51.4073 160.531 51.09L160.468 51.734C160.431 51.9113 160.324 52 160.146 52H159.341ZM162.505 45.791C162.099 45.791 161.742 45.8843 161.434 46.071C161.131 46.2577 160.851 46.5213 160.594 46.862V50.292C160.818 50.6 161.066 50.817 161.336 50.943C161.612 51.069 161.917 51.132 162.253 51.132C162.916 51.132 163.425 50.8963 163.779 50.425C164.134 49.9537 164.311 49.2817 164.311 48.409C164.311 47.947 164.269 47.5503 164.185 47.219C164.106 46.8877 163.989 46.617 163.835 46.407C163.681 46.1923 163.492 46.036 163.268 45.938C163.044 45.84 162.79 45.791 162.505 45.791ZM169.99 44.797C170.508 44.797 170.974 44.8833 171.39 45.056C171.81 45.2287 172.164 45.4737 172.454 45.791C172.748 46.1083 172.972 46.4933 173.126 46.946C173.284 47.394 173.364 47.8957 173.364 48.451C173.364 49.011 173.284 49.515 173.126 49.963C172.972 50.411 172.748 50.7937 172.454 51.111C172.164 51.4283 171.81 51.6733 171.39 51.846C170.974 52.014 170.508 52.098 169.99 52.098C169.472 52.098 169.003 52.014 168.583 51.846C168.167 51.6733 167.813 51.4283 167.519 51.111C167.225 50.7937 166.998 50.411 166.84 49.963C166.681 49.515 166.602 49.011 166.602 48.451C166.602 47.8957 166.681 47.394 166.84 46.946C166.998 46.4933 167.225 46.1083 167.519 45.791C167.813 45.4737 168.167 45.2287 168.583 45.056C169.003 44.8833 169.472 44.797 169.99 44.797ZM169.99 51.125C170.69 51.125 171.212 50.8917 171.558 50.425C171.903 49.9537 172.076 49.298 172.076 48.458C172.076 47.6133 171.903 46.9553 171.558 46.484C171.212 46.0127 170.69 45.777 169.99 45.777C169.635 45.777 169.327 45.8377 169.066 45.959C168.804 46.0803 168.585 46.2553 168.408 46.484C168.235 46.7127 168.104 46.995 168.016 47.331C167.932 47.6623 167.89 48.038 167.89 48.458C167.89 48.878 167.932 49.2537 168.016 49.585C168.104 49.9163 168.235 50.1963 168.408 50.425C168.585 50.649 168.804 50.8217 169.066 50.943C169.327 51.0643 169.635 51.125 169.99 51.125ZM175.977 44.909V49.431C175.977 49.9677 176.101 50.383 176.348 50.677C176.595 50.971 176.969 51.118 177.468 51.118C177.832 51.118 178.175 51.0317 178.497 50.859C178.819 50.6863 179.115 50.446 179.386 50.138V44.909H180.632V52H179.89C179.713 52 179.601 51.9137 179.554 51.741L179.456 50.978C179.148 51.3187 178.803 51.594 178.42 51.804C178.037 52.0093 177.599 52.112 177.104 52.112C176.717 52.112 176.374 52.049 176.075 51.923C175.781 51.7923 175.534 51.6103 175.333 51.377C175.132 51.1437 174.981 50.8613 174.878 50.53C174.78 50.1987 174.731 49.8323 174.731 49.431V44.909H175.977ZM184.827 52.112C184.267 52.112 183.836 51.9557 183.532 51.643C183.234 51.3303 183.084 50.88 183.084 50.292V45.952H182.23C182.156 45.952 182.093 45.931 182.041 45.889C181.99 45.8423 181.964 45.7723 181.964 45.679V45.182L183.126 45.035L183.413 42.844C183.423 42.774 183.453 42.718 183.504 42.676C183.556 42.6293 183.621 42.606 183.7 42.606H184.33V45.049H186.36V45.952H184.33V50.208C184.33 50.5067 184.403 50.7283 184.547 50.873C184.692 51.0177 184.879 51.09 185.107 51.09C185.238 51.09 185.35 51.0737 185.443 51.041C185.541 51.0037 185.625 50.964 185.695 50.922C185.765 50.88 185.824 50.8427 185.87 50.81C185.922 50.7727 185.966 50.754 186.003 50.754C186.069 50.754 186.127 50.7937 186.178 50.873L186.542 51.468C186.328 51.6687 186.069 51.8273 185.765 51.944C185.462 52.056 185.149 52.112 184.827 52.112ZM192.757 52.112C192.197 52.112 191.765 51.9557 191.462 51.643C191.163 51.3303 191.014 50.88 191.014 50.292V45.952H190.16C190.085 45.952 190.022 45.931 189.971 45.889C189.92 45.8423 189.894 45.7723 189.894 45.679V45.182L191.056 45.035L191.343 42.844C191.352 42.774 191.383 42.718 191.434 42.676C191.485 42.6293 191.551 42.606 191.63 42.606H192.26V45.049H194.29V45.952H192.26V50.208C192.26 50.5067 192.332 50.7283 192.477 50.873C192.622 51.0177 192.808 51.09 193.037 51.09C193.168 51.09 193.28 51.0737 193.373 51.041C193.471 51.0037 193.555 50.964 193.625 50.922C193.695 50.88 193.753 50.8427 193.8 50.81C193.851 50.7727 193.896 50.754 193.933 50.754C193.998 50.754 194.057 50.7937 194.108 50.873L194.472 51.468C194.257 51.6687 193.998 51.8273 193.695 51.944C193.392 52.056 193.079 52.112 192.757 52.112ZM198.701 44.797C199.219 44.797 199.685 44.8833 200.101 45.056C200.521 45.2287 200.875 45.4737 201.165 45.791C201.459 46.1083 201.683 46.4933 201.837 46.946C201.995 47.394 202.075 47.8957 202.075 48.451C202.075 49.011 201.995 49.515 201.837 49.963C201.683 50.411 201.459 50.7937 201.165 51.111C200.875 51.4283 200.521 51.6733 200.101 51.846C199.685 52.014 199.219 52.098 198.701 52.098C198.183 52.098 197.714 52.014 197.294 51.846C196.878 51.6733 196.524 51.4283 196.23 51.111C195.936 50.7937 195.709 50.411 195.551 49.963C195.392 49.515 195.313 49.011 195.313 48.451C195.313 47.8957 195.392 47.394 195.551 46.946C195.709 46.4933 195.936 46.1083 196.23 45.791C196.524 45.4737 196.878 45.2287 197.294 45.056C197.714 44.8833 198.183 44.797 198.701 44.797ZM198.701 51.125C199.401 51.125 199.923 50.8917 200.269 50.425C200.614 49.9537 200.787 49.298 200.787 48.458C200.787 47.6133 200.614 46.9553 200.269 46.484C199.923 46.0127 199.401 45.777 198.701 45.777C198.346 45.777 198.038 45.8377 197.777 45.959C197.515 46.0803 197.296 46.2553 197.119 46.484C196.946 46.7127 196.815 46.995 196.727 47.331C196.643 47.6623 196.601 48.038 196.601 48.458C196.601 48.878 196.643 49.2537 196.727 49.585C196.815 49.9163 196.946 50.1963 197.119 50.425C197.296 50.649 197.515 50.8217 197.777 50.943C198.038 51.0643 198.346 51.125 198.701 51.125ZM208.466 52.112C207.906 52.112 207.474 51.9557 207.171 51.643C206.872 51.3303 206.723 50.88 206.723 50.292V45.952H205.869C205.794 45.952 205.731 45.931 205.68 45.889C205.629 45.8423 205.603 45.7723 205.603 45.679V45.182L206.765 45.035L207.052 42.844C207.061 42.774 207.092 42.718 207.143 42.676C207.194 42.6293 207.26 42.606 207.339 42.606H207.969V45.049H209.999V45.952H207.969V50.208C207.969 50.5067 208.041 50.7283 208.186 50.873C208.331 51.0177 208.517 51.09 208.746 51.09C208.877 51.09 208.989 51.0737 209.082 51.041C209.18 51.0037 209.264 50.964 209.334 50.922C209.404 50.88 209.462 50.8427 209.509 50.81C209.56 50.7727 209.605 50.754 209.642 50.754C209.707 50.754 209.766 50.7937 209.817 50.873L210.181 51.468C209.966 51.6687 209.707 51.8273 209.404 51.944C209.101 52.056 208.788 52.112 208.466 52.112ZM211.54 52V41.689H212.786V45.861C213.089 45.539 213.425 45.2823 213.794 45.091C214.162 44.895 214.587 44.797 215.068 44.797C215.455 44.797 215.796 44.8623 216.09 44.993C216.388 45.119 216.636 45.301 216.832 45.539C217.032 45.7723 217.184 46.0547 217.287 46.386C217.389 46.7173 217.441 47.0837 217.441 47.485V52H216.195V47.485C216.195 46.9483 216.071 46.533 215.824 46.239C215.581 45.9403 215.208 45.791 214.704 45.791C214.335 45.791 213.99 45.8797 213.668 46.057C213.35 46.2343 213.056 46.4747 212.786 46.778V52H211.54ZM220.705 44.909V52H219.459V44.909H220.705ZM220.985 42.683C220.985 42.8043 220.959 42.9187 220.908 43.026C220.861 43.1287 220.796 43.222 220.712 43.306C220.633 43.3853 220.539 43.4483 220.432 43.495C220.325 43.5417 220.21 43.565 220.089 43.565C219.968 43.565 219.853 43.5417 219.746 43.495C219.643 43.4483 219.55 43.3853 219.466 43.306C219.387 43.222 219.324 43.1287 219.277 43.026C219.23 42.9187 219.207 42.8043 219.207 42.683C219.207 42.5617 219.23 42.4473 219.277 42.34C219.324 42.228 219.387 42.1323 219.466 42.053C219.55 41.969 219.643 41.9037 219.746 41.857C219.853 41.8103 219.968 41.787 220.089 41.787C220.21 41.787 220.325 41.8103 220.432 41.857C220.539 41.9037 220.633 41.969 220.712 42.053C220.796 42.1323 220.861 42.228 220.908 42.34C220.959 42.4473 220.985 42.5617 220.985 42.683ZM222.901 52V44.909H223.643C223.82 44.909 223.932 44.9953 223.979 45.168L224.077 45.938C224.385 45.5973 224.728 45.322 225.106 45.112C225.489 44.902 225.93 44.797 226.429 44.797C226.816 44.797 227.157 44.8623 227.451 44.993C227.75 45.119 227.997 45.301 228.193 45.539C228.394 45.7723 228.545 46.0547 228.648 46.386C228.751 46.7173 228.802 47.0837 228.802 47.485V52H227.556V47.485C227.556 46.9483 227.432 46.533 227.185 46.239C226.942 45.9403 226.569 45.791 226.065 45.791C225.696 45.791 225.351 45.8797 225.029 46.057C224.712 46.2343 224.418 46.4747 224.147 46.778V52H222.901ZM233.067 44.79C233.375 44.79 233.662 44.825 233.928 44.895C234.199 44.9603 234.444 45.0583 234.663 45.189H236.588V45.651C236.588 45.805 236.49 45.903 236.294 45.945L235.489 46.057C235.648 46.3603 235.727 46.6987 235.727 47.072C235.727 47.4173 235.66 47.7323 235.524 48.017C235.394 48.297 235.209 48.5373 234.971 48.738C234.738 48.9387 234.458 49.0927 234.131 49.2C233.809 49.3073 233.455 49.361 233.067 49.361C232.736 49.361 232.423 49.3213 232.129 49.242C231.98 49.3353 231.866 49.4357 231.786 49.543C231.712 49.6503 231.674 49.7553 231.674 49.858C231.674 50.026 231.742 50.1543 231.877 50.243C232.013 50.327 232.192 50.3877 232.416 50.425C232.64 50.4623 232.895 50.4857 233.179 50.495C233.464 50.5043 233.753 50.5207 234.047 50.544C234.346 50.5627 234.638 50.5977 234.922 50.649C235.207 50.7003 235.461 50.7843 235.685 50.901C235.909 51.0177 236.089 51.1787 236.224 51.384C236.36 51.5893 236.427 51.8553 236.427 52.182C236.427 52.4853 236.35 52.7793 236.196 53.064C236.047 53.3487 235.83 53.6007 235.545 53.82C235.261 54.044 234.913 54.2213 234.502 54.352C234.092 54.4873 233.627 54.555 233.109 54.555C232.591 54.555 232.136 54.5037 231.744 54.401C231.357 54.2983 231.035 54.1607 230.778 53.988C230.522 53.8153 230.328 53.6147 230.197 53.386C230.071 53.162 230.008 52.9263 230.008 52.679C230.008 52.329 230.118 52.0327 230.337 51.79C230.561 51.5427 230.867 51.3467 231.254 51.202C231.054 51.1087 230.893 50.985 230.771 50.831C230.655 50.6723 230.596 50.4623 230.596 50.201C230.596 50.0983 230.615 49.9933 230.652 49.886C230.69 49.774 230.746 49.6643 230.82 49.557C230.9 49.4497 230.995 49.347 231.107 49.249C231.219 49.151 231.35 49.0647 231.499 48.99C231.149 48.794 230.874 48.535 230.673 48.213C230.477 47.8863 230.379 47.506 230.379 47.072C230.379 46.7267 230.445 46.414 230.575 46.134C230.711 45.8493 230.897 45.609 231.135 45.413C231.373 45.2123 231.656 45.0583 231.982 44.951C232.314 44.8437 232.675 44.79 233.067 44.79ZM235.279 52.385C235.279 52.2077 235.23 52.0653 235.132 51.958C235.034 51.8507 234.901 51.769 234.733 51.713C234.565 51.6523 234.372 51.608 234.152 51.58C233.933 51.552 233.702 51.5333 233.459 51.524C233.217 51.51 232.969 51.496 232.717 51.482C232.465 51.468 232.225 51.4423 231.996 51.405C231.73 51.531 231.513 51.685 231.345 51.867C231.182 52.049 231.1 52.266 231.1 52.518C231.1 52.6767 231.14 52.8237 231.219 52.959C231.303 53.099 231.429 53.218 231.597 53.316C231.765 53.4187 231.975 53.498 232.227 53.554C232.484 53.6147 232.785 53.645 233.13 53.645C233.466 53.645 233.767 53.6147 234.033 53.554C234.299 53.4933 234.523 53.407 234.705 53.295C234.892 53.183 235.034 53.05 235.132 52.896C235.23 52.742 235.279 52.5717 235.279 52.385ZM233.067 48.535C233.319 48.535 233.541 48.5 233.732 48.43C233.928 48.36 234.092 48.262 234.222 48.136C234.353 48.01 234.451 47.8607 234.516 47.688C234.582 47.5107 234.614 47.317 234.614 47.107C234.614 46.673 234.481 46.3277 234.215 46.071C233.954 45.8143 233.571 45.686 233.067 45.686C232.568 45.686 232.185 45.8143 231.919 46.071C231.658 46.3277 231.527 46.673 231.527 47.107C231.527 47.317 231.56 47.5107 231.625 47.688C231.695 47.8607 231.796 48.01 231.926 48.136C232.057 48.262 232.218 48.36 232.409 48.43C232.601 48.5 232.82 48.535 233.067 48.535ZM241.891 46.078C241.835 46.1807 241.748 46.232 241.632 46.232C241.562 46.232 241.482 46.2063 241.394 46.155C241.305 46.1037 241.195 46.0477 241.065 45.987C240.939 45.9217 240.787 45.8633 240.61 45.812C240.432 45.756 240.222 45.728 239.98 45.728C239.77 45.728 239.581 45.756 239.413 45.812C239.245 45.8633 239.1 45.9357 238.979 46.029C238.862 46.1223 238.771 46.232 238.706 46.358C238.645 46.4793 238.615 46.6123 238.615 46.757C238.615 46.939 238.666 47.0907 238.769 47.212C238.876 47.3333 239.016 47.4383 239.189 47.527C239.361 47.6157 239.557 47.695 239.777 47.765C239.996 47.8303 240.22 47.9027 240.449 47.982C240.682 48.0567 240.908 48.1407 241.128 48.234C241.347 48.3273 241.543 48.444 241.716 48.584C241.888 48.724 242.026 48.8967 242.129 49.102C242.236 49.3027 242.29 49.5453 242.29 49.83C242.29 50.1567 242.231 50.46 242.115 50.74C241.998 51.0153 241.825 51.2557 241.597 51.461C241.368 51.6617 241.088 51.8203 240.757 51.937C240.425 52.0537 240.043 52.112 239.609 52.112C239.114 52.112 238.666 52.0327 238.265 51.874C237.863 51.7107 237.523 51.503 237.243 51.251L237.537 50.775C237.574 50.7143 237.618 50.6677 237.67 50.635C237.721 50.6023 237.789 50.586 237.873 50.586C237.957 50.586 238.045 50.6187 238.139 50.684C238.232 50.7493 238.344 50.8217 238.475 50.901C238.61 50.9803 238.771 51.0527 238.958 51.118C239.149 51.1833 239.387 51.216 239.672 51.216C239.914 51.216 240.127 51.1857 240.309 51.125C240.491 51.0597 240.642 50.9733 240.764 50.866C240.885 50.7587 240.974 50.635 241.03 50.495C241.09 50.355 241.121 50.2057 241.121 50.047C241.121 49.851 241.067 49.69 240.96 49.564C240.857 49.4333 240.719 49.3237 240.547 49.235C240.374 49.1417 240.176 49.0623 239.952 48.997C239.732 48.927 239.506 48.8547 239.273 48.78C239.044 48.7053 238.818 48.6213 238.594 48.528C238.374 48.43 238.178 48.3087 238.006 48.164C237.833 48.0193 237.693 47.842 237.586 47.632C237.483 47.4173 237.432 47.1583 237.432 46.855C237.432 46.5843 237.488 46.3253 237.6 46.078C237.712 45.826 237.875 45.6067 238.09 45.42C238.304 45.2287 238.568 45.077 238.881 44.965C239.193 44.853 239.55 44.797 239.952 44.797C240.418 44.797 240.836 44.8717 241.205 45.021C241.578 45.1657 241.9 45.3663 242.171 45.623L241.891 46.078ZM248.757 52.112C248.197 52.112 247.765 51.9557 247.462 51.643C247.163 51.3303 247.014 50.88 247.014 50.292V45.952H246.16C246.085 45.952 246.022 45.931 245.971 45.889C245.92 45.8423 245.894 45.7723 245.894 45.679V45.182L247.056 45.035L247.343 42.844C247.352 42.774 247.383 42.718 247.434 42.676C247.485 42.6293 247.551 42.606 247.63 42.606H248.26V45.049H250.29V45.952H248.26V50.208C248.26 50.5067 248.332 50.7283 248.477 50.873C248.622 51.0177 248.808 51.09 249.037 51.09C249.168 51.09 249.28 51.0737 249.373 51.041C249.471 51.0037 249.555 50.964 249.625 50.922C249.695 50.88 249.753 50.8427 249.8 50.81C249.851 50.7727 249.896 50.754 249.933 50.754C249.998 50.754 250.057 50.7937 250.108 50.873L250.472 51.468C250.257 51.6687 249.998 51.8273 249.695 51.944C249.392 52.056 249.079 52.112 248.757 52.112ZM251.831 52V41.689H253.077V45.861C253.38 45.539 253.716 45.2823 254.085 45.091C254.453 44.895 254.878 44.797 255.359 44.797C255.746 44.797 256.087 44.8623 256.381 44.993C256.679 45.119 256.927 45.301 257.123 45.539C257.323 45.7723 257.475 46.0547 257.578 46.386C257.68 46.7173 257.732 47.0837 257.732 47.485V52H256.486V47.485C256.486 46.9483 256.362 46.533 256.115 46.239C255.872 45.9403 255.499 45.791 254.995 45.791C254.626 45.791 254.281 45.8797 253.959 46.057C253.641 46.2343 253.347 46.4747 253.077 46.778V52H251.831ZM264.818 52H264.265C264.144 52 264.046 51.9813 263.971 51.944C263.896 51.9067 263.847 51.8273 263.824 51.706L263.684 51.048C263.497 51.216 263.315 51.3677 263.138 51.503C262.961 51.6337 262.774 51.7457 262.578 51.839C262.382 51.9277 262.172 51.9953 261.948 52.042C261.729 52.0887 261.484 52.112 261.213 52.112C260.938 52.112 260.679 52.0747 260.436 52C260.198 51.9207 259.99 51.804 259.813 51.65C259.636 51.496 259.493 51.3023 259.386 51.069C259.283 50.831 259.232 50.551 259.232 50.229C259.232 49.949 259.309 49.6807 259.463 49.424C259.617 49.1627 259.864 48.9317 260.205 48.731C260.55 48.5303 261.001 48.367 261.556 48.241C262.111 48.1103 262.79 48.0357 263.593 48.017V47.464C263.593 46.9133 263.474 46.498 263.236 46.218C263.003 45.9333 262.655 45.791 262.193 45.791C261.89 45.791 261.633 45.8307 261.423 45.91C261.218 45.9847 261.038 46.071 260.884 46.169C260.735 46.2623 260.604 46.3487 260.492 46.428C260.385 46.5027 260.277 46.54 260.17 46.54C260.086 46.54 260.011 46.519 259.946 46.477C259.885 46.4303 259.836 46.3743 259.799 46.309L259.575 45.91C259.967 45.532 260.389 45.2497 260.842 45.063C261.295 44.8763 261.796 44.783 262.347 44.783C262.744 44.783 263.096 44.8483 263.404 44.979C263.712 45.1097 263.971 45.2917 264.181 45.525C264.391 45.7583 264.55 46.0407 264.657 46.372C264.764 46.7033 264.818 47.0673 264.818 47.464V52ZM261.584 51.237C261.803 51.237 262.004 51.216 262.186 51.174C262.368 51.1273 262.538 51.0643 262.697 50.985C262.86 50.901 263.014 50.8007 263.159 50.684C263.308 50.5673 263.453 50.4343 263.593 50.285V48.808C263.019 48.8267 262.531 48.8733 262.13 48.948C261.729 49.018 261.402 49.1113 261.15 49.228C260.898 49.3447 260.714 49.4823 260.597 49.641C260.485 49.7997 260.429 49.977 260.429 50.173C260.429 50.3597 260.459 50.5207 260.52 50.656C260.581 50.7913 260.662 50.9033 260.765 50.992C260.868 51.076 260.989 51.139 261.129 51.181C261.269 51.2183 261.421 51.237 261.584 51.237ZM268.855 52.112C268.295 52.112 267.863 51.9557 267.56 51.643C267.261 51.3303 267.112 50.88 267.112 50.292V45.952H266.258C266.183 45.952 266.12 45.931 266.069 45.889C266.017 45.8423 265.992 45.7723 265.992 45.679V45.182L267.154 45.035L267.441 42.844C267.45 42.774 267.48 42.718 267.532 42.676C267.583 42.6293 267.648 42.606 267.728 42.606H268.358V45.049H270.388V45.952H268.358V50.208C268.358 50.5067 268.43 50.7283 268.575 50.873C268.719 51.0177 268.906 51.09 269.135 51.09C269.265 51.09 269.377 51.0737 269.471 51.041C269.569 51.0037 269.653 50.964 269.723 50.922C269.793 50.88 269.851 50.8427 269.898 50.81C269.949 50.7727 269.993 50.754 270.031 50.754C270.096 50.754 270.154 50.7937 270.206 50.873L270.57 51.468C270.355 51.6687 270.096 51.8273 269.793 51.944C269.489 52.056 269.177 52.112 268.855 52.112ZM279.843 52H279.29C279.169 52 279.071 51.9813 278.996 51.944C278.922 51.9067 278.873 51.8273 278.849 51.706L278.709 51.048C278.523 51.216 278.341 51.3677 278.163 51.503C277.986 51.6337 277.799 51.7457 277.603 51.839C277.407 51.9277 277.197 51.9953 276.973 52.042C276.754 52.0887 276.509 52.112 276.238 52.112C275.963 52.112 275.704 52.0747 275.461 52C275.223 51.9207 275.016 51.804 274.838 51.65C274.661 51.496 274.519 51.3023 274.411 51.069C274.309 50.831 274.257 50.551 274.257 50.229C274.257 49.949 274.334 49.6807 274.488 49.424C274.642 49.1627 274.89 48.9317 275.23 48.731C275.576 48.5303 276.026 48.367 276.581 48.241C277.137 48.1103 277.816 48.0357 278.618 48.017V47.464C278.618 46.9133 278.499 46.498 278.261 46.218C278.028 45.9333 277.68 45.791 277.218 45.791C276.915 45.791 276.658 45.8307 276.448 45.91C276.243 45.9847 276.063 46.071 275.909 46.169C275.76 46.2623 275.629 46.3487 275.517 46.428C275.41 46.5027 275.303 46.54 275.195 46.54C275.111 46.54 275.037 46.519 274.971 46.477C274.911 46.4303 274.862 46.3743 274.824 46.309L274.6 45.91C274.992 45.532 275.415 45.2497 275.867 45.063C276.32 44.8763 276.822 44.783 277.372 44.783C277.769 44.783 278.121 44.8483 278.429 44.979C278.737 45.1097 278.996 45.2917 279.206 45.525C279.416 45.7583 279.575 46.0407 279.682 46.372C279.79 46.7033 279.843 47.0673 279.843 47.464V52ZM276.609 51.237C276.829 51.237 277.029 51.216 277.211 51.174C277.393 51.1273 277.564 51.0643 277.722 50.985C277.886 50.901 278.04 50.8007 278.184 50.684C278.334 50.5673 278.478 50.4343 278.618 50.285V48.808C278.044 48.8267 277.557 48.8733 277.155 48.948C276.754 49.018 276.427 49.1113 276.175 49.228C275.923 49.3447 275.739 49.4823 275.622 49.641C275.51 49.7997 275.454 49.977 275.454 50.173C275.454 50.3597 275.485 50.5207 275.545 50.656C275.606 50.7913 275.688 50.9033 275.79 50.992C275.893 51.076 276.014 51.139 276.154 51.181C276.294 51.2183 276.446 51.237 276.609 51.237ZM281.731 52V44.909H282.445C282.58 44.909 282.674 44.9347 282.725 44.986C282.776 45.0373 282.811 45.126 282.83 45.252L282.914 46.358C283.157 45.8633 283.455 45.4783 283.81 45.203C284.169 44.923 284.589 44.783 285.07 44.783C285.266 44.783 285.443 44.8063 285.602 44.853C285.761 44.895 285.908 44.9557 286.043 45.035L285.882 45.966C285.849 46.0827 285.777 46.141 285.665 46.141C285.6 46.141 285.499 46.12 285.364 46.078C285.229 46.0313 285.04 46.008 284.797 46.008C284.363 46.008 283.999 46.134 283.705 46.386C283.416 46.638 283.173 47.0043 282.977 47.485V52H281.731ZM290.184 44.797C290.609 44.797 291.001 44.8693 291.36 45.014C291.72 45.154 292.03 45.3593 292.291 45.63C292.553 45.896 292.756 46.2273 292.9 46.624C293.05 47.016 293.124 47.464 293.124 47.968C293.124 48.164 293.103 48.2947 293.061 48.36C293.019 48.4253 292.94 48.458 292.823 48.458H288.105C288.115 48.906 288.175 49.2957 288.287 49.627C288.399 49.9583 288.553 50.236 288.749 50.46C288.945 50.6793 289.179 50.845 289.449 50.957C289.72 51.0643 290.023 51.118 290.359 51.118C290.672 51.118 290.94 51.083 291.164 51.013C291.393 50.9383 291.589 50.859 291.752 50.775C291.916 50.691 292.051 50.614 292.158 50.544C292.27 50.4693 292.366 50.432 292.445 50.432C292.548 50.432 292.627 50.4717 292.683 50.551L293.033 51.006C292.879 51.1927 292.695 51.356 292.48 51.496C292.266 51.6313 292.035 51.7433 291.787 51.832C291.545 51.9207 291.293 51.986 291.031 52.028C290.77 52.0747 290.511 52.098 290.254 52.098C289.764 52.098 289.312 52.0163 288.896 51.853C288.486 51.685 288.129 51.4423 287.825 51.125C287.527 50.803 287.293 50.4063 287.125 49.935C286.957 49.4637 286.873 48.9223 286.873 48.311C286.873 47.8163 286.948 47.3543 287.097 46.925C287.251 46.4957 287.471 46.1247 287.755 45.812C288.04 45.4947 288.388 45.2473 288.798 45.07C289.209 44.888 289.671 44.797 290.184 44.797ZM290.212 45.714C289.61 45.714 289.137 45.889 288.791 46.239C288.446 46.5843 288.231 47.065 288.147 47.681H292.004C292.004 47.3917 291.965 47.128 291.885 46.89C291.806 46.6473 291.689 46.4397 291.535 46.267C291.381 46.0897 291.192 45.9543 290.968 45.861C290.749 45.763 290.497 45.714 290.212 45.714ZM303.159 44.909V54.401H301.913V50.95C301.615 51.2953 301.274 51.573 300.891 51.783C300.513 51.993 300.079 52.098 299.589 52.098C299.183 52.098 298.815 52.021 298.483 51.867C298.152 51.7083 297.87 51.4773 297.636 51.174C297.403 50.8707 297.223 50.4927 297.097 50.04C296.971 49.5873 296.908 49.067 296.908 48.479C296.908 47.9563 296.978 47.471 297.118 47.023C297.258 46.5703 297.459 46.1783 297.72 45.847C297.986 45.5157 298.308 45.2567 298.686 45.07C299.064 44.8787 299.494 44.783 299.974 44.783C300.432 44.783 300.819 44.8647 301.136 45.028C301.458 45.1913 301.745 45.4223 301.997 45.721L302.081 45.168C302.128 44.9953 302.24 44.909 302.417 44.909H303.159ZM300.002 51.09C300.408 51.09 300.763 50.9967 301.066 50.81C301.374 50.6233 301.657 50.3597 301.913 50.019V46.589C301.689 46.2903 301.44 46.078 301.164 45.952C300.889 45.8213 300.586 45.756 300.254 45.756C299.592 45.756 299.083 45.9917 298.728 46.463C298.374 46.9343 298.196 47.6063 298.196 48.479C298.196 48.941 298.236 49.3377 298.315 49.669C298.395 49.9957 298.511 50.2663 298.665 50.481C298.819 50.691 299.008 50.845 299.232 50.943C299.456 51.041 299.713 51.09 300.002 51.09ZM306.325 44.909V49.431C306.325 49.9677 306.448 50.383 306.696 50.677C306.943 50.971 307.316 51.118 307.816 51.118C308.18 51.118 308.523 51.0317 308.845 50.859C309.167 50.6863 309.463 50.446 309.734 50.138V44.909H310.98V52H310.238C310.06 52 309.948 51.9137 309.902 51.741L309.804 50.978C309.496 51.3187 309.15 51.594 308.768 51.804C308.385 52.0093 307.946 52.112 307.452 52.112C307.064 52.112 306.721 52.049 306.423 51.923C306.129 51.7923 305.881 51.6103 305.681 51.377C305.48 51.1437 305.328 50.8613 305.226 50.53C305.128 50.1987 305.079 49.8323 305.079 49.431V44.909H306.325ZM314.412 44.909V52H313.166V44.909H314.412ZM314.692 42.683C314.692 42.8043 314.666 42.9187 314.615 43.026C314.568 43.1287 314.503 43.222 314.419 43.306C314.34 43.3853 314.246 43.4483 314.139 43.495C314.032 43.5417 313.917 43.565 313.796 43.565C313.675 43.565 313.56 43.5417 313.453 43.495C313.35 43.4483 313.257 43.3853 313.173 43.306C313.094 43.222 313.031 43.1287 312.984 43.026C312.937 42.9187 312.914 42.8043 312.914 42.683C312.914 42.5617 312.937 42.4473 312.984 42.34C313.031 42.228 313.094 42.1323 313.173 42.053C313.257 41.969 313.35 41.9037 313.453 41.857C313.56 41.8103 313.675 41.787 313.796 41.787C313.917 41.787 314.032 41.8103 314.139 41.857C314.246 41.9037 314.34 41.969 314.419 42.053C314.503 42.1323 314.568 42.228 314.615 42.34C314.666 42.4473 314.692 42.5617 314.692 42.683ZM318.757 52.112C318.197 52.112 317.765 51.9557 317.462 51.643C317.163 51.3303 317.014 50.88 317.014 50.292V45.952H316.16C316.085 45.952 316.022 45.931 315.971 45.889C315.92 45.8423 315.894 45.7723 315.894 45.679V45.182L317.056 45.035L317.343 42.844C317.352 42.774 317.383 42.718 317.434 42.676C317.485 42.6293 317.551 42.606 317.63 42.606H318.26V45.049H320.29V45.952H318.26V50.208C318.26 50.5067 318.332 50.7283 318.477 50.873C318.622 51.0177 318.808 51.09 319.037 51.09C319.168 51.09 319.28 51.0737 319.373 51.041C319.471 51.0037 319.555 50.964 319.625 50.922C319.695 50.88 319.753 50.8427 319.8 50.81C319.851 50.7727 319.896 50.754 319.933 50.754C319.998 50.754 320.057 50.7937 320.108 50.873L320.472 51.468C320.257 51.6687 319.998 51.8273 319.695 51.944C319.392 52.056 319.079 52.112 318.757 52.112ZM324.638 44.797C325.062 44.797 325.454 44.8693 325.814 45.014C326.173 45.154 326.483 45.3593 326.745 45.63C327.006 45.896 327.209 46.2273 327.354 46.624C327.503 47.016 327.578 47.464 327.578 47.968C327.578 48.164 327.557 48.2947 327.515 48.36C327.473 48.4253 327.393 48.458 327.277 48.458H322.559C322.568 48.906 322.629 49.2957 322.741 49.627C322.853 49.9583 323.007 50.236 323.203 50.46C323.399 50.6793 323.632 50.845 323.903 50.957C324.173 51.0643 324.477 51.118 324.813 51.118C325.125 51.118 325.394 51.083 325.618 51.013C325.846 50.9383 326.042 50.859 326.206 50.775C326.369 50.691 326.504 50.614 326.612 50.544C326.724 50.4693 326.819 50.432 326.899 50.432C327.001 50.432 327.081 50.4717 327.137 50.551L327.487 51.006C327.333 51.1927 327.148 51.356 326.934 51.496C326.719 51.6313 326.488 51.7433 326.241 51.832C325.998 51.9207 325.746 51.986 325.485 52.028C325.223 52.0747 324.964 52.098 324.708 52.098C324.218 52.098 323.765 52.0163 323.35 51.853C322.939 51.685 322.582 51.4423 322.279 51.125C321.98 50.803 321.747 50.4063 321.579 49.935C321.411 49.4637 321.327 48.9223 321.327 48.311C321.327 47.8163 321.401 47.3543 321.551 46.925C321.705 46.4957 321.924 46.1247 322.209 45.812C322.493 45.4947 322.841 45.2473 323.252 45.07C323.662 44.888 324.124 44.797 324.638 44.797ZM324.666 45.714C324.064 45.714 323.59 45.889 323.245 46.239C322.899 46.5843 322.685 47.065 322.601 47.681H326.458C326.458 47.3917 326.418 47.128 326.339 46.89C326.259 46.6473 326.143 46.4397 325.989 46.267C325.835 46.0897 325.646 45.9543 325.422 45.861C325.202 45.763 324.95 45.714 324.666 45.714ZM328.766 51.23C328.766 51.1087 328.787 50.9943 328.829 50.887C328.876 50.7797 328.937 50.6863 329.011 50.607C329.091 50.5277 329.184 50.4647 329.291 50.418C329.399 50.3713 329.513 50.348 329.634 50.348C329.756 50.348 329.87 50.3713 329.977 50.418C330.085 50.4647 330.178 50.5277 330.257 50.607C330.337 50.6863 330.397 50.7797 330.439 50.887C330.486 50.9943 330.509 51.1087 330.509 51.23C330.509 51.356 330.486 51.4727 330.439 51.58C330.397 51.6827 330.337 51.7737 330.257 51.853C330.178 51.9323 330.085 51.993 329.977 52.035C329.87 52.0817 329.756 52.105 329.634 52.105C329.513 52.105 329.399 52.0817 329.291 52.035C329.184 51.993 329.091 51.9323 329.011 51.853C328.937 51.7737 328.876 51.6827 328.829 51.58C328.787 51.4727 328.766 51.356 328.766 51.23ZM331.733 51.23C331.733 51.1087 331.754 50.9943 331.796 50.887C331.843 50.7797 331.904 50.6863 331.978 50.607C332.058 50.5277 332.151 50.4647 332.258 50.418C332.366 50.3713 332.48 50.348 332.601 50.348C332.723 50.348 332.837 50.3713 332.944 50.418C333.052 50.4647 333.145 50.5277 333.224 50.607C333.304 50.6863 333.364 50.7797 333.406 50.887C333.453 50.9943 333.476 51.1087 333.476 51.23C333.476 51.356 333.453 51.4727 333.406 51.58C333.364 51.6827 333.304 51.7737 333.224 51.853C333.145 51.9323 333.052 51.993 332.944 52.035C332.837 52.0817 332.723 52.105 332.601 52.105C332.48 52.105 332.366 52.0817 332.258 52.035C332.151 51.993 332.058 51.9323 331.978 51.853C331.904 51.7737 331.843 51.6827 331.796 51.58C331.754 51.4727 331.733 51.356 331.733 51.23ZM334.7 51.23C334.7 51.1087 334.721 50.9943 334.763 50.887C334.81 50.7797 334.87 50.6863 334.945 50.607C335.024 50.5277 335.118 50.4647 335.225 50.418C335.332 50.3713 335.447 50.348 335.568 50.348C335.689 50.348 335.804 50.3713 335.911 50.418C336.018 50.4647 336.112 50.5277 336.191 50.607C336.27 50.6863 336.331 50.7797 336.373 50.887C336.42 50.9943 336.443 51.1087 336.443 51.23C336.443 51.356 336.42 51.4727 336.373 51.58C336.331 51.6827 336.27 51.7737 336.191 51.853C336.112 51.9323 336.018 51.993 335.911 52.035C335.804 52.0817 335.689 52.105 335.568 52.105C335.447 52.105 335.332 52.0817 335.225 52.035C335.118 51.993 335.024 51.9323 334.945 51.853C334.87 51.7737 334.81 51.6827 334.763 51.58C334.721 51.4727 334.7 51.356 334.7 51.23Z" fill="#828282"/>
<path d="M74.096 27.402C74.096 27.9713 74.026 28.4847 73.886 28.942C73.746 29.3993 73.536 29.789 73.256 30.111C72.9807 30.433 72.6353 30.6803 72.22 30.853C71.8047 31.0257 71.3217 31.112 70.771 31.112C70.519 31.112 70.2717 31.0957 70.029 31.063C69.7863 31.035 69.532 30.9883 69.266 30.923L69.364 29.803C69.3733 29.7003 69.4107 29.6187 69.476 29.558C69.546 29.4927 69.6463 29.46 69.777 29.46C69.8563 29.46 69.959 29.4763 70.085 29.509C70.2157 29.5417 70.379 29.558 70.575 29.558C70.841 29.558 71.0767 29.5207 71.282 29.446C71.4873 29.3667 71.6577 29.243 71.793 29.075C71.933 28.907 72.038 28.69 72.108 28.424C72.178 28.1533 72.213 27.8267 72.213 27.444V20.878H74.096V27.402ZM79.1013 23.706C79.638 23.706 80.1233 23.7923 80.5573 23.965C80.996 24.1377 81.3693 24.3827 81.6773 24.7C81.9853 25.0173 82.2233 25.4047 82.3913 25.862C82.5593 26.3193 82.6433 26.8303 82.6433 27.395C82.6433 27.9643 82.5593 28.4777 82.3913 28.935C82.2233 29.3923 81.9853 29.782 81.6773 30.104C81.3693 30.426 80.996 30.6733 80.5573 30.846C80.1233 31.0187 79.638 31.105 79.1013 31.105C78.5647 31.105 78.077 31.0187 77.6383 30.846C77.1997 30.6733 76.824 30.426 76.5113 30.104C76.2033 29.782 75.963 29.3923 75.7903 28.935C75.6223 28.4777 75.5383 27.9643 75.5383 27.395C75.5383 26.8303 75.6223 26.3193 75.7903 25.862C75.963 25.4047 76.2033 25.0173 76.5113 24.7C76.824 24.3827 77.1997 24.1377 77.6383 23.965C78.077 23.7923 78.5647 23.706 79.1013 23.706ZM79.1013 29.775C79.6987 29.775 80.1397 29.5743 80.4243 29.173C80.7137 28.7717 80.8583 28.1837 80.8583 27.409C80.8583 26.6343 80.7137 26.044 80.4243 25.638C80.1397 25.232 79.6987 25.029 79.1013 25.029C78.4947 25.029 78.0467 25.2343 77.7573 25.645C77.468 26.051 77.3233 26.639 77.3233 27.409C77.3233 28.179 77.468 28.767 77.7573 29.173C78.0467 29.5743 78.4947 29.775 79.1013 29.775ZM89.0394 25.337C88.988 25.4023 88.9367 25.4537 88.8854 25.491C88.8387 25.5283 88.7687 25.547 88.6754 25.547C88.5867 25.547 88.5004 25.5213 88.4164 25.47C88.3324 25.414 88.232 25.3533 88.1154 25.288C87.9987 25.218 87.8587 25.1573 87.6954 25.106C87.5367 25.05 87.3384 25.022 87.1004 25.022C86.797 25.022 86.531 25.078 86.3024 25.19C86.0737 25.2973 85.8824 25.4537 85.7284 25.659C85.579 25.8643 85.467 26.114 85.3924 26.408C85.3177 26.6973 85.2804 27.0263 85.2804 27.395C85.2804 27.7777 85.32 28.1183 85.3994 28.417C85.4834 28.7157 85.6024 28.9677 85.7564 29.173C85.9104 29.3737 86.097 29.5277 86.3164 29.635C86.5357 29.7377 86.783 29.789 87.0584 29.789C87.3337 29.789 87.5554 29.7563 87.7234 29.691C87.896 29.621 88.0407 29.5463 88.1574 29.467C88.274 29.383 88.3744 29.3083 88.4584 29.243C88.547 29.173 88.645 29.138 88.7524 29.138C88.8924 29.138 88.9974 29.1917 89.0674 29.299L89.5644 29.929C89.373 30.153 89.1654 30.342 88.9414 30.496C88.7174 30.6453 88.484 30.7667 88.2414 30.86C88.0034 30.9487 87.756 31.0117 87.4994 31.049C87.2427 31.0863 86.9884 31.105 86.7364 31.105C86.293 31.105 85.8754 31.0233 85.4834 30.86C85.0914 30.692 84.7484 30.4493 84.4544 30.132C84.165 29.8147 83.934 29.4273 83.7614 28.97C83.5934 28.508 83.5094 27.983 83.5094 27.395C83.5094 26.8677 83.584 26.38 83.7334 25.932C83.8874 25.4793 84.1114 25.0897 84.4054 24.763C84.6994 24.4317 85.0634 24.1727 85.4974 23.986C85.9314 23.7993 86.4307 23.706 86.9954 23.706C87.532 23.706 88.001 23.7923 88.4024 23.965C88.8084 24.1377 89.1724 24.385 89.4944 24.707L89.0394 25.337ZM93.6322 23.706C94.0849 23.706 94.5002 23.7783 94.8782 23.923C95.2609 24.0677 95.5899 24.28 95.8652 24.56C96.1406 24.8353 96.3552 25.176 96.5092 25.582C96.6632 25.9833 96.7402 26.443 96.7402 26.961C96.7402 27.0917 96.7332 27.2013 96.7192 27.29C96.7099 27.374 96.6889 27.4417 96.6562 27.493C96.6282 27.5397 96.5886 27.5747 96.5372 27.598C96.4859 27.6167 96.4206 27.626 96.3412 27.626H91.9032C91.9546 28.3633 92.1529 28.9047 92.4982 29.25C92.8436 29.5953 93.3009 29.768 93.8702 29.768C94.1502 29.768 94.3906 29.7353 94.5912 29.67C94.7966 29.6047 94.9739 29.5323 95.1232 29.453C95.2772 29.3737 95.4102 29.3013 95.5222 29.236C95.6389 29.1707 95.7509 29.138 95.8582 29.138C95.9282 29.138 95.9889 29.152 96.0402 29.18C96.0916 29.208 96.1359 29.2477 96.1732 29.299L96.6772 29.929C96.4859 30.153 96.2712 30.342 96.0332 30.496C95.7952 30.6453 95.5456 30.7667 95.2842 30.86C95.0276 30.9487 94.7639 31.0117 94.4932 31.049C94.2272 31.0863 93.9682 31.105 93.7162 31.105C93.2169 31.105 92.7526 31.0233 92.3232 30.86C91.8939 30.692 91.5206 30.447 91.2032 30.125C90.8859 29.7983 90.6362 29.397 90.4542 28.921C90.2722 28.4403 90.1812 27.885 90.1812 27.255C90.1812 26.765 90.2606 26.3053 90.4192 25.876C90.5779 25.442 90.8042 25.0663 91.0982 24.749C91.3969 24.427 91.7586 24.1727 92.1832 23.986C92.6126 23.7993 93.0956 23.706 93.6322 23.706ZM93.6672 24.945C93.1632 24.945 92.7689 25.0873 92.4842 25.372C92.1996 25.6567 92.0176 26.0603 91.9382 26.583H95.1862C95.1862 26.359 95.1559 26.149 95.0952 25.953C95.0346 25.7523 94.9412 25.5773 94.8152 25.428C94.6892 25.2787 94.5306 25.162 94.3392 25.078C94.1479 24.9893 93.9239 24.945 93.6672 24.945ZM99.9838 20.598V31H98.2548V20.598H99.9838ZM104.492 32.974C104.44 33.0953 104.373 33.1863 104.289 33.247C104.209 33.3123 104.086 33.345 103.918 33.345H102.63L103.974 30.468L101.069 23.818H102.581C102.721 23.818 102.828 23.8507 102.903 23.916C102.977 23.9813 103.033 24.056 103.071 24.14L104.604 27.864C104.655 27.9853 104.699 28.1113 104.737 28.242C104.774 28.3727 104.807 28.5033 104.835 28.634C104.872 28.4987 104.912 28.368 104.954 28.242C105 28.116 105.049 27.9877 105.101 27.857L106.543 24.14C106.58 24.0467 106.641 23.9697 106.725 23.909C106.813 23.8483 106.911 23.818 107.019 23.818H108.405L104.492 32.974ZM109.408 31V23.818H110.465C110.689 23.818 110.836 23.923 110.906 24.133L111.025 24.7C111.17 24.5507 111.322 24.4153 111.48 24.294C111.644 24.1727 111.814 24.0677 111.991 23.979C112.173 23.8903 112.367 23.8227 112.572 23.776C112.778 23.7293 113.002 23.706 113.244 23.706C113.636 23.706 113.984 23.7737 114.287 23.909C114.591 24.0397 114.843 24.2263 115.043 24.469C115.249 24.707 115.403 24.994 115.505 25.33C115.613 25.6613 115.666 26.0277 115.666 26.429V31H113.937V26.429C113.937 25.9903 113.835 25.652 113.629 25.414C113.429 25.1713 113.125 25.05 112.719 25.05C112.421 25.05 112.141 25.1177 111.879 25.253C111.618 25.3883 111.371 25.5727 111.137 25.806V31H109.408ZM124.818 29.614C125.243 29.614 125.612 29.5767 125.924 29.502C126.242 29.4227 126.543 29.3153 126.827 29.18V27.339H125.56C125.439 27.339 125.343 27.3063 125.273 27.241C125.203 27.171 125.168 27.087 125.168 26.989V25.925H128.535V30.02C128.279 30.2067 128.01 30.37 127.73 30.51C127.455 30.6453 127.159 30.7573 126.841 30.846C126.529 30.9347 126.193 31 125.833 31.042C125.474 31.0887 125.087 31.112 124.671 31.112C123.934 31.112 123.255 30.9837 122.634 30.727C122.014 30.4703 121.477 30.1133 121.024 29.656C120.572 29.1987 120.217 28.6527 119.96 28.018C119.708 27.3833 119.582 26.6903 119.582 25.939C119.582 25.1783 119.706 24.4807 119.953 23.846C120.201 23.2113 120.551 22.6653 121.003 22.208C121.461 21.7507 122.014 21.396 122.662 21.144C123.311 20.892 124.039 20.766 124.846 20.766C125.672 20.766 126.386 20.8897 126.988 21.137C127.595 21.3797 128.108 21.697 128.528 22.089L127.982 22.943C127.875 23.1157 127.733 23.202 127.555 23.202C127.443 23.202 127.329 23.1647 127.212 23.09C127.063 23.0013 126.909 22.9127 126.75 22.824C126.596 22.7353 126.424 22.6583 126.232 22.593C126.046 22.5277 125.833 22.474 125.595 22.432C125.362 22.39 125.091 22.369 124.783 22.369C124.284 22.369 123.831 22.453 123.425 22.621C123.024 22.789 122.681 23.0293 122.396 23.342C122.112 23.6547 121.892 24.0303 121.738 24.469C121.584 24.9077 121.507 25.3977 121.507 25.939C121.507 26.5223 121.589 27.0427 121.752 27.5C121.916 27.9527 122.144 28.3353 122.438 28.648C122.732 28.9607 123.082 29.201 123.488 29.369C123.894 29.5323 124.338 29.614 124.818 29.614ZM133.158 23.706C133.61 23.706 134.026 23.7783 134.404 23.923C134.786 24.0677 135.115 24.28 135.391 24.56C135.666 24.8353 135.881 25.176 136.035 25.582C136.189 25.9833 136.266 26.443 136.266 26.961C136.266 27.0917 136.259 27.2013 136.245 27.29C136.235 27.374 136.214 27.4417 136.182 27.493C136.154 27.5397 136.114 27.5747 136.063 27.598C136.011 27.6167 135.946 27.626 135.867 27.626H131.429C131.48 28.3633 131.678 28.9047 132.024 29.25C132.369 29.5953 132.826 29.768 133.396 29.768C133.676 29.768 133.916 29.7353 134.117 29.67C134.322 29.6047 134.499 29.5323 134.649 29.453C134.803 29.3737 134.936 29.3013 135.048 29.236C135.164 29.1707 135.276 29.138 135.384 29.138C135.454 29.138 135.514 29.152 135.566 29.18C135.617 29.208 135.661 29.2477 135.699 29.299L136.203 29.929C136.011 30.153 135.797 30.342 135.559 30.496C135.321 30.6453 135.071 30.7667 134.81 30.86C134.553 30.9487 134.289 31.0117 134.019 31.049C133.753 31.0863 133.494 31.105 133.242 31.105C132.742 31.105 132.278 31.0233 131.849 30.86C131.419 30.692 131.046 30.447 130.729 30.125C130.411 29.7983 130.162 29.397 129.98 28.921C129.798 28.4403 129.707 27.885 129.707 27.255C129.707 26.765 129.786 26.3053 129.945 25.876C130.103 25.442 130.33 25.0663 130.624 24.749C130.922 24.427 131.284 24.1727 131.709 23.986C132.138 23.7993 132.621 23.706 133.158 23.706ZM133.193 24.945C132.689 24.945 132.294 25.0873 132.01 25.372C131.725 25.6567 131.543 26.0603 131.464 26.583H134.712C134.712 26.359 134.681 26.149 134.621 25.953C134.56 25.7523 134.467 25.5773 134.341 25.428C134.215 25.2787 134.056 25.162 133.865 25.078C133.673 24.9893 133.449 24.945 133.193 24.945ZM140.734 23.706C141.271 23.706 141.756 23.7923 142.19 23.965C142.629 24.1377 143.002 24.3827 143.31 24.7C143.618 25.0173 143.856 25.4047 144.024 25.862C144.192 26.3193 144.276 26.8303 144.276 27.395C144.276 27.9643 144.192 28.4777 144.024 28.935C143.856 29.3923 143.618 29.782 143.31 30.104C143.002 30.426 142.629 30.6733 142.19 30.846C141.756 31.0187 141.271 31.105 140.734 31.105C140.197 31.105 139.71 31.0187 139.271 30.846C138.832 30.6733 138.457 30.426 138.144 30.104C137.836 29.782 137.596 29.3923 137.423 28.935C137.255 28.4777 137.171 27.9643 137.171 27.395C137.171 26.8303 137.255 26.3193 137.423 25.862C137.596 25.4047 137.836 25.0173 138.144 24.7C138.457 24.3827 138.832 24.1377 139.271 23.965C139.71 23.7923 140.197 23.706 140.734 23.706ZM140.734 29.775C141.331 29.775 141.772 29.5743 142.057 29.173C142.346 28.7717 142.491 28.1837 142.491 27.409C142.491 26.6343 142.346 26.044 142.057 25.638C141.772 25.232 141.331 25.029 140.734 25.029C140.127 25.029 139.679 25.2343 139.39 25.645C139.101 26.051 138.956 26.639 138.956 27.409C138.956 28.179 139.101 28.767 139.39 29.173C139.679 29.5743 140.127 29.775 140.734 29.775ZM145.625 31V23.818H146.64C146.818 23.818 146.941 23.8507 147.011 23.916C147.081 23.9813 147.128 24.0933 147.151 24.252L147.256 25.12C147.513 24.6767 147.814 24.3267 148.159 24.07C148.505 23.8133 148.892 23.685 149.321 23.685C149.676 23.685 149.97 23.7667 150.203 23.93L149.979 25.225C149.965 25.309 149.935 25.3697 149.888 25.407C149.842 25.4397 149.779 25.456 149.699 25.456C149.629 25.456 149.534 25.4397 149.412 25.407C149.291 25.3743 149.13 25.358 148.929 25.358C148.57 25.358 148.262 25.4583 148.005 25.659C147.749 25.855 147.532 26.1443 147.354 26.527V31H145.625ZM153.825 23.692C154.133 23.692 154.422 23.7247 154.693 23.79C154.964 23.8507 155.211 23.9417 155.435 24.063H157.5V24.707C157.5 24.8143 157.472 24.8983 157.416 24.959C157.36 25.0197 157.264 25.0617 157.129 25.085L156.485 25.204C156.532 25.3253 156.567 25.4537 156.59 25.589C156.618 25.7243 156.632 25.8667 156.632 26.016C156.632 26.3707 156.56 26.6927 156.415 26.982C156.275 27.2667 156.079 27.5093 155.827 27.71C155.58 27.9107 155.283 28.067 154.938 28.179C154.597 28.2863 154.226 28.34 153.825 28.34C153.554 28.34 153.291 28.3143 153.034 28.263C152.81 28.3983 152.698 28.55 152.698 28.718C152.698 28.8627 152.763 28.97 152.894 29.04C153.029 29.1053 153.204 29.152 153.419 29.18C153.638 29.208 153.886 29.2267 154.161 29.236C154.436 29.2407 154.719 29.2547 155.008 29.278C155.297 29.3013 155.58 29.3433 155.855 29.404C156.13 29.46 156.375 29.551 156.59 29.677C156.809 29.803 156.984 29.9757 157.115 30.195C157.25 30.4097 157.318 30.6873 157.318 31.028C157.318 31.3453 157.239 31.6533 157.08 31.952C156.926 32.2507 156.7 32.5167 156.401 32.75C156.107 32.9833 155.745 33.17 155.316 33.31C154.887 33.4547 154.397 33.527 153.846 33.527C153.3 33.527 152.826 33.4733 152.425 33.366C152.024 33.2633 151.69 33.1233 151.424 32.946C151.163 32.7733 150.967 32.5727 150.836 32.344C150.705 32.1153 150.64 31.8773 150.64 31.63C150.64 31.294 150.743 31.0117 150.948 30.783C151.153 30.5543 151.438 30.3723 151.802 30.237C151.625 30.139 151.482 30.0083 151.375 29.845C151.268 29.6817 151.214 29.4693 151.214 29.208C151.214 29.1007 151.233 28.991 151.27 28.879C151.307 28.7623 151.363 28.648 151.438 28.536C151.517 28.424 151.615 28.319 151.732 28.221C151.849 28.1183 151.986 28.0273 152.145 27.948C151.781 27.752 151.494 27.4907 151.284 27.164C151.079 26.8373 150.976 26.4547 150.976 26.016C150.976 25.6613 151.046 25.3417 151.186 25.057C151.331 24.7677 151.529 24.5227 151.781 24.322C152.038 24.1167 152.339 23.9603 152.684 23.853C153.034 23.7457 153.414 23.692 153.825 23.692ZM155.722 31.322C155.722 31.182 155.68 31.0677 155.596 30.979C155.512 30.8903 155.398 30.8227 155.253 30.776C155.108 30.7247 154.938 30.6873 154.742 30.664C154.551 30.6407 154.345 30.6243 154.126 30.615C153.911 30.601 153.687 30.5893 153.454 30.58C153.225 30.566 153.004 30.545 152.789 30.517C152.593 30.6243 152.434 30.7527 152.313 30.902C152.196 31.0467 152.138 31.2147 152.138 31.406C152.138 31.532 152.168 31.6487 152.229 31.756C152.294 31.868 152.395 31.9637 152.53 32.043C152.67 32.1223 152.85 32.183 153.069 32.225C153.288 32.2717 153.557 32.295 153.874 32.295C154.196 32.295 154.474 32.2693 154.707 32.218C154.94 32.1713 155.132 32.1037 155.281 32.015C155.435 31.931 155.547 31.8283 155.617 31.707C155.687 31.5903 155.722 31.462 155.722 31.322ZM153.825 27.234C154.04 27.234 154.226 27.206 154.385 27.15C154.544 27.0893 154.674 27.0077 154.777 26.905C154.884 26.8023 154.964 26.6787 155.015 26.534C155.071 26.3893 155.099 26.2307 155.099 26.058C155.099 25.7033 154.992 25.4233 154.777 25.218C154.567 25.008 154.25 24.903 153.825 24.903C153.4 24.903 153.081 25.008 152.866 25.218C152.656 25.4233 152.551 25.7033 152.551 26.058C152.551 26.226 152.577 26.3823 152.628 26.527C152.684 26.6717 152.763 26.7977 152.866 26.905C152.973 27.0077 153.106 27.0893 153.265 27.15C153.428 27.206 153.615 27.234 153.825 27.234ZM161.554 23.706C162.007 23.706 162.422 23.7783 162.8 23.923C163.183 24.0677 163.512 24.28 163.787 24.56C164.062 24.8353 164.277 25.176 164.431 25.582C164.585 25.9833 164.662 26.443 164.662 26.961C164.662 27.0917 164.655 27.2013 164.641 27.29C164.632 27.374 164.611 27.4417 164.578 27.493C164.55 27.5397 164.51 27.5747 164.459 27.598C164.408 27.6167 164.342 27.626 164.263 27.626H159.825C159.876 28.3633 160.075 28.9047 160.42 29.25C160.765 29.5953 161.223 29.768 161.792 29.768C162.072 29.768 162.312 29.7353 162.513 29.67C162.718 29.6047 162.896 29.5323 163.045 29.453C163.199 29.3737 163.332 29.3013 163.444 29.236C163.561 29.1707 163.673 29.138 163.78 29.138C163.85 29.138 163.911 29.152 163.962 29.18C164.013 29.208 164.058 29.2477 164.095 29.299L164.599 29.929C164.408 30.153 164.193 30.342 163.955 30.496C163.717 30.6453 163.467 30.7667 163.206 30.86C162.949 30.9487 162.686 31.0117 162.415 31.049C162.149 31.0863 161.89 31.105 161.638 31.105C161.139 31.105 160.674 31.0233 160.245 30.86C159.816 30.692 159.442 30.447 159.125 30.125C158.808 29.7983 158.558 29.397 158.376 28.921C158.194 28.4403 158.103 27.885 158.103 27.255C158.103 26.765 158.182 26.3053 158.341 25.876C158.5 25.442 158.726 25.0663 159.02 24.749C159.319 24.427 159.68 24.1727 160.105 23.986C160.534 23.7993 161.017 23.706 161.554 23.706ZM161.589 24.945C161.085 24.945 160.691 25.0873 160.406 25.372C160.121 25.6567 159.939 26.0603 159.86 26.583H163.108C163.108 26.359 163.078 26.149 163.017 25.953C162.956 25.7523 162.863 25.5773 162.737 25.428C162.611 25.2787 162.452 25.162 162.261 25.078C162.07 24.9893 161.846 24.945 161.589 24.945Z" fill="#1A1C1D"/>
<path d="M178.356 27.08V30.5H177.198V27.08L174.048 21.902H175.068C175.172 21.902 175.254 21.928 175.314 21.98C175.374 22.032 175.426 22.096 175.47 22.172L177.438 25.514C177.518 25.654 177.584 25.786 177.636 25.91C177.692 26.034 177.742 26.156 177.786 26.276C177.83 26.152 177.878 26.028 177.93 25.904C177.982 25.78 178.048 25.65 178.128 25.514L180.09 22.172C180.126 22.108 180.174 22.048 180.234 21.992C180.298 21.932 180.38 21.902 180.48 21.902H181.512L178.356 27.08ZM183.868 24.326C184.232 24.326 184.568 24.388 184.876 24.512C185.184 24.632 185.45 24.808 185.674 25.04C185.898 25.268 186.072 25.552 186.196 25.892C186.324 26.228 186.388 26.612 186.388 27.044C186.388 27.212 186.37 27.324 186.334 27.38C186.298 27.436 186.23 27.464 186.13 27.464H182.086C182.094 27.848 182.146 28.182 182.242 28.466C182.338 28.75 182.47 28.988 182.638 29.18C182.806 29.368 183.006 29.51 183.238 29.606C183.47 29.698 183.73 29.744 184.018 29.744C184.286 29.744 184.516 29.714 184.708 29.654C184.904 29.59 185.072 29.522 185.212 29.45C185.352 29.378 185.468 29.312 185.56 29.252C185.656 29.188 185.738 29.156 185.806 29.156C185.894 29.156 185.962 29.19 186.01 29.258L186.31 29.648C186.178 29.808 186.02 29.948 185.836 30.068C185.652 30.184 185.454 30.28 185.242 30.356C185.034 30.432 184.818 30.488 184.594 30.524C184.37 30.564 184.148 30.584 183.928 30.584C183.508 30.584 183.12 30.514 182.764 30.374C182.412 30.23 182.106 30.022 181.846 29.75C181.59 29.474 181.39 29.134 181.246 28.73C181.102 28.326 181.03 27.862 181.03 27.338C181.03 26.914 181.094 26.518 181.222 26.15C181.354 25.782 181.542 25.464 181.786 25.196C182.03 24.924 182.328 24.712 182.68 24.56C183.032 24.404 183.428 24.326 183.868 24.326ZM183.892 25.112C183.376 25.112 182.97 25.262 182.674 25.562C182.378 25.858 182.194 26.27 182.122 26.798H185.428C185.428 26.55 185.394 26.324 185.326 26.12C185.258 25.912 185.158 25.734 185.026 25.586C184.894 25.434 184.732 25.318 184.54 25.238C184.352 25.154 184.136 25.112 183.892 25.112ZM191.235 25.424C191.187 25.512 191.113 25.556 191.013 25.556C190.953 25.556 190.885 25.534 190.809 25.49C190.733 25.446 190.639 25.398 190.527 25.346C190.419 25.29 190.289 25.24 190.137 25.196C189.985 25.148 189.805 25.124 189.597 25.124C189.417 25.124 189.255 25.148 189.111 25.196C188.967 25.24 188.843 25.302 188.739 25.382C188.639 25.462 188.561 25.556 188.505 25.664C188.453 25.768 188.427 25.882 188.427 26.006C188.427 26.162 188.471 26.292 188.559 26.396C188.651 26.5 188.771 26.59 188.919 26.666C189.067 26.742 189.235 26.81 189.423 26.87C189.611 26.926 189.803 26.988 189.999 27.056C190.199 27.12 190.393 27.192 190.581 27.272C190.769 27.352 190.937 27.452 191.085 27.572C191.233 27.692 191.351 27.84 191.439 28.016C191.531 28.188 191.577 28.396 191.577 28.64C191.577 28.92 191.527 29.18 191.427 29.42C191.327 29.656 191.179 29.862 190.983 30.038C190.787 30.21 190.547 30.346 190.263 30.446C189.979 30.546 189.651 30.596 189.279 30.596C188.855 30.596 188.471 30.528 188.127 30.392C187.783 30.252 187.491 30.074 187.251 29.858L187.503 29.45C187.535 29.398 187.573 29.358 187.617 29.33C187.661 29.302 187.719 29.288 187.791 29.288C187.863 29.288 187.939 29.316 188.019 29.372C188.099 29.428 188.195 29.49 188.307 29.558C188.423 29.626 188.561 29.688 188.721 29.744C188.885 29.8 189.089 29.828 189.333 29.828C189.541 29.828 189.723 29.802 189.879 29.75C190.035 29.694 190.165 29.62 190.269 29.528C190.373 29.436 190.449 29.33 190.497 29.21C190.549 29.09 190.575 28.962 190.575 28.826C190.575 28.658 190.529 28.52 190.437 28.412C190.349 28.3 190.231 28.206 190.083 28.13C189.935 28.05 189.765 27.982 189.573 27.926C189.385 27.866 189.191 27.804 188.991 27.74C188.795 27.676 188.601 27.604 188.409 27.524C188.221 27.44 188.053 27.336 187.905 27.212C187.757 27.088 187.637 26.936 187.545 26.756C187.457 26.572 187.413 26.35 187.413 26.09C187.413 25.858 187.461 25.636 187.557 25.424C187.653 25.208 187.793 25.02 187.977 24.86C188.161 24.696 188.387 24.566 188.655 24.47C188.923 24.374 189.229 24.326 189.573 24.326C189.973 24.326 190.331 24.39 190.647 24.518C190.967 24.642 191.243 24.814 191.475 25.034L191.235 25.424ZM194.8 30.596C194.32 30.596 193.95 30.462 193.69 30.194C193.434 29.926 193.306 29.54 193.306 29.036V25.316H192.574C192.51 25.316 192.456 25.298 192.412 25.262C192.368 25.222 192.346 25.162 192.346 25.082V24.656L193.342 24.53L193.588 22.652C193.596 22.592 193.622 22.544 193.666 22.508C193.71 22.468 193.766 22.448 193.834 22.448H194.374V24.542H196.114V25.316H194.374V28.964C194.374 29.22 194.436 29.41 194.56 29.534C194.684 29.658 194.844 29.72 195.04 29.72C195.152 29.72 195.248 29.706 195.328 29.678C195.412 29.646 195.484 29.612 195.544 29.576C195.604 29.54 195.654 29.508 195.694 29.48C195.738 29.448 195.776 29.432 195.808 29.432C195.864 29.432 195.914 29.466 195.958 29.534L196.27 30.044C196.086 30.216 195.864 30.352 195.604 30.452C195.344 30.548 195.076 30.596 194.8 30.596ZM199.841 24.326C200.205 24.326 200.541 24.388 200.849 24.512C201.157 24.632 201.423 24.808 201.647 25.04C201.871 25.268 202.045 25.552 202.169 25.892C202.297 26.228 202.361 26.612 202.361 27.044C202.361 27.212 202.343 27.324 202.307 27.38C202.271 27.436 202.203 27.464 202.103 27.464H198.059C198.067 27.848 198.119 28.182 198.215 28.466C198.311 28.75 198.443 28.988 198.611 29.18C198.779 29.368 198.979 29.51 199.211 29.606C199.443 29.698 199.703 29.744 199.991 29.744C200.259 29.744 200.489 29.714 200.681 29.654C200.877 29.59 201.045 29.522 201.185 29.45C201.325 29.378 201.441 29.312 201.533 29.252C201.629 29.188 201.711 29.156 201.779 29.156C201.867 29.156 201.935 29.19 201.983 29.258L202.283 29.648C202.151 29.808 201.993 29.948 201.809 30.068C201.625 30.184 201.427 30.28 201.215 30.356C201.007 30.432 200.791 30.488 200.567 30.524C200.343 30.564 200.121 30.584 199.901 30.584C199.481 30.584 199.093 30.514 198.737 30.374C198.385 30.23 198.079 30.022 197.819 29.75C197.563 29.474 197.363 29.134 197.219 28.73C197.075 28.326 197.003 27.862 197.003 27.338C197.003 26.914 197.067 26.518 197.195 26.15C197.327 25.782 197.515 25.464 197.759 25.196C198.003 24.924 198.301 24.712 198.653 24.56C199.005 24.404 199.401 24.326 199.841 24.326ZM199.865 25.112C199.349 25.112 198.943 25.262 198.647 25.562C198.351 25.858 198.167 26.27 198.095 26.798H201.401C201.401 26.55 201.367 26.324 201.299 26.12C201.231 25.912 201.131 25.734 200.999 25.586C200.867 25.434 200.705 25.318 200.513 25.238C200.325 25.154 200.109 25.112 199.865 25.112ZM203.728 30.5V24.422H204.34C204.456 24.422 204.536 24.444 204.58 24.488C204.624 24.532 204.654 24.608 204.67 24.716L204.742 25.664C204.95 25.24 205.206 24.91 205.51 24.674C205.818 24.434 206.178 24.314 206.59 24.314C206.758 24.314 206.91 24.334 207.046 24.374C207.182 24.41 207.308 24.462 207.424 24.53L207.286 25.328C207.258 25.428 207.196 25.478 207.1 25.478C207.044 25.478 206.958 25.46 206.842 25.424C206.726 25.384 206.564 25.364 206.356 25.364C205.984 25.364 205.672 25.472 205.42 25.688C205.172 25.904 204.964 26.218 204.796 26.63V30.5H203.728ZM212.845 30.5C212.693 30.5 212.597 30.426 212.557 30.278L212.461 29.54C212.201 29.856 211.903 30.11 211.567 30.302C211.235 30.49 210.853 30.584 210.421 30.584C210.073 30.584 209.757 30.518 209.473 30.386C209.189 30.25 208.947 30.052 208.747 29.792C208.547 29.532 208.393 29.208 208.285 28.82C208.177 28.432 208.123 27.986 208.123 27.482C208.123 27.034 208.183 26.618 208.303 26.234C208.423 25.846 208.595 25.51 208.819 25.226C209.047 24.942 209.323 24.72 209.647 24.56C209.971 24.396 210.339 24.314 210.751 24.314C211.123 24.314 211.441 24.378 211.705 24.506C211.969 24.63 212.205 24.806 212.413 25.034V21.662H213.481V30.5H212.845ZM210.775 29.72C211.123 29.72 211.427 29.64 211.687 29.48C211.951 29.32 212.193 29.094 212.413 28.802V25.862C212.217 25.598 212.001 25.414 211.765 25.31C211.533 25.202 211.275 25.148 210.991 25.148C210.423 25.148 209.987 25.35 209.683 25.754C209.379 26.158 209.227 26.734 209.227 27.482C209.227 27.878 209.261 28.218 209.329 28.502C209.397 28.782 209.497 29.014 209.629 29.198C209.761 29.378 209.923 29.51 210.115 29.594C210.307 29.678 210.527 29.72 210.775 29.72ZM219.735 30.5H219.261C219.157 30.5 219.073 30.484 219.009 30.452C218.945 30.42 218.903 30.352 218.883 30.248L218.763 29.684C218.603 29.828 218.447 29.958 218.295 30.074C218.143 30.186 217.983 30.282 217.815 30.362C217.647 30.438 217.467 30.496 217.275 30.536C217.087 30.576 216.877 30.596 216.645 30.596C216.409 30.596 216.187 30.564 215.979 30.5C215.775 30.432 215.597 30.332 215.445 30.2C215.293 30.068 215.171 29.902 215.079 29.702C214.991 29.498 214.947 29.258 214.947 28.982C214.947 28.742 215.013 28.512 215.145 28.292C215.277 28.068 215.489 27.87 215.781 27.698C216.077 27.526 216.463 27.386 216.939 27.278C217.415 27.166 217.997 27.102 218.685 27.086V26.612C218.685 26.14 218.583 25.784 218.379 25.544C218.179 25.3 217.881 25.178 217.485 25.178C217.225 25.178 217.005 25.212 216.825 25.28C216.649 25.344 216.495 25.418 216.363 25.502C216.235 25.582 216.123 25.656 216.027 25.724C215.935 25.788 215.843 25.82 215.751 25.82C215.679 25.82 215.615 25.802 215.559 25.766C215.507 25.726 215.465 25.678 215.433 25.622L215.241 25.28C215.577 24.956 215.939 24.714 216.327 24.554C216.715 24.394 217.145 24.314 217.617 24.314C217.957 24.314 218.259 24.37 218.523 24.482C218.787 24.594 219.009 24.75 219.189 24.95C219.369 25.15 219.505 25.392 219.597 25.676C219.689 25.96 219.735 26.272 219.735 26.612V30.5ZM216.963 29.846C217.151 29.846 217.323 29.828 217.479 29.792C217.635 29.752 217.781 29.698 217.917 29.63C218.057 29.558 218.189 29.472 218.313 29.372C218.441 29.272 218.565 29.158 218.685 29.03V27.764C218.193 27.78 217.775 27.82 217.431 27.884C217.087 27.944 216.807 28.024 216.591 28.124C216.375 28.224 216.217 28.342 216.117 28.478C216.021 28.614 215.973 28.766 215.973 28.934C215.973 29.094 215.999 29.232 216.051 29.348C216.103 29.464 216.173 29.56 216.261 29.636C216.349 29.708 216.453 29.762 216.573 29.798C216.693 29.83 216.823 29.846 216.963 29.846ZM222.947 32.294C222.911 32.374 222.865 32.438 222.809 32.486C222.757 32.534 222.675 32.558 222.563 32.558H221.771L222.881 30.146L220.373 24.422H221.297C221.389 24.422 221.461 24.446 221.513 24.494C221.565 24.538 221.603 24.588 221.627 24.644L223.253 28.472C223.289 28.56 223.319 28.648 223.343 28.736C223.371 28.824 223.395 28.914 223.415 29.006C223.443 28.914 223.471 28.824 223.499 28.736C223.527 28.648 223.559 28.558 223.595 28.466L225.173 24.644C225.197 24.58 225.237 24.528 225.293 24.488C225.353 24.444 225.417 24.422 225.485 24.422H226.337L222.947 32.294ZM230.13 21.302H230.958V32.558H230.13V21.302ZM238.71 29.684H240.558V23.822C240.558 23.646 240.564 23.468 240.576 23.288L239.04 24.602C239 24.634 238.96 24.658 238.92 24.674C238.88 24.686 238.842 24.692 238.806 24.692C238.746 24.692 238.692 24.68 238.644 24.656C238.596 24.628 238.56 24.596 238.536 24.56L238.2 24.098L240.756 21.884H241.626V29.684H243.318V30.5H238.71V29.684ZM247.423 30.596C246.995 30.596 246.603 30.54 246.247 30.428C245.891 30.312 245.585 30.148 245.329 29.936C245.073 29.724 244.875 29.468 244.735 29.168C244.595 28.864 244.525 28.524 244.525 28.148C244.525 27.596 244.669 27.142 244.957 26.786C245.245 26.426 245.657 26.17 246.193 26.018C245.741 25.85 245.399 25.6 245.167 25.268C244.939 24.932 244.825 24.532 244.825 24.068C244.825 23.752 244.887 23.456 245.011 23.18C245.135 22.904 245.311 22.664 245.539 22.46C245.767 22.256 246.039 22.096 246.355 21.98C246.675 21.864 247.031 21.806 247.423 21.806C247.811 21.806 248.165 21.864 248.485 21.98C248.805 22.096 249.079 22.256 249.307 22.46C249.535 22.664 249.711 22.904 249.835 23.18C249.959 23.456 250.021 23.752 250.021 24.068C250.021 24.532 249.905 24.932 249.673 25.268C249.441 25.6 249.101 25.85 248.653 26.018C249.189 26.17 249.601 26.426 249.889 26.786C250.177 27.142 250.321 27.596 250.321 28.148C250.321 28.524 250.249 28.864 250.105 29.168C249.965 29.468 249.767 29.724 249.511 29.936C249.259 30.148 248.955 30.312 248.599 30.428C248.243 30.54 247.851 30.596 247.423 30.596ZM247.423 29.744C247.703 29.744 247.953 29.706 248.173 29.63C248.397 29.55 248.585 29.44 248.737 29.3C248.893 29.156 249.011 28.986 249.091 28.79C249.175 28.59 249.217 28.37 249.217 28.13C249.217 27.834 249.167 27.582 249.067 27.374C248.971 27.162 248.839 26.99 248.671 26.858C248.507 26.726 248.317 26.63 248.101 26.57C247.885 26.506 247.659 26.474 247.423 26.474C247.187 26.474 246.961 26.506 246.745 26.57C246.529 26.63 246.337 26.726 246.169 26.858C246.005 26.99 245.873 27.162 245.773 27.374C245.677 27.582 245.629 27.834 245.629 28.13C245.629 28.37 245.669 28.59 245.749 28.79C245.833 28.986 245.951 29.156 246.103 29.3C246.259 29.44 246.447 29.55 246.667 29.63C246.891 29.706 247.143 29.744 247.423 29.744ZM247.423 25.616C247.703 25.616 247.941 25.574 248.137 25.49C248.337 25.402 248.499 25.288 248.623 25.148C248.747 25.004 248.837 24.84 248.893 24.656C248.949 24.472 248.977 24.282 248.977 24.086C248.977 23.886 248.943 23.698 248.875 23.522C248.811 23.346 248.713 23.192 248.581 23.06C248.453 22.928 248.291 22.824 248.095 22.748C247.903 22.672 247.679 22.634 247.423 22.634C247.167 22.634 246.941 22.672 246.745 22.748C246.553 22.824 246.391 22.928 246.259 23.06C246.131 23.192 246.033 23.346 245.965 23.522C245.901 23.698 245.869 23.886 245.869 24.086C245.869 24.282 245.897 24.472 245.953 24.656C246.009 24.84 246.099 25.004 246.223 25.148C246.347 25.288 246.507 25.402 246.703 25.49C246.903 25.574 247.143 25.616 247.423 25.616ZM251.678 29.84C251.678 29.736 251.696 29.638 251.732 29.546C251.772 29.454 251.824 29.374 251.888 29.306C251.956 29.238 252.036 29.184 252.128 29.144C252.22 29.104 252.318 29.084 252.422 29.084C252.526 29.084 252.624 29.104 252.716 29.144C252.808 29.184 252.888 29.238 252.956 29.306C253.024 29.374 253.076 29.454 253.112 29.546C253.152 29.638 253.172 29.736 253.172 29.84C253.172 29.948 253.152 30.048 253.112 30.14C253.076 30.228 253.024 30.306 252.956 30.374C252.888 30.442 252.808 30.494 252.716 30.53C252.624 30.57 252.526 30.59 252.422 30.59C252.318 30.59 252.22 30.57 252.128 30.53C252.036 30.494 251.956 30.442 251.888 30.374C251.824 30.306 251.772 30.228 251.732 30.14C251.696 30.048 251.678 29.948 251.678 29.84ZM251.678 25.34C251.678 25.236 251.696 25.138 251.732 25.046C251.772 24.954 251.824 24.874 251.888 24.806C251.956 24.738 252.036 24.684 252.128 24.644C252.22 24.604 252.318 24.584 252.422 24.584C252.526 24.584 252.624 24.604 252.716 24.644C252.808 24.684 252.888 24.738 252.956 24.806C253.024 24.874 253.076 24.954 253.112 25.046C253.152 25.138 253.172 25.236 253.172 25.34C253.172 25.448 253.152 25.548 253.112 25.64C253.076 25.728 253.024 25.806 252.956 25.874C252.888 25.942 252.808 25.996 252.716 26.036C252.624 26.072 252.526 26.09 252.422 26.09C252.318 26.09 252.22 26.072 252.128 26.036C252.036 25.996 251.956 25.942 251.888 25.874C251.824 25.806 251.772 25.728 251.732 25.64C251.696 25.548 251.678 25.448 251.678 25.34ZM257.54 21.806C257.904 21.806 258.244 21.86 258.56 21.968C258.876 22.076 259.148 22.234 259.376 22.442C259.608 22.646 259.79 22.896 259.922 23.192C260.054 23.488 260.12 23.824 260.12 24.2C260.12 24.52 260.072 24.816 259.976 25.088C259.88 25.36 259.75 25.622 259.586 25.874C259.422 26.122 259.232 26.364 259.016 26.6C258.804 26.832 258.578 27.07 258.338 27.314L256.076 29.63C256.236 29.586 256.398 29.552 256.562 29.528C256.726 29.5 256.884 29.486 257.036 29.486H259.916C260.032 29.486 260.124 29.52 260.192 29.588C260.26 29.656 260.294 29.744 260.294 29.852V30.5H254.558V30.134C254.558 30.058 254.572 29.98 254.6 29.9C254.632 29.82 254.682 29.746 254.75 29.678L257.504 26.912C257.732 26.68 257.94 26.458 258.128 26.246C258.316 26.03 258.476 25.814 258.608 25.598C258.744 25.382 258.848 25.164 258.92 24.944C258.992 24.72 259.028 24.482 259.028 24.23C259.028 23.978 258.988 23.758 258.908 23.57C258.828 23.378 258.718 23.22 258.578 23.096C258.438 22.972 258.274 22.88 258.086 22.82C257.898 22.756 257.696 22.724 257.48 22.724C257.264 22.724 257.064 22.756 256.88 22.82C256.696 22.884 256.532 22.974 256.388 23.09C256.248 23.202 256.128 23.336 256.028 23.492C255.932 23.648 255.864 23.82 255.824 24.008C255.792 24.124 255.744 24.208 255.68 24.26C255.616 24.312 255.532 24.338 255.428 24.338C255.408 24.338 255.386 24.338 255.362 24.338C255.342 24.334 255.318 24.33 255.29 24.326L254.732 24.23C254.788 23.838 254.896 23.492 255.056 23.192C255.216 22.888 255.418 22.634 255.662 22.43C255.91 22.226 256.192 22.072 256.508 21.968C256.828 21.86 257.172 21.806 257.54 21.806ZM264.369 30.596C263.941 30.596 263.549 30.54 263.193 30.428C262.837 30.312 262.531 30.148 262.275 29.936C262.019 29.724 261.821 29.468 261.681 29.168C261.541 28.864 261.471 28.524 261.471 28.148C261.471 27.596 261.615 27.142 261.903 26.786C262.191 26.426 262.603 26.17 263.139 26.018C262.687 25.85 262.345 25.6 262.113 25.268C261.885 24.932 261.771 24.532 261.771 24.068C261.771 23.752 261.833 23.456 261.957 23.18C262.081 22.904 262.257 22.664 262.485 22.46C262.713 22.256 262.985 22.096 263.301 21.98C263.621 21.864 263.977 21.806 264.369 21.806C264.757 21.806 265.111 21.864 265.431 21.98C265.751 22.096 266.025 22.256 266.253 22.46C266.481 22.664 266.657 22.904 266.781 23.18C266.905 23.456 266.967 23.752 266.967 24.068C266.967 24.532 266.851 24.932 266.619 25.268C266.387 25.6 266.047 25.85 265.599 26.018C266.135 26.17 266.547 26.426 266.835 26.786C267.123 27.142 267.267 27.596 267.267 28.148C267.267 28.524 267.195 28.864 267.051 29.168C266.911 29.468 266.713 29.724 266.457 29.936C266.205 30.148 265.901 30.312 265.545 30.428C265.189 30.54 264.797 30.596 264.369 30.596ZM264.369 29.744C264.649 29.744 264.899 29.706 265.119 29.63C265.343 29.55 265.531 29.44 265.683 29.3C265.839 29.156 265.957 28.986 266.037 28.79C266.121 28.59 266.163 28.37 266.163 28.13C266.163 27.834 266.113 27.582 266.013 27.374C265.917 27.162 265.785 26.99 265.617 26.858C265.453 26.726 265.263 26.63 265.047 26.57C264.831 26.506 264.605 26.474 264.369 26.474C264.133 26.474 263.907 26.506 263.691 26.57C263.475 26.63 263.283 26.726 263.115 26.858C262.951 26.99 262.819 27.162 262.719 27.374C262.623 27.582 262.575 27.834 262.575 28.13C262.575 28.37 262.615 28.59 262.695 28.79C262.779 28.986 262.897 29.156 263.049 29.3C263.205 29.44 263.393 29.55 263.613 29.63C263.837 29.706 264.089 29.744 264.369 29.744ZM264.369 25.616C264.649 25.616 264.887 25.574 265.083 25.49C265.283 25.402 265.445 25.288 265.569 25.148C265.693 25.004 265.783 24.84 265.839 24.656C265.895 24.472 265.923 24.282 265.923 24.086C265.923 23.886 265.889 23.698 265.821 23.522C265.757 23.346 265.659 23.192 265.527 23.06C265.399 22.928 265.237 22.824 265.041 22.748C264.849 22.672 264.625 22.634 264.369 22.634C264.113 22.634 263.887 22.672 263.691 22.748C263.499 22.824 263.337 22.928 263.205 23.06C263.077 23.192 262.979 23.346 262.911 23.522C262.847 23.698 262.815 23.886 262.815 24.086C262.815 24.282 262.843 24.472 262.899 24.656C262.955 24.84 263.045 25.004 263.169 25.148C263.293 25.288 263.453 25.402 263.649 25.49C263.849 25.574 264.089 25.616 264.369 25.616Z" fill="#828282"/>
<rect x="17" y="18" width="36" height="36" rx="8" fill="#7FEEDA" fill-opacity="0.5"/>
<path d="M31.7872 37.776C31.7872 38.4267 31.7045 39.0187 31.5392 39.552C31.3792 40.0853 31.1339 40.544 30.8032 40.928C30.4779 41.3067 30.0672 41.6027 29.5712 41.816C29.0752 42.024 28.4912 42.128 27.8192 42.128C27.5152 42.128 27.2139 42.112 26.9152 42.08C26.6219 42.048 26.3152 41.9947 25.9952 41.92L26.1392 40.344C26.1499 40.2053 26.2032 40.0933 26.2992 40.008C26.4005 39.9227 26.5392 39.88 26.7152 39.88C26.8059 39.88 26.9179 39.896 27.0512 39.928C27.1845 39.9547 27.3445 39.968 27.5312 39.968C27.7925 39.968 28.0192 39.9333 28.2112 39.864C28.4085 39.7893 28.5712 39.6693 28.6992 39.504C28.8272 39.3333 28.9232 39.112 28.9872 38.84C29.0512 38.568 29.0832 38.232 29.0832 37.832V30.344H31.7872V37.776ZM39.1902 40.048C39.5635 40.048 39.8942 40.016 40.1822 39.952C40.4702 39.888 40.7422 39.8027 40.9982 39.696V37.928H39.8462C39.6755 37.928 39.5422 37.8827 39.4462 37.792C39.3502 37.7013 39.3022 37.5867 39.3022 37.448V35.96H43.4462V40.88C43.1475 41.0987 42.8355 41.288 42.5102 41.448C42.1902 41.6027 41.8462 41.7307 41.4782 41.832C41.1155 41.9333 40.7262 42.008 40.3102 42.056C39.8995 42.104 39.4569 42.128 38.9822 42.128C38.1289 42.128 37.3395 41.9787 36.6142 41.68C35.8889 41.376 35.2595 40.96 34.7262 40.432C34.1982 39.8987 33.7822 39.2693 33.4782 38.544C33.1795 37.8133 33.0302 37.0213 33.0302 36.168C33.0302 35.2987 33.1742 34.5013 33.4622 33.776C33.7502 33.0453 34.1609 32.416 34.6942 31.888C35.2329 31.36 35.8809 30.9493 36.6382 30.656C37.4009 30.3627 38.2515 30.216 39.1902 30.216C39.6755 30.216 40.1315 30.256 40.5582 30.336C40.9849 30.416 41.3769 30.5253 41.7342 30.664C42.0969 30.8027 42.4275 30.968 42.7262 31.16C43.0249 31.352 43.2915 31.56 43.5262 31.784L42.7422 32.976C42.6675 33.088 42.5769 33.176 42.4702 33.24C42.3689 33.304 42.2569 33.336 42.1342 33.336C41.9742 33.336 41.8089 33.2827 41.6382 33.176C41.4249 33.048 41.2222 32.9387 41.0302 32.848C40.8435 32.752 40.6515 32.6747 40.4542 32.616C40.2569 32.5573 40.0489 32.5147 39.8302 32.488C39.6115 32.4613 39.3662 32.448 39.0942 32.448C38.5875 32.448 38.1315 32.5387 37.7262 32.72C37.3209 32.896 36.9742 33.1467 36.6862 33.472C36.4035 33.7973 36.1849 34.1893 36.0302 34.648C35.8755 35.1013 35.7982 35.608 35.7982 36.168C35.7982 36.7867 35.8835 37.336 36.0542 37.816C36.2249 38.296 36.4595 38.7013 36.7582 39.032C37.0622 39.3627 37.4195 39.616 37.8302 39.792C38.2462 39.9627 38.6995 40.048 39.1902 40.048Z" fill="white"/>
<path d="M1 1V0H0V1H1ZM376 1H377V0H376V1ZM376 71V72H377V71H376ZM1 71H0V72H1V71ZM1 2H376V0H1V2ZM375 1V71H377V1H375ZM376 70H1V72H376V70ZM2 71V1H0V71H2Z" fill="#F3F4F9"/>
</svg>
