<svg width="377" height="72" viewBox="0 0 377 72" fill="none" xmlns="http://www.w3.org/2000/svg">
<path d="M1 1H376V71H1V1Z" fill="white"/>
<path d="M71.828 52H70.47V41.969H71.828V52ZM76.098 44.909H77.078C77.1807 44.909 77.2647 44.9347 77.33 44.986C77.3953 45.0373 77.4397 45.098 77.463 45.168L78.821 49.732C78.8583 49.9 78.8933 50.0633 78.926 50.222C78.9587 50.376 78.9867 50.5323 79.01 50.691C79.0473 50.5323 79.0893 50.376 79.136 50.222C79.1827 50.0633 79.2317 49.9 79.283 49.732L80.781 45.14C80.8043 45.07 80.844 45.0117 80.9 44.965C80.9607 44.9183 81.0353 44.895 81.124 44.895H81.663C81.7563 44.895 81.8333 44.9183 81.894 44.965C81.9547 45.0117 81.9967 45.07 82.02 45.14L83.483 49.732C83.5343 49.8953 83.5787 50.0563 83.616 50.215C83.658 50.3737 83.6977 50.53 83.735 50.684C83.7583 50.53 83.7887 50.369 83.826 50.201C83.8633 50.033 83.903 49.8767 83.945 49.732L85.331 45.168C85.3543 45.0933 85.3987 45.0327 85.464 44.986C85.5293 44.9347 85.6063 44.909 85.695 44.909H86.633L84.337 52H83.35C83.2287 52 83.1447 51.9207 83.098 51.762L81.53 46.953C81.4927 46.8457 81.4623 46.7383 81.439 46.631C81.4157 46.519 81.3923 46.4093 81.369 46.302C81.3457 46.4093 81.3223 46.519 81.299 46.631C81.2757 46.743 81.2453 46.8527 81.208 46.96L79.619 51.762C79.5677 51.9207 79.472 52 79.332 52H78.394L76.098 44.909ZM92.9488 52H92.3958C92.2744 52 92.1764 51.9813 92.1018 51.944C92.0271 51.9067 91.9781 51.8273 91.9548 51.706L91.8148 51.048C91.6281 51.216 91.4461 51.3677 91.2688 51.503C91.0914 51.6337 90.9048 51.7457 90.7088 51.839C90.5128 51.9277 90.3028 51.9953 90.0788 52.042C89.8594 52.0887 89.6144 52.112 89.3438 52.112C89.0684 52.112 88.8094 52.0747 88.5667 52C88.3288 51.9207 88.1211 51.804 87.9438 51.65C87.7664 51.496 87.6241 51.3023 87.5168 51.069C87.4141 50.831 87.3628 50.551 87.3628 50.229C87.3628 49.949 87.4398 49.6807 87.5938 49.424C87.7478 49.1627 87.9951 48.9317 88.3358 48.731C88.6811 48.5303 89.1314 48.367 89.6868 48.241C90.2421 48.1103 90.9211 48.0357 91.7238 48.017V47.464C91.7238 46.9133 91.6048 46.498 91.3668 46.218C91.1334 45.9333 90.7858 45.791 90.3238 45.791C90.0204 45.791 89.7638 45.8307 89.5538 45.91C89.3484 45.9847 89.1688 46.071 89.0148 46.169C88.8654 46.2623 88.7348 46.3487 88.6228 46.428C88.5154 46.5027 88.4081 46.54 88.3008 46.54C88.2168 46.54 88.1421 46.519 88.0768 46.477C88.0161 46.4303 87.9671 46.3743 87.9298 46.309L87.7058 45.91C88.0978 45.532 88.5201 45.2497 88.9728 45.063C89.4254 44.8763 89.9271 44.783 90.4778 44.783C90.8744 44.783 91.2268 44.8483 91.5348 44.979C91.8428 45.1097 92.1018 45.2917 92.3118 45.525C92.5218 45.7583 92.6804 46.0407 92.7878 46.372C92.8951 46.7033 92.9488 47.0673 92.9488 47.464V52ZM89.7148 51.237C89.9341 51.237 90.1348 51.216 90.3167 51.174C90.4988 51.1273 90.6691 51.0643 90.8278 50.985C90.9911 50.901 91.1451 50.8007 91.2898 50.684C91.4391 50.5673 91.5838 50.4343 91.7238 50.285V48.808C91.1498 48.8267 90.6621 48.8733 90.2608 48.948C89.8594 49.018 89.5328 49.1113 89.2808 49.228C89.0288 49.3447 88.8444 49.4823 88.7278 49.641C88.6158 49.7997 88.5598 49.977 88.5598 50.173C88.5598 50.3597 88.5901 50.5207 88.6508 50.656C88.7114 50.7913 88.7931 50.9033 88.8958 50.992C88.9984 51.076 89.1198 51.139 89.2598 51.181C89.3998 51.2183 89.5514 51.237 89.7148 51.237ZM94.8365 52V44.909H95.5785C95.7558 44.909 95.8678 44.9953 95.9145 45.168L96.0125 45.938C96.3205 45.5973 96.6635 45.322 97.0415 45.112C97.4241 44.902 97.8651 44.797 98.3645 44.797C98.7518 44.797 99.0925 44.8623 99.3865 44.993C99.6851 45.119 99.9325 45.301 100.128 45.539C100.329 45.7723 100.481 46.0547 100.583 46.386C100.686 46.7173 100.737 47.0837 100.737 47.485V52H99.4915V47.485C99.4915 46.9483 99.3678 46.533 99.1205 46.239C98.8778 45.9403 98.5045 45.791 98.0005 45.791C97.6318 45.791 97.2865 45.8797 96.9645 46.057C96.6471 46.2343 96.3531 46.4747 96.0825 46.778V52H94.8365ZM104.765 52.112C104.205 52.112 103.773 51.9557 103.47 51.643C103.171 51.3303 103.022 50.88 103.022 50.292V45.952H102.168C102.093 45.952 102.03 45.931 101.979 45.889C101.927 45.8423 101.902 45.7723 101.902 45.679V45.182L103.064 45.035L103.351 42.844C103.36 42.774 103.39 42.718 103.442 42.676C103.493 42.6293 103.558 42.606 103.638 42.606H104.268V45.049H106.298V45.952H104.268V50.208C104.268 50.5067 104.34 50.7283 104.485 50.873C104.629 51.0177 104.816 51.09 105.045 51.09C105.175 51.09 105.287 51.0737 105.381 51.041C105.479 51.0037 105.563 50.964 105.633 50.922C105.703 50.88 105.761 50.8427 105.808 50.81C105.859 50.7727 105.903 50.754 105.941 50.754C106.006 50.754 106.064 50.7937 106.116 50.873L106.48 51.468C106.265 51.6687 106.006 51.8273 105.703 51.944C105.399 52.056 105.087 52.112 104.765 52.112ZM112.694 52.112C112.134 52.112 111.703 51.9557 111.399 51.643C111.101 51.3303 110.951 50.88 110.951 50.292V45.952H110.097C110.023 45.952 109.96 45.931 109.908 45.889C109.857 45.8423 109.831 45.7723 109.831 45.679V45.182L110.993 45.035L111.28 42.844C111.29 42.774 111.32 42.718 111.371 42.676C111.423 42.6293 111.488 42.606 111.567 42.606H112.197V45.049H114.227V45.952H112.197V50.208C112.197 50.5067 112.27 50.7283 112.414 50.873C112.559 51.0177 112.746 51.09 112.974 51.09C113.105 51.09 113.217 51.0737 113.31 51.041C113.408 51.0037 113.492 50.964 113.562 50.922C113.632 50.88 113.691 50.8427 113.737 50.81C113.789 50.7727 113.833 50.754 113.87 50.754C113.936 50.754 113.994 50.7937 114.045 50.873L114.409 51.468C114.195 51.6687 113.936 51.8273 113.632 51.944C113.329 52.056 113.016 52.112 112.694 52.112ZM118.638 44.797C119.156 44.797 119.623 44.8833 120.038 45.056C120.458 45.2287 120.813 45.4737 121.102 45.791C121.396 46.1083 121.62 46.4933 121.774 46.946C121.933 47.394 122.012 47.8957 122.012 48.451C122.012 49.011 121.933 49.515 121.774 49.963C121.62 50.411 121.396 50.7937 121.102 51.111C120.813 51.4283 120.458 51.6733 120.038 51.846C119.623 52.014 119.156 52.098 118.638 52.098C118.12 52.098 117.651 52.014 117.231 51.846C116.816 51.6733 116.461 51.4283 116.167 51.111C115.873 50.7937 115.647 50.411 115.488 49.963C115.329 49.515 115.25 49.011 115.25 48.451C115.25 47.8957 115.329 47.394 115.488 46.946C115.647 46.4933 115.873 46.1083 116.167 45.791C116.461 45.4737 116.816 45.2287 117.231 45.056C117.651 44.8833 118.12 44.797 118.638 44.797ZM118.638 51.125C119.338 51.125 119.861 50.8917 120.206 50.425C120.551 49.9537 120.724 49.298 120.724 48.458C120.724 47.6133 120.551 46.9553 120.206 46.484C119.861 46.0127 119.338 45.777 118.638 45.777C118.283 45.777 117.975 45.8377 117.714 45.959C117.453 46.0803 117.233 46.2553 117.056 46.484C116.883 46.7127 116.753 46.995 116.664 47.331C116.58 47.6623 116.538 48.038 116.538 48.458C116.538 48.878 116.58 49.2537 116.664 49.585C116.753 49.9163 116.883 50.1963 117.056 50.425C117.233 50.649 117.453 50.8217 117.714 50.943C117.975 51.0643 118.283 51.125 118.638 51.125ZM128.403 52.112C127.843 52.112 127.412 51.9557 127.108 51.643C126.81 51.3303 126.66 50.88 126.66 50.292V45.952H125.806C125.732 45.952 125.669 45.931 125.617 45.889C125.566 45.8423 125.54 45.7723 125.54 45.679V45.182L126.702 45.035L126.989 42.844C126.999 42.774 127.029 42.718 127.08 42.676C127.132 42.6293 127.197 42.606 127.276 42.606H127.906V45.049H129.936V45.952H127.906V50.208C127.906 50.5067 127.979 50.7283 128.123 50.873C128.268 51.0177 128.455 51.09 128.683 51.09C128.814 51.09 128.926 51.0737 129.019 51.041C129.117 51.0037 129.201 50.964 129.271 50.922C129.341 50.88 129.4 50.8427 129.446 50.81C129.498 50.7727 129.542 50.754 129.579 50.754C129.645 50.754 129.703 50.7937 129.754 50.873L130.118 51.468C129.904 51.6687 129.645 51.8273 129.341 51.944C129.038 52.056 128.725 52.112 128.403 52.112ZM136.685 52H136.132C136.011 52 135.913 51.9813 135.838 51.944C135.763 51.9067 135.714 51.8273 135.691 51.706L135.551 51.048C135.364 51.216 135.182 51.3677 135.005 51.503C134.828 51.6337 134.641 51.7457 134.445 51.839C134.249 51.9277 134.039 51.9953 133.815 52.042C133.596 52.0887 133.351 52.112 133.08 52.112C132.805 52.112 132.546 52.0747 132.303 52C132.065 51.9207 131.857 51.804 131.68 51.65C131.503 51.496 131.36 51.3023 131.253 51.069C131.15 50.831 131.099 50.551 131.099 50.229C131.099 49.949 131.176 49.6807 131.33 49.424C131.484 49.1627 131.731 48.9317 132.072 48.731C132.417 48.5303 132.868 48.367 133.423 48.241C133.978 48.1103 134.657 48.0357 135.46 48.017V47.464C135.46 46.9133 135.341 46.498 135.103 46.218C134.87 45.9333 134.522 45.791 134.06 45.791C133.757 45.791 133.5 45.8307 133.29 45.91C133.085 45.9847 132.905 46.071 132.751 46.169C132.602 46.2623 132.471 46.3487 132.359 46.428C132.252 46.5027 132.144 46.54 132.037 46.54C131.953 46.54 131.878 46.519 131.813 46.477C131.752 46.4303 131.703 46.3743 131.666 46.309L131.442 45.91C131.834 45.532 132.256 45.2497 132.709 45.063C133.162 44.8763 133.663 44.783 134.214 44.783C134.611 44.783 134.963 44.8483 135.271 44.979C135.579 45.1097 135.838 45.2917 136.048 45.525C136.258 45.7583 136.417 46.0407 136.524 46.372C136.631 46.7033 136.685 47.0673 136.685 47.464V52ZM133.451 51.237C133.67 51.237 133.871 51.216 134.053 51.174C134.235 51.1273 134.405 51.0643 134.564 50.985C134.727 50.901 134.881 50.8007 135.026 50.684C135.175 50.5673 135.32 50.4343 135.46 50.285V48.808C134.886 48.8267 134.398 48.8733 133.997 48.948C133.596 49.018 133.269 49.1113 133.017 49.228C132.765 49.3447 132.581 49.4823 132.464 49.641C132.352 49.7997 132.296 49.977 132.296 50.173C132.296 50.3597 132.326 50.5207 132.387 50.656C132.448 50.7913 132.529 50.9033 132.632 50.992C132.735 51.076 132.856 51.139 132.996 51.181C133.136 51.2183 133.288 51.237 133.451 51.237ZM139.959 41.689V52H138.713V41.689H139.959ZM143.45 41.689V47.758H143.772C143.865 47.758 143.942 47.7463 144.003 47.723C144.063 47.695 144.131 47.6413 144.206 47.562L146.446 45.161C146.516 45.0863 146.586 45.0257 146.656 44.979C146.726 44.9323 146.819 44.909 146.936 44.909H148.07L145.459 47.688C145.393 47.7673 145.328 47.8373 145.263 47.898C145.202 47.9587 145.132 48.0123 145.053 48.059C145.137 48.115 145.211 48.1803 145.277 48.255C145.347 48.325 145.412 48.4067 145.473 48.5L148.245 52H147.125C147.022 52 146.933 51.9813 146.859 51.944C146.789 51.902 146.721 51.839 146.656 51.755L144.325 48.85C144.255 48.752 144.185 48.689 144.115 48.661C144.045 48.6283 143.94 48.612 143.8 48.612H143.45V52H142.197V41.689H143.45ZM157.412 52H156.859C156.737 52 156.639 51.9813 156.565 51.944C156.49 51.9067 156.441 51.8273 156.418 51.706L156.278 51.048C156.091 51.216 155.909 51.3677 155.732 51.503C155.554 51.6337 155.368 51.7457 155.172 51.839C154.976 51.9277 154.766 51.9953 154.542 52.042C154.322 52.0887 154.077 52.112 153.807 52.112C153.531 52.112 153.272 52.0747 153.03 52C152.792 51.9207 152.584 51.804 152.407 51.65C152.229 51.496 152.087 51.3023 151.98 51.069C151.877 50.831 151.826 50.551 151.826 50.229C151.826 49.949 151.903 49.6807 152.057 49.424C152.211 49.1627 152.458 48.9317 152.799 48.731C153.144 48.5303 153.594 48.367 154.15 48.241C154.705 48.1103 155.384 48.0357 156.187 48.017V47.464C156.187 46.9133 156.068 46.498 155.83 46.218C155.596 45.9333 155.249 45.791 154.787 45.791C154.483 45.791 154.227 45.8307 154.017 45.91C153.811 45.9847 153.632 46.071 153.478 46.169C153.328 46.2623 153.198 46.3487 153.086 46.428C152.978 46.5027 152.871 46.54 152.764 46.54C152.68 46.54 152.605 46.519 152.54 46.477C152.479 46.4303 152.43 46.3743 152.393 46.309L152.169 45.91C152.561 45.532 152.983 45.2497 153.436 45.063C153.888 44.8763 154.39 44.783 154.941 44.783C155.337 44.783 155.69 44.8483 155.998 44.979C156.306 45.1097 156.565 45.2917 156.775 45.525C156.985 45.7583 157.143 46.0407 157.251 46.372C157.358 46.7033 157.412 47.0673 157.412 47.464V52ZM154.178 51.237C154.397 51.237 154.598 51.216 154.78 51.174C154.962 51.1273 155.132 51.0643 155.291 50.985C155.454 50.901 155.608 50.8007 155.753 50.684C155.902 50.5673 156.047 50.4343 156.187 50.285V48.808C155.613 48.8267 155.125 48.8733 154.724 48.948C154.322 49.018 153.996 49.1113 153.744 49.228C153.492 49.3447 153.307 49.4823 153.191 49.641C153.079 49.7997 153.023 49.977 153.023 50.173C153.023 50.3597 153.053 50.5207 153.114 50.656C153.174 50.7913 153.256 50.9033 153.359 50.992C153.461 51.076 153.583 51.139 153.723 51.181C153.863 51.2183 154.014 51.237 154.178 51.237ZM159.341 52V41.689H160.594V45.931C160.888 45.5903 161.224 45.3173 161.602 45.112C161.985 44.902 162.421 44.797 162.911 44.797C163.322 44.797 163.693 44.874 164.024 45.028C164.356 45.182 164.638 45.413 164.871 45.721C165.105 46.0243 165.284 46.4023 165.41 46.855C165.536 47.303 165.599 47.821 165.599 48.409C165.599 48.9317 165.529 49.4193 165.389 49.872C165.249 50.32 165.046 50.7097 164.78 51.041C164.519 51.3677 164.197 51.6267 163.814 51.818C163.436 52.0047 163.009 52.098 162.533 52.098C162.076 52.098 161.686 52.0093 161.364 51.832C161.047 51.6547 160.769 51.4073 160.531 51.09L160.468 51.734C160.431 51.9113 160.324 52 160.146 52H159.341ZM162.505 45.791C162.099 45.791 161.742 45.8843 161.434 46.071C161.131 46.2577 160.851 46.5213 160.594 46.862V50.292C160.818 50.6 161.066 50.817 161.336 50.943C161.612 51.069 161.917 51.132 162.253 51.132C162.916 51.132 163.425 50.8963 163.779 50.425C164.134 49.9537 164.311 49.2817 164.311 48.409C164.311 47.947 164.269 47.5503 164.185 47.219C164.106 46.8877 163.989 46.617 163.835 46.407C163.681 46.1923 163.492 46.036 163.268 45.938C163.044 45.84 162.79 45.791 162.505 45.791ZM169.99 44.797C170.508 44.797 170.974 44.8833 171.39 45.056C171.81 45.2287 172.164 45.4737 172.454 45.791C172.748 46.1083 172.972 46.4933 173.126 46.946C173.284 47.394 173.364 47.8957 173.364 48.451C173.364 49.011 173.284 49.515 173.126 49.963C172.972 50.411 172.748 50.7937 172.454 51.111C172.164 51.4283 171.81 51.6733 171.39 51.846C170.974 52.014 170.508 52.098 169.99 52.098C169.472 52.098 169.003 52.014 168.583 51.846C168.167 51.6733 167.813 51.4283 167.519 51.111C167.225 50.7937 166.998 50.411 166.84 49.963C166.681 49.515 166.602 49.011 166.602 48.451C166.602 47.8957 166.681 47.394 166.84 46.946C166.998 46.4933 167.225 46.1083 167.519 45.791C167.813 45.4737 168.167 45.2287 168.583 45.056C169.003 44.8833 169.472 44.797 169.99 44.797ZM169.99 51.125C170.69 51.125 171.212 50.8917 171.558 50.425C171.903 49.9537 172.076 49.298 172.076 48.458C172.076 47.6133 171.903 46.9553 171.558 46.484C171.212 46.0127 170.69 45.777 169.99 45.777C169.635 45.777 169.327 45.8377 169.066 45.959C168.804 46.0803 168.585 46.2553 168.408 46.484C168.235 46.7127 168.104 46.995 168.016 47.331C167.932 47.6623 167.89 48.038 167.89 48.458C167.89 48.878 167.932 49.2537 168.016 49.585C168.104 49.9163 168.235 50.1963 168.408 50.425C168.585 50.649 168.804 50.8217 169.066 50.943C169.327 51.0643 169.635 51.125 169.99 51.125ZM175.977 44.909V49.431C175.977 49.9677 176.101 50.383 176.348 50.677C176.595 50.971 176.969 51.118 177.468 51.118C177.832 51.118 178.175 51.0317 178.497 50.859C178.819 50.6863 179.115 50.446 179.386 50.138V44.909H180.632V52H179.89C179.713 52 179.601 51.9137 179.554 51.741L179.456 50.978C179.148 51.3187 178.803 51.594 178.42 51.804C178.037 52.0093 177.599 52.112 177.104 52.112C176.717 52.112 176.374 52.049 176.075 51.923C175.781 51.7923 175.534 51.6103 175.333 51.377C175.132 51.1437 174.981 50.8613 174.878 50.53C174.78 50.1987 174.731 49.8323 174.731 49.431V44.909H175.977ZM184.827 52.112C184.267 52.112 183.836 51.9557 183.532 51.643C183.234 51.3303 183.084 50.88 183.084 50.292V45.952H182.23C182.156 45.952 182.093 45.931 182.041 45.889C181.99 45.8423 181.964 45.7723 181.964 45.679V45.182L183.126 45.035L183.413 42.844C183.423 42.774 183.453 42.718 183.504 42.676C183.556 42.6293 183.621 42.606 183.7 42.606H184.33V45.049H186.36V45.952H184.33V50.208C184.33 50.5067 184.403 50.7283 184.547 50.873C184.692 51.0177 184.879 51.09 185.107 51.09C185.238 51.09 185.35 51.0737 185.443 51.041C185.541 51.0037 185.625 50.964 185.695 50.922C185.765 50.88 185.824 50.8427 185.87 50.81C185.922 50.7727 185.966 50.754 186.003 50.754C186.069 50.754 186.127 50.7937 186.178 50.873L186.542 51.468C186.328 51.6687 186.069 51.8273 185.765 51.944C185.462 52.056 185.149 52.112 184.827 52.112ZM192.757 52.112C192.197 52.112 191.765 51.9557 191.462 51.643C191.163 51.3303 191.014 50.88 191.014 50.292V45.952H190.16C190.085 45.952 190.022 45.931 189.971 45.889C189.92 45.8423 189.894 45.7723 189.894 45.679V45.182L191.056 45.035L191.343 42.844C191.352 42.774 191.383 42.718 191.434 42.676C191.485 42.6293 191.551 42.606 191.63 42.606H192.26V45.049H194.29V45.952H192.26V50.208C192.26 50.5067 192.332 50.7283 192.477 50.873C192.622 51.0177 192.808 51.09 193.037 51.09C193.168 51.09 193.28 51.0737 193.373 51.041C193.471 51.0037 193.555 50.964 193.625 50.922C193.695 50.88 193.753 50.8427 193.8 50.81C193.851 50.7727 193.896 50.754 193.933 50.754C193.998 50.754 194.057 50.7937 194.108 50.873L194.472 51.468C194.257 51.6687 193.998 51.8273 193.695 51.944C193.392 52.056 193.079 52.112 192.757 52.112ZM198.701 44.797C199.219 44.797 199.685 44.8833 200.101 45.056C200.521 45.2287 200.875 45.4737 201.165 45.791C201.459 46.1083 201.683 46.4933 201.837 46.946C201.995 47.394 202.075 47.8957 202.075 48.451C202.075 49.011 201.995 49.515 201.837 49.963C201.683 50.411 201.459 50.7937 201.165 51.111C200.875 51.4283 200.521 51.6733 200.101 51.846C199.685 52.014 199.219 52.098 198.701 52.098C198.183 52.098 197.714 52.014 197.294 51.846C196.878 51.6733 196.524 51.4283 196.23 51.111C195.936 50.7937 195.709 50.411 195.551 49.963C195.392 49.515 195.313 49.011 195.313 48.451C195.313 47.8957 195.392 47.394 195.551 46.946C195.709 46.4933 195.936 46.1083 196.23 45.791C196.524 45.4737 196.878 45.2287 197.294 45.056C197.714 44.8833 198.183 44.797 198.701 44.797ZM198.701 51.125C199.401 51.125 199.923 50.8917 200.269 50.425C200.614 49.9537 200.787 49.298 200.787 48.458C200.787 47.6133 200.614 46.9553 200.269 46.484C199.923 46.0127 199.401 45.777 198.701 45.777C198.346 45.777 198.038 45.8377 197.777 45.959C197.515 46.0803 197.296 46.2553 197.119 46.484C196.946 46.7127 196.815 46.995 196.727 47.331C196.643 47.6623 196.601 48.038 196.601 48.458C196.601 48.878 196.643 49.2537 196.727 49.585C196.815 49.9163 196.946 50.1963 197.119 50.425C197.296 50.649 197.515 50.8217 197.777 50.943C198.038 51.0643 198.346 51.125 198.701 51.125ZM208.466 52.112C207.906 52.112 207.474 51.9557 207.171 51.643C206.872 51.3303 206.723 50.88 206.723 50.292V45.952H205.869C205.794 45.952 205.731 45.931 205.68 45.889C205.629 45.8423 205.603 45.7723 205.603 45.679V45.182L206.765 45.035L207.052 42.844C207.061 42.774 207.092 42.718 207.143 42.676C207.194 42.6293 207.26 42.606 207.339 42.606H207.969V45.049H209.999V45.952H207.969V50.208C207.969 50.5067 208.041 50.7283 208.186 50.873C208.331 51.0177 208.517 51.09 208.746 51.09C208.877 51.09 208.989 51.0737 209.082 51.041C209.18 51.0037 209.264 50.964 209.334 50.922C209.404 50.88 209.462 50.8427 209.509 50.81C209.56 50.7727 209.605 50.754 209.642 50.754C209.707 50.754 209.766 50.7937 209.817 50.873L210.181 51.468C209.966 51.6687 209.707 51.8273 209.404 51.944C209.101 52.056 208.788 52.112 208.466 52.112ZM211.54 52V41.689H212.786V45.861C213.089 45.539 213.425 45.2823 213.794 45.091C214.162 44.895 214.587 44.797 215.068 44.797C215.455 44.797 215.796 44.8623 216.09 44.993C216.388 45.119 216.636 45.301 216.832 45.539C217.032 45.7723 217.184 46.0547 217.287 46.386C217.389 46.7173 217.441 47.0837 217.441 47.485V52H216.195V47.485C216.195 46.9483 216.071 46.533 215.824 46.239C215.581 45.9403 215.208 45.791 214.704 45.791C214.335 45.791 213.99 45.8797 213.668 46.057C213.35 46.2343 213.056 46.4747 212.786 46.778V52H211.54ZM220.705 44.909V52H219.459V44.909H220.705ZM220.985 42.683C220.985 42.8043 220.959 42.9187 220.908 43.026C220.861 43.1287 220.796 43.222 220.712 43.306C220.633 43.3853 220.539 43.4483 220.432 43.495C220.325 43.5417 220.21 43.565 220.089 43.565C219.968 43.565 219.853 43.5417 219.746 43.495C219.643 43.4483 219.55 43.3853 219.466 43.306C219.387 43.222 219.324 43.1287 219.277 43.026C219.23 42.9187 219.207 42.8043 219.207 42.683C219.207 42.5617 219.23 42.4473 219.277 42.34C219.324 42.228 219.387 42.1323 219.466 42.053C219.55 41.969 219.643 41.9037 219.746 41.857C219.853 41.8103 219.968 41.787 220.089 41.787C220.21 41.787 220.325 41.8103 220.432 41.857C220.539 41.9037 220.633 41.969 220.712 42.053C220.796 42.1323 220.861 42.228 220.908 42.34C220.959 42.4473 220.985 42.5617 220.985 42.683ZM222.901 52V44.909H223.643C223.82 44.909 223.932 44.9953 223.979 45.168L224.077 45.938C224.385 45.5973 224.728 45.322 225.106 45.112C225.489 44.902 225.93 44.797 226.429 44.797C226.816 44.797 227.157 44.8623 227.451 44.993C227.75 45.119 227.997 45.301 228.193 45.539C228.394 45.7723 228.545 46.0547 228.648 46.386C228.751 46.7173 228.802 47.0837 228.802 47.485V52H227.556V47.485C227.556 46.9483 227.432 46.533 227.185 46.239C226.942 45.9403 226.569 45.791 226.065 45.791C225.696 45.791 225.351 45.8797 225.029 46.057C224.712 46.2343 224.418 46.4747 224.147 46.778V52H222.901ZM233.067 44.79C233.375 44.79 233.662 44.825 233.928 44.895C234.199 44.9603 234.444 45.0583 234.663 45.189H236.588V45.651C236.588 45.805 236.49 45.903 236.294 45.945L235.489 46.057C235.648 46.3603 235.727 46.6987 235.727 47.072C235.727 47.4173 235.66 47.7323 235.524 48.017C235.394 48.297 235.209 48.5373 234.971 48.738C234.738 48.9387 234.458 49.0927 234.131 49.2C233.809 49.3073 233.455 49.361 233.067 49.361C232.736 49.361 232.423 49.3213 232.129 49.242C231.98 49.3353 231.866 49.4357 231.786 49.543C231.712 49.6503 231.674 49.7553 231.674 49.858C231.674 50.026 231.742 50.1543 231.877 50.243C232.013 50.327 232.192 50.3877 232.416 50.425C232.64 50.4623 232.895 50.4857 233.179 50.495C233.464 50.5043 233.753 50.5207 234.047 50.544C234.346 50.5627 234.638 50.5977 234.922 50.649C235.207 50.7003 235.461 50.7843 235.685 50.901C235.909 51.0177 236.089 51.1787 236.224 51.384C236.36 51.5893 236.427 51.8553 236.427 52.182C236.427 52.4853 236.35 52.7793 236.196 53.064C236.047 53.3487 235.83 53.6007 235.545 53.82C235.261 54.044 234.913 54.2213 234.502 54.352C234.092 54.4873 233.627 54.555 233.109 54.555C232.591 54.555 232.136 54.5037 231.744 54.401C231.357 54.2983 231.035 54.1607 230.778 53.988C230.522 53.8153 230.328 53.6147 230.197 53.386C230.071 53.162 230.008 52.9263 230.008 52.679C230.008 52.329 230.118 52.0327 230.337 51.79C230.561 51.5427 230.867 51.3467 231.254 51.202C231.054 51.1087 230.893 50.985 230.771 50.831C230.655 50.6723 230.596 50.4623 230.596 50.201C230.596 50.0983 230.615 49.9933 230.652 49.886C230.69 49.774 230.746 49.6643 230.82 49.557C230.9 49.4497 230.995 49.347 231.107 49.249C231.219 49.151 231.35 49.0647 231.499 48.99C231.149 48.794 230.874 48.535 230.673 48.213C230.477 47.8863 230.379 47.506 230.379 47.072C230.379 46.7267 230.445 46.414 230.575 46.134C230.711 45.8493 230.897 45.609 231.135 45.413C231.373 45.2123 231.656 45.0583 231.982 44.951C232.314 44.8437 232.675 44.79 233.067 44.79ZM235.279 52.385C235.279 52.2077 235.23 52.0653 235.132 51.958C235.034 51.8507 234.901 51.769 234.733 51.713C234.565 51.6523 234.372 51.608 234.152 51.58C233.933 51.552 233.702 51.5333 233.459 51.524C233.217 51.51 232.969 51.496 232.717 51.482C232.465 51.468 232.225 51.4423 231.996 51.405C231.73 51.531 231.513 51.685 231.345 51.867C231.182 52.049 231.1 52.266 231.1 52.518C231.1 52.6767 231.14 52.8237 231.219 52.959C231.303 53.099 231.429 53.218 231.597 53.316C231.765 53.4187 231.975 53.498 232.227 53.554C232.484 53.6147 232.785 53.645 233.13 53.645C233.466 53.645 233.767 53.6147 234.033 53.554C234.299 53.4933 234.523 53.407 234.705 53.295C234.892 53.183 235.034 53.05 235.132 52.896C235.23 52.742 235.279 52.5717 235.279 52.385ZM233.067 48.535C233.319 48.535 233.541 48.5 233.732 48.43C233.928 48.36 234.092 48.262 234.222 48.136C234.353 48.01 234.451 47.8607 234.516 47.688C234.582 47.5107 234.614 47.317 234.614 47.107C234.614 46.673 234.481 46.3277 234.215 46.071C233.954 45.8143 233.571 45.686 233.067 45.686C232.568 45.686 232.185 45.8143 231.919 46.071C231.658 46.3277 231.527 46.673 231.527 47.107C231.527 47.317 231.56 47.5107 231.625 47.688C231.695 47.8607 231.796 48.01 231.926 48.136C232.057 48.262 232.218 48.36 232.409 48.43C232.601 48.5 232.82 48.535 233.067 48.535ZM241.891 46.078C241.835 46.1807 241.748 46.232 241.632 46.232C241.562 46.232 241.482 46.2063 241.394 46.155C241.305 46.1037 241.195 46.0477 241.065 45.987C240.939 45.9217 240.787 45.8633 240.61 45.812C240.432 45.756 240.222 45.728 239.98 45.728C239.77 45.728 239.581 45.756 239.413 45.812C239.245 45.8633 239.1 45.9357 238.979 46.029C238.862 46.1223 238.771 46.232 238.706 46.358C238.645 46.4793 238.615 46.6123 238.615 46.757C238.615 46.939 238.666 47.0907 238.769 47.212C238.876 47.3333 239.016 47.4383 239.189 47.527C239.361 47.6157 239.557 47.695 239.777 47.765C239.996 47.8303 240.22 47.9027 240.449 47.982C240.682 48.0567 240.908 48.1407 241.128 48.234C241.347 48.3273 241.543 48.444 241.716 48.584C241.888 48.724 242.026 48.8967 242.129 49.102C242.236 49.3027 242.29 49.5453 242.29 49.83C242.29 50.1567 242.231 50.46 242.115 50.74C241.998 51.0153 241.825 51.2557 241.597 51.461C241.368 51.6617 241.088 51.8203 240.757 51.937C240.425 52.0537 240.043 52.112 239.609 52.112C239.114 52.112 238.666 52.0327 238.265 51.874C237.863 51.7107 237.523 51.503 237.243 51.251L237.537 50.775C237.574 50.7143 237.618 50.6677 237.67 50.635C237.721 50.6023 237.789 50.586 237.873 50.586C237.957 50.586 238.045 50.6187 238.139 50.684C238.232 50.7493 238.344 50.8217 238.475 50.901C238.61 50.9803 238.771 51.0527 238.958 51.118C239.149 51.1833 239.387 51.216 239.672 51.216C239.914 51.216 240.127 51.1857 240.309 51.125C240.491 51.0597 240.642 50.9733 240.764 50.866C240.885 50.7587 240.974 50.635 241.03 50.495C241.09 50.355 241.121 50.2057 241.121 50.047C241.121 49.851 241.067 49.69 240.96 49.564C240.857 49.4333 240.719 49.3237 240.547 49.235C240.374 49.1417 240.176 49.0623 239.952 48.997C239.732 48.927 239.506 48.8547 239.273 48.78C239.044 48.7053 238.818 48.6213 238.594 48.528C238.374 48.43 238.178 48.3087 238.006 48.164C237.833 48.0193 237.693 47.842 237.586 47.632C237.483 47.4173 237.432 47.1583 237.432 46.855C237.432 46.5843 237.488 46.3253 237.6 46.078C237.712 45.826 237.875 45.6067 238.09 45.42C238.304 45.2287 238.568 45.077 238.881 44.965C239.193 44.853 239.55 44.797 239.952 44.797C240.418 44.797 240.836 44.8717 241.205 45.021C241.578 45.1657 241.9 45.3663 242.171 45.623L241.891 46.078ZM248.757 52.112C248.197 52.112 247.765 51.9557 247.462 51.643C247.163 51.3303 247.014 50.88 247.014 50.292V45.952H246.16C246.085 45.952 246.022 45.931 245.971 45.889C245.92 45.8423 245.894 45.7723 245.894 45.679V45.182L247.056 45.035L247.343 42.844C247.352 42.774 247.383 42.718 247.434 42.676C247.485 42.6293 247.551 42.606 247.63 42.606H248.26V45.049H250.29V45.952H248.26V50.208C248.26 50.5067 248.332 50.7283 248.477 50.873C248.622 51.0177 248.808 51.09 249.037 51.09C249.168 51.09 249.28 51.0737 249.373 51.041C249.471 51.0037 249.555 50.964 249.625 50.922C249.695 50.88 249.753 50.8427 249.8 50.81C249.851 50.7727 249.896 50.754 249.933 50.754C249.998 50.754 250.057 50.7937 250.108 50.873L250.472 51.468C250.257 51.6687 249.998 51.8273 249.695 51.944C249.392 52.056 249.079 52.112 248.757 52.112ZM251.831 52V41.689H253.077V45.861C253.38 45.539 253.716 45.2823 254.085 45.091C254.453 44.895 254.878 44.797 255.359 44.797C255.746 44.797 256.087 44.8623 256.381 44.993C256.679 45.119 256.927 45.301 257.123 45.539C257.323 45.7723 257.475 46.0547 257.578 46.386C257.68 46.7173 257.732 47.0837 257.732 47.485V52H256.486V47.485C256.486 46.9483 256.362 46.533 256.115 46.239C255.872 45.9403 255.499 45.791 254.995 45.791C254.626 45.791 254.281 45.8797 253.959 46.057C253.641 46.2343 253.347 46.4747 253.077 46.778V52H251.831ZM264.818 52H264.265C264.144 52 264.046 51.9813 263.971 51.944C263.896 51.9067 263.847 51.8273 263.824 51.706L263.684 51.048C263.497 51.216 263.315 51.3677 263.138 51.503C262.961 51.6337 262.774 51.7457 262.578 51.839C262.382 51.9277 262.172 51.9953 261.948 52.042C261.729 52.0887 261.484 52.112 261.213 52.112C260.938 52.112 260.679 52.0747 260.436 52C260.198 51.9207 259.99 51.804 259.813 51.65C259.636 51.496 259.493 51.3023 259.386 51.069C259.283 50.831 259.232 50.551 259.232 50.229C259.232 49.949 259.309 49.6807 259.463 49.424C259.617 49.1627 259.864 48.9317 260.205 48.731C260.55 48.5303 261.001 48.367 261.556 48.241C262.111 48.1103 262.79 48.0357 263.593 48.017V47.464C263.593 46.9133 263.474 46.498 263.236 46.218C263.003 45.9333 262.655 45.791 262.193 45.791C261.89 45.791 261.633 45.8307 261.423 45.91C261.218 45.9847 261.038 46.071 260.884 46.169C260.735 46.2623 260.604 46.3487 260.492 46.428C260.385 46.5027 260.277 46.54 260.17 46.54C260.086 46.54 260.011 46.519 259.946 46.477C259.885 46.4303 259.836 46.3743 259.799 46.309L259.575 45.91C259.967 45.532 260.389 45.2497 260.842 45.063C261.295 44.8763 261.796 44.783 262.347 44.783C262.744 44.783 263.096 44.8483 263.404 44.979C263.712 45.1097 263.971 45.2917 264.181 45.525C264.391 45.7583 264.55 46.0407 264.657 46.372C264.764 46.7033 264.818 47.0673 264.818 47.464V52ZM261.584 51.237C261.803 51.237 262.004 51.216 262.186 51.174C262.368 51.1273 262.538 51.0643 262.697 50.985C262.86 50.901 263.014 50.8007 263.159 50.684C263.308 50.5673 263.453 50.4343 263.593 50.285V48.808C263.019 48.8267 262.531 48.8733 262.13 48.948C261.729 49.018 261.402 49.1113 261.15 49.228C260.898 49.3447 260.714 49.4823 260.597 49.641C260.485 49.7997 260.429 49.977 260.429 50.173C260.429 50.3597 260.459 50.5207 260.52 50.656C260.581 50.7913 260.662 50.9033 260.765 50.992C260.868 51.076 260.989 51.139 261.129 51.181C261.269 51.2183 261.421 51.237 261.584 51.237ZM268.855 52.112C268.295 52.112 267.863 51.9557 267.56 51.643C267.261 51.3303 267.112 50.88 267.112 50.292V45.952H266.258C266.183 45.952 266.12 45.931 266.069 45.889C266.017 45.8423 265.992 45.7723 265.992 45.679V45.182L267.154 45.035L267.441 42.844C267.45 42.774 267.48 42.718 267.532 42.676C267.583 42.6293 267.648 42.606 267.728 42.606H268.358V45.049H270.388V45.952H268.358V50.208C268.358 50.5067 268.43 50.7283 268.575 50.873C268.719 51.0177 268.906 51.09 269.135 51.09C269.265 51.09 269.377 51.0737 269.471 51.041C269.569 51.0037 269.653 50.964 269.723 50.922C269.793 50.88 269.851 50.8427 269.898 50.81C269.949 50.7727 269.993 50.754 270.031 50.754C270.096 50.754 270.154 50.7937 270.206 50.873L270.57 51.468C270.355 51.6687 270.096 51.8273 269.793 51.944C269.489 52.056 269.177 52.112 268.855 52.112ZM279.843 52H279.29C279.169 52 279.071 51.9813 278.996 51.944C278.922 51.9067 278.873 51.8273 278.849 51.706L278.709 51.048C278.523 51.216 278.341 51.3677 278.163 51.503C277.986 51.6337 277.799 51.7457 277.603 51.839C277.407 51.9277 277.197 51.9953 276.973 52.042C276.754 52.0887 276.509 52.112 276.238 52.112C275.963 52.112 275.704 52.0747 275.461 52C275.223 51.9207 275.016 51.804 274.838 51.65C274.661 51.496 274.519 51.3023 274.411 51.069C274.309 50.831 274.257 50.551 274.257 50.229C274.257 49.949 274.334 49.6807 274.488 49.424C274.642 49.1627 274.89 48.9317 275.23 48.731C275.576 48.5303 276.026 48.367 276.581 48.241C277.137 48.1103 277.816 48.0357 278.618 48.017V47.464C278.618 46.9133 278.499 46.498 278.261 46.218C278.028 45.9333 277.68 45.791 277.218 45.791C276.915 45.791 276.658 45.8307 276.448 45.91C276.243 45.9847 276.063 46.071 275.909 46.169C275.76 46.2623 275.629 46.3487 275.517 46.428C275.41 46.5027 275.303 46.54 275.195 46.54C275.111 46.54 275.037 46.519 274.971 46.477C274.911 46.4303 274.862 46.3743 274.824 46.309L274.6 45.91C274.992 45.532 275.415 45.2497 275.867 45.063C276.32 44.8763 276.822 44.783 277.372 44.783C277.769 44.783 278.121 44.8483 278.429 44.979C278.737 45.1097 278.996 45.2917 279.206 45.525C279.416 45.7583 279.575 46.0407 279.682 46.372C279.79 46.7033 279.843 47.0673 279.843 47.464V52ZM276.609 51.237C276.829 51.237 277.029 51.216 277.211 51.174C277.393 51.1273 277.564 51.0643 277.722 50.985C277.886 50.901 278.04 50.8007 278.184 50.684C278.334 50.5673 278.478 50.4343 278.618 50.285V48.808C278.044 48.8267 277.557 48.8733 277.155 48.948C276.754 49.018 276.427 49.1113 276.175 49.228C275.923 49.3447 275.739 49.4823 275.622 49.641C275.51 49.7997 275.454 49.977 275.454 50.173C275.454 50.3597 275.485 50.5207 275.545 50.656C275.606 50.7913 275.688 50.9033 275.79 50.992C275.893 51.076 276.014 51.139 276.154 51.181C276.294 51.2183 276.446 51.237 276.609 51.237ZM281.731 52V44.909H282.445C282.58 44.909 282.674 44.9347 282.725 44.986C282.776 45.0373 282.811 45.126 282.83 45.252L282.914 46.358C283.157 45.8633 283.455 45.4783 283.81 45.203C284.169 44.923 284.589 44.783 285.07 44.783C285.266 44.783 285.443 44.8063 285.602 44.853C285.761 44.895 285.908 44.9557 286.043 45.035L285.882 45.966C285.849 46.0827 285.777 46.141 285.665 46.141C285.6 46.141 285.499 46.12 285.364 46.078C285.229 46.0313 285.04 46.008 284.797 46.008C284.363 46.008 283.999 46.134 283.705 46.386C283.416 46.638 283.173 47.0043 282.977 47.485V52H281.731ZM290.184 44.797C290.609 44.797 291.001 44.8693 291.36 45.014C291.72 45.154 292.03 45.3593 292.291 45.63C292.553 45.896 292.756 46.2273 292.9 46.624C293.05 47.016 293.124 47.464 293.124 47.968C293.124 48.164 293.103 48.2947 293.061 48.36C293.019 48.4253 292.94 48.458 292.823 48.458H288.105C288.115 48.906 288.175 49.2957 288.287 49.627C288.399 49.9583 288.553 50.236 288.749 50.46C288.945 50.6793 289.179 50.845 289.449 50.957C289.72 51.0643 290.023 51.118 290.359 51.118C290.672 51.118 290.94 51.083 291.164 51.013C291.393 50.9383 291.589 50.859 291.752 50.775C291.916 50.691 292.051 50.614 292.158 50.544C292.27 50.4693 292.366 50.432 292.445 50.432C292.548 50.432 292.627 50.4717 292.683 50.551L293.033 51.006C292.879 51.1927 292.695 51.356 292.48 51.496C292.266 51.6313 292.035 51.7433 291.787 51.832C291.545 51.9207 291.293 51.986 291.031 52.028C290.77 52.0747 290.511 52.098 290.254 52.098C289.764 52.098 289.312 52.0163 288.896 51.853C288.486 51.685 288.129 51.4423 287.825 51.125C287.527 50.803 287.293 50.4063 287.125 49.935C286.957 49.4637 286.873 48.9223 286.873 48.311C286.873 47.8163 286.948 47.3543 287.097 46.925C287.251 46.4957 287.471 46.1247 287.755 45.812C288.04 45.4947 288.388 45.2473 288.798 45.07C289.209 44.888 289.671 44.797 290.184 44.797ZM290.212 45.714C289.61 45.714 289.137 45.889 288.791 46.239C288.446 46.5843 288.231 47.065 288.147 47.681H292.004C292.004 47.3917 291.965 47.128 291.885 46.89C291.806 46.6473 291.689 46.4397 291.535 46.267C291.381 46.0897 291.192 45.9543 290.968 45.861C290.749 45.763 290.497 45.714 290.212 45.714ZM303.159 44.909V54.401H301.913V50.95C301.615 51.2953 301.274 51.573 300.891 51.783C300.513 51.993 300.079 52.098 299.589 52.098C299.183 52.098 298.815 52.021 298.483 51.867C298.152 51.7083 297.87 51.4773 297.636 51.174C297.403 50.8707 297.223 50.4927 297.097 50.04C296.971 49.5873 296.908 49.067 296.908 48.479C296.908 47.9563 296.978 47.471 297.118 47.023C297.258 46.5703 297.459 46.1783 297.72 45.847C297.986 45.5157 298.308 45.2567 298.686 45.07C299.064 44.8787 299.494 44.783 299.974 44.783C300.432 44.783 300.819 44.8647 301.136 45.028C301.458 45.1913 301.745 45.4223 301.997 45.721L302.081 45.168C302.128 44.9953 302.24 44.909 302.417 44.909H303.159ZM300.002 51.09C300.408 51.09 300.763 50.9967 301.066 50.81C301.374 50.6233 301.657 50.3597 301.913 50.019V46.589C301.689 46.2903 301.44 46.078 301.164 45.952C300.889 45.8213 300.586 45.756 300.254 45.756C299.592 45.756 299.083 45.9917 298.728 46.463C298.374 46.9343 298.196 47.6063 298.196 48.479C298.196 48.941 298.236 49.3377 298.315 49.669C298.395 49.9957 298.511 50.2663 298.665 50.481C298.819 50.691 299.008 50.845 299.232 50.943C299.456 51.041 299.713 51.09 300.002 51.09ZM306.325 44.909V49.431C306.325 49.9677 306.448 50.383 306.696 50.677C306.943 50.971 307.316 51.118 307.816 51.118C308.18 51.118 308.523 51.0317 308.845 50.859C309.167 50.6863 309.463 50.446 309.734 50.138V44.909H310.98V52H310.238C310.06 52 309.948 51.9137 309.902 51.741L309.804 50.978C309.496 51.3187 309.15 51.594 308.768 51.804C308.385 52.0093 307.946 52.112 307.452 52.112C307.064 52.112 306.721 52.049 306.423 51.923C306.129 51.7923 305.881 51.6103 305.681 51.377C305.48 51.1437 305.328 50.8613 305.226 50.53C305.128 50.1987 305.079 49.8323 305.079 49.431V44.909H306.325ZM314.412 44.909V52H313.166V44.909H314.412ZM314.692 42.683C314.692 42.8043 314.666 42.9187 314.615 43.026C314.568 43.1287 314.503 43.222 314.419 43.306C314.34 43.3853 314.246 43.4483 314.139 43.495C314.032 43.5417 313.917 43.565 313.796 43.565C313.675 43.565 313.56 43.5417 313.453 43.495C313.35 43.4483 313.257 43.3853 313.173 43.306C313.094 43.222 313.031 43.1287 312.984 43.026C312.937 42.9187 312.914 42.8043 312.914 42.683C312.914 42.5617 312.937 42.4473 312.984 42.34C313.031 42.228 313.094 42.1323 313.173 42.053C313.257 41.969 313.35 41.9037 313.453 41.857C313.56 41.8103 313.675 41.787 313.796 41.787C313.917 41.787 314.032 41.8103 314.139 41.857C314.246 41.9037 314.34 41.969 314.419 42.053C314.503 42.1323 314.568 42.228 314.615 42.34C314.666 42.4473 314.692 42.5617 314.692 42.683ZM318.757 52.112C318.197 52.112 317.765 51.9557 317.462 51.643C317.163 51.3303 317.014 50.88 317.014 50.292V45.952H316.16C316.085 45.952 316.022 45.931 315.971 45.889C315.92 45.8423 315.894 45.7723 315.894 45.679V45.182L317.056 45.035L317.343 42.844C317.352 42.774 317.383 42.718 317.434 42.676C317.485 42.6293 317.551 42.606 317.63 42.606H318.26V45.049H320.29V45.952H318.26V50.208C318.26 50.5067 318.332 50.7283 318.477 50.873C318.622 51.0177 318.808 51.09 319.037 51.09C319.168 51.09 319.28 51.0737 319.373 51.041C319.471 51.0037 319.555 50.964 319.625 50.922C319.695 50.88 319.753 50.8427 319.8 50.81C319.851 50.7727 319.896 50.754 319.933 50.754C319.998 50.754 320.057 50.7937 320.108 50.873L320.472 51.468C320.257 51.6687 319.998 51.8273 319.695 51.944C319.392 52.056 319.079 52.112 318.757 52.112ZM324.638 44.797C325.062 44.797 325.454 44.8693 325.814 45.014C326.173 45.154 326.483 45.3593 326.745 45.63C327.006 45.896 327.209 46.2273 327.354 46.624C327.503 47.016 327.578 47.464 327.578 47.968C327.578 48.164 327.557 48.2947 327.515 48.36C327.473 48.4253 327.393 48.458 327.277 48.458H322.559C322.568 48.906 322.629 49.2957 322.741 49.627C322.853 49.9583 323.007 50.236 323.203 50.46C323.399 50.6793 323.632 50.845 323.903 50.957C324.173 51.0643 324.477 51.118 324.813 51.118C325.125 51.118 325.394 51.083 325.618 51.013C325.846 50.9383 326.042 50.859 326.206 50.775C326.369 50.691 326.504 50.614 326.612 50.544C326.724 50.4693 326.819 50.432 326.899 50.432C327.001 50.432 327.081 50.4717 327.137 50.551L327.487 51.006C327.333 51.1927 327.148 51.356 326.934 51.496C326.719 51.6313 326.488 51.7433 326.241 51.832C325.998 51.9207 325.746 51.986 325.485 52.028C325.223 52.0747 324.964 52.098 324.708 52.098C324.218 52.098 323.765 52.0163 323.35 51.853C322.939 51.685 322.582 51.4423 322.279 51.125C321.98 50.803 321.747 50.4063 321.579 49.935C321.411 49.4637 321.327 48.9223 321.327 48.311C321.327 47.8163 321.401 47.3543 321.551 46.925C321.705 46.4957 321.924 46.1247 322.209 45.812C322.493 45.4947 322.841 45.2473 323.252 45.07C323.662 44.888 324.124 44.797 324.638 44.797ZM324.666 45.714C324.064 45.714 323.59 45.889 323.245 46.239C322.899 46.5843 322.685 47.065 322.601 47.681H326.458C326.458 47.3917 326.418 47.128 326.339 46.89C326.259 46.6473 326.143 46.4397 325.989 46.267C325.835 46.0897 325.646 45.9543 325.422 45.861C325.202 45.763 324.95 45.714 324.666 45.714ZM328.766 51.23C328.766 51.1087 328.787 50.9943 328.829 50.887C328.876 50.7797 328.937 50.6863 329.011 50.607C329.091 50.5277 329.184 50.4647 329.291 50.418C329.399 50.3713 329.513 50.348 329.634 50.348C329.756 50.348 329.87 50.3713 329.977 50.418C330.085 50.4647 330.178 50.5277 330.257 50.607C330.337 50.6863 330.397 50.7797 330.439 50.887C330.486 50.9943 330.509 51.1087 330.509 51.23C330.509 51.356 330.486 51.4727 330.439 51.58C330.397 51.6827 330.337 51.7737 330.257 51.853C330.178 51.9323 330.085 51.993 329.977 52.035C329.87 52.0817 329.756 52.105 329.634 52.105C329.513 52.105 329.399 52.0817 329.291 52.035C329.184 51.993 329.091 51.9323 329.011 51.853C328.937 51.7737 328.876 51.6827 328.829 51.58C328.787 51.4727 328.766 51.356 328.766 51.23ZM331.733 51.23C331.733 51.1087 331.754 50.9943 331.796 50.887C331.843 50.7797 331.904 50.6863 331.978 50.607C332.058 50.5277 332.151 50.4647 332.258 50.418C332.366 50.3713 332.48 50.348 332.601 50.348C332.723 50.348 332.837 50.3713 332.944 50.418C333.052 50.4647 333.145 50.5277 333.224 50.607C333.304 50.6863 333.364 50.7797 333.406 50.887C333.453 50.9943 333.476 51.1087 333.476 51.23C333.476 51.356 333.453 51.4727 333.406 51.58C333.364 51.6827 333.304 51.7737 333.224 51.853C333.145 51.9323 333.052 51.993 332.944 52.035C332.837 52.0817 332.723 52.105 332.601 52.105C332.48 52.105 332.366 52.0817 332.258 52.035C332.151 51.993 332.058 51.9323 331.978 51.853C331.904 51.7737 331.843 51.6827 331.796 51.58C331.754 51.4727 331.733 51.356 331.733 51.23ZM334.7 51.23C334.7 51.1087 334.721 50.9943 334.763 50.887C334.81 50.7797 334.87 50.6863 334.945 50.607C335.024 50.5277 335.118 50.4647 335.225 50.418C335.332 50.3713 335.447 50.348 335.568 50.348C335.689 50.348 335.804 50.3713 335.911 50.418C336.018 50.4647 336.112 50.5277 336.191 50.607C336.27 50.6863 336.331 50.7797 336.373 50.887C336.42 50.9943 336.443 51.1087 336.443 51.23C336.443 51.356 336.42 51.4727 336.373 51.58C336.331 51.6827 336.27 51.7737 336.191 51.853C336.112 51.9323 336.018 51.993 335.911 52.035C335.804 52.0817 335.689 52.105 335.568 52.105C335.447 52.105 335.332 52.0817 335.225 52.035C335.118 51.993 335.024 51.9323 334.945 51.853C334.87 51.7737 334.81 51.6827 334.763 51.58C334.721 51.4727 334.7 51.356 334.7 51.23Z" fill="#828282"/>
<path d="M76.98 28.613C77.0827 28.613 77.1713 28.6527 77.246 28.732L77.988 29.537C77.5773 30.0457 77.071 30.4353 76.469 30.706C75.8717 30.9767 75.153 31.112 74.313 31.112C73.5617 31.112 72.885 30.9837 72.283 30.727C71.6857 30.4703 71.1747 30.1133 70.75 29.656C70.3253 29.1987 69.9987 28.6527 69.77 28.018C69.546 27.3833 69.434 26.6903 69.434 25.939C69.434 25.1783 69.56 24.483 69.812 23.853C70.064 23.2183 70.4187 22.6723 70.876 22.215C71.3333 21.7577 71.8793 21.403 72.514 21.151C73.1533 20.8943 73.858 20.766 74.628 20.766C75.3793 20.766 76.035 20.8873 76.595 21.13C77.1597 21.368 77.6427 21.6853 78.044 22.082L77.414 22.957C77.3767 23.013 77.3277 23.062 77.267 23.104C77.211 23.146 77.1317 23.167 77.029 23.167C76.9217 23.167 76.812 23.125 76.7 23.041C76.588 22.957 76.4457 22.866 76.273 22.768C76.1003 22.67 75.881 22.579 75.615 22.495C75.3537 22.411 75.02 22.369 74.614 22.369C74.138 22.369 73.6993 22.453 73.298 22.621C72.9013 22.7843 72.5583 23.02 72.269 23.328C71.9843 23.636 71.7603 24.0117 71.597 24.455C71.4383 24.8937 71.359 25.3883 71.359 25.939C71.359 26.5083 71.4383 27.0147 71.597 27.458C71.7603 27.9013 71.9797 28.2747 72.255 28.578C72.5303 28.8813 72.8547 29.1147 73.228 29.278C73.6013 29.4367 74.0027 29.516 74.432 29.516C74.6887 29.516 74.9197 29.502 75.125 29.474C75.335 29.446 75.5263 29.4017 75.699 29.341C75.8763 29.2803 76.042 29.2033 76.196 29.11C76.3547 29.012 76.511 28.893 76.665 28.753C76.7117 28.711 76.7607 28.6783 76.812 28.655C76.8633 28.627 76.9193 28.613 76.98 28.613ZM82.3826 23.706C82.9192 23.706 83.4046 23.7923 83.8386 23.965C84.2772 24.1377 84.6506 24.3827 84.9586 24.7C85.2666 25.0173 85.5046 25.4047 85.6726 25.862C85.8406 26.3193 85.9246 26.8303 85.9246 27.395C85.9246 27.9643 85.8406 28.4777 85.6726 28.935C85.5046 29.3923 85.2666 29.782 84.9586 30.104C84.6506 30.426 84.2772 30.6733 83.8386 30.846C83.4046 31.0187 82.9192 31.105 82.3826 31.105C81.8459 31.105 81.3582 31.0187 80.9196 30.846C80.4809 30.6733 80.1052 30.426 79.7926 30.104C79.4846 29.782 79.2442 29.3923 79.0716 28.935C78.9036 28.4777 78.8196 27.9643 78.8196 27.395C78.8196 26.8303 78.9036 26.3193 79.0716 25.862C79.2442 25.4047 79.4846 25.0173 79.7926 24.7C80.1052 24.3827 80.4809 24.1377 80.9196 23.965C81.3582 23.7923 81.8459 23.706 82.3826 23.706ZM82.3826 29.775C82.9799 29.775 83.4209 29.5743 83.7056 29.173C83.9949 28.7717 84.1396 28.1837 84.1396 27.409C84.1396 26.6343 83.9949 26.044 83.7056 25.638C83.4209 25.232 82.9799 25.029 82.3826 25.029C81.7759 25.029 81.3279 25.2343 81.0386 25.645C80.7492 26.051 80.6046 26.639 80.6046 27.409C80.6046 28.179 80.7492 28.767 81.0386 29.173C81.3279 29.5743 81.7759 29.775 82.3826 29.775ZM90.3396 23.706C90.8763 23.706 91.3616 23.7923 91.7956 23.965C92.2343 24.1377 92.6076 24.3827 92.9156 24.7C93.2236 25.0173 93.4616 25.4047 93.6296 25.862C93.7976 26.3193 93.8816 26.8303 93.8816 27.395C93.8816 27.9643 93.7976 28.4777 93.6296 28.935C93.4616 29.3923 93.2236 29.782 92.9156 30.104C92.6076 30.426 92.2343 30.6733 91.7956 30.846C91.3616 31.0187 90.8763 31.105 90.3396 31.105C89.8029 31.105 89.3153 31.0187 88.8766 30.846C88.4379 30.6733 88.0623 30.426 87.7496 30.104C87.4416 29.782 87.2013 29.3923 87.0286 28.935C86.8606 28.4777 86.7766 27.9643 86.7766 27.395C86.7766 26.8303 86.8606 26.3193 87.0286 25.862C87.2013 25.4047 87.4416 25.0173 87.7496 24.7C88.0623 24.3827 88.4379 24.1377 88.8766 23.965C89.3153 23.7923 89.8029 23.706 90.3396 23.706ZM90.3396 29.775C90.9369 29.775 91.3779 29.5743 91.6626 29.173C91.9519 28.7717 92.0966 28.1837 92.0966 27.409C92.0966 26.6343 91.9519 26.044 91.6626 25.638C91.3779 25.232 90.9369 25.029 90.3396 25.029C89.7329 25.029 89.2849 25.2343 88.9956 25.645C88.7063 26.051 88.5616 26.639 88.5616 27.409C88.5616 28.179 88.7063 28.767 88.9956 29.173C89.2849 29.5743 89.7329 29.775 90.3396 29.775ZM95.2306 33.345V23.818H96.2876C96.3996 23.818 96.4953 23.8437 96.5746 23.895C96.654 23.9463 96.7053 24.0257 96.7286 24.133L96.8686 24.798C97.158 24.4667 97.4893 24.1983 97.8626 23.993C98.2406 23.7877 98.6816 23.685 99.1856 23.685C99.5776 23.685 99.9346 23.7667 100.257 23.93C100.583 24.0933 100.863 24.3313 101.097 24.644C101.335 24.952 101.517 25.3347 101.643 25.792C101.773 26.2447 101.839 26.765 101.839 27.353C101.839 27.8897 101.766 28.3867 101.622 28.844C101.477 29.3013 101.269 29.698 100.999 30.034C100.733 30.37 100.408 30.6337 100.026 30.825C99.6476 31.0117 99.223 31.105 98.7516 31.105C98.3456 31.105 98.0003 31.0443 97.7156 30.923C97.4356 30.797 97.1836 30.6243 96.9596 30.405V33.345H95.2306ZM98.5906 25.05C98.2313 25.05 97.9233 25.127 97.6666 25.281C97.4146 25.4303 97.179 25.6427 96.9596 25.918V29.138C97.1556 29.3807 97.368 29.551 97.5966 29.649C97.83 29.7423 98.0796 29.789 98.3456 29.789C98.607 29.789 98.8426 29.74 99.0526 29.642C99.2673 29.544 99.447 29.3947 99.5916 29.194C99.741 28.9933 99.8553 28.7413 99.9346 28.438C100.014 28.13 100.054 27.7683 100.054 27.353C100.054 26.933 100.019 26.5783 99.9486 26.289C99.8833 25.995 99.7876 25.757 99.6616 25.575C99.5356 25.393 99.3816 25.26 99.1996 25.176C99.0223 25.092 98.8193 25.05 98.5906 25.05ZM106.115 23.706C106.567 23.706 106.983 23.7783 107.361 23.923C107.743 24.0677 108.072 24.28 108.348 24.56C108.623 24.8353 108.838 25.176 108.992 25.582C109.146 25.9833 109.223 26.443 109.223 26.961C109.223 27.0917 109.216 27.2013 109.202 27.29C109.192 27.374 109.171 27.4417 109.139 27.493C109.111 27.5397 109.071 27.5747 109.02 27.598C108.968 27.6167 108.903 27.626 108.824 27.626H104.386C104.437 28.3633 104.635 28.9047 104.981 29.25C105.326 29.5953 105.783 29.768 106.353 29.768C106.633 29.768 106.873 29.7353 107.074 29.67C107.279 29.6047 107.456 29.5323 107.606 29.453C107.76 29.3737 107.893 29.3013 108.005 29.236C108.121 29.1707 108.233 29.138 108.341 29.138C108.411 29.138 108.471 29.152 108.523 29.18C108.574 29.208 108.618 29.2477 108.656 29.299L109.16 29.929C108.968 30.153 108.754 30.342 108.516 30.496C108.278 30.6453 108.028 30.7667 107.767 30.86C107.51 30.9487 107.246 31.0117 106.976 31.049C106.71 31.0863 106.451 31.105 106.199 31.105C105.699 31.105 105.235 31.0233 104.806 30.86C104.376 30.692 104.003 30.447 103.686 30.125C103.368 29.7983 103.119 29.397 102.937 28.921C102.755 28.4403 102.664 27.885 102.664 27.255C102.664 26.765 102.743 26.3053 102.902 25.876C103.06 25.442 103.287 25.0663 103.581 24.749C103.879 24.427 104.241 24.1727 104.666 23.986C105.095 23.7993 105.578 23.706 106.115 23.706ZM106.15 24.945C105.646 24.945 105.251 25.0873 104.967 25.372C104.682 25.6567 104.5 26.0603 104.421 26.583H107.669C107.669 26.359 107.638 26.149 107.578 25.953C107.517 25.7523 107.424 25.5773 107.298 25.428C107.172 25.2787 107.013 25.162 106.822 25.078C106.63 24.9893 106.406 24.945 106.15 24.945ZM110.625 31V23.818H111.64C111.818 23.818 111.941 23.8507 112.011 23.916C112.081 23.9813 112.128 24.0933 112.151 24.252L112.256 25.12C112.513 24.6767 112.814 24.3267 113.159 24.07C113.505 23.8133 113.892 23.685 114.321 23.685C114.676 23.685 114.97 23.7667 115.203 23.93L114.979 25.225C114.965 25.309 114.935 25.3697 114.888 25.407C114.842 25.4397 114.779 25.456 114.699 25.456C114.629 25.456 114.534 25.4397 114.412 25.407C114.291 25.3743 114.13 25.358 113.929 25.358C113.57 25.358 113.262 25.4583 113.005 25.659C112.749 25.855 112.532 26.1443 112.354 26.527V31H110.625ZM128.133 25.939C128.133 26.681 128.009 27.3623 127.762 27.983C127.515 28.6037 127.167 29.138 126.719 29.586C126.271 30.034 125.732 30.3817 125.102 30.629C124.472 30.8763 123.774 31 123.009 31H119.145V20.878H123.009C123.774 20.878 124.472 21.004 125.102 21.256C125.732 21.5033 126.271 21.851 126.719 22.299C127.167 22.7423 127.515 23.2743 127.762 23.895C128.009 24.5157 128.133 25.197 128.133 25.939ZM126.208 25.939C126.208 25.3837 126.133 24.8867 125.984 24.448C125.835 24.0047 125.622 23.6313 125.347 23.328C125.072 23.02 124.736 22.7843 124.339 22.621C123.947 22.4577 123.504 22.376 123.009 22.376H121.042V29.502H123.009C123.504 29.502 123.947 29.4203 124.339 29.257C124.736 29.0937 125.072 28.8603 125.347 28.557C125.622 28.249 125.835 27.8757 125.984 27.437C126.133 26.9937 126.208 26.4943 126.208 25.939ZM132.572 23.706C133.109 23.706 133.594 23.7923 134.028 23.965C134.467 24.1377 134.84 24.3827 135.148 24.7C135.456 25.0173 135.694 25.4047 135.862 25.862C136.03 26.3193 136.114 26.8303 136.114 27.395C136.114 27.9643 136.03 28.4777 135.862 28.935C135.694 29.3923 135.456 29.782 135.148 30.104C134.84 30.426 134.467 30.6733 134.028 30.846C133.594 31.0187 133.109 31.105 132.572 31.105C132.035 31.105 131.548 31.0187 131.109 30.846C130.67 30.6733 130.295 30.426 129.982 30.104C129.674 29.782 129.434 29.3923 129.261 28.935C129.093 28.4777 129.009 27.9643 129.009 27.395C129.009 26.8303 129.093 26.3193 129.261 25.862C129.434 25.4047 129.674 25.0173 129.982 24.7C130.295 24.3827 130.67 24.1377 131.109 23.965C131.548 23.7923 132.035 23.706 132.572 23.706ZM132.572 29.775C133.169 29.775 133.61 29.5743 133.895 29.173C134.184 28.7717 134.329 28.1837 134.329 27.409C134.329 26.6343 134.184 26.044 133.895 25.638C133.61 25.232 133.169 25.029 132.572 25.029C131.965 25.029 131.517 25.2343 131.228 25.645C130.939 26.051 130.794 26.639 130.794 27.409C130.794 28.179 130.939 28.767 131.228 29.173C131.517 29.5743 131.965 29.775 132.572 29.775ZM139.213 20.598V26.555H139.535C139.652 26.555 139.743 26.5387 139.808 26.506C139.873 26.4733 139.943 26.4127 140.018 26.324L141.803 24.119C141.882 24.0257 141.966 23.9533 142.055 23.902C142.144 23.846 142.26 23.818 142.405 23.818H143.987L141.754 26.485C141.675 26.583 141.593 26.674 141.509 26.758C141.425 26.8373 141.334 26.9073 141.236 26.968C141.334 27.038 141.42 27.1197 141.495 27.213C141.57 27.3063 141.644 27.4067 141.719 27.514L144.113 31H142.552C142.417 31 142.302 30.9767 142.209 30.93C142.116 30.8833 142.032 30.804 141.957 30.692L140.13 27.969C140.06 27.8617 139.99 27.7917 139.92 27.759C139.85 27.7263 139.745 27.71 139.605 27.71H139.213V31H137.484V20.598H139.213ZM147.029 23.818V31H145.3V23.818H147.029ZM147.288 21.725C147.288 21.8743 147.257 22.0143 147.197 22.145C147.136 22.2757 147.054 22.39 146.952 22.488C146.854 22.586 146.737 22.6653 146.602 22.726C146.466 22.782 146.322 22.81 146.168 22.81C146.018 22.81 145.876 22.782 145.741 22.726C145.61 22.6653 145.496 22.586 145.398 22.488C145.3 22.39 145.22 22.2757 145.16 22.145C145.104 22.0143 145.076 21.8743 145.076 21.725C145.076 21.571 145.104 21.4263 145.16 21.291C145.22 21.1557 145.3 21.039 145.398 20.941C145.496 20.843 145.61 20.766 145.741 20.71C145.876 20.6493 146.018 20.619 146.168 20.619C146.322 20.619 146.466 20.6493 146.602 20.71C146.737 20.766 146.854 20.843 146.952 20.941C147.054 21.039 147.136 21.1557 147.197 21.291C147.257 21.4263 147.288 21.571 147.288 21.725ZM154.042 31C153.818 31 153.671 30.895 153.601 30.685L153.461 29.992C153.312 30.16 153.156 30.3117 152.992 30.447C152.829 30.5823 152.652 30.699 152.46 30.797C152.274 30.895 152.071 30.9697 151.851 31.021C151.637 31.077 151.403 31.105 151.151 31.105C150.759 31.105 150.4 31.0233 150.073 30.86C149.747 30.6967 149.464 30.461 149.226 30.153C148.993 29.8403 148.811 29.4553 148.68 28.998C148.554 28.5407 148.491 28.018 148.491 27.43C148.491 26.898 148.564 26.4033 148.708 25.946C148.853 25.4887 149.061 25.092 149.331 24.756C149.602 24.42 149.926 24.1587 150.304 23.972C150.682 23.7807 151.107 23.685 151.578 23.685C151.98 23.685 152.323 23.7503 152.607 23.881C152.892 24.007 153.146 24.1773 153.37 24.392V20.598H155.099V31H154.042ZM151.739 29.733C152.099 29.733 152.404 29.6583 152.656 29.509C152.908 29.3597 153.146 29.1473 153.37 28.872V25.652C153.174 25.414 152.96 25.246 152.726 25.148C152.498 25.05 152.25 25.001 151.984 25.001C151.723 25.001 151.485 25.05 151.27 25.148C151.06 25.246 150.881 25.3953 150.731 25.596C150.587 25.792 150.475 26.044 150.395 26.352C150.316 26.6553 150.276 27.0147 150.276 27.43C150.276 27.85 150.309 28.207 150.374 28.501C150.444 28.7903 150.542 29.0283 150.668 29.215C150.794 29.397 150.948 29.53 151.13 29.614C151.312 29.6933 151.515 29.733 151.739 29.733ZM158.814 23.818V31H157.085V23.818H158.814ZM159.073 21.725C159.073 21.8743 159.042 22.0143 158.982 22.145C158.921 22.2757 158.839 22.39 158.737 22.488C158.639 22.586 158.522 22.6653 158.387 22.726C158.251 22.782 158.107 22.81 157.953 22.81C157.803 22.81 157.661 22.782 157.526 22.726C157.395 22.6653 157.281 22.586 157.183 22.488C157.085 22.39 157.005 22.2757 156.945 22.145C156.889 22.0143 156.861 21.8743 156.861 21.725C156.861 21.571 156.889 21.4263 156.945 21.291C157.005 21.1557 157.085 21.039 157.183 20.941C157.281 20.843 157.395 20.766 157.526 20.71C157.661 20.6493 157.803 20.619 157.953 20.619C158.107 20.619 158.251 20.6493 158.387 20.71C158.522 20.766 158.639 20.843 158.737 20.941C158.839 21.039 158.921 21.1557 158.982 21.291C159.042 21.4263 159.073 21.571 159.073 21.725ZM165.037 25.218C164.99 25.2927 164.941 25.3463 164.89 25.379C164.838 25.407 164.773 25.421 164.694 25.421C164.61 25.421 164.519 25.3977 164.421 25.351C164.327 25.3043 164.218 25.253 164.092 25.197C163.966 25.1363 163.821 25.0827 163.658 25.036C163.499 24.9893 163.31 24.966 163.091 24.966C162.75 24.966 162.482 25.0383 162.286 25.183C162.09 25.3277 161.992 25.5167 161.992 25.75C161.992 25.904 162.041 26.0347 162.139 26.142C162.241 26.2447 162.374 26.3357 162.538 26.415C162.706 26.4943 162.895 26.5667 163.105 26.632C163.315 26.6927 163.529 26.7603 163.749 26.835C163.968 26.9097 164.183 26.996 164.393 27.094C164.603 27.1873 164.789 27.3087 164.953 27.458C165.121 27.6027 165.254 27.7777 165.352 27.983C165.454 28.1883 165.506 28.4357 165.506 28.725C165.506 29.0703 165.443 29.39 165.317 29.684C165.191 29.9733 165.006 30.2253 164.764 30.44C164.521 30.65 164.22 30.8157 163.861 30.937C163.506 31.0537 163.098 31.112 162.636 31.112C162.388 31.112 162.146 31.0887 161.908 31.042C161.674 31 161.448 30.9393 161.229 30.86C161.014 30.7807 160.813 30.6873 160.627 30.58C160.445 30.4727 160.284 30.356 160.144 30.23L160.543 29.572C160.594 29.4927 160.655 29.432 160.725 29.39C160.795 29.348 160.883 29.327 160.991 29.327C161.098 29.327 161.198 29.3573 161.292 29.418C161.39 29.4787 161.502 29.544 161.628 29.614C161.754 29.684 161.901 29.7493 162.069 29.81C162.241 29.8707 162.458 29.901 162.72 29.901C162.925 29.901 163.1 29.8777 163.245 29.831C163.394 29.7797 163.515 29.7143 163.609 29.635C163.707 29.5557 163.777 29.4647 163.819 29.362C163.865 29.2547 163.889 29.145 163.889 29.033C163.889 28.865 163.837 28.7273 163.735 28.62C163.637 28.5127 163.504 28.4193 163.336 28.34C163.172 28.2607 162.983 28.1907 162.769 28.13C162.559 28.0647 162.342 27.9947 162.118 27.92C161.898 27.8453 161.681 27.759 161.467 27.661C161.257 27.5583 161.068 27.43 160.9 27.276C160.736 27.122 160.603 26.933 160.501 26.709C160.403 26.485 160.354 26.2143 160.354 25.897C160.354 25.603 160.412 25.323 160.529 25.057C160.645 24.791 160.816 24.56 161.04 24.364C161.268 24.1633 161.551 24.0047 161.887 23.888C162.227 23.7667 162.619 23.706 163.063 23.706C163.557 23.706 164.008 23.7877 164.414 23.951C164.82 24.1143 165.158 24.329 165.429 24.595L165.037 25.218Z" fill="#1A1C1D"/>
<path d="M177.474 30.596C177.046 30.596 176.654 30.54 176.298 30.428C175.942 30.312 175.636 30.148 175.38 29.936C175.124 29.724 174.926 29.468 174.786 29.168C174.646 28.864 174.576 28.524 174.576 28.148C174.576 27.596 174.72 27.142 175.008 26.786C175.296 26.426 175.708 26.17 176.244 26.018C175.792 25.85 175.45 25.6 175.218 25.268C174.99 24.932 174.876 24.532 174.876 24.068C174.876 23.752 174.938 23.456 175.062 23.18C175.186 22.904 175.362 22.664 175.59 22.46C175.818 22.256 176.09 22.096 176.406 21.98C176.726 21.864 177.082 21.806 177.474 21.806C177.862 21.806 178.216 21.864 178.536 21.98C178.856 22.096 179.13 22.256 179.358 22.46C179.586 22.664 179.762 22.904 179.886 23.18C180.01 23.456 180.072 23.752 180.072 24.068C180.072 24.532 179.956 24.932 179.724 25.268C179.492 25.6 179.152 25.85 178.704 26.018C179.24 26.17 179.652 26.426 179.94 26.786C180.228 27.142 180.372 27.596 180.372 28.148C180.372 28.524 180.3 28.864 180.156 29.168C180.016 29.468 179.818 29.724 179.562 29.936C179.31 30.148 179.006 30.312 178.65 30.428C178.294 30.54 177.902 30.596 177.474 30.596ZM177.474 29.744C177.754 29.744 178.004 29.706 178.224 29.63C178.448 29.55 178.636 29.44 178.788 29.3C178.944 29.156 179.062 28.986 179.142 28.79C179.226 28.59 179.268 28.37 179.268 28.13C179.268 27.834 179.218 27.582 179.118 27.374C179.022 27.162 178.89 26.99 178.722 26.858C178.558 26.726 178.368 26.63 178.152 26.57C177.936 26.506 177.71 26.474 177.474 26.474C177.238 26.474 177.012 26.506 176.796 26.57C176.58 26.63 176.388 26.726 176.22 26.858C176.056 26.99 175.924 27.162 175.824 27.374C175.728 27.582 175.68 27.834 175.68 28.13C175.68 28.37 175.72 28.59 175.8 28.79C175.884 28.986 176.002 29.156 176.154 29.3C176.31 29.44 176.498 29.55 176.718 29.63C176.942 29.706 177.194 29.744 177.474 29.744ZM177.474 25.616C177.754 25.616 177.992 25.574 178.188 25.49C178.388 25.402 178.55 25.288 178.674 25.148C178.798 25.004 178.888 24.84 178.944 24.656C179 24.472 179.028 24.282 179.028 24.086C179.028 23.886 178.994 23.698 178.926 23.522C178.862 23.346 178.764 23.192 178.632 23.06C178.504 22.928 178.342 22.824 178.146 22.748C177.954 22.672 177.73 22.634 177.474 22.634C177.218 22.634 176.992 22.672 176.796 22.748C176.604 22.824 176.442 22.928 176.31 23.06C176.182 23.192 176.084 23.346 176.016 23.522C175.952 23.698 175.92 23.886 175.92 24.086C175.92 24.282 175.948 24.472 176.004 24.656C176.06 24.84 176.15 25.004 176.274 25.148C176.398 25.288 176.558 25.402 176.754 25.49C176.954 25.574 177.194 25.616 177.474 25.616ZM181.489 29.84C181.489 29.736 181.507 29.638 181.543 29.546C181.583 29.454 181.635 29.374 181.699 29.306C181.767 29.238 181.847 29.184 181.939 29.144C182.031 29.104 182.129 29.084 182.233 29.084C182.337 29.084 182.435 29.104 182.527 29.144C182.619 29.184 182.699 29.238 182.767 29.306C182.835 29.374 182.887 29.454 182.923 29.546C182.963 29.638 182.983 29.736 182.983 29.84C182.983 29.948 182.963 30.048 182.923 30.14C182.887 30.228 182.835 30.306 182.767 30.374C182.699 30.442 182.619 30.494 182.527 30.53C182.435 30.57 182.337 30.59 182.233 30.59C182.129 30.59 182.031 30.57 181.939 30.53C181.847 30.494 181.767 30.442 181.699 30.374C181.635 30.306 181.583 30.228 181.543 30.14C181.507 30.048 181.489 29.948 181.489 29.84ZM190.104 26.204C190.104 26.956 190.022 27.608 189.858 28.16C189.698 28.708 189.478 29.162 189.198 29.522C188.918 29.882 188.586 30.15 188.202 30.326C187.822 30.502 187.414 30.59 186.978 30.59C186.538 30.59 186.128 30.502 185.748 30.326C185.372 30.15 185.044 29.882 184.764 29.522C184.484 29.162 184.264 28.708 184.104 28.16C183.944 27.608 183.864 26.956 183.864 26.204C183.864 25.452 183.944 24.8 184.104 24.248C184.264 23.696 184.484 23.24 184.764 22.88C185.044 22.516 185.372 22.246 185.748 22.07C186.128 21.894 186.538 21.806 186.978 21.806C187.414 21.806 187.822 21.894 188.202 22.07C188.586 22.246 188.918 22.516 189.198 22.88C189.478 23.24 189.698 23.696 189.858 24.248C190.022 24.8 190.104 25.452 190.104 26.204ZM188.994 26.204C188.994 25.548 188.938 24.998 188.826 24.554C188.718 24.106 188.57 23.746 188.382 23.474C188.198 23.202 187.984 23.008 187.74 22.892C187.496 22.772 187.242 22.712 186.978 22.712C186.714 22.712 186.46 22.772 186.216 22.892C185.972 23.008 185.758 23.202 185.574 23.474C185.39 23.746 185.242 24.106 185.13 24.554C185.022 24.998 184.968 25.548 184.968 26.204C184.968 26.86 185.022 27.41 185.13 27.854C185.242 28.298 185.39 28.656 185.574 28.928C185.758 29.2 185.972 29.396 186.216 29.516C186.46 29.632 186.714 29.69 186.978 29.69C187.242 29.69 187.496 29.632 187.74 29.516C187.984 29.396 188.198 29.2 188.382 28.928C188.57 28.656 188.718 28.298 188.826 27.854C188.938 27.41 188.994 26.86 188.994 26.204ZM193.939 30.596C193.511 30.596 193.119 30.54 192.763 30.428C192.407 30.312 192.101 30.148 191.845 29.936C191.589 29.724 191.391 29.468 191.251 29.168C191.111 28.864 191.041 28.524 191.041 28.148C191.041 27.596 191.185 27.142 191.473 26.786C191.761 26.426 192.173 26.17 192.709 26.018C192.257 25.85 191.915 25.6 191.683 25.268C191.455 24.932 191.341 24.532 191.341 24.068C191.341 23.752 191.403 23.456 191.527 23.18C191.651 22.904 191.827 22.664 192.055 22.46C192.283 22.256 192.555 22.096 192.871 21.98C193.191 21.864 193.547 21.806 193.939 21.806C194.327 21.806 194.681 21.864 195.001 21.98C195.321 22.096 195.595 22.256 195.823 22.46C196.051 22.664 196.227 22.904 196.351 23.18C196.475 23.456 196.537 23.752 196.537 24.068C196.537 24.532 196.421 24.932 196.189 25.268C195.957 25.6 195.617 25.85 195.169 26.018C195.705 26.17 196.117 26.426 196.405 26.786C196.693 27.142 196.837 27.596 196.837 28.148C196.837 28.524 196.765 28.864 196.621 29.168C196.481 29.468 196.283 29.724 196.027 29.936C195.775 30.148 195.471 30.312 195.115 30.428C194.759 30.54 194.367 30.596 193.939 30.596ZM193.939 29.744C194.219 29.744 194.469 29.706 194.689 29.63C194.913 29.55 195.101 29.44 195.253 29.3C195.409 29.156 195.527 28.986 195.607 28.79C195.691 28.59 195.733 28.37 195.733 28.13C195.733 27.834 195.683 27.582 195.583 27.374C195.487 27.162 195.355 26.99 195.187 26.858C195.023 26.726 194.833 26.63 194.617 26.57C194.401 26.506 194.175 26.474 193.939 26.474C193.703 26.474 193.477 26.506 193.261 26.57C193.045 26.63 192.853 26.726 192.685 26.858C192.521 26.99 192.389 27.162 192.289 27.374C192.193 27.582 192.145 27.834 192.145 28.13C192.145 28.37 192.185 28.59 192.265 28.79C192.349 28.986 192.467 29.156 192.619 29.3C192.775 29.44 192.963 29.55 193.183 29.63C193.407 29.706 193.659 29.744 193.939 29.744ZM193.939 25.616C194.219 25.616 194.457 25.574 194.653 25.49C194.853 25.402 195.015 25.288 195.139 25.148C195.263 25.004 195.353 24.84 195.409 24.656C195.465 24.472 195.493 24.282 195.493 24.086C195.493 23.886 195.459 23.698 195.391 23.522C195.327 23.346 195.229 23.192 195.097 23.06C194.969 22.928 194.807 22.824 194.611 22.748C194.419 22.672 194.195 22.634 193.939 22.634C193.683 22.634 193.457 22.672 193.261 22.748C193.069 22.824 192.907 22.928 192.775 23.06C192.647 23.192 192.549 23.346 192.481 23.522C192.417 23.698 192.385 23.886 192.385 24.086C192.385 24.282 192.413 24.472 192.469 24.656C192.525 24.84 192.615 25.004 192.739 25.148C192.863 25.288 193.023 25.402 193.219 25.49C193.419 25.574 193.659 25.616 193.939 25.616ZM201.126 21.302H201.954V32.558H201.126V21.302ZM207.386 29.684H209.234V23.822C209.234 23.646 209.24 23.468 209.252 23.288L207.716 24.602C207.676 24.634 207.636 24.658 207.596 24.674C207.556 24.686 207.518 24.692 207.482 24.692C207.422 24.692 207.368 24.68 207.32 24.656C207.272 24.628 207.236 24.596 207.212 24.56L206.876 24.098L209.432 21.884H210.302V29.684H211.994V30.5H207.386V29.684ZM218.043 27.398H219.345V28.01C219.345 28.074 219.325 28.128 219.285 28.172C219.249 28.216 219.191 28.238 219.111 28.238H218.043V30.5H217.101V28.238H213.291C213.211 28.238 213.141 28.216 213.081 28.172C213.025 28.124 212.989 28.066 212.973 27.998L212.865 27.452L217.047 21.902H218.043V27.398ZM217.101 23.852C217.101 23.748 217.103 23.636 217.107 23.516C217.115 23.396 217.129 23.272 217.149 23.144L214.023 27.398H217.101V23.852ZM220.354 29.84C220.354 29.736 220.372 29.638 220.408 29.546C220.448 29.454 220.5 29.374 220.564 29.306C220.632 29.238 220.712 29.184 220.804 29.144C220.896 29.104 220.994 29.084 221.098 29.084C221.202 29.084 221.3 29.104 221.392 29.144C221.484 29.184 221.564 29.238 221.632 29.306C221.7 29.374 221.752 29.454 221.788 29.546C221.828 29.638 221.848 29.736 221.848 29.84C221.848 29.948 221.828 30.048 221.788 30.14C221.752 30.228 221.7 30.306 221.632 30.374C221.564 30.442 221.484 30.494 221.392 30.53C221.3 30.57 221.202 30.59 221.098 30.59C220.994 30.59 220.896 30.57 220.804 30.53C220.712 30.494 220.632 30.442 220.564 30.374C220.5 30.306 220.448 30.228 220.408 30.14C220.372 30.048 220.354 29.948 220.354 29.84ZM220.354 25.34C220.354 25.236 220.372 25.138 220.408 25.046C220.448 24.954 220.5 24.874 220.564 24.806C220.632 24.738 220.712 24.684 220.804 24.644C220.896 24.604 220.994 24.584 221.098 24.584C221.202 24.584 221.3 24.604 221.392 24.644C221.484 24.684 221.564 24.738 221.632 24.806C221.7 24.874 221.752 24.954 221.788 25.046C221.828 25.138 221.848 25.236 221.848 25.34C221.848 25.448 221.828 25.548 221.788 25.64C221.752 25.728 221.7 25.806 221.632 25.874C221.564 25.942 221.484 25.996 221.392 26.036C221.3 26.072 221.202 26.09 221.098 26.09C220.994 26.09 220.896 26.072 220.804 26.036C220.712 25.996 220.632 25.942 220.564 25.874C220.5 25.806 220.448 25.728 220.408 25.64C220.372 25.548 220.354 25.448 220.354 25.34ZM226.215 21.806C226.579 21.806 226.919 21.86 227.235 21.968C227.551 22.076 227.823 22.234 228.051 22.442C228.283 22.646 228.465 22.896 228.597 23.192C228.729 23.488 228.795 23.824 228.795 24.2C228.795 24.52 228.747 24.816 228.651 25.088C228.555 25.36 228.425 25.622 228.261 25.874C228.097 26.122 227.907 26.364 227.691 26.6C227.479 26.832 227.253 27.07 227.013 27.314L224.751 29.63C224.911 29.586 225.073 29.552 225.237 29.528C225.401 29.5 225.559 29.486 225.711 29.486H228.591C228.707 29.486 228.799 29.52 228.867 29.588C228.935 29.656 228.969 29.744 228.969 29.852V30.5H223.233V30.134C223.233 30.058 223.247 29.98 223.275 29.9C223.307 29.82 223.357 29.746 223.425 29.678L226.179 26.912C226.407 26.68 226.615 26.458 226.803 26.246C226.991 26.03 227.151 25.814 227.283 25.598C227.419 25.382 227.523 25.164 227.595 24.944C227.667 24.72 227.703 24.482 227.703 24.23C227.703 23.978 227.663 23.758 227.583 23.57C227.503 23.378 227.393 23.22 227.253 23.096C227.113 22.972 226.949 22.88 226.761 22.82C226.573 22.756 226.371 22.724 226.155 22.724C225.939 22.724 225.739 22.756 225.555 22.82C225.371 22.884 225.207 22.974 225.063 23.09C224.923 23.202 224.803 23.336 224.703 23.492C224.607 23.648 224.539 23.82 224.499 24.008C224.467 24.124 224.419 24.208 224.355 24.26C224.291 24.312 224.207 24.338 224.103 24.338C224.083 24.338 224.061 24.338 224.037 24.338C224.017 24.334 223.993 24.33 223.965 24.326L223.407 24.23C223.463 23.838 223.571 23.492 223.731 23.192C223.891 22.888 224.093 22.634 224.337 22.43C224.585 22.226 224.867 22.072 225.183 21.968C225.503 21.86 225.847 21.806 226.215 21.806ZM233.176 21.806C233.54 21.806 233.88 21.86 234.196 21.968C234.512 22.076 234.784 22.234 235.012 22.442C235.244 22.646 235.426 22.896 235.558 23.192C235.69 23.488 235.756 23.824 235.756 24.2C235.756 24.52 235.708 24.816 235.612 25.088C235.516 25.36 235.386 25.622 235.222 25.874C235.058 26.122 234.868 26.364 234.652 26.6C234.44 26.832 234.214 27.07 233.974 27.314L231.712 29.63C231.872 29.586 232.034 29.552 232.198 29.528C232.362 29.5 232.52 29.486 232.672 29.486H235.552C235.668 29.486 235.76 29.52 235.828 29.588C235.896 29.656 235.93 29.744 235.93 29.852V30.5H230.194V30.134C230.194 30.058 230.208 29.98 230.236 29.9C230.268 29.82 230.318 29.746 230.386 29.678L233.14 26.912C233.368 26.68 233.576 26.458 233.764 26.246C233.952 26.03 234.112 25.814 234.244 25.598C234.38 25.382 234.484 25.164 234.556 24.944C234.628 24.72 234.664 24.482 234.664 24.23C234.664 23.978 234.624 23.758 234.544 23.57C234.464 23.378 234.354 23.22 234.214 23.096C234.074 22.972 233.91 22.88 233.722 22.82C233.534 22.756 233.332 22.724 233.116 22.724C232.9 22.724 232.7 22.756 232.516 22.82C232.332 22.884 232.168 22.974 232.024 23.09C231.884 23.202 231.764 23.336 231.664 23.492C231.568 23.648 231.5 23.82 231.46 24.008C231.428 24.124 231.38 24.208 231.316 24.26C231.252 24.312 231.168 24.338 231.064 24.338C231.044 24.338 231.022 24.338 230.998 24.338C230.978 24.334 230.954 24.33 230.926 24.326L230.368 24.23C230.424 23.838 230.532 23.492 230.692 23.192C230.852 22.888 231.054 22.634 231.298 22.43C231.546 22.226 231.828 22.072 232.144 21.968C232.464 21.86 232.808 21.806 233.176 21.806Z" fill="#828282"/>
<rect x="17" y="18" width="36" height="36" rx="8" fill="#2C8D3E" fill-opacity="0.5"/>
<path d="M32.5967 38.984C32.6607 38.984 32.7247 38.9973 32.7887 39.024C32.8527 39.0453 32.914 39.0853 32.9727 39.144L34.0447 40.272C33.5754 40.8853 32.986 41.3493 32.2767 41.664C31.5727 41.9733 30.738 42.128 29.7727 42.128C28.8874 42.128 28.0927 41.9787 27.3887 41.68C26.69 41.376 26.0954 40.96 25.6047 40.432C25.1194 39.8987 24.746 39.2693 24.4847 38.544C24.2234 37.8133 24.0927 37.0213 24.0927 36.168C24.0927 35.2987 24.242 34.5013 24.5407 33.776C24.8394 33.0453 25.2554 32.416 25.7887 31.888C26.3274 31.36 26.97 30.9493 27.7167 30.656C28.4634 30.3627 29.2874 30.216 30.1887 30.216C30.626 30.216 31.0367 30.256 31.4207 30.336C31.81 30.4107 32.1727 30.5173 32.5087 30.656C32.8447 30.7893 33.154 30.952 33.4367 31.144C33.7194 31.3307 33.97 31.5387 34.1887 31.768L33.2767 32.992C33.218 33.0667 33.1487 33.136 33.0687 33.2C32.9887 33.2587 32.8767 33.288 32.7327 33.288C32.6367 33.288 32.546 33.2667 32.4607 33.224C32.3754 33.1813 32.2847 33.1307 32.1887 33.072C32.0927 33.008 31.986 32.9413 31.8687 32.872C31.7567 32.7973 31.6207 32.7307 31.4607 32.672C31.306 32.608 31.122 32.5547 30.9087 32.512C30.7007 32.4693 30.4554 32.448 30.1727 32.448C29.682 32.448 29.234 32.536 28.8287 32.712C28.4234 32.8827 28.074 33.1307 27.7807 33.456C27.4927 33.776 27.266 34.1653 27.1007 34.624C26.9407 35.0827 26.8607 35.5973 26.8607 36.168C26.8607 36.7653 26.9407 37.296 27.1007 37.76C27.266 38.224 27.4874 38.616 27.7647 38.936C28.0474 39.2507 28.3754 39.4907 28.7487 39.656C29.122 39.8213 29.522 39.904 29.9487 39.904C30.194 39.904 30.418 39.8933 30.6207 39.872C30.8234 39.8453 31.01 39.8027 31.1807 39.744C31.3567 39.6853 31.522 39.6107 31.6767 39.52C31.8367 39.424 31.9967 39.3067 32.1567 39.168C32.2207 39.1147 32.29 39.072 32.3647 39.04C32.4394 39.0027 32.5167 38.984 32.5967 38.984ZM45.8563 36.168C45.8563 37.0107 45.7096 37.7893 45.4163 38.504C45.1283 39.2133 44.7203 39.8293 44.1923 40.352C43.6643 40.8693 43.027 41.2747 42.2803 41.568C41.539 41.856 40.715 42 39.8083 42H35.2803V30.344H39.8083C40.715 30.344 41.539 30.4907 42.2803 30.784C43.027 31.0773 43.6643 31.4827 44.1923 32C44.7203 32.5173 45.1283 33.1333 45.4163 33.848C45.7096 34.5573 45.8563 35.3307 45.8563 36.168ZM43.0883 36.168C43.0883 35.592 43.0136 35.072 42.8643 34.608C42.715 34.144 42.499 33.752 42.2163 33.432C41.939 33.1067 41.5976 32.8587 41.1923 32.688C40.787 32.512 40.3256 32.424 39.8083 32.424H38.0003V39.92H39.8083C40.3256 39.92 40.787 39.8347 41.1923 39.664C41.5976 39.488 41.939 39.24 42.2163 38.92C42.499 38.5947 42.715 38.2 42.8643 37.736C43.0136 37.272 43.0883 36.7493 43.0883 36.168Z" fill="white"/>
<path d="M1 1V0H0V1H1ZM376 1H377V0H376V1ZM376 71V72H377V71H376ZM1 71H0V72H1V71ZM1 2H376V0H1V2ZM375 1V71H377V1H375ZM376 70H1V72H376V70ZM2 71V1H0V71H2Z" fill="#F3F4F9"/>
</svg>
