<svg width="377" height="72" viewBox="0 0 377 72" fill="none" xmlns="http://www.w3.org/2000/svg">
<path d="M1 1H376V71H1V1Z" fill="white"/>
<path d="M71.828 52H70.47V41.969H71.828V52ZM76.098 44.909H77.078C77.1807 44.909 77.2647 44.9347 77.33 44.986C77.3953 45.0373 77.4397 45.098 77.463 45.168L78.821 49.732C78.8583 49.9 78.8933 50.0633 78.926 50.222C78.9587 50.376 78.9867 50.5323 79.01 50.691C79.0473 50.5323 79.0893 50.376 79.136 50.222C79.1827 50.0633 79.2317 49.9 79.283 49.732L80.781 45.14C80.8043 45.07 80.844 45.0117 80.9 44.965C80.9607 44.9183 81.0353 44.895 81.124 44.895H81.663C81.7563 44.895 81.8333 44.9183 81.894 44.965C81.9547 45.0117 81.9967 45.07 82.02 45.14L83.483 49.732C83.5343 49.8953 83.5787 50.0563 83.616 50.215C83.658 50.3737 83.6977 50.53 83.735 50.684C83.7583 50.53 83.7887 50.369 83.826 50.201C83.8633 50.033 83.903 49.8767 83.945 49.732L85.331 45.168C85.3543 45.0933 85.3987 45.0327 85.464 44.986C85.5293 44.9347 85.6063 44.909 85.695 44.909H86.633L84.337 52H83.35C83.2287 52 83.1447 51.9207 83.098 51.762L81.53 46.953C81.4927 46.8457 81.4623 46.7383 81.439 46.631C81.4157 46.519 81.3923 46.4093 81.369 46.302C81.3457 46.4093 81.3223 46.519 81.299 46.631C81.2757 46.743 81.2453 46.8527 81.208 46.96L79.619 51.762C79.5677 51.9207 79.472 52 79.332 52H78.394L76.098 44.909ZM92.9488 52H92.3958C92.2744 52 92.1764 51.9813 92.1018 51.944C92.0271 51.9067 91.9781 51.8273 91.9548 51.706L91.8148 51.048C91.6281 51.216 91.4461 51.3677 91.2688 51.503C91.0914 51.6337 90.9048 51.7457 90.7088 51.839C90.5128 51.9277 90.3028 51.9953 90.0788 52.042C89.8594 52.0887 89.6144 52.112 89.3438 52.112C89.0684 52.112 88.8094 52.0747 88.5667 52C88.3288 51.9207 88.1211 51.804 87.9438 51.65C87.7664 51.496 87.6241 51.3023 87.5168 51.069C87.4141 50.831 87.3628 50.551 87.3628 50.229C87.3628 49.949 87.4398 49.6807 87.5938 49.424C87.7478 49.1627 87.9951 48.9317 88.3358 48.731C88.6811 48.5303 89.1314 48.367 89.6868 48.241C90.2421 48.1103 90.9211 48.0357 91.7238 48.017V47.464C91.7238 46.9133 91.6048 46.498 91.3668 46.218C91.1334 45.9333 90.7858 45.791 90.3238 45.791C90.0204 45.791 89.7638 45.8307 89.5538 45.91C89.3484 45.9847 89.1688 46.071 89.0148 46.169C88.8654 46.2623 88.7348 46.3487 88.6228 46.428C88.5154 46.5027 88.4081 46.54 88.3008 46.54C88.2168 46.54 88.1421 46.519 88.0768 46.477C88.0161 46.4303 87.9671 46.3743 87.9298 46.309L87.7058 45.91C88.0978 45.532 88.5201 45.2497 88.9728 45.063C89.4254 44.8763 89.9271 44.783 90.4778 44.783C90.8744 44.783 91.2268 44.8483 91.5348 44.979C91.8428 45.1097 92.1018 45.2917 92.3118 45.525C92.5218 45.7583 92.6804 46.0407 92.7878 46.372C92.8951 46.7033 92.9488 47.0673 92.9488 47.464V52ZM89.7148 51.237C89.9341 51.237 90.1348 51.216 90.3167 51.174C90.4988 51.1273 90.6691 51.0643 90.8278 50.985C90.9911 50.901 91.1451 50.8007 91.2898 50.684C91.4391 50.5673 91.5838 50.4343 91.7238 50.285V48.808C91.1498 48.8267 90.6621 48.8733 90.2608 48.948C89.8594 49.018 89.5328 49.1113 89.2808 49.228C89.0288 49.3447 88.8444 49.4823 88.7278 49.641C88.6158 49.7997 88.5598 49.977 88.5598 50.173C88.5598 50.3597 88.5901 50.5207 88.6508 50.656C88.7114 50.7913 88.7931 50.9033 88.8958 50.992C88.9984 51.076 89.1198 51.139 89.2598 51.181C89.3998 51.2183 89.5514 51.237 89.7148 51.237ZM94.8365 52V44.909H95.5785C95.7558 44.909 95.8678 44.9953 95.9145 45.168L96.0125 45.938C96.3205 45.5973 96.6635 45.322 97.0415 45.112C97.4241 44.902 97.8651 44.797 98.3645 44.797C98.7518 44.797 99.0925 44.8623 99.3865 44.993C99.6851 45.119 99.9325 45.301 100.128 45.539C100.329 45.7723 100.481 46.0547 100.583 46.386C100.686 46.7173 100.737 47.0837 100.737 47.485V52H99.4915V47.485C99.4915 46.9483 99.3678 46.533 99.1205 46.239C98.8778 45.9403 98.5045 45.791 98.0005 45.791C97.6318 45.791 97.2865 45.8797 96.9645 46.057C96.6471 46.2343 96.3531 46.4747 96.0825 46.778V52H94.8365ZM104.765 52.112C104.205 52.112 103.773 51.9557 103.47 51.643C103.171 51.3303 103.022 50.88 103.022 50.292V45.952H102.168C102.093 45.952 102.03 45.931 101.979 45.889C101.927 45.8423 101.902 45.7723 101.902 45.679V45.182L103.064 45.035L103.351 42.844C103.36 42.774 103.39 42.718 103.442 42.676C103.493 42.6293 103.558 42.606 103.638 42.606H104.268V45.049H106.298V45.952H104.268V50.208C104.268 50.5067 104.34 50.7283 104.485 50.873C104.629 51.0177 104.816 51.09 105.045 51.09C105.175 51.09 105.287 51.0737 105.381 51.041C105.479 51.0037 105.563 50.964 105.633 50.922C105.703 50.88 105.761 50.8427 105.808 50.81C105.859 50.7727 105.903 50.754 105.941 50.754C106.006 50.754 106.064 50.7937 106.116 50.873L106.48 51.468C106.265 51.6687 106.006 51.8273 105.703 51.944C105.399 52.056 105.087 52.112 104.765 52.112ZM112.694 52.112C112.134 52.112 111.703 51.9557 111.399 51.643C111.101 51.3303 110.951 50.88 110.951 50.292V45.952H110.097C110.023 45.952 109.96 45.931 109.908 45.889C109.857 45.8423 109.831 45.7723 109.831 45.679V45.182L110.993 45.035L111.28 42.844C111.29 42.774 111.32 42.718 111.371 42.676C111.423 42.6293 111.488 42.606 111.567 42.606H112.197V45.049H114.227V45.952H112.197V50.208C112.197 50.5067 112.27 50.7283 112.414 50.873C112.559 51.0177 112.746 51.09 112.974 51.09C113.105 51.09 113.217 51.0737 113.31 51.041C113.408 51.0037 113.492 50.964 113.562 50.922C113.632 50.88 113.691 50.8427 113.737 50.81C113.789 50.7727 113.833 50.754 113.87 50.754C113.936 50.754 113.994 50.7937 114.045 50.873L114.409 51.468C114.195 51.6687 113.936 51.8273 113.632 51.944C113.329 52.056 113.016 52.112 112.694 52.112ZM118.638 44.797C119.156 44.797 119.623 44.8833 120.038 45.056C120.458 45.2287 120.813 45.4737 121.102 45.791C121.396 46.1083 121.62 46.4933 121.774 46.946C121.933 47.394 122.012 47.8957 122.012 48.451C122.012 49.011 121.933 49.515 121.774 49.963C121.62 50.411 121.396 50.7937 121.102 51.111C120.813 51.4283 120.458 51.6733 120.038 51.846C119.623 52.014 119.156 52.098 118.638 52.098C118.12 52.098 117.651 52.014 117.231 51.846C116.816 51.6733 116.461 51.4283 116.167 51.111C115.873 50.7937 115.647 50.411 115.488 49.963C115.329 49.515 115.25 49.011 115.25 48.451C115.25 47.8957 115.329 47.394 115.488 46.946C115.647 46.4933 115.873 46.1083 116.167 45.791C116.461 45.4737 116.816 45.2287 117.231 45.056C117.651 44.8833 118.12 44.797 118.638 44.797ZM118.638 51.125C119.338 51.125 119.861 50.8917 120.206 50.425C120.551 49.9537 120.724 49.298 120.724 48.458C120.724 47.6133 120.551 46.9553 120.206 46.484C119.861 46.0127 119.338 45.777 118.638 45.777C118.283 45.777 117.975 45.8377 117.714 45.959C117.453 46.0803 117.233 46.2553 117.056 46.484C116.883 46.7127 116.753 46.995 116.664 47.331C116.58 47.6623 116.538 48.038 116.538 48.458C116.538 48.878 116.58 49.2537 116.664 49.585C116.753 49.9163 116.883 50.1963 117.056 50.425C117.233 50.649 117.453 50.8217 117.714 50.943C117.975 51.0643 118.283 51.125 118.638 51.125ZM128.403 52.112C127.843 52.112 127.412 51.9557 127.108 51.643C126.81 51.3303 126.66 50.88 126.66 50.292V45.952H125.806C125.732 45.952 125.669 45.931 125.617 45.889C125.566 45.8423 125.54 45.7723 125.54 45.679V45.182L126.702 45.035L126.989 42.844C126.999 42.774 127.029 42.718 127.08 42.676C127.132 42.6293 127.197 42.606 127.276 42.606H127.906V45.049H129.936V45.952H127.906V50.208C127.906 50.5067 127.979 50.7283 128.123 50.873C128.268 51.0177 128.455 51.09 128.683 51.09C128.814 51.09 128.926 51.0737 129.019 51.041C129.117 51.0037 129.201 50.964 129.271 50.922C129.341 50.88 129.4 50.8427 129.446 50.81C129.498 50.7727 129.542 50.754 129.579 50.754C129.645 50.754 129.703 50.7937 129.754 50.873L130.118 51.468C129.904 51.6687 129.645 51.8273 129.341 51.944C129.038 52.056 128.725 52.112 128.403 52.112ZM136.685 52H136.132C136.011 52 135.913 51.9813 135.838 51.944C135.763 51.9067 135.714 51.8273 135.691 51.706L135.551 51.048C135.364 51.216 135.182 51.3677 135.005 51.503C134.828 51.6337 134.641 51.7457 134.445 51.839C134.249 51.9277 134.039 51.9953 133.815 52.042C133.596 52.0887 133.351 52.112 133.08 52.112C132.805 52.112 132.546 52.0747 132.303 52C132.065 51.9207 131.857 51.804 131.68 51.65C131.503 51.496 131.36 51.3023 131.253 51.069C131.15 50.831 131.099 50.551 131.099 50.229C131.099 49.949 131.176 49.6807 131.33 49.424C131.484 49.1627 131.731 48.9317 132.072 48.731C132.417 48.5303 132.868 48.367 133.423 48.241C133.978 48.1103 134.657 48.0357 135.46 48.017V47.464C135.46 46.9133 135.341 46.498 135.103 46.218C134.87 45.9333 134.522 45.791 134.06 45.791C133.757 45.791 133.5 45.8307 133.29 45.91C133.085 45.9847 132.905 46.071 132.751 46.169C132.602 46.2623 132.471 46.3487 132.359 46.428C132.252 46.5027 132.144 46.54 132.037 46.54C131.953 46.54 131.878 46.519 131.813 46.477C131.752 46.4303 131.703 46.3743 131.666 46.309L131.442 45.91C131.834 45.532 132.256 45.2497 132.709 45.063C133.162 44.8763 133.663 44.783 134.214 44.783C134.611 44.783 134.963 44.8483 135.271 44.979C135.579 45.1097 135.838 45.2917 136.048 45.525C136.258 45.7583 136.417 46.0407 136.524 46.372C136.631 46.7033 136.685 47.0673 136.685 47.464V52ZM133.451 51.237C133.67 51.237 133.871 51.216 134.053 51.174C134.235 51.1273 134.405 51.0643 134.564 50.985C134.727 50.901 134.881 50.8007 135.026 50.684C135.175 50.5673 135.32 50.4343 135.46 50.285V48.808C134.886 48.8267 134.398 48.8733 133.997 48.948C133.596 49.018 133.269 49.1113 133.017 49.228C132.765 49.3447 132.581 49.4823 132.464 49.641C132.352 49.7997 132.296 49.977 132.296 50.173C132.296 50.3597 132.326 50.5207 132.387 50.656C132.448 50.7913 132.529 50.9033 132.632 50.992C132.735 51.076 132.856 51.139 132.996 51.181C133.136 51.2183 133.288 51.237 133.451 51.237ZM139.959 41.689V52H138.713V41.689H139.959ZM143.45 41.689V47.758H143.772C143.865 47.758 143.942 47.7463 144.003 47.723C144.063 47.695 144.131 47.6413 144.206 47.562L146.446 45.161C146.516 45.0863 146.586 45.0257 146.656 44.979C146.726 44.9323 146.819 44.909 146.936 44.909H148.07L145.459 47.688C145.393 47.7673 145.328 47.8373 145.263 47.898C145.202 47.9587 145.132 48.0123 145.053 48.059C145.137 48.115 145.211 48.1803 145.277 48.255C145.347 48.325 145.412 48.4067 145.473 48.5L148.245 52H147.125C147.022 52 146.933 51.9813 146.859 51.944C146.789 51.902 146.721 51.839 146.656 51.755L144.325 48.85C144.255 48.752 144.185 48.689 144.115 48.661C144.045 48.6283 143.94 48.612 143.8 48.612H143.45V52H142.197V41.689H143.45ZM157.412 52H156.859C156.737 52 156.639 51.9813 156.565 51.944C156.49 51.9067 156.441 51.8273 156.418 51.706L156.278 51.048C156.091 51.216 155.909 51.3677 155.732 51.503C155.554 51.6337 155.368 51.7457 155.172 51.839C154.976 51.9277 154.766 51.9953 154.542 52.042C154.322 52.0887 154.077 52.112 153.807 52.112C153.531 52.112 153.272 52.0747 153.03 52C152.792 51.9207 152.584 51.804 152.407 51.65C152.229 51.496 152.087 51.3023 151.98 51.069C151.877 50.831 151.826 50.551 151.826 50.229C151.826 49.949 151.903 49.6807 152.057 49.424C152.211 49.1627 152.458 48.9317 152.799 48.731C153.144 48.5303 153.594 48.367 154.15 48.241C154.705 48.1103 155.384 48.0357 156.187 48.017V47.464C156.187 46.9133 156.068 46.498 155.83 46.218C155.596 45.9333 155.249 45.791 154.787 45.791C154.483 45.791 154.227 45.8307 154.017 45.91C153.811 45.9847 153.632 46.071 153.478 46.169C153.328 46.2623 153.198 46.3487 153.086 46.428C152.978 46.5027 152.871 46.54 152.764 46.54C152.68 46.54 152.605 46.519 152.54 46.477C152.479 46.4303 152.43 46.3743 152.393 46.309L152.169 45.91C152.561 45.532 152.983 45.2497 153.436 45.063C153.888 44.8763 154.39 44.783 154.941 44.783C155.337 44.783 155.69 44.8483 155.998 44.979C156.306 45.1097 156.565 45.2917 156.775 45.525C156.985 45.7583 157.143 46.0407 157.251 46.372C157.358 46.7033 157.412 47.0673 157.412 47.464V52ZM154.178 51.237C154.397 51.237 154.598 51.216 154.78 51.174C154.962 51.1273 155.132 51.0643 155.291 50.985C155.454 50.901 155.608 50.8007 155.753 50.684C155.902 50.5673 156.047 50.4343 156.187 50.285V48.808C155.613 48.8267 155.125 48.8733 154.724 48.948C154.322 49.018 153.996 49.1113 153.744 49.228C153.492 49.3447 153.307 49.4823 153.191 49.641C153.079 49.7997 153.023 49.977 153.023 50.173C153.023 50.3597 153.053 50.5207 153.114 50.656C153.174 50.7913 153.256 50.9033 153.359 50.992C153.461 51.076 153.583 51.139 153.723 51.181C153.863 51.2183 154.014 51.237 154.178 51.237ZM159.341 52V41.689H160.594V45.931C160.888 45.5903 161.224 45.3173 161.602 45.112C161.985 44.902 162.421 44.797 162.911 44.797C163.322 44.797 163.693 44.874 164.024 45.028C164.356 45.182 164.638 45.413 164.871 45.721C165.105 46.0243 165.284 46.4023 165.41 46.855C165.536 47.303 165.599 47.821 165.599 48.409C165.599 48.9317 165.529 49.4193 165.389 49.872C165.249 50.32 165.046 50.7097 164.78 51.041C164.519 51.3677 164.197 51.6267 163.814 51.818C163.436 52.0047 163.009 52.098 162.533 52.098C162.076 52.098 161.686 52.0093 161.364 51.832C161.047 51.6547 160.769 51.4073 160.531 51.09L160.468 51.734C160.431 51.9113 160.324 52 160.146 52H159.341ZM162.505 45.791C162.099 45.791 161.742 45.8843 161.434 46.071C161.131 46.2577 160.851 46.5213 160.594 46.862V50.292C160.818 50.6 161.066 50.817 161.336 50.943C161.612 51.069 161.917 51.132 162.253 51.132C162.916 51.132 163.425 50.8963 163.779 50.425C164.134 49.9537 164.311 49.2817 164.311 48.409C164.311 47.947 164.269 47.5503 164.185 47.219C164.106 46.8877 163.989 46.617 163.835 46.407C163.681 46.1923 163.492 46.036 163.268 45.938C163.044 45.84 162.79 45.791 162.505 45.791ZM169.99 44.797C170.508 44.797 170.974 44.8833 171.39 45.056C171.81 45.2287 172.164 45.4737 172.454 45.791C172.748 46.1083 172.972 46.4933 173.126 46.946C173.284 47.394 173.364 47.8957 173.364 48.451C173.364 49.011 173.284 49.515 173.126 49.963C172.972 50.411 172.748 50.7937 172.454 51.111C172.164 51.4283 171.81 51.6733 171.39 51.846C170.974 52.014 170.508 52.098 169.99 52.098C169.472 52.098 169.003 52.014 168.583 51.846C168.167 51.6733 167.813 51.4283 167.519 51.111C167.225 50.7937 166.998 50.411 166.84 49.963C166.681 49.515 166.602 49.011 166.602 48.451C166.602 47.8957 166.681 47.394 166.84 46.946C166.998 46.4933 167.225 46.1083 167.519 45.791C167.813 45.4737 168.167 45.2287 168.583 45.056C169.003 44.8833 169.472 44.797 169.99 44.797ZM169.99 51.125C170.69 51.125 171.212 50.8917 171.558 50.425C171.903 49.9537 172.076 49.298 172.076 48.458C172.076 47.6133 171.903 46.9553 171.558 46.484C171.212 46.0127 170.69 45.777 169.99 45.777C169.635 45.777 169.327 45.8377 169.066 45.959C168.804 46.0803 168.585 46.2553 168.408 46.484C168.235 46.7127 168.104 46.995 168.016 47.331C167.932 47.6623 167.89 48.038 167.89 48.458C167.89 48.878 167.932 49.2537 168.016 49.585C168.104 49.9163 168.235 50.1963 168.408 50.425C168.585 50.649 168.804 50.8217 169.066 50.943C169.327 51.0643 169.635 51.125 169.99 51.125ZM175.977 44.909V49.431C175.977 49.9677 176.101 50.383 176.348 50.677C176.595 50.971 176.969 51.118 177.468 51.118C177.832 51.118 178.175 51.0317 178.497 50.859C178.819 50.6863 179.115 50.446 179.386 50.138V44.909H180.632V52H179.89C179.713 52 179.601 51.9137 179.554 51.741L179.456 50.978C179.148 51.3187 178.803 51.594 178.42 51.804C178.037 52.0093 177.599 52.112 177.104 52.112C176.717 52.112 176.374 52.049 176.075 51.923C175.781 51.7923 175.534 51.6103 175.333 51.377C175.132 51.1437 174.981 50.8613 174.878 50.53C174.78 50.1987 174.731 49.8323 174.731 49.431V44.909H175.977ZM184.827 52.112C184.267 52.112 183.836 51.9557 183.532 51.643C183.234 51.3303 183.084 50.88 183.084 50.292V45.952H182.23C182.156 45.952 182.093 45.931 182.041 45.889C181.99 45.8423 181.964 45.7723 181.964 45.679V45.182L183.126 45.035L183.413 42.844C183.423 42.774 183.453 42.718 183.504 42.676C183.556 42.6293 183.621 42.606 183.7 42.606H184.33V45.049H186.36V45.952H184.33V50.208C184.33 50.5067 184.403 50.7283 184.547 50.873C184.692 51.0177 184.879 51.09 185.107 51.09C185.238 51.09 185.35 51.0737 185.443 51.041C185.541 51.0037 185.625 50.964 185.695 50.922C185.765 50.88 185.824 50.8427 185.87 50.81C185.922 50.7727 185.966 50.754 186.003 50.754C186.069 50.754 186.127 50.7937 186.178 50.873L186.542 51.468C186.328 51.6687 186.069 51.8273 185.765 51.944C185.462 52.056 185.149 52.112 184.827 52.112ZM192.757 52.112C192.197 52.112 191.765 51.9557 191.462 51.643C191.163 51.3303 191.014 50.88 191.014 50.292V45.952H190.16C190.085 45.952 190.022 45.931 189.971 45.889C189.92 45.8423 189.894 45.7723 189.894 45.679V45.182L191.056 45.035L191.343 42.844C191.352 42.774 191.383 42.718 191.434 42.676C191.485 42.6293 191.551 42.606 191.63 42.606H192.26V45.049H194.29V45.952H192.26V50.208C192.26 50.5067 192.332 50.7283 192.477 50.873C192.622 51.0177 192.808 51.09 193.037 51.09C193.168 51.09 193.28 51.0737 193.373 51.041C193.471 51.0037 193.555 50.964 193.625 50.922C193.695 50.88 193.753 50.8427 193.8 50.81C193.851 50.7727 193.896 50.754 193.933 50.754C193.998 50.754 194.057 50.7937 194.108 50.873L194.472 51.468C194.257 51.6687 193.998 51.8273 193.695 51.944C193.392 52.056 193.079 52.112 192.757 52.112ZM198.701 44.797C199.219 44.797 199.685 44.8833 200.101 45.056C200.521 45.2287 200.875 45.4737 201.165 45.791C201.459 46.1083 201.683 46.4933 201.837 46.946C201.995 47.394 202.075 47.8957 202.075 48.451C202.075 49.011 201.995 49.515 201.837 49.963C201.683 50.411 201.459 50.7937 201.165 51.111C200.875 51.4283 200.521 51.6733 200.101 51.846C199.685 52.014 199.219 52.098 198.701 52.098C198.183 52.098 197.714 52.014 197.294 51.846C196.878 51.6733 196.524 51.4283 196.23 51.111C195.936 50.7937 195.709 50.411 195.551 49.963C195.392 49.515 195.313 49.011 195.313 48.451C195.313 47.8957 195.392 47.394 195.551 46.946C195.709 46.4933 195.936 46.1083 196.23 45.791C196.524 45.4737 196.878 45.2287 197.294 45.056C197.714 44.8833 198.183 44.797 198.701 44.797ZM198.701 51.125C199.401 51.125 199.923 50.8917 200.269 50.425C200.614 49.9537 200.787 49.298 200.787 48.458C200.787 47.6133 200.614 46.9553 200.269 46.484C199.923 46.0127 199.401 45.777 198.701 45.777C198.346 45.777 198.038 45.8377 197.777 45.959C197.515 46.0803 197.296 46.2553 197.119 46.484C196.946 46.7127 196.815 46.995 196.727 47.331C196.643 47.6623 196.601 48.038 196.601 48.458C196.601 48.878 196.643 49.2537 196.727 49.585C196.815 49.9163 196.946 50.1963 197.119 50.425C197.296 50.649 197.515 50.8217 197.777 50.943C198.038 51.0643 198.346 51.125 198.701 51.125ZM208.466 52.112C207.906 52.112 207.474 51.9557 207.171 51.643C206.872 51.3303 206.723 50.88 206.723 50.292V45.952H205.869C205.794 45.952 205.731 45.931 205.68 45.889C205.629 45.8423 205.603 45.7723 205.603 45.679V45.182L206.765 45.035L207.052 42.844C207.061 42.774 207.092 42.718 207.143 42.676C207.194 42.6293 207.26 42.606 207.339 42.606H207.969V45.049H209.999V45.952H207.969V50.208C207.969 50.5067 208.041 50.7283 208.186 50.873C208.331 51.0177 208.517 51.09 208.746 51.09C208.877 51.09 208.989 51.0737 209.082 51.041C209.18 51.0037 209.264 50.964 209.334 50.922C209.404 50.88 209.462 50.8427 209.509 50.81C209.56 50.7727 209.605 50.754 209.642 50.754C209.707 50.754 209.766 50.7937 209.817 50.873L210.181 51.468C209.966 51.6687 209.707 51.8273 209.404 51.944C209.101 52.056 208.788 52.112 208.466 52.112ZM211.54 52V41.689H212.786V45.861C213.089 45.539 213.425 45.2823 213.794 45.091C214.162 44.895 214.587 44.797 215.068 44.797C215.455 44.797 215.796 44.8623 216.09 44.993C216.388 45.119 216.636 45.301 216.832 45.539C217.032 45.7723 217.184 46.0547 217.287 46.386C217.389 46.7173 217.441 47.0837 217.441 47.485V52H216.195V47.485C216.195 46.9483 216.071 46.533 215.824 46.239C215.581 45.9403 215.208 45.791 214.704 45.791C214.335 45.791 213.99 45.8797 213.668 46.057C213.35 46.2343 213.056 46.4747 212.786 46.778V52H211.54ZM220.705 44.909V52H219.459V44.909H220.705ZM220.985 42.683C220.985 42.8043 220.959 42.9187 220.908 43.026C220.861 43.1287 220.796 43.222 220.712 43.306C220.633 43.3853 220.539 43.4483 220.432 43.495C220.325 43.5417 220.21 43.565 220.089 43.565C219.968 43.565 219.853 43.5417 219.746 43.495C219.643 43.4483 219.55 43.3853 219.466 43.306C219.387 43.222 219.324 43.1287 219.277 43.026C219.23 42.9187 219.207 42.8043 219.207 42.683C219.207 42.5617 219.23 42.4473 219.277 42.34C219.324 42.228 219.387 42.1323 219.466 42.053C219.55 41.969 219.643 41.9037 219.746 41.857C219.853 41.8103 219.968 41.787 220.089 41.787C220.21 41.787 220.325 41.8103 220.432 41.857C220.539 41.9037 220.633 41.969 220.712 42.053C220.796 42.1323 220.861 42.228 220.908 42.34C220.959 42.4473 220.985 42.5617 220.985 42.683ZM222.901 52V44.909H223.643C223.82 44.909 223.932 44.9953 223.979 45.168L224.077 45.938C224.385 45.5973 224.728 45.322 225.106 45.112C225.489 44.902 225.93 44.797 226.429 44.797C226.816 44.797 227.157 44.8623 227.451 44.993C227.75 45.119 227.997 45.301 228.193 45.539C228.394 45.7723 228.545 46.0547 228.648 46.386C228.751 46.7173 228.802 47.0837 228.802 47.485V52H227.556V47.485C227.556 46.9483 227.432 46.533 227.185 46.239C226.942 45.9403 226.569 45.791 226.065 45.791C225.696 45.791 225.351 45.8797 225.029 46.057C224.712 46.2343 224.418 46.4747 224.147 46.778V52H222.901ZM233.067 44.79C233.375 44.79 233.662 44.825 233.928 44.895C234.199 44.9603 234.444 45.0583 234.663 45.189H236.588V45.651C236.588 45.805 236.49 45.903 236.294 45.945L235.489 46.057C235.648 46.3603 235.727 46.6987 235.727 47.072C235.727 47.4173 235.66 47.7323 235.524 48.017C235.394 48.297 235.209 48.5373 234.971 48.738C234.738 48.9387 234.458 49.0927 234.131 49.2C233.809 49.3073 233.455 49.361 233.067 49.361C232.736 49.361 232.423 49.3213 232.129 49.242C231.98 49.3353 231.866 49.4357 231.786 49.543C231.712 49.6503 231.674 49.7553 231.674 49.858C231.674 50.026 231.742 50.1543 231.877 50.243C232.013 50.327 232.192 50.3877 232.416 50.425C232.64 50.4623 232.895 50.4857 233.179 50.495C233.464 50.5043 233.753 50.5207 234.047 50.544C234.346 50.5627 234.638 50.5977 234.922 50.649C235.207 50.7003 235.461 50.7843 235.685 50.901C235.909 51.0177 236.089 51.1787 236.224 51.384C236.36 51.5893 236.427 51.8553 236.427 52.182C236.427 52.4853 236.35 52.7793 236.196 53.064C236.047 53.3487 235.83 53.6007 235.545 53.82C235.261 54.044 234.913 54.2213 234.502 54.352C234.092 54.4873 233.627 54.555 233.109 54.555C232.591 54.555 232.136 54.5037 231.744 54.401C231.357 54.2983 231.035 54.1607 230.778 53.988C230.522 53.8153 230.328 53.6147 230.197 53.386C230.071 53.162 230.008 52.9263 230.008 52.679C230.008 52.329 230.118 52.0327 230.337 51.79C230.561 51.5427 230.867 51.3467 231.254 51.202C231.054 51.1087 230.893 50.985 230.771 50.831C230.655 50.6723 230.596 50.4623 230.596 50.201C230.596 50.0983 230.615 49.9933 230.652 49.886C230.69 49.774 230.746 49.6643 230.82 49.557C230.9 49.4497 230.995 49.347 231.107 49.249C231.219 49.151 231.35 49.0647 231.499 48.99C231.149 48.794 230.874 48.535 230.673 48.213C230.477 47.8863 230.379 47.506 230.379 47.072C230.379 46.7267 230.445 46.414 230.575 46.134C230.711 45.8493 230.897 45.609 231.135 45.413C231.373 45.2123 231.656 45.0583 231.982 44.951C232.314 44.8437 232.675 44.79 233.067 44.79ZM235.279 52.385C235.279 52.2077 235.23 52.0653 235.132 51.958C235.034 51.8507 234.901 51.769 234.733 51.713C234.565 51.6523 234.372 51.608 234.152 51.58C233.933 51.552 233.702 51.5333 233.459 51.524C233.217 51.51 232.969 51.496 232.717 51.482C232.465 51.468 232.225 51.4423 231.996 51.405C231.73 51.531 231.513 51.685 231.345 51.867C231.182 52.049 231.1 52.266 231.1 52.518C231.1 52.6767 231.14 52.8237 231.219 52.959C231.303 53.099 231.429 53.218 231.597 53.316C231.765 53.4187 231.975 53.498 232.227 53.554C232.484 53.6147 232.785 53.645 233.13 53.645C233.466 53.645 233.767 53.6147 234.033 53.554C234.299 53.4933 234.523 53.407 234.705 53.295C234.892 53.183 235.034 53.05 235.132 52.896C235.23 52.742 235.279 52.5717 235.279 52.385ZM233.067 48.535C233.319 48.535 233.541 48.5 233.732 48.43C233.928 48.36 234.092 48.262 234.222 48.136C234.353 48.01 234.451 47.8607 234.516 47.688C234.582 47.5107 234.614 47.317 234.614 47.107C234.614 46.673 234.481 46.3277 234.215 46.071C233.954 45.8143 233.571 45.686 233.067 45.686C232.568 45.686 232.185 45.8143 231.919 46.071C231.658 46.3277 231.527 46.673 231.527 47.107C231.527 47.317 231.56 47.5107 231.625 47.688C231.695 47.8607 231.796 48.01 231.926 48.136C232.057 48.262 232.218 48.36 232.409 48.43C232.601 48.5 232.82 48.535 233.067 48.535ZM241.891 46.078C241.835 46.1807 241.748 46.232 241.632 46.232C241.562 46.232 241.482 46.2063 241.394 46.155C241.305 46.1037 241.195 46.0477 241.065 45.987C240.939 45.9217 240.787 45.8633 240.61 45.812C240.432 45.756 240.222 45.728 239.98 45.728C239.77 45.728 239.581 45.756 239.413 45.812C239.245 45.8633 239.1 45.9357 238.979 46.029C238.862 46.1223 238.771 46.232 238.706 46.358C238.645 46.4793 238.615 46.6123 238.615 46.757C238.615 46.939 238.666 47.0907 238.769 47.212C238.876 47.3333 239.016 47.4383 239.189 47.527C239.361 47.6157 239.557 47.695 239.777 47.765C239.996 47.8303 240.22 47.9027 240.449 47.982C240.682 48.0567 240.908 48.1407 241.128 48.234C241.347 48.3273 241.543 48.444 241.716 48.584C241.888 48.724 242.026 48.8967 242.129 49.102C242.236 49.3027 242.29 49.5453 242.29 49.83C242.29 50.1567 242.231 50.46 242.115 50.74C241.998 51.0153 241.825 51.2557 241.597 51.461C241.368 51.6617 241.088 51.8203 240.757 51.937C240.425 52.0537 240.043 52.112 239.609 52.112C239.114 52.112 238.666 52.0327 238.265 51.874C237.863 51.7107 237.523 51.503 237.243 51.251L237.537 50.775C237.574 50.7143 237.618 50.6677 237.67 50.635C237.721 50.6023 237.789 50.586 237.873 50.586C237.957 50.586 238.045 50.6187 238.139 50.684C238.232 50.7493 238.344 50.8217 238.475 50.901C238.61 50.9803 238.771 51.0527 238.958 51.118C239.149 51.1833 239.387 51.216 239.672 51.216C239.914 51.216 240.127 51.1857 240.309 51.125C240.491 51.0597 240.642 50.9733 240.764 50.866C240.885 50.7587 240.974 50.635 241.03 50.495C241.09 50.355 241.121 50.2057 241.121 50.047C241.121 49.851 241.067 49.69 240.96 49.564C240.857 49.4333 240.719 49.3237 240.547 49.235C240.374 49.1417 240.176 49.0623 239.952 48.997C239.732 48.927 239.506 48.8547 239.273 48.78C239.044 48.7053 238.818 48.6213 238.594 48.528C238.374 48.43 238.178 48.3087 238.006 48.164C237.833 48.0193 237.693 47.842 237.586 47.632C237.483 47.4173 237.432 47.1583 237.432 46.855C237.432 46.5843 237.488 46.3253 237.6 46.078C237.712 45.826 237.875 45.6067 238.09 45.42C238.304 45.2287 238.568 45.077 238.881 44.965C239.193 44.853 239.55 44.797 239.952 44.797C240.418 44.797 240.836 44.8717 241.205 45.021C241.578 45.1657 241.9 45.3663 242.171 45.623L241.891 46.078ZM248.757 52.112C248.197 52.112 247.765 51.9557 247.462 51.643C247.163 51.3303 247.014 50.88 247.014 50.292V45.952H246.16C246.085 45.952 246.022 45.931 245.971 45.889C245.92 45.8423 245.894 45.7723 245.894 45.679V45.182L247.056 45.035L247.343 42.844C247.352 42.774 247.383 42.718 247.434 42.676C247.485 42.6293 247.551 42.606 247.63 42.606H248.26V45.049H250.29V45.952H248.26V50.208C248.26 50.5067 248.332 50.7283 248.477 50.873C248.622 51.0177 248.808 51.09 249.037 51.09C249.168 51.09 249.28 51.0737 249.373 51.041C249.471 51.0037 249.555 50.964 249.625 50.922C249.695 50.88 249.753 50.8427 249.8 50.81C249.851 50.7727 249.896 50.754 249.933 50.754C249.998 50.754 250.057 50.7937 250.108 50.873L250.472 51.468C250.257 51.6687 249.998 51.8273 249.695 51.944C249.392 52.056 249.079 52.112 248.757 52.112ZM251.831 52V41.689H253.077V45.861C253.38 45.539 253.716 45.2823 254.085 45.091C254.453 44.895 254.878 44.797 255.359 44.797C255.746 44.797 256.087 44.8623 256.381 44.993C256.679 45.119 256.927 45.301 257.123 45.539C257.323 45.7723 257.475 46.0547 257.578 46.386C257.68 46.7173 257.732 47.0837 257.732 47.485V52H256.486V47.485C256.486 46.9483 256.362 46.533 256.115 46.239C255.872 45.9403 255.499 45.791 254.995 45.791C254.626 45.791 254.281 45.8797 253.959 46.057C253.641 46.2343 253.347 46.4747 253.077 46.778V52H251.831ZM264.818 52H264.265C264.144 52 264.046 51.9813 263.971 51.944C263.896 51.9067 263.847 51.8273 263.824 51.706L263.684 51.048C263.497 51.216 263.315 51.3677 263.138 51.503C262.961 51.6337 262.774 51.7457 262.578 51.839C262.382 51.9277 262.172 51.9953 261.948 52.042C261.729 52.0887 261.484 52.112 261.213 52.112C260.938 52.112 260.679 52.0747 260.436 52C260.198 51.9207 259.99 51.804 259.813 51.65C259.636 51.496 259.493 51.3023 259.386 51.069C259.283 50.831 259.232 50.551 259.232 50.229C259.232 49.949 259.309 49.6807 259.463 49.424C259.617 49.1627 259.864 48.9317 260.205 48.731C260.55 48.5303 261.001 48.367 261.556 48.241C262.111 48.1103 262.79 48.0357 263.593 48.017V47.464C263.593 46.9133 263.474 46.498 263.236 46.218C263.003 45.9333 262.655 45.791 262.193 45.791C261.89 45.791 261.633 45.8307 261.423 45.91C261.218 45.9847 261.038 46.071 260.884 46.169C260.735 46.2623 260.604 46.3487 260.492 46.428C260.385 46.5027 260.277 46.54 260.17 46.54C260.086 46.54 260.011 46.519 259.946 46.477C259.885 46.4303 259.836 46.3743 259.799 46.309L259.575 45.91C259.967 45.532 260.389 45.2497 260.842 45.063C261.295 44.8763 261.796 44.783 262.347 44.783C262.744 44.783 263.096 44.8483 263.404 44.979C263.712 45.1097 263.971 45.2917 264.181 45.525C264.391 45.7583 264.55 46.0407 264.657 46.372C264.764 46.7033 264.818 47.0673 264.818 47.464V52ZM261.584 51.237C261.803 51.237 262.004 51.216 262.186 51.174C262.368 51.1273 262.538 51.0643 262.697 50.985C262.86 50.901 263.014 50.8007 263.159 50.684C263.308 50.5673 263.453 50.4343 263.593 50.285V48.808C263.019 48.8267 262.531 48.8733 262.13 48.948C261.729 49.018 261.402 49.1113 261.15 49.228C260.898 49.3447 260.714 49.4823 260.597 49.641C260.485 49.7997 260.429 49.977 260.429 50.173C260.429 50.3597 260.459 50.5207 260.52 50.656C260.581 50.7913 260.662 50.9033 260.765 50.992C260.868 51.076 260.989 51.139 261.129 51.181C261.269 51.2183 261.421 51.237 261.584 51.237ZM268.855 52.112C268.295 52.112 267.863 51.9557 267.56 51.643C267.261 51.3303 267.112 50.88 267.112 50.292V45.952H266.258C266.183 45.952 266.12 45.931 266.069 45.889C266.017 45.8423 265.992 45.7723 265.992 45.679V45.182L267.154 45.035L267.441 42.844C267.45 42.774 267.48 42.718 267.532 42.676C267.583 42.6293 267.648 42.606 267.728 42.606H268.358V45.049H270.388V45.952H268.358V50.208C268.358 50.5067 268.43 50.7283 268.575 50.873C268.719 51.0177 268.906 51.09 269.135 51.09C269.265 51.09 269.377 51.0737 269.471 51.041C269.569 51.0037 269.653 50.964 269.723 50.922C269.793 50.88 269.851 50.8427 269.898 50.81C269.949 50.7727 269.993 50.754 270.031 50.754C270.096 50.754 270.154 50.7937 270.206 50.873L270.57 51.468C270.355 51.6687 270.096 51.8273 269.793 51.944C269.489 52.056 269.177 52.112 268.855 52.112ZM279.843 52H279.29C279.169 52 279.071 51.9813 278.996 51.944C278.922 51.9067 278.873 51.8273 278.849 51.706L278.709 51.048C278.523 51.216 278.341 51.3677 278.163 51.503C277.986 51.6337 277.799 51.7457 277.603 51.839C277.407 51.9277 277.197 51.9953 276.973 52.042C276.754 52.0887 276.509 52.112 276.238 52.112C275.963 52.112 275.704 52.0747 275.461 52C275.223 51.9207 275.016 51.804 274.838 51.65C274.661 51.496 274.519 51.3023 274.411 51.069C274.309 50.831 274.257 50.551 274.257 50.229C274.257 49.949 274.334 49.6807 274.488 49.424C274.642 49.1627 274.89 48.9317 275.23 48.731C275.576 48.5303 276.026 48.367 276.581 48.241C277.137 48.1103 277.816 48.0357 278.618 48.017V47.464C278.618 46.9133 278.499 46.498 278.261 46.218C278.028 45.9333 277.68 45.791 277.218 45.791C276.915 45.791 276.658 45.8307 276.448 45.91C276.243 45.9847 276.063 46.071 275.909 46.169C275.76 46.2623 275.629 46.3487 275.517 46.428C275.41 46.5027 275.303 46.54 275.195 46.54C275.111 46.54 275.037 46.519 274.971 46.477C274.911 46.4303 274.862 46.3743 274.824 46.309L274.6 45.91C274.992 45.532 275.415 45.2497 275.867 45.063C276.32 44.8763 276.822 44.783 277.372 44.783C277.769 44.783 278.121 44.8483 278.429 44.979C278.737 45.1097 278.996 45.2917 279.206 45.525C279.416 45.7583 279.575 46.0407 279.682 46.372C279.79 46.7033 279.843 47.0673 279.843 47.464V52ZM276.609 51.237C276.829 51.237 277.029 51.216 277.211 51.174C277.393 51.1273 277.564 51.0643 277.722 50.985C277.886 50.901 278.04 50.8007 278.184 50.684C278.334 50.5673 278.478 50.4343 278.618 50.285V48.808C278.044 48.8267 277.557 48.8733 277.155 48.948C276.754 49.018 276.427 49.1113 276.175 49.228C275.923 49.3447 275.739 49.4823 275.622 49.641C275.51 49.7997 275.454 49.977 275.454 50.173C275.454 50.3597 275.485 50.5207 275.545 50.656C275.606 50.7913 275.688 50.9033 275.79 50.992C275.893 51.076 276.014 51.139 276.154 51.181C276.294 51.2183 276.446 51.237 276.609 51.237ZM281.731 52V44.909H282.445C282.58 44.909 282.674 44.9347 282.725 44.986C282.776 45.0373 282.811 45.126 282.83 45.252L282.914 46.358C283.157 45.8633 283.455 45.4783 283.81 45.203C284.169 44.923 284.589 44.783 285.07 44.783C285.266 44.783 285.443 44.8063 285.602 44.853C285.761 44.895 285.908 44.9557 286.043 45.035L285.882 45.966C285.849 46.0827 285.777 46.141 285.665 46.141C285.6 46.141 285.499 46.12 285.364 46.078C285.229 46.0313 285.04 46.008 284.797 46.008C284.363 46.008 283.999 46.134 283.705 46.386C283.416 46.638 283.173 47.0043 282.977 47.485V52H281.731ZM290.184 44.797C290.609 44.797 291.001 44.8693 291.36 45.014C291.72 45.154 292.03 45.3593 292.291 45.63C292.553 45.896 292.756 46.2273 292.9 46.624C293.05 47.016 293.124 47.464 293.124 47.968C293.124 48.164 293.103 48.2947 293.061 48.36C293.019 48.4253 292.94 48.458 292.823 48.458H288.105C288.115 48.906 288.175 49.2957 288.287 49.627C288.399 49.9583 288.553 50.236 288.749 50.46C288.945 50.6793 289.179 50.845 289.449 50.957C289.72 51.0643 290.023 51.118 290.359 51.118C290.672 51.118 290.94 51.083 291.164 51.013C291.393 50.9383 291.589 50.859 291.752 50.775C291.916 50.691 292.051 50.614 292.158 50.544C292.27 50.4693 292.366 50.432 292.445 50.432C292.548 50.432 292.627 50.4717 292.683 50.551L293.033 51.006C292.879 51.1927 292.695 51.356 292.48 51.496C292.266 51.6313 292.035 51.7433 291.787 51.832C291.545 51.9207 291.293 51.986 291.031 52.028C290.77 52.0747 290.511 52.098 290.254 52.098C289.764 52.098 289.312 52.0163 288.896 51.853C288.486 51.685 288.129 51.4423 287.825 51.125C287.527 50.803 287.293 50.4063 287.125 49.935C286.957 49.4637 286.873 48.9223 286.873 48.311C286.873 47.8163 286.948 47.3543 287.097 46.925C287.251 46.4957 287.471 46.1247 287.755 45.812C288.04 45.4947 288.388 45.2473 288.798 45.07C289.209 44.888 289.671 44.797 290.184 44.797ZM290.212 45.714C289.61 45.714 289.137 45.889 288.791 46.239C288.446 46.5843 288.231 47.065 288.147 47.681H292.004C292.004 47.3917 291.965 47.128 291.885 46.89C291.806 46.6473 291.689 46.4397 291.535 46.267C291.381 46.0897 291.192 45.9543 290.968 45.861C290.749 45.763 290.497 45.714 290.212 45.714ZM303.159 44.909V54.401H301.913V50.95C301.615 51.2953 301.274 51.573 300.891 51.783C300.513 51.993 300.079 52.098 299.589 52.098C299.183 52.098 298.815 52.021 298.483 51.867C298.152 51.7083 297.87 51.4773 297.636 51.174C297.403 50.8707 297.223 50.4927 297.097 50.04C296.971 49.5873 296.908 49.067 296.908 48.479C296.908 47.9563 296.978 47.471 297.118 47.023C297.258 46.5703 297.459 46.1783 297.72 45.847C297.986 45.5157 298.308 45.2567 298.686 45.07C299.064 44.8787 299.494 44.783 299.974 44.783C300.432 44.783 300.819 44.8647 301.136 45.028C301.458 45.1913 301.745 45.4223 301.997 45.721L302.081 45.168C302.128 44.9953 302.24 44.909 302.417 44.909H303.159ZM300.002 51.09C300.408 51.09 300.763 50.9967 301.066 50.81C301.374 50.6233 301.657 50.3597 301.913 50.019V46.589C301.689 46.2903 301.44 46.078 301.164 45.952C300.889 45.8213 300.586 45.756 300.254 45.756C299.592 45.756 299.083 45.9917 298.728 46.463C298.374 46.9343 298.196 47.6063 298.196 48.479C298.196 48.941 298.236 49.3377 298.315 49.669C298.395 49.9957 298.511 50.2663 298.665 50.481C298.819 50.691 299.008 50.845 299.232 50.943C299.456 51.041 299.713 51.09 300.002 51.09ZM306.325 44.909V49.431C306.325 49.9677 306.448 50.383 306.696 50.677C306.943 50.971 307.316 51.118 307.816 51.118C308.18 51.118 308.523 51.0317 308.845 50.859C309.167 50.6863 309.463 50.446 309.734 50.138V44.909H310.98V52H310.238C310.06 52 309.948 51.9137 309.902 51.741L309.804 50.978C309.496 51.3187 309.15 51.594 308.768 51.804C308.385 52.0093 307.946 52.112 307.452 52.112C307.064 52.112 306.721 52.049 306.423 51.923C306.129 51.7923 305.881 51.6103 305.681 51.377C305.48 51.1437 305.328 50.8613 305.226 50.53C305.128 50.1987 305.079 49.8323 305.079 49.431V44.909H306.325ZM314.412 44.909V52H313.166V44.909H314.412ZM314.692 42.683C314.692 42.8043 314.666 42.9187 314.615 43.026C314.568 43.1287 314.503 43.222 314.419 43.306C314.34 43.3853 314.246 43.4483 314.139 43.495C314.032 43.5417 313.917 43.565 313.796 43.565C313.675 43.565 313.56 43.5417 313.453 43.495C313.35 43.4483 313.257 43.3853 313.173 43.306C313.094 43.222 313.031 43.1287 312.984 43.026C312.937 42.9187 312.914 42.8043 312.914 42.683C312.914 42.5617 312.937 42.4473 312.984 42.34C313.031 42.228 313.094 42.1323 313.173 42.053C313.257 41.969 313.35 41.9037 313.453 41.857C313.56 41.8103 313.675 41.787 313.796 41.787C313.917 41.787 314.032 41.8103 314.139 41.857C314.246 41.9037 314.34 41.969 314.419 42.053C314.503 42.1323 314.568 42.228 314.615 42.34C314.666 42.4473 314.692 42.5617 314.692 42.683ZM318.757 52.112C318.197 52.112 317.765 51.9557 317.462 51.643C317.163 51.3303 317.014 50.88 317.014 50.292V45.952H316.16C316.085 45.952 316.022 45.931 315.971 45.889C315.92 45.8423 315.894 45.7723 315.894 45.679V45.182L317.056 45.035L317.343 42.844C317.352 42.774 317.383 42.718 317.434 42.676C317.485 42.6293 317.551 42.606 317.63 42.606H318.26V45.049H320.29V45.952H318.26V50.208C318.26 50.5067 318.332 50.7283 318.477 50.873C318.622 51.0177 318.808 51.09 319.037 51.09C319.168 51.09 319.28 51.0737 319.373 51.041C319.471 51.0037 319.555 50.964 319.625 50.922C319.695 50.88 319.753 50.8427 319.8 50.81C319.851 50.7727 319.896 50.754 319.933 50.754C319.998 50.754 320.057 50.7937 320.108 50.873L320.472 51.468C320.257 51.6687 319.998 51.8273 319.695 51.944C319.392 52.056 319.079 52.112 318.757 52.112ZM324.638 44.797C325.062 44.797 325.454 44.8693 325.814 45.014C326.173 45.154 326.483 45.3593 326.745 45.63C327.006 45.896 327.209 46.2273 327.354 46.624C327.503 47.016 327.578 47.464 327.578 47.968C327.578 48.164 327.557 48.2947 327.515 48.36C327.473 48.4253 327.393 48.458 327.277 48.458H322.559C322.568 48.906 322.629 49.2957 322.741 49.627C322.853 49.9583 323.007 50.236 323.203 50.46C323.399 50.6793 323.632 50.845 323.903 50.957C324.173 51.0643 324.477 51.118 324.813 51.118C325.125 51.118 325.394 51.083 325.618 51.013C325.846 50.9383 326.042 50.859 326.206 50.775C326.369 50.691 326.504 50.614 326.612 50.544C326.724 50.4693 326.819 50.432 326.899 50.432C327.001 50.432 327.081 50.4717 327.137 50.551L327.487 51.006C327.333 51.1927 327.148 51.356 326.934 51.496C326.719 51.6313 326.488 51.7433 326.241 51.832C325.998 51.9207 325.746 51.986 325.485 52.028C325.223 52.0747 324.964 52.098 324.708 52.098C324.218 52.098 323.765 52.0163 323.35 51.853C322.939 51.685 322.582 51.4423 322.279 51.125C321.98 50.803 321.747 50.4063 321.579 49.935C321.411 49.4637 321.327 48.9223 321.327 48.311C321.327 47.8163 321.401 47.3543 321.551 46.925C321.705 46.4957 321.924 46.1247 322.209 45.812C322.493 45.4947 322.841 45.2473 323.252 45.07C323.662 44.888 324.124 44.797 324.638 44.797ZM324.666 45.714C324.064 45.714 323.59 45.889 323.245 46.239C322.899 46.5843 322.685 47.065 322.601 47.681H326.458C326.458 47.3917 326.418 47.128 326.339 46.89C326.259 46.6473 326.143 46.4397 325.989 46.267C325.835 46.0897 325.646 45.9543 325.422 45.861C325.202 45.763 324.95 45.714 324.666 45.714ZM328.766 51.23C328.766 51.1087 328.787 50.9943 328.829 50.887C328.876 50.7797 328.937 50.6863 329.011 50.607C329.091 50.5277 329.184 50.4647 329.291 50.418C329.399 50.3713 329.513 50.348 329.634 50.348C329.756 50.348 329.87 50.3713 329.977 50.418C330.085 50.4647 330.178 50.5277 330.257 50.607C330.337 50.6863 330.397 50.7797 330.439 50.887C330.486 50.9943 330.509 51.1087 330.509 51.23C330.509 51.356 330.486 51.4727 330.439 51.58C330.397 51.6827 330.337 51.7737 330.257 51.853C330.178 51.9323 330.085 51.993 329.977 52.035C329.87 52.0817 329.756 52.105 329.634 52.105C329.513 52.105 329.399 52.0817 329.291 52.035C329.184 51.993 329.091 51.9323 329.011 51.853C328.937 51.7737 328.876 51.6827 328.829 51.58C328.787 51.4727 328.766 51.356 328.766 51.23ZM331.733 51.23C331.733 51.1087 331.754 50.9943 331.796 50.887C331.843 50.7797 331.904 50.6863 331.978 50.607C332.058 50.5277 332.151 50.4647 332.258 50.418C332.366 50.3713 332.48 50.348 332.601 50.348C332.723 50.348 332.837 50.3713 332.944 50.418C333.052 50.4647 333.145 50.5277 333.224 50.607C333.304 50.6863 333.364 50.7797 333.406 50.887C333.453 50.9943 333.476 51.1087 333.476 51.23C333.476 51.356 333.453 51.4727 333.406 51.58C333.364 51.6827 333.304 51.7737 333.224 51.853C333.145 51.9323 333.052 51.993 332.944 52.035C332.837 52.0817 332.723 52.105 332.601 52.105C332.48 52.105 332.366 52.0817 332.258 52.035C332.151 51.993 332.058 51.9323 331.978 51.853C331.904 51.7737 331.843 51.6827 331.796 51.58C331.754 51.4727 331.733 51.356 331.733 51.23ZM334.7 51.23C334.7 51.1087 334.721 50.9943 334.763 50.887C334.81 50.7797 334.87 50.6863 334.945 50.607C335.024 50.5277 335.118 50.4647 335.225 50.418C335.332 50.3713 335.447 50.348 335.568 50.348C335.689 50.348 335.804 50.3713 335.911 50.418C336.018 50.4647 336.112 50.5277 336.191 50.607C336.27 50.6863 336.331 50.7797 336.373 50.887C336.42 50.9943 336.443 51.1087 336.443 51.23C336.443 51.356 336.42 51.4727 336.373 51.58C336.331 51.6827 336.27 51.7737 336.191 51.853C336.112 51.9323 336.018 51.993 335.911 52.035C335.804 52.0817 335.689 52.105 335.568 52.105C335.447 52.105 335.332 52.0817 335.225 52.035C335.118 51.993 335.024 51.9323 334.945 51.853C334.87 51.7737 334.81 51.6827 334.763 51.58C334.721 51.4727 334.7 51.356 334.7 51.23Z" fill="#828282"/>
<path d="M76.98 28.613C77.0827 28.613 77.1713 28.6527 77.246 28.732L77.988 29.537C77.5773 30.0457 77.071 30.4353 76.469 30.706C75.8717 30.9767 75.153 31.112 74.313 31.112C73.5617 31.112 72.885 30.9837 72.283 30.727C71.6857 30.4703 71.1747 30.1133 70.75 29.656C70.3253 29.1987 69.9987 28.6527 69.77 28.018C69.546 27.3833 69.434 26.6903 69.434 25.939C69.434 25.1783 69.56 24.483 69.812 23.853C70.064 23.2183 70.4187 22.6723 70.876 22.215C71.3333 21.7577 71.8793 21.403 72.514 21.151C73.1533 20.8943 73.858 20.766 74.628 20.766C75.3793 20.766 76.035 20.8873 76.595 21.13C77.1597 21.368 77.6427 21.6853 78.044 22.082L77.414 22.957C77.3767 23.013 77.3277 23.062 77.267 23.104C77.211 23.146 77.1317 23.167 77.029 23.167C76.9217 23.167 76.812 23.125 76.7 23.041C76.588 22.957 76.4457 22.866 76.273 22.768C76.1003 22.67 75.881 22.579 75.615 22.495C75.3537 22.411 75.02 22.369 74.614 22.369C74.138 22.369 73.6993 22.453 73.298 22.621C72.9013 22.7843 72.5583 23.02 72.269 23.328C71.9843 23.636 71.7603 24.0117 71.597 24.455C71.4383 24.8937 71.359 25.3883 71.359 25.939C71.359 26.5083 71.4383 27.0147 71.597 27.458C71.7603 27.9013 71.9797 28.2747 72.255 28.578C72.5303 28.8813 72.8547 29.1147 73.228 29.278C73.6013 29.4367 74.0027 29.516 74.432 29.516C74.6887 29.516 74.9197 29.502 75.125 29.474C75.335 29.446 75.5263 29.4017 75.699 29.341C75.8763 29.2803 76.042 29.2033 76.196 29.11C76.3547 29.012 76.511 28.893 76.665 28.753C76.7117 28.711 76.7607 28.6783 76.812 28.655C76.8633 28.627 76.9193 28.613 76.98 28.613ZM84.9446 31H84.1676C84.0042 31 83.8759 30.9767 83.7826 30.93C83.6892 30.8787 83.6192 30.7783 83.5726 30.629L83.4186 30.118C83.2366 30.2813 83.0569 30.426 82.8796 30.552C82.7069 30.6733 82.5272 30.776 82.3406 30.86C82.1539 30.944 81.9556 31.007 81.7456 31.049C81.5356 31.091 81.3022 31.112 81.0456 31.112C80.7422 31.112 80.4622 31.0723 80.2056 30.993C79.9489 30.909 79.7272 30.7853 79.5406 30.622C79.3586 30.4587 79.2162 30.2557 79.1136 30.013C79.0109 29.7703 78.9596 29.488 78.9596 29.166C78.9596 28.8953 79.0296 28.6293 79.1696 28.368C79.3142 28.102 79.5522 27.864 79.8836 27.654C80.2149 27.4393 80.6559 27.262 81.2066 27.122C81.7572 26.982 82.4409 26.9027 83.2576 26.884V26.464C83.2576 25.9833 83.1549 25.6287 82.9496 25.4C82.7489 25.1667 82.4549 25.05 82.0676 25.05C81.7876 25.05 81.5542 25.0827 81.3676 25.148C81.1809 25.2133 81.0176 25.288 80.8776 25.372C80.7422 25.4513 80.6162 25.5237 80.4996 25.589C80.3829 25.6543 80.2546 25.687 80.1146 25.687C79.9979 25.687 79.8976 25.6567 79.8136 25.596C79.7296 25.5353 79.6619 25.4607 79.6106 25.372L79.2956 24.819C80.1216 24.063 81.1179 23.685 82.2846 23.685C82.7046 23.685 83.0779 23.755 83.4046 23.895C83.7359 24.0303 84.0159 24.2217 84.2446 24.469C84.4732 24.7117 84.6459 25.0033 84.7626 25.344C84.8839 25.6847 84.9446 26.058 84.9446 26.464V31ZM81.5846 29.922C81.7619 29.922 81.9252 29.9057 82.0746 29.873C82.2239 29.8403 82.3639 29.7913 82.4946 29.726C82.6299 29.6607 82.7582 29.5813 82.8796 29.488C83.0056 29.39 83.1316 29.2757 83.2576 29.145V27.934C82.7536 27.9573 82.3312 28.0017 81.9906 28.067C81.6546 28.1277 81.3839 28.207 81.1786 28.305C80.9732 28.403 80.8262 28.5173 80.7376 28.648C80.6536 28.7787 80.6116 28.921 80.6116 29.075C80.6116 29.3783 80.7002 29.5953 80.8776 29.726C81.0596 29.8567 81.2952 29.922 81.5846 29.922ZM86.6447 31V23.818H87.6597C87.837 23.818 87.9607 23.8507 88.0307 23.916C88.1007 23.9813 88.1474 24.0933 88.1707 24.252L88.2757 25.12C88.5324 24.6767 88.8334 24.3267 89.1787 24.07C89.524 23.8133 89.9114 23.685 90.3407 23.685C90.6954 23.685 90.9894 23.7667 91.2227 23.93L90.9987 25.225C90.9847 25.309 90.9544 25.3697 90.9077 25.407C90.861 25.4397 90.798 25.456 90.7187 25.456C90.6487 25.456 90.553 25.4397 90.4317 25.407C90.3104 25.3743 90.1494 25.358 89.9487 25.358C89.5894 25.358 89.2814 25.4583 89.0247 25.659C88.768 25.855 88.551 26.1443 88.3737 26.527V31H86.6447ZM94.2005 20.598V31H92.4715V20.598H94.2005ZM101.788 31H101.011C100.848 31 100.72 30.9767 100.626 30.93C100.533 30.8787 100.463 30.7783 100.416 30.629L100.262 30.118C100.08 30.2813 99.9007 30.426 99.7233 30.552C99.5507 30.6733 99.371 30.776 99.1843 30.86C98.9977 30.944 98.7993 31.007 98.5893 31.049C98.3793 31.091 98.146 31.112 97.8893 31.112C97.586 31.112 97.306 31.0723 97.0493 30.993C96.7927 30.909 96.571 30.7853 96.3843 30.622C96.2023 30.4587 96.06 30.2557 95.9573 30.013C95.8547 29.7703 95.8033 29.488 95.8033 29.166C95.8033 28.8953 95.8733 28.6293 96.0133 28.368C96.158 28.102 96.396 27.864 96.7273 27.654C97.0587 27.4393 97.4997 27.262 98.0503 27.122C98.601 26.982 99.2847 26.9027 100.101 26.884V26.464C100.101 25.9833 99.9987 25.6287 99.7933 25.4C99.5927 25.1667 99.2987 25.05 98.9113 25.05C98.6313 25.05 98.398 25.0827 98.2113 25.148C98.0247 25.2133 97.8613 25.288 97.7213 25.372C97.586 25.4513 97.46 25.5237 97.3433 25.589C97.2267 25.6543 97.0983 25.687 96.9583 25.687C96.8417 25.687 96.7413 25.6567 96.6573 25.596C96.5733 25.5353 96.5057 25.4607 96.4543 25.372L96.1393 24.819C96.9653 24.063 97.9617 23.685 99.1283 23.685C99.5483 23.685 99.9217 23.755 100.248 23.895C100.58 24.0303 100.86 24.2217 101.088 24.469C101.317 24.7117 101.49 25.0033 101.606 25.344C101.728 25.6847 101.788 26.058 101.788 26.464V31ZM98.4283 29.922C98.6057 29.922 98.769 29.9057 98.9183 29.873C99.0677 29.8403 99.2077 29.7913 99.3383 29.726C99.4737 29.6607 99.602 29.5813 99.7233 29.488C99.8493 29.39 99.9753 29.2757 100.101 29.145V27.934C99.5973 27.9573 99.175 28.0017 98.8343 28.067C98.4983 28.1277 98.2277 28.207 98.0223 28.305C97.817 28.403 97.67 28.5173 97.5813 28.648C97.4973 28.7787 97.4553 28.921 97.4553 29.075C97.4553 29.3783 97.544 29.5953 97.7213 29.726C97.9033 29.8567 98.139 29.922 98.4283 29.922ZM115.19 31H113.734C113.571 31 113.436 30.9603 113.328 30.881C113.226 30.797 113.151 30.6943 113.104 30.573L112.348 28.508H108.155L107.399 30.573C107.362 30.6803 107.287 30.7783 107.175 30.867C107.068 30.9557 106.935 31 106.776 31H105.313L109.289 20.878H111.214L115.19 31ZM108.638 27.178H111.865L110.633 23.811C110.577 23.6617 110.514 23.4867 110.444 23.286C110.379 23.0807 110.314 22.859 110.248 22.621C110.183 22.859 110.118 23.0807 110.052 23.286C109.992 23.4913 109.931 23.671 109.87 23.825L108.638 27.178ZM116.135 31V23.818H117.192C117.416 23.818 117.563 23.923 117.633 24.133L117.745 24.665C117.871 24.525 118.002 24.3967 118.137 24.28C118.277 24.1633 118.424 24.063 118.578 23.979C118.737 23.895 118.905 23.8297 119.082 23.783C119.264 23.7317 119.462 23.706 119.677 23.706C120.13 23.706 120.501 23.8297 120.79 24.077C121.084 24.3197 121.303 24.644 121.448 25.05C121.56 24.812 121.7 24.609 121.868 24.441C122.036 24.2683 122.22 24.1283 122.421 24.021C122.622 23.9137 122.834 23.8343 123.058 23.783C123.287 23.7317 123.515 23.706 123.744 23.706C124.141 23.706 124.493 23.7667 124.801 23.888C125.109 24.0093 125.368 24.1867 125.578 24.42C125.788 24.6533 125.947 24.938 126.054 25.274C126.166 25.61 126.222 25.995 126.222 26.429V31H124.493V26.429C124.493 25.9717 124.393 25.6287 124.192 25.4C123.991 25.1667 123.697 25.05 123.31 25.05C123.133 25.05 122.967 25.0803 122.813 25.141C122.664 25.2017 122.531 25.2903 122.414 25.407C122.302 25.519 122.213 25.6613 122.148 25.834C122.083 26.0067 122.05 26.205 122.05 26.429V31H120.314V26.429C120.314 25.9483 120.216 25.5983 120.02 25.379C119.829 25.1597 119.544 25.05 119.166 25.05C118.919 25.05 118.685 25.113 118.466 25.239C118.251 25.3603 118.051 25.5283 117.864 25.743V31H116.135ZM129.761 23.818V31H128.032V23.818H129.761ZM130.02 21.725C130.02 21.8743 129.99 22.0143 129.929 22.145C129.868 22.2757 129.787 22.39 129.684 22.488C129.586 22.586 129.469 22.6653 129.334 22.726C129.199 22.782 129.054 22.81 128.9 22.81C128.751 22.81 128.608 22.782 128.473 22.726C128.342 22.6653 128.228 22.586 128.13 22.488C128.032 22.39 127.953 22.2757 127.892 22.145C127.836 22.0143 127.808 21.8743 127.808 21.725C127.808 21.571 127.836 21.4263 127.892 21.291C127.953 21.1557 128.032 21.039 128.13 20.941C128.228 20.843 128.342 20.766 128.473 20.71C128.608 20.6493 128.751 20.619 128.9 20.619C129.054 20.619 129.199 20.6493 129.334 20.71C129.469 20.766 129.586 20.843 129.684 20.941C129.787 21.039 129.868 21.1557 129.929 21.291C129.99 21.4263 130.02 21.571 130.02 21.725ZM131.721 31V23.818H132.778C133.002 23.818 133.149 23.923 133.219 24.133L133.338 24.7C133.483 24.5507 133.634 24.4153 133.793 24.294C133.956 24.1727 134.127 24.0677 134.304 23.979C134.486 23.8903 134.68 23.8227 134.885 23.776C135.09 23.7293 135.314 23.706 135.557 23.706C135.949 23.706 136.297 23.7737 136.6 23.909C136.903 24.0397 137.155 24.2263 137.356 24.469C137.561 24.707 137.715 24.994 137.818 25.33C137.925 25.6613 137.979 26.0277 137.979 26.429V31H136.25V26.429C136.25 25.9903 136.147 25.652 135.942 25.414C135.741 25.1713 135.438 25.05 135.032 25.05C134.733 25.05 134.453 25.1177 134.192 25.253C133.931 25.3883 133.683 25.5727 133.45 25.806V31H131.721ZM142.744 23.706C143.281 23.706 143.766 23.7923 144.2 23.965C144.639 24.1377 145.012 24.3827 145.32 24.7C145.628 25.0173 145.866 25.4047 146.034 25.862C146.202 26.3193 146.286 26.8303 146.286 27.395C146.286 27.9643 146.202 28.4777 146.034 28.935C145.866 29.3923 145.628 29.782 145.32 30.104C145.012 30.426 144.639 30.6733 144.2 30.846C143.766 31.0187 143.281 31.105 142.744 31.105C142.207 31.105 141.72 31.0187 141.281 30.846C140.842 30.6733 140.467 30.426 140.154 30.104C139.846 29.782 139.606 29.3923 139.433 28.935C139.265 28.4777 139.181 27.9643 139.181 27.395C139.181 26.8303 139.265 26.3193 139.433 25.862C139.606 25.4047 139.846 25.0173 140.154 24.7C140.467 24.3827 140.842 24.1377 141.281 23.965C141.72 23.7923 142.207 23.706 142.744 23.706ZM142.744 29.775C143.341 29.775 143.782 29.5743 144.067 29.173C144.356 28.7717 144.501 28.1837 144.501 27.409C144.501 26.6343 144.356 26.044 144.067 25.638C143.782 25.232 143.341 25.029 142.744 25.029C142.137 25.029 141.689 25.2343 141.4 25.645C141.111 26.051 140.966 26.639 140.966 27.409C140.966 28.179 141.111 28.767 141.4 29.173C141.689 29.5743 142.137 29.775 142.744 29.775ZM147.943 31V25.12L147.32 25.022C147.185 24.9987 147.075 24.952 146.991 24.882C146.912 24.812 146.872 24.714 146.872 24.588V23.881H147.943V23.349C147.943 22.9383 148.004 22.5697 148.125 22.243C148.251 21.9163 148.428 21.6387 148.657 21.41C148.89 21.1813 149.173 21.0063 149.504 20.885C149.835 20.7637 150.209 20.703 150.624 20.703C150.955 20.703 151.263 20.7473 151.548 20.836L151.513 21.704C151.504 21.8393 151.441 21.9233 151.324 21.956C151.207 21.9887 151.072 22.005 150.918 22.005C150.713 22.005 150.528 22.0283 150.365 22.075C150.206 22.117 150.071 22.194 149.959 22.306C149.847 22.4133 149.761 22.558 149.7 22.74C149.644 22.9173 149.616 23.139 149.616 23.405V23.881H151.485V25.113H149.672V31H147.943ZM152.851 31V25.12L152.228 25.022C152.093 24.9987 151.983 24.952 151.899 24.882C151.82 24.812 151.78 24.714 151.78 24.588V23.881H152.851V23.349C152.851 22.9383 152.912 22.5697 153.033 22.243C153.159 21.9163 153.336 21.6387 153.565 21.41C153.798 21.1813 154.081 21.0063 154.412 20.885C154.743 20.7637 155.117 20.703 155.532 20.703C155.863 20.703 156.171 20.7473 156.456 20.836L156.421 21.704C156.412 21.8393 156.349 21.9233 156.232 21.956C156.115 21.9887 155.98 22.005 155.826 22.005C155.621 22.005 155.436 22.0283 155.273 22.075C155.114 22.117 154.979 22.194 154.867 22.306C154.755 22.4133 154.669 22.558 154.608 22.74C154.552 22.9173 154.524 23.139 154.524 23.405V23.881H156.393V25.113H154.58V31H152.851Z" fill="#1A1C1D"/>
<path d="M169.356 27.08V30.5H168.198V27.08L165.048 21.902H166.068C166.172 21.902 166.254 21.928 166.314 21.98C166.374 22.032 166.426 22.096 166.47 22.172L168.438 25.514C168.518 25.654 168.584 25.786 168.636 25.91C168.692 26.034 168.742 26.156 168.786 26.276C168.83 26.152 168.878 26.028 168.93 25.904C168.982 25.78 169.048 25.65 169.128 25.514L171.09 22.172C171.126 22.108 171.174 22.048 171.234 21.992C171.298 21.932 171.38 21.902 171.48 21.902H172.512L169.356 27.08ZM174.868 24.326C175.232 24.326 175.568 24.388 175.876 24.512C176.184 24.632 176.45 24.808 176.674 25.04C176.898 25.268 177.072 25.552 177.196 25.892C177.324 26.228 177.388 26.612 177.388 27.044C177.388 27.212 177.37 27.324 177.334 27.38C177.298 27.436 177.23 27.464 177.13 27.464H173.086C173.094 27.848 173.146 28.182 173.242 28.466C173.338 28.75 173.47 28.988 173.638 29.18C173.806 29.368 174.006 29.51 174.238 29.606C174.47 29.698 174.73 29.744 175.018 29.744C175.286 29.744 175.516 29.714 175.708 29.654C175.904 29.59 176.072 29.522 176.212 29.45C176.352 29.378 176.468 29.312 176.56 29.252C176.656 29.188 176.738 29.156 176.806 29.156C176.894 29.156 176.962 29.19 177.01 29.258L177.31 29.648C177.178 29.808 177.02 29.948 176.836 30.068C176.652 30.184 176.454 30.28 176.242 30.356C176.034 30.432 175.818 30.488 175.594 30.524C175.37 30.564 175.148 30.584 174.928 30.584C174.508 30.584 174.12 30.514 173.764 30.374C173.412 30.23 173.106 30.022 172.846 29.75C172.59 29.474 172.39 29.134 172.246 28.73C172.102 28.326 172.03 27.862 172.03 27.338C172.03 26.914 172.094 26.518 172.222 26.15C172.354 25.782 172.542 25.464 172.786 25.196C173.03 24.924 173.328 24.712 173.68 24.56C174.032 24.404 174.428 24.326 174.868 24.326ZM174.892 25.112C174.376 25.112 173.97 25.262 173.674 25.562C173.378 25.858 173.194 26.27 173.122 26.798H176.428C176.428 26.55 176.394 26.324 176.326 26.12C176.258 25.912 176.158 25.734 176.026 25.586C175.894 25.434 175.732 25.318 175.54 25.238C175.352 25.154 175.136 25.112 174.892 25.112ZM182.235 25.424C182.187 25.512 182.113 25.556 182.013 25.556C181.953 25.556 181.885 25.534 181.809 25.49C181.733 25.446 181.639 25.398 181.527 25.346C181.419 25.29 181.289 25.24 181.137 25.196C180.985 25.148 180.805 25.124 180.597 25.124C180.417 25.124 180.255 25.148 180.111 25.196C179.967 25.24 179.843 25.302 179.739 25.382C179.639 25.462 179.561 25.556 179.505 25.664C179.453 25.768 179.427 25.882 179.427 26.006C179.427 26.162 179.471 26.292 179.559 26.396C179.651 26.5 179.771 26.59 179.919 26.666C180.067 26.742 180.235 26.81 180.423 26.87C180.611 26.926 180.803 26.988 180.999 27.056C181.199 27.12 181.393 27.192 181.581 27.272C181.769 27.352 181.937 27.452 182.085 27.572C182.233 27.692 182.351 27.84 182.439 28.016C182.531 28.188 182.577 28.396 182.577 28.64C182.577 28.92 182.527 29.18 182.427 29.42C182.327 29.656 182.179 29.862 181.983 30.038C181.787 30.21 181.547 30.346 181.263 30.446C180.979 30.546 180.651 30.596 180.279 30.596C179.855 30.596 179.471 30.528 179.127 30.392C178.783 30.252 178.491 30.074 178.251 29.858L178.503 29.45C178.535 29.398 178.573 29.358 178.617 29.33C178.661 29.302 178.719 29.288 178.791 29.288C178.863 29.288 178.939 29.316 179.019 29.372C179.099 29.428 179.195 29.49 179.307 29.558C179.423 29.626 179.561 29.688 179.721 29.744C179.885 29.8 180.089 29.828 180.333 29.828C180.541 29.828 180.723 29.802 180.879 29.75C181.035 29.694 181.165 29.62 181.269 29.528C181.373 29.436 181.449 29.33 181.497 29.21C181.549 29.09 181.575 28.962 181.575 28.826C181.575 28.658 181.529 28.52 181.437 28.412C181.349 28.3 181.231 28.206 181.083 28.13C180.935 28.05 180.765 27.982 180.573 27.926C180.385 27.866 180.191 27.804 179.991 27.74C179.795 27.676 179.601 27.604 179.409 27.524C179.221 27.44 179.053 27.336 178.905 27.212C178.757 27.088 178.637 26.936 178.545 26.756C178.457 26.572 178.413 26.35 178.413 26.09C178.413 25.858 178.461 25.636 178.557 25.424C178.653 25.208 178.793 25.02 178.977 24.86C179.161 24.696 179.387 24.566 179.655 24.47C179.923 24.374 180.229 24.326 180.573 24.326C180.973 24.326 181.331 24.39 181.647 24.518C181.967 24.642 182.243 24.814 182.475 25.034L182.235 25.424ZM185.8 30.596C185.32 30.596 184.95 30.462 184.69 30.194C184.434 29.926 184.306 29.54 184.306 29.036V25.316H183.574C183.51 25.316 183.456 25.298 183.412 25.262C183.368 25.222 183.346 25.162 183.346 25.082V24.656L184.342 24.53L184.588 22.652C184.596 22.592 184.622 22.544 184.666 22.508C184.71 22.468 184.766 22.448 184.834 22.448H185.374V24.542H187.114V25.316H185.374V28.964C185.374 29.22 185.436 29.41 185.56 29.534C185.684 29.658 185.844 29.72 186.04 29.72C186.152 29.72 186.248 29.706 186.328 29.678C186.412 29.646 186.484 29.612 186.544 29.576C186.604 29.54 186.654 29.508 186.694 29.48C186.738 29.448 186.776 29.432 186.808 29.432C186.864 29.432 186.914 29.466 186.958 29.534L187.27 30.044C187.086 30.216 186.864 30.352 186.604 30.452C186.344 30.548 186.076 30.596 185.8 30.596ZM190.841 24.326C191.205 24.326 191.541 24.388 191.849 24.512C192.157 24.632 192.423 24.808 192.647 25.04C192.871 25.268 193.045 25.552 193.169 25.892C193.297 26.228 193.361 26.612 193.361 27.044C193.361 27.212 193.343 27.324 193.307 27.38C193.271 27.436 193.203 27.464 193.103 27.464H189.059C189.067 27.848 189.119 28.182 189.215 28.466C189.311 28.75 189.443 28.988 189.611 29.18C189.779 29.368 189.979 29.51 190.211 29.606C190.443 29.698 190.703 29.744 190.991 29.744C191.259 29.744 191.489 29.714 191.681 29.654C191.877 29.59 192.045 29.522 192.185 29.45C192.325 29.378 192.441 29.312 192.533 29.252C192.629 29.188 192.711 29.156 192.779 29.156C192.867 29.156 192.935 29.19 192.983 29.258L193.283 29.648C193.151 29.808 192.993 29.948 192.809 30.068C192.625 30.184 192.427 30.28 192.215 30.356C192.007 30.432 191.791 30.488 191.567 30.524C191.343 30.564 191.121 30.584 190.901 30.584C190.481 30.584 190.093 30.514 189.737 30.374C189.385 30.23 189.079 30.022 188.819 29.75C188.563 29.474 188.363 29.134 188.219 28.73C188.075 28.326 188.003 27.862 188.003 27.338C188.003 26.914 188.067 26.518 188.195 26.15C188.327 25.782 188.515 25.464 188.759 25.196C189.003 24.924 189.301 24.712 189.653 24.56C190.005 24.404 190.401 24.326 190.841 24.326ZM190.865 25.112C190.349 25.112 189.943 25.262 189.647 25.562C189.351 25.858 189.167 26.27 189.095 26.798H192.401C192.401 26.55 192.367 26.324 192.299 26.12C192.231 25.912 192.131 25.734 191.999 25.586C191.867 25.434 191.705 25.318 191.513 25.238C191.325 25.154 191.109 25.112 190.865 25.112ZM194.728 30.5V24.422H195.34C195.456 24.422 195.536 24.444 195.58 24.488C195.624 24.532 195.654 24.608 195.67 24.716L195.742 25.664C195.95 25.24 196.206 24.91 196.51 24.674C196.818 24.434 197.178 24.314 197.59 24.314C197.758 24.314 197.91 24.334 198.046 24.374C198.182 24.41 198.308 24.462 198.424 24.53L198.286 25.328C198.258 25.428 198.196 25.478 198.1 25.478C198.044 25.478 197.958 25.46 197.842 25.424C197.726 25.384 197.564 25.364 197.356 25.364C196.984 25.364 196.672 25.472 196.42 25.688C196.172 25.904 195.964 26.218 195.796 26.63V30.5H194.728ZM203.845 30.5C203.693 30.5 203.597 30.426 203.557 30.278L203.461 29.54C203.201 29.856 202.903 30.11 202.567 30.302C202.235 30.49 201.853 30.584 201.421 30.584C201.073 30.584 200.757 30.518 200.473 30.386C200.189 30.25 199.947 30.052 199.747 29.792C199.547 29.532 199.393 29.208 199.285 28.82C199.177 28.432 199.123 27.986 199.123 27.482C199.123 27.034 199.183 26.618 199.303 26.234C199.423 25.846 199.595 25.51 199.819 25.226C200.047 24.942 200.323 24.72 200.647 24.56C200.971 24.396 201.339 24.314 201.751 24.314C202.123 24.314 202.441 24.378 202.705 24.506C202.969 24.63 203.205 24.806 203.413 25.034V21.662H204.481V30.5H203.845ZM201.775 29.72C202.123 29.72 202.427 29.64 202.687 29.48C202.951 29.32 203.193 29.094 203.413 28.802V25.862C203.217 25.598 203.001 25.414 202.765 25.31C202.533 25.202 202.275 25.148 201.991 25.148C201.423 25.148 200.987 25.35 200.683 25.754C200.379 26.158 200.227 26.734 200.227 27.482C200.227 27.878 200.261 28.218 200.329 28.502C200.397 28.782 200.497 29.014 200.629 29.198C200.761 29.378 200.923 29.51 201.115 29.594C201.307 29.678 201.527 29.72 201.775 29.72ZM210.735 30.5H210.261C210.157 30.5 210.073 30.484 210.009 30.452C209.945 30.42 209.903 30.352 209.883 30.248L209.763 29.684C209.603 29.828 209.447 29.958 209.295 30.074C209.143 30.186 208.983 30.282 208.815 30.362C208.647 30.438 208.467 30.496 208.275 30.536C208.087 30.576 207.877 30.596 207.645 30.596C207.409 30.596 207.187 30.564 206.979 30.5C206.775 30.432 206.597 30.332 206.445 30.2C206.293 30.068 206.171 29.902 206.079 29.702C205.991 29.498 205.947 29.258 205.947 28.982C205.947 28.742 206.013 28.512 206.145 28.292C206.277 28.068 206.489 27.87 206.781 27.698C207.077 27.526 207.463 27.386 207.939 27.278C208.415 27.166 208.997 27.102 209.685 27.086V26.612C209.685 26.14 209.583 25.784 209.379 25.544C209.179 25.3 208.881 25.178 208.485 25.178C208.225 25.178 208.005 25.212 207.825 25.28C207.649 25.344 207.495 25.418 207.363 25.502C207.235 25.582 207.123 25.656 207.027 25.724C206.935 25.788 206.843 25.82 206.751 25.82C206.679 25.82 206.615 25.802 206.559 25.766C206.507 25.726 206.465 25.678 206.433 25.622L206.241 25.28C206.577 24.956 206.939 24.714 207.327 24.554C207.715 24.394 208.145 24.314 208.617 24.314C208.957 24.314 209.259 24.37 209.523 24.482C209.787 24.594 210.009 24.75 210.189 24.95C210.369 25.15 210.505 25.392 210.597 25.676C210.689 25.96 210.735 26.272 210.735 26.612V30.5ZM207.963 29.846C208.151 29.846 208.323 29.828 208.479 29.792C208.635 29.752 208.781 29.698 208.917 29.63C209.057 29.558 209.189 29.472 209.313 29.372C209.441 29.272 209.565 29.158 209.685 29.03V27.764C209.193 27.78 208.775 27.82 208.431 27.884C208.087 27.944 207.807 28.024 207.591 28.124C207.375 28.224 207.217 28.342 207.117 28.478C207.021 28.614 206.973 28.766 206.973 28.934C206.973 29.094 206.999 29.232 207.051 29.348C207.103 29.464 207.173 29.56 207.261 29.636C207.349 29.708 207.453 29.762 207.573 29.798C207.693 29.83 207.823 29.846 207.963 29.846ZM213.947 32.294C213.911 32.374 213.865 32.438 213.809 32.486C213.757 32.534 213.675 32.558 213.563 32.558H212.771L213.881 30.146L211.373 24.422H212.297C212.389 24.422 212.461 24.446 212.513 24.494C212.565 24.538 212.603 24.588 212.627 24.644L214.253 28.472C214.289 28.56 214.319 28.648 214.343 28.736C214.371 28.824 214.395 28.914 214.415 29.006C214.443 28.914 214.471 28.824 214.499 28.736C214.527 28.648 214.559 28.558 214.595 28.466L216.173 24.644C216.197 24.58 216.237 24.528 216.293 24.488C216.353 24.444 216.417 24.422 216.485 24.422H217.337L213.947 32.294ZM221.13 21.302H221.958V32.558H221.13V21.302ZM229.274 21.806C229.638 21.806 229.978 21.86 230.294 21.968C230.61 22.076 230.882 22.234 231.11 22.442C231.342 22.646 231.524 22.896 231.656 23.192C231.788 23.488 231.854 23.824 231.854 24.2C231.854 24.52 231.806 24.816 231.71 25.088C231.614 25.36 231.484 25.622 231.32 25.874C231.156 26.122 230.966 26.364 230.75 26.6C230.538 26.832 230.312 27.07 230.072 27.314L227.81 29.63C227.97 29.586 228.132 29.552 228.296 29.528C228.46 29.5 228.618 29.486 228.77 29.486H231.65C231.766 29.486 231.858 29.52 231.926 29.588C231.994 29.656 232.028 29.744 232.028 29.852V30.5H226.292V30.134C226.292 30.058 226.306 29.98 226.334 29.9C226.366 29.82 226.416 29.746 226.484 29.678L229.238 26.912C229.466 26.68 229.674 26.458 229.862 26.246C230.05 26.03 230.21 25.814 230.342 25.598C230.478 25.382 230.582 25.164 230.654 24.944C230.726 24.72 230.762 24.482 230.762 24.23C230.762 23.978 230.722 23.758 230.642 23.57C230.562 23.378 230.452 23.22 230.312 23.096C230.172 22.972 230.008 22.88 229.82 22.82C229.632 22.756 229.43 22.724 229.214 22.724C228.998 22.724 228.798 22.756 228.614 22.82C228.43 22.884 228.266 22.974 228.122 23.09C227.982 23.202 227.862 23.336 227.762 23.492C227.666 23.648 227.598 23.82 227.558 24.008C227.526 24.124 227.478 24.208 227.414 24.26C227.35 24.312 227.266 24.338 227.162 24.338C227.142 24.338 227.12 24.338 227.096 24.338C227.076 24.334 227.052 24.33 227.024 24.326L226.466 24.23C226.522 23.838 226.63 23.492 226.79 23.192C226.95 22.888 227.152 22.634 227.396 22.43C227.644 22.226 227.926 22.072 228.242 21.968C228.562 21.86 228.906 21.806 229.274 21.806ZM239.229 26.204C239.229 26.956 239.147 27.608 238.983 28.16C238.823 28.708 238.603 29.162 238.323 29.522C238.043 29.882 237.711 30.15 237.327 30.326C236.947 30.502 236.539 30.59 236.103 30.59C235.663 30.59 235.253 30.502 234.873 30.326C234.497 30.15 234.169 29.882 233.889 29.522C233.609 29.162 233.389 28.708 233.229 28.16C233.069 27.608 232.989 26.956 232.989 26.204C232.989 25.452 233.069 24.8 233.229 24.248C233.389 23.696 233.609 23.24 233.889 22.88C234.169 22.516 234.497 22.246 234.873 22.07C235.253 21.894 235.663 21.806 236.103 21.806C236.539 21.806 236.947 21.894 237.327 22.07C237.711 22.246 238.043 22.516 238.323 22.88C238.603 23.24 238.823 23.696 238.983 24.248C239.147 24.8 239.229 25.452 239.229 26.204ZM238.119 26.204C238.119 25.548 238.063 24.998 237.951 24.554C237.843 24.106 237.695 23.746 237.507 23.474C237.323 23.202 237.109 23.008 236.865 22.892C236.621 22.772 236.367 22.712 236.103 22.712C235.839 22.712 235.585 22.772 235.341 22.892C235.097 23.008 234.883 23.202 234.699 23.474C234.515 23.746 234.367 24.106 234.255 24.554C234.147 24.998 234.093 25.548 234.093 26.204C234.093 26.86 234.147 27.41 234.255 27.854C234.367 28.298 234.515 28.656 234.699 28.928C234.883 29.2 235.097 29.396 235.341 29.516C235.585 29.632 235.839 29.69 236.103 29.69C236.367 29.69 236.621 29.632 236.865 29.516C237.109 29.396 237.323 29.2 237.507 28.928C237.695 28.656 237.843 28.298 237.951 27.854C238.063 27.41 238.119 26.86 238.119 26.204ZM240.358 29.84C240.358 29.736 240.376 29.638 240.412 29.546C240.452 29.454 240.504 29.374 240.568 29.306C240.636 29.238 240.716 29.184 240.808 29.144C240.9 29.104 240.998 29.084 241.102 29.084C241.206 29.084 241.304 29.104 241.396 29.144C241.488 29.184 241.568 29.238 241.636 29.306C241.704 29.374 241.756 29.454 241.792 29.546C241.832 29.638 241.852 29.736 241.852 29.84C241.852 29.948 241.832 30.048 241.792 30.14C241.756 30.228 241.704 30.306 241.636 30.374C241.568 30.442 241.488 30.494 241.396 30.53C241.304 30.57 241.206 30.59 241.102 30.59C240.998 30.59 240.9 30.57 240.808 30.53C240.716 30.494 240.636 30.442 240.568 30.374C240.504 30.306 240.452 30.228 240.412 30.14C240.376 30.048 240.358 29.948 240.358 29.84ZM240.358 25.34C240.358 25.236 240.376 25.138 240.412 25.046C240.452 24.954 240.504 24.874 240.568 24.806C240.636 24.738 240.716 24.684 240.808 24.644C240.9 24.604 240.998 24.584 241.102 24.584C241.206 24.584 241.304 24.604 241.396 24.644C241.488 24.684 241.568 24.738 241.636 24.806C241.704 24.874 241.756 24.954 241.792 25.046C241.832 25.138 241.852 25.236 241.852 25.34C241.852 25.448 241.832 25.548 241.792 25.64C241.756 25.728 241.704 25.806 241.636 25.874C241.568 25.942 241.488 25.996 241.396 26.036C241.304 26.072 241.206 26.09 241.102 26.09C240.998 26.09 240.9 26.072 240.808 26.036C240.716 25.996 240.636 25.942 240.568 25.874C240.504 25.806 240.452 25.728 240.412 25.64C240.376 25.548 240.358 25.448 240.358 25.34ZM244.335 29.684H246.183V23.822C246.183 23.646 246.189 23.468 246.201 23.288L244.665 24.602C244.625 24.634 244.585 24.658 244.545 24.674C244.505 24.686 244.467 24.692 244.431 24.692C244.371 24.692 244.317 24.68 244.269 24.656C244.221 24.628 244.185 24.596 244.161 24.56L243.825 24.098L246.381 21.884H247.251V29.684H248.943V30.5H244.335V29.684ZM253.048 30.596C252.62 30.596 252.228 30.54 251.872 30.428C251.516 30.312 251.21 30.148 250.954 29.936C250.698 29.724 250.5 29.468 250.36 29.168C250.22 28.864 250.15 28.524 250.15 28.148C250.15 27.596 250.294 27.142 250.582 26.786C250.87 26.426 251.282 26.17 251.818 26.018C251.366 25.85 251.024 25.6 250.792 25.268C250.564 24.932 250.45 24.532 250.45 24.068C250.45 23.752 250.512 23.456 250.636 23.18C250.76 22.904 250.936 22.664 251.164 22.46C251.392 22.256 251.664 22.096 251.98 21.98C252.3 21.864 252.656 21.806 253.048 21.806C253.436 21.806 253.79 21.864 254.11 21.98C254.43 22.096 254.704 22.256 254.932 22.46C255.16 22.664 255.336 22.904 255.46 23.18C255.584 23.456 255.646 23.752 255.646 24.068C255.646 24.532 255.53 24.932 255.298 25.268C255.066 25.6 254.726 25.85 254.278 26.018C254.814 26.17 255.226 26.426 255.514 26.786C255.802 27.142 255.946 27.596 255.946 28.148C255.946 28.524 255.874 28.864 255.73 29.168C255.59 29.468 255.392 29.724 255.136 29.936C254.884 30.148 254.58 30.312 254.224 30.428C253.868 30.54 253.476 30.596 253.048 30.596ZM253.048 29.744C253.328 29.744 253.578 29.706 253.798 29.63C254.022 29.55 254.21 29.44 254.362 29.3C254.518 29.156 254.636 28.986 254.716 28.79C254.8 28.59 254.842 28.37 254.842 28.13C254.842 27.834 254.792 27.582 254.692 27.374C254.596 27.162 254.464 26.99 254.296 26.858C254.132 26.726 253.942 26.63 253.726 26.57C253.51 26.506 253.284 26.474 253.048 26.474C252.812 26.474 252.586 26.506 252.37 26.57C252.154 26.63 251.962 26.726 251.794 26.858C251.63 26.99 251.498 27.162 251.398 27.374C251.302 27.582 251.254 27.834 251.254 28.13C251.254 28.37 251.294 28.59 251.374 28.79C251.458 28.986 251.576 29.156 251.728 29.3C251.884 29.44 252.072 29.55 252.292 29.63C252.516 29.706 252.768 29.744 253.048 29.744ZM253.048 25.616C253.328 25.616 253.566 25.574 253.762 25.49C253.962 25.402 254.124 25.288 254.248 25.148C254.372 25.004 254.462 24.84 254.518 24.656C254.574 24.472 254.602 24.282 254.602 24.086C254.602 23.886 254.568 23.698 254.5 23.522C254.436 23.346 254.338 23.192 254.206 23.06C254.078 22.928 253.916 22.824 253.72 22.748C253.528 22.672 253.304 22.634 253.048 22.634C252.792 22.634 252.566 22.672 252.37 22.748C252.178 22.824 252.016 22.928 251.884 23.06C251.756 23.192 251.658 23.346 251.59 23.522C251.526 23.698 251.494 23.886 251.494 24.086C251.494 24.282 251.522 24.472 251.578 24.656C251.634 24.84 251.724 25.004 251.848 25.148C251.972 25.288 252.132 25.402 252.328 25.49C252.528 25.574 252.768 25.616 253.048 25.616Z" fill="#828282"/>
<rect x="17" y="18" width="36" height="36" rx="8" fill="#164217" fill-opacity="0.5"/>
<path d="M32.6358 38.984C32.6998 38.984 32.7638 38.9973 32.8278 39.024C32.8918 39.0453 32.9531 39.0853 33.0118 39.144L34.0838 40.272C33.6144 40.8853 33.0251 41.3493 32.3158 41.664C31.6118 41.9733 30.7771 42.128 29.8118 42.128C28.9264 42.128 28.1318 41.9787 27.4278 41.68C26.7291 41.376 26.1344 40.96 25.6438 40.432C25.1584 39.8987 24.7851 39.2693 24.5238 38.544C24.2624 37.8133 24.1318 37.0213 24.1318 36.168C24.1318 35.2987 24.2811 34.5013 24.5798 33.776C24.8784 33.0453 25.2944 32.416 25.8278 31.888C26.3664 31.36 27.0091 30.9493 27.7558 30.656C28.5024 30.3627 29.3264 30.216 30.2278 30.216C30.6651 30.216 31.0758 30.256 31.4598 30.336C31.8491 30.4107 32.2118 30.5173 32.5478 30.656C32.8838 30.7893 33.1931 30.952 33.4758 31.144C33.7584 31.3307 34.0091 31.5387 34.2278 31.768L33.3158 32.992C33.2571 33.0667 33.1878 33.136 33.1078 33.2C33.0278 33.2587 32.9158 33.288 32.7718 33.288C32.6758 33.288 32.5851 33.2667 32.4998 33.224C32.4144 33.1813 32.3238 33.1307 32.2278 33.072C32.1318 33.008 32.0251 32.9413 31.9078 32.872C31.7958 32.7973 31.6598 32.7307 31.4998 32.672C31.3451 32.608 31.1611 32.5547 30.9478 32.512C30.7398 32.4693 30.4944 32.448 30.2118 32.448C29.7211 32.448 29.2731 32.536 28.8678 32.712C28.4624 32.8827 28.1131 33.1307 27.8198 33.456C27.5318 33.776 27.3051 34.1653 27.1398 34.624C26.9798 35.0827 26.8998 35.5973 26.8998 36.168C26.8998 36.7653 26.9798 37.296 27.1398 37.76C27.3051 38.224 27.5264 38.616 27.8038 38.936C28.0864 39.2507 28.4144 39.4907 28.7878 39.656C29.1611 39.8213 29.5611 39.904 29.9878 39.904C30.2331 39.904 30.4571 39.8933 30.6598 39.872C30.8624 39.8453 31.0491 39.8027 31.2198 39.744C31.3958 39.6853 31.5611 39.6107 31.7158 39.52C31.8758 39.424 32.0358 39.3067 32.1958 39.168C32.2598 39.1147 32.3291 39.072 32.4038 39.04C32.4784 39.0027 32.5558 38.984 32.6358 38.984ZM46.1674 42H44.0714C43.8367 42 43.642 41.9467 43.4874 41.84C43.338 41.728 43.234 41.5867 43.1754 41.416L42.4874 39.384H38.0554L37.3674 41.416C37.314 41.5653 37.21 41.7013 37.0554 41.824C36.9007 41.9413 36.7114 42 36.4874 42H34.3754L38.8874 30.344H41.6554L46.1674 42ZM38.6794 37.544H41.8634L40.7914 34.352C40.722 34.1493 40.6394 33.912 40.5434 33.64C40.4527 33.3627 40.362 33.064 40.2714 32.744C40.186 33.0693 40.098 33.3707 40.0074 33.648C39.9167 33.9253 39.8314 34.1653 39.7514 34.368L38.6794 37.544Z" fill="white"/>
<path d="M1 1V0H0V1H1ZM376 1H377V0H376V1ZM376 71V72H377V71H376ZM1 71H0V72H1V71ZM1 2H376V0H1V2ZM375 1V71H377V1H375ZM376 70H1V72H376V70ZM2 71V1H0V71H2Z" fill="#F3F4F9"/>
</svg>
