<svg width="377" height="72" viewBox="0 0 377 72" fill="none" xmlns="http://www.w3.org/2000/svg">
<path d="M1 1H376V71H1V1Z" fill="white"/>
<path d="M71.828 52H70.47V41.969H71.828V52ZM76.098 44.909H77.078C77.1807 44.909 77.2647 44.9347 77.33 44.986C77.3953 45.0373 77.4397 45.098 77.463 45.168L78.821 49.732C78.8583 49.9 78.8933 50.0633 78.926 50.222C78.9587 50.376 78.9867 50.5323 79.01 50.691C79.0473 50.5323 79.0893 50.376 79.136 50.222C79.1827 50.0633 79.2317 49.9 79.283 49.732L80.781 45.14C80.8043 45.07 80.844 45.0117 80.9 44.965C80.9607 44.9183 81.0353 44.895 81.124 44.895H81.663C81.7563 44.895 81.8333 44.9183 81.894 44.965C81.9547 45.0117 81.9967 45.07 82.02 45.14L83.483 49.732C83.5343 49.8953 83.5787 50.0563 83.616 50.215C83.658 50.3737 83.6977 50.53 83.735 50.684C83.7583 50.53 83.7887 50.369 83.826 50.201C83.8633 50.033 83.903 49.8767 83.945 49.732L85.331 45.168C85.3543 45.0933 85.3987 45.0327 85.464 44.986C85.5293 44.9347 85.6063 44.909 85.695 44.909H86.633L84.337 52H83.35C83.2287 52 83.1447 51.9207 83.098 51.762L81.53 46.953C81.4927 46.8457 81.4623 46.7383 81.439 46.631C81.4157 46.519 81.3923 46.4093 81.369 46.302C81.3457 46.4093 81.3223 46.519 81.299 46.631C81.2757 46.743 81.2453 46.8527 81.208 46.96L79.619 51.762C79.5677 51.9207 79.472 52 79.332 52H78.394L76.098 44.909ZM92.9488 52H92.3958C92.2744 52 92.1764 51.9813 92.1018 51.944C92.0271 51.9067 91.9781 51.8273 91.9548 51.706L91.8148 51.048C91.6281 51.216 91.4461 51.3677 91.2688 51.503C91.0914 51.6337 90.9048 51.7457 90.7088 51.839C90.5128 51.9277 90.3028 51.9953 90.0788 52.042C89.8594 52.0887 89.6144 52.112 89.3438 52.112C89.0684 52.112 88.8094 52.0747 88.5667 52C88.3288 51.9207 88.1211 51.804 87.9438 51.65C87.7664 51.496 87.6241 51.3023 87.5168 51.069C87.4141 50.831 87.3628 50.551 87.3628 50.229C87.3628 49.949 87.4398 49.6807 87.5938 49.424C87.7478 49.1627 87.9951 48.9317 88.3358 48.731C88.6811 48.5303 89.1314 48.367 89.6868 48.241C90.2421 48.1103 90.9211 48.0357 91.7238 48.017V47.464C91.7238 46.9133 91.6048 46.498 91.3668 46.218C91.1334 45.9333 90.7858 45.791 90.3238 45.791C90.0204 45.791 89.7638 45.8307 89.5538 45.91C89.3484 45.9847 89.1688 46.071 89.0148 46.169C88.8654 46.2623 88.7348 46.3487 88.6228 46.428C88.5154 46.5027 88.4081 46.54 88.3008 46.54C88.2168 46.54 88.1421 46.519 88.0768 46.477C88.0161 46.4303 87.9671 46.3743 87.9298 46.309L87.7058 45.91C88.0978 45.532 88.5201 45.2497 88.9728 45.063C89.4254 44.8763 89.9271 44.783 90.4778 44.783C90.8744 44.783 91.2268 44.8483 91.5348 44.979C91.8428 45.1097 92.1018 45.2917 92.3118 45.525C92.5218 45.7583 92.6804 46.0407 92.7878 46.372C92.8951 46.7033 92.9488 47.0673 92.9488 47.464V52ZM89.7148 51.237C89.9341 51.237 90.1348 51.216 90.3167 51.174C90.4988 51.1273 90.6691 51.0643 90.8278 50.985C90.9911 50.901 91.1451 50.8007 91.2898 50.684C91.4391 50.5673 91.5838 50.4343 91.7238 50.285V48.808C91.1498 48.8267 90.6621 48.8733 90.2608 48.948C89.8594 49.018 89.5328 49.1113 89.2808 49.228C89.0288 49.3447 88.8444 49.4823 88.7278 49.641C88.6158 49.7997 88.5598 49.977 88.5598 50.173C88.5598 50.3597 88.5901 50.5207 88.6508 50.656C88.7114 50.7913 88.7931 50.9033 88.8958 50.992C88.9984 51.076 89.1198 51.139 89.2598 51.181C89.3998 51.2183 89.5514 51.237 89.7148 51.237ZM94.8365 52V44.909H95.5785C95.7558 44.909 95.8678 44.9953 95.9145 45.168L96.0125 45.938C96.3205 45.5973 96.6635 45.322 97.0415 45.112C97.4241 44.902 97.8651 44.797 98.3645 44.797C98.7518 44.797 99.0925 44.8623 99.3865 44.993C99.6851 45.119 99.9325 45.301 100.128 45.539C100.329 45.7723 100.481 46.0547 100.583 46.386C100.686 46.7173 100.737 47.0837 100.737 47.485V52H99.4915V47.485C99.4915 46.9483 99.3678 46.533 99.1205 46.239C98.8778 45.9403 98.5045 45.791 98.0005 45.791C97.6318 45.791 97.2865 45.8797 96.9645 46.057C96.6471 46.2343 96.3531 46.4747 96.0825 46.778V52H94.8365ZM104.765 52.112C104.205 52.112 103.773 51.9557 103.47 51.643C103.171 51.3303 103.022 50.88 103.022 50.292V45.952H102.168C102.093 45.952 102.03 45.931 101.979 45.889C101.927 45.8423 101.902 45.7723 101.902 45.679V45.182L103.064 45.035L103.351 42.844C103.36 42.774 103.39 42.718 103.442 42.676C103.493 42.6293 103.558 42.606 103.638 42.606H104.268V45.049H106.298V45.952H104.268V50.208C104.268 50.5067 104.34 50.7283 104.485 50.873C104.629 51.0177 104.816 51.09 105.045 51.09C105.175 51.09 105.287 51.0737 105.381 51.041C105.479 51.0037 105.563 50.964 105.633 50.922C105.703 50.88 105.761 50.8427 105.808 50.81C105.859 50.7727 105.903 50.754 105.941 50.754C106.006 50.754 106.064 50.7937 106.116 50.873L106.48 51.468C106.265 51.6687 106.006 51.8273 105.703 51.944C105.399 52.056 105.087 52.112 104.765 52.112ZM112.694 52.112C112.134 52.112 111.703 51.9557 111.399 51.643C111.101 51.3303 110.951 50.88 110.951 50.292V45.952H110.097C110.023 45.952 109.96 45.931 109.908 45.889C109.857 45.8423 109.831 45.7723 109.831 45.679V45.182L110.993 45.035L111.28 42.844C111.29 42.774 111.32 42.718 111.371 42.676C111.423 42.6293 111.488 42.606 111.567 42.606H112.197V45.049H114.227V45.952H112.197V50.208C112.197 50.5067 112.27 50.7283 112.414 50.873C112.559 51.0177 112.746 51.09 112.974 51.09C113.105 51.09 113.217 51.0737 113.31 51.041C113.408 51.0037 113.492 50.964 113.562 50.922C113.632 50.88 113.691 50.8427 113.737 50.81C113.789 50.7727 113.833 50.754 113.87 50.754C113.936 50.754 113.994 50.7937 114.045 50.873L114.409 51.468C114.195 51.6687 113.936 51.8273 113.632 51.944C113.329 52.056 113.016 52.112 112.694 52.112ZM118.638 44.797C119.156 44.797 119.623 44.8833 120.038 45.056C120.458 45.2287 120.813 45.4737 121.102 45.791C121.396 46.1083 121.62 46.4933 121.774 46.946C121.933 47.394 122.012 47.8957 122.012 48.451C122.012 49.011 121.933 49.515 121.774 49.963C121.62 50.411 121.396 50.7937 121.102 51.111C120.813 51.4283 120.458 51.6733 120.038 51.846C119.623 52.014 119.156 52.098 118.638 52.098C118.12 52.098 117.651 52.014 117.231 51.846C116.816 51.6733 116.461 51.4283 116.167 51.111C115.873 50.7937 115.647 50.411 115.488 49.963C115.329 49.515 115.25 49.011 115.25 48.451C115.25 47.8957 115.329 47.394 115.488 46.946C115.647 46.4933 115.873 46.1083 116.167 45.791C116.461 45.4737 116.816 45.2287 117.231 45.056C117.651 44.8833 118.12 44.797 118.638 44.797ZM118.638 51.125C119.338 51.125 119.861 50.8917 120.206 50.425C120.551 49.9537 120.724 49.298 120.724 48.458C120.724 47.6133 120.551 46.9553 120.206 46.484C119.861 46.0127 119.338 45.777 118.638 45.777C118.283 45.777 117.975 45.8377 117.714 45.959C117.453 46.0803 117.233 46.2553 117.056 46.484C116.883 46.7127 116.753 46.995 116.664 47.331C116.58 47.6623 116.538 48.038 116.538 48.458C116.538 48.878 116.58 49.2537 116.664 49.585C116.753 49.9163 116.883 50.1963 117.056 50.425C117.233 50.649 117.453 50.8217 117.714 50.943C117.975 51.0643 118.283 51.125 118.638 51.125ZM128.403 52.112C127.843 52.112 127.412 51.9557 127.108 51.643C126.81 51.3303 126.66 50.88 126.66 50.292V45.952H125.806C125.732 45.952 125.669 45.931 125.617 45.889C125.566 45.8423 125.54 45.7723 125.54 45.679V45.182L126.702 45.035L126.989 42.844C126.999 42.774 127.029 42.718 127.08 42.676C127.132 42.6293 127.197 42.606 127.276 42.606H127.906V45.049H129.936V45.952H127.906V50.208C127.906 50.5067 127.979 50.7283 128.123 50.873C128.268 51.0177 128.455 51.09 128.683 51.09C128.814 51.09 128.926 51.0737 129.019 51.041C129.117 51.0037 129.201 50.964 129.271 50.922C129.341 50.88 129.4 50.8427 129.446 50.81C129.498 50.7727 129.542 50.754 129.579 50.754C129.645 50.754 129.703 50.7937 129.754 50.873L130.118 51.468C129.904 51.6687 129.645 51.8273 129.341 51.944C129.038 52.056 128.725 52.112 128.403 52.112ZM136.685 52H136.132C136.011 52 135.913 51.9813 135.838 51.944C135.763 51.9067 135.714 51.8273 135.691 51.706L135.551 51.048C135.364 51.216 135.182 51.3677 135.005 51.503C134.828 51.6337 134.641 51.7457 134.445 51.839C134.249 51.9277 134.039 51.9953 133.815 52.042C133.596 52.0887 133.351 52.112 133.08 52.112C132.805 52.112 132.546 52.0747 132.303 52C132.065 51.9207 131.857 51.804 131.68 51.65C131.503 51.496 131.36 51.3023 131.253 51.069C131.15 50.831 131.099 50.551 131.099 50.229C131.099 49.949 131.176 49.6807 131.33 49.424C131.484 49.1627 131.731 48.9317 132.072 48.731C132.417 48.5303 132.868 48.367 133.423 48.241C133.978 48.1103 134.657 48.0357 135.46 48.017V47.464C135.46 46.9133 135.341 46.498 135.103 46.218C134.87 45.9333 134.522 45.791 134.06 45.791C133.757 45.791 133.5 45.8307 133.29 45.91C133.085 45.9847 132.905 46.071 132.751 46.169C132.602 46.2623 132.471 46.3487 132.359 46.428C132.252 46.5027 132.144 46.54 132.037 46.54C131.953 46.54 131.878 46.519 131.813 46.477C131.752 46.4303 131.703 46.3743 131.666 46.309L131.442 45.91C131.834 45.532 132.256 45.2497 132.709 45.063C133.162 44.8763 133.663 44.783 134.214 44.783C134.611 44.783 134.963 44.8483 135.271 44.979C135.579 45.1097 135.838 45.2917 136.048 45.525C136.258 45.7583 136.417 46.0407 136.524 46.372C136.631 46.7033 136.685 47.0673 136.685 47.464V52ZM133.451 51.237C133.67 51.237 133.871 51.216 134.053 51.174C134.235 51.1273 134.405 51.0643 134.564 50.985C134.727 50.901 134.881 50.8007 135.026 50.684C135.175 50.5673 135.32 50.4343 135.46 50.285V48.808C134.886 48.8267 134.398 48.8733 133.997 48.948C133.596 49.018 133.269 49.1113 133.017 49.228C132.765 49.3447 132.581 49.4823 132.464 49.641C132.352 49.7997 132.296 49.977 132.296 50.173C132.296 50.3597 132.326 50.5207 132.387 50.656C132.448 50.7913 132.529 50.9033 132.632 50.992C132.735 51.076 132.856 51.139 132.996 51.181C133.136 51.2183 133.288 51.237 133.451 51.237ZM139.959 41.689V52H138.713V41.689H139.959ZM143.45 41.689V47.758H143.772C143.865 47.758 143.942 47.7463 144.003 47.723C144.063 47.695 144.131 47.6413 144.206 47.562L146.446 45.161C146.516 45.0863 146.586 45.0257 146.656 44.979C146.726 44.9323 146.819 44.909 146.936 44.909H148.07L145.459 47.688C145.393 47.7673 145.328 47.8373 145.263 47.898C145.202 47.9587 145.132 48.0123 145.053 48.059C145.137 48.115 145.211 48.1803 145.277 48.255C145.347 48.325 145.412 48.4067 145.473 48.5L148.245 52H147.125C147.022 52 146.933 51.9813 146.859 51.944C146.789 51.902 146.721 51.839 146.656 51.755L144.325 48.85C144.255 48.752 144.185 48.689 144.115 48.661C144.045 48.6283 143.94 48.612 143.8 48.612H143.45V52H142.197V41.689H143.45ZM157.412 52H156.859C156.737 52 156.639 51.9813 156.565 51.944C156.49 51.9067 156.441 51.8273 156.418 51.706L156.278 51.048C156.091 51.216 155.909 51.3677 155.732 51.503C155.554 51.6337 155.368 51.7457 155.172 51.839C154.976 51.9277 154.766 51.9953 154.542 52.042C154.322 52.0887 154.077 52.112 153.807 52.112C153.531 52.112 153.272 52.0747 153.03 52C152.792 51.9207 152.584 51.804 152.407 51.65C152.229 51.496 152.087 51.3023 151.98 51.069C151.877 50.831 151.826 50.551 151.826 50.229C151.826 49.949 151.903 49.6807 152.057 49.424C152.211 49.1627 152.458 48.9317 152.799 48.731C153.144 48.5303 153.594 48.367 154.15 48.241C154.705 48.1103 155.384 48.0357 156.187 48.017V47.464C156.187 46.9133 156.068 46.498 155.83 46.218C155.596 45.9333 155.249 45.791 154.787 45.791C154.483 45.791 154.227 45.8307 154.017 45.91C153.811 45.9847 153.632 46.071 153.478 46.169C153.328 46.2623 153.198 46.3487 153.086 46.428C152.978 46.5027 152.871 46.54 152.764 46.54C152.68 46.54 152.605 46.519 152.54 46.477C152.479 46.4303 152.43 46.3743 152.393 46.309L152.169 45.91C152.561 45.532 152.983 45.2497 153.436 45.063C153.888 44.8763 154.39 44.783 154.941 44.783C155.337 44.783 155.69 44.8483 155.998 44.979C156.306 45.1097 156.565 45.2917 156.775 45.525C156.985 45.7583 157.143 46.0407 157.251 46.372C157.358 46.7033 157.412 47.0673 157.412 47.464V52ZM154.178 51.237C154.397 51.237 154.598 51.216 154.78 51.174C154.962 51.1273 155.132 51.0643 155.291 50.985C155.454 50.901 155.608 50.8007 155.753 50.684C155.902 50.5673 156.047 50.4343 156.187 50.285V48.808C155.613 48.8267 155.125 48.8733 154.724 48.948C154.322 49.018 153.996 49.1113 153.744 49.228C153.492 49.3447 153.307 49.4823 153.191 49.641C153.079 49.7997 153.023 49.977 153.023 50.173C153.023 50.3597 153.053 50.5207 153.114 50.656C153.174 50.7913 153.256 50.9033 153.359 50.992C153.461 51.076 153.583 51.139 153.723 51.181C153.863 51.2183 154.014 51.237 154.178 51.237ZM159.341 52V41.689H160.594V45.931C160.888 45.5903 161.224 45.3173 161.602 45.112C161.985 44.902 162.421 44.797 162.911 44.797C163.322 44.797 163.693 44.874 164.024 45.028C164.356 45.182 164.638 45.413 164.871 45.721C165.105 46.0243 165.284 46.4023 165.41 46.855C165.536 47.303 165.599 47.821 165.599 48.409C165.599 48.9317 165.529 49.4193 165.389 49.872C165.249 50.32 165.046 50.7097 164.78 51.041C164.519 51.3677 164.197 51.6267 163.814 51.818C163.436 52.0047 163.009 52.098 162.533 52.098C162.076 52.098 161.686 52.0093 161.364 51.832C161.047 51.6547 160.769 51.4073 160.531 51.09L160.468 51.734C160.431 51.9113 160.324 52 160.146 52H159.341ZM162.505 45.791C162.099 45.791 161.742 45.8843 161.434 46.071C161.131 46.2577 160.851 46.5213 160.594 46.862V50.292C160.818 50.6 161.066 50.817 161.336 50.943C161.612 51.069 161.917 51.132 162.253 51.132C162.916 51.132 163.425 50.8963 163.779 50.425C164.134 49.9537 164.311 49.2817 164.311 48.409C164.311 47.947 164.269 47.5503 164.185 47.219C164.106 46.8877 163.989 46.617 163.835 46.407C163.681 46.1923 163.492 46.036 163.268 45.938C163.044 45.84 162.79 45.791 162.505 45.791ZM169.99 44.797C170.508 44.797 170.974 44.8833 171.39 45.056C171.81 45.2287 172.164 45.4737 172.454 45.791C172.748 46.1083 172.972 46.4933 173.126 46.946C173.284 47.394 173.364 47.8957 173.364 48.451C173.364 49.011 173.284 49.515 173.126 49.963C172.972 50.411 172.748 50.7937 172.454 51.111C172.164 51.4283 171.81 51.6733 171.39 51.846C170.974 52.014 170.508 52.098 169.99 52.098C169.472 52.098 169.003 52.014 168.583 51.846C168.167 51.6733 167.813 51.4283 167.519 51.111C167.225 50.7937 166.998 50.411 166.84 49.963C166.681 49.515 166.602 49.011 166.602 48.451C166.602 47.8957 166.681 47.394 166.84 46.946C166.998 46.4933 167.225 46.1083 167.519 45.791C167.813 45.4737 168.167 45.2287 168.583 45.056C169.003 44.8833 169.472 44.797 169.99 44.797ZM169.99 51.125C170.69 51.125 171.212 50.8917 171.558 50.425C171.903 49.9537 172.076 49.298 172.076 48.458C172.076 47.6133 171.903 46.9553 171.558 46.484C171.212 46.0127 170.69 45.777 169.99 45.777C169.635 45.777 169.327 45.8377 169.066 45.959C168.804 46.0803 168.585 46.2553 168.408 46.484C168.235 46.7127 168.104 46.995 168.016 47.331C167.932 47.6623 167.89 48.038 167.89 48.458C167.89 48.878 167.932 49.2537 168.016 49.585C168.104 49.9163 168.235 50.1963 168.408 50.425C168.585 50.649 168.804 50.8217 169.066 50.943C169.327 51.0643 169.635 51.125 169.99 51.125ZM175.977 44.909V49.431C175.977 49.9677 176.101 50.383 176.348 50.677C176.595 50.971 176.969 51.118 177.468 51.118C177.832 51.118 178.175 51.0317 178.497 50.859C178.819 50.6863 179.115 50.446 179.386 50.138V44.909H180.632V52H179.89C179.713 52 179.601 51.9137 179.554 51.741L179.456 50.978C179.148 51.3187 178.803 51.594 178.42 51.804C178.037 52.0093 177.599 52.112 177.104 52.112C176.717 52.112 176.374 52.049 176.075 51.923C175.781 51.7923 175.534 51.6103 175.333 51.377C175.132 51.1437 174.981 50.8613 174.878 50.53C174.78 50.1987 174.731 49.8323 174.731 49.431V44.909H175.977ZM184.827 52.112C184.267 52.112 183.836 51.9557 183.532 51.643C183.234 51.3303 183.084 50.88 183.084 50.292V45.952H182.23C182.156 45.952 182.093 45.931 182.041 45.889C181.99 45.8423 181.964 45.7723 181.964 45.679V45.182L183.126 45.035L183.413 42.844C183.423 42.774 183.453 42.718 183.504 42.676C183.556 42.6293 183.621 42.606 183.7 42.606H184.33V45.049H186.36V45.952H184.33V50.208C184.33 50.5067 184.403 50.7283 184.547 50.873C184.692 51.0177 184.879 51.09 185.107 51.09C185.238 51.09 185.35 51.0737 185.443 51.041C185.541 51.0037 185.625 50.964 185.695 50.922C185.765 50.88 185.824 50.8427 185.87 50.81C185.922 50.7727 185.966 50.754 186.003 50.754C186.069 50.754 186.127 50.7937 186.178 50.873L186.542 51.468C186.328 51.6687 186.069 51.8273 185.765 51.944C185.462 52.056 185.149 52.112 184.827 52.112ZM192.757 52.112C192.197 52.112 191.765 51.9557 191.462 51.643C191.163 51.3303 191.014 50.88 191.014 50.292V45.952H190.16C190.085 45.952 190.022 45.931 189.971 45.889C189.92 45.8423 189.894 45.7723 189.894 45.679V45.182L191.056 45.035L191.343 42.844C191.352 42.774 191.383 42.718 191.434 42.676C191.485 42.6293 191.551 42.606 191.63 42.606H192.26V45.049H194.29V45.952H192.26V50.208C192.26 50.5067 192.332 50.7283 192.477 50.873C192.622 51.0177 192.808 51.09 193.037 51.09C193.168 51.09 193.28 51.0737 193.373 51.041C193.471 51.0037 193.555 50.964 193.625 50.922C193.695 50.88 193.753 50.8427 193.8 50.81C193.851 50.7727 193.896 50.754 193.933 50.754C193.998 50.754 194.057 50.7937 194.108 50.873L194.472 51.468C194.257 51.6687 193.998 51.8273 193.695 51.944C193.392 52.056 193.079 52.112 192.757 52.112ZM198.701 44.797C199.219 44.797 199.685 44.8833 200.101 45.056C200.521 45.2287 200.875 45.4737 201.165 45.791C201.459 46.1083 201.683 46.4933 201.837 46.946C201.995 47.394 202.075 47.8957 202.075 48.451C202.075 49.011 201.995 49.515 201.837 49.963C201.683 50.411 201.459 50.7937 201.165 51.111C200.875 51.4283 200.521 51.6733 200.101 51.846C199.685 52.014 199.219 52.098 198.701 52.098C198.183 52.098 197.714 52.014 197.294 51.846C196.878 51.6733 196.524 51.4283 196.23 51.111C195.936 50.7937 195.709 50.411 195.551 49.963C195.392 49.515 195.313 49.011 195.313 48.451C195.313 47.8957 195.392 47.394 195.551 46.946C195.709 46.4933 195.936 46.1083 196.23 45.791C196.524 45.4737 196.878 45.2287 197.294 45.056C197.714 44.8833 198.183 44.797 198.701 44.797ZM198.701 51.125C199.401 51.125 199.923 50.8917 200.269 50.425C200.614 49.9537 200.787 49.298 200.787 48.458C200.787 47.6133 200.614 46.9553 200.269 46.484C199.923 46.0127 199.401 45.777 198.701 45.777C198.346 45.777 198.038 45.8377 197.777 45.959C197.515 46.0803 197.296 46.2553 197.119 46.484C196.946 46.7127 196.815 46.995 196.727 47.331C196.643 47.6623 196.601 48.038 196.601 48.458C196.601 48.878 196.643 49.2537 196.727 49.585C196.815 49.9163 196.946 50.1963 197.119 50.425C197.296 50.649 197.515 50.8217 197.777 50.943C198.038 51.0643 198.346 51.125 198.701 51.125ZM208.466 52.112C207.906 52.112 207.474 51.9557 207.171 51.643C206.872 51.3303 206.723 50.88 206.723 50.292V45.952H205.869C205.794 45.952 205.731 45.931 205.68 45.889C205.629 45.8423 205.603 45.7723 205.603 45.679V45.182L206.765 45.035L207.052 42.844C207.061 42.774 207.092 42.718 207.143 42.676C207.194 42.6293 207.26 42.606 207.339 42.606H207.969V45.049H209.999V45.952H207.969V50.208C207.969 50.5067 208.041 50.7283 208.186 50.873C208.331 51.0177 208.517 51.09 208.746 51.09C208.877 51.09 208.989 51.0737 209.082 51.041C209.18 51.0037 209.264 50.964 209.334 50.922C209.404 50.88 209.462 50.8427 209.509 50.81C209.56 50.7727 209.605 50.754 209.642 50.754C209.707 50.754 209.766 50.7937 209.817 50.873L210.181 51.468C209.966 51.6687 209.707 51.8273 209.404 51.944C209.101 52.056 208.788 52.112 208.466 52.112ZM211.54 52V41.689H212.786V45.861C213.089 45.539 213.425 45.2823 213.794 45.091C214.162 44.895 214.587 44.797 215.068 44.797C215.455 44.797 215.796 44.8623 216.09 44.993C216.388 45.119 216.636 45.301 216.832 45.539C217.032 45.7723 217.184 46.0547 217.287 46.386C217.389 46.7173 217.441 47.0837 217.441 47.485V52H216.195V47.485C216.195 46.9483 216.071 46.533 215.824 46.239C215.581 45.9403 215.208 45.791 214.704 45.791C214.335 45.791 213.99 45.8797 213.668 46.057C213.35 46.2343 213.056 46.4747 212.786 46.778V52H211.54ZM220.705 44.909V52H219.459V44.909H220.705ZM220.985 42.683C220.985 42.8043 220.959 42.9187 220.908 43.026C220.861 43.1287 220.796 43.222 220.712 43.306C220.633 43.3853 220.539 43.4483 220.432 43.495C220.325 43.5417 220.21 43.565 220.089 43.565C219.968 43.565 219.853 43.5417 219.746 43.495C219.643 43.4483 219.55 43.3853 219.466 43.306C219.387 43.222 219.324 43.1287 219.277 43.026C219.23 42.9187 219.207 42.8043 219.207 42.683C219.207 42.5617 219.23 42.4473 219.277 42.34C219.324 42.228 219.387 42.1323 219.466 42.053C219.55 41.969 219.643 41.9037 219.746 41.857C219.853 41.8103 219.968 41.787 220.089 41.787C220.21 41.787 220.325 41.8103 220.432 41.857C220.539 41.9037 220.633 41.969 220.712 42.053C220.796 42.1323 220.861 42.228 220.908 42.34C220.959 42.4473 220.985 42.5617 220.985 42.683ZM222.901 52V44.909H223.643C223.82 44.909 223.932 44.9953 223.979 45.168L224.077 45.938C224.385 45.5973 224.728 45.322 225.106 45.112C225.489 44.902 225.93 44.797 226.429 44.797C226.816 44.797 227.157 44.8623 227.451 44.993C227.75 45.119 227.997 45.301 228.193 45.539C228.394 45.7723 228.545 46.0547 228.648 46.386C228.751 46.7173 228.802 47.0837 228.802 47.485V52H227.556V47.485C227.556 46.9483 227.432 46.533 227.185 46.239C226.942 45.9403 226.569 45.791 226.065 45.791C225.696 45.791 225.351 45.8797 225.029 46.057C224.712 46.2343 224.418 46.4747 224.147 46.778V52H222.901ZM233.067 44.79C233.375 44.79 233.662 44.825 233.928 44.895C234.199 44.9603 234.444 45.0583 234.663 45.189H236.588V45.651C236.588 45.805 236.49 45.903 236.294 45.945L235.489 46.057C235.648 46.3603 235.727 46.6987 235.727 47.072C235.727 47.4173 235.66 47.7323 235.524 48.017C235.394 48.297 235.209 48.5373 234.971 48.738C234.738 48.9387 234.458 49.0927 234.131 49.2C233.809 49.3073 233.455 49.361 233.067 49.361C232.736 49.361 232.423 49.3213 232.129 49.242C231.98 49.3353 231.866 49.4357 231.786 49.543C231.712 49.6503 231.674 49.7553 231.674 49.858C231.674 50.026 231.742 50.1543 231.877 50.243C232.013 50.327 232.192 50.3877 232.416 50.425C232.64 50.4623 232.895 50.4857 233.179 50.495C233.464 50.5043 233.753 50.5207 234.047 50.544C234.346 50.5627 234.638 50.5977 234.922 50.649C235.207 50.7003 235.461 50.7843 235.685 50.901C235.909 51.0177 236.089 51.1787 236.224 51.384C236.36 51.5893 236.427 51.8553 236.427 52.182C236.427 52.4853 236.35 52.7793 236.196 53.064C236.047 53.3487 235.83 53.6007 235.545 53.82C235.261 54.044 234.913 54.2213 234.502 54.352C234.092 54.4873 233.627 54.555 233.109 54.555C232.591 54.555 232.136 54.5037 231.744 54.401C231.357 54.2983 231.035 54.1607 230.778 53.988C230.522 53.8153 230.328 53.6147 230.197 53.386C230.071 53.162 230.008 52.9263 230.008 52.679C230.008 52.329 230.118 52.0327 230.337 51.79C230.561 51.5427 230.867 51.3467 231.254 51.202C231.054 51.1087 230.893 50.985 230.771 50.831C230.655 50.6723 230.596 50.4623 230.596 50.201C230.596 50.0983 230.615 49.9933 230.652 49.886C230.69 49.774 230.746 49.6643 230.82 49.557C230.9 49.4497 230.995 49.347 231.107 49.249C231.219 49.151 231.35 49.0647 231.499 48.99C231.149 48.794 230.874 48.535 230.673 48.213C230.477 47.8863 230.379 47.506 230.379 47.072C230.379 46.7267 230.445 46.414 230.575 46.134C230.711 45.8493 230.897 45.609 231.135 45.413C231.373 45.2123 231.656 45.0583 231.982 44.951C232.314 44.8437 232.675 44.79 233.067 44.79ZM235.279 52.385C235.279 52.2077 235.23 52.0653 235.132 51.958C235.034 51.8507 234.901 51.769 234.733 51.713C234.565 51.6523 234.372 51.608 234.152 51.58C233.933 51.552 233.702 51.5333 233.459 51.524C233.217 51.51 232.969 51.496 232.717 51.482C232.465 51.468 232.225 51.4423 231.996 51.405C231.73 51.531 231.513 51.685 231.345 51.867C231.182 52.049 231.1 52.266 231.1 52.518C231.1 52.6767 231.14 52.8237 231.219 52.959C231.303 53.099 231.429 53.218 231.597 53.316C231.765 53.4187 231.975 53.498 232.227 53.554C232.484 53.6147 232.785 53.645 233.13 53.645C233.466 53.645 233.767 53.6147 234.033 53.554C234.299 53.4933 234.523 53.407 234.705 53.295C234.892 53.183 235.034 53.05 235.132 52.896C235.23 52.742 235.279 52.5717 235.279 52.385ZM233.067 48.535C233.319 48.535 233.541 48.5 233.732 48.43C233.928 48.36 234.092 48.262 234.222 48.136C234.353 48.01 234.451 47.8607 234.516 47.688C234.582 47.5107 234.614 47.317 234.614 47.107C234.614 46.673 234.481 46.3277 234.215 46.071C233.954 45.8143 233.571 45.686 233.067 45.686C232.568 45.686 232.185 45.8143 231.919 46.071C231.658 46.3277 231.527 46.673 231.527 47.107C231.527 47.317 231.56 47.5107 231.625 47.688C231.695 47.8607 231.796 48.01 231.926 48.136C232.057 48.262 232.218 48.36 232.409 48.43C232.601 48.5 232.82 48.535 233.067 48.535ZM241.891 46.078C241.835 46.1807 241.748 46.232 241.632 46.232C241.562 46.232 241.482 46.2063 241.394 46.155C241.305 46.1037 241.195 46.0477 241.065 45.987C240.939 45.9217 240.787 45.8633 240.61 45.812C240.432 45.756 240.222 45.728 239.98 45.728C239.77 45.728 239.581 45.756 239.413 45.812C239.245 45.8633 239.1 45.9357 238.979 46.029C238.862 46.1223 238.771 46.232 238.706 46.358C238.645 46.4793 238.615 46.6123 238.615 46.757C238.615 46.939 238.666 47.0907 238.769 47.212C238.876 47.3333 239.016 47.4383 239.189 47.527C239.361 47.6157 239.557 47.695 239.777 47.765C239.996 47.8303 240.22 47.9027 240.449 47.982C240.682 48.0567 240.908 48.1407 241.128 48.234C241.347 48.3273 241.543 48.444 241.716 48.584C241.888 48.724 242.026 48.8967 242.129 49.102C242.236 49.3027 242.29 49.5453 242.29 49.83C242.29 50.1567 242.231 50.46 242.115 50.74C241.998 51.0153 241.825 51.2557 241.597 51.461C241.368 51.6617 241.088 51.8203 240.757 51.937C240.425 52.0537 240.043 52.112 239.609 52.112C239.114 52.112 238.666 52.0327 238.265 51.874C237.863 51.7107 237.523 51.503 237.243 51.251L237.537 50.775C237.574 50.7143 237.618 50.6677 237.67 50.635C237.721 50.6023 237.789 50.586 237.873 50.586C237.957 50.586 238.045 50.6187 238.139 50.684C238.232 50.7493 238.344 50.8217 238.475 50.901C238.61 50.9803 238.771 51.0527 238.958 51.118C239.149 51.1833 239.387 51.216 239.672 51.216C239.914 51.216 240.127 51.1857 240.309 51.125C240.491 51.0597 240.642 50.9733 240.764 50.866C240.885 50.7587 240.974 50.635 241.03 50.495C241.09 50.355 241.121 50.2057 241.121 50.047C241.121 49.851 241.067 49.69 240.96 49.564C240.857 49.4333 240.719 49.3237 240.547 49.235C240.374 49.1417 240.176 49.0623 239.952 48.997C239.732 48.927 239.506 48.8547 239.273 48.78C239.044 48.7053 238.818 48.6213 238.594 48.528C238.374 48.43 238.178 48.3087 238.006 48.164C237.833 48.0193 237.693 47.842 237.586 47.632C237.483 47.4173 237.432 47.1583 237.432 46.855C237.432 46.5843 237.488 46.3253 237.6 46.078C237.712 45.826 237.875 45.6067 238.09 45.42C238.304 45.2287 238.568 45.077 238.881 44.965C239.193 44.853 239.55 44.797 239.952 44.797C240.418 44.797 240.836 44.8717 241.205 45.021C241.578 45.1657 241.9 45.3663 242.171 45.623L241.891 46.078ZM248.757 52.112C248.197 52.112 247.765 51.9557 247.462 51.643C247.163 51.3303 247.014 50.88 247.014 50.292V45.952H246.16C246.085 45.952 246.022 45.931 245.971 45.889C245.92 45.8423 245.894 45.7723 245.894 45.679V45.182L247.056 45.035L247.343 42.844C247.352 42.774 247.383 42.718 247.434 42.676C247.485 42.6293 247.551 42.606 247.63 42.606H248.26V45.049H250.29V45.952H248.26V50.208C248.26 50.5067 248.332 50.7283 248.477 50.873C248.622 51.0177 248.808 51.09 249.037 51.09C249.168 51.09 249.28 51.0737 249.373 51.041C249.471 51.0037 249.555 50.964 249.625 50.922C249.695 50.88 249.753 50.8427 249.8 50.81C249.851 50.7727 249.896 50.754 249.933 50.754C249.998 50.754 250.057 50.7937 250.108 50.873L250.472 51.468C250.257 51.6687 249.998 51.8273 249.695 51.944C249.392 52.056 249.079 52.112 248.757 52.112ZM251.831 52V41.689H253.077V45.861C253.38 45.539 253.716 45.2823 254.085 45.091C254.453 44.895 254.878 44.797 255.359 44.797C255.746 44.797 256.087 44.8623 256.381 44.993C256.679 45.119 256.927 45.301 257.123 45.539C257.323 45.7723 257.475 46.0547 257.578 46.386C257.68 46.7173 257.732 47.0837 257.732 47.485V52H256.486V47.485C256.486 46.9483 256.362 46.533 256.115 46.239C255.872 45.9403 255.499 45.791 254.995 45.791C254.626 45.791 254.281 45.8797 253.959 46.057C253.641 46.2343 253.347 46.4747 253.077 46.778V52H251.831ZM264.818 52H264.265C264.144 52 264.046 51.9813 263.971 51.944C263.896 51.9067 263.847 51.8273 263.824 51.706L263.684 51.048C263.497 51.216 263.315 51.3677 263.138 51.503C262.961 51.6337 262.774 51.7457 262.578 51.839C262.382 51.9277 262.172 51.9953 261.948 52.042C261.729 52.0887 261.484 52.112 261.213 52.112C260.938 52.112 260.679 52.0747 260.436 52C260.198 51.9207 259.99 51.804 259.813 51.65C259.636 51.496 259.493 51.3023 259.386 51.069C259.283 50.831 259.232 50.551 259.232 50.229C259.232 49.949 259.309 49.6807 259.463 49.424C259.617 49.1627 259.864 48.9317 260.205 48.731C260.55 48.5303 261.001 48.367 261.556 48.241C262.111 48.1103 262.79 48.0357 263.593 48.017V47.464C263.593 46.9133 263.474 46.498 263.236 46.218C263.003 45.9333 262.655 45.791 262.193 45.791C261.89 45.791 261.633 45.8307 261.423 45.91C261.218 45.9847 261.038 46.071 260.884 46.169C260.735 46.2623 260.604 46.3487 260.492 46.428C260.385 46.5027 260.277 46.54 260.17 46.54C260.086 46.54 260.011 46.519 259.946 46.477C259.885 46.4303 259.836 46.3743 259.799 46.309L259.575 45.91C259.967 45.532 260.389 45.2497 260.842 45.063C261.295 44.8763 261.796 44.783 262.347 44.783C262.744 44.783 263.096 44.8483 263.404 44.979C263.712 45.1097 263.971 45.2917 264.181 45.525C264.391 45.7583 264.55 46.0407 264.657 46.372C264.764 46.7033 264.818 47.0673 264.818 47.464V52ZM261.584 51.237C261.803 51.237 262.004 51.216 262.186 51.174C262.368 51.1273 262.538 51.0643 262.697 50.985C262.86 50.901 263.014 50.8007 263.159 50.684C263.308 50.5673 263.453 50.4343 263.593 50.285V48.808C263.019 48.8267 262.531 48.8733 262.13 48.948C261.729 49.018 261.402 49.1113 261.15 49.228C260.898 49.3447 260.714 49.4823 260.597 49.641C260.485 49.7997 260.429 49.977 260.429 50.173C260.429 50.3597 260.459 50.5207 260.52 50.656C260.581 50.7913 260.662 50.9033 260.765 50.992C260.868 51.076 260.989 51.139 261.129 51.181C261.269 51.2183 261.421 51.237 261.584 51.237ZM268.855 52.112C268.295 52.112 267.863 51.9557 267.56 51.643C267.261 51.3303 267.112 50.88 267.112 50.292V45.952H266.258C266.183 45.952 266.12 45.931 266.069 45.889C266.017 45.8423 265.992 45.7723 265.992 45.679V45.182L267.154 45.035L267.441 42.844C267.45 42.774 267.48 42.718 267.532 42.676C267.583 42.6293 267.648 42.606 267.728 42.606H268.358V45.049H270.388V45.952H268.358V50.208C268.358 50.5067 268.43 50.7283 268.575 50.873C268.719 51.0177 268.906 51.09 269.135 51.09C269.265 51.09 269.377 51.0737 269.471 51.041C269.569 51.0037 269.653 50.964 269.723 50.922C269.793 50.88 269.851 50.8427 269.898 50.81C269.949 50.7727 269.993 50.754 270.031 50.754C270.096 50.754 270.154 50.7937 270.206 50.873L270.57 51.468C270.355 51.6687 270.096 51.8273 269.793 51.944C269.489 52.056 269.177 52.112 268.855 52.112ZM279.843 52H279.29C279.169 52 279.071 51.9813 278.996 51.944C278.922 51.9067 278.873 51.8273 278.849 51.706L278.709 51.048C278.523 51.216 278.341 51.3677 278.163 51.503C277.986 51.6337 277.799 51.7457 277.603 51.839C277.407 51.9277 277.197 51.9953 276.973 52.042C276.754 52.0887 276.509 52.112 276.238 52.112C275.963 52.112 275.704 52.0747 275.461 52C275.223 51.9207 275.016 51.804 274.838 51.65C274.661 51.496 274.519 51.3023 274.411 51.069C274.309 50.831 274.257 50.551 274.257 50.229C274.257 49.949 274.334 49.6807 274.488 49.424C274.642 49.1627 274.89 48.9317 275.23 48.731C275.576 48.5303 276.026 48.367 276.581 48.241C277.137 48.1103 277.816 48.0357 278.618 48.017V47.464C278.618 46.9133 278.499 46.498 278.261 46.218C278.028 45.9333 277.68 45.791 277.218 45.791C276.915 45.791 276.658 45.8307 276.448 45.91C276.243 45.9847 276.063 46.071 275.909 46.169C275.76 46.2623 275.629 46.3487 275.517 46.428C275.41 46.5027 275.303 46.54 275.195 46.54C275.111 46.54 275.037 46.519 274.971 46.477C274.911 46.4303 274.862 46.3743 274.824 46.309L274.6 45.91C274.992 45.532 275.415 45.2497 275.867 45.063C276.32 44.8763 276.822 44.783 277.372 44.783C277.769 44.783 278.121 44.8483 278.429 44.979C278.737 45.1097 278.996 45.2917 279.206 45.525C279.416 45.7583 279.575 46.0407 279.682 46.372C279.79 46.7033 279.843 47.0673 279.843 47.464V52ZM276.609 51.237C276.829 51.237 277.029 51.216 277.211 51.174C277.393 51.1273 277.564 51.0643 277.722 50.985C277.886 50.901 278.04 50.8007 278.184 50.684C278.334 50.5673 278.478 50.4343 278.618 50.285V48.808C278.044 48.8267 277.557 48.8733 277.155 48.948C276.754 49.018 276.427 49.1113 276.175 49.228C275.923 49.3447 275.739 49.4823 275.622 49.641C275.51 49.7997 275.454 49.977 275.454 50.173C275.454 50.3597 275.485 50.5207 275.545 50.656C275.606 50.7913 275.688 50.9033 275.79 50.992C275.893 51.076 276.014 51.139 276.154 51.181C276.294 51.2183 276.446 51.237 276.609 51.237ZM281.731 52V44.909H282.445C282.58 44.909 282.674 44.9347 282.725 44.986C282.776 45.0373 282.811 45.126 282.83 45.252L282.914 46.358C283.157 45.8633 283.455 45.4783 283.81 45.203C284.169 44.923 284.589 44.783 285.07 44.783C285.266 44.783 285.443 44.8063 285.602 44.853C285.761 44.895 285.908 44.9557 286.043 45.035L285.882 45.966C285.849 46.0827 285.777 46.141 285.665 46.141C285.6 46.141 285.499 46.12 285.364 46.078C285.229 46.0313 285.04 46.008 284.797 46.008C284.363 46.008 283.999 46.134 283.705 46.386C283.416 46.638 283.173 47.0043 282.977 47.485V52H281.731ZM290.184 44.797C290.609 44.797 291.001 44.8693 291.36 45.014C291.72 45.154 292.03 45.3593 292.291 45.63C292.553 45.896 292.756 46.2273 292.9 46.624C293.05 47.016 293.124 47.464 293.124 47.968C293.124 48.164 293.103 48.2947 293.061 48.36C293.019 48.4253 292.94 48.458 292.823 48.458H288.105C288.115 48.906 288.175 49.2957 288.287 49.627C288.399 49.9583 288.553 50.236 288.749 50.46C288.945 50.6793 289.179 50.845 289.449 50.957C289.72 51.0643 290.023 51.118 290.359 51.118C290.672 51.118 290.94 51.083 291.164 51.013C291.393 50.9383 291.589 50.859 291.752 50.775C291.916 50.691 292.051 50.614 292.158 50.544C292.27 50.4693 292.366 50.432 292.445 50.432C292.548 50.432 292.627 50.4717 292.683 50.551L293.033 51.006C292.879 51.1927 292.695 51.356 292.48 51.496C292.266 51.6313 292.035 51.7433 291.787 51.832C291.545 51.9207 291.293 51.986 291.031 52.028C290.77 52.0747 290.511 52.098 290.254 52.098C289.764 52.098 289.312 52.0163 288.896 51.853C288.486 51.685 288.129 51.4423 287.825 51.125C287.527 50.803 287.293 50.4063 287.125 49.935C286.957 49.4637 286.873 48.9223 286.873 48.311C286.873 47.8163 286.948 47.3543 287.097 46.925C287.251 46.4957 287.471 46.1247 287.755 45.812C288.04 45.4947 288.388 45.2473 288.798 45.07C289.209 44.888 289.671 44.797 290.184 44.797ZM290.212 45.714C289.61 45.714 289.137 45.889 288.791 46.239C288.446 46.5843 288.231 47.065 288.147 47.681H292.004C292.004 47.3917 291.965 47.128 291.885 46.89C291.806 46.6473 291.689 46.4397 291.535 46.267C291.381 46.0897 291.192 45.9543 290.968 45.861C290.749 45.763 290.497 45.714 290.212 45.714ZM303.159 44.909V54.401H301.913V50.95C301.615 51.2953 301.274 51.573 300.891 51.783C300.513 51.993 300.079 52.098 299.589 52.098C299.183 52.098 298.815 52.021 298.483 51.867C298.152 51.7083 297.87 51.4773 297.636 51.174C297.403 50.8707 297.223 50.4927 297.097 50.04C296.971 49.5873 296.908 49.067 296.908 48.479C296.908 47.9563 296.978 47.471 297.118 47.023C297.258 46.5703 297.459 46.1783 297.72 45.847C297.986 45.5157 298.308 45.2567 298.686 45.07C299.064 44.8787 299.494 44.783 299.974 44.783C300.432 44.783 300.819 44.8647 301.136 45.028C301.458 45.1913 301.745 45.4223 301.997 45.721L302.081 45.168C302.128 44.9953 302.24 44.909 302.417 44.909H303.159ZM300.002 51.09C300.408 51.09 300.763 50.9967 301.066 50.81C301.374 50.6233 301.657 50.3597 301.913 50.019V46.589C301.689 46.2903 301.44 46.078 301.164 45.952C300.889 45.8213 300.586 45.756 300.254 45.756C299.592 45.756 299.083 45.9917 298.728 46.463C298.374 46.9343 298.196 47.6063 298.196 48.479C298.196 48.941 298.236 49.3377 298.315 49.669C298.395 49.9957 298.511 50.2663 298.665 50.481C298.819 50.691 299.008 50.845 299.232 50.943C299.456 51.041 299.713 51.09 300.002 51.09ZM306.325 44.909V49.431C306.325 49.9677 306.448 50.383 306.696 50.677C306.943 50.971 307.316 51.118 307.816 51.118C308.18 51.118 308.523 51.0317 308.845 50.859C309.167 50.6863 309.463 50.446 309.734 50.138V44.909H310.98V52H310.238C310.06 52 309.948 51.9137 309.902 51.741L309.804 50.978C309.496 51.3187 309.15 51.594 308.768 51.804C308.385 52.0093 307.946 52.112 307.452 52.112C307.064 52.112 306.721 52.049 306.423 51.923C306.129 51.7923 305.881 51.6103 305.681 51.377C305.48 51.1437 305.328 50.8613 305.226 50.53C305.128 50.1987 305.079 49.8323 305.079 49.431V44.909H306.325ZM314.412 44.909V52H313.166V44.909H314.412ZM314.692 42.683C314.692 42.8043 314.666 42.9187 314.615 43.026C314.568 43.1287 314.503 43.222 314.419 43.306C314.34 43.3853 314.246 43.4483 314.139 43.495C314.032 43.5417 313.917 43.565 313.796 43.565C313.675 43.565 313.56 43.5417 313.453 43.495C313.35 43.4483 313.257 43.3853 313.173 43.306C313.094 43.222 313.031 43.1287 312.984 43.026C312.937 42.9187 312.914 42.8043 312.914 42.683C312.914 42.5617 312.937 42.4473 312.984 42.34C313.031 42.228 313.094 42.1323 313.173 42.053C313.257 41.969 313.35 41.9037 313.453 41.857C313.56 41.8103 313.675 41.787 313.796 41.787C313.917 41.787 314.032 41.8103 314.139 41.857C314.246 41.9037 314.34 41.969 314.419 42.053C314.503 42.1323 314.568 42.228 314.615 42.34C314.666 42.4473 314.692 42.5617 314.692 42.683ZM318.757 52.112C318.197 52.112 317.765 51.9557 317.462 51.643C317.163 51.3303 317.014 50.88 317.014 50.292V45.952H316.16C316.085 45.952 316.022 45.931 315.971 45.889C315.92 45.8423 315.894 45.7723 315.894 45.679V45.182L317.056 45.035L317.343 42.844C317.352 42.774 317.383 42.718 317.434 42.676C317.485 42.6293 317.551 42.606 317.63 42.606H318.26V45.049H320.29V45.952H318.26V50.208C318.26 50.5067 318.332 50.7283 318.477 50.873C318.622 51.0177 318.808 51.09 319.037 51.09C319.168 51.09 319.28 51.0737 319.373 51.041C319.471 51.0037 319.555 50.964 319.625 50.922C319.695 50.88 319.753 50.8427 319.8 50.81C319.851 50.7727 319.896 50.754 319.933 50.754C319.998 50.754 320.057 50.7937 320.108 50.873L320.472 51.468C320.257 51.6687 319.998 51.8273 319.695 51.944C319.392 52.056 319.079 52.112 318.757 52.112ZM324.638 44.797C325.062 44.797 325.454 44.8693 325.814 45.014C326.173 45.154 326.483 45.3593 326.745 45.63C327.006 45.896 327.209 46.2273 327.354 46.624C327.503 47.016 327.578 47.464 327.578 47.968C327.578 48.164 327.557 48.2947 327.515 48.36C327.473 48.4253 327.393 48.458 327.277 48.458H322.559C322.568 48.906 322.629 49.2957 322.741 49.627C322.853 49.9583 323.007 50.236 323.203 50.46C323.399 50.6793 323.632 50.845 323.903 50.957C324.173 51.0643 324.477 51.118 324.813 51.118C325.125 51.118 325.394 51.083 325.618 51.013C325.846 50.9383 326.042 50.859 326.206 50.775C326.369 50.691 326.504 50.614 326.612 50.544C326.724 50.4693 326.819 50.432 326.899 50.432C327.001 50.432 327.081 50.4717 327.137 50.551L327.487 51.006C327.333 51.1927 327.148 51.356 326.934 51.496C326.719 51.6313 326.488 51.7433 326.241 51.832C325.998 51.9207 325.746 51.986 325.485 52.028C325.223 52.0747 324.964 52.098 324.708 52.098C324.218 52.098 323.765 52.0163 323.35 51.853C322.939 51.685 322.582 51.4423 322.279 51.125C321.98 50.803 321.747 50.4063 321.579 49.935C321.411 49.4637 321.327 48.9223 321.327 48.311C321.327 47.8163 321.401 47.3543 321.551 46.925C321.705 46.4957 321.924 46.1247 322.209 45.812C322.493 45.4947 322.841 45.2473 323.252 45.07C323.662 44.888 324.124 44.797 324.638 44.797ZM324.666 45.714C324.064 45.714 323.59 45.889 323.245 46.239C322.899 46.5843 322.685 47.065 322.601 47.681H326.458C326.458 47.3917 326.418 47.128 326.339 46.89C326.259 46.6473 326.143 46.4397 325.989 46.267C325.835 46.0897 325.646 45.9543 325.422 45.861C325.202 45.763 324.95 45.714 324.666 45.714ZM328.766 51.23C328.766 51.1087 328.787 50.9943 328.829 50.887C328.876 50.7797 328.937 50.6863 329.011 50.607C329.091 50.5277 329.184 50.4647 329.291 50.418C329.399 50.3713 329.513 50.348 329.634 50.348C329.756 50.348 329.87 50.3713 329.977 50.418C330.085 50.4647 330.178 50.5277 330.257 50.607C330.337 50.6863 330.397 50.7797 330.439 50.887C330.486 50.9943 330.509 51.1087 330.509 51.23C330.509 51.356 330.486 51.4727 330.439 51.58C330.397 51.6827 330.337 51.7737 330.257 51.853C330.178 51.9323 330.085 51.993 329.977 52.035C329.87 52.0817 329.756 52.105 329.634 52.105C329.513 52.105 329.399 52.0817 329.291 52.035C329.184 51.993 329.091 51.9323 329.011 51.853C328.937 51.7737 328.876 51.6827 328.829 51.58C328.787 51.4727 328.766 51.356 328.766 51.23ZM331.733 51.23C331.733 51.1087 331.754 50.9943 331.796 50.887C331.843 50.7797 331.904 50.6863 331.978 50.607C332.058 50.5277 332.151 50.4647 332.258 50.418C332.366 50.3713 332.48 50.348 332.601 50.348C332.723 50.348 332.837 50.3713 332.944 50.418C333.052 50.4647 333.145 50.5277 333.224 50.607C333.304 50.6863 333.364 50.7797 333.406 50.887C333.453 50.9943 333.476 51.1087 333.476 51.23C333.476 51.356 333.453 51.4727 333.406 51.58C333.364 51.6827 333.304 51.7737 333.224 51.853C333.145 51.9323 333.052 51.993 332.944 52.035C332.837 52.0817 332.723 52.105 332.601 52.105C332.48 52.105 332.366 52.0817 332.258 52.035C332.151 51.993 332.058 51.9323 331.978 51.853C331.904 51.7737 331.843 51.6827 331.796 51.58C331.754 51.4727 331.733 51.356 331.733 51.23ZM334.7 51.23C334.7 51.1087 334.721 50.9943 334.763 50.887C334.81 50.7797 334.87 50.6863 334.945 50.607C335.024 50.5277 335.118 50.4647 335.225 50.418C335.332 50.3713 335.447 50.348 335.568 50.348C335.689 50.348 335.804 50.3713 335.911 50.418C336.018 50.4647 336.112 50.5277 336.191 50.607C336.27 50.6863 336.331 50.7797 336.373 50.887C336.42 50.9943 336.443 51.1087 336.443 51.23C336.443 51.356 336.42 51.4727 336.373 51.58C336.331 51.6827 336.27 51.7737 336.191 51.853C336.112 51.9323 336.018 51.993 335.911 52.035C335.804 52.0817 335.689 52.105 335.568 52.105C335.447 52.105 335.332 52.0817 335.225 52.035C335.118 51.993 335.024 51.9323 334.945 51.853C334.87 51.7737 334.81 51.6827 334.763 51.58C334.721 51.4727 334.7 51.356 334.7 51.23Z" fill="#828282"/>
<path d="M71.968 25.12H72.409C72.5863 25.12 72.7333 25.0967 72.85 25.05C72.9667 24.9987 73.067 24.9193 73.151 24.812L75.944 21.277C76.0607 21.1277 76.182 21.025 76.308 20.969C76.4387 20.9083 76.602 20.878 76.798 20.878H78.422L75.013 25.085C74.9057 25.2157 74.803 25.3253 74.705 25.414C74.607 25.5027 74.502 25.575 74.39 25.631C74.544 25.687 74.6817 25.7663 74.803 25.869C74.929 25.9717 75.0503 26.1023 75.167 26.261L78.681 31H77.015C76.791 31 76.623 30.9697 76.511 30.909C76.4037 30.8437 76.3127 30.7503 76.238 30.629L73.375 26.891C73.2817 26.7697 73.1767 26.6833 73.06 26.632C72.9433 26.576 72.7777 26.548 72.563 26.548H71.968V31H70.085V20.871H71.968V25.12ZM85.3274 31H84.5504C84.3871 31 84.2587 30.9767 84.1654 30.93C84.0721 30.8787 84.0021 30.7783 83.9554 30.629L83.8014 30.118C83.6194 30.2813 83.4397 30.426 83.2624 30.552C83.0897 30.6733 82.9101 30.776 82.7234 30.86C82.5367 30.944 82.3384 31.007 82.1284 31.049C81.9184 31.091 81.6851 31.112 81.4284 31.112C81.1251 31.112 80.8451 31.0723 80.5884 30.993C80.3317 30.909 80.1101 30.7853 79.9234 30.622C79.7414 30.4587 79.5991 30.2557 79.4964 30.013C79.3937 29.7703 79.3424 29.488 79.3424 29.166C79.3424 28.8953 79.4124 28.6293 79.5524 28.368C79.6971 28.102 79.9351 27.864 80.2664 27.654C80.5977 27.4393 81.0387 27.262 81.5894 27.122C82.1401 26.982 82.8237 26.9027 83.6404 26.884V26.464C83.6404 25.9833 83.5377 25.6287 83.3324 25.4C83.1317 25.1667 82.8377 25.05 82.4504 25.05C82.1704 25.05 81.9371 25.0827 81.7504 25.148C81.5637 25.2133 81.4004 25.288 81.2604 25.372C81.1251 25.4513 80.9991 25.5237 80.8824 25.589C80.7657 25.6543 80.6374 25.687 80.4974 25.687C80.3807 25.687 80.2804 25.6567 80.1964 25.596C80.1124 25.5353 80.0447 25.4607 79.9934 25.372L79.6784 24.819C80.5044 24.063 81.5007 23.685 82.6674 23.685C83.0874 23.685 83.4607 23.755 83.7874 23.895C84.1187 24.0303 84.3987 24.2217 84.6274 24.469C84.8561 24.7117 85.0287 25.0033 85.1454 25.344C85.2667 25.6847 85.3274 26.058 85.3274 26.464V31ZM81.9674 29.922C82.1447 29.922 82.3081 29.9057 82.4574 29.873C82.6067 29.8403 82.7467 29.7913 82.8774 29.726C83.0127 29.6607 83.1411 29.5813 83.2624 29.488C83.3884 29.39 83.5144 29.2757 83.6404 29.145V27.934C83.1364 27.9573 82.7141 28.0017 82.3734 28.067C82.0374 28.1277 81.7667 28.207 81.5614 28.305C81.3561 28.403 81.2091 28.5173 81.1204 28.648C81.0364 28.7787 80.9944 28.921 80.9944 29.075C80.9944 29.3783 81.0831 29.5953 81.2604 29.726C81.4424 29.8567 81.6781 29.922 81.9674 29.922ZM89.3294 32.974C89.2781 33.0953 89.2104 33.1863 89.1264 33.247C89.0471 33.3123 88.9234 33.345 88.7554 33.345H87.4674L88.8114 30.468L85.9064 23.818H87.4184C87.5584 23.818 87.6658 23.8507 87.7404 23.916C87.8151 23.9813 87.8711 24.056 87.9084 24.14L89.4414 27.864C89.4928 27.9853 89.5371 28.1113 89.5744 28.242C89.6118 28.3727 89.6444 28.5033 89.6724 28.634C89.7098 28.4987 89.7494 28.368 89.7914 28.242C89.8381 28.116 89.8871 27.9877 89.9384 27.857L91.3804 24.14C91.4178 24.0467 91.4784 23.9697 91.5624 23.909C91.6511 23.8483 91.7491 23.818 91.8564 23.818H93.2424L89.3294 32.974ZM96.0873 20.598V31H94.3583V20.598H96.0873ZM100.595 32.974C100.544 33.0953 100.476 33.1863 100.392 33.247C100.313 33.3123 100.189 33.345 100.021 33.345H98.733L100.077 30.468L97.172 23.818H98.684C98.824 23.818 98.9314 23.8507 99.006 23.916C99.0807 23.9813 99.1367 24.056 99.174 24.14L100.707 27.864C100.758 27.9853 100.803 28.1113 100.84 28.242C100.877 28.3727 100.91 28.5033 100.938 28.634C100.975 28.4987 101.015 28.368 101.057 28.242C101.104 28.116 101.153 27.9877 101.204 27.857L102.646 24.14C102.683 24.0467 102.744 23.9697 102.828 23.909C102.917 23.8483 103.015 23.818 103.122 23.818H104.508L100.595 32.974ZM105.512 31V23.818H106.569C106.793 23.818 106.94 23.923 107.01 24.133L107.129 24.7C107.274 24.5507 107.425 24.4153 107.584 24.294C107.747 24.1727 107.918 24.0677 108.095 23.979C108.277 23.8903 108.471 23.8227 108.676 23.776C108.881 23.7293 109.105 23.706 109.348 23.706C109.74 23.706 110.088 23.7737 110.391 23.909C110.694 24.0397 110.946 24.2263 111.147 24.469C111.352 24.707 111.506 24.994 111.609 25.33C111.716 25.6613 111.77 26.0277 111.77 26.429V31H110.041V26.429C110.041 25.9903 109.938 25.652 109.733 25.414C109.532 25.1713 109.229 25.05 108.823 25.05C108.524 25.05 108.244 25.1177 107.983 25.253C107.722 25.3883 107.474 25.5727 107.241 25.806V31H105.512ZM113.469 31V23.818H114.526C114.75 23.818 114.897 23.923 114.967 24.133L115.086 24.7C115.231 24.5507 115.382 24.4153 115.541 24.294C115.704 24.1727 115.875 24.0677 116.052 23.979C116.234 23.8903 116.428 23.8227 116.633 23.776C116.838 23.7293 117.062 23.706 117.305 23.706C117.697 23.706 118.045 23.7737 118.348 23.909C118.651 24.0397 118.903 24.2263 119.104 24.469C119.309 24.707 119.463 24.994 119.566 25.33C119.673 25.6613 119.727 26.0277 119.727 26.429V31H117.998V26.429C117.998 25.9903 117.895 25.652 117.69 25.414C117.489 25.1713 117.186 25.05 116.78 25.05C116.481 25.05 116.201 25.1177 115.94 25.253C115.679 25.3883 115.431 25.5727 115.198 25.806V31H113.469ZM128.879 29.614C129.304 29.614 129.672 29.5767 129.985 29.502C130.302 29.4227 130.603 29.3153 130.888 29.18V27.339H129.621C129.5 27.339 129.404 27.3063 129.334 27.241C129.264 27.171 129.229 27.087 129.229 26.989V25.925H132.596V30.02C132.339 30.2067 132.071 30.37 131.791 30.51C131.516 30.6453 131.219 30.7573 130.902 30.846C130.589 30.9347 130.253 31 129.894 31.042C129.535 31.0887 129.147 31.112 128.732 31.112C127.995 31.112 127.316 30.9837 126.695 30.727C126.074 30.4703 125.538 30.1133 125.085 29.656C124.632 29.1987 124.278 28.6527 124.021 28.018C123.769 27.3833 123.643 26.6903 123.643 25.939C123.643 25.1783 123.767 24.4807 124.014 23.846C124.261 23.2113 124.611 22.6653 125.064 22.208C125.521 21.7507 126.074 21.396 126.723 21.144C127.372 20.892 128.1 20.766 128.907 20.766C129.733 20.766 130.447 20.8897 131.049 21.137C131.656 21.3797 132.169 21.697 132.589 22.089L132.043 22.943C131.936 23.1157 131.793 23.202 131.616 23.202C131.504 23.202 131.39 23.1647 131.273 23.09C131.124 23.0013 130.97 22.9127 130.811 22.824C130.657 22.7353 130.484 22.6583 130.293 22.593C130.106 22.5277 129.894 22.474 129.656 22.432C129.423 22.39 129.152 22.369 128.844 22.369C128.345 22.369 127.892 22.453 127.486 22.621C127.085 22.789 126.742 23.0293 126.457 23.342C126.172 23.6547 125.953 24.0303 125.799 24.469C125.645 24.9077 125.568 25.3977 125.568 25.939C125.568 26.5223 125.65 27.0427 125.813 27.5C125.976 27.9527 126.205 28.3353 126.499 28.648C126.793 28.9607 127.143 29.201 127.549 29.369C127.955 29.5323 128.398 29.614 128.879 29.614ZM137.316 23.706C137.853 23.706 138.338 23.7923 138.772 23.965C139.211 24.1377 139.584 24.3827 139.892 24.7C140.2 25.0173 140.438 25.4047 140.606 25.862C140.774 26.3193 140.858 26.8303 140.858 27.395C140.858 27.9643 140.774 28.4777 140.606 28.935C140.438 29.3923 140.2 29.782 139.892 30.104C139.584 30.426 139.211 30.6733 138.772 30.846C138.338 31.0187 137.853 31.105 137.316 31.105C136.78 31.105 136.292 31.0187 135.853 30.846C135.415 30.6733 135.039 30.426 134.726 30.104C134.418 29.782 134.178 29.3923 134.005 28.935C133.837 28.4777 133.753 27.9643 133.753 27.395C133.753 26.8303 133.837 26.3193 134.005 25.862C134.178 25.4047 134.418 25.0173 134.726 24.7C135.039 24.3827 135.415 24.1377 135.853 23.965C136.292 23.7923 136.78 23.706 137.316 23.706ZM137.316 29.775C137.914 29.775 138.355 29.5743 138.639 29.173C138.929 28.7717 139.073 28.1837 139.073 27.409C139.073 26.6343 138.929 26.044 138.639 25.638C138.355 25.232 137.914 25.029 137.316 25.029C136.71 25.029 136.262 25.2343 135.972 25.645C135.683 26.051 135.538 26.639 135.538 27.409C135.538 28.179 135.683 28.767 135.972 29.173C136.262 29.5743 136.71 29.775 137.316 29.775ZM143.789 23.818V28.382C143.789 28.8207 143.89 29.1613 144.09 29.404C144.296 29.642 144.601 29.761 145.007 29.761C145.306 29.761 145.586 29.6957 145.847 29.565C146.109 29.4297 146.356 29.2453 146.589 29.012V23.818H148.318V31H147.261C147.037 31 146.89 30.895 146.82 30.685L146.701 30.111C146.552 30.2603 146.398 30.398 146.239 30.524C146.081 30.6453 145.91 30.7503 145.728 30.839C145.551 30.923 145.357 30.9883 145.147 31.035C144.942 31.0863 144.72 31.112 144.482 31.112C144.09 31.112 143.743 31.0467 143.439 30.916C143.141 30.7807 142.889 30.5917 142.683 30.349C142.478 30.1063 142.322 29.8193 142.214 29.488C142.112 29.152 142.06 28.7833 142.06 28.382V23.818H143.789ZM154.427 25.218C154.381 25.2927 154.332 25.3463 154.28 25.379C154.229 25.407 154.164 25.421 154.084 25.421C154 25.421 153.909 25.3977 153.811 25.351C153.718 25.3043 153.608 25.253 153.482 25.197C153.356 25.1363 153.212 25.0827 153.048 25.036C152.89 24.9893 152.701 24.966 152.481 24.966C152.141 24.966 151.872 25.0383 151.676 25.183C151.48 25.3277 151.382 25.5167 151.382 25.75C151.382 25.904 151.431 26.0347 151.529 26.142C151.632 26.2447 151.765 26.3357 151.928 26.415C152.096 26.4943 152.285 26.5667 152.495 26.632C152.705 26.6927 152.92 26.7603 153.139 26.835C153.359 26.9097 153.573 26.996 153.783 27.094C153.993 27.1873 154.18 27.3087 154.343 27.458C154.511 27.6027 154.644 27.7777 154.742 27.983C154.845 28.1883 154.896 28.4357 154.896 28.725C154.896 29.0703 154.833 29.39 154.707 29.684C154.581 29.9733 154.397 30.2253 154.154 30.44C153.912 30.65 153.611 30.8157 153.251 30.937C152.897 31.0537 152.488 31.112 152.026 31.112C151.779 31.112 151.536 31.0887 151.298 31.042C151.065 31 150.839 30.9393 150.619 30.86C150.405 30.7807 150.204 30.6873 150.017 30.58C149.835 30.4727 149.674 30.356 149.534 30.23L149.933 29.572C149.985 29.4927 150.045 29.432 150.115 29.39C150.185 29.348 150.274 29.327 150.381 29.327C150.489 29.327 150.589 29.3573 150.682 29.418C150.78 29.4787 150.892 29.544 151.018 29.614C151.144 29.684 151.291 29.7493 151.459 29.81C151.632 29.8707 151.849 29.901 152.11 29.901C152.316 29.901 152.491 29.8777 152.635 29.831C152.785 29.7797 152.906 29.7143 152.999 29.635C153.097 29.5557 153.167 29.4647 153.209 29.362C153.256 29.2547 153.279 29.145 153.279 29.033C153.279 28.865 153.228 28.7273 153.125 28.62C153.027 28.5127 152.894 28.4193 152.726 28.34C152.563 28.2607 152.374 28.1907 152.159 28.13C151.949 28.0647 151.732 27.9947 151.508 27.92C151.289 27.8453 151.072 27.759 150.857 27.661C150.647 27.5583 150.458 27.43 150.29 27.276C150.127 27.122 149.994 26.933 149.891 26.709C149.793 26.485 149.744 26.2143 149.744 25.897C149.744 25.603 149.803 25.323 149.919 25.057C150.036 24.791 150.206 24.56 150.43 24.364C150.659 24.1633 150.941 24.0047 151.277 23.888C151.618 23.7667 152.01 23.706 152.453 23.706C152.948 23.706 153.398 23.7877 153.804 23.951C154.21 24.1143 154.549 24.329 154.819 24.595L154.427 25.218ZM159.244 23.706C159.696 23.706 160.112 23.7783 160.49 23.923C160.872 24.0677 161.201 24.28 161.477 24.56C161.752 24.8353 161.967 25.176 162.121 25.582C162.275 25.9833 162.352 26.443 162.352 26.961C162.352 27.0917 162.345 27.2013 162.331 27.29C162.321 27.374 162.3 27.4417 162.268 27.493C162.24 27.5397 162.2 27.5747 162.149 27.598C162.097 27.6167 162.032 27.626 161.953 27.626H157.515C157.566 28.3633 157.764 28.9047 158.11 29.25C158.455 29.5953 158.912 29.768 159.482 29.768C159.762 29.768 160.002 29.7353 160.203 29.67C160.408 29.6047 160.585 29.5323 160.735 29.453C160.889 29.3737 161.022 29.3013 161.134 29.236C161.25 29.1707 161.362 29.138 161.47 29.138C161.54 29.138 161.6 29.152 161.652 29.18C161.703 29.208 161.747 29.2477 161.785 29.299L162.289 29.929C162.097 30.153 161.883 30.342 161.645 30.496C161.407 30.6453 161.157 30.7667 160.896 30.86C160.639 30.9487 160.375 31.0117 160.105 31.049C159.839 31.0863 159.58 31.105 159.328 31.105C158.828 31.105 158.364 31.0233 157.935 30.86C157.505 30.692 157.132 30.447 156.815 30.125C156.497 29.7983 156.248 29.397 156.066 28.921C155.884 28.4403 155.793 27.885 155.793 27.255C155.793 26.765 155.872 26.3053 156.031 25.876C156.189 25.442 156.416 25.0663 156.71 24.749C157.008 24.427 157.37 24.1727 157.795 23.986C158.224 23.7993 158.707 23.706 159.244 23.706ZM159.279 24.945C158.775 24.945 158.38 25.0873 158.096 25.372C157.811 25.6567 157.629 26.0603 157.55 26.583H160.798C160.798 26.359 160.767 26.149 160.707 25.953C160.646 25.7523 160.553 25.5773 160.427 25.428C160.301 25.2787 160.142 25.162 159.951 25.078C159.759 24.9893 159.535 24.945 159.279 24.945Z" fill="#1A1C1D"/>
<path d="M174.474 30.596C174.046 30.596 173.654 30.54 173.298 30.428C172.942 30.312 172.636 30.148 172.38 29.936C172.124 29.724 171.926 29.468 171.786 29.168C171.646 28.864 171.576 28.524 171.576 28.148C171.576 27.596 171.72 27.142 172.008 26.786C172.296 26.426 172.708 26.17 173.244 26.018C172.792 25.85 172.45 25.6 172.218 25.268C171.99 24.932 171.876 24.532 171.876 24.068C171.876 23.752 171.938 23.456 172.062 23.18C172.186 22.904 172.362 22.664 172.59 22.46C172.818 22.256 173.09 22.096 173.406 21.98C173.726 21.864 174.082 21.806 174.474 21.806C174.862 21.806 175.216 21.864 175.536 21.98C175.856 22.096 176.13 22.256 176.358 22.46C176.586 22.664 176.762 22.904 176.886 23.18C177.01 23.456 177.072 23.752 177.072 24.068C177.072 24.532 176.956 24.932 176.724 25.268C176.492 25.6 176.152 25.85 175.704 26.018C176.24 26.17 176.652 26.426 176.94 26.786C177.228 27.142 177.372 27.596 177.372 28.148C177.372 28.524 177.3 28.864 177.156 29.168C177.016 29.468 176.818 29.724 176.562 29.936C176.31 30.148 176.006 30.312 175.65 30.428C175.294 30.54 174.902 30.596 174.474 30.596ZM174.474 29.744C174.754 29.744 175.004 29.706 175.224 29.63C175.448 29.55 175.636 29.44 175.788 29.3C175.944 29.156 176.062 28.986 176.142 28.79C176.226 28.59 176.268 28.37 176.268 28.13C176.268 27.834 176.218 27.582 176.118 27.374C176.022 27.162 175.89 26.99 175.722 26.858C175.558 26.726 175.368 26.63 175.152 26.57C174.936 26.506 174.71 26.474 174.474 26.474C174.238 26.474 174.012 26.506 173.796 26.57C173.58 26.63 173.388 26.726 173.22 26.858C173.056 26.99 172.924 27.162 172.824 27.374C172.728 27.582 172.68 27.834 172.68 28.13C172.68 28.37 172.72 28.59 172.8 28.79C172.884 28.986 173.002 29.156 173.154 29.3C173.31 29.44 173.498 29.55 173.718 29.63C173.942 29.706 174.194 29.744 174.474 29.744ZM174.474 25.616C174.754 25.616 174.992 25.574 175.188 25.49C175.388 25.402 175.55 25.288 175.674 25.148C175.798 25.004 175.888 24.84 175.944 24.656C176 24.472 176.028 24.282 176.028 24.086C176.028 23.886 175.994 23.698 175.926 23.522C175.862 23.346 175.764 23.192 175.632 23.06C175.504 22.928 175.342 22.824 175.146 22.748C174.954 22.672 174.73 22.634 174.474 22.634C174.218 22.634 173.992 22.672 173.796 22.748C173.604 22.824 173.442 22.928 173.31 23.06C173.182 23.192 173.084 23.346 173.016 23.522C172.952 23.698 172.92 23.886 172.92 24.086C172.92 24.282 172.948 24.472 173.004 24.656C173.06 24.84 173.15 25.004 173.274 25.148C173.398 25.288 173.558 25.402 173.754 25.49C173.954 25.574 174.194 25.616 174.474 25.616ZM178.489 29.84C178.489 29.736 178.507 29.638 178.543 29.546C178.583 29.454 178.635 29.374 178.699 29.306C178.767 29.238 178.847 29.184 178.939 29.144C179.031 29.104 179.129 29.084 179.233 29.084C179.337 29.084 179.435 29.104 179.527 29.144C179.619 29.184 179.699 29.238 179.767 29.306C179.835 29.374 179.887 29.454 179.923 29.546C179.963 29.638 179.983 29.736 179.983 29.84C179.983 29.948 179.963 30.048 179.923 30.14C179.887 30.228 179.835 30.306 179.767 30.374C179.699 30.442 179.619 30.494 179.527 30.53C179.435 30.57 179.337 30.59 179.233 30.59C179.129 30.59 179.031 30.57 178.939 30.53C178.847 30.494 178.767 30.442 178.699 30.374C178.635 30.306 178.583 30.228 178.543 30.14C178.507 30.048 178.489 29.948 178.489 29.84ZM187.104 26.204C187.104 26.956 187.022 27.608 186.858 28.16C186.698 28.708 186.478 29.162 186.198 29.522C185.918 29.882 185.586 30.15 185.202 30.326C184.822 30.502 184.414 30.59 183.978 30.59C183.538 30.59 183.128 30.502 182.748 30.326C182.372 30.15 182.044 29.882 181.764 29.522C181.484 29.162 181.264 28.708 181.104 28.16C180.944 27.608 180.864 26.956 180.864 26.204C180.864 25.452 180.944 24.8 181.104 24.248C181.264 23.696 181.484 23.24 181.764 22.88C182.044 22.516 182.372 22.246 182.748 22.07C183.128 21.894 183.538 21.806 183.978 21.806C184.414 21.806 184.822 21.894 185.202 22.07C185.586 22.246 185.918 22.516 186.198 22.88C186.478 23.24 186.698 23.696 186.858 24.248C187.022 24.8 187.104 25.452 187.104 26.204ZM185.994 26.204C185.994 25.548 185.938 24.998 185.826 24.554C185.718 24.106 185.57 23.746 185.382 23.474C185.198 23.202 184.984 23.008 184.74 22.892C184.496 22.772 184.242 22.712 183.978 22.712C183.714 22.712 183.46 22.772 183.216 22.892C182.972 23.008 182.758 23.202 182.574 23.474C182.39 23.746 182.242 24.106 182.13 24.554C182.022 24.998 181.968 25.548 181.968 26.204C181.968 26.86 182.022 27.41 182.13 27.854C182.242 28.298 182.39 28.656 182.574 28.928C182.758 29.2 182.972 29.396 183.216 29.516C183.46 29.632 183.714 29.69 183.978 29.69C184.242 29.69 184.496 29.632 184.74 29.516C184.984 29.396 185.198 29.2 185.382 28.928C185.57 28.656 185.718 28.298 185.826 27.854C185.938 27.41 185.994 26.86 185.994 26.204ZM190.939 30.596C190.511 30.596 190.119 30.54 189.763 30.428C189.407 30.312 189.101 30.148 188.845 29.936C188.589 29.724 188.391 29.468 188.251 29.168C188.111 28.864 188.041 28.524 188.041 28.148C188.041 27.596 188.185 27.142 188.473 26.786C188.761 26.426 189.173 26.17 189.709 26.018C189.257 25.85 188.915 25.6 188.683 25.268C188.455 24.932 188.341 24.532 188.341 24.068C188.341 23.752 188.403 23.456 188.527 23.18C188.651 22.904 188.827 22.664 189.055 22.46C189.283 22.256 189.555 22.096 189.871 21.98C190.191 21.864 190.547 21.806 190.939 21.806C191.327 21.806 191.681 21.864 192.001 21.98C192.321 22.096 192.595 22.256 192.823 22.46C193.051 22.664 193.227 22.904 193.351 23.18C193.475 23.456 193.537 23.752 193.537 24.068C193.537 24.532 193.421 24.932 193.189 25.268C192.957 25.6 192.617 25.85 192.169 26.018C192.705 26.17 193.117 26.426 193.405 26.786C193.693 27.142 193.837 27.596 193.837 28.148C193.837 28.524 193.765 28.864 193.621 29.168C193.481 29.468 193.283 29.724 193.027 29.936C192.775 30.148 192.471 30.312 192.115 30.428C191.759 30.54 191.367 30.596 190.939 30.596ZM190.939 29.744C191.219 29.744 191.469 29.706 191.689 29.63C191.913 29.55 192.101 29.44 192.253 29.3C192.409 29.156 192.527 28.986 192.607 28.79C192.691 28.59 192.733 28.37 192.733 28.13C192.733 27.834 192.683 27.582 192.583 27.374C192.487 27.162 192.355 26.99 192.187 26.858C192.023 26.726 191.833 26.63 191.617 26.57C191.401 26.506 191.175 26.474 190.939 26.474C190.703 26.474 190.477 26.506 190.261 26.57C190.045 26.63 189.853 26.726 189.685 26.858C189.521 26.99 189.389 27.162 189.289 27.374C189.193 27.582 189.145 27.834 189.145 28.13C189.145 28.37 189.185 28.59 189.265 28.79C189.349 28.986 189.467 29.156 189.619 29.3C189.775 29.44 189.963 29.55 190.183 29.63C190.407 29.706 190.659 29.744 190.939 29.744ZM190.939 25.616C191.219 25.616 191.457 25.574 191.653 25.49C191.853 25.402 192.015 25.288 192.139 25.148C192.263 25.004 192.353 24.84 192.409 24.656C192.465 24.472 192.493 24.282 192.493 24.086C192.493 23.886 192.459 23.698 192.391 23.522C192.327 23.346 192.229 23.192 192.097 23.06C191.969 22.928 191.807 22.824 191.611 22.748C191.419 22.672 191.195 22.634 190.939 22.634C190.683 22.634 190.457 22.672 190.261 22.748C190.069 22.824 189.907 22.928 189.775 23.06C189.647 23.192 189.549 23.346 189.481 23.522C189.417 23.698 189.385 23.886 189.385 24.086C189.385 24.282 189.413 24.472 189.469 24.656C189.525 24.84 189.615 25.004 189.739 25.148C189.863 25.288 190.023 25.402 190.219 25.49C190.419 25.574 190.659 25.616 190.939 25.616ZM198.126 21.302H198.954V32.558H198.126V21.302ZM205.958 26.972C205.634 26.972 205.326 26.918 205.034 26.81C204.746 26.702 204.492 26.544 204.272 26.336C204.052 26.124 203.876 25.866 203.744 25.562C203.616 25.254 203.552 24.902 203.552 24.506C203.552 24.13 203.622 23.778 203.762 23.45C203.902 23.122 204.098 22.836 204.35 22.592C204.602 22.348 204.902 22.156 205.25 22.016C205.598 21.876 205.98 21.806 206.396 21.806C206.808 21.806 207.182 21.874 207.518 22.01C207.854 22.146 208.142 22.336 208.382 22.58C208.622 22.824 208.806 23.116 208.934 23.456C209.066 23.796 209.132 24.172 209.132 24.584C209.132 24.832 209.108 25.068 209.06 25.292C209.016 25.512 208.95 25.728 208.862 25.94C208.774 26.152 208.668 26.364 208.544 26.576C208.424 26.784 208.286 27 208.13 27.224L206.036 30.248C205.984 30.324 205.91 30.386 205.814 30.434C205.718 30.478 205.608 30.5 205.484 30.5H204.5L207.116 27.074C207.204 26.958 207.286 26.848 207.362 26.744C207.438 26.64 207.51 26.536 207.578 26.432C207.358 26.608 207.11 26.742 206.834 26.834C206.558 26.926 206.266 26.972 205.958 26.972ZM208.106 24.458C208.106 24.19 208.062 23.948 207.974 23.732C207.89 23.512 207.772 23.326 207.62 23.174C207.468 23.022 207.286 22.906 207.074 22.826C206.866 22.742 206.636 22.7 206.384 22.7C206.12 22.7 205.878 22.744 205.658 22.832C205.442 22.916 205.256 23.034 205.1 23.186C204.948 23.338 204.83 23.52 204.746 23.732C204.662 23.944 204.62 24.176 204.62 24.428C204.62 24.7 204.658 24.944 204.734 25.16C204.814 25.372 204.926 25.552 205.07 25.7C205.218 25.848 205.396 25.96 205.604 26.036C205.816 26.112 206.052 26.15 206.312 26.15C206.6 26.15 206.854 26.104 207.074 26.012C207.298 25.916 207.486 25.79 207.638 25.634C207.79 25.478 207.906 25.298 207.986 25.094C208.066 24.89 208.106 24.678 208.106 24.458ZM210.393 29.84C210.393 29.736 210.411 29.638 210.447 29.546C210.487 29.454 210.539 29.374 210.603 29.306C210.671 29.238 210.751 29.184 210.843 29.144C210.935 29.104 211.033 29.084 211.137 29.084C211.241 29.084 211.339 29.104 211.431 29.144C211.523 29.184 211.603 29.238 211.671 29.306C211.739 29.374 211.791 29.454 211.827 29.546C211.867 29.638 211.887 29.736 211.887 29.84C211.887 29.948 211.867 30.048 211.827 30.14C211.791 30.228 211.739 30.306 211.671 30.374C211.603 30.442 211.523 30.494 211.431 30.53C211.339 30.57 211.241 30.59 211.137 30.59C211.033 30.59 210.935 30.57 210.843 30.53C210.751 30.494 210.671 30.442 210.603 30.374C210.539 30.306 210.487 30.228 210.447 30.14C210.411 30.048 210.393 29.948 210.393 29.84ZM210.393 25.34C210.393 25.236 210.411 25.138 210.447 25.046C210.487 24.954 210.539 24.874 210.603 24.806C210.671 24.738 210.751 24.684 210.843 24.644C210.935 24.604 211.033 24.584 211.137 24.584C211.241 24.584 211.339 24.604 211.431 24.644C211.523 24.684 211.603 24.738 211.671 24.806C211.739 24.874 211.791 24.954 211.827 25.046C211.867 25.138 211.887 25.236 211.887 25.34C211.887 25.448 211.867 25.548 211.827 25.64C211.791 25.728 211.739 25.806 211.671 25.874C211.603 25.942 211.523 25.996 211.431 26.036C211.339 26.072 211.241 26.09 211.137 26.09C211.033 26.09 210.935 26.072 210.843 26.036C210.751 25.996 210.671 25.942 210.603 25.874C210.539 25.806 210.487 25.728 210.447 25.64C210.411 25.548 210.393 25.448 210.393 25.34ZM214.37 29.684H216.218V23.822C216.218 23.646 216.224 23.468 216.236 23.288L214.7 24.602C214.66 24.634 214.62 24.658 214.58 24.674C214.54 24.686 214.502 24.692 214.466 24.692C214.406 24.692 214.352 24.68 214.304 24.656C214.256 24.628 214.22 24.596 214.196 24.56L213.86 24.098L216.416 21.884H217.286V29.684H218.978V30.5H214.37V29.684ZM223.215 21.806C223.579 21.806 223.919 21.86 224.235 21.968C224.551 22.076 224.823 22.234 225.051 22.442C225.283 22.646 225.465 22.896 225.597 23.192C225.729 23.488 225.795 23.824 225.795 24.2C225.795 24.52 225.747 24.816 225.651 25.088C225.555 25.36 225.425 25.622 225.261 25.874C225.097 26.122 224.907 26.364 224.691 26.6C224.479 26.832 224.253 27.07 224.013 27.314L221.751 29.63C221.911 29.586 222.073 29.552 222.237 29.528C222.401 29.5 222.559 29.486 222.711 29.486H225.591C225.707 29.486 225.799 29.52 225.867 29.588C225.935 29.656 225.969 29.744 225.969 29.852V30.5H220.233V30.134C220.233 30.058 220.247 29.98 220.275 29.9C220.307 29.82 220.357 29.746 220.425 29.678L223.179 26.912C223.407 26.68 223.615 26.458 223.803 26.246C223.991 26.03 224.151 25.814 224.283 25.598C224.419 25.382 224.523 25.164 224.595 24.944C224.667 24.72 224.703 24.482 224.703 24.23C224.703 23.978 224.663 23.758 224.583 23.57C224.503 23.378 224.393 23.22 224.253 23.096C224.113 22.972 223.949 22.88 223.761 22.82C223.573 22.756 223.371 22.724 223.155 22.724C222.939 22.724 222.739 22.756 222.555 22.82C222.371 22.884 222.207 22.974 222.063 23.09C221.923 23.202 221.803 23.336 221.703 23.492C221.607 23.648 221.539 23.82 221.499 24.008C221.467 24.124 221.419 24.208 221.355 24.26C221.291 24.312 221.207 24.338 221.103 24.338C221.083 24.338 221.061 24.338 221.037 24.338C221.017 24.334 220.993 24.33 220.965 24.326L220.407 24.23C220.463 23.838 220.571 23.492 220.731 23.192C220.891 22.888 221.093 22.634 221.337 22.43C221.585 22.226 221.867 22.072 222.183 21.968C222.503 21.86 222.847 21.806 223.215 21.806Z" fill="#828282"/>
<rect x="17" y="18" width="36" height="36" rx="8" fill="#613245" fill-opacity="0.5"/>
<path d="M27.3749 35.064H27.8069C28.2069 35.064 28.4949 34.9387 28.6709 34.688L31.2949 30.88C31.4389 30.672 31.6016 30.5307 31.7829 30.456C31.9696 30.3813 32.1963 30.344 32.4629 30.344H34.8149L31.3589 35.056C31.2363 35.2267 31.1083 35.368 30.9749 35.48C30.8416 35.592 30.7056 35.6853 30.5669 35.76C30.7696 35.8347 30.9536 35.9387 31.1189 36.072C31.2896 36.2 31.4443 36.3733 31.5829 36.592L35.1029 42H32.6869C32.5323 42 32.3989 41.9893 32.2869 41.968C32.1803 41.9467 32.0869 41.9147 32.0069 41.872C31.9269 41.8293 31.8576 41.7787 31.7989 41.72C31.7403 41.656 31.6843 41.584 31.6309 41.504L28.9909 37.448C28.8949 37.2987 28.7723 37.1947 28.6229 37.136C28.4789 37.072 28.2816 37.04 28.0309 37.04H27.3749V42H24.6709V30.344H27.3749V35.064ZM41.3464 40.048C41.7198 40.048 42.0504 40.016 42.3384 39.952C42.6264 39.888 42.8984 39.8027 43.1544 39.696V37.928H42.0024C41.8318 37.928 41.6984 37.8827 41.6024 37.792C41.5064 37.7013 41.4584 37.5867 41.4584 37.448V35.96H45.6024V40.88C45.3038 41.0987 44.9918 41.288 44.6664 41.448C44.3464 41.6027 44.0024 41.7307 43.6344 41.832C43.2718 41.9333 42.8824 42.008 42.4664 42.056C42.0558 42.104 41.6131 42.128 41.1384 42.128C40.2851 42.128 39.4958 41.9787 38.7704 41.68C38.0451 41.376 37.4158 40.96 36.8824 40.432C36.3544 39.8987 35.9384 39.2693 35.6344 38.544C35.3358 37.8133 35.1864 37.0213 35.1864 36.168C35.1864 35.2987 35.3304 34.5013 35.6184 33.776C35.9064 33.0453 36.3171 32.416 36.8504 31.888C37.3891 31.36 38.0371 30.9493 38.7944 30.656C39.5571 30.3627 40.4078 30.216 41.3464 30.216C41.8318 30.216 42.2878 30.256 42.7144 30.336C43.1411 30.416 43.5331 30.5253 43.8904 30.664C44.2531 30.8027 44.5838 30.968 44.8824 31.16C45.1811 31.352 45.4478 31.56 45.6824 31.784L44.8984 32.976C44.8238 33.088 44.7331 33.176 44.6264 33.24C44.5251 33.304 44.4131 33.336 44.2904 33.336C44.1304 33.336 43.9651 33.2827 43.7944 33.176C43.5811 33.048 43.3784 32.9387 43.1864 32.848C42.9998 32.752 42.8078 32.6747 42.6104 32.616C42.4131 32.5573 42.2051 32.5147 41.9864 32.488C41.7678 32.4613 41.5224 32.448 41.2504 32.448C40.7438 32.448 40.2878 32.5387 39.8824 32.72C39.4771 32.896 39.1304 33.1467 38.8424 33.472C38.5598 33.7973 38.3411 34.1893 38.1864 34.648C38.0318 35.1013 37.9544 35.608 37.9544 36.168C37.9544 36.7867 38.0398 37.336 38.2104 37.816C38.3811 38.296 38.6158 38.7013 38.9144 39.032C39.2184 39.3627 39.5758 39.616 39.9864 39.792C40.4024 39.9627 40.8558 40.048 41.3464 40.048Z" fill="white"/>
<path d="M1 1V0H0V1H1ZM376 1H377V0H376V1ZM376 71V72H377V71H376ZM1 71H0V72H1V71ZM1 2H376V0H1V2ZM375 1V71H377V1H375ZM376 70H1V72H376V70ZM2 71V1H0V71H2Z" fill="#F3F4F9"/>
</svg>
