<svg width="375" height="100" viewBox="0 0 375 100" fill="none" xmlns="http://www.w3.org/2000/svg">
<path d="M1 12C1 5.37258 6.37258 0 13 0H363C369.627 0 375 5.37258 375 12V57C375 80.7482 355.748 100 332 100H44C20.2518 100 1 80.7482 1 57V12Z" fill="white"/>
<path d="M24.05 27.969V29.11H20.809V38H19.451V29.11H16.196V27.969H24.05ZM26.101 40.093C26.059 40.1863 26.0053 40.261 25.94 40.317C25.8793 40.373 25.7837 40.401 25.653 40.401H24.729L26.024 37.587L23.098 30.909H24.176C24.2833 30.909 24.3673 30.937 24.428 30.993C24.4887 31.0443 24.533 31.1027 24.561 31.168L26.458 35.634C26.5 35.7367 26.535 35.8393 26.563 35.942C26.5957 36.0447 26.6237 36.1497 26.647 36.257C26.6797 36.1497 26.7123 36.0447 26.745 35.942C26.7777 35.8393 26.815 35.7343 26.857 35.627L28.698 31.168C28.726 31.0933 28.7727 31.0327 28.838 30.986C28.908 30.9347 28.9827 30.909 29.062 30.909H30.056L26.101 40.093ZM31.1861 40.401V30.909H31.9281C32.1054 30.909 32.2174 30.9953 32.2641 31.168L32.3691 32.008C32.6724 31.6393 33.0177 31.343 33.4051 31.119C33.7971 30.895 34.2474 30.783 34.7561 30.783C35.1621 30.783 35.5307 30.8623 35.8621 31.021C36.1934 31.175 36.4757 31.406 36.7091 31.714C36.9424 32.0173 37.1221 32.3953 37.2481 32.848C37.3741 33.3007 37.4371 33.821 37.4371 34.409C37.4371 34.9317 37.3671 35.4193 37.2271 35.872C37.0871 36.32 36.8864 36.7097 36.6251 37.041C36.3637 37.3677 36.0417 37.6267 35.6591 37.818C35.2811 38.0047 34.8541 38.098 34.3781 38.098C33.9394 38.098 33.5637 38.0257 33.2511 37.881C32.9431 37.7363 32.6701 37.531 32.4321 37.265V40.401H31.1861ZM34.3431 31.791C33.9371 31.791 33.5801 31.8843 33.2721 32.071C32.9687 32.2577 32.6887 32.5213 32.4321 32.862V36.292C32.6607 36.6 32.9104 36.817 33.1811 36.943C33.4564 37.069 33.7621 37.132 34.0981 37.132C34.7561 37.132 35.2624 36.8963 35.6171 36.425C35.9717 35.9537 36.1491 35.2817 36.1491 34.409C36.1491 33.947 36.1071 33.5503 36.0231 33.219C35.9437 32.8877 35.8271 32.617 35.6731 32.407C35.5191 32.1923 35.3301 32.036 35.1061 31.938C34.8821 31.84 34.6277 31.791 34.3431 31.791ZM41.7177 30.797C42.1423 30.797 42.5343 30.8693 42.8937 31.014C43.253 31.154 43.5633 31.3593 43.8247 31.63C44.086 31.896 44.289 32.2273 44.4337 32.624C44.583 33.016 44.6577 33.464 44.6577 33.968C44.6577 34.164 44.6367 34.2947 44.5947 34.36C44.5527 34.4253 44.4733 34.458 44.3567 34.458H39.6387C39.648 34.906 39.7087 35.2957 39.8207 35.627C39.9327 35.9583 40.0867 36.236 40.2827 36.46C40.4787 36.6793 40.712 36.845 40.9827 36.957C41.2533 37.0643 41.5567 37.118 41.8927 37.118C42.2053 37.118 42.4737 37.083 42.6977 37.013C42.9263 36.9383 43.1223 36.859 43.2857 36.775C43.449 36.691 43.5843 36.614 43.6917 36.544C43.8037 36.4693 43.8993 36.432 43.9787 36.432C44.0813 36.432 44.1607 36.4717 44.2167 36.551L44.5667 37.006C44.4127 37.1927 44.2283 37.356 44.0137 37.496C43.799 37.6313 43.568 37.7433 43.3207 37.832C43.078 37.9207 42.826 37.986 42.5647 38.028C42.3033 38.0747 42.0443 38.098 41.7877 38.098C41.2977 38.098 40.845 38.0163 40.4297 37.853C40.019 37.685 39.662 37.4423 39.3587 37.125C39.06 36.803 38.8267 36.4063 38.6587 35.935C38.4907 35.4637 38.4067 34.9223 38.4067 34.311C38.4067 33.8163 38.4813 33.3543 38.6307 32.925C38.7847 32.4957 39.004 32.1247 39.2887 31.812C39.5733 31.4947 39.921 31.2473 40.3317 31.07C40.7423 30.888 41.2043 30.797 41.7177 30.797ZM41.7457 31.714C41.1437 31.714 40.67 31.889 40.3247 32.239C39.9793 32.5843 39.7647 33.065 39.6807 33.681H43.5377C43.5377 33.3917 43.498 33.128 43.4187 32.89C43.3393 32.6473 43.2227 32.4397 43.0687 32.267C42.9147 32.0897 42.7257 31.9543 42.5017 31.861C42.2823 31.763 42.0303 31.714 41.7457 31.714ZM51.0385 40.093C50.9965 40.1863 50.9428 40.261 50.8775 40.317C50.8168 40.373 50.7212 40.401 50.5905 40.401H49.6665L50.9615 37.587L48.0355 30.909H49.1135C49.2208 30.909 49.3048 30.937 49.3655 30.993C49.4262 31.0443 49.4705 31.1027 49.4985 31.168L51.3955 35.634C51.4375 35.7367 51.4725 35.8393 51.5005 35.942C51.5332 36.0447 51.5612 36.1497 51.5845 36.257C51.6172 36.1497 51.6498 36.0447 51.6825 35.942C51.7152 35.8393 51.7525 35.7343 51.7945 35.627L53.6355 31.168C53.6635 31.0933 53.7102 31.0327 53.7755 30.986C53.8455 30.9347 53.9202 30.909 53.9995 30.909H54.9935L51.0385 40.093ZM58.8158 30.797C59.3338 30.797 59.8005 30.8833 60.2158 31.056C60.6358 31.2287 60.9905 31.4737 61.2798 31.791C61.5738 32.1083 61.7978 32.4933 61.9518 32.946C62.1105 33.394 62.1898 33.8957 62.1898 34.451C62.1898 35.011 62.1105 35.515 61.9518 35.963C61.7978 36.411 61.5738 36.7937 61.2798 37.111C60.9905 37.4283 60.6358 37.6733 60.2158 37.846C59.8005 38.014 59.3338 38.098 58.8158 38.098C58.2978 38.098 57.8288 38.014 57.4088 37.846C56.9935 37.6733 56.6388 37.4283 56.3448 37.111C56.0508 36.7937 55.8245 36.411 55.6658 35.963C55.5072 35.515 55.4278 35.011 55.4278 34.451C55.4278 33.8957 55.5072 33.394 55.6658 32.946C55.8245 32.4933 56.0508 32.1083 56.3448 31.791C56.6388 31.4737 56.9935 31.2287 57.4088 31.056C57.8288 30.8833 58.2978 30.797 58.8158 30.797ZM58.8158 37.125C59.5158 37.125 60.0385 36.8917 60.3838 36.425C60.7292 35.9537 60.9018 35.298 60.9018 34.458C60.9018 33.6133 60.7292 32.9553 60.3838 32.484C60.0385 32.0127 59.5158 31.777 58.8158 31.777C58.4612 31.777 58.1532 31.8377 57.8918 31.959C57.6305 32.0803 57.4112 32.2553 57.2338 32.484C57.0612 32.7127 56.9305 32.995 56.8418 33.331C56.7578 33.6623 56.7158 34.038 56.7158 34.458C56.7158 34.878 56.7578 35.2537 56.8418 35.585C56.9305 35.9163 57.0612 36.1963 57.2338 36.425C57.4112 36.649 57.6305 36.8217 57.8918 36.943C58.1532 37.0643 58.4612 37.125 58.8158 37.125ZM64.8031 30.909V35.431C64.8031 35.9677 64.9268 36.383 65.1741 36.677C65.4215 36.971 65.7948 37.118 66.2941 37.118C66.6581 37.118 67.0011 37.0317 67.3231 36.859C67.6451 36.6863 67.9415 36.446 68.2121 36.138V30.909H69.4581V38H68.7161C68.5388 38 68.4268 37.9137 68.3801 37.741L68.2821 36.978C67.9741 37.3187 67.6288 37.594 67.2461 37.804C66.8635 38.0093 66.4248 38.112 65.9301 38.112C65.5428 38.112 65.1998 38.049 64.9011 37.923C64.6071 37.7923 64.3598 37.6103 64.1591 37.377C63.9585 37.1437 63.8068 36.8613 63.7041 36.53C63.6061 36.1987 63.5571 35.8323 63.5571 35.431V30.909H64.8031ZM71.5044 38V30.909H72.2184C72.3538 30.909 72.4471 30.9347 72.4984 30.986C72.5498 31.0373 72.5848 31.126 72.6034 31.252L72.6874 32.358C72.9301 31.8633 73.2288 31.4783 73.5834 31.203C73.9428 30.923 74.3628 30.783 74.8434 30.783C75.0394 30.783 75.2168 30.8063 75.3754 30.853C75.5341 30.895 75.6811 30.9557 75.8164 31.035L75.6554 31.966C75.6228 32.0827 75.5504 32.141 75.4384 32.141C75.3731 32.141 75.2728 32.12 75.1374 32.078C75.0021 32.0313 74.8131 32.008 74.5704 32.008C74.1364 32.008 73.7724 32.134 73.4784 32.386C73.1891 32.638 72.9464 33.0043 72.7504 33.485V38H71.5044ZM79.8579 38V30.909H80.5999C80.7773 30.909 80.8893 30.9953 80.9359 31.168L81.0269 31.896C81.2883 31.574 81.5799 31.3103 81.9019 31.105C82.2286 30.8997 82.6066 30.797 83.0359 30.797C83.5166 30.797 83.9039 30.93 84.1979 31.196C84.4966 31.462 84.7113 31.8213 84.8419 32.274C84.9399 32.0173 85.0683 31.7957 85.2269 31.609C85.3903 31.4223 85.5723 31.2683 85.7729 31.147C85.9736 31.0257 86.1859 30.937 86.4099 30.881C86.6386 30.825 86.8696 30.797 87.1029 30.797C87.4763 30.797 87.8076 30.8577 88.0969 30.979C88.3909 31.0957 88.6383 31.2683 88.8389 31.497C89.0443 31.7257 89.2006 32.008 89.3079 32.344C89.4153 32.6753 89.4689 33.0557 89.4689 33.485V38H88.2229V33.485C88.2229 32.9297 88.1016 32.5097 87.8589 32.225C87.6163 31.9357 87.2639 31.791 86.8019 31.791C86.5966 31.791 86.4006 31.8283 86.2139 31.903C86.0319 31.973 85.8709 32.078 85.7309 32.218C85.5909 32.358 85.4789 32.5353 85.3949 32.75C85.3156 32.96 85.2759 33.205 85.2759 33.485V38H84.0299V33.485C84.0299 32.9157 83.9156 32.491 83.6869 32.211C83.4583 31.931 83.1246 31.791 82.6859 31.791C82.3779 31.791 82.0909 31.875 81.8249 32.043C81.5636 32.2063 81.3233 32.4303 81.1039 32.715V38H79.8579ZM94.163 30.797C94.5877 30.797 94.9797 30.8693 95.339 31.014C95.6983 31.154 96.0087 31.3593 96.27 31.63C96.5313 31.896 96.7343 32.2273 96.879 32.624C97.0283 33.016 97.103 33.464 97.103 33.968C97.103 34.164 97.082 34.2947 97.04 34.36C96.998 34.4253 96.9187 34.458 96.802 34.458H92.084C92.0933 34.906 92.154 35.2957 92.266 35.627C92.378 35.9583 92.532 36.236 92.728 36.46C92.924 36.6793 93.1573 36.845 93.428 36.957C93.6987 37.0643 94.002 37.118 94.338 37.118C94.6507 37.118 94.919 37.083 95.143 37.013C95.3717 36.9383 95.5677 36.859 95.731 36.775C95.8943 36.691 96.0297 36.614 96.137 36.544C96.249 36.4693 96.3447 36.432 96.424 36.432C96.5267 36.432 96.606 36.4717 96.662 36.551L97.012 37.006C96.858 37.1927 96.6737 37.356 96.459 37.496C96.2443 37.6313 96.0133 37.7433 95.766 37.832C95.5233 37.9207 95.2713 37.986 95.01 38.028C94.7487 38.0747 94.4897 38.098 94.233 38.098C93.743 38.098 93.2903 38.0163 92.875 37.853C92.4643 37.685 92.1073 37.4423 91.804 37.125C91.5053 36.803 91.272 36.4063 91.104 35.935C90.936 35.4637 90.852 34.9223 90.852 34.311C90.852 33.8163 90.9267 33.3543 91.076 32.925C91.23 32.4957 91.4493 32.1247 91.734 31.812C92.0187 31.4947 92.3663 31.2473 92.777 31.07C93.1877 30.888 93.6497 30.797 94.163 30.797ZM94.191 31.714C93.589 31.714 93.1153 31.889 92.77 32.239C92.4247 32.5843 92.21 33.065 92.126 33.681H95.983C95.983 33.3917 95.9433 33.128 95.864 32.89C95.7847 32.6473 95.668 32.4397 95.514 32.267C95.36 32.0897 95.171 31.9543 94.947 31.861C94.7277 31.763 94.4757 31.714 94.191 31.714ZM102.758 32.078C102.702 32.1807 102.615 32.232 102.499 32.232C102.429 32.232 102.349 32.2063 102.261 32.155C102.172 32.1037 102.062 32.0477 101.932 31.987C101.806 31.9217 101.654 31.8633 101.477 31.812C101.299 31.756 101.089 31.728 100.847 31.728C100.637 31.728 100.448 31.756 100.28 31.812C100.112 31.8633 99.9671 31.9357 99.8458 32.029C99.7291 32.1223 99.6381 32.232 99.5728 32.358C99.5121 32.4793 99.4818 32.6123 99.4818 32.757C99.4818 32.939 99.5331 33.0907 99.6358 33.212C99.7431 33.3333 99.8831 33.4383 100.056 33.527C100.228 33.6157 100.424 33.695 100.644 33.765C100.863 33.8303 101.087 33.9027 101.316 33.982C101.549 34.0567 101.775 34.1407 101.995 34.234C102.214 34.3273 102.41 34.444 102.583 34.584C102.755 34.724 102.893 34.8967 102.996 35.102C103.103 35.3027 103.157 35.5453 103.157 35.83C103.157 36.1567 103.098 36.46 102.982 36.74C102.865 37.0153 102.692 37.2557 102.464 37.461C102.235 37.6617 101.955 37.8203 101.624 37.937C101.292 38.0537 100.91 38.112 100.476 38.112C99.9811 38.112 99.5331 38.0327 99.1318 37.874C98.7304 37.7107 98.3898 37.503 98.1098 37.251L98.4038 36.775C98.4411 36.7143 98.4854 36.6677 98.5368 36.635C98.5881 36.6023 98.6558 36.586 98.7398 36.586C98.8238 36.586 98.9124 36.6187 99.0058 36.684C99.0991 36.7493 99.2111 36.8217 99.3418 36.901C99.4771 36.9803 99.6381 37.0527 99.8248 37.118C100.016 37.1833 100.254 37.216 100.539 37.216C100.781 37.216 100.994 37.1857 101.176 37.125C101.358 37.0597 101.509 36.9733 101.631 36.866C101.752 36.7587 101.841 36.635 101.897 36.495C101.957 36.355 101.988 36.2057 101.988 36.047C101.988 35.851 101.934 35.69 101.827 35.564C101.724 35.4333 101.586 35.3237 101.414 35.235C101.241 35.1417 101.043 35.0623 100.819 34.997C100.599 34.927 100.373 34.8547 100.14 34.78C99.9111 34.7053 99.6848 34.6213 99.4608 34.528C99.2414 34.43 99.0454 34.3087 98.8728 34.164C98.7001 34.0193 98.5601 33.842 98.4528 33.632C98.3501 33.4173 98.2988 33.1583 98.2988 32.855C98.2988 32.5843 98.3548 32.3253 98.4668 32.078C98.5788 31.826 98.7421 31.6067 98.9568 31.42C99.1714 31.2287 99.4351 31.077 99.7478 30.965C100.06 30.853 100.417 30.797 100.819 30.797C101.285 30.797 101.703 30.8717 102.072 31.021C102.445 31.1657 102.767 31.3663 103.038 31.623L102.758 32.078ZM108.828 32.078C108.772 32.1807 108.686 32.232 108.569 32.232C108.499 32.232 108.42 32.2063 108.331 32.155C108.242 32.1037 108.133 32.0477 108.002 31.987C107.876 31.9217 107.724 31.8633 107.547 31.812C107.37 31.756 107.16 31.728 106.917 31.728C106.707 31.728 106.518 31.756 106.35 31.812C106.182 31.8633 106.037 31.9357 105.916 32.029C105.799 32.1223 105.708 32.232 105.643 32.358C105.582 32.4793 105.552 32.6123 105.552 32.757C105.552 32.939 105.603 33.0907 105.706 33.212C105.813 33.3333 105.953 33.4383 106.126 33.527C106.299 33.6157 106.495 33.695 106.714 33.765C106.933 33.8303 107.157 33.9027 107.386 33.982C107.619 34.0567 107.846 34.1407 108.065 34.234C108.284 34.3273 108.48 34.444 108.653 34.584C108.826 34.724 108.963 34.8967 109.066 35.102C109.173 35.3027 109.227 35.5453 109.227 35.83C109.227 36.1567 109.169 36.46 109.052 36.74C108.935 37.0153 108.763 37.2557 108.534 37.461C108.305 37.6617 108.025 37.8203 107.694 37.937C107.363 38.0537 106.98 38.112 106.546 38.112C106.051 38.112 105.603 38.0327 105.202 37.874C104.801 37.7107 104.46 37.503 104.18 37.251L104.474 36.775C104.511 36.7143 104.556 36.6677 104.607 36.635C104.658 36.6023 104.726 36.586 104.81 36.586C104.894 36.586 104.983 36.6187 105.076 36.684C105.169 36.7493 105.281 36.8217 105.412 36.901C105.547 36.9803 105.708 37.0527 105.895 37.118C106.086 37.1833 106.324 37.216 106.609 37.216C106.852 37.216 107.064 37.1857 107.246 37.125C107.428 37.0597 107.58 36.9733 107.701 36.866C107.822 36.7587 107.911 36.635 107.967 36.495C108.028 36.355 108.058 36.2057 108.058 36.047C108.058 35.851 108.004 35.69 107.897 35.564C107.794 35.4333 107.657 35.3237 107.484 35.235C107.311 35.1417 107.113 35.0623 106.889 34.997C106.67 34.927 106.443 34.8547 106.21 34.78C105.981 34.7053 105.755 34.6213 105.531 34.528C105.312 34.43 105.116 34.3087 104.943 34.164C104.77 34.0193 104.63 33.842 104.523 33.632C104.42 33.4173 104.369 33.1583 104.369 32.855C104.369 32.5843 104.425 32.3253 104.537 32.078C104.649 31.826 104.812 31.6067 105.027 31.42C105.242 31.2287 105.505 31.077 105.818 30.965C106.131 30.853 106.488 30.797 106.889 30.797C107.356 30.797 107.773 30.8717 108.142 31.021C108.515 31.1657 108.837 31.3663 109.108 31.623L108.828 32.078ZM116.046 38H115.493C115.372 38 115.274 37.9813 115.199 37.944C115.125 37.9067 115.076 37.8273 115.052 37.706L114.912 37.048C114.726 37.216 114.544 37.3677 114.366 37.503C114.189 37.6337 114.002 37.7457 113.806 37.839C113.61 37.9277 113.4 37.9953 113.176 38.042C112.957 38.0887 112.712 38.112 112.441 38.112C112.166 38.112 111.907 38.0747 111.664 38C111.426 37.9207 111.219 37.804 111.041 37.65C110.864 37.496 110.722 37.3023 110.614 37.069C110.512 36.831 110.46 36.551 110.46 36.229C110.46 35.949 110.537 35.6807 110.691 35.424C110.845 35.1627 111.093 34.9317 111.433 34.731C111.779 34.5303 112.229 34.367 112.784 34.241C113.34 34.1103 114.019 34.0357 114.821 34.017V33.464C114.821 32.9133 114.702 32.498 114.464 32.218C114.231 31.9333 113.883 31.791 113.421 31.791C113.118 31.791 112.861 31.8307 112.651 31.91C112.446 31.9847 112.266 32.071 112.112 32.169C111.963 32.2623 111.832 32.3487 111.72 32.428C111.613 32.5027 111.506 32.54 111.398 32.54C111.314 32.54 111.24 32.519 111.174 32.477C111.114 32.4303 111.065 32.3743 111.027 32.309L110.803 31.91C111.195 31.532 111.618 31.2497 112.07 31.063C112.523 30.8763 113.025 30.783 113.575 30.783C113.972 30.783 114.324 30.8483 114.632 30.979C114.94 31.1097 115.199 31.2917 115.409 31.525C115.619 31.7583 115.778 32.0407 115.885 32.372C115.993 32.7033 116.046 33.0673 116.046 33.464V38ZM112.812 37.237C113.032 37.237 113.232 37.216 113.414 37.174C113.596 37.1273 113.767 37.0643 113.925 36.985C114.089 36.901 114.243 36.8007 114.387 36.684C114.537 36.5673 114.681 36.4343 114.821 36.285V34.808C114.247 34.8267 113.76 34.8733 113.358 34.948C112.957 35.018 112.63 35.1113 112.378 35.228C112.126 35.3447 111.942 35.4823 111.825 35.641C111.713 35.7997 111.657 35.977 111.657 36.173C111.657 36.3597 111.688 36.5207 111.748 36.656C111.809 36.7913 111.891 36.9033 111.993 36.992C112.096 37.076 112.217 37.139 112.357 37.181C112.497 37.2183 112.649 37.237 112.812 37.237ZM120.321 30.79C120.629 30.79 120.916 30.825 121.182 30.895C121.453 30.9603 121.698 31.0583 121.917 31.189H123.842V31.651C123.842 31.805 123.744 31.903 123.548 31.945L122.743 32.057C122.902 32.3603 122.981 32.6987 122.981 33.072C122.981 33.4173 122.913 33.7323 122.778 34.017C122.647 34.297 122.463 34.5373 122.225 34.738C121.992 34.9387 121.712 35.0927 121.385 35.2C121.063 35.3073 120.708 35.361 120.321 35.361C119.99 35.361 119.677 35.3213 119.383 35.242C119.234 35.3353 119.119 35.4357 119.04 35.543C118.965 35.6503 118.928 35.7553 118.928 35.858C118.928 36.026 118.996 36.1543 119.131 36.243C119.266 36.327 119.446 36.3877 119.67 36.425C119.894 36.4623 120.148 36.4857 120.433 36.495C120.718 36.5043 121.007 36.5207 121.301 36.544C121.6 36.5627 121.891 36.5977 122.176 36.649C122.461 36.7003 122.715 36.7843 122.939 36.901C123.163 37.0177 123.343 37.1787 123.478 37.384C123.613 37.5893 123.681 37.8553 123.681 38.182C123.681 38.4853 123.604 38.7793 123.45 39.064C123.301 39.3487 123.084 39.6007 122.799 39.82C122.514 40.044 122.167 40.2213 121.756 40.352C121.345 40.4873 120.881 40.555 120.363 40.555C119.845 40.555 119.39 40.5037 118.998 40.401C118.611 40.2983 118.289 40.1607 118.032 39.988C117.775 39.8153 117.582 39.6147 117.451 39.386C117.325 39.162 117.262 38.9263 117.262 38.679C117.262 38.329 117.372 38.0327 117.591 37.79C117.815 37.5427 118.121 37.3467 118.508 37.202C118.307 37.1087 118.146 36.985 118.025 36.831C117.908 36.6723 117.85 36.4623 117.85 36.201C117.85 36.0983 117.869 35.9933 117.906 35.886C117.943 35.774 117.999 35.6643 118.074 35.557C118.153 35.4497 118.249 35.347 118.361 35.249C118.473 35.151 118.604 35.0647 118.753 34.99C118.403 34.794 118.128 34.535 117.927 34.213C117.731 33.8863 117.633 33.506 117.633 33.072C117.633 32.7267 117.698 32.414 117.829 32.134C117.964 31.8493 118.151 31.609 118.389 31.413C118.627 31.2123 118.909 31.0583 119.236 30.951C119.567 30.8437 119.929 30.79 120.321 30.79ZM122.533 38.385C122.533 38.2077 122.484 38.0653 122.386 37.958C122.288 37.8507 122.155 37.769 121.987 37.713C121.819 37.6523 121.625 37.608 121.406 37.58C121.187 37.552 120.956 37.5333 120.713 37.524C120.47 37.51 120.223 37.496 119.971 37.482C119.719 37.468 119.479 37.4423 119.25 37.405C118.984 37.531 118.767 37.685 118.599 37.867C118.436 38.049 118.354 38.266 118.354 38.518C118.354 38.6767 118.394 38.8237 118.473 38.959C118.557 39.099 118.683 39.218 118.851 39.316C119.019 39.4187 119.229 39.498 119.481 39.554C119.738 39.6147 120.039 39.645 120.384 39.645C120.72 39.645 121.021 39.6147 121.287 39.554C121.553 39.4933 121.777 39.407 121.959 39.295C122.146 39.183 122.288 39.05 122.386 38.896C122.484 38.742 122.533 38.5717 122.533 38.385ZM120.321 34.535C120.573 34.535 120.795 34.5 120.986 34.43C121.182 34.36 121.345 34.262 121.476 34.136C121.607 34.01 121.705 33.8607 121.77 33.688C121.835 33.5107 121.868 33.317 121.868 33.107C121.868 32.673 121.735 32.3277 121.469 32.071C121.208 31.8143 120.825 31.686 120.321 31.686C119.822 31.686 119.439 31.8143 119.173 32.071C118.912 32.3277 118.781 32.673 118.781 33.107C118.781 33.317 118.814 33.5107 118.879 33.688C118.949 33.8607 119.049 34.01 119.18 34.136C119.311 34.262 119.472 34.36 119.663 34.43C119.854 34.5 120.074 34.535 120.321 34.535ZM127.892 30.797C128.316 30.797 128.708 30.8693 129.068 31.014C129.427 31.154 129.737 31.3593 129.999 31.63C130.26 31.896 130.463 32.2273 130.608 32.624C130.757 33.016 130.832 33.464 130.832 33.968C130.832 34.164 130.811 34.2947 130.769 34.36C130.727 34.4253 130.647 34.458 130.531 34.458H125.812C125.822 34.906 125.883 35.2957 125.995 35.627C126.107 35.9583 126.261 36.236 126.457 36.46C126.653 36.6793 126.886 36.845 127.157 36.957C127.427 37.0643 127.731 37.118 128.067 37.118C128.379 37.118 128.648 37.083 128.872 37.013C129.1 36.9383 129.296 36.859 129.46 36.775C129.623 36.691 129.758 36.614 129.866 36.544C129.978 36.4693 130.073 36.432 130.153 36.432C130.255 36.432 130.335 36.4717 130.391 36.551L130.741 37.006C130.587 37.1927 130.402 37.356 130.188 37.496C129.973 37.6313 129.742 37.7433 129.495 37.832C129.252 37.9207 129 37.986 128.739 38.028C128.477 38.0747 128.218 38.098 127.962 38.098C127.472 38.098 127.019 38.0163 126.604 37.853C126.193 37.685 125.836 37.4423 125.533 37.125C125.234 36.803 125.001 36.4063 124.833 35.935C124.665 35.4637 124.581 34.9223 124.581 34.311C124.581 33.8163 124.655 33.3543 124.805 32.925C124.959 32.4957 125.178 32.1247 125.463 31.812C125.747 31.4947 126.095 31.2473 126.506 31.07C126.916 30.888 127.378 30.797 127.892 30.797ZM127.919 31.714C127.318 31.714 126.844 31.889 126.499 32.239C126.153 32.5843 125.939 33.065 125.855 33.681H129.712C129.712 33.3917 129.672 33.128 129.593 32.89C129.513 32.6473 129.397 32.4397 129.243 32.267C129.089 32.0897 128.9 31.9543 128.676 31.861C128.456 31.763 128.204 31.714 127.919 31.714Z" fill="#828282"/>
<rect x="326" y="16" width="33" height="33" rx="8" fill="#0F80E9"/>
<path d="M335.512 39.75V34.5117L346.762 33L335.512 31.4883V26.25L351.262 33L335.512 39.75Z" fill="white"/>
</svg>
