<svg width="377" height="72" viewBox="0 0 377 72" fill="none" xmlns="http://www.w3.org/2000/svg">
<path d="M1 1H376V71H1V1Z" fill="white"/>
<path d="M71.828 52H70.47V41.969H71.828V52ZM76.098 44.909H77.078C77.1807 44.909 77.2647 44.9347 77.33 44.986C77.3953 45.0373 77.4397 45.098 77.463 45.168L78.821 49.732C78.8583 49.9 78.8933 50.0633 78.926 50.222C78.9587 50.376 78.9867 50.5323 79.01 50.691C79.0473 50.5323 79.0893 50.376 79.136 50.222C79.1827 50.0633 79.2317 49.9 79.283 49.732L80.781 45.14C80.8043 45.07 80.844 45.0117 80.9 44.965C80.9607 44.9183 81.0353 44.895 81.124 44.895H81.663C81.7563 44.895 81.8333 44.9183 81.894 44.965C81.9547 45.0117 81.9967 45.07 82.02 45.14L83.483 49.732C83.5343 49.8953 83.5787 50.0563 83.616 50.215C83.658 50.3737 83.6977 50.53 83.735 50.684C83.7583 50.53 83.7887 50.369 83.826 50.201C83.8633 50.033 83.903 49.8767 83.945 49.732L85.331 45.168C85.3543 45.0933 85.3987 45.0327 85.464 44.986C85.5293 44.9347 85.6063 44.909 85.695 44.909H86.633L84.337 52H83.35C83.2287 52 83.1447 51.9207 83.098 51.762L81.53 46.953C81.4927 46.8457 81.4623 46.7383 81.439 46.631C81.4157 46.519 81.3923 46.4093 81.369 46.302C81.3457 46.4093 81.3223 46.519 81.299 46.631C81.2757 46.743 81.2453 46.8527 81.208 46.96L79.619 51.762C79.5677 51.9207 79.472 52 79.332 52H78.394L76.098 44.909ZM92.9488 52H92.3958C92.2744 52 92.1764 51.9813 92.1018 51.944C92.0271 51.9067 91.9781 51.8273 91.9548 51.706L91.8148 51.048C91.6281 51.216 91.4461 51.3677 91.2688 51.503C91.0914 51.6337 90.9048 51.7457 90.7088 51.839C90.5128 51.9277 90.3028 51.9953 90.0788 52.042C89.8594 52.0887 89.6144 52.112 89.3438 52.112C89.0684 52.112 88.8094 52.0747 88.5667 52C88.3288 51.9207 88.1211 51.804 87.9438 51.65C87.7664 51.496 87.6241 51.3023 87.5168 51.069C87.4141 50.831 87.3628 50.551 87.3628 50.229C87.3628 49.949 87.4398 49.6807 87.5938 49.424C87.7478 49.1627 87.9951 48.9317 88.3358 48.731C88.6811 48.5303 89.1314 48.367 89.6868 48.241C90.2421 48.1103 90.9211 48.0357 91.7238 48.017V47.464C91.7238 46.9133 91.6048 46.498 91.3668 46.218C91.1334 45.9333 90.7858 45.791 90.3238 45.791C90.0204 45.791 89.7638 45.8307 89.5538 45.91C89.3484 45.9847 89.1688 46.071 89.0148 46.169C88.8654 46.2623 88.7348 46.3487 88.6228 46.428C88.5154 46.5027 88.4081 46.54 88.3008 46.54C88.2168 46.54 88.1421 46.519 88.0768 46.477C88.0161 46.4303 87.9671 46.3743 87.9298 46.309L87.7058 45.91C88.0978 45.532 88.5201 45.2497 88.9728 45.063C89.4254 44.8763 89.9271 44.783 90.4778 44.783C90.8744 44.783 91.2268 44.8483 91.5348 44.979C91.8428 45.1097 92.1018 45.2917 92.3118 45.525C92.5218 45.7583 92.6804 46.0407 92.7878 46.372C92.8951 46.7033 92.9488 47.0673 92.9488 47.464V52ZM89.7148 51.237C89.9341 51.237 90.1348 51.216 90.3167 51.174C90.4988 51.1273 90.6691 51.0643 90.8278 50.985C90.9911 50.901 91.1451 50.8007 91.2898 50.684C91.4391 50.5673 91.5838 50.4343 91.7238 50.285V48.808C91.1498 48.8267 90.6621 48.8733 90.2608 48.948C89.8594 49.018 89.5328 49.1113 89.2808 49.228C89.0288 49.3447 88.8444 49.4823 88.7278 49.641C88.6158 49.7997 88.5598 49.977 88.5598 50.173C88.5598 50.3597 88.5901 50.5207 88.6508 50.656C88.7114 50.7913 88.7931 50.9033 88.8958 50.992C88.9984 51.076 89.1198 51.139 89.2598 51.181C89.3998 51.2183 89.5514 51.237 89.7148 51.237ZM94.8365 52V44.909H95.5785C95.7558 44.909 95.8678 44.9953 95.9145 45.168L96.0125 45.938C96.3205 45.5973 96.6635 45.322 97.0415 45.112C97.4241 44.902 97.8651 44.797 98.3645 44.797C98.7518 44.797 99.0925 44.8623 99.3865 44.993C99.6851 45.119 99.9325 45.301 100.128 45.539C100.329 45.7723 100.481 46.0547 100.583 46.386C100.686 46.7173 100.737 47.0837 100.737 47.485V52H99.4915V47.485C99.4915 46.9483 99.3678 46.533 99.1205 46.239C98.8778 45.9403 98.5045 45.791 98.0005 45.791C97.6318 45.791 97.2865 45.8797 96.9645 46.057C96.6471 46.2343 96.3531 46.4747 96.0825 46.778V52H94.8365ZM104.765 52.112C104.205 52.112 103.773 51.9557 103.47 51.643C103.171 51.3303 103.022 50.88 103.022 50.292V45.952H102.168C102.093 45.952 102.03 45.931 101.979 45.889C101.927 45.8423 101.902 45.7723 101.902 45.679V45.182L103.064 45.035L103.351 42.844C103.36 42.774 103.39 42.718 103.442 42.676C103.493 42.6293 103.558 42.606 103.638 42.606H104.268V45.049H106.298V45.952H104.268V50.208C104.268 50.5067 104.34 50.7283 104.485 50.873C104.629 51.0177 104.816 51.09 105.045 51.09C105.175 51.09 105.287 51.0737 105.381 51.041C105.479 51.0037 105.563 50.964 105.633 50.922C105.703 50.88 105.761 50.8427 105.808 50.81C105.859 50.7727 105.903 50.754 105.941 50.754C106.006 50.754 106.064 50.7937 106.116 50.873L106.48 51.468C106.265 51.6687 106.006 51.8273 105.703 51.944C105.399 52.056 105.087 52.112 104.765 52.112ZM112.694 52.112C112.134 52.112 111.703 51.9557 111.399 51.643C111.101 51.3303 110.951 50.88 110.951 50.292V45.952H110.097C110.023 45.952 109.96 45.931 109.908 45.889C109.857 45.8423 109.831 45.7723 109.831 45.679V45.182L110.993 45.035L111.28 42.844C111.29 42.774 111.32 42.718 111.371 42.676C111.423 42.6293 111.488 42.606 111.567 42.606H112.197V45.049H114.227V45.952H112.197V50.208C112.197 50.5067 112.27 50.7283 112.414 50.873C112.559 51.0177 112.746 51.09 112.974 51.09C113.105 51.09 113.217 51.0737 113.31 51.041C113.408 51.0037 113.492 50.964 113.562 50.922C113.632 50.88 113.691 50.8427 113.737 50.81C113.789 50.7727 113.833 50.754 113.87 50.754C113.936 50.754 113.994 50.7937 114.045 50.873L114.409 51.468C114.195 51.6687 113.936 51.8273 113.632 51.944C113.329 52.056 113.016 52.112 112.694 52.112ZM118.638 44.797C119.156 44.797 119.623 44.8833 120.038 45.056C120.458 45.2287 120.813 45.4737 121.102 45.791C121.396 46.1083 121.62 46.4933 121.774 46.946C121.933 47.394 122.012 47.8957 122.012 48.451C122.012 49.011 121.933 49.515 121.774 49.963C121.62 50.411 121.396 50.7937 121.102 51.111C120.813 51.4283 120.458 51.6733 120.038 51.846C119.623 52.014 119.156 52.098 118.638 52.098C118.12 52.098 117.651 52.014 117.231 51.846C116.816 51.6733 116.461 51.4283 116.167 51.111C115.873 50.7937 115.647 50.411 115.488 49.963C115.329 49.515 115.25 49.011 115.25 48.451C115.25 47.8957 115.329 47.394 115.488 46.946C115.647 46.4933 115.873 46.1083 116.167 45.791C116.461 45.4737 116.816 45.2287 117.231 45.056C117.651 44.8833 118.12 44.797 118.638 44.797ZM118.638 51.125C119.338 51.125 119.861 50.8917 120.206 50.425C120.551 49.9537 120.724 49.298 120.724 48.458C120.724 47.6133 120.551 46.9553 120.206 46.484C119.861 46.0127 119.338 45.777 118.638 45.777C118.283 45.777 117.975 45.8377 117.714 45.959C117.453 46.0803 117.233 46.2553 117.056 46.484C116.883 46.7127 116.753 46.995 116.664 47.331C116.58 47.6623 116.538 48.038 116.538 48.458C116.538 48.878 116.58 49.2537 116.664 49.585C116.753 49.9163 116.883 50.1963 117.056 50.425C117.233 50.649 117.453 50.8217 117.714 50.943C117.975 51.0643 118.283 51.125 118.638 51.125ZM128.403 52.112C127.843 52.112 127.412 51.9557 127.108 51.643C126.81 51.3303 126.66 50.88 126.66 50.292V45.952H125.806C125.732 45.952 125.669 45.931 125.617 45.889C125.566 45.8423 125.54 45.7723 125.54 45.679V45.182L126.702 45.035L126.989 42.844C126.999 42.774 127.029 42.718 127.08 42.676C127.132 42.6293 127.197 42.606 127.276 42.606H127.906V45.049H129.936V45.952H127.906V50.208C127.906 50.5067 127.979 50.7283 128.123 50.873C128.268 51.0177 128.455 51.09 128.683 51.09C128.814 51.09 128.926 51.0737 129.019 51.041C129.117 51.0037 129.201 50.964 129.271 50.922C129.341 50.88 129.4 50.8427 129.446 50.81C129.498 50.7727 129.542 50.754 129.579 50.754C129.645 50.754 129.703 50.7937 129.754 50.873L130.118 51.468C129.904 51.6687 129.645 51.8273 129.341 51.944C129.038 52.056 128.725 52.112 128.403 52.112ZM136.685 52H136.132C136.011 52 135.913 51.9813 135.838 51.944C135.763 51.9067 135.714 51.8273 135.691 51.706L135.551 51.048C135.364 51.216 135.182 51.3677 135.005 51.503C134.828 51.6337 134.641 51.7457 134.445 51.839C134.249 51.9277 134.039 51.9953 133.815 52.042C133.596 52.0887 133.351 52.112 133.08 52.112C132.805 52.112 132.546 52.0747 132.303 52C132.065 51.9207 131.857 51.804 131.68 51.65C131.503 51.496 131.36 51.3023 131.253 51.069C131.15 50.831 131.099 50.551 131.099 50.229C131.099 49.949 131.176 49.6807 131.33 49.424C131.484 49.1627 131.731 48.9317 132.072 48.731C132.417 48.5303 132.868 48.367 133.423 48.241C133.978 48.1103 134.657 48.0357 135.46 48.017V47.464C135.46 46.9133 135.341 46.498 135.103 46.218C134.87 45.9333 134.522 45.791 134.06 45.791C133.757 45.791 133.5 45.8307 133.29 45.91C133.085 45.9847 132.905 46.071 132.751 46.169C132.602 46.2623 132.471 46.3487 132.359 46.428C132.252 46.5027 132.144 46.54 132.037 46.54C131.953 46.54 131.878 46.519 131.813 46.477C131.752 46.4303 131.703 46.3743 131.666 46.309L131.442 45.91C131.834 45.532 132.256 45.2497 132.709 45.063C133.162 44.8763 133.663 44.783 134.214 44.783C134.611 44.783 134.963 44.8483 135.271 44.979C135.579 45.1097 135.838 45.2917 136.048 45.525C136.258 45.7583 136.417 46.0407 136.524 46.372C136.631 46.7033 136.685 47.0673 136.685 47.464V52ZM133.451 51.237C133.67 51.237 133.871 51.216 134.053 51.174C134.235 51.1273 134.405 51.0643 134.564 50.985C134.727 50.901 134.881 50.8007 135.026 50.684C135.175 50.5673 135.32 50.4343 135.46 50.285V48.808C134.886 48.8267 134.398 48.8733 133.997 48.948C133.596 49.018 133.269 49.1113 133.017 49.228C132.765 49.3447 132.581 49.4823 132.464 49.641C132.352 49.7997 132.296 49.977 132.296 50.173C132.296 50.3597 132.326 50.5207 132.387 50.656C132.448 50.7913 132.529 50.9033 132.632 50.992C132.735 51.076 132.856 51.139 132.996 51.181C133.136 51.2183 133.288 51.237 133.451 51.237ZM139.959 41.689V52H138.713V41.689H139.959ZM143.45 41.689V47.758H143.772C143.865 47.758 143.942 47.7463 144.003 47.723C144.063 47.695 144.131 47.6413 144.206 47.562L146.446 45.161C146.516 45.0863 146.586 45.0257 146.656 44.979C146.726 44.9323 146.819 44.909 146.936 44.909H148.07L145.459 47.688C145.393 47.7673 145.328 47.8373 145.263 47.898C145.202 47.9587 145.132 48.0123 145.053 48.059C145.137 48.115 145.211 48.1803 145.277 48.255C145.347 48.325 145.412 48.4067 145.473 48.5L148.245 52H147.125C147.022 52 146.933 51.9813 146.859 51.944C146.789 51.902 146.721 51.839 146.656 51.755L144.325 48.85C144.255 48.752 144.185 48.689 144.115 48.661C144.045 48.6283 143.94 48.612 143.8 48.612H143.45V52H142.197V41.689H143.45ZM157.412 52H156.859C156.737 52 156.639 51.9813 156.565 51.944C156.49 51.9067 156.441 51.8273 156.418 51.706L156.278 51.048C156.091 51.216 155.909 51.3677 155.732 51.503C155.554 51.6337 155.368 51.7457 155.172 51.839C154.976 51.9277 154.766 51.9953 154.542 52.042C154.322 52.0887 154.077 52.112 153.807 52.112C153.531 52.112 153.272 52.0747 153.03 52C152.792 51.9207 152.584 51.804 152.407 51.65C152.229 51.496 152.087 51.3023 151.98 51.069C151.877 50.831 151.826 50.551 151.826 50.229C151.826 49.949 151.903 49.6807 152.057 49.424C152.211 49.1627 152.458 48.9317 152.799 48.731C153.144 48.5303 153.594 48.367 154.15 48.241C154.705 48.1103 155.384 48.0357 156.187 48.017V47.464C156.187 46.9133 156.068 46.498 155.83 46.218C155.596 45.9333 155.249 45.791 154.787 45.791C154.483 45.791 154.227 45.8307 154.017 45.91C153.811 45.9847 153.632 46.071 153.478 46.169C153.328 46.2623 153.198 46.3487 153.086 46.428C152.978 46.5027 152.871 46.54 152.764 46.54C152.68 46.54 152.605 46.519 152.54 46.477C152.479 46.4303 152.43 46.3743 152.393 46.309L152.169 45.91C152.561 45.532 152.983 45.2497 153.436 45.063C153.888 44.8763 154.39 44.783 154.941 44.783C155.337 44.783 155.69 44.8483 155.998 44.979C156.306 45.1097 156.565 45.2917 156.775 45.525C156.985 45.7583 157.143 46.0407 157.251 46.372C157.358 46.7033 157.412 47.0673 157.412 47.464V52ZM154.178 51.237C154.397 51.237 154.598 51.216 154.78 51.174C154.962 51.1273 155.132 51.0643 155.291 50.985C155.454 50.901 155.608 50.8007 155.753 50.684C155.902 50.5673 156.047 50.4343 156.187 50.285V48.808C155.613 48.8267 155.125 48.8733 154.724 48.948C154.322 49.018 153.996 49.1113 153.744 49.228C153.492 49.3447 153.307 49.4823 153.191 49.641C153.079 49.7997 153.023 49.977 153.023 50.173C153.023 50.3597 153.053 50.5207 153.114 50.656C153.174 50.7913 153.256 50.9033 153.359 50.992C153.461 51.076 153.583 51.139 153.723 51.181C153.863 51.2183 154.014 51.237 154.178 51.237ZM159.341 52V41.689H160.594V45.931C160.888 45.5903 161.224 45.3173 161.602 45.112C161.985 44.902 162.421 44.797 162.911 44.797C163.322 44.797 163.693 44.874 164.024 45.028C164.356 45.182 164.638 45.413 164.871 45.721C165.105 46.0243 165.284 46.4023 165.41 46.855C165.536 47.303 165.599 47.821 165.599 48.409C165.599 48.9317 165.529 49.4193 165.389 49.872C165.249 50.32 165.046 50.7097 164.78 51.041C164.519 51.3677 164.197 51.6267 163.814 51.818C163.436 52.0047 163.009 52.098 162.533 52.098C162.076 52.098 161.686 52.0093 161.364 51.832C161.047 51.6547 160.769 51.4073 160.531 51.09L160.468 51.734C160.431 51.9113 160.324 52 160.146 52H159.341ZM162.505 45.791C162.099 45.791 161.742 45.8843 161.434 46.071C161.131 46.2577 160.851 46.5213 160.594 46.862V50.292C160.818 50.6 161.066 50.817 161.336 50.943C161.612 51.069 161.917 51.132 162.253 51.132C162.916 51.132 163.425 50.8963 163.779 50.425C164.134 49.9537 164.311 49.2817 164.311 48.409C164.311 47.947 164.269 47.5503 164.185 47.219C164.106 46.8877 163.989 46.617 163.835 46.407C163.681 46.1923 163.492 46.036 163.268 45.938C163.044 45.84 162.79 45.791 162.505 45.791ZM169.99 44.797C170.508 44.797 170.974 44.8833 171.39 45.056C171.81 45.2287 172.164 45.4737 172.454 45.791C172.748 46.1083 172.972 46.4933 173.126 46.946C173.284 47.394 173.364 47.8957 173.364 48.451C173.364 49.011 173.284 49.515 173.126 49.963C172.972 50.411 172.748 50.7937 172.454 51.111C172.164 51.4283 171.81 51.6733 171.39 51.846C170.974 52.014 170.508 52.098 169.99 52.098C169.472 52.098 169.003 52.014 168.583 51.846C168.167 51.6733 167.813 51.4283 167.519 51.111C167.225 50.7937 166.998 50.411 166.84 49.963C166.681 49.515 166.602 49.011 166.602 48.451C166.602 47.8957 166.681 47.394 166.84 46.946C166.998 46.4933 167.225 46.1083 167.519 45.791C167.813 45.4737 168.167 45.2287 168.583 45.056C169.003 44.8833 169.472 44.797 169.99 44.797ZM169.99 51.125C170.69 51.125 171.212 50.8917 171.558 50.425C171.903 49.9537 172.076 49.298 172.076 48.458C172.076 47.6133 171.903 46.9553 171.558 46.484C171.212 46.0127 170.69 45.777 169.99 45.777C169.635 45.777 169.327 45.8377 169.066 45.959C168.804 46.0803 168.585 46.2553 168.408 46.484C168.235 46.7127 168.104 46.995 168.016 47.331C167.932 47.6623 167.89 48.038 167.89 48.458C167.89 48.878 167.932 49.2537 168.016 49.585C168.104 49.9163 168.235 50.1963 168.408 50.425C168.585 50.649 168.804 50.8217 169.066 50.943C169.327 51.0643 169.635 51.125 169.99 51.125ZM175.977 44.909V49.431C175.977 49.9677 176.101 50.383 176.348 50.677C176.595 50.971 176.969 51.118 177.468 51.118C177.832 51.118 178.175 51.0317 178.497 50.859C178.819 50.6863 179.115 50.446 179.386 50.138V44.909H180.632V52H179.89C179.713 52 179.601 51.9137 179.554 51.741L179.456 50.978C179.148 51.3187 178.803 51.594 178.42 51.804C178.037 52.0093 177.599 52.112 177.104 52.112C176.717 52.112 176.374 52.049 176.075 51.923C175.781 51.7923 175.534 51.6103 175.333 51.377C175.132 51.1437 174.981 50.8613 174.878 50.53C174.78 50.1987 174.731 49.8323 174.731 49.431V44.909H175.977ZM184.827 52.112C184.267 52.112 183.836 51.9557 183.532 51.643C183.234 51.3303 183.084 50.88 183.084 50.292V45.952H182.23C182.156 45.952 182.093 45.931 182.041 45.889C181.99 45.8423 181.964 45.7723 181.964 45.679V45.182L183.126 45.035L183.413 42.844C183.423 42.774 183.453 42.718 183.504 42.676C183.556 42.6293 183.621 42.606 183.7 42.606H184.33V45.049H186.36V45.952H184.33V50.208C184.33 50.5067 184.403 50.7283 184.547 50.873C184.692 51.0177 184.879 51.09 185.107 51.09C185.238 51.09 185.35 51.0737 185.443 51.041C185.541 51.0037 185.625 50.964 185.695 50.922C185.765 50.88 185.824 50.8427 185.87 50.81C185.922 50.7727 185.966 50.754 186.003 50.754C186.069 50.754 186.127 50.7937 186.178 50.873L186.542 51.468C186.328 51.6687 186.069 51.8273 185.765 51.944C185.462 52.056 185.149 52.112 184.827 52.112ZM192.757 52.112C192.197 52.112 191.765 51.9557 191.462 51.643C191.163 51.3303 191.014 50.88 191.014 50.292V45.952H190.16C190.085 45.952 190.022 45.931 189.971 45.889C189.92 45.8423 189.894 45.7723 189.894 45.679V45.182L191.056 45.035L191.343 42.844C191.352 42.774 191.383 42.718 191.434 42.676C191.485 42.6293 191.551 42.606 191.63 42.606H192.26V45.049H194.29V45.952H192.26V50.208C192.26 50.5067 192.332 50.7283 192.477 50.873C192.622 51.0177 192.808 51.09 193.037 51.09C193.168 51.09 193.28 51.0737 193.373 51.041C193.471 51.0037 193.555 50.964 193.625 50.922C193.695 50.88 193.753 50.8427 193.8 50.81C193.851 50.7727 193.896 50.754 193.933 50.754C193.998 50.754 194.057 50.7937 194.108 50.873L194.472 51.468C194.257 51.6687 193.998 51.8273 193.695 51.944C193.392 52.056 193.079 52.112 192.757 52.112ZM198.701 44.797C199.219 44.797 199.685 44.8833 200.101 45.056C200.521 45.2287 200.875 45.4737 201.165 45.791C201.459 46.1083 201.683 46.4933 201.837 46.946C201.995 47.394 202.075 47.8957 202.075 48.451C202.075 49.011 201.995 49.515 201.837 49.963C201.683 50.411 201.459 50.7937 201.165 51.111C200.875 51.4283 200.521 51.6733 200.101 51.846C199.685 52.014 199.219 52.098 198.701 52.098C198.183 52.098 197.714 52.014 197.294 51.846C196.878 51.6733 196.524 51.4283 196.23 51.111C195.936 50.7937 195.709 50.411 195.551 49.963C195.392 49.515 195.313 49.011 195.313 48.451C195.313 47.8957 195.392 47.394 195.551 46.946C195.709 46.4933 195.936 46.1083 196.23 45.791C196.524 45.4737 196.878 45.2287 197.294 45.056C197.714 44.8833 198.183 44.797 198.701 44.797ZM198.701 51.125C199.401 51.125 199.923 50.8917 200.269 50.425C200.614 49.9537 200.787 49.298 200.787 48.458C200.787 47.6133 200.614 46.9553 200.269 46.484C199.923 46.0127 199.401 45.777 198.701 45.777C198.346 45.777 198.038 45.8377 197.777 45.959C197.515 46.0803 197.296 46.2553 197.119 46.484C196.946 46.7127 196.815 46.995 196.727 47.331C196.643 47.6623 196.601 48.038 196.601 48.458C196.601 48.878 196.643 49.2537 196.727 49.585C196.815 49.9163 196.946 50.1963 197.119 50.425C197.296 50.649 197.515 50.8217 197.777 50.943C198.038 51.0643 198.346 51.125 198.701 51.125ZM208.466 52.112C207.906 52.112 207.474 51.9557 207.171 51.643C206.872 51.3303 206.723 50.88 206.723 50.292V45.952H205.869C205.794 45.952 205.731 45.931 205.68 45.889C205.629 45.8423 205.603 45.7723 205.603 45.679V45.182L206.765 45.035L207.052 42.844C207.061 42.774 207.092 42.718 207.143 42.676C207.194 42.6293 207.26 42.606 207.339 42.606H207.969V45.049H209.999V45.952H207.969V50.208C207.969 50.5067 208.041 50.7283 208.186 50.873C208.331 51.0177 208.517 51.09 208.746 51.09C208.877 51.09 208.989 51.0737 209.082 51.041C209.18 51.0037 209.264 50.964 209.334 50.922C209.404 50.88 209.462 50.8427 209.509 50.81C209.56 50.7727 209.605 50.754 209.642 50.754C209.707 50.754 209.766 50.7937 209.817 50.873L210.181 51.468C209.966 51.6687 209.707 51.8273 209.404 51.944C209.101 52.056 208.788 52.112 208.466 52.112ZM211.54 52V41.689H212.786V45.861C213.089 45.539 213.425 45.2823 213.794 45.091C214.162 44.895 214.587 44.797 215.068 44.797C215.455 44.797 215.796 44.8623 216.09 44.993C216.388 45.119 216.636 45.301 216.832 45.539C217.032 45.7723 217.184 46.0547 217.287 46.386C217.389 46.7173 217.441 47.0837 217.441 47.485V52H216.195V47.485C216.195 46.9483 216.071 46.533 215.824 46.239C215.581 45.9403 215.208 45.791 214.704 45.791C214.335 45.791 213.99 45.8797 213.668 46.057C213.35 46.2343 213.056 46.4747 212.786 46.778V52H211.54ZM220.705 44.909V52H219.459V44.909H220.705ZM220.985 42.683C220.985 42.8043 220.959 42.9187 220.908 43.026C220.861 43.1287 220.796 43.222 220.712 43.306C220.633 43.3853 220.539 43.4483 220.432 43.495C220.325 43.5417 220.21 43.565 220.089 43.565C219.968 43.565 219.853 43.5417 219.746 43.495C219.643 43.4483 219.55 43.3853 219.466 43.306C219.387 43.222 219.324 43.1287 219.277 43.026C219.23 42.9187 219.207 42.8043 219.207 42.683C219.207 42.5617 219.23 42.4473 219.277 42.34C219.324 42.228 219.387 42.1323 219.466 42.053C219.55 41.969 219.643 41.9037 219.746 41.857C219.853 41.8103 219.968 41.787 220.089 41.787C220.21 41.787 220.325 41.8103 220.432 41.857C220.539 41.9037 220.633 41.969 220.712 42.053C220.796 42.1323 220.861 42.228 220.908 42.34C220.959 42.4473 220.985 42.5617 220.985 42.683ZM222.901 52V44.909H223.643C223.82 44.909 223.932 44.9953 223.979 45.168L224.077 45.938C224.385 45.5973 224.728 45.322 225.106 45.112C225.489 44.902 225.93 44.797 226.429 44.797C226.816 44.797 227.157 44.8623 227.451 44.993C227.75 45.119 227.997 45.301 228.193 45.539C228.394 45.7723 228.545 46.0547 228.648 46.386C228.751 46.7173 228.802 47.0837 228.802 47.485V52H227.556V47.485C227.556 46.9483 227.432 46.533 227.185 46.239C226.942 45.9403 226.569 45.791 226.065 45.791C225.696 45.791 225.351 45.8797 225.029 46.057C224.712 46.2343 224.418 46.4747 224.147 46.778V52H222.901ZM233.067 44.79C233.375 44.79 233.662 44.825 233.928 44.895C234.199 44.9603 234.444 45.0583 234.663 45.189H236.588V45.651C236.588 45.805 236.49 45.903 236.294 45.945L235.489 46.057C235.648 46.3603 235.727 46.6987 235.727 47.072C235.727 47.4173 235.66 47.7323 235.524 48.017C235.394 48.297 235.209 48.5373 234.971 48.738C234.738 48.9387 234.458 49.0927 234.131 49.2C233.809 49.3073 233.455 49.361 233.067 49.361C232.736 49.361 232.423 49.3213 232.129 49.242C231.98 49.3353 231.866 49.4357 231.786 49.543C231.712 49.6503 231.674 49.7553 231.674 49.858C231.674 50.026 231.742 50.1543 231.877 50.243C232.013 50.327 232.192 50.3877 232.416 50.425C232.64 50.4623 232.895 50.4857 233.179 50.495C233.464 50.5043 233.753 50.5207 234.047 50.544C234.346 50.5627 234.638 50.5977 234.922 50.649C235.207 50.7003 235.461 50.7843 235.685 50.901C235.909 51.0177 236.089 51.1787 236.224 51.384C236.36 51.5893 236.427 51.8553 236.427 52.182C236.427 52.4853 236.35 52.7793 236.196 53.064C236.047 53.3487 235.83 53.6007 235.545 53.82C235.261 54.044 234.913 54.2213 234.502 54.352C234.092 54.4873 233.627 54.555 233.109 54.555C232.591 54.555 232.136 54.5037 231.744 54.401C231.357 54.2983 231.035 54.1607 230.778 53.988C230.522 53.8153 230.328 53.6147 230.197 53.386C230.071 53.162 230.008 52.9263 230.008 52.679C230.008 52.329 230.118 52.0327 230.337 51.79C230.561 51.5427 230.867 51.3467 231.254 51.202C231.054 51.1087 230.893 50.985 230.771 50.831C230.655 50.6723 230.596 50.4623 230.596 50.201C230.596 50.0983 230.615 49.9933 230.652 49.886C230.69 49.774 230.746 49.6643 230.82 49.557C230.9 49.4497 230.995 49.347 231.107 49.249C231.219 49.151 231.35 49.0647 231.499 48.99C231.149 48.794 230.874 48.535 230.673 48.213C230.477 47.8863 230.379 47.506 230.379 47.072C230.379 46.7267 230.445 46.414 230.575 46.134C230.711 45.8493 230.897 45.609 231.135 45.413C231.373 45.2123 231.656 45.0583 231.982 44.951C232.314 44.8437 232.675 44.79 233.067 44.79ZM235.279 52.385C235.279 52.2077 235.23 52.0653 235.132 51.958C235.034 51.8507 234.901 51.769 234.733 51.713C234.565 51.6523 234.372 51.608 234.152 51.58C233.933 51.552 233.702 51.5333 233.459 51.524C233.217 51.51 232.969 51.496 232.717 51.482C232.465 51.468 232.225 51.4423 231.996 51.405C231.73 51.531 231.513 51.685 231.345 51.867C231.182 52.049 231.1 52.266 231.1 52.518C231.1 52.6767 231.14 52.8237 231.219 52.959C231.303 53.099 231.429 53.218 231.597 53.316C231.765 53.4187 231.975 53.498 232.227 53.554C232.484 53.6147 232.785 53.645 233.13 53.645C233.466 53.645 233.767 53.6147 234.033 53.554C234.299 53.4933 234.523 53.407 234.705 53.295C234.892 53.183 235.034 53.05 235.132 52.896C235.23 52.742 235.279 52.5717 235.279 52.385ZM233.067 48.535C233.319 48.535 233.541 48.5 233.732 48.43C233.928 48.36 234.092 48.262 234.222 48.136C234.353 48.01 234.451 47.8607 234.516 47.688C234.582 47.5107 234.614 47.317 234.614 47.107C234.614 46.673 234.481 46.3277 234.215 46.071C233.954 45.8143 233.571 45.686 233.067 45.686C232.568 45.686 232.185 45.8143 231.919 46.071C231.658 46.3277 231.527 46.673 231.527 47.107C231.527 47.317 231.56 47.5107 231.625 47.688C231.695 47.8607 231.796 48.01 231.926 48.136C232.057 48.262 232.218 48.36 232.409 48.43C232.601 48.5 232.82 48.535 233.067 48.535ZM241.891 46.078C241.835 46.1807 241.748 46.232 241.632 46.232C241.562 46.232 241.482 46.2063 241.394 46.155C241.305 46.1037 241.195 46.0477 241.065 45.987C240.939 45.9217 240.787 45.8633 240.61 45.812C240.432 45.756 240.222 45.728 239.98 45.728C239.77 45.728 239.581 45.756 239.413 45.812C239.245 45.8633 239.1 45.9357 238.979 46.029C238.862 46.1223 238.771 46.232 238.706 46.358C238.645 46.4793 238.615 46.6123 238.615 46.757C238.615 46.939 238.666 47.0907 238.769 47.212C238.876 47.3333 239.016 47.4383 239.189 47.527C239.361 47.6157 239.557 47.695 239.777 47.765C239.996 47.8303 240.22 47.9027 240.449 47.982C240.682 48.0567 240.908 48.1407 241.128 48.234C241.347 48.3273 241.543 48.444 241.716 48.584C241.888 48.724 242.026 48.8967 242.129 49.102C242.236 49.3027 242.29 49.5453 242.29 49.83C242.29 50.1567 242.231 50.46 242.115 50.74C241.998 51.0153 241.825 51.2557 241.597 51.461C241.368 51.6617 241.088 51.8203 240.757 51.937C240.425 52.0537 240.043 52.112 239.609 52.112C239.114 52.112 238.666 52.0327 238.265 51.874C237.863 51.7107 237.523 51.503 237.243 51.251L237.537 50.775C237.574 50.7143 237.618 50.6677 237.67 50.635C237.721 50.6023 237.789 50.586 237.873 50.586C237.957 50.586 238.045 50.6187 238.139 50.684C238.232 50.7493 238.344 50.8217 238.475 50.901C238.61 50.9803 238.771 51.0527 238.958 51.118C239.149 51.1833 239.387 51.216 239.672 51.216C239.914 51.216 240.127 51.1857 240.309 51.125C240.491 51.0597 240.642 50.9733 240.764 50.866C240.885 50.7587 240.974 50.635 241.03 50.495C241.09 50.355 241.121 50.2057 241.121 50.047C241.121 49.851 241.067 49.69 240.96 49.564C240.857 49.4333 240.719 49.3237 240.547 49.235C240.374 49.1417 240.176 49.0623 239.952 48.997C239.732 48.927 239.506 48.8547 239.273 48.78C239.044 48.7053 238.818 48.6213 238.594 48.528C238.374 48.43 238.178 48.3087 238.006 48.164C237.833 48.0193 237.693 47.842 237.586 47.632C237.483 47.4173 237.432 47.1583 237.432 46.855C237.432 46.5843 237.488 46.3253 237.6 46.078C237.712 45.826 237.875 45.6067 238.09 45.42C238.304 45.2287 238.568 45.077 238.881 44.965C239.193 44.853 239.55 44.797 239.952 44.797C240.418 44.797 240.836 44.8717 241.205 45.021C241.578 45.1657 241.9 45.3663 242.171 45.623L241.891 46.078ZM248.757 52.112C248.197 52.112 247.765 51.9557 247.462 51.643C247.163 51.3303 247.014 50.88 247.014 50.292V45.952H246.16C246.085 45.952 246.022 45.931 245.971 45.889C245.92 45.8423 245.894 45.7723 245.894 45.679V45.182L247.056 45.035L247.343 42.844C247.352 42.774 247.383 42.718 247.434 42.676C247.485 42.6293 247.551 42.606 247.63 42.606H248.26V45.049H250.29V45.952H248.26V50.208C248.26 50.5067 248.332 50.7283 248.477 50.873C248.622 51.0177 248.808 51.09 249.037 51.09C249.168 51.09 249.28 51.0737 249.373 51.041C249.471 51.0037 249.555 50.964 249.625 50.922C249.695 50.88 249.753 50.8427 249.8 50.81C249.851 50.7727 249.896 50.754 249.933 50.754C249.998 50.754 250.057 50.7937 250.108 50.873L250.472 51.468C250.257 51.6687 249.998 51.8273 249.695 51.944C249.392 52.056 249.079 52.112 248.757 52.112ZM251.831 52V41.689H253.077V45.861C253.38 45.539 253.716 45.2823 254.085 45.091C254.453 44.895 254.878 44.797 255.359 44.797C255.746 44.797 256.087 44.8623 256.381 44.993C256.679 45.119 256.927 45.301 257.123 45.539C257.323 45.7723 257.475 46.0547 257.578 46.386C257.68 46.7173 257.732 47.0837 257.732 47.485V52H256.486V47.485C256.486 46.9483 256.362 46.533 256.115 46.239C255.872 45.9403 255.499 45.791 254.995 45.791C254.626 45.791 254.281 45.8797 253.959 46.057C253.641 46.2343 253.347 46.4747 253.077 46.778V52H251.831ZM264.818 52H264.265C264.144 52 264.046 51.9813 263.971 51.944C263.896 51.9067 263.847 51.8273 263.824 51.706L263.684 51.048C263.497 51.216 263.315 51.3677 263.138 51.503C262.961 51.6337 262.774 51.7457 262.578 51.839C262.382 51.9277 262.172 51.9953 261.948 52.042C261.729 52.0887 261.484 52.112 261.213 52.112C260.938 52.112 260.679 52.0747 260.436 52C260.198 51.9207 259.99 51.804 259.813 51.65C259.636 51.496 259.493 51.3023 259.386 51.069C259.283 50.831 259.232 50.551 259.232 50.229C259.232 49.949 259.309 49.6807 259.463 49.424C259.617 49.1627 259.864 48.9317 260.205 48.731C260.55 48.5303 261.001 48.367 261.556 48.241C262.111 48.1103 262.79 48.0357 263.593 48.017V47.464C263.593 46.9133 263.474 46.498 263.236 46.218C263.003 45.9333 262.655 45.791 262.193 45.791C261.89 45.791 261.633 45.8307 261.423 45.91C261.218 45.9847 261.038 46.071 260.884 46.169C260.735 46.2623 260.604 46.3487 260.492 46.428C260.385 46.5027 260.277 46.54 260.17 46.54C260.086 46.54 260.011 46.519 259.946 46.477C259.885 46.4303 259.836 46.3743 259.799 46.309L259.575 45.91C259.967 45.532 260.389 45.2497 260.842 45.063C261.295 44.8763 261.796 44.783 262.347 44.783C262.744 44.783 263.096 44.8483 263.404 44.979C263.712 45.1097 263.971 45.2917 264.181 45.525C264.391 45.7583 264.55 46.0407 264.657 46.372C264.764 46.7033 264.818 47.0673 264.818 47.464V52ZM261.584 51.237C261.803 51.237 262.004 51.216 262.186 51.174C262.368 51.1273 262.538 51.0643 262.697 50.985C262.86 50.901 263.014 50.8007 263.159 50.684C263.308 50.5673 263.453 50.4343 263.593 50.285V48.808C263.019 48.8267 262.531 48.8733 262.13 48.948C261.729 49.018 261.402 49.1113 261.15 49.228C260.898 49.3447 260.714 49.4823 260.597 49.641C260.485 49.7997 260.429 49.977 260.429 50.173C260.429 50.3597 260.459 50.5207 260.52 50.656C260.581 50.7913 260.662 50.9033 260.765 50.992C260.868 51.076 260.989 51.139 261.129 51.181C261.269 51.2183 261.421 51.237 261.584 51.237ZM268.855 52.112C268.295 52.112 267.863 51.9557 267.56 51.643C267.261 51.3303 267.112 50.88 267.112 50.292V45.952H266.258C266.183 45.952 266.12 45.931 266.069 45.889C266.017 45.8423 265.992 45.7723 265.992 45.679V45.182L267.154 45.035L267.441 42.844C267.45 42.774 267.48 42.718 267.532 42.676C267.583 42.6293 267.648 42.606 267.728 42.606H268.358V45.049H270.388V45.952H268.358V50.208C268.358 50.5067 268.43 50.7283 268.575 50.873C268.719 51.0177 268.906 51.09 269.135 51.09C269.265 51.09 269.377 51.0737 269.471 51.041C269.569 51.0037 269.653 50.964 269.723 50.922C269.793 50.88 269.851 50.8427 269.898 50.81C269.949 50.7727 269.993 50.754 270.031 50.754C270.096 50.754 270.154 50.7937 270.206 50.873L270.57 51.468C270.355 51.6687 270.096 51.8273 269.793 51.944C269.489 52.056 269.177 52.112 268.855 52.112ZM279.843 52H279.29C279.169 52 279.071 51.9813 278.996 51.944C278.922 51.9067 278.873 51.8273 278.849 51.706L278.709 51.048C278.523 51.216 278.341 51.3677 278.163 51.503C277.986 51.6337 277.799 51.7457 277.603 51.839C277.407 51.9277 277.197 51.9953 276.973 52.042C276.754 52.0887 276.509 52.112 276.238 52.112C275.963 52.112 275.704 52.0747 275.461 52C275.223 51.9207 275.016 51.804 274.838 51.65C274.661 51.496 274.519 51.3023 274.411 51.069C274.309 50.831 274.257 50.551 274.257 50.229C274.257 49.949 274.334 49.6807 274.488 49.424C274.642 49.1627 274.89 48.9317 275.23 48.731C275.576 48.5303 276.026 48.367 276.581 48.241C277.137 48.1103 277.816 48.0357 278.618 48.017V47.464C278.618 46.9133 278.499 46.498 278.261 46.218C278.028 45.9333 277.68 45.791 277.218 45.791C276.915 45.791 276.658 45.8307 276.448 45.91C276.243 45.9847 276.063 46.071 275.909 46.169C275.76 46.2623 275.629 46.3487 275.517 46.428C275.41 46.5027 275.303 46.54 275.195 46.54C275.111 46.54 275.037 46.519 274.971 46.477C274.911 46.4303 274.862 46.3743 274.824 46.309L274.6 45.91C274.992 45.532 275.415 45.2497 275.867 45.063C276.32 44.8763 276.822 44.783 277.372 44.783C277.769 44.783 278.121 44.8483 278.429 44.979C278.737 45.1097 278.996 45.2917 279.206 45.525C279.416 45.7583 279.575 46.0407 279.682 46.372C279.79 46.7033 279.843 47.0673 279.843 47.464V52ZM276.609 51.237C276.829 51.237 277.029 51.216 277.211 51.174C277.393 51.1273 277.564 51.0643 277.722 50.985C277.886 50.901 278.04 50.8007 278.184 50.684C278.334 50.5673 278.478 50.4343 278.618 50.285V48.808C278.044 48.8267 277.557 48.8733 277.155 48.948C276.754 49.018 276.427 49.1113 276.175 49.228C275.923 49.3447 275.739 49.4823 275.622 49.641C275.51 49.7997 275.454 49.977 275.454 50.173C275.454 50.3597 275.485 50.5207 275.545 50.656C275.606 50.7913 275.688 50.9033 275.79 50.992C275.893 51.076 276.014 51.139 276.154 51.181C276.294 51.2183 276.446 51.237 276.609 51.237ZM281.731 52V44.909H282.445C282.58 44.909 282.674 44.9347 282.725 44.986C282.776 45.0373 282.811 45.126 282.83 45.252L282.914 46.358C283.157 45.8633 283.455 45.4783 283.81 45.203C284.169 44.923 284.589 44.783 285.07 44.783C285.266 44.783 285.443 44.8063 285.602 44.853C285.761 44.895 285.908 44.9557 286.043 45.035L285.882 45.966C285.849 46.0827 285.777 46.141 285.665 46.141C285.6 46.141 285.499 46.12 285.364 46.078C285.229 46.0313 285.04 46.008 284.797 46.008C284.363 46.008 283.999 46.134 283.705 46.386C283.416 46.638 283.173 47.0043 282.977 47.485V52H281.731ZM290.184 44.797C290.609 44.797 291.001 44.8693 291.36 45.014C291.72 45.154 292.03 45.3593 292.291 45.63C292.553 45.896 292.756 46.2273 292.9 46.624C293.05 47.016 293.124 47.464 293.124 47.968C293.124 48.164 293.103 48.2947 293.061 48.36C293.019 48.4253 292.94 48.458 292.823 48.458H288.105C288.115 48.906 288.175 49.2957 288.287 49.627C288.399 49.9583 288.553 50.236 288.749 50.46C288.945 50.6793 289.179 50.845 289.449 50.957C289.72 51.0643 290.023 51.118 290.359 51.118C290.672 51.118 290.94 51.083 291.164 51.013C291.393 50.9383 291.589 50.859 291.752 50.775C291.916 50.691 292.051 50.614 292.158 50.544C292.27 50.4693 292.366 50.432 292.445 50.432C292.548 50.432 292.627 50.4717 292.683 50.551L293.033 51.006C292.879 51.1927 292.695 51.356 292.48 51.496C292.266 51.6313 292.035 51.7433 291.787 51.832C291.545 51.9207 291.293 51.986 291.031 52.028C290.77 52.0747 290.511 52.098 290.254 52.098C289.764 52.098 289.312 52.0163 288.896 51.853C288.486 51.685 288.129 51.4423 287.825 51.125C287.527 50.803 287.293 50.4063 287.125 49.935C286.957 49.4637 286.873 48.9223 286.873 48.311C286.873 47.8163 286.948 47.3543 287.097 46.925C287.251 46.4957 287.471 46.1247 287.755 45.812C288.04 45.4947 288.388 45.2473 288.798 45.07C289.209 44.888 289.671 44.797 290.184 44.797ZM290.212 45.714C289.61 45.714 289.137 45.889 288.791 46.239C288.446 46.5843 288.231 47.065 288.147 47.681H292.004C292.004 47.3917 291.965 47.128 291.885 46.89C291.806 46.6473 291.689 46.4397 291.535 46.267C291.381 46.0897 291.192 45.9543 290.968 45.861C290.749 45.763 290.497 45.714 290.212 45.714ZM303.159 44.909V54.401H301.913V50.95C301.615 51.2953 301.274 51.573 300.891 51.783C300.513 51.993 300.079 52.098 299.589 52.098C299.183 52.098 298.815 52.021 298.483 51.867C298.152 51.7083 297.87 51.4773 297.636 51.174C297.403 50.8707 297.223 50.4927 297.097 50.04C296.971 49.5873 296.908 49.067 296.908 48.479C296.908 47.9563 296.978 47.471 297.118 47.023C297.258 46.5703 297.459 46.1783 297.72 45.847C297.986 45.5157 298.308 45.2567 298.686 45.07C299.064 44.8787 299.494 44.783 299.974 44.783C300.432 44.783 300.819 44.8647 301.136 45.028C301.458 45.1913 301.745 45.4223 301.997 45.721L302.081 45.168C302.128 44.9953 302.24 44.909 302.417 44.909H303.159ZM300.002 51.09C300.408 51.09 300.763 50.9967 301.066 50.81C301.374 50.6233 301.657 50.3597 301.913 50.019V46.589C301.689 46.2903 301.44 46.078 301.164 45.952C300.889 45.8213 300.586 45.756 300.254 45.756C299.592 45.756 299.083 45.9917 298.728 46.463C298.374 46.9343 298.196 47.6063 298.196 48.479C298.196 48.941 298.236 49.3377 298.315 49.669C298.395 49.9957 298.511 50.2663 298.665 50.481C298.819 50.691 299.008 50.845 299.232 50.943C299.456 51.041 299.713 51.09 300.002 51.09ZM306.325 44.909V49.431C306.325 49.9677 306.448 50.383 306.696 50.677C306.943 50.971 307.316 51.118 307.816 51.118C308.18 51.118 308.523 51.0317 308.845 50.859C309.167 50.6863 309.463 50.446 309.734 50.138V44.909H310.98V52H310.238C310.06 52 309.948 51.9137 309.902 51.741L309.804 50.978C309.496 51.3187 309.15 51.594 308.768 51.804C308.385 52.0093 307.946 52.112 307.452 52.112C307.064 52.112 306.721 52.049 306.423 51.923C306.129 51.7923 305.881 51.6103 305.681 51.377C305.48 51.1437 305.328 50.8613 305.226 50.53C305.128 50.1987 305.079 49.8323 305.079 49.431V44.909H306.325ZM314.412 44.909V52H313.166V44.909H314.412ZM314.692 42.683C314.692 42.8043 314.666 42.9187 314.615 43.026C314.568 43.1287 314.503 43.222 314.419 43.306C314.34 43.3853 314.246 43.4483 314.139 43.495C314.032 43.5417 313.917 43.565 313.796 43.565C313.675 43.565 313.56 43.5417 313.453 43.495C313.35 43.4483 313.257 43.3853 313.173 43.306C313.094 43.222 313.031 43.1287 312.984 43.026C312.937 42.9187 312.914 42.8043 312.914 42.683C312.914 42.5617 312.937 42.4473 312.984 42.34C313.031 42.228 313.094 42.1323 313.173 42.053C313.257 41.969 313.35 41.9037 313.453 41.857C313.56 41.8103 313.675 41.787 313.796 41.787C313.917 41.787 314.032 41.8103 314.139 41.857C314.246 41.9037 314.34 41.969 314.419 42.053C314.503 42.1323 314.568 42.228 314.615 42.34C314.666 42.4473 314.692 42.5617 314.692 42.683ZM318.757 52.112C318.197 52.112 317.765 51.9557 317.462 51.643C317.163 51.3303 317.014 50.88 317.014 50.292V45.952H316.16C316.085 45.952 316.022 45.931 315.971 45.889C315.92 45.8423 315.894 45.7723 315.894 45.679V45.182L317.056 45.035L317.343 42.844C317.352 42.774 317.383 42.718 317.434 42.676C317.485 42.6293 317.551 42.606 317.63 42.606H318.26V45.049H320.29V45.952H318.26V50.208C318.26 50.5067 318.332 50.7283 318.477 50.873C318.622 51.0177 318.808 51.09 319.037 51.09C319.168 51.09 319.28 51.0737 319.373 51.041C319.471 51.0037 319.555 50.964 319.625 50.922C319.695 50.88 319.753 50.8427 319.8 50.81C319.851 50.7727 319.896 50.754 319.933 50.754C319.998 50.754 320.057 50.7937 320.108 50.873L320.472 51.468C320.257 51.6687 319.998 51.8273 319.695 51.944C319.392 52.056 319.079 52.112 318.757 52.112ZM324.638 44.797C325.062 44.797 325.454 44.8693 325.814 45.014C326.173 45.154 326.483 45.3593 326.745 45.63C327.006 45.896 327.209 46.2273 327.354 46.624C327.503 47.016 327.578 47.464 327.578 47.968C327.578 48.164 327.557 48.2947 327.515 48.36C327.473 48.4253 327.393 48.458 327.277 48.458H322.559C322.568 48.906 322.629 49.2957 322.741 49.627C322.853 49.9583 323.007 50.236 323.203 50.46C323.399 50.6793 323.632 50.845 323.903 50.957C324.173 51.0643 324.477 51.118 324.813 51.118C325.125 51.118 325.394 51.083 325.618 51.013C325.846 50.9383 326.042 50.859 326.206 50.775C326.369 50.691 326.504 50.614 326.612 50.544C326.724 50.4693 326.819 50.432 326.899 50.432C327.001 50.432 327.081 50.4717 327.137 50.551L327.487 51.006C327.333 51.1927 327.148 51.356 326.934 51.496C326.719 51.6313 326.488 51.7433 326.241 51.832C325.998 51.9207 325.746 51.986 325.485 52.028C325.223 52.0747 324.964 52.098 324.708 52.098C324.218 52.098 323.765 52.0163 323.35 51.853C322.939 51.685 322.582 51.4423 322.279 51.125C321.98 50.803 321.747 50.4063 321.579 49.935C321.411 49.4637 321.327 48.9223 321.327 48.311C321.327 47.8163 321.401 47.3543 321.551 46.925C321.705 46.4957 321.924 46.1247 322.209 45.812C322.493 45.4947 322.841 45.2473 323.252 45.07C323.662 44.888 324.124 44.797 324.638 44.797ZM324.666 45.714C324.064 45.714 323.59 45.889 323.245 46.239C322.899 46.5843 322.685 47.065 322.601 47.681H326.458C326.458 47.3917 326.418 47.128 326.339 46.89C326.259 46.6473 326.143 46.4397 325.989 46.267C325.835 46.0897 325.646 45.9543 325.422 45.861C325.202 45.763 324.95 45.714 324.666 45.714ZM328.766 51.23C328.766 51.1087 328.787 50.9943 328.829 50.887C328.876 50.7797 328.937 50.6863 329.011 50.607C329.091 50.5277 329.184 50.4647 329.291 50.418C329.399 50.3713 329.513 50.348 329.634 50.348C329.756 50.348 329.87 50.3713 329.977 50.418C330.085 50.4647 330.178 50.5277 330.257 50.607C330.337 50.6863 330.397 50.7797 330.439 50.887C330.486 50.9943 330.509 51.1087 330.509 51.23C330.509 51.356 330.486 51.4727 330.439 51.58C330.397 51.6827 330.337 51.7737 330.257 51.853C330.178 51.9323 330.085 51.993 329.977 52.035C329.87 52.0817 329.756 52.105 329.634 52.105C329.513 52.105 329.399 52.0817 329.291 52.035C329.184 51.993 329.091 51.9323 329.011 51.853C328.937 51.7737 328.876 51.6827 328.829 51.58C328.787 51.4727 328.766 51.356 328.766 51.23ZM331.733 51.23C331.733 51.1087 331.754 50.9943 331.796 50.887C331.843 50.7797 331.904 50.6863 331.978 50.607C332.058 50.5277 332.151 50.4647 332.258 50.418C332.366 50.3713 332.48 50.348 332.601 50.348C332.723 50.348 332.837 50.3713 332.944 50.418C333.052 50.4647 333.145 50.5277 333.224 50.607C333.304 50.6863 333.364 50.7797 333.406 50.887C333.453 50.9943 333.476 51.1087 333.476 51.23C333.476 51.356 333.453 51.4727 333.406 51.58C333.364 51.6827 333.304 51.7737 333.224 51.853C333.145 51.9323 333.052 51.993 332.944 52.035C332.837 52.0817 332.723 52.105 332.601 52.105C332.48 52.105 332.366 52.0817 332.258 52.035C332.151 51.993 332.058 51.9323 331.978 51.853C331.904 51.7737 331.843 51.6827 331.796 51.58C331.754 51.4727 331.733 51.356 331.733 51.23ZM334.7 51.23C334.7 51.1087 334.721 50.9943 334.763 50.887C334.81 50.7797 334.87 50.6863 334.945 50.607C335.024 50.5277 335.118 50.4647 335.225 50.418C335.332 50.3713 335.447 50.348 335.568 50.348C335.689 50.348 335.804 50.3713 335.911 50.418C336.018 50.4647 336.112 50.5277 336.191 50.607C336.27 50.6863 336.331 50.7797 336.373 50.887C336.42 50.9943 336.443 51.1087 336.443 51.23C336.443 51.356 336.42 51.4727 336.373 51.58C336.331 51.6827 336.27 51.7737 336.191 51.853C336.112 51.9323 336.018 51.993 335.911 52.035C335.804 52.0817 335.689 52.105 335.568 52.105C335.447 52.105 335.332 52.0817 335.225 52.035C335.118 51.993 335.024 51.9323 334.945 51.853C334.87 51.7737 334.81 51.6827 334.763 51.58C334.721 51.4727 334.7 51.356 334.7 51.23Z" fill="#828282"/>
<path d="M75.104 26.8C75.1833 26.9493 75.2557 27.1057 75.321 27.269C75.391 27.4277 75.4587 27.5887 75.524 27.752C75.5893 27.584 75.657 27.4183 75.727 27.255C75.797 27.0917 75.8717 26.9353 75.951 26.786L78.947 21.179C78.9843 21.109 79.0217 21.053 79.059 21.011C79.101 20.969 79.1453 20.9387 79.192 20.92C79.2433 20.9013 79.2993 20.8897 79.36 20.885C79.4207 20.8803 79.493 20.878 79.577 20.878H80.998V31H79.339V24.462C79.339 24.3407 79.3413 24.2077 79.346 24.063C79.3553 23.9183 79.367 23.7713 79.381 23.622L76.322 29.362C76.252 29.4927 76.161 29.5953 76.049 29.67C75.937 29.74 75.8063 29.775 75.657 29.775H75.398C75.2487 29.775 75.118 29.74 75.006 29.67C74.894 29.5953 74.803 29.4927 74.733 29.362L71.632 23.601C71.6507 23.755 71.6623 23.9067 71.667 24.056C71.6763 24.2007 71.681 24.336 71.681 24.462V31H70.022V20.878H71.443C71.527 20.878 71.5993 20.8803 71.66 20.885C71.7207 20.8897 71.7743 20.9013 71.821 20.92C71.8723 20.9387 71.919 20.969 71.961 21.011C72.003 21.053 72.0427 21.109 72.08 21.179L75.104 26.8ZM88.5676 31H87.7906C87.6273 31 87.499 30.9767 87.4056 30.93C87.3123 30.8787 87.2423 30.7783 87.1956 30.629L87.0416 30.118C86.8596 30.2813 86.68 30.426 86.5026 30.552C86.33 30.6733 86.1503 30.776 85.9636 30.86C85.777 30.944 85.5786 31.007 85.3686 31.049C85.1586 31.091 84.9253 31.112 84.6686 31.112C84.3653 31.112 84.0853 31.0723 83.8286 30.993C83.572 30.909 83.3503 30.7853 83.1636 30.622C82.9816 30.4587 82.8393 30.2557 82.7366 30.013C82.634 29.7703 82.5826 29.488 82.5826 29.166C82.5826 28.8953 82.6526 28.6293 82.7926 28.368C82.9373 28.102 83.1753 27.864 83.5066 27.654C83.838 27.4393 84.279 27.262 84.8296 27.122C85.3803 26.982 86.064 26.9027 86.8806 26.884V26.464C86.8806 25.9833 86.778 25.6287 86.5726 25.4C86.372 25.1667 86.078 25.05 85.6906 25.05C85.4106 25.05 85.1773 25.0827 84.9906 25.148C84.804 25.2133 84.6406 25.288 84.5006 25.372C84.3653 25.4513 84.2393 25.5237 84.1226 25.589C84.006 25.6543 83.8776 25.687 83.7376 25.687C83.621 25.687 83.5206 25.6567 83.4366 25.596C83.3526 25.5353 83.285 25.4607 83.2336 25.372L82.9186 24.819C83.7446 24.063 84.741 23.685 85.9076 23.685C86.3276 23.685 86.701 23.755 87.0276 23.895C87.359 24.0303 87.639 24.2217 87.8676 24.469C88.0963 24.7117 88.269 25.0033 88.3856 25.344C88.507 25.6847 88.5676 26.058 88.5676 26.464V31ZM85.2076 29.922C85.385 29.922 85.5483 29.9057 85.6976 29.873C85.847 29.8403 85.987 29.7913 86.1176 29.726C86.253 29.6607 86.3813 29.5813 86.5026 29.488C86.6286 29.39 86.7546 29.2757 86.8806 29.145V27.934C86.3766 27.9573 85.9543 28.0017 85.6136 28.067C85.2776 28.1277 85.007 28.207 84.8016 28.305C84.5963 28.403 84.4493 28.5173 84.3606 28.648C84.2766 28.7787 84.2346 28.921 84.2346 29.075C84.2346 29.3783 84.3233 29.5953 84.5006 29.726C84.6826 29.8567 84.9183 29.922 85.2076 29.922ZM90.2677 31V23.818H91.2828C91.4601 23.818 91.5838 23.8507 91.6538 23.916C91.7238 23.9813 91.7704 24.0933 91.7938 24.252L91.8988 25.12C92.1554 24.6767 92.4564 24.3267 92.8018 24.07C93.1471 23.8133 93.5344 23.685 93.9638 23.685C94.3184 23.685 94.6124 23.7667 94.8458 23.93L94.6218 25.225C94.6078 25.309 94.5774 25.3697 94.5308 25.407C94.4841 25.4397 94.4211 25.456 94.3418 25.456C94.2718 25.456 94.1761 25.4397 94.0548 25.407C93.9334 25.3743 93.7724 25.358 93.5718 25.358C93.2124 25.358 92.9044 25.4583 92.6478 25.659C92.3911 25.855 92.1741 26.1443 91.9968 26.527V31H90.2677ZM97.8236 20.598V31H96.0946V20.598H97.8236ZM102.751 23.706C103.204 23.706 103.619 23.7783 103.997 23.923C104.38 24.0677 104.709 24.28 104.984 24.56C105.26 24.8353 105.474 25.176 105.628 25.582C105.782 25.9833 105.859 26.443 105.859 26.961C105.859 27.0917 105.852 27.2013 105.838 27.29C105.829 27.374 105.808 27.4417 105.775 27.493C105.747 27.5397 105.708 27.5747 105.656 27.598C105.605 27.6167 105.54 27.626 105.46 27.626H101.022C101.074 28.3633 101.272 28.9047 101.617 29.25C101.963 29.5953 102.42 29.768 102.989 29.768C103.269 29.768 103.51 29.7353 103.71 29.67C103.916 29.6047 104.093 29.5323 104.242 29.453C104.396 29.3737 104.529 29.3013 104.641 29.236C104.758 29.1707 104.87 29.138 104.977 29.138C105.047 29.138 105.108 29.152 105.159 29.18C105.211 29.208 105.255 29.2477 105.292 29.299L105.796 29.929C105.605 30.153 105.39 30.342 105.152 30.496C104.914 30.6453 104.665 30.7667 104.403 30.86C104.147 30.9487 103.883 31.0117 103.612 31.049C103.346 31.0863 103.087 31.105 102.835 31.105C102.336 31.105 101.872 31.0233 101.442 30.86C101.013 30.692 100.64 30.447 100.322 30.125C100.005 29.7983 99.7554 29.397 99.5734 28.921C99.3914 28.4403 99.3004 27.885 99.3004 27.255C99.3004 26.765 99.3797 26.3053 99.5384 25.876C99.697 25.442 99.9234 25.0663 100.217 24.749C100.516 24.427 100.878 24.1727 101.302 23.986C101.732 23.7993 102.215 23.706 102.751 23.706ZM102.786 24.945C102.282 24.945 101.888 25.0873 101.603 25.372C101.319 25.6567 101.137 26.0603 101.057 26.583H104.305C104.305 26.359 104.275 26.149 104.214 25.953C104.154 25.7523 104.06 25.5773 103.934 25.428C103.808 25.2787 103.65 25.162 103.458 25.078C103.267 24.9893 103.043 24.945 102.786 24.945ZM109.577 32.974C109.526 33.0953 109.458 33.1863 109.374 33.247C109.295 33.3123 109.171 33.345 109.003 33.345H107.715L109.059 30.468L106.154 23.818H107.666C107.806 23.818 107.914 23.8507 107.988 23.916C108.063 23.9813 108.119 24.056 108.156 24.14L109.689 27.864C109.741 27.9853 109.785 28.1113 109.822 28.242C109.86 28.3727 109.892 28.5033 109.92 28.634C109.958 28.4987 109.997 28.368 110.039 28.242C110.086 28.116 110.135 27.9877 110.186 27.857L111.628 24.14C111.666 24.0467 111.726 23.9697 111.81 23.909C111.899 23.8483 111.997 23.818 112.104 23.818H113.49L109.577 32.974Z" fill="#1A1C1D"/>
<path d="M128.6 26.204C128.6 26.956 128.518 27.608 128.354 28.16C128.194 28.708 127.974 29.162 127.694 29.522C127.414 29.882 127.082 30.15 126.698 30.326C126.318 30.502 125.91 30.59 125.474 30.59C125.034 30.59 124.624 30.502 124.244 30.326C123.868 30.15 123.54 29.882 123.26 29.522C122.98 29.162 122.76 28.708 122.6 28.16C122.44 27.608 122.36 26.956 122.36 26.204C122.36 25.452 122.44 24.8 122.6 24.248C122.76 23.696 122.98 23.24 123.26 22.88C123.54 22.516 123.868 22.246 124.244 22.07C124.624 21.894 125.034 21.806 125.474 21.806C125.91 21.806 126.318 21.894 126.698 22.07C127.082 22.246 127.414 22.516 127.694 22.88C127.974 23.24 128.194 23.696 128.354 24.248C128.518 24.8 128.6 25.452 128.6 26.204ZM127.49 26.204C127.49 25.548 127.434 24.998 127.322 24.554C127.214 24.106 127.066 23.746 126.878 23.474C126.694 23.202 126.48 23.008 126.236 22.892C125.992 22.772 125.738 22.712 125.474 22.712C125.21 22.712 124.956 22.772 124.712 22.892C124.468 23.008 124.254 23.202 124.07 23.474C123.886 23.746 123.738 24.106 123.626 24.554C123.518 24.998 123.464 25.548 123.464 26.204C123.464 26.86 123.518 27.41 123.626 27.854C123.738 28.298 123.886 28.656 124.07 28.928C124.254 29.2 124.468 29.396 124.712 29.516C124.956 29.632 125.21 29.69 125.474 29.69C125.738 29.69 125.992 29.632 126.236 29.516C126.48 29.396 126.694 29.2 126.878 28.928C127.066 28.656 127.214 28.298 127.322 27.854C127.434 27.41 127.49 26.86 127.49 26.204ZM132.435 30.596C132.007 30.596 131.615 30.54 131.259 30.428C130.903 30.312 130.597 30.148 130.341 29.936C130.085 29.724 129.887 29.468 129.747 29.168C129.607 28.864 129.537 28.524 129.537 28.148C129.537 27.596 129.681 27.142 129.969 26.786C130.257 26.426 130.669 26.17 131.205 26.018C130.753 25.85 130.411 25.6 130.179 25.268C129.951 24.932 129.837 24.532 129.837 24.068C129.837 23.752 129.899 23.456 130.023 23.18C130.147 22.904 130.323 22.664 130.551 22.46C130.779 22.256 131.051 22.096 131.367 21.98C131.687 21.864 132.043 21.806 132.435 21.806C132.823 21.806 133.177 21.864 133.497 21.98C133.817 22.096 134.091 22.256 134.319 22.46C134.547 22.664 134.723 22.904 134.847 23.18C134.971 23.456 135.033 23.752 135.033 24.068C135.033 24.532 134.917 24.932 134.685 25.268C134.453 25.6 134.113 25.85 133.665 26.018C134.201 26.17 134.613 26.426 134.901 26.786C135.189 27.142 135.333 27.596 135.333 28.148C135.333 28.524 135.261 28.864 135.117 29.168C134.977 29.468 134.779 29.724 134.523 29.936C134.271 30.148 133.967 30.312 133.611 30.428C133.255 30.54 132.863 30.596 132.435 30.596ZM132.435 29.744C132.715 29.744 132.965 29.706 133.185 29.63C133.409 29.55 133.597 29.44 133.749 29.3C133.905 29.156 134.023 28.986 134.103 28.79C134.187 28.59 134.229 28.37 134.229 28.13C134.229 27.834 134.179 27.582 134.079 27.374C133.983 27.162 133.851 26.99 133.683 26.858C133.519 26.726 133.329 26.63 133.113 26.57C132.897 26.506 132.671 26.474 132.435 26.474C132.199 26.474 131.973 26.506 131.757 26.57C131.541 26.63 131.349 26.726 131.181 26.858C131.017 26.99 130.885 27.162 130.785 27.374C130.689 27.582 130.641 27.834 130.641 28.13C130.641 28.37 130.681 28.59 130.761 28.79C130.845 28.986 130.963 29.156 131.115 29.3C131.271 29.44 131.459 29.55 131.679 29.63C131.903 29.706 132.155 29.744 132.435 29.744ZM132.435 25.616C132.715 25.616 132.953 25.574 133.149 25.49C133.349 25.402 133.511 25.288 133.635 25.148C133.759 25.004 133.849 24.84 133.905 24.656C133.961 24.472 133.989 24.282 133.989 24.086C133.989 23.886 133.955 23.698 133.887 23.522C133.823 23.346 133.725 23.192 133.593 23.06C133.465 22.928 133.303 22.824 133.107 22.748C132.915 22.672 132.691 22.634 132.435 22.634C132.179 22.634 131.953 22.672 131.757 22.748C131.565 22.824 131.403 22.928 131.271 23.06C131.143 23.192 131.045 23.346 130.977 23.522C130.913 23.698 130.881 23.886 130.881 24.086C130.881 24.282 130.909 24.472 130.965 24.656C131.021 24.84 131.111 25.004 131.235 25.148C131.359 25.288 131.519 25.402 131.715 25.49C131.915 25.574 132.155 25.616 132.435 25.616ZM136.69 29.84C136.69 29.736 136.708 29.638 136.744 29.546C136.784 29.454 136.836 29.374 136.9 29.306C136.968 29.238 137.048 29.184 137.14 29.144C137.232 29.104 137.33 29.084 137.434 29.084C137.538 29.084 137.636 29.104 137.728 29.144C137.82 29.184 137.9 29.238 137.968 29.306C138.036 29.374 138.088 29.454 138.124 29.546C138.164 29.638 138.184 29.736 138.184 29.84C138.184 29.948 138.164 30.048 138.124 30.14C138.088 30.228 138.036 30.306 137.968 30.374C137.9 30.442 137.82 30.494 137.728 30.53C137.636 30.57 137.538 30.59 137.434 30.59C137.33 30.59 137.232 30.57 137.14 30.53C137.048 30.494 136.968 30.442 136.9 30.374C136.836 30.306 136.784 30.228 136.744 30.14C136.708 30.048 136.69 29.948 136.69 29.84ZM136.69 25.34C136.69 25.236 136.708 25.138 136.744 25.046C136.784 24.954 136.836 24.874 136.9 24.806C136.968 24.738 137.048 24.684 137.14 24.644C137.232 24.604 137.33 24.584 137.434 24.584C137.538 24.584 137.636 24.604 137.728 24.644C137.82 24.684 137.9 24.738 137.968 24.806C138.036 24.874 138.088 24.954 138.124 25.046C138.164 25.138 138.184 25.236 138.184 25.34C138.184 25.448 138.164 25.548 138.124 25.64C138.088 25.728 138.036 25.806 137.968 25.874C137.9 25.942 137.82 25.996 137.728 26.036C137.636 26.072 137.538 26.09 137.434 26.09C137.33 26.09 137.232 26.072 137.14 26.036C137.048 25.996 136.968 25.942 136.9 25.874C136.836 25.806 136.784 25.728 136.744 25.64C136.708 25.548 136.69 25.448 136.69 25.34ZM144.813 22.37C144.813 22.522 144.765 22.648 144.669 22.748C144.573 22.844 144.411 22.892 144.183 22.892H141.483L141.087 25.148C141.535 25.052 141.949 25.004 142.329 25.004C142.777 25.004 143.171 25.07 143.511 25.202C143.855 25.334 144.143 25.516 144.375 25.748C144.607 25.98 144.781 26.254 144.897 26.57C145.017 26.886 145.077 27.23 145.077 27.602C145.077 28.058 144.997 28.47 144.837 28.838C144.677 29.206 144.457 29.522 144.177 29.786C143.901 30.046 143.575 30.246 143.199 30.386C142.823 30.526 142.417 30.596 141.981 30.596C141.729 30.596 141.487 30.57 141.255 30.518C141.023 30.47 140.807 30.404 140.607 30.32C140.407 30.236 140.221 30.14 140.049 30.032C139.877 29.924 139.725 29.81 139.593 29.69L139.917 29.234C139.989 29.13 140.085 29.078 140.205 29.078C140.281 29.078 140.369 29.11 140.469 29.174C140.573 29.234 140.697 29.302 140.841 29.378C140.985 29.454 141.153 29.524 141.345 29.588C141.541 29.648 141.773 29.678 142.041 29.678C142.341 29.678 142.611 29.63 142.851 29.534C143.091 29.438 143.295 29.302 143.463 29.126C143.635 28.946 143.767 28.732 143.859 28.484C143.951 28.236 143.997 27.958 143.997 27.65C143.997 27.382 143.957 27.14 143.877 26.924C143.801 26.708 143.683 26.524 143.523 26.372C143.367 26.22 143.171 26.102 142.935 26.018C142.699 25.934 142.423 25.892 142.107 25.892C141.891 25.892 141.667 25.91 141.435 25.946C141.203 25.982 140.963 26.04 140.715 26.12L140.043 25.922L140.739 21.902H144.813V22.37ZM149.38 30.596C148.952 30.596 148.56 30.54 148.204 30.428C147.848 30.312 147.542 30.148 147.286 29.936C147.03 29.724 146.832 29.468 146.692 29.168C146.552 28.864 146.482 28.524 146.482 28.148C146.482 27.596 146.626 27.142 146.914 26.786C147.202 26.426 147.614 26.17 148.15 26.018C147.698 25.85 147.356 25.6 147.124 25.268C146.896 24.932 146.782 24.532 146.782 24.068C146.782 23.752 146.844 23.456 146.968 23.18C147.092 22.904 147.268 22.664 147.496 22.46C147.724 22.256 147.996 22.096 148.312 21.98C148.632 21.864 148.988 21.806 149.38 21.806C149.768 21.806 150.122 21.864 150.442 21.98C150.762 22.096 151.036 22.256 151.264 22.46C151.492 22.664 151.668 22.904 151.792 23.18C151.916 23.456 151.978 23.752 151.978 24.068C151.978 24.532 151.862 24.932 151.63 25.268C151.398 25.6 151.058 25.85 150.61 26.018C151.146 26.17 151.558 26.426 151.846 26.786C152.134 27.142 152.278 27.596 152.278 28.148C152.278 28.524 152.206 28.864 152.062 29.168C151.922 29.468 151.724 29.724 151.468 29.936C151.216 30.148 150.912 30.312 150.556 30.428C150.2 30.54 149.808 30.596 149.38 30.596ZM149.38 29.744C149.66 29.744 149.91 29.706 150.13 29.63C150.354 29.55 150.542 29.44 150.694 29.3C150.85 29.156 150.968 28.986 151.048 28.79C151.132 28.59 151.174 28.37 151.174 28.13C151.174 27.834 151.124 27.582 151.024 27.374C150.928 27.162 150.796 26.99 150.628 26.858C150.464 26.726 150.274 26.63 150.058 26.57C149.842 26.506 149.616 26.474 149.38 26.474C149.144 26.474 148.918 26.506 148.702 26.57C148.486 26.63 148.294 26.726 148.126 26.858C147.962 26.99 147.83 27.162 147.73 27.374C147.634 27.582 147.586 27.834 147.586 28.13C147.586 28.37 147.626 28.59 147.706 28.79C147.79 28.986 147.908 29.156 148.06 29.3C148.216 29.44 148.404 29.55 148.624 29.63C148.848 29.706 149.1 29.744 149.38 29.744ZM149.38 25.616C149.66 25.616 149.898 25.574 150.094 25.49C150.294 25.402 150.456 25.288 150.58 25.148C150.704 25.004 150.794 24.84 150.85 24.656C150.906 24.472 150.934 24.282 150.934 24.086C150.934 23.886 150.9 23.698 150.832 23.522C150.768 23.346 150.67 23.192 150.538 23.06C150.41 22.928 150.248 22.824 150.052 22.748C149.86 22.672 149.636 22.634 149.38 22.634C149.124 22.634 148.898 22.672 148.702 22.748C148.51 22.824 148.348 22.928 148.216 23.06C148.088 23.192 147.99 23.346 147.922 23.522C147.858 23.698 147.826 23.886 147.826 24.086C147.826 24.282 147.854 24.472 147.91 24.656C147.966 24.84 148.056 25.004 148.18 25.148C148.304 25.288 148.464 25.402 148.66 25.49C148.86 25.574 149.1 25.616 149.38 25.616Z" fill="#828282"/>
<rect x="17" y="18" width="36" height="36" rx="8" fill="#1FA491" fill-opacity="0.5"/>
<path d="M34.4044 36.672C34.511 36.8747 34.6124 37.0853 34.7084 37.304C34.8097 37.5227 34.9057 37.7467 34.9964 37.976C35.087 37.7413 35.183 37.5147 35.2844 37.296C35.3857 37.072 35.4897 36.856 35.5964 36.648L38.5884 30.76C38.6417 30.6587 38.695 30.5813 38.7484 30.528C38.807 30.4693 38.871 30.4267 38.9404 30.4C39.0097 30.3733 39.087 30.3573 39.1724 30.352C39.263 30.3467 39.367 30.344 39.4844 30.344H41.5484V42H39.1644V35.296C39.1644 34.9707 39.1804 34.6187 39.2124 34.24L36.1244 40.232C36.0284 40.4187 35.8977 40.56 35.7324 40.656C35.5724 40.752 35.3884 40.8 35.1804 40.8H34.8124C34.6044 40.8 34.4177 40.752 34.2524 40.656C34.0924 40.56 33.9644 40.4187 33.8684 40.232L30.7644 34.232C30.7857 34.4187 30.8017 34.6053 30.8124 34.792C30.823 34.9733 30.8284 35.1413 30.8284 35.296V42H28.4444V30.344H30.5084C30.6257 30.344 30.727 30.3467 30.8124 30.352C30.903 30.3573 30.983 30.3733 31.0524 30.4C31.1217 30.4267 31.183 30.4693 31.2364 30.528C31.295 30.5813 31.351 30.6587 31.4044 30.76L34.4044 36.672Z" fill="white"/>
<path d="M1 1V0H0V1H1ZM376 1H377V0H376V1ZM376 71V72H377V71H376ZM1 71H0V72H1V71ZM1 2H376V0H1V2ZM375 1V71H377V1H375ZM376 70H1V72H376V70ZM2 71V1H0V71H2Z" fill="#F3F4F9"/>
</svg>
