<svg width="377" height="72" viewBox="0 0 377 72" fill="none" xmlns="http://www.w3.org/2000/svg">
<path d="M1 1H376V71H1V1Z" fill="white"/>
<path d="M71.828 52H70.47V41.969H71.828V52ZM76.098 44.909H77.078C77.1807 44.909 77.2647 44.9347 77.33 44.986C77.3953 45.0373 77.4397 45.098 77.463 45.168L78.821 49.732C78.8583 49.9 78.8933 50.0633 78.926 50.222C78.9587 50.376 78.9867 50.5323 79.01 50.691C79.0473 50.5323 79.0893 50.376 79.136 50.222C79.1827 50.0633 79.2317 49.9 79.283 49.732L80.781 45.14C80.8043 45.07 80.844 45.0117 80.9 44.965C80.9607 44.9183 81.0353 44.895 81.124 44.895H81.663C81.7563 44.895 81.8333 44.9183 81.894 44.965C81.9547 45.0117 81.9967 45.07 82.02 45.14L83.483 49.732C83.5343 49.8953 83.5787 50.0563 83.616 50.215C83.658 50.3737 83.6977 50.53 83.735 50.684C83.7583 50.53 83.7887 50.369 83.826 50.201C83.8633 50.033 83.903 49.8767 83.945 49.732L85.331 45.168C85.3543 45.0933 85.3987 45.0327 85.464 44.986C85.5293 44.9347 85.6063 44.909 85.695 44.909H86.633L84.337 52H83.35C83.2287 52 83.1447 51.9207 83.098 51.762L81.53 46.953C81.4927 46.8457 81.4623 46.7383 81.439 46.631C81.4157 46.519 81.3923 46.4093 81.369 46.302C81.3457 46.4093 81.3223 46.519 81.299 46.631C81.2757 46.743 81.2453 46.8527 81.208 46.96L79.619 51.762C79.5677 51.9207 79.472 52 79.332 52H78.394L76.098 44.909ZM92.9488 52H92.3958C92.2744 52 92.1764 51.9813 92.1018 51.944C92.0271 51.9067 91.9781 51.8273 91.9548 51.706L91.8148 51.048C91.6281 51.216 91.4461 51.3677 91.2688 51.503C91.0914 51.6337 90.9048 51.7457 90.7088 51.839C90.5128 51.9277 90.3028 51.9953 90.0788 52.042C89.8594 52.0887 89.6144 52.112 89.3438 52.112C89.0684 52.112 88.8094 52.0747 88.5667 52C88.3288 51.9207 88.1211 51.804 87.9438 51.65C87.7664 51.496 87.6241 51.3023 87.5168 51.069C87.4141 50.831 87.3628 50.551 87.3628 50.229C87.3628 49.949 87.4398 49.6807 87.5938 49.424C87.7478 49.1627 87.9951 48.9317 88.3358 48.731C88.6811 48.5303 89.1314 48.367 89.6868 48.241C90.2421 48.1103 90.9211 48.0357 91.7238 48.017V47.464C91.7238 46.9133 91.6048 46.498 91.3668 46.218C91.1334 45.9333 90.7858 45.791 90.3238 45.791C90.0204 45.791 89.7638 45.8307 89.5538 45.91C89.3484 45.9847 89.1688 46.071 89.0148 46.169C88.8654 46.2623 88.7348 46.3487 88.6228 46.428C88.5154 46.5027 88.4081 46.54 88.3008 46.54C88.2168 46.54 88.1421 46.519 88.0768 46.477C88.0161 46.4303 87.9671 46.3743 87.9298 46.309L87.7058 45.91C88.0978 45.532 88.5201 45.2497 88.9728 45.063C89.4254 44.8763 89.9271 44.783 90.4778 44.783C90.8744 44.783 91.2268 44.8483 91.5348 44.979C91.8428 45.1097 92.1018 45.2917 92.3118 45.525C92.5218 45.7583 92.6804 46.0407 92.7878 46.372C92.8951 46.7033 92.9488 47.0673 92.9488 47.464V52ZM89.7148 51.237C89.9341 51.237 90.1348 51.216 90.3167 51.174C90.4988 51.1273 90.6691 51.0643 90.8278 50.985C90.9911 50.901 91.1451 50.8007 91.2898 50.684C91.4391 50.5673 91.5838 50.4343 91.7238 50.285V48.808C91.1498 48.8267 90.6621 48.8733 90.2608 48.948C89.8594 49.018 89.5328 49.1113 89.2808 49.228C89.0288 49.3447 88.8444 49.4823 88.7278 49.641C88.6158 49.7997 88.5598 49.977 88.5598 50.173C88.5598 50.3597 88.5901 50.5207 88.6508 50.656C88.7114 50.7913 88.7931 50.9033 88.8958 50.992C88.9984 51.076 89.1198 51.139 89.2598 51.181C89.3998 51.2183 89.5514 51.237 89.7148 51.237ZM94.8365 52V44.909H95.5785C95.7558 44.909 95.8678 44.9953 95.9145 45.168L96.0125 45.938C96.3205 45.5973 96.6635 45.322 97.0415 45.112C97.4241 44.902 97.8651 44.797 98.3645 44.797C98.7518 44.797 99.0925 44.8623 99.3865 44.993C99.6851 45.119 99.9325 45.301 100.128 45.539C100.329 45.7723 100.481 46.0547 100.583 46.386C100.686 46.7173 100.737 47.0837 100.737 47.485V52H99.4915V47.485C99.4915 46.9483 99.3678 46.533 99.1205 46.239C98.8778 45.9403 98.5045 45.791 98.0005 45.791C97.6318 45.791 97.2865 45.8797 96.9645 46.057C96.6471 46.2343 96.3531 46.4747 96.0825 46.778V52H94.8365ZM104.765 52.112C104.205 52.112 103.773 51.9557 103.47 51.643C103.171 51.3303 103.022 50.88 103.022 50.292V45.952H102.168C102.093 45.952 102.03 45.931 101.979 45.889C101.927 45.8423 101.902 45.7723 101.902 45.679V45.182L103.064 45.035L103.351 42.844C103.36 42.774 103.39 42.718 103.442 42.676C103.493 42.6293 103.558 42.606 103.638 42.606H104.268V45.049H106.298V45.952H104.268V50.208C104.268 50.5067 104.34 50.7283 104.485 50.873C104.629 51.0177 104.816 51.09 105.045 51.09C105.175 51.09 105.287 51.0737 105.381 51.041C105.479 51.0037 105.563 50.964 105.633 50.922C105.703 50.88 105.761 50.8427 105.808 50.81C105.859 50.7727 105.903 50.754 105.941 50.754C106.006 50.754 106.064 50.7937 106.116 50.873L106.48 51.468C106.265 51.6687 106.006 51.8273 105.703 51.944C105.399 52.056 105.087 52.112 104.765 52.112ZM112.694 52.112C112.134 52.112 111.703 51.9557 111.399 51.643C111.101 51.3303 110.951 50.88 110.951 50.292V45.952H110.097C110.023 45.952 109.96 45.931 109.908 45.889C109.857 45.8423 109.831 45.7723 109.831 45.679V45.182L110.993 45.035L111.28 42.844C111.29 42.774 111.32 42.718 111.371 42.676C111.423 42.6293 111.488 42.606 111.567 42.606H112.197V45.049H114.227V45.952H112.197V50.208C112.197 50.5067 112.27 50.7283 112.414 50.873C112.559 51.0177 112.746 51.09 112.974 51.09C113.105 51.09 113.217 51.0737 113.31 51.041C113.408 51.0037 113.492 50.964 113.562 50.922C113.632 50.88 113.691 50.8427 113.737 50.81C113.789 50.7727 113.833 50.754 113.87 50.754C113.936 50.754 113.994 50.7937 114.045 50.873L114.409 51.468C114.195 51.6687 113.936 51.8273 113.632 51.944C113.329 52.056 113.016 52.112 112.694 52.112ZM118.638 44.797C119.156 44.797 119.623 44.8833 120.038 45.056C120.458 45.2287 120.813 45.4737 121.102 45.791C121.396 46.1083 121.62 46.4933 121.774 46.946C121.933 47.394 122.012 47.8957 122.012 48.451C122.012 49.011 121.933 49.515 121.774 49.963C121.62 50.411 121.396 50.7937 121.102 51.111C120.813 51.4283 120.458 51.6733 120.038 51.846C119.623 52.014 119.156 52.098 118.638 52.098C118.12 52.098 117.651 52.014 117.231 51.846C116.816 51.6733 116.461 51.4283 116.167 51.111C115.873 50.7937 115.647 50.411 115.488 49.963C115.329 49.515 115.25 49.011 115.25 48.451C115.25 47.8957 115.329 47.394 115.488 46.946C115.647 46.4933 115.873 46.1083 116.167 45.791C116.461 45.4737 116.816 45.2287 117.231 45.056C117.651 44.8833 118.12 44.797 118.638 44.797ZM118.638 51.125C119.338 51.125 119.861 50.8917 120.206 50.425C120.551 49.9537 120.724 49.298 120.724 48.458C120.724 47.6133 120.551 46.9553 120.206 46.484C119.861 46.0127 119.338 45.777 118.638 45.777C118.283 45.777 117.975 45.8377 117.714 45.959C117.453 46.0803 117.233 46.2553 117.056 46.484C116.883 46.7127 116.753 46.995 116.664 47.331C116.58 47.6623 116.538 48.038 116.538 48.458C116.538 48.878 116.58 49.2537 116.664 49.585C116.753 49.9163 116.883 50.1963 117.056 50.425C117.233 50.649 117.453 50.8217 117.714 50.943C117.975 51.0643 118.283 51.125 118.638 51.125ZM128.403 52.112C127.843 52.112 127.412 51.9557 127.108 51.643C126.81 51.3303 126.66 50.88 126.66 50.292V45.952H125.806C125.732 45.952 125.669 45.931 125.617 45.889C125.566 45.8423 125.54 45.7723 125.54 45.679V45.182L126.702 45.035L126.989 42.844C126.999 42.774 127.029 42.718 127.08 42.676C127.132 42.6293 127.197 42.606 127.276 42.606H127.906V45.049H129.936V45.952H127.906V50.208C127.906 50.5067 127.979 50.7283 128.123 50.873C128.268 51.0177 128.455 51.09 128.683 51.09C128.814 51.09 128.926 51.0737 129.019 51.041C129.117 51.0037 129.201 50.964 129.271 50.922C129.341 50.88 129.4 50.8427 129.446 50.81C129.498 50.7727 129.542 50.754 129.579 50.754C129.645 50.754 129.703 50.7937 129.754 50.873L130.118 51.468C129.904 51.6687 129.645 51.8273 129.341 51.944C129.038 52.056 128.725 52.112 128.403 52.112ZM136.685 52H136.132C136.011 52 135.913 51.9813 135.838 51.944C135.763 51.9067 135.714 51.8273 135.691 51.706L135.551 51.048C135.364 51.216 135.182 51.3677 135.005 51.503C134.828 51.6337 134.641 51.7457 134.445 51.839C134.249 51.9277 134.039 51.9953 133.815 52.042C133.596 52.0887 133.351 52.112 133.08 52.112C132.805 52.112 132.546 52.0747 132.303 52C132.065 51.9207 131.857 51.804 131.68 51.65C131.503 51.496 131.36 51.3023 131.253 51.069C131.15 50.831 131.099 50.551 131.099 50.229C131.099 49.949 131.176 49.6807 131.33 49.424C131.484 49.1627 131.731 48.9317 132.072 48.731C132.417 48.5303 132.868 48.367 133.423 48.241C133.978 48.1103 134.657 48.0357 135.46 48.017V47.464C135.46 46.9133 135.341 46.498 135.103 46.218C134.87 45.9333 134.522 45.791 134.06 45.791C133.757 45.791 133.5 45.8307 133.29 45.91C133.085 45.9847 132.905 46.071 132.751 46.169C132.602 46.2623 132.471 46.3487 132.359 46.428C132.252 46.5027 132.144 46.54 132.037 46.54C131.953 46.54 131.878 46.519 131.813 46.477C131.752 46.4303 131.703 46.3743 131.666 46.309L131.442 45.91C131.834 45.532 132.256 45.2497 132.709 45.063C133.162 44.8763 133.663 44.783 134.214 44.783C134.611 44.783 134.963 44.8483 135.271 44.979C135.579 45.1097 135.838 45.2917 136.048 45.525C136.258 45.7583 136.417 46.0407 136.524 46.372C136.631 46.7033 136.685 47.0673 136.685 47.464V52ZM133.451 51.237C133.67 51.237 133.871 51.216 134.053 51.174C134.235 51.1273 134.405 51.0643 134.564 50.985C134.727 50.901 134.881 50.8007 135.026 50.684C135.175 50.5673 135.32 50.4343 135.46 50.285V48.808C134.886 48.8267 134.398 48.8733 133.997 48.948C133.596 49.018 133.269 49.1113 133.017 49.228C132.765 49.3447 132.581 49.4823 132.464 49.641C132.352 49.7997 132.296 49.977 132.296 50.173C132.296 50.3597 132.326 50.5207 132.387 50.656C132.448 50.7913 132.529 50.9033 132.632 50.992C132.735 51.076 132.856 51.139 132.996 51.181C133.136 51.2183 133.288 51.237 133.451 51.237ZM139.959 41.689V52H138.713V41.689H139.959ZM143.45 41.689V47.758H143.772C143.865 47.758 143.942 47.7463 144.003 47.723C144.063 47.695 144.131 47.6413 144.206 47.562L146.446 45.161C146.516 45.0863 146.586 45.0257 146.656 44.979C146.726 44.9323 146.819 44.909 146.936 44.909H148.07L145.459 47.688C145.393 47.7673 145.328 47.8373 145.263 47.898C145.202 47.9587 145.132 48.0123 145.053 48.059C145.137 48.115 145.211 48.1803 145.277 48.255C145.347 48.325 145.412 48.4067 145.473 48.5L148.245 52H147.125C147.022 52 146.933 51.9813 146.859 51.944C146.789 51.902 146.721 51.839 146.656 51.755L144.325 48.85C144.255 48.752 144.185 48.689 144.115 48.661C144.045 48.6283 143.94 48.612 143.8 48.612H143.45V52H142.197V41.689H143.45ZM157.412 52H156.859C156.737 52 156.639 51.9813 156.565 51.944C156.49 51.9067 156.441 51.8273 156.418 51.706L156.278 51.048C156.091 51.216 155.909 51.3677 155.732 51.503C155.554 51.6337 155.368 51.7457 155.172 51.839C154.976 51.9277 154.766 51.9953 154.542 52.042C154.322 52.0887 154.077 52.112 153.807 52.112C153.531 52.112 153.272 52.0747 153.03 52C152.792 51.9207 152.584 51.804 152.407 51.65C152.229 51.496 152.087 51.3023 151.98 51.069C151.877 50.831 151.826 50.551 151.826 50.229C151.826 49.949 151.903 49.6807 152.057 49.424C152.211 49.1627 152.458 48.9317 152.799 48.731C153.144 48.5303 153.594 48.367 154.15 48.241C154.705 48.1103 155.384 48.0357 156.187 48.017V47.464C156.187 46.9133 156.068 46.498 155.83 46.218C155.596 45.9333 155.249 45.791 154.787 45.791C154.483 45.791 154.227 45.8307 154.017 45.91C153.811 45.9847 153.632 46.071 153.478 46.169C153.328 46.2623 153.198 46.3487 153.086 46.428C152.978 46.5027 152.871 46.54 152.764 46.54C152.68 46.54 152.605 46.519 152.54 46.477C152.479 46.4303 152.43 46.3743 152.393 46.309L152.169 45.91C152.561 45.532 152.983 45.2497 153.436 45.063C153.888 44.8763 154.39 44.783 154.941 44.783C155.337 44.783 155.69 44.8483 155.998 44.979C156.306 45.1097 156.565 45.2917 156.775 45.525C156.985 45.7583 157.143 46.0407 157.251 46.372C157.358 46.7033 157.412 47.0673 157.412 47.464V52ZM154.178 51.237C154.397 51.237 154.598 51.216 154.78 51.174C154.962 51.1273 155.132 51.0643 155.291 50.985C155.454 50.901 155.608 50.8007 155.753 50.684C155.902 50.5673 156.047 50.4343 156.187 50.285V48.808C155.613 48.8267 155.125 48.8733 154.724 48.948C154.322 49.018 153.996 49.1113 153.744 49.228C153.492 49.3447 153.307 49.4823 153.191 49.641C153.079 49.7997 153.023 49.977 153.023 50.173C153.023 50.3597 153.053 50.5207 153.114 50.656C153.174 50.7913 153.256 50.9033 153.359 50.992C153.461 51.076 153.583 51.139 153.723 51.181C153.863 51.2183 154.014 51.237 154.178 51.237ZM159.341 52V41.689H160.594V45.931C160.888 45.5903 161.224 45.3173 161.602 45.112C161.985 44.902 162.421 44.797 162.911 44.797C163.322 44.797 163.693 44.874 164.024 45.028C164.356 45.182 164.638 45.413 164.871 45.721C165.105 46.0243 165.284 46.4023 165.41 46.855C165.536 47.303 165.599 47.821 165.599 48.409C165.599 48.9317 165.529 49.4193 165.389 49.872C165.249 50.32 165.046 50.7097 164.78 51.041C164.519 51.3677 164.197 51.6267 163.814 51.818C163.436 52.0047 163.009 52.098 162.533 52.098C162.076 52.098 161.686 52.0093 161.364 51.832C161.047 51.6547 160.769 51.4073 160.531 51.09L160.468 51.734C160.431 51.9113 160.324 52 160.146 52H159.341ZM162.505 45.791C162.099 45.791 161.742 45.8843 161.434 46.071C161.131 46.2577 160.851 46.5213 160.594 46.862V50.292C160.818 50.6 161.066 50.817 161.336 50.943C161.612 51.069 161.917 51.132 162.253 51.132C162.916 51.132 163.425 50.8963 163.779 50.425C164.134 49.9537 164.311 49.2817 164.311 48.409C164.311 47.947 164.269 47.5503 164.185 47.219C164.106 46.8877 163.989 46.617 163.835 46.407C163.681 46.1923 163.492 46.036 163.268 45.938C163.044 45.84 162.79 45.791 162.505 45.791ZM169.99 44.797C170.508 44.797 170.974 44.8833 171.39 45.056C171.81 45.2287 172.164 45.4737 172.454 45.791C172.748 46.1083 172.972 46.4933 173.126 46.946C173.284 47.394 173.364 47.8957 173.364 48.451C173.364 49.011 173.284 49.515 173.126 49.963C172.972 50.411 172.748 50.7937 172.454 51.111C172.164 51.4283 171.81 51.6733 171.39 51.846C170.974 52.014 170.508 52.098 169.99 52.098C169.472 52.098 169.003 52.014 168.583 51.846C168.167 51.6733 167.813 51.4283 167.519 51.111C167.225 50.7937 166.998 50.411 166.84 49.963C166.681 49.515 166.602 49.011 166.602 48.451C166.602 47.8957 166.681 47.394 166.84 46.946C166.998 46.4933 167.225 46.1083 167.519 45.791C167.813 45.4737 168.167 45.2287 168.583 45.056C169.003 44.8833 169.472 44.797 169.99 44.797ZM169.99 51.125C170.69 51.125 171.212 50.8917 171.558 50.425C171.903 49.9537 172.076 49.298 172.076 48.458C172.076 47.6133 171.903 46.9553 171.558 46.484C171.212 46.0127 170.69 45.777 169.99 45.777C169.635 45.777 169.327 45.8377 169.066 45.959C168.804 46.0803 168.585 46.2553 168.408 46.484C168.235 46.7127 168.104 46.995 168.016 47.331C167.932 47.6623 167.89 48.038 167.89 48.458C167.89 48.878 167.932 49.2537 168.016 49.585C168.104 49.9163 168.235 50.1963 168.408 50.425C168.585 50.649 168.804 50.8217 169.066 50.943C169.327 51.0643 169.635 51.125 169.99 51.125ZM175.977 44.909V49.431C175.977 49.9677 176.101 50.383 176.348 50.677C176.595 50.971 176.969 51.118 177.468 51.118C177.832 51.118 178.175 51.0317 178.497 50.859C178.819 50.6863 179.115 50.446 179.386 50.138V44.909H180.632V52H179.89C179.713 52 179.601 51.9137 179.554 51.741L179.456 50.978C179.148 51.3187 178.803 51.594 178.42 51.804C178.037 52.0093 177.599 52.112 177.104 52.112C176.717 52.112 176.374 52.049 176.075 51.923C175.781 51.7923 175.534 51.6103 175.333 51.377C175.132 51.1437 174.981 50.8613 174.878 50.53C174.78 50.1987 174.731 49.8323 174.731 49.431V44.909H175.977ZM184.827 52.112C184.267 52.112 183.836 51.9557 183.532 51.643C183.234 51.3303 183.084 50.88 183.084 50.292V45.952H182.23C182.156 45.952 182.093 45.931 182.041 45.889C181.99 45.8423 181.964 45.7723 181.964 45.679V45.182L183.126 45.035L183.413 42.844C183.423 42.774 183.453 42.718 183.504 42.676C183.556 42.6293 183.621 42.606 183.7 42.606H184.33V45.049H186.36V45.952H184.33V50.208C184.33 50.5067 184.403 50.7283 184.547 50.873C184.692 51.0177 184.879 51.09 185.107 51.09C185.238 51.09 185.35 51.0737 185.443 51.041C185.541 51.0037 185.625 50.964 185.695 50.922C185.765 50.88 185.824 50.8427 185.87 50.81C185.922 50.7727 185.966 50.754 186.003 50.754C186.069 50.754 186.127 50.7937 186.178 50.873L186.542 51.468C186.328 51.6687 186.069 51.8273 185.765 51.944C185.462 52.056 185.149 52.112 184.827 52.112ZM192.757 52.112C192.197 52.112 191.765 51.9557 191.462 51.643C191.163 51.3303 191.014 50.88 191.014 50.292V45.952H190.16C190.085 45.952 190.022 45.931 189.971 45.889C189.92 45.8423 189.894 45.7723 189.894 45.679V45.182L191.056 45.035L191.343 42.844C191.352 42.774 191.383 42.718 191.434 42.676C191.485 42.6293 191.551 42.606 191.63 42.606H192.26V45.049H194.29V45.952H192.26V50.208C192.26 50.5067 192.332 50.7283 192.477 50.873C192.622 51.0177 192.808 51.09 193.037 51.09C193.168 51.09 193.28 51.0737 193.373 51.041C193.471 51.0037 193.555 50.964 193.625 50.922C193.695 50.88 193.753 50.8427 193.8 50.81C193.851 50.7727 193.896 50.754 193.933 50.754C193.998 50.754 194.057 50.7937 194.108 50.873L194.472 51.468C194.257 51.6687 193.998 51.8273 193.695 51.944C193.392 52.056 193.079 52.112 192.757 52.112ZM198.701 44.797C199.219 44.797 199.685 44.8833 200.101 45.056C200.521 45.2287 200.875 45.4737 201.165 45.791C201.459 46.1083 201.683 46.4933 201.837 46.946C201.995 47.394 202.075 47.8957 202.075 48.451C202.075 49.011 201.995 49.515 201.837 49.963C201.683 50.411 201.459 50.7937 201.165 51.111C200.875 51.4283 200.521 51.6733 200.101 51.846C199.685 52.014 199.219 52.098 198.701 52.098C198.183 52.098 197.714 52.014 197.294 51.846C196.878 51.6733 196.524 51.4283 196.23 51.111C195.936 50.7937 195.709 50.411 195.551 49.963C195.392 49.515 195.313 49.011 195.313 48.451C195.313 47.8957 195.392 47.394 195.551 46.946C195.709 46.4933 195.936 46.1083 196.23 45.791C196.524 45.4737 196.878 45.2287 197.294 45.056C197.714 44.8833 198.183 44.797 198.701 44.797ZM198.701 51.125C199.401 51.125 199.923 50.8917 200.269 50.425C200.614 49.9537 200.787 49.298 200.787 48.458C200.787 47.6133 200.614 46.9553 200.269 46.484C199.923 46.0127 199.401 45.777 198.701 45.777C198.346 45.777 198.038 45.8377 197.777 45.959C197.515 46.0803 197.296 46.2553 197.119 46.484C196.946 46.7127 196.815 46.995 196.727 47.331C196.643 47.6623 196.601 48.038 196.601 48.458C196.601 48.878 196.643 49.2537 196.727 49.585C196.815 49.9163 196.946 50.1963 197.119 50.425C197.296 50.649 197.515 50.8217 197.777 50.943C198.038 51.0643 198.346 51.125 198.701 51.125ZM208.466 52.112C207.906 52.112 207.474 51.9557 207.171 51.643C206.872 51.3303 206.723 50.88 206.723 50.292V45.952H205.869C205.794 45.952 205.731 45.931 205.68 45.889C205.629 45.8423 205.603 45.7723 205.603 45.679V45.182L206.765 45.035L207.052 42.844C207.061 42.774 207.092 42.718 207.143 42.676C207.194 42.6293 207.26 42.606 207.339 42.606H207.969V45.049H209.999V45.952H207.969V50.208C207.969 50.5067 208.041 50.7283 208.186 50.873C208.331 51.0177 208.517 51.09 208.746 51.09C208.877 51.09 208.989 51.0737 209.082 51.041C209.18 51.0037 209.264 50.964 209.334 50.922C209.404 50.88 209.462 50.8427 209.509 50.81C209.56 50.7727 209.605 50.754 209.642 50.754C209.707 50.754 209.766 50.7937 209.817 50.873L210.181 51.468C209.966 51.6687 209.707 51.8273 209.404 51.944C209.101 52.056 208.788 52.112 208.466 52.112ZM211.54 52V41.689H212.786V45.861C213.089 45.539 213.425 45.2823 213.794 45.091C214.162 44.895 214.587 44.797 215.068 44.797C215.455 44.797 215.796 44.8623 216.09 44.993C216.388 45.119 216.636 45.301 216.832 45.539C217.032 45.7723 217.184 46.0547 217.287 46.386C217.389 46.7173 217.441 47.0837 217.441 47.485V52H216.195V47.485C216.195 46.9483 216.071 46.533 215.824 46.239C215.581 45.9403 215.208 45.791 214.704 45.791C214.335 45.791 213.99 45.8797 213.668 46.057C213.35 46.2343 213.056 46.4747 212.786 46.778V52H211.54ZM220.705 44.909V52H219.459V44.909H220.705ZM220.985 42.683C220.985 42.8043 220.959 42.9187 220.908 43.026C220.861 43.1287 220.796 43.222 220.712 43.306C220.633 43.3853 220.539 43.4483 220.432 43.495C220.325 43.5417 220.21 43.565 220.089 43.565C219.968 43.565 219.853 43.5417 219.746 43.495C219.643 43.4483 219.55 43.3853 219.466 43.306C219.387 43.222 219.324 43.1287 219.277 43.026C219.23 42.9187 219.207 42.8043 219.207 42.683C219.207 42.5617 219.23 42.4473 219.277 42.34C219.324 42.228 219.387 42.1323 219.466 42.053C219.55 41.969 219.643 41.9037 219.746 41.857C219.853 41.8103 219.968 41.787 220.089 41.787C220.21 41.787 220.325 41.8103 220.432 41.857C220.539 41.9037 220.633 41.969 220.712 42.053C220.796 42.1323 220.861 42.228 220.908 42.34C220.959 42.4473 220.985 42.5617 220.985 42.683ZM222.901 52V44.909H223.643C223.82 44.909 223.932 44.9953 223.979 45.168L224.077 45.938C224.385 45.5973 224.728 45.322 225.106 45.112C225.489 44.902 225.93 44.797 226.429 44.797C226.816 44.797 227.157 44.8623 227.451 44.993C227.75 45.119 227.997 45.301 228.193 45.539C228.394 45.7723 228.545 46.0547 228.648 46.386C228.751 46.7173 228.802 47.0837 228.802 47.485V52H227.556V47.485C227.556 46.9483 227.432 46.533 227.185 46.239C226.942 45.9403 226.569 45.791 226.065 45.791C225.696 45.791 225.351 45.8797 225.029 46.057C224.712 46.2343 224.418 46.4747 224.147 46.778V52H222.901ZM233.067 44.79C233.375 44.79 233.662 44.825 233.928 44.895C234.199 44.9603 234.444 45.0583 234.663 45.189H236.588V45.651C236.588 45.805 236.49 45.903 236.294 45.945L235.489 46.057C235.648 46.3603 235.727 46.6987 235.727 47.072C235.727 47.4173 235.66 47.7323 235.524 48.017C235.394 48.297 235.209 48.5373 234.971 48.738C234.738 48.9387 234.458 49.0927 234.131 49.2C233.809 49.3073 233.455 49.361 233.067 49.361C232.736 49.361 232.423 49.3213 232.129 49.242C231.98 49.3353 231.866 49.4357 231.786 49.543C231.712 49.6503 231.674 49.7553 231.674 49.858C231.674 50.026 231.742 50.1543 231.877 50.243C232.013 50.327 232.192 50.3877 232.416 50.425C232.64 50.4623 232.895 50.4857 233.179 50.495C233.464 50.5043 233.753 50.5207 234.047 50.544C234.346 50.5627 234.638 50.5977 234.922 50.649C235.207 50.7003 235.461 50.7843 235.685 50.901C235.909 51.0177 236.089 51.1787 236.224 51.384C236.36 51.5893 236.427 51.8553 236.427 52.182C236.427 52.4853 236.35 52.7793 236.196 53.064C236.047 53.3487 235.83 53.6007 235.545 53.82C235.261 54.044 234.913 54.2213 234.502 54.352C234.092 54.4873 233.627 54.555 233.109 54.555C232.591 54.555 232.136 54.5037 231.744 54.401C231.357 54.2983 231.035 54.1607 230.778 53.988C230.522 53.8153 230.328 53.6147 230.197 53.386C230.071 53.162 230.008 52.9263 230.008 52.679C230.008 52.329 230.118 52.0327 230.337 51.79C230.561 51.5427 230.867 51.3467 231.254 51.202C231.054 51.1087 230.893 50.985 230.771 50.831C230.655 50.6723 230.596 50.4623 230.596 50.201C230.596 50.0983 230.615 49.9933 230.652 49.886C230.69 49.774 230.746 49.6643 230.82 49.557C230.9 49.4497 230.995 49.347 231.107 49.249C231.219 49.151 231.35 49.0647 231.499 48.99C231.149 48.794 230.874 48.535 230.673 48.213C230.477 47.8863 230.379 47.506 230.379 47.072C230.379 46.7267 230.445 46.414 230.575 46.134C230.711 45.8493 230.897 45.609 231.135 45.413C231.373 45.2123 231.656 45.0583 231.982 44.951C232.314 44.8437 232.675 44.79 233.067 44.79ZM235.279 52.385C235.279 52.2077 235.23 52.0653 235.132 51.958C235.034 51.8507 234.901 51.769 234.733 51.713C234.565 51.6523 234.372 51.608 234.152 51.58C233.933 51.552 233.702 51.5333 233.459 51.524C233.217 51.51 232.969 51.496 232.717 51.482C232.465 51.468 232.225 51.4423 231.996 51.405C231.73 51.531 231.513 51.685 231.345 51.867C231.182 52.049 231.1 52.266 231.1 52.518C231.1 52.6767 231.14 52.8237 231.219 52.959C231.303 53.099 231.429 53.218 231.597 53.316C231.765 53.4187 231.975 53.498 232.227 53.554C232.484 53.6147 232.785 53.645 233.13 53.645C233.466 53.645 233.767 53.6147 234.033 53.554C234.299 53.4933 234.523 53.407 234.705 53.295C234.892 53.183 235.034 53.05 235.132 52.896C235.23 52.742 235.279 52.5717 235.279 52.385ZM233.067 48.535C233.319 48.535 233.541 48.5 233.732 48.43C233.928 48.36 234.092 48.262 234.222 48.136C234.353 48.01 234.451 47.8607 234.516 47.688C234.582 47.5107 234.614 47.317 234.614 47.107C234.614 46.673 234.481 46.3277 234.215 46.071C233.954 45.8143 233.571 45.686 233.067 45.686C232.568 45.686 232.185 45.8143 231.919 46.071C231.658 46.3277 231.527 46.673 231.527 47.107C231.527 47.317 231.56 47.5107 231.625 47.688C231.695 47.8607 231.796 48.01 231.926 48.136C232.057 48.262 232.218 48.36 232.409 48.43C232.601 48.5 232.82 48.535 233.067 48.535ZM241.891 46.078C241.835 46.1807 241.748 46.232 241.632 46.232C241.562 46.232 241.482 46.2063 241.394 46.155C241.305 46.1037 241.195 46.0477 241.065 45.987C240.939 45.9217 240.787 45.8633 240.61 45.812C240.432 45.756 240.222 45.728 239.98 45.728C239.77 45.728 239.581 45.756 239.413 45.812C239.245 45.8633 239.1 45.9357 238.979 46.029C238.862 46.1223 238.771 46.232 238.706 46.358C238.645 46.4793 238.615 46.6123 238.615 46.757C238.615 46.939 238.666 47.0907 238.769 47.212C238.876 47.3333 239.016 47.4383 239.189 47.527C239.361 47.6157 239.557 47.695 239.777 47.765C239.996 47.8303 240.22 47.9027 240.449 47.982C240.682 48.0567 240.908 48.1407 241.128 48.234C241.347 48.3273 241.543 48.444 241.716 48.584C241.888 48.724 242.026 48.8967 242.129 49.102C242.236 49.3027 242.29 49.5453 242.29 49.83C242.29 50.1567 242.231 50.46 242.115 50.74C241.998 51.0153 241.825 51.2557 241.597 51.461C241.368 51.6617 241.088 51.8203 240.757 51.937C240.425 52.0537 240.043 52.112 239.609 52.112C239.114 52.112 238.666 52.0327 238.265 51.874C237.863 51.7107 237.523 51.503 237.243 51.251L237.537 50.775C237.574 50.7143 237.618 50.6677 237.67 50.635C237.721 50.6023 237.789 50.586 237.873 50.586C237.957 50.586 238.045 50.6187 238.139 50.684C238.232 50.7493 238.344 50.8217 238.475 50.901C238.61 50.9803 238.771 51.0527 238.958 51.118C239.149 51.1833 239.387 51.216 239.672 51.216C239.914 51.216 240.127 51.1857 240.309 51.125C240.491 51.0597 240.642 50.9733 240.764 50.866C240.885 50.7587 240.974 50.635 241.03 50.495C241.09 50.355 241.121 50.2057 241.121 50.047C241.121 49.851 241.067 49.69 240.96 49.564C240.857 49.4333 240.719 49.3237 240.547 49.235C240.374 49.1417 240.176 49.0623 239.952 48.997C239.732 48.927 239.506 48.8547 239.273 48.78C239.044 48.7053 238.818 48.6213 238.594 48.528C238.374 48.43 238.178 48.3087 238.006 48.164C237.833 48.0193 237.693 47.842 237.586 47.632C237.483 47.4173 237.432 47.1583 237.432 46.855C237.432 46.5843 237.488 46.3253 237.6 46.078C237.712 45.826 237.875 45.6067 238.09 45.42C238.304 45.2287 238.568 45.077 238.881 44.965C239.193 44.853 239.55 44.797 239.952 44.797C240.418 44.797 240.836 44.8717 241.205 45.021C241.578 45.1657 241.9 45.3663 242.171 45.623L241.891 46.078ZM248.757 52.112C248.197 52.112 247.765 51.9557 247.462 51.643C247.163 51.3303 247.014 50.88 247.014 50.292V45.952H246.16C246.085 45.952 246.022 45.931 245.971 45.889C245.92 45.8423 245.894 45.7723 245.894 45.679V45.182L247.056 45.035L247.343 42.844C247.352 42.774 247.383 42.718 247.434 42.676C247.485 42.6293 247.551 42.606 247.63 42.606H248.26V45.049H250.29V45.952H248.26V50.208C248.26 50.5067 248.332 50.7283 248.477 50.873C248.622 51.0177 248.808 51.09 249.037 51.09C249.168 51.09 249.28 51.0737 249.373 51.041C249.471 51.0037 249.555 50.964 249.625 50.922C249.695 50.88 249.753 50.8427 249.8 50.81C249.851 50.7727 249.896 50.754 249.933 50.754C249.998 50.754 250.057 50.7937 250.108 50.873L250.472 51.468C250.257 51.6687 249.998 51.8273 249.695 51.944C249.392 52.056 249.079 52.112 248.757 52.112ZM251.831 52V41.689H253.077V45.861C253.38 45.539 253.716 45.2823 254.085 45.091C254.453 44.895 254.878 44.797 255.359 44.797C255.746 44.797 256.087 44.8623 256.381 44.993C256.679 45.119 256.927 45.301 257.123 45.539C257.323 45.7723 257.475 46.0547 257.578 46.386C257.68 46.7173 257.732 47.0837 257.732 47.485V52H256.486V47.485C256.486 46.9483 256.362 46.533 256.115 46.239C255.872 45.9403 255.499 45.791 254.995 45.791C254.626 45.791 254.281 45.8797 253.959 46.057C253.641 46.2343 253.347 46.4747 253.077 46.778V52H251.831ZM264.818 52H264.265C264.144 52 264.046 51.9813 263.971 51.944C263.896 51.9067 263.847 51.8273 263.824 51.706L263.684 51.048C263.497 51.216 263.315 51.3677 263.138 51.503C262.961 51.6337 262.774 51.7457 262.578 51.839C262.382 51.9277 262.172 51.9953 261.948 52.042C261.729 52.0887 261.484 52.112 261.213 52.112C260.938 52.112 260.679 52.0747 260.436 52C260.198 51.9207 259.99 51.804 259.813 51.65C259.636 51.496 259.493 51.3023 259.386 51.069C259.283 50.831 259.232 50.551 259.232 50.229C259.232 49.949 259.309 49.6807 259.463 49.424C259.617 49.1627 259.864 48.9317 260.205 48.731C260.55 48.5303 261.001 48.367 261.556 48.241C262.111 48.1103 262.79 48.0357 263.593 48.017V47.464C263.593 46.9133 263.474 46.498 263.236 46.218C263.003 45.9333 262.655 45.791 262.193 45.791C261.89 45.791 261.633 45.8307 261.423 45.91C261.218 45.9847 261.038 46.071 260.884 46.169C260.735 46.2623 260.604 46.3487 260.492 46.428C260.385 46.5027 260.277 46.54 260.17 46.54C260.086 46.54 260.011 46.519 259.946 46.477C259.885 46.4303 259.836 46.3743 259.799 46.309L259.575 45.91C259.967 45.532 260.389 45.2497 260.842 45.063C261.295 44.8763 261.796 44.783 262.347 44.783C262.744 44.783 263.096 44.8483 263.404 44.979C263.712 45.1097 263.971 45.2917 264.181 45.525C264.391 45.7583 264.55 46.0407 264.657 46.372C264.764 46.7033 264.818 47.0673 264.818 47.464V52ZM261.584 51.237C261.803 51.237 262.004 51.216 262.186 51.174C262.368 51.1273 262.538 51.0643 262.697 50.985C262.86 50.901 263.014 50.8007 263.159 50.684C263.308 50.5673 263.453 50.4343 263.593 50.285V48.808C263.019 48.8267 262.531 48.8733 262.13 48.948C261.729 49.018 261.402 49.1113 261.15 49.228C260.898 49.3447 260.714 49.4823 260.597 49.641C260.485 49.7997 260.429 49.977 260.429 50.173C260.429 50.3597 260.459 50.5207 260.52 50.656C260.581 50.7913 260.662 50.9033 260.765 50.992C260.868 51.076 260.989 51.139 261.129 51.181C261.269 51.2183 261.421 51.237 261.584 51.237ZM268.855 52.112C268.295 52.112 267.863 51.9557 267.56 51.643C267.261 51.3303 267.112 50.88 267.112 50.292V45.952H266.258C266.183 45.952 266.12 45.931 266.069 45.889C266.017 45.8423 265.992 45.7723 265.992 45.679V45.182L267.154 45.035L267.441 42.844C267.45 42.774 267.48 42.718 267.532 42.676C267.583 42.6293 267.648 42.606 267.728 42.606H268.358V45.049H270.388V45.952H268.358V50.208C268.358 50.5067 268.43 50.7283 268.575 50.873C268.719 51.0177 268.906 51.09 269.135 51.09C269.265 51.09 269.377 51.0737 269.471 51.041C269.569 51.0037 269.653 50.964 269.723 50.922C269.793 50.88 269.851 50.8427 269.898 50.81C269.949 50.7727 269.993 50.754 270.031 50.754C270.096 50.754 270.154 50.7937 270.206 50.873L270.57 51.468C270.355 51.6687 270.096 51.8273 269.793 51.944C269.489 52.056 269.177 52.112 268.855 52.112ZM279.843 52H279.29C279.169 52 279.071 51.9813 278.996 51.944C278.922 51.9067 278.873 51.8273 278.849 51.706L278.709 51.048C278.523 51.216 278.341 51.3677 278.163 51.503C277.986 51.6337 277.799 51.7457 277.603 51.839C277.407 51.9277 277.197 51.9953 276.973 52.042C276.754 52.0887 276.509 52.112 276.238 52.112C275.963 52.112 275.704 52.0747 275.461 52C275.223 51.9207 275.016 51.804 274.838 51.65C274.661 51.496 274.519 51.3023 274.411 51.069C274.309 50.831 274.257 50.551 274.257 50.229C274.257 49.949 274.334 49.6807 274.488 49.424C274.642 49.1627 274.89 48.9317 275.23 48.731C275.576 48.5303 276.026 48.367 276.581 48.241C277.137 48.1103 277.816 48.0357 278.618 48.017V47.464C278.618 46.9133 278.499 46.498 278.261 46.218C278.028 45.9333 277.68 45.791 277.218 45.791C276.915 45.791 276.658 45.8307 276.448 45.91C276.243 45.9847 276.063 46.071 275.909 46.169C275.76 46.2623 275.629 46.3487 275.517 46.428C275.41 46.5027 275.303 46.54 275.195 46.54C275.111 46.54 275.037 46.519 274.971 46.477C274.911 46.4303 274.862 46.3743 274.824 46.309L274.6 45.91C274.992 45.532 275.415 45.2497 275.867 45.063C276.32 44.8763 276.822 44.783 277.372 44.783C277.769 44.783 278.121 44.8483 278.429 44.979C278.737 45.1097 278.996 45.2917 279.206 45.525C279.416 45.7583 279.575 46.0407 279.682 46.372C279.79 46.7033 279.843 47.0673 279.843 47.464V52ZM276.609 51.237C276.829 51.237 277.029 51.216 277.211 51.174C277.393 51.1273 277.564 51.0643 277.722 50.985C277.886 50.901 278.04 50.8007 278.184 50.684C278.334 50.5673 278.478 50.4343 278.618 50.285V48.808C278.044 48.8267 277.557 48.8733 277.155 48.948C276.754 49.018 276.427 49.1113 276.175 49.228C275.923 49.3447 275.739 49.4823 275.622 49.641C275.51 49.7997 275.454 49.977 275.454 50.173C275.454 50.3597 275.485 50.5207 275.545 50.656C275.606 50.7913 275.688 50.9033 275.79 50.992C275.893 51.076 276.014 51.139 276.154 51.181C276.294 51.2183 276.446 51.237 276.609 51.237ZM281.731 52V44.909H282.445C282.58 44.909 282.674 44.9347 282.725 44.986C282.776 45.0373 282.811 45.126 282.83 45.252L282.914 46.358C283.157 45.8633 283.455 45.4783 283.81 45.203C284.169 44.923 284.589 44.783 285.07 44.783C285.266 44.783 285.443 44.8063 285.602 44.853C285.761 44.895 285.908 44.9557 286.043 45.035L285.882 45.966C285.849 46.0827 285.777 46.141 285.665 46.141C285.6 46.141 285.499 46.12 285.364 46.078C285.229 46.0313 285.04 46.008 284.797 46.008C284.363 46.008 283.999 46.134 283.705 46.386C283.416 46.638 283.173 47.0043 282.977 47.485V52H281.731ZM290.184 44.797C290.609 44.797 291.001 44.8693 291.36 45.014C291.72 45.154 292.03 45.3593 292.291 45.63C292.553 45.896 292.756 46.2273 292.9 46.624C293.05 47.016 293.124 47.464 293.124 47.968C293.124 48.164 293.103 48.2947 293.061 48.36C293.019 48.4253 292.94 48.458 292.823 48.458H288.105C288.115 48.906 288.175 49.2957 288.287 49.627C288.399 49.9583 288.553 50.236 288.749 50.46C288.945 50.6793 289.179 50.845 289.449 50.957C289.72 51.0643 290.023 51.118 290.359 51.118C290.672 51.118 290.94 51.083 291.164 51.013C291.393 50.9383 291.589 50.859 291.752 50.775C291.916 50.691 292.051 50.614 292.158 50.544C292.27 50.4693 292.366 50.432 292.445 50.432C292.548 50.432 292.627 50.4717 292.683 50.551L293.033 51.006C292.879 51.1927 292.695 51.356 292.48 51.496C292.266 51.6313 292.035 51.7433 291.787 51.832C291.545 51.9207 291.293 51.986 291.031 52.028C290.77 52.0747 290.511 52.098 290.254 52.098C289.764 52.098 289.312 52.0163 288.896 51.853C288.486 51.685 288.129 51.4423 287.825 51.125C287.527 50.803 287.293 50.4063 287.125 49.935C286.957 49.4637 286.873 48.9223 286.873 48.311C286.873 47.8163 286.948 47.3543 287.097 46.925C287.251 46.4957 287.471 46.1247 287.755 45.812C288.04 45.4947 288.388 45.2473 288.798 45.07C289.209 44.888 289.671 44.797 290.184 44.797ZM290.212 45.714C289.61 45.714 289.137 45.889 288.791 46.239C288.446 46.5843 288.231 47.065 288.147 47.681H292.004C292.004 47.3917 291.965 47.128 291.885 46.89C291.806 46.6473 291.689 46.4397 291.535 46.267C291.381 46.0897 291.192 45.9543 290.968 45.861C290.749 45.763 290.497 45.714 290.212 45.714ZM303.159 44.909V54.401H301.913V50.95C301.615 51.2953 301.274 51.573 300.891 51.783C300.513 51.993 300.079 52.098 299.589 52.098C299.183 52.098 298.815 52.021 298.483 51.867C298.152 51.7083 297.87 51.4773 297.636 51.174C297.403 50.8707 297.223 50.4927 297.097 50.04C296.971 49.5873 296.908 49.067 296.908 48.479C296.908 47.9563 296.978 47.471 297.118 47.023C297.258 46.5703 297.459 46.1783 297.72 45.847C297.986 45.5157 298.308 45.2567 298.686 45.07C299.064 44.8787 299.494 44.783 299.974 44.783C300.432 44.783 300.819 44.8647 301.136 45.028C301.458 45.1913 301.745 45.4223 301.997 45.721L302.081 45.168C302.128 44.9953 302.24 44.909 302.417 44.909H303.159ZM300.002 51.09C300.408 51.09 300.763 50.9967 301.066 50.81C301.374 50.6233 301.657 50.3597 301.913 50.019V46.589C301.689 46.2903 301.44 46.078 301.164 45.952C300.889 45.8213 300.586 45.756 300.254 45.756C299.592 45.756 299.083 45.9917 298.728 46.463C298.374 46.9343 298.196 47.6063 298.196 48.479C298.196 48.941 298.236 49.3377 298.315 49.669C298.395 49.9957 298.511 50.2663 298.665 50.481C298.819 50.691 299.008 50.845 299.232 50.943C299.456 51.041 299.713 51.09 300.002 51.09ZM306.325 44.909V49.431C306.325 49.9677 306.448 50.383 306.696 50.677C306.943 50.971 307.316 51.118 307.816 51.118C308.18 51.118 308.523 51.0317 308.845 50.859C309.167 50.6863 309.463 50.446 309.734 50.138V44.909H310.98V52H310.238C310.06 52 309.948 51.9137 309.902 51.741L309.804 50.978C309.496 51.3187 309.15 51.594 308.768 51.804C308.385 52.0093 307.946 52.112 307.452 52.112C307.064 52.112 306.721 52.049 306.423 51.923C306.129 51.7923 305.881 51.6103 305.681 51.377C305.48 51.1437 305.328 50.8613 305.226 50.53C305.128 50.1987 305.079 49.8323 305.079 49.431V44.909H306.325ZM314.412 44.909V52H313.166V44.909H314.412ZM314.692 42.683C314.692 42.8043 314.666 42.9187 314.615 43.026C314.568 43.1287 314.503 43.222 314.419 43.306C314.34 43.3853 314.246 43.4483 314.139 43.495C314.032 43.5417 313.917 43.565 313.796 43.565C313.675 43.565 313.56 43.5417 313.453 43.495C313.35 43.4483 313.257 43.3853 313.173 43.306C313.094 43.222 313.031 43.1287 312.984 43.026C312.937 42.9187 312.914 42.8043 312.914 42.683C312.914 42.5617 312.937 42.4473 312.984 42.34C313.031 42.228 313.094 42.1323 313.173 42.053C313.257 41.969 313.35 41.9037 313.453 41.857C313.56 41.8103 313.675 41.787 313.796 41.787C313.917 41.787 314.032 41.8103 314.139 41.857C314.246 41.9037 314.34 41.969 314.419 42.053C314.503 42.1323 314.568 42.228 314.615 42.34C314.666 42.4473 314.692 42.5617 314.692 42.683ZM318.757 52.112C318.197 52.112 317.765 51.9557 317.462 51.643C317.163 51.3303 317.014 50.88 317.014 50.292V45.952H316.16C316.085 45.952 316.022 45.931 315.971 45.889C315.92 45.8423 315.894 45.7723 315.894 45.679V45.182L317.056 45.035L317.343 42.844C317.352 42.774 317.383 42.718 317.434 42.676C317.485 42.6293 317.551 42.606 317.63 42.606H318.26V45.049H320.29V45.952H318.26V50.208C318.26 50.5067 318.332 50.7283 318.477 50.873C318.622 51.0177 318.808 51.09 319.037 51.09C319.168 51.09 319.28 51.0737 319.373 51.041C319.471 51.0037 319.555 50.964 319.625 50.922C319.695 50.88 319.753 50.8427 319.8 50.81C319.851 50.7727 319.896 50.754 319.933 50.754C319.998 50.754 320.057 50.7937 320.108 50.873L320.472 51.468C320.257 51.6687 319.998 51.8273 319.695 51.944C319.392 52.056 319.079 52.112 318.757 52.112ZM324.638 44.797C325.062 44.797 325.454 44.8693 325.814 45.014C326.173 45.154 326.483 45.3593 326.745 45.63C327.006 45.896 327.209 46.2273 327.354 46.624C327.503 47.016 327.578 47.464 327.578 47.968C327.578 48.164 327.557 48.2947 327.515 48.36C327.473 48.4253 327.393 48.458 327.277 48.458H322.559C322.568 48.906 322.629 49.2957 322.741 49.627C322.853 49.9583 323.007 50.236 323.203 50.46C323.399 50.6793 323.632 50.845 323.903 50.957C324.173 51.0643 324.477 51.118 324.813 51.118C325.125 51.118 325.394 51.083 325.618 51.013C325.846 50.9383 326.042 50.859 326.206 50.775C326.369 50.691 326.504 50.614 326.612 50.544C326.724 50.4693 326.819 50.432 326.899 50.432C327.001 50.432 327.081 50.4717 327.137 50.551L327.487 51.006C327.333 51.1927 327.148 51.356 326.934 51.496C326.719 51.6313 326.488 51.7433 326.241 51.832C325.998 51.9207 325.746 51.986 325.485 52.028C325.223 52.0747 324.964 52.098 324.708 52.098C324.218 52.098 323.765 52.0163 323.35 51.853C322.939 51.685 322.582 51.4423 322.279 51.125C321.98 50.803 321.747 50.4063 321.579 49.935C321.411 49.4637 321.327 48.9223 321.327 48.311C321.327 47.8163 321.401 47.3543 321.551 46.925C321.705 46.4957 321.924 46.1247 322.209 45.812C322.493 45.4947 322.841 45.2473 323.252 45.07C323.662 44.888 324.124 44.797 324.638 44.797ZM324.666 45.714C324.064 45.714 323.59 45.889 323.245 46.239C322.899 46.5843 322.685 47.065 322.601 47.681H326.458C326.458 47.3917 326.418 47.128 326.339 46.89C326.259 46.6473 326.143 46.4397 325.989 46.267C325.835 46.0897 325.646 45.9543 325.422 45.861C325.202 45.763 324.95 45.714 324.666 45.714ZM328.766 51.23C328.766 51.1087 328.787 50.9943 328.829 50.887C328.876 50.7797 328.937 50.6863 329.011 50.607C329.091 50.5277 329.184 50.4647 329.291 50.418C329.399 50.3713 329.513 50.348 329.634 50.348C329.756 50.348 329.87 50.3713 329.977 50.418C330.085 50.4647 330.178 50.5277 330.257 50.607C330.337 50.6863 330.397 50.7797 330.439 50.887C330.486 50.9943 330.509 51.1087 330.509 51.23C330.509 51.356 330.486 51.4727 330.439 51.58C330.397 51.6827 330.337 51.7737 330.257 51.853C330.178 51.9323 330.085 51.993 329.977 52.035C329.87 52.0817 329.756 52.105 329.634 52.105C329.513 52.105 329.399 52.0817 329.291 52.035C329.184 51.993 329.091 51.9323 329.011 51.853C328.937 51.7737 328.876 51.6827 328.829 51.58C328.787 51.4727 328.766 51.356 328.766 51.23ZM331.733 51.23C331.733 51.1087 331.754 50.9943 331.796 50.887C331.843 50.7797 331.904 50.6863 331.978 50.607C332.058 50.5277 332.151 50.4647 332.258 50.418C332.366 50.3713 332.48 50.348 332.601 50.348C332.723 50.348 332.837 50.3713 332.944 50.418C333.052 50.4647 333.145 50.5277 333.224 50.607C333.304 50.6863 333.364 50.7797 333.406 50.887C333.453 50.9943 333.476 51.1087 333.476 51.23C333.476 51.356 333.453 51.4727 333.406 51.58C333.364 51.6827 333.304 51.7737 333.224 51.853C333.145 51.9323 333.052 51.993 332.944 52.035C332.837 52.0817 332.723 52.105 332.601 52.105C332.48 52.105 332.366 52.0817 332.258 52.035C332.151 51.993 332.058 51.9323 331.978 51.853C331.904 51.7737 331.843 51.6827 331.796 51.58C331.754 51.4727 331.733 51.356 331.733 51.23ZM334.7 51.23C334.7 51.1087 334.721 50.9943 334.763 50.887C334.81 50.7797 334.87 50.6863 334.945 50.607C335.024 50.5277 335.118 50.4647 335.225 50.418C335.332 50.3713 335.447 50.348 335.568 50.348C335.689 50.348 335.804 50.3713 335.911 50.418C336.018 50.4647 336.112 50.5277 336.191 50.607C336.27 50.6863 336.331 50.7797 336.373 50.887C336.42 50.9943 336.443 51.1087 336.443 51.23C336.443 51.356 336.42 51.4727 336.373 51.58C336.331 51.6827 336.27 51.7737 336.191 51.853C336.112 51.9323 336.018 51.993 335.911 52.035C335.804 52.0817 335.689 52.105 335.568 52.105C335.447 52.105 335.332 52.0817 335.225 52.035C335.118 51.993 335.024 51.9323 334.945 51.853C334.87 51.7737 334.81 51.6827 334.763 51.58C334.721 51.4727 334.7 51.356 334.7 51.23Z" fill="#828282"/>
<path d="M77.155 20.878V22.425H74.11V31H72.227V22.425H69.168V20.878H77.155ZM80.0912 23.818V31H78.3622V23.818H80.0912ZM80.3502 21.725C80.3502 21.8743 80.3198 22.0143 80.2592 22.145C80.1985 22.2757 80.1168 22.39 80.0142 22.488C79.9162 22.586 79.7995 22.6653 79.6642 22.726C79.5288 22.782 79.3842 22.81 79.2302 22.81C79.0808 22.81 78.9385 22.782 78.8032 22.726C78.6725 22.6653 78.5582 22.586 78.4602 22.488C78.3622 22.39 78.2828 22.2757 78.2222 22.145C78.1662 22.0143 78.1382 21.8743 78.1382 21.725C78.1382 21.571 78.1662 21.4263 78.2222 21.291C78.2828 21.1557 78.3622 21.039 78.4602 20.941C78.5582 20.843 78.6725 20.766 78.8032 20.71C78.9385 20.6493 79.0808 20.619 79.2302 20.619C79.3842 20.619 79.5288 20.6493 79.6642 20.71C79.7995 20.766 79.9162 20.843 80.0142 20.941C80.1168 21.039 80.1985 21.1557 80.2592 21.291C80.3198 21.4263 80.3502 21.571 80.3502 21.725ZM87.679 31H86.902C86.7386 31 86.6103 30.9767 86.517 30.93C86.4236 30.8787 86.3536 30.7783 86.307 30.629L86.153 30.118C85.971 30.2813 85.7913 30.426 85.614 30.552C85.4413 30.6733 85.2616 30.776 85.075 30.86C84.8883 30.944 84.69 31.007 84.48 31.049C84.27 31.091 84.0366 31.112 83.78 31.112C83.4766 31.112 83.1966 31.0723 82.94 30.993C82.6833 30.909 82.4616 30.7853 82.275 30.622C82.093 30.4587 81.9506 30.2557 81.848 30.013C81.7453 29.7703 81.694 29.488 81.694 29.166C81.694 28.8953 81.764 28.6293 81.904 28.368C82.0486 28.102 82.2866 27.864 82.618 27.654C82.9493 27.4393 83.3903 27.262 83.941 27.122C84.4916 26.982 85.1753 26.9027 85.992 26.884V26.464C85.992 25.9833 85.8893 25.6287 85.684 25.4C85.4833 25.1667 85.1893 25.05 84.802 25.05C84.522 25.05 84.2886 25.0827 84.102 25.148C83.9153 25.2133 83.752 25.288 83.612 25.372C83.4766 25.4513 83.3506 25.5237 83.234 25.589C83.1173 25.6543 82.989 25.687 82.849 25.687C82.7323 25.687 82.632 25.6567 82.548 25.596C82.464 25.5353 82.3963 25.4607 82.345 25.372L82.03 24.819C82.856 24.063 83.8523 23.685 85.019 23.685C85.439 23.685 85.8123 23.755 86.139 23.895C86.4703 24.0303 86.7503 24.2217 86.979 24.469C87.2076 24.7117 87.3803 25.0033 87.497 25.344C87.6183 25.6847 87.679 26.058 87.679 26.464V31ZM84.319 29.922C84.4963 29.922 84.6596 29.9057 84.809 29.873C84.9583 29.8403 85.0983 29.7913 85.229 29.726C85.3643 29.6607 85.4926 29.5813 85.614 29.488C85.74 29.39 85.866 29.2757 85.992 29.145V27.934C85.488 27.9573 85.0656 28.0017 84.725 28.067C84.389 28.1277 84.1183 28.207 83.913 28.305C83.7076 28.403 83.5606 28.5173 83.472 28.648C83.388 28.7787 83.346 28.921 83.346 29.075C83.346 29.3783 83.4346 29.5953 83.612 29.726C83.794 29.8567 84.0296 29.922 84.319 29.922ZM89.3791 31V23.818H90.4361C90.6601 23.818 90.8071 23.923 90.8771 24.133L90.9961 24.7C91.1407 24.5507 91.2924 24.4153 91.4511 24.294C91.6144 24.1727 91.7847 24.0677 91.9621 23.979C92.1441 23.8903 92.3377 23.8227 92.5431 23.776C92.7484 23.7293 92.9724 23.706 93.2151 23.706C93.6071 23.706 93.9547 23.7737 94.2581 23.909C94.5614 24.0397 94.8134 24.2263 95.0141 24.469C95.2194 24.707 95.3734 24.994 95.4761 25.33C95.5834 25.6613 95.6371 26.0277 95.6371 26.429V31H93.9081V26.429C93.9081 25.9903 93.8054 25.652 93.6001 25.414C93.3994 25.1713 93.0961 25.05 92.6901 25.05C92.3914 25.05 92.1114 25.1177 91.8501 25.253C91.5887 25.3883 91.3414 25.5727 91.1081 25.806V31H89.3791ZM102.964 31H102.187C102.024 31 101.895 30.9767 101.802 30.93C101.709 30.8787 101.639 30.7783 101.592 30.629L101.438 30.118C101.256 30.2813 101.076 30.426 100.899 30.552C100.726 30.6733 100.547 30.776 100.36 30.86C100.173 30.944 99.9751 31.007 99.7651 31.049C99.5551 31.091 99.3218 31.112 99.0651 31.112C98.7618 31.112 98.4818 31.0723 98.2251 30.993C97.9684 30.909 97.7468 30.7853 97.5601 30.622C97.3781 30.4587 97.2358 30.2557 97.1331 30.013C97.0304 29.7703 96.9791 29.488 96.9791 29.166C96.9791 28.8953 97.0491 28.6293 97.1891 28.368C97.3338 28.102 97.5718 27.864 97.9031 27.654C98.2344 27.4393 98.6754 27.262 99.2261 27.122C99.7768 26.982 100.46 26.9027 101.277 26.884V26.464C101.277 25.9833 101.174 25.6287 100.969 25.4C100.768 25.1667 100.474 25.05 100.087 25.05C99.8071 25.05 99.5738 25.0827 99.3871 25.148C99.2004 25.2133 99.0371 25.288 98.8971 25.372C98.7618 25.4513 98.6358 25.5237 98.5191 25.589C98.4024 25.6543 98.2741 25.687 98.1341 25.687C98.0174 25.687 97.9171 25.6567 97.8331 25.596C97.7491 25.5353 97.6814 25.4607 97.6301 25.372L97.3151 24.819C98.1411 24.063 99.1374 23.685 100.304 23.685C100.724 23.685 101.097 23.755 101.424 23.895C101.755 24.0303 102.035 24.2217 102.264 24.469C102.493 24.7117 102.665 25.0033 102.782 25.344C102.903 25.6847 102.964 26.058 102.964 26.464V31ZM99.6041 29.922C99.7814 29.922 99.9448 29.9057 100.094 29.873C100.243 29.8403 100.383 29.7913 100.514 29.726C100.649 29.6607 100.778 29.5813 100.899 29.488C101.025 29.39 101.151 29.2757 101.277 29.145V27.934C100.773 27.9573 100.351 28.0017 100.01 28.067C99.6741 28.1277 99.4034 28.207 99.1981 28.305C98.9928 28.403 98.8458 28.5173 98.7571 28.648C98.6731 28.7787 98.6311 28.921 98.6311 29.075C98.6311 29.3783 98.7198 29.5953 98.8971 29.726C99.0791 29.8567 99.3148 29.922 99.6041 29.922ZM112.894 22.719C112.843 22.8217 112.782 22.894 112.712 22.936C112.647 22.978 112.568 22.999 112.474 22.999C112.381 22.999 112.276 22.964 112.159 22.894C112.043 22.8193 111.905 22.7377 111.746 22.649C111.588 22.5603 111.401 22.481 111.186 22.411C110.976 22.3363 110.727 22.299 110.437 22.299C110.176 22.299 109.947 22.3317 109.751 22.397C109.56 22.4577 109.397 22.544 109.261 22.656C109.131 22.768 109.033 22.9033 108.967 23.062C108.902 23.216 108.869 23.3863 108.869 23.573C108.869 23.811 108.935 24.0093 109.065 24.168C109.201 24.3267 109.378 24.462 109.597 24.574C109.817 24.686 110.066 24.7863 110.346 24.875C110.626 24.9637 110.911 25.0593 111.2 25.162C111.494 25.26 111.781 25.3767 112.061 25.512C112.341 25.6427 112.591 25.8107 112.81 26.016C113.03 26.2167 113.205 26.464 113.335 26.758C113.471 27.052 113.538 27.409 113.538 27.829C113.538 28.2863 113.459 28.7157 113.3 29.117C113.146 29.5137 112.918 29.8613 112.614 30.16C112.316 30.454 111.949 30.6873 111.515 30.86C111.081 31.028 110.584 31.112 110.024 31.112C109.702 31.112 109.385 31.0793 109.072 31.014C108.76 30.9533 108.459 30.8647 108.169 30.748C107.885 30.6313 107.616 30.4913 107.364 30.328C107.117 30.1647 106.895 29.9827 106.699 29.782L107.245 28.879C107.297 28.8137 107.357 28.76 107.427 28.718C107.502 28.6713 107.584 28.648 107.672 28.648C107.789 28.648 107.915 28.697 108.05 28.795C108.186 28.8883 108.344 28.9933 108.526 29.11C108.713 29.2267 108.93 29.334 109.177 29.432C109.429 29.5253 109.73 29.572 110.08 29.572C110.617 29.572 111.032 29.446 111.326 29.194C111.62 28.9373 111.767 28.571 111.767 28.095C111.767 27.829 111.7 27.612 111.564 27.444C111.434 27.276 111.259 27.136 111.039 27.024C110.82 26.9073 110.57 26.8093 110.29 26.73C110.01 26.6507 109.726 26.5643 109.436 26.471C109.147 26.3777 108.862 26.2657 108.582 26.135C108.302 26.0043 108.053 25.834 107.833 25.624C107.614 25.414 107.437 25.1527 107.301 24.84C107.171 24.5227 107.105 24.133 107.105 23.671C107.105 23.3023 107.178 22.943 107.322 22.593C107.472 22.243 107.686 21.9327 107.966 21.662C108.251 21.3913 108.599 21.1743 109.009 21.011C109.42 20.8477 109.889 20.766 110.416 20.766C111.014 20.766 111.564 20.8593 112.068 21.046C112.572 21.2327 113.002 21.494 113.356 21.83L112.894 22.719ZM120.505 31H119.728C119.565 31 119.436 30.9767 119.343 30.93C119.25 30.8787 119.18 30.7783 119.133 30.629L118.979 30.118C118.797 30.2813 118.617 30.426 118.44 30.552C118.267 30.6733 118.088 30.776 117.901 30.86C117.714 30.944 117.516 31.007 117.306 31.049C117.096 31.091 116.863 31.112 116.606 31.112C116.303 31.112 116.023 31.0723 115.766 30.993C115.509 30.909 115.288 30.7853 115.101 30.622C114.919 30.4587 114.777 30.2557 114.674 30.013C114.571 29.7703 114.52 29.488 114.52 29.166C114.52 28.8953 114.59 28.6293 114.73 28.368C114.875 28.102 115.113 27.864 115.444 27.654C115.775 27.4393 116.216 27.262 116.767 27.122C117.318 26.982 118.001 26.9027 118.818 26.884V26.464C118.818 25.9833 118.715 25.6287 118.51 25.4C118.309 25.1667 118.015 25.05 117.628 25.05C117.348 25.05 117.115 25.0827 116.928 25.148C116.741 25.2133 116.578 25.288 116.438 25.372C116.303 25.4513 116.177 25.5237 116.06 25.589C115.943 25.6543 115.815 25.687 115.675 25.687C115.558 25.687 115.458 25.6567 115.374 25.596C115.29 25.5353 115.222 25.4607 115.171 25.372L114.856 24.819C115.682 24.063 116.678 23.685 117.845 23.685C118.265 23.685 118.638 23.755 118.965 23.895C119.296 24.0303 119.576 24.2217 119.805 24.469C120.034 24.7117 120.206 25.0033 120.323 25.344C120.444 25.6847 120.505 26.058 120.505 26.464V31ZM117.145 29.922C117.322 29.922 117.486 29.9057 117.635 29.873C117.784 29.8403 117.924 29.7913 118.055 29.726C118.19 29.6607 118.319 29.5813 118.44 29.488C118.566 29.39 118.692 29.2757 118.818 29.145V27.934C118.314 27.9573 117.892 28.0017 117.551 28.067C117.215 28.1277 116.944 28.207 116.739 28.305C116.534 28.403 116.387 28.5173 116.298 28.648C116.214 28.7787 116.172 28.921 116.172 29.075C116.172 29.3783 116.261 29.5953 116.438 29.726C116.62 29.8567 116.856 29.922 117.145 29.922ZM122.205 31V23.818H123.22C123.398 23.818 123.521 23.8507 123.591 23.916C123.661 23.9813 123.708 24.0933 123.731 24.252L123.836 25.12C124.093 24.6767 124.394 24.3267 124.739 24.07C125.085 23.8133 125.472 23.685 125.901 23.685C126.256 23.685 126.55 23.7667 126.783 23.93L126.559 25.225C126.545 25.309 126.515 25.3697 126.468 25.407C126.422 25.4397 126.359 25.456 126.279 25.456C126.209 25.456 126.114 25.4397 125.992 25.407C125.871 25.3743 125.71 25.358 125.509 25.358C125.15 25.358 124.842 25.4583 124.585 25.659C124.329 25.855 124.112 26.1443 123.934 26.527V31H122.205ZM129.761 23.818V31H128.032V23.818H129.761ZM130.02 21.725C130.02 21.8743 129.99 22.0143 129.929 22.145C129.868 22.2757 129.787 22.39 129.684 22.488C129.586 22.586 129.469 22.6653 129.334 22.726C129.199 22.782 129.054 22.81 128.9 22.81C128.751 22.81 128.608 22.782 128.473 22.726C128.342 22.6653 128.228 22.586 128.13 22.488C128.032 22.39 127.953 22.2757 127.892 22.145C127.836 22.0143 127.808 21.8743 127.808 21.725C127.808 21.571 127.836 21.4263 127.892 21.291C127.953 21.1557 128.032 21.039 128.13 20.941C128.228 20.843 128.342 20.766 128.473 20.71C128.608 20.6493 128.751 20.619 128.9 20.619C129.054 20.619 129.199 20.6493 129.334 20.71C129.469 20.766 129.586 20.843 129.684 20.941C129.787 21.039 129.868 21.1557 129.929 21.291C129.99 21.4263 130.02 21.571 130.02 21.725ZM135.984 25.218C135.937 25.2927 135.888 25.3463 135.837 25.379C135.786 25.407 135.72 25.421 135.641 25.421C135.557 25.421 135.466 25.3977 135.368 25.351C135.275 25.3043 135.165 25.253 135.039 25.197C134.913 25.1363 134.768 25.0827 134.605 25.036C134.446 24.9893 134.257 24.966 134.038 24.966C133.697 24.966 133.429 25.0383 133.233 25.183C133.037 25.3277 132.939 25.5167 132.939 25.75C132.939 25.904 132.988 26.0347 133.086 26.142C133.189 26.2447 133.322 26.3357 133.485 26.415C133.653 26.4943 133.842 26.5667 134.052 26.632C134.262 26.6927 134.477 26.7603 134.696 26.835C134.915 26.9097 135.13 26.996 135.34 27.094C135.55 27.1873 135.737 27.3087 135.9 27.458C136.068 27.6027 136.201 27.7777 136.299 27.983C136.402 28.1883 136.453 28.4357 136.453 28.725C136.453 29.0703 136.39 29.39 136.264 29.684C136.138 29.9733 135.954 30.2253 135.711 30.44C135.468 30.65 135.167 30.8157 134.808 30.937C134.453 31.0537 134.045 31.112 133.583 31.112C133.336 31.112 133.093 31.0887 132.855 31.042C132.622 31 132.395 30.9393 132.176 30.86C131.961 30.7807 131.761 30.6873 131.574 30.58C131.392 30.4727 131.231 30.356 131.091 30.23L131.49 29.572C131.541 29.4927 131.602 29.432 131.672 29.39C131.742 29.348 131.831 29.327 131.938 29.327C132.045 29.327 132.146 29.3573 132.239 29.418C132.337 29.4787 132.449 29.544 132.575 29.614C132.701 29.684 132.848 29.7493 133.016 29.81C133.189 29.8707 133.406 29.901 133.667 29.901C133.872 29.901 134.047 29.8777 134.192 29.831C134.341 29.7797 134.463 29.7143 134.556 29.635C134.654 29.5557 134.724 29.4647 134.766 29.362C134.813 29.2547 134.836 29.145 134.836 29.033C134.836 28.865 134.785 28.7273 134.682 28.62C134.584 28.5127 134.451 28.4193 134.283 28.34C134.12 28.2607 133.931 28.1907 133.716 28.13C133.506 28.0647 133.289 27.9947 133.065 27.92C132.846 27.8453 132.629 27.759 132.414 27.661C132.204 27.5583 132.015 27.43 131.847 27.276C131.684 27.122 131.551 26.933 131.448 26.709C131.35 26.485 131.301 26.2143 131.301 25.897C131.301 25.603 131.359 25.323 131.476 25.057C131.593 24.791 131.763 24.56 131.987 24.364C132.216 24.1633 132.498 24.0047 132.834 23.888C133.175 23.7667 133.567 23.706 134.01 23.706C134.505 23.706 134.955 23.7877 135.361 23.951C135.767 24.1143 136.105 24.329 136.376 24.595L135.984 25.218Z" fill="#1A1C1D"/>
<path d="M149.356 27.08V30.5H148.198V27.08L145.048 21.902H146.068C146.172 21.902 146.254 21.928 146.314 21.98C146.374 22.032 146.426 22.096 146.47 22.172L148.438 25.514C148.518 25.654 148.584 25.786 148.636 25.91C148.692 26.034 148.742 26.156 148.786 26.276C148.83 26.152 148.878 26.028 148.93 25.904C148.982 25.78 149.048 25.65 149.128 25.514L151.09 22.172C151.126 22.108 151.174 22.048 151.234 21.992C151.298 21.932 151.38 21.902 151.48 21.902H152.512L149.356 27.08ZM154.868 24.326C155.232 24.326 155.568 24.388 155.876 24.512C156.184 24.632 156.45 24.808 156.674 25.04C156.898 25.268 157.072 25.552 157.196 25.892C157.324 26.228 157.388 26.612 157.388 27.044C157.388 27.212 157.37 27.324 157.334 27.38C157.298 27.436 157.23 27.464 157.13 27.464H153.086C153.094 27.848 153.146 28.182 153.242 28.466C153.338 28.75 153.47 28.988 153.638 29.18C153.806 29.368 154.006 29.51 154.238 29.606C154.47 29.698 154.73 29.744 155.018 29.744C155.286 29.744 155.516 29.714 155.708 29.654C155.904 29.59 156.072 29.522 156.212 29.45C156.352 29.378 156.468 29.312 156.56 29.252C156.656 29.188 156.738 29.156 156.806 29.156C156.894 29.156 156.962 29.19 157.01 29.258L157.31 29.648C157.178 29.808 157.02 29.948 156.836 30.068C156.652 30.184 156.454 30.28 156.242 30.356C156.034 30.432 155.818 30.488 155.594 30.524C155.37 30.564 155.148 30.584 154.928 30.584C154.508 30.584 154.12 30.514 153.764 30.374C153.412 30.23 153.106 30.022 152.846 29.75C152.59 29.474 152.39 29.134 152.246 28.73C152.102 28.326 152.03 27.862 152.03 27.338C152.03 26.914 152.094 26.518 152.222 26.15C152.354 25.782 152.542 25.464 152.786 25.196C153.03 24.924 153.328 24.712 153.68 24.56C154.032 24.404 154.428 24.326 154.868 24.326ZM154.892 25.112C154.376 25.112 153.97 25.262 153.674 25.562C153.378 25.858 153.194 26.27 153.122 26.798H156.428C156.428 26.55 156.394 26.324 156.326 26.12C156.258 25.912 156.158 25.734 156.026 25.586C155.894 25.434 155.732 25.318 155.54 25.238C155.352 25.154 155.136 25.112 154.892 25.112ZM162.235 25.424C162.187 25.512 162.113 25.556 162.013 25.556C161.953 25.556 161.885 25.534 161.809 25.49C161.733 25.446 161.639 25.398 161.527 25.346C161.419 25.29 161.289 25.24 161.137 25.196C160.985 25.148 160.805 25.124 160.597 25.124C160.417 25.124 160.255 25.148 160.111 25.196C159.967 25.24 159.843 25.302 159.739 25.382C159.639 25.462 159.561 25.556 159.505 25.664C159.453 25.768 159.427 25.882 159.427 26.006C159.427 26.162 159.471 26.292 159.559 26.396C159.651 26.5 159.771 26.59 159.919 26.666C160.067 26.742 160.235 26.81 160.423 26.87C160.611 26.926 160.803 26.988 160.999 27.056C161.199 27.12 161.393 27.192 161.581 27.272C161.769 27.352 161.937 27.452 162.085 27.572C162.233 27.692 162.351 27.84 162.439 28.016C162.531 28.188 162.577 28.396 162.577 28.64C162.577 28.92 162.527 29.18 162.427 29.42C162.327 29.656 162.179 29.862 161.983 30.038C161.787 30.21 161.547 30.346 161.263 30.446C160.979 30.546 160.651 30.596 160.279 30.596C159.855 30.596 159.471 30.528 159.127 30.392C158.783 30.252 158.491 30.074 158.251 29.858L158.503 29.45C158.535 29.398 158.573 29.358 158.617 29.33C158.661 29.302 158.719 29.288 158.791 29.288C158.863 29.288 158.939 29.316 159.019 29.372C159.099 29.428 159.195 29.49 159.307 29.558C159.423 29.626 159.561 29.688 159.721 29.744C159.885 29.8 160.089 29.828 160.333 29.828C160.541 29.828 160.723 29.802 160.879 29.75C161.035 29.694 161.165 29.62 161.269 29.528C161.373 29.436 161.449 29.33 161.497 29.21C161.549 29.09 161.575 28.962 161.575 28.826C161.575 28.658 161.529 28.52 161.437 28.412C161.349 28.3 161.231 28.206 161.083 28.13C160.935 28.05 160.765 27.982 160.573 27.926C160.385 27.866 160.191 27.804 159.991 27.74C159.795 27.676 159.601 27.604 159.409 27.524C159.221 27.44 159.053 27.336 158.905 27.212C158.757 27.088 158.637 26.936 158.545 26.756C158.457 26.572 158.413 26.35 158.413 26.09C158.413 25.858 158.461 25.636 158.557 25.424C158.653 25.208 158.793 25.02 158.977 24.86C159.161 24.696 159.387 24.566 159.655 24.47C159.923 24.374 160.229 24.326 160.573 24.326C160.973 24.326 161.331 24.39 161.647 24.518C161.967 24.642 162.243 24.814 162.475 25.034L162.235 25.424ZM165.8 30.596C165.32 30.596 164.95 30.462 164.69 30.194C164.434 29.926 164.306 29.54 164.306 29.036V25.316H163.574C163.51 25.316 163.456 25.298 163.412 25.262C163.368 25.222 163.346 25.162 163.346 25.082V24.656L164.342 24.53L164.588 22.652C164.596 22.592 164.622 22.544 164.666 22.508C164.71 22.468 164.766 22.448 164.834 22.448H165.374V24.542H167.114V25.316H165.374V28.964C165.374 29.22 165.436 29.41 165.56 29.534C165.684 29.658 165.844 29.72 166.04 29.72C166.152 29.72 166.248 29.706 166.328 29.678C166.412 29.646 166.484 29.612 166.544 29.576C166.604 29.54 166.654 29.508 166.694 29.48C166.738 29.448 166.776 29.432 166.808 29.432C166.864 29.432 166.914 29.466 166.958 29.534L167.27 30.044C167.086 30.216 166.864 30.352 166.604 30.452C166.344 30.548 166.076 30.596 165.8 30.596ZM170.841 24.326C171.205 24.326 171.541 24.388 171.849 24.512C172.157 24.632 172.423 24.808 172.647 25.04C172.871 25.268 173.045 25.552 173.169 25.892C173.297 26.228 173.361 26.612 173.361 27.044C173.361 27.212 173.343 27.324 173.307 27.38C173.271 27.436 173.203 27.464 173.103 27.464H169.059C169.067 27.848 169.119 28.182 169.215 28.466C169.311 28.75 169.443 28.988 169.611 29.18C169.779 29.368 169.979 29.51 170.211 29.606C170.443 29.698 170.703 29.744 170.991 29.744C171.259 29.744 171.489 29.714 171.681 29.654C171.877 29.59 172.045 29.522 172.185 29.45C172.325 29.378 172.441 29.312 172.533 29.252C172.629 29.188 172.711 29.156 172.779 29.156C172.867 29.156 172.935 29.19 172.983 29.258L173.283 29.648C173.151 29.808 172.993 29.948 172.809 30.068C172.625 30.184 172.427 30.28 172.215 30.356C172.007 30.432 171.791 30.488 171.567 30.524C171.343 30.564 171.121 30.584 170.901 30.584C170.481 30.584 170.093 30.514 169.737 30.374C169.385 30.23 169.079 30.022 168.819 29.75C168.563 29.474 168.363 29.134 168.219 28.73C168.075 28.326 168.003 27.862 168.003 27.338C168.003 26.914 168.067 26.518 168.195 26.15C168.327 25.782 168.515 25.464 168.759 25.196C169.003 24.924 169.301 24.712 169.653 24.56C170.005 24.404 170.401 24.326 170.841 24.326ZM170.865 25.112C170.349 25.112 169.943 25.262 169.647 25.562C169.351 25.858 169.167 26.27 169.095 26.798H172.401C172.401 26.55 172.367 26.324 172.299 26.12C172.231 25.912 172.131 25.734 171.999 25.586C171.867 25.434 171.705 25.318 171.513 25.238C171.325 25.154 171.109 25.112 170.865 25.112ZM174.728 30.5V24.422H175.34C175.456 24.422 175.536 24.444 175.58 24.488C175.624 24.532 175.654 24.608 175.67 24.716L175.742 25.664C175.95 25.24 176.206 24.91 176.51 24.674C176.818 24.434 177.178 24.314 177.59 24.314C177.758 24.314 177.91 24.334 178.046 24.374C178.182 24.41 178.308 24.462 178.424 24.53L178.286 25.328C178.258 25.428 178.196 25.478 178.1 25.478C178.044 25.478 177.958 25.46 177.842 25.424C177.726 25.384 177.564 25.364 177.356 25.364C176.984 25.364 176.672 25.472 176.42 25.688C176.172 25.904 175.964 26.218 175.796 26.63V30.5H174.728ZM183.845 30.5C183.693 30.5 183.597 30.426 183.557 30.278L183.461 29.54C183.201 29.856 182.903 30.11 182.567 30.302C182.235 30.49 181.853 30.584 181.421 30.584C181.073 30.584 180.757 30.518 180.473 30.386C180.189 30.25 179.947 30.052 179.747 29.792C179.547 29.532 179.393 29.208 179.285 28.82C179.177 28.432 179.123 27.986 179.123 27.482C179.123 27.034 179.183 26.618 179.303 26.234C179.423 25.846 179.595 25.51 179.819 25.226C180.047 24.942 180.323 24.72 180.647 24.56C180.971 24.396 181.339 24.314 181.751 24.314C182.123 24.314 182.441 24.378 182.705 24.506C182.969 24.63 183.205 24.806 183.413 25.034V21.662H184.481V30.5H183.845ZM181.775 29.72C182.123 29.72 182.427 29.64 182.687 29.48C182.951 29.32 183.193 29.094 183.413 28.802V25.862C183.217 25.598 183.001 25.414 182.765 25.31C182.533 25.202 182.275 25.148 181.991 25.148C181.423 25.148 180.987 25.35 180.683 25.754C180.379 26.158 180.227 26.734 180.227 27.482C180.227 27.878 180.261 28.218 180.329 28.502C180.397 28.782 180.497 29.014 180.629 29.198C180.761 29.378 180.923 29.51 181.115 29.594C181.307 29.678 181.527 29.72 181.775 29.72ZM190.735 30.5H190.261C190.157 30.5 190.073 30.484 190.009 30.452C189.945 30.42 189.903 30.352 189.883 30.248L189.763 29.684C189.603 29.828 189.447 29.958 189.295 30.074C189.143 30.186 188.983 30.282 188.815 30.362C188.647 30.438 188.467 30.496 188.275 30.536C188.087 30.576 187.877 30.596 187.645 30.596C187.409 30.596 187.187 30.564 186.979 30.5C186.775 30.432 186.597 30.332 186.445 30.2C186.293 30.068 186.171 29.902 186.079 29.702C185.991 29.498 185.947 29.258 185.947 28.982C185.947 28.742 186.013 28.512 186.145 28.292C186.277 28.068 186.489 27.87 186.781 27.698C187.077 27.526 187.463 27.386 187.939 27.278C188.415 27.166 188.997 27.102 189.685 27.086V26.612C189.685 26.14 189.583 25.784 189.379 25.544C189.179 25.3 188.881 25.178 188.485 25.178C188.225 25.178 188.005 25.212 187.825 25.28C187.649 25.344 187.495 25.418 187.363 25.502C187.235 25.582 187.123 25.656 187.027 25.724C186.935 25.788 186.843 25.82 186.751 25.82C186.679 25.82 186.615 25.802 186.559 25.766C186.507 25.726 186.465 25.678 186.433 25.622L186.241 25.28C186.577 24.956 186.939 24.714 187.327 24.554C187.715 24.394 188.145 24.314 188.617 24.314C188.957 24.314 189.259 24.37 189.523 24.482C189.787 24.594 190.009 24.75 190.189 24.95C190.369 25.15 190.505 25.392 190.597 25.676C190.689 25.96 190.735 26.272 190.735 26.612V30.5ZM187.963 29.846C188.151 29.846 188.323 29.828 188.479 29.792C188.635 29.752 188.781 29.698 188.917 29.63C189.057 29.558 189.189 29.472 189.313 29.372C189.441 29.272 189.565 29.158 189.685 29.03V27.764C189.193 27.78 188.775 27.82 188.431 27.884C188.087 27.944 187.807 28.024 187.591 28.124C187.375 28.224 187.217 28.342 187.117 28.478C187.021 28.614 186.973 28.766 186.973 28.934C186.973 29.094 186.999 29.232 187.051 29.348C187.103 29.464 187.173 29.56 187.261 29.636C187.349 29.708 187.453 29.762 187.573 29.798C187.693 29.83 187.823 29.846 187.963 29.846ZM193.947 32.294C193.911 32.374 193.865 32.438 193.809 32.486C193.757 32.534 193.675 32.558 193.563 32.558H192.771L193.881 30.146L191.373 24.422H192.297C192.389 24.422 192.461 24.446 192.513 24.494C192.565 24.538 192.603 24.588 192.627 24.644L194.253 28.472C194.289 28.56 194.319 28.648 194.343 28.736C194.371 28.824 194.395 28.914 194.415 29.006C194.443 28.914 194.471 28.824 194.499 28.736C194.527 28.648 194.559 28.558 194.595 28.466L196.173 24.644C196.197 24.58 196.237 24.528 196.293 24.488C196.353 24.444 196.417 24.422 196.485 24.422H197.337L193.947 32.294ZM201.13 21.302H201.958V32.558H201.13V21.302ZM207.39 29.684H209.238V23.822C209.238 23.646 209.244 23.468 209.256 23.288L207.72 24.602C207.68 24.634 207.64 24.658 207.6 24.674C207.56 24.686 207.522 24.692 207.486 24.692C207.426 24.692 207.372 24.68 207.324 24.656C207.276 24.628 207.24 24.596 207.216 24.56L206.88 24.098L209.436 21.884H210.306V29.684H211.998V30.5H207.39V29.684ZM215.923 26.972C215.599 26.972 215.291 26.918 214.999 26.81C214.711 26.702 214.457 26.544 214.237 26.336C214.017 26.124 213.841 25.866 213.709 25.562C213.581 25.254 213.517 24.902 213.517 24.506C213.517 24.13 213.587 23.778 213.727 23.45C213.867 23.122 214.063 22.836 214.315 22.592C214.567 22.348 214.867 22.156 215.215 22.016C215.563 21.876 215.945 21.806 216.361 21.806C216.773 21.806 217.147 21.874 217.483 22.01C217.819 22.146 218.107 22.336 218.347 22.58C218.587 22.824 218.771 23.116 218.899 23.456C219.031 23.796 219.097 24.172 219.097 24.584C219.097 24.832 219.073 25.068 219.025 25.292C218.981 25.512 218.915 25.728 218.827 25.94C218.739 26.152 218.633 26.364 218.509 26.576C218.389 26.784 218.251 27 218.095 27.224L216.001 30.248C215.949 30.324 215.875 30.386 215.779 30.434C215.683 30.478 215.573 30.5 215.449 30.5H214.465L217.081 27.074C217.169 26.958 217.251 26.848 217.327 26.744C217.403 26.64 217.475 26.536 217.543 26.432C217.323 26.608 217.075 26.742 216.799 26.834C216.523 26.926 216.231 26.972 215.923 26.972ZM218.071 24.458C218.071 24.19 218.027 23.948 217.939 23.732C217.855 23.512 217.737 23.326 217.585 23.174C217.433 23.022 217.251 22.906 217.039 22.826C216.831 22.742 216.601 22.7 216.349 22.7C216.085 22.7 215.843 22.744 215.623 22.832C215.407 22.916 215.221 23.034 215.065 23.186C214.913 23.338 214.795 23.52 214.711 23.732C214.627 23.944 214.585 24.176 214.585 24.428C214.585 24.7 214.623 24.944 214.699 25.16C214.779 25.372 214.891 25.552 215.035 25.7C215.183 25.848 215.361 25.96 215.569 26.036C215.781 26.112 216.017 26.15 216.277 26.15C216.565 26.15 216.819 26.104 217.039 26.012C217.263 25.916 217.451 25.79 217.603 25.634C217.755 25.478 217.871 25.298 217.951 25.094C218.031 24.89 218.071 24.678 218.071 24.458ZM220.358 29.84C220.358 29.736 220.376 29.638 220.412 29.546C220.452 29.454 220.504 29.374 220.568 29.306C220.636 29.238 220.716 29.184 220.808 29.144C220.9 29.104 220.998 29.084 221.102 29.084C221.206 29.084 221.304 29.104 221.396 29.144C221.488 29.184 221.568 29.238 221.636 29.306C221.704 29.374 221.756 29.454 221.792 29.546C221.832 29.638 221.852 29.736 221.852 29.84C221.852 29.948 221.832 30.048 221.792 30.14C221.756 30.228 221.704 30.306 221.636 30.374C221.568 30.442 221.488 30.494 221.396 30.53C221.304 30.57 221.206 30.59 221.102 30.59C220.998 30.59 220.9 30.57 220.808 30.53C220.716 30.494 220.636 30.442 220.568 30.374C220.504 30.306 220.452 30.228 220.412 30.14C220.376 30.048 220.358 29.948 220.358 29.84ZM220.358 25.34C220.358 25.236 220.376 25.138 220.412 25.046C220.452 24.954 220.504 24.874 220.568 24.806C220.636 24.738 220.716 24.684 220.808 24.644C220.9 24.604 220.998 24.584 221.102 24.584C221.206 24.584 221.304 24.604 221.396 24.644C221.488 24.684 221.568 24.738 221.636 24.806C221.704 24.874 221.756 24.954 221.792 25.046C221.832 25.138 221.852 25.236 221.852 25.34C221.852 25.448 221.832 25.548 221.792 25.64C221.756 25.728 221.704 25.806 221.636 25.874C221.568 25.942 221.488 25.996 221.396 26.036C221.304 26.072 221.206 26.09 221.102 26.09C220.998 26.09 220.9 26.072 220.808 26.036C220.716 25.996 220.636 25.942 220.568 25.874C220.504 25.806 220.452 25.728 220.412 25.64C220.376 25.548 220.358 25.448 220.358 25.34ZM226.333 21.806C226.697 21.806 227.033 21.858 227.341 21.962C227.649 22.066 227.913 22.214 228.133 22.406C228.357 22.598 228.531 22.83 228.655 23.102C228.779 23.374 228.841 23.676 228.841 24.008C228.841 24.28 228.805 24.524 228.733 24.74C228.665 24.952 228.565 25.14 228.433 25.304C228.305 25.464 228.149 25.6 227.965 25.712C227.781 25.824 227.575 25.914 227.347 25.982C227.907 26.13 228.327 26.378 228.607 26.726C228.891 27.074 229.033 27.51 229.033 28.034C229.033 28.43 228.957 28.786 228.805 29.102C228.657 29.418 228.453 29.688 228.193 29.912C227.933 30.132 227.629 30.302 227.281 30.422C226.937 30.538 226.567 30.596 226.171 30.596C225.715 30.596 225.325 30.54 225.001 30.428C224.677 30.312 224.403 30.154 224.179 29.954C223.955 29.754 223.771 29.518 223.627 29.246C223.483 28.97 223.361 28.672 223.261 28.352L223.717 28.16C223.801 28.124 223.885 28.106 223.969 28.106C224.049 28.106 224.119 28.124 224.179 28.16C224.243 28.192 224.291 28.244 224.323 28.316C224.331 28.332 224.339 28.35 224.347 28.37C224.355 28.386 224.363 28.404 224.371 28.424C224.427 28.54 224.495 28.672 224.575 28.82C224.655 28.964 224.763 29.1 224.899 29.228C225.035 29.356 225.203 29.464 225.403 29.552C225.607 29.64 225.859 29.684 226.159 29.684C226.459 29.684 226.721 29.636 226.945 29.54C227.173 29.44 227.361 29.312 227.509 29.156C227.661 29 227.775 28.826 227.851 28.634C227.927 28.442 227.965 28.252 227.965 28.064C227.965 27.832 227.933 27.62 227.869 27.428C227.809 27.236 227.697 27.07 227.533 26.93C227.373 26.79 227.149 26.68 226.861 26.6C226.577 26.52 226.211 26.48 225.763 26.48V25.706C226.127 25.702 226.437 25.662 226.693 25.586C226.953 25.51 227.165 25.406 227.329 25.274C227.493 25.142 227.611 24.984 227.683 24.8C227.759 24.616 227.797 24.412 227.797 24.188C227.797 23.94 227.757 23.724 227.677 23.54C227.601 23.356 227.495 23.204 227.359 23.084C227.223 22.964 227.061 22.874 226.873 22.814C226.689 22.754 226.489 22.724 226.273 22.724C226.057 22.724 225.857 22.756 225.673 22.82C225.489 22.884 225.325 22.974 225.181 23.09C225.041 23.202 224.923 23.338 224.827 23.498C224.731 23.654 224.659 23.824 224.611 24.008C224.579 24.124 224.531 24.208 224.467 24.26C224.403 24.312 224.321 24.338 224.221 24.338C224.201 24.338 224.179 24.338 224.155 24.338C224.135 24.334 224.111 24.33 224.083 24.326L223.525 24.23C223.581 23.838 223.689 23.492 223.849 23.192C224.009 22.888 224.211 22.634 224.455 22.43C224.703 22.226 224.985 22.072 225.301 21.968C225.621 21.86 225.965 21.806 226.333 21.806ZM233.294 21.806C233.658 21.806 233.994 21.858 234.302 21.962C234.61 22.066 234.874 22.214 235.094 22.406C235.318 22.598 235.492 22.83 235.616 23.102C235.74 23.374 235.802 23.676 235.802 24.008C235.802 24.28 235.766 24.524 235.694 24.74C235.626 24.952 235.526 25.14 235.394 25.304C235.266 25.464 235.11 25.6 234.926 25.712C234.742 25.824 234.536 25.914 234.308 25.982C234.868 26.13 235.288 26.378 235.568 26.726C235.852 27.074 235.994 27.51 235.994 28.034C235.994 28.43 235.918 28.786 235.766 29.102C235.618 29.418 235.414 29.688 235.154 29.912C234.894 30.132 234.59 30.302 234.242 30.422C233.898 30.538 233.528 30.596 233.132 30.596C232.676 30.596 232.286 30.54 231.962 30.428C231.638 30.312 231.364 30.154 231.14 29.954C230.916 29.754 230.732 29.518 230.588 29.246C230.444 28.97 230.322 28.672 230.222 28.352L230.678 28.16C230.762 28.124 230.846 28.106 230.93 28.106C231.01 28.106 231.08 28.124 231.14 28.16C231.204 28.192 231.252 28.244 231.284 28.316C231.292 28.332 231.3 28.35 231.308 28.37C231.316 28.386 231.324 28.404 231.332 28.424C231.388 28.54 231.456 28.672 231.536 28.82C231.616 28.964 231.724 29.1 231.86 29.228C231.996 29.356 232.164 29.464 232.364 29.552C232.568 29.64 232.82 29.684 233.12 29.684C233.42 29.684 233.682 29.636 233.906 29.54C234.134 29.44 234.322 29.312 234.47 29.156C234.622 29 234.736 28.826 234.812 28.634C234.888 28.442 234.926 28.252 234.926 28.064C234.926 27.832 234.894 27.62 234.83 27.428C234.77 27.236 234.658 27.07 234.494 26.93C234.334 26.79 234.11 26.68 233.822 26.6C233.538 26.52 233.172 26.48 232.724 26.48V25.706C233.088 25.702 233.398 25.662 233.654 25.586C233.914 25.51 234.126 25.406 234.29 25.274C234.454 25.142 234.572 24.984 234.644 24.8C234.72 24.616 234.758 24.412 234.758 24.188C234.758 23.94 234.718 23.724 234.638 23.54C234.562 23.356 234.456 23.204 234.32 23.084C234.184 22.964 234.022 22.874 233.834 22.814C233.65 22.754 233.45 22.724 233.234 22.724C233.018 22.724 232.818 22.756 232.634 22.82C232.45 22.884 232.286 22.974 232.142 23.09C232.002 23.202 231.884 23.338 231.788 23.498C231.692 23.654 231.62 23.824 231.572 24.008C231.54 24.124 231.492 24.208 231.428 24.26C231.364 24.312 231.282 24.338 231.182 24.338C231.162 24.338 231.14 24.338 231.116 24.338C231.096 24.334 231.072 24.33 231.044 24.326L230.486 24.23C230.542 23.838 230.65 23.492 230.81 23.192C230.97 22.888 231.172 22.634 231.416 22.43C231.664 22.226 231.946 22.072 232.262 21.968C232.582 21.86 232.926 21.806 233.294 21.806Z" fill="#828282"/>
<rect x="17" y="18" width="36" height="36" rx="8" fill="#FE2A5A" fill-opacity="0.5"/>
<path d="M35.299 30.344V32.488H32.019V42H29.315V32.488H26.035V30.344H35.299ZM42.9091 32.712C42.8291 32.84 42.7438 32.936 42.6531 33C42.5678 33.064 42.4558 33.096 42.3171 33.096C42.1945 33.096 42.0611 33.0587 41.9171 32.984C41.7785 32.904 41.6185 32.816 41.4371 32.72C41.2611 32.624 41.0585 32.5387 40.8291 32.464C40.5998 32.384 40.3385 32.344 40.0451 32.344C39.5385 32.344 39.1598 32.4533 38.9091 32.672C38.6638 32.8853 38.5411 33.176 38.5411 33.544C38.5411 33.7787 38.6158 33.9733 38.7651 34.128C38.9145 34.2827 39.1091 34.416 39.3491 34.528C39.5945 34.64 39.8718 34.744 40.1811 34.84C40.4958 34.9307 40.8158 35.0347 41.1411 35.152C41.4665 35.264 41.7838 35.3973 42.0931 35.552C42.4078 35.7067 42.6851 35.904 42.9251 36.144C43.1705 36.384 43.3678 36.6773 43.5171 37.024C43.6665 37.3653 43.7411 37.7787 43.7411 38.264C43.7411 38.8027 43.6478 39.3067 43.4611 39.776C43.2745 40.2453 43.0025 40.656 42.6451 41.008C42.2931 41.3547 41.8558 41.6293 41.3331 41.832C40.8158 42.0293 40.2265 42.128 39.5651 42.128C39.2025 42.128 38.8318 42.0907 38.4531 42.016C38.0798 41.9413 37.7171 41.8373 37.3651 41.704C37.0131 41.5653 36.6825 41.4027 36.3731 41.216C36.0638 41.0293 35.7945 40.8213 35.5651 40.592L36.3651 39.328C36.4238 39.232 36.5065 39.1547 36.6131 39.096C36.7198 39.0373 36.8345 39.008 36.9571 39.008C37.1171 39.008 37.2771 39.0587 37.4371 39.16C37.6025 39.2613 37.7865 39.3733 37.9891 39.496C38.1971 39.6187 38.4345 39.7307 38.7011 39.832C38.9678 39.9333 39.2825 39.984 39.6451 39.984C40.1358 39.984 40.5171 39.8773 40.7891 39.664C41.0611 39.4453 41.1971 39.1013 41.1971 38.632C41.1971 38.36 41.1225 38.1387 40.9731 37.968C40.8238 37.7973 40.6265 37.656 40.3811 37.544C40.1411 37.432 39.8665 37.3333 39.5571 37.248C39.2478 37.1627 38.9305 37.0693 38.6051 36.968C38.2798 36.8613 37.9625 36.7333 37.6531 36.584C37.3438 36.4293 37.0665 36.2293 36.8211 35.984C36.5811 35.7333 36.3865 35.424 36.2371 35.056C36.0878 34.6827 36.0131 34.224 36.0131 33.68C36.0131 33.2427 36.1011 32.816 36.2771 32.4C36.4531 31.984 36.7118 31.6133 37.0531 31.288C37.3945 30.9627 37.8131 30.704 38.3091 30.512C38.8051 30.3147 39.3731 30.216 40.0131 30.216C40.3705 30.216 40.7171 30.2453 41.0531 30.304C41.3945 30.3573 41.7171 30.44 42.0211 30.552C42.3251 30.6587 42.6078 30.7893 42.8691 30.944C43.1358 31.0933 43.3731 31.264 43.5811 31.456L42.9091 32.712Z" fill="white"/>
<path d="M1 1V0H0V1H1ZM376 1H377V0H376V1ZM376 71V72H377V71H376ZM1 71H0V72H1V71ZM1 2H376V0H1V2ZM375 1V71H377V1H375ZM376 70H1V72H376V70ZM2 71V1H0V71H2Z" fill="#F3F4F9"/>
</svg>
