<svg width="340" height="60" viewBox="0 0 340 60" fill="none" xmlns="http://www.w3.org/2000/svg">
<rect width="340" height="60" rx="8" fill="white"/>
<rect width="340" height="60" rx="8" fill="url(#paint0_linear)" fill-opacity="0.2"/>
<path d="M31.592 36H29.432V24.432H31.592V36ZM34.0872 36V27.792H35.2953C35.5513 27.792 35.7193 27.912 35.7993 28.152L35.9353 28.8C36.1006 28.6293 36.2739 28.4747 36.4553 28.336C36.6419 28.1973 36.8366 28.0773 37.0393 27.976C37.2473 27.8747 37.4686 27.7973 37.7033 27.744C37.9379 27.6907 38.1939 27.664 38.4713 27.664C38.9193 27.664 39.3166 27.7413 39.6633 27.896C40.0099 28.0453 40.2979 28.2587 40.5273 28.536C40.7619 28.808 40.9379 29.136 41.0553 29.52C41.1779 29.8987 41.2393 30.3173 41.2393 30.776V36H39.2633V30.776C39.2633 30.2747 39.1459 29.888 38.9113 29.616C38.6819 29.3387 38.3353 29.2 37.8713 29.2C37.5299 29.2 37.2099 29.2773 36.9113 29.432C36.6126 29.5867 36.3299 29.7973 36.0633 30.064V36H34.0872ZM48.949 29.528C48.8903 29.6027 48.8317 29.6613 48.773 29.704C48.7197 29.7467 48.6397 29.768 48.533 29.768C48.4317 29.768 48.333 29.7387 48.237 29.68C48.141 29.616 48.0263 29.5467 47.893 29.472C47.7597 29.392 47.5997 29.3227 47.413 29.264C47.2317 29.2 47.005 29.168 46.733 29.168C46.3863 29.168 46.0823 29.232 45.821 29.36C45.5597 29.4827 45.341 29.6613 45.165 29.896C44.9943 30.1307 44.8663 30.416 44.781 30.752C44.6957 31.0827 44.653 31.4587 44.653 31.88C44.653 32.3173 44.6983 32.7067 44.789 33.048C44.885 33.3893 45.021 33.6773 45.197 33.912C45.373 34.1413 45.5863 34.3173 45.837 34.44C46.0877 34.5573 46.3703 34.616 46.685 34.616C46.9997 34.616 47.253 34.5787 47.445 34.504C47.6423 34.424 47.8077 34.3387 47.941 34.248C48.0743 34.152 48.189 34.0667 48.285 33.992C48.3863 33.912 48.4983 33.872 48.621 33.872C48.781 33.872 48.901 33.9333 48.981 34.056L49.549 34.776C49.3303 35.032 49.093 35.248 48.837 35.424C48.581 35.5947 48.3143 35.7333 48.037 35.84C47.765 35.9413 47.4823 36.0133 47.189 36.056C46.8957 36.0987 46.605 36.12 46.317 36.12C45.8103 36.12 45.333 36.0267 44.885 35.84C44.437 35.648 44.045 35.3707 43.709 35.008C43.3783 34.6453 43.1143 34.2027 42.917 33.68C42.725 33.152 42.629 32.552 42.629 31.88C42.629 31.2773 42.7143 30.72 42.885 30.208C43.061 29.6907 43.317 29.2453 43.653 28.872C43.989 28.4933 44.405 28.1973 44.901 27.984C45.397 27.7707 45.9677 27.664 46.613 27.664C47.2263 27.664 47.7623 27.7627 48.221 27.96C48.685 28.1573 49.101 28.44 49.469 28.808L48.949 29.528ZM54.31 27.664C54.9233 27.664 55.478 27.7627 55.974 27.96C56.4753 28.1573 56.902 28.4373 57.254 28.8C57.606 29.1627 57.878 29.6053 58.07 30.128C58.262 30.6507 58.358 31.2347 58.358 31.88C58.358 32.5307 58.262 33.1173 58.07 33.64C57.878 34.1627 57.606 34.608 57.254 34.976C56.902 35.344 56.4753 35.6267 55.974 35.824C55.478 36.0213 54.9233 36.12 54.31 36.12C53.6967 36.12 53.1393 36.0213 52.638 35.824C52.1367 35.6267 51.7073 35.344 51.35 34.976C50.998 34.608 50.7233 34.1627 50.526 33.64C50.334 33.1173 50.238 32.5307 50.238 31.88C50.238 31.2347 50.334 30.6507 50.526 30.128C50.7233 29.6053 50.998 29.1627 51.35 28.8C51.7073 28.4373 52.1367 28.1573 52.638 27.96C53.1393 27.7627 53.6967 27.664 54.31 27.664ZM54.31 34.6C54.9927 34.6 55.4967 34.3707 55.822 33.912C56.1527 33.4533 56.318 32.7813 56.318 31.896C56.318 31.0107 56.1527 30.336 55.822 29.872C55.4967 29.408 54.9927 29.176 54.31 29.176C53.6167 29.176 53.1047 29.4107 52.774 29.88C52.4433 30.344 52.278 31.016 52.278 31.896C52.278 32.776 52.4433 33.448 52.774 33.912C53.1047 34.3707 53.6167 34.6 54.31 34.6ZM59.8997 36V27.792H61.1078C61.3638 27.792 61.5318 27.912 61.6118 28.152L61.7398 28.76C61.8838 28.6 62.0331 28.4533 62.1878 28.32C62.3478 28.1867 62.5158 28.072 62.6918 27.976C62.8731 27.88 63.0651 27.8053 63.2678 27.752C63.4758 27.6933 63.7024 27.664 63.9478 27.664C64.4651 27.664 64.8891 27.8053 65.2198 28.088C65.5558 28.3653 65.8064 28.736 65.9718 29.2C66.0998 28.928 66.2598 28.696 66.4518 28.504C66.6438 28.3067 66.8544 28.1467 67.0838 28.024C67.3131 27.9013 67.5558 27.8107 67.8118 27.752C68.0731 27.6933 68.3344 27.664 68.5958 27.664C69.0491 27.664 69.4518 27.7333 69.8038 27.872C70.1558 28.0107 70.4518 28.2133 70.6918 28.48C70.9318 28.7467 71.1131 29.072 71.2358 29.456C71.3638 29.84 71.4278 30.28 71.4278 30.776V36H69.4518V30.776C69.4518 30.2533 69.3371 29.8613 69.1078 29.6C68.8784 29.3333 68.5424 29.2 68.0998 29.2C67.8971 29.2 67.7078 29.2347 67.5318 29.304C67.3611 29.3733 67.2091 29.4747 67.0758 29.608C66.9478 29.736 66.8464 29.8987 66.7718 30.096C66.6971 30.2933 66.6598 30.52 66.6598 30.776V36H64.6758V30.776C64.6758 30.2267 64.5638 29.8267 64.3398 29.576C64.1211 29.3253 63.7958 29.2 63.3637 29.2C63.0811 29.2 62.8144 29.272 62.5638 29.416C62.3184 29.5547 62.0891 29.7467 61.8758 29.992V36H59.8997ZM73.3685 36V27.792H74.5765C74.8325 27.792 75.0005 27.912 75.0805 28.152L75.2085 28.76C75.3525 28.6 75.5018 28.4533 75.6565 28.32C75.8165 28.1867 75.9845 28.072 76.1605 27.976C76.3418 27.88 76.5338 27.8053 76.7365 27.752C76.9445 27.6933 77.1712 27.664 77.4165 27.664C77.9338 27.664 78.3578 27.8053 78.6885 28.088C79.0245 28.3653 79.2752 28.736 79.4405 29.2C79.5685 28.928 79.7285 28.696 79.9205 28.504C80.1125 28.3067 80.3232 28.1467 80.5525 28.024C80.7818 27.9013 81.0245 27.8107 81.2805 27.752C81.5418 27.6933 81.8032 27.664 82.0645 27.664C82.5178 27.664 82.9205 27.7333 83.2725 27.872C83.6245 28.0107 83.9205 28.2133 84.1605 28.48C84.4005 28.7467 84.5818 29.072 84.7045 29.456C84.8325 29.84 84.8965 30.28 84.8965 30.776V36H82.9205V30.776C82.9205 30.2533 82.8058 29.8613 82.5765 29.6C82.3472 29.3333 82.0112 29.2 81.5685 29.2C81.3658 29.2 81.1765 29.2347 81.0005 29.304C80.8298 29.3733 80.6778 29.4747 80.5445 29.608C80.4165 29.736 80.3152 29.8987 80.2405 30.096C80.1658 30.2933 80.1285 30.52 80.1285 30.776V36H78.1445V30.776C78.1445 30.2267 78.0325 29.8267 77.8085 29.576C77.5898 29.3253 77.2645 29.2 76.8325 29.2C76.5498 29.2 76.2832 29.272 76.0325 29.416C75.7872 29.5547 75.5578 29.7467 75.3445 29.992V36H73.3685ZM88.9413 27.792V36H86.9653V27.792H88.9413ZM89.2373 25.4C89.2373 25.5707 89.2026 25.7307 89.1333 25.88C89.0639 26.0293 88.9706 26.16 88.8533 26.272C88.7413 26.384 88.6079 26.4747 88.4533 26.544C88.2986 26.608 88.1333 26.64 87.9573 26.64C87.7866 26.64 87.6239 26.608 87.4693 26.544C87.3199 26.4747 87.1893 26.384 87.0773 26.272C86.9653 26.16 86.8746 26.0293 86.8053 25.88C86.7413 25.7307 86.7093 25.5707 86.7093 25.4C86.7093 25.224 86.7413 25.0587 86.8053 24.904C86.8746 24.7493 86.9653 24.616 87.0773 24.504C87.1893 24.392 87.3199 24.304 87.4693 24.24C87.6239 24.1707 87.7866 24.136 87.9573 24.136C88.1333 24.136 88.2986 24.1707 88.4533 24.24C88.6079 24.304 88.7413 24.392 88.8533 24.504C88.9706 24.616 89.0639 24.7493 89.1333 24.904C89.2026 25.0587 89.2373 25.224 89.2373 25.4ZM91.181 36V27.792H92.389C92.645 27.792 92.813 27.912 92.893 28.152L93.029 28.8C93.1943 28.6293 93.3677 28.4747 93.549 28.336C93.7357 28.1973 93.9303 28.0773 94.133 27.976C94.341 27.8747 94.5623 27.7973 94.797 27.744C95.0317 27.6907 95.2877 27.664 95.565 27.664C96.013 27.664 96.4103 27.7413 96.757 27.896C97.1037 28.0453 97.3917 28.2587 97.621 28.536C97.8557 28.808 98.0317 29.136 98.149 29.52C98.2717 29.8987 98.333 30.3173 98.333 30.776V36H96.357V30.776C96.357 30.2747 96.2397 29.888 96.005 29.616C95.7757 29.3387 95.429 29.2 94.965 29.2C94.6237 29.2 94.3037 29.2773 94.005 29.432C93.7063 29.5867 93.4237 29.7973 93.157 30.064V36H91.181ZM103.115 27.648C103.467 27.648 103.797 27.6853 104.107 27.76C104.416 27.8293 104.699 27.9333 104.955 28.072H107.315V28.808C107.315 28.9307 107.283 29.0267 107.219 29.096C107.155 29.1653 107.045 29.2133 106.891 29.24L106.155 29.376C106.208 29.5147 106.248 29.6613 106.275 29.816C106.307 29.9707 106.323 30.1333 106.323 30.304C106.323 30.7093 106.24 31.0773 106.075 31.408C105.915 31.7333 105.691 32.0107 105.403 32.24C105.12 32.4693 104.781 32.648 104.387 32.776C103.997 32.8987 103.573 32.96 103.115 32.96C102.805 32.96 102.504 32.9307 102.211 32.872C101.955 33.0267 101.827 33.2 101.827 33.392C101.827 33.5573 101.901 33.68 102.051 33.76C102.205 33.8347 102.405 33.888 102.651 33.92C102.901 33.952 103.184 33.9733 103.499 33.984C103.813 33.9893 104.136 34.0053 104.467 34.032C104.797 34.0587 105.12 34.1067 105.435 34.176C105.749 34.24 106.029 34.344 106.275 34.488C106.525 34.632 106.725 34.8293 106.875 35.08C107.029 35.3253 107.107 35.6427 107.107 36.032C107.107 36.3947 107.016 36.7467 106.835 37.088C106.659 37.4293 106.4 37.7333 106.059 38C105.723 38.2667 105.309 38.48 104.819 38.64C104.328 38.8053 103.768 38.888 103.139 38.888C102.515 38.888 101.973 38.8267 101.515 38.704C101.056 38.5867 100.675 38.4267 100.371 38.224C100.072 38.0267 99.8481 37.7973 99.6988 37.536C99.5494 37.2747 99.4748 37.0027 99.4748 36.72C99.4748 36.336 99.5921 36.0133 99.8268 35.752C100.061 35.4907 100.387 35.2827 100.803 35.128C100.6 35.016 100.437 34.8667 100.315 34.68C100.192 34.4933 100.131 34.2507 100.131 33.952C100.131 33.8293 100.152 33.704 100.195 33.576C100.237 33.4427 100.301 33.312 100.387 33.184C100.477 33.056 100.589 32.936 100.723 32.824C100.856 32.7067 101.013 32.6027 101.195 32.512C100.779 32.288 100.451 31.9893 100.211 31.616C99.9761 31.2427 99.8588 30.8053 99.8588 30.304C99.8588 29.8987 99.9388 29.5333 100.099 29.208C100.264 28.8773 100.491 28.5973 100.779 28.368C101.072 28.1333 101.416 27.9547 101.811 27.832C102.211 27.7093 102.645 27.648 103.115 27.648ZM105.283 36.368C105.283 36.208 105.235 36.0773 105.139 35.976C105.043 35.8747 104.912 35.7973 104.747 35.744C104.581 35.6853 104.387 35.6427 104.163 35.616C103.944 35.5893 103.709 35.5707 103.459 35.56C103.213 35.544 102.957 35.5307 102.691 35.52C102.429 35.504 102.176 35.48 101.931 35.448C101.707 35.5707 101.525 35.7173 101.387 35.888C101.253 36.0533 101.187 36.2453 101.187 36.464C101.187 36.608 101.221 36.7413 101.291 36.864C101.365 36.992 101.48 37.1013 101.635 37.192C101.795 37.2827 102 37.352 102.251 37.4C102.501 37.4533 102.808 37.48 103.171 37.48C103.539 37.48 103.856 37.4507 104.123 37.392C104.389 37.3387 104.608 37.2613 104.779 37.16C104.955 37.064 105.083 36.9467 105.163 36.808C105.243 36.6747 105.283 36.528 105.283 36.368ZM103.115 31.696C103.36 31.696 103.573 31.664 103.755 31.6C103.936 31.5307 104.085 31.4373 104.203 31.32C104.325 31.2027 104.416 31.0613 104.475 30.896C104.539 30.7307 104.571 30.5493 104.571 30.352C104.571 29.9467 104.448 29.6267 104.203 29.392C103.963 29.152 103.6 29.032 103.115 29.032C102.629 29.032 102.264 29.152 102.019 29.392C101.779 29.6267 101.659 29.9467 101.659 30.352C101.659 30.544 101.688 30.7227 101.747 30.888C101.811 31.0533 101.901 31.1973 102.019 31.32C102.141 31.4373 102.293 31.5307 102.475 31.6C102.661 31.664 102.875 31.696 103.115 31.696ZM115.762 36H113.97L110.706 27.792H112.346C112.49 27.792 112.61 27.8267 112.706 27.896C112.807 27.9653 112.876 28.0533 112.914 28.16L114.498 32.544C114.588 32.8 114.663 33.0507 114.722 33.296C114.786 33.5413 114.842 33.7867 114.89 34.032C114.938 33.7867 114.991 33.5413 115.05 33.296C115.114 33.0507 115.194 32.8 115.29 32.544L116.914 28.16C116.951 28.0533 117.018 27.9653 117.114 27.896C117.21 27.8267 117.324 27.792 117.458 27.792H119.018L115.762 36ZM122.285 27.792V36H120.309V27.792H122.285ZM122.581 25.4C122.581 25.5707 122.546 25.7307 122.477 25.88C122.408 26.0293 122.314 26.16 122.197 26.272C122.085 26.384 121.952 26.4747 121.797 26.544C121.642 26.608 121.477 26.64 121.301 26.64C121.13 26.64 120.968 26.608 120.813 26.544C120.664 26.4747 120.533 26.384 120.421 26.272C120.309 26.16 120.218 26.0293 120.149 25.88C120.085 25.7307 120.053 25.5707 120.053 25.4C120.053 25.224 120.085 25.0587 120.149 24.904C120.218 24.7493 120.309 24.616 120.421 24.504C120.533 24.392 120.664 24.304 120.813 24.24C120.968 24.1707 121.13 24.136 121.301 24.136C121.477 24.136 121.642 24.1707 121.797 24.24C121.952 24.304 122.085 24.392 122.197 24.504C122.314 24.616 122.408 24.7493 122.477 24.904C122.546 25.0587 122.581 25.224 122.581 25.4ZM130.301 36C130.045 36 129.877 35.88 129.797 35.64L129.637 34.848C129.466 35.04 129.287 35.2133 129.101 35.368C128.914 35.5227 128.711 35.656 128.493 35.768C128.279 35.88 128.047 35.9653 127.797 36.024C127.551 36.088 127.285 36.12 126.997 36.12C126.549 36.12 126.138 36.0267 125.765 35.84C125.391 35.6533 125.069 35.384 124.797 35.032C124.53 34.6747 124.322 34.2347 124.173 33.712C124.029 33.1893 123.957 32.592 123.957 31.92C123.957 31.312 124.039 30.7467 124.205 30.224C124.37 29.7013 124.607 29.248 124.917 28.864C125.226 28.48 125.597 28.1813 126.029 27.968C126.461 27.7493 126.946 27.64 127.485 27.64C127.943 27.64 128.335 27.7147 128.661 27.864C128.986 28.008 129.277 28.2027 129.533 28.448V24.112H131.509V36H130.301ZM127.669 34.552C128.079 34.552 128.429 34.4667 128.717 34.296C129.005 34.1253 129.277 33.8827 129.533 33.568V29.888C129.309 29.616 129.063 29.424 128.797 29.312C128.535 29.2 128.253 29.144 127.949 29.144C127.65 29.144 127.378 29.2 127.133 29.312C126.893 29.424 126.687 29.5947 126.517 29.824C126.351 30.048 126.223 30.336 126.133 30.688C126.042 31.0347 125.997 31.4453 125.997 31.92C125.997 32.4 126.034 32.808 126.109 33.144C126.189 33.4747 126.301 33.7467 126.445 33.96C126.589 34.168 126.765 34.32 126.973 34.416C127.181 34.5067 127.413 34.552 127.669 34.552ZM137.042 27.664C137.559 27.664 138.034 27.7467 138.466 27.912C138.903 28.0773 139.279 28.32 139.594 28.64C139.908 28.9547 140.154 29.344 140.33 29.808C140.506 30.2667 140.594 30.792 140.594 31.384C140.594 31.5333 140.586 31.6587 140.57 31.76C140.559 31.856 140.535 31.9333 140.498 31.992C140.466 32.0453 140.42 32.0853 140.362 32.112C140.303 32.1333 140.228 32.144 140.138 32.144H135.066C135.124 32.9867 135.351 33.6053 135.746 34C136.14 34.3947 136.663 34.592 137.314 34.592C137.634 34.592 137.908 34.5547 138.138 34.48C138.372 34.4053 138.575 34.3227 138.746 34.232C138.922 34.1413 139.074 34.0587 139.202 33.984C139.335 33.9093 139.463 33.872 139.586 33.872C139.666 33.872 139.735 33.888 139.794 33.92C139.852 33.952 139.903 33.9973 139.946 34.056L140.522 34.776C140.303 35.032 140.058 35.248 139.786 35.424C139.514 35.5947 139.228 35.7333 138.93 35.84C138.636 35.9413 138.335 36.0133 138.026 36.056C137.722 36.0987 137.426 36.12 137.138 36.12C136.567 36.12 136.036 36.0267 135.546 35.84C135.055 35.648 134.628 35.368 134.266 35C133.903 34.6267 133.618 34.168 133.41 33.624C133.202 33.0747 133.098 32.44 133.098 31.72C133.098 31.16 133.188 30.6347 133.37 30.144C133.551 29.648 133.81 29.2187 134.146 28.856C134.487 28.488 134.9 28.1973 135.386 27.984C135.876 27.7707 136.428 27.664 137.042 27.664ZM137.082 29.08C136.506 29.08 136.055 29.2427 135.73 29.568C135.404 29.8933 135.196 30.3547 135.106 30.952H138.818C138.818 30.696 138.783 30.456 138.714 30.232C138.644 30.0027 138.538 29.8027 138.394 29.632C138.25 29.4613 138.068 29.328 137.85 29.232C137.631 29.1307 137.375 29.08 137.082 29.08ZM145.701 27.664C146.314 27.664 146.869 27.7627 147.365 27.96C147.866 28.1573 148.293 28.4373 148.645 28.8C148.997 29.1627 149.269 29.6053 149.461 30.128C149.653 30.6507 149.749 31.2347 149.749 31.88C149.749 32.5307 149.653 33.1173 149.461 33.64C149.269 34.1627 148.997 34.608 148.645 34.976C148.293 35.344 147.866 35.6267 147.365 35.824C146.869 36.0213 146.314 36.12 145.701 36.12C145.087 36.12 144.53 36.0213 144.029 35.824C143.527 35.6267 143.098 35.344 142.741 34.976C142.389 34.608 142.114 34.1627 141.917 33.64C141.725 33.1173 141.629 32.5307 141.629 31.88C141.629 31.2347 141.725 30.6507 141.917 30.128C142.114 29.6053 142.389 29.1627 142.741 28.8C143.098 28.4373 143.527 28.1573 144.029 27.96C144.53 27.7627 145.087 27.664 145.701 27.664ZM145.701 34.6C146.383 34.6 146.887 34.3707 147.213 33.912C147.543 33.4533 147.709 32.7813 147.709 31.896C147.709 31.0107 147.543 30.336 147.213 29.872C146.887 29.408 146.383 29.176 145.701 29.176C145.007 29.176 144.495 29.4107 144.165 29.88C143.834 30.344 143.669 31.016 143.669 31.896C143.669 32.776 143.834 33.448 144.165 33.912C144.495 34.3707 145.007 34.6 145.701 34.6ZM160.152 29.528C160.093 29.6027 160.035 29.6613 159.976 29.704C159.923 29.7467 159.843 29.768 159.736 29.768C159.635 29.768 159.536 29.7387 159.44 29.68C159.344 29.616 159.229 29.5467 159.096 29.472C158.963 29.392 158.803 29.3227 158.616 29.264C158.435 29.2 158.208 29.168 157.936 29.168C157.589 29.168 157.285 29.232 157.024 29.36C156.763 29.4827 156.544 29.6613 156.368 29.896C156.197 30.1307 156.069 30.416 155.984 30.752C155.899 31.0827 155.856 31.4587 155.856 31.88C155.856 32.3173 155.901 32.7067 155.992 33.048C156.088 33.3893 156.224 33.6773 156.4 33.912C156.576 34.1413 156.789 34.3173 157.04 34.44C157.291 34.5573 157.573 34.616 157.888 34.616C158.203 34.616 158.456 34.5787 158.648 34.504C158.845 34.424 159.011 34.3387 159.144 34.248C159.277 34.152 159.392 34.0667 159.488 33.992C159.589 33.912 159.701 33.872 159.824 33.872C159.984 33.872 160.104 33.9333 160.184 34.056L160.752 34.776C160.533 35.032 160.296 35.248 160.04 35.424C159.784 35.5947 159.517 35.7333 159.24 35.84C158.968 35.9413 158.685 36.0133 158.392 36.056C158.099 36.0987 157.808 36.12 157.52 36.12C157.013 36.12 156.536 36.0267 156.088 35.84C155.64 35.648 155.248 35.3707 154.912 35.008C154.581 34.6453 154.317 34.2027 154.12 33.68C153.928 33.152 153.832 32.552 153.832 31.88C153.832 31.2773 153.917 30.72 154.088 30.208C154.264 29.6907 154.52 29.2453 154.856 28.872C155.192 28.4933 155.608 28.1973 156.104 27.984C156.6 27.7707 157.171 27.664 157.816 27.664C158.429 27.664 158.965 27.7627 159.424 27.96C159.888 28.1573 160.304 28.44 160.672 28.808L160.152 29.528ZM168.441 36H167.553C167.366 36 167.22 35.9733 167.113 35.92C167.006 35.8613 166.926 35.7467 166.873 35.576L166.697 34.992C166.489 35.1787 166.284 35.344 166.081 35.488C165.884 35.6267 165.678 35.744 165.465 35.84C165.252 35.936 165.025 36.008 164.785 36.056C164.545 36.104 164.278 36.128 163.985 36.128C163.638 36.128 163.318 36.0827 163.025 35.992C162.732 35.896 162.478 35.7547 162.265 35.568C162.057 35.3813 161.894 35.1493 161.777 34.872C161.66 34.5947 161.601 34.272 161.601 33.904C161.601 33.5947 161.681 33.2907 161.841 32.992C162.006 32.688 162.278 32.416 162.657 32.176C163.036 31.9307 163.54 31.728 164.169 31.568C164.798 31.408 165.58 31.3173 166.513 31.296V30.816C166.513 30.2667 166.396 29.8613 166.161 29.6C165.932 29.3333 165.596 29.2 165.153 29.2C164.833 29.2 164.566 29.2373 164.353 29.312C164.14 29.3867 163.953 29.472 163.793 29.568C163.638 29.6587 163.494 29.7413 163.361 29.816C163.228 29.8907 163.081 29.928 162.921 29.928C162.788 29.928 162.673 29.8933 162.577 29.824C162.481 29.7547 162.404 29.6693 162.345 29.568L161.985 28.936C162.929 28.072 164.068 27.64 165.401 27.64C165.881 27.64 166.308 27.72 166.681 27.88C167.06 28.0347 167.38 28.2533 167.641 28.536C167.902 28.8133 168.1 29.1467 168.233 29.536C168.372 29.9253 168.441 30.352 168.441 30.816V36ZM164.601 34.768C164.804 34.768 164.99 34.7493 165.161 34.712C165.332 34.6747 165.492 34.6187 165.641 34.544C165.796 34.4693 165.942 34.3787 166.081 34.272C166.225 34.16 166.369 34.0293 166.513 33.88V32.496C165.937 32.5227 165.454 32.5733 165.065 32.648C164.681 32.7173 164.372 32.808 164.137 32.92C163.902 33.032 163.734 33.1627 163.633 33.312C163.537 33.4613 163.489 33.624 163.489 33.8C163.489 34.1467 163.59 34.3947 163.793 34.544C164.001 34.6933 164.27 34.768 164.601 34.768ZM172.488 24.112V36H170.512V24.112H172.488ZM176.832 24.112V36H174.856V24.112H176.832Z" fill="#1A1C1D"/>
<rect x="278" y="8" width="44" height="44" rx="8" fill="#EF6954"/>
<path d="M300 27.75C298.781 27.75 297.633 27.9258 296.555 28.2773V30.5977C296.555 30.9492 296.414 31.1836 296.133 31.3008C295.383 31.6523 294.715 32.1094 294.129 32.6719C293.988 32.8125 293.812 32.8828 293.602 32.8828C293.391 32.8828 293.215 32.8125 293.074 32.6719L291.211 30.8086C291.07 30.668 291 30.4922 291 30.2812C291 30.0703 291.07 29.8945 291.211 29.7539C293.672 27.4102 296.602 26.2383 300 26.2383C303.398 26.2383 306.328 27.4102 308.789 29.7539C308.93 29.8945 309 30.0703 309 30.2812C309 30.4922 308.93 30.668 308.789 30.8086L306.926 32.6719C306.785 32.8125 306.609 32.8828 306.398 32.8828C306.188 32.8828 306.012 32.8125 305.871 32.6719C305.285 32.1094 304.617 31.6523 303.867 31.3008C303.586 31.1836 303.445 30.9609 303.445 30.6328V28.3125C302.273 27.9375 301.125 27.75 300 27.75Z" fill="white"/>
<rect x="226" y="8" width="44" height="44" rx="8" fill="#00CE7D"/>
<path d="M243.957 29.0859C245.082 31.2656 246.734 32.918 248.914 34.043L250.566 32.3906C250.801 32.1562 251.059 32.0977 251.34 32.2148C252.184 32.4961 253.074 32.6367 254.012 32.6367C254.223 32.6367 254.398 32.707 254.539 32.8477C254.68 32.9883 254.75 33.1641 254.75 33.375V36.0117C254.75 36.2227 254.68 36.3984 254.539 36.5391C254.398 36.6797 254.223 36.75 254.012 36.75C250.496 36.75 247.484 35.5078 244.977 33.0234C242.492 30.5156 241.25 27.5039 241.25 23.9883C241.25 23.7773 241.32 23.6016 241.461 23.4609C241.602 23.3203 241.777 23.25 241.988 23.25H244.625C244.836 23.25 245.012 23.3203 245.152 23.4609C245.293 23.6016 245.363 23.7773 245.363 23.9883C245.363 24.9258 245.504 25.8164 245.785 26.6602C245.879 26.9648 245.82 27.2227 245.609 27.4336L243.957 29.0859Z" fill="white"/>
<defs>
<linearGradient id="paint0_linear" x1="297.849" y1="6.54502" x2="281.531" y2="103.278" gradientUnits="userSpaceOnUse">
<stop stop-color="#29D965"/>
<stop offset="1" stop-color="#0F80E9"/>
</linearGradient>
</defs>
</svg>
