<svg width="299" height="54" viewBox="0 0 299 54" fill="none" xmlns="http://www.w3.org/2000/svg">
<path d="M0 17C0 7.61116 7.61116 0 17 0H240C249.389 0 257 7.61116 257 17V54H17C7.61116 54 0 46.3888 0 37V17Z" fill="#0078E5"/>
<path d="M0 17C0 7.61116 7.61116 0 17 0H240C249.389 0 257 7.61116 257 17V54H17C7.61116 54 0 46.3888 0 37V17Z" fill="white" fill-opacity="0.35"/>
<path d="M20.539 18.01V22H19.188V18.01L15.513 11.969H16.703C16.8244 11.969 16.92 11.9993 16.99 12.06C17.06 12.1207 17.1207 12.1953 17.172 12.284L19.468 16.183C19.5614 16.3463 19.6384 16.5003 19.699 16.645C19.7644 16.7897 19.8227 16.932 19.874 17.072C19.9254 16.9273 19.9814 16.7827 20.042 16.638C20.1027 16.4933 20.1797 16.3417 20.273 16.183L22.562 12.284C22.604 12.2093 22.66 12.1393 22.73 12.074C22.8047 12.004 22.9004 11.969 23.017 11.969H24.221L20.539 18.01ZM26.9696 14.797C27.3943 14.797 27.7863 14.8693 28.1456 15.014C28.505 15.154 28.8153 15.3593 29.0766 15.63C29.338 15.896 29.541 16.2273 29.6856 16.624C29.835 17.016 29.9096 17.464 29.9096 17.968C29.9096 18.164 29.8886 18.2947 29.8466 18.36C29.8046 18.4253 29.7253 18.458 29.6086 18.458H24.8906C24.9 18.906 24.9606 19.2957 25.0726 19.627C25.1846 19.9583 25.3386 20.236 25.5346 20.46C25.7306 20.6793 25.964 20.845 26.2346 20.957C26.5053 21.0643 26.8086 21.118 27.1446 21.118C27.4573 21.118 27.7256 21.083 27.9496 21.013C28.1783 20.9383 28.3743 20.859 28.5376 20.775C28.701 20.691 28.8363 20.614 28.9436 20.544C29.0556 20.4693 29.1513 20.432 29.2306 20.432C29.3333 20.432 29.4126 20.4717 29.4686 20.551L29.8186 21.006C29.6646 21.1927 29.4803 21.356 29.2656 21.496C29.051 21.6313 28.82 21.7433 28.5726 21.832C28.33 21.9207 28.078 21.986 27.8166 22.028C27.5553 22.0747 27.2963 22.098 27.0396 22.098C26.5496 22.098 26.097 22.0163 25.6816 21.853C25.271 21.685 24.914 21.4423 24.6106 21.125C24.312 20.803 24.0786 20.4063 23.9106 19.935C23.7426 19.4637 23.6586 18.9223 23.6586 18.311C23.6586 17.8163 23.7333 17.3543 23.8826 16.925C24.0366 16.4957 24.256 16.1247 24.5406 15.812C24.8253 15.4947 25.173 15.2473 25.5836 15.07C25.9943 14.888 26.4563 14.797 26.9696 14.797ZM26.9976 15.714C26.3956 15.714 25.922 15.889 25.5766 16.239C25.2313 16.5843 25.0166 17.065 24.9326 17.681H28.7896C28.7896 17.3917 28.75 17.128 28.6706 16.89C28.5913 16.6473 28.4746 16.4397 28.3206 16.267C28.1666 16.0897 27.9776 15.9543 27.7536 15.861C27.5343 15.763 27.2823 15.714 26.9976 15.714ZM35.5644 16.078C35.5084 16.1807 35.4221 16.232 35.3054 16.232C35.2354 16.232 35.1561 16.2063 35.0674 16.155C34.9788 16.1037 34.8691 16.0477 34.7384 15.987C34.6124 15.9217 34.4608 15.8633 34.2834 15.812C34.1061 15.756 33.8961 15.728 33.6534 15.728C33.4434 15.728 33.2544 15.756 33.0864 15.812C32.9184 15.8633 32.7738 15.9357 32.6524 16.029C32.5358 16.1223 32.4448 16.232 32.3794 16.358C32.3188 16.4793 32.2884 16.6123 32.2884 16.757C32.2884 16.939 32.3398 17.0907 32.4424 17.212C32.5498 17.3333 32.6898 17.4383 32.8624 17.527C33.0351 17.6157 33.2311 17.695 33.4504 17.765C33.6698 17.8303 33.8938 17.9027 34.1224 17.982C34.3558 18.0567 34.5821 18.1407 34.8014 18.234C35.0208 18.3273 35.2168 18.444 35.3894 18.584C35.5621 18.724 35.6998 18.8967 35.8024 19.102C35.9098 19.3027 35.9634 19.5453 35.9634 19.83C35.9634 20.1567 35.9051 20.46 35.7884 20.74C35.6718 21.0153 35.4991 21.2557 35.2704 21.461C35.0418 21.6617 34.7618 21.8203 34.4304 21.937C34.0991 22.0537 33.7164 22.112 33.2824 22.112C32.7878 22.112 32.3398 22.0327 31.9384 21.874C31.5371 21.7107 31.1964 21.503 30.9164 21.251L31.2104 20.775C31.2478 20.7143 31.2921 20.6677 31.3434 20.635C31.3948 20.6023 31.4624 20.586 31.5464 20.586C31.6304 20.586 31.7191 20.6187 31.8124 20.684C31.9058 20.7493 32.0178 20.8217 32.1484 20.901C32.2838 20.9803 32.4448 21.0527 32.6314 21.118C32.8228 21.1833 33.0608 21.216 33.3454 21.216C33.5881 21.216 33.8004 21.1857 33.9824 21.125C34.1644 21.0597 34.3161 20.9733 34.4374 20.866C34.5588 20.7587 34.6474 20.635 34.7034 20.495C34.7641 20.355 34.7944 20.2057 34.7944 20.047C34.7944 19.851 34.7408 19.69 34.6334 19.564C34.5308 19.4333 34.3931 19.3237 34.2204 19.235C34.0478 19.1417 33.8494 19.0623 33.6254 18.997C33.4061 18.927 33.1798 18.8547 32.9464 18.78C32.7178 18.7053 32.4914 18.6213 32.2674 18.528C32.0481 18.43 31.8521 18.3087 31.6794 18.164C31.5068 18.0193 31.3668 17.842 31.2594 17.632C31.1568 17.4173 31.1054 17.1583 31.1054 16.855C31.1054 16.5843 31.1614 16.3253 31.2734 16.078C31.3854 15.826 31.5488 15.6067 31.7634 15.42C31.9781 15.2287 32.2418 15.077 32.5544 14.965C32.8671 14.853 33.2241 14.797 33.6254 14.797C34.0921 14.797 34.5098 14.8717 34.8784 15.021C35.2518 15.1657 35.5738 15.3663 35.8444 15.623L35.5644 16.078ZM37.1687 21.23C37.1687 21.1087 37.1897 20.9943 37.2317 20.887C37.2784 20.7797 37.3391 20.6863 37.4137 20.607C37.4931 20.5277 37.5864 20.4647 37.6937 20.418C37.8011 20.3713 37.9154 20.348 38.0367 20.348C38.1581 20.348 38.2724 20.3713 38.3797 20.418C38.4871 20.4647 38.5804 20.5277 38.6597 20.607C38.7391 20.6863 38.7997 20.7797 38.8417 20.887C38.8884 20.9943 38.9117 21.1087 38.9117 21.23C38.9117 21.356 38.8884 21.4727 38.8417 21.58C38.7997 21.6827 38.7391 21.7737 38.6597 21.853C38.5804 21.9323 38.4871 21.993 38.3797 22.035C38.2724 22.0817 38.1581 22.105 38.0367 22.105C37.9154 22.105 37.8011 22.0817 37.6937 22.035C37.5864 21.993 37.4931 21.9323 37.4137 21.853C37.3391 21.7737 37.2784 21.6827 37.2317 21.58C37.1897 21.4727 37.1687 21.356 37.1687 21.23ZM45.0546 22H43.6966V11.969H45.0546V22ZM55.0856 16.169C55.0482 16.2203 55.0109 16.26 54.9736 16.288C54.9362 16.316 54.8826 16.33 54.8126 16.33C54.7426 16.33 54.6656 16.302 54.5816 16.246C54.5022 16.1853 54.3996 16.12 54.2736 16.05C54.1476 15.98 53.9936 15.917 53.8116 15.861C53.6342 15.8003 53.4149 15.77 53.1536 15.77C52.8082 15.77 52.5026 15.833 52.2366 15.959C51.9706 16.0803 51.7466 16.2577 51.5646 16.491C51.3872 16.7243 51.2519 17.0067 51.1586 17.338C51.0699 17.6693 51.0256 18.0403 51.0256 18.451C51.0256 18.8803 51.0746 19.263 51.1726 19.599C51.2706 19.9303 51.4082 20.2103 51.5856 20.439C51.7629 20.663 51.9776 20.8357 52.2296 20.957C52.4862 21.0737 52.7732 21.132 53.0906 21.132C53.3939 21.132 53.6436 21.097 53.8396 21.027C54.0356 20.9523 54.1989 20.8707 54.3296 20.782C54.4602 20.6933 54.5676 20.614 54.6516 20.544C54.7356 20.4693 54.8196 20.432 54.9036 20.432C55.0109 20.432 55.0902 20.4717 55.1416 20.551L55.4916 21.006C55.1836 21.384 54.7986 21.6617 54.3366 21.839C53.8746 22.0117 53.3869 22.098 52.8736 22.098C52.4302 22.098 52.0172 22.0163 51.6346 21.853C51.2566 21.6897 50.9276 21.454 50.6476 21.146C50.3676 20.8333 50.1459 20.4507 49.9826 19.998C49.8239 19.5453 49.7446 19.0297 49.7446 18.451C49.7446 17.9237 49.8169 17.436 49.9616 16.988C50.1109 16.54 50.3256 16.155 50.6056 15.833C50.8902 15.5063 51.2402 15.252 51.6556 15.07C52.0709 14.888 52.5469 14.797 53.0836 14.797C53.5782 14.797 54.0169 14.8787 54.3996 15.042C54.7822 15.2007 55.1206 15.427 55.4146 15.721L55.0856 16.169ZM61.9917 22H61.4387C61.3174 22 61.2194 21.9813 61.1447 21.944C61.0701 21.9067 61.0211 21.8273 60.9977 21.706L60.8577 21.048C60.6711 21.216 60.4891 21.3677 60.3117 21.503C60.1344 21.6337 59.9477 21.7457 59.7517 21.839C59.5557 21.9277 59.3457 21.9953 59.1217 22.042C58.9024 22.0887 58.6574 22.112 58.3867 22.112C58.1114 22.112 57.8524 22.0747 57.6097 22C57.3717 21.9207 57.1641 21.804 56.9867 21.65C56.8094 21.496 56.6671 21.3023 56.5597 21.069C56.4571 20.831 56.4057 20.551 56.4057 20.229C56.4057 19.949 56.4827 19.6807 56.6367 19.424C56.7907 19.1627 57.0381 18.9317 57.3787 18.731C57.7241 18.5303 58.1744 18.367 58.7297 18.241C59.2851 18.1103 59.9641 18.0357 60.7667 18.017V17.464C60.7667 16.9133 60.6477 16.498 60.4097 16.218C60.1764 15.9333 59.8287 15.791 59.3667 15.791C59.0634 15.791 58.8067 15.8307 58.5967 15.91C58.3914 15.9847 58.2117 16.071 58.0577 16.169C57.9084 16.2623 57.7777 16.3487 57.6657 16.428C57.5584 16.5027 57.4511 16.54 57.3437 16.54C57.2597 16.54 57.1851 16.519 57.1197 16.477C57.0591 16.4303 57.0101 16.3743 56.9727 16.309L56.7487 15.91C57.1407 15.532 57.5631 15.2497 58.0157 15.063C58.4684 14.8763 58.9701 14.783 59.5207 14.783C59.9174 14.783 60.2697 14.8483 60.5777 14.979C60.8857 15.1097 61.1447 15.2917 61.3547 15.525C61.5647 15.7583 61.7234 16.0407 61.8307 16.372C61.9381 16.7033 61.9917 17.0673 61.9917 17.464V22ZM58.7577 21.237C58.9771 21.237 59.1777 21.216 59.3597 21.174C59.5417 21.1273 59.7121 21.0643 59.8707 20.985C60.0341 20.901 60.1881 20.8007 60.3327 20.684C60.4821 20.5673 60.6267 20.4343 60.7667 20.285V18.808C60.1927 18.8267 59.7051 18.8733 59.3037 18.948C58.9024 19.018 58.5757 19.1113 58.3237 19.228C58.0717 19.3447 57.8874 19.4823 57.7707 19.641C57.6587 19.7997 57.6027 19.977 57.6027 20.173C57.6027 20.3597 57.6331 20.5207 57.6937 20.656C57.7544 20.7913 57.8361 20.9033 57.9387 20.992C58.0414 21.076 58.1627 21.139 58.3027 21.181C58.4427 21.2183 58.5944 21.237 58.7577 21.237ZM63.8794 22V14.909H64.6214C64.7988 14.909 64.9108 14.9953 64.9574 15.168L65.0554 15.938C65.3634 15.5973 65.7064 15.322 66.0844 15.112C66.4671 14.902 66.9081 14.797 67.4074 14.797C67.7948 14.797 68.1354 14.8623 68.4294 14.993C68.7281 15.119 68.9754 15.301 69.1714 15.539C69.3721 15.7723 69.5238 16.0547 69.6264 16.386C69.7291 16.7173 69.7804 17.0837 69.7804 17.485V22H68.5344V17.485C68.5344 16.9483 68.4108 16.533 68.1634 16.239C67.9208 15.9403 67.5474 15.791 67.0434 15.791C66.6748 15.791 66.3294 15.8797 66.0074 16.057C65.6901 16.2343 65.3961 16.4747 65.1254 16.778V22H63.8794ZM78.4258 16.078C78.3698 16.1807 78.2834 16.232 78.1668 16.232C78.0968 16.232 78.0174 16.2063 77.9288 16.155C77.8401 16.1037 77.7304 16.0477 77.5998 15.987C77.4738 15.9217 77.3221 15.8633 77.1448 15.812C76.9674 15.756 76.7574 15.728 76.5148 15.728C76.3048 15.728 76.1158 15.756 75.9478 15.812C75.7798 15.8633 75.6351 15.9357 75.5138 16.029C75.3971 16.1223 75.3061 16.232 75.2408 16.358C75.1801 16.4793 75.1498 16.6123 75.1498 16.757C75.1498 16.939 75.2011 17.0907 75.3038 17.212C75.4111 17.3333 75.5511 17.4383 75.7238 17.527C75.8964 17.6157 76.0924 17.695 76.3118 17.765C76.5311 17.8303 76.7551 17.9027 76.9838 17.982C77.2171 18.0567 77.4434 18.1407 77.6628 18.234C77.8821 18.3273 78.0781 18.444 78.2508 18.584C78.4234 18.724 78.5611 18.8967 78.6638 19.102C78.7711 19.3027 78.8248 19.5453 78.8248 19.83C78.8248 20.1567 78.7664 20.46 78.6498 20.74C78.5331 21.0153 78.3604 21.2557 78.1318 21.461C77.9031 21.6617 77.6231 21.8203 77.2918 21.937C76.9604 22.0537 76.5778 22.112 76.1438 22.112C75.6491 22.112 75.2011 22.0327 74.7998 21.874C74.3984 21.7107 74.0578 21.503 73.7778 21.251L74.0718 20.775C74.1091 20.7143 74.1534 20.6677 74.2048 20.635C74.2561 20.6023 74.3238 20.586 74.4078 20.586C74.4918 20.586 74.5804 20.6187 74.6738 20.684C74.7671 20.7493 74.8791 20.8217 75.0098 20.901C75.1451 20.9803 75.3061 21.0527 75.4928 21.118C75.6841 21.1833 75.9221 21.216 76.2068 21.216C76.4494 21.216 76.6618 21.1857 76.8438 21.125C77.0258 21.0597 77.1774 20.9733 77.2987 20.866C77.4201 20.7587 77.5088 20.635 77.5648 20.495C77.6254 20.355 77.6558 20.2057 77.6558 20.047C77.6558 19.851 77.6021 19.69 77.4948 19.564C77.3921 19.4333 77.2544 19.3237 77.0818 19.235C76.9091 19.1417 76.7108 19.0623 76.4868 18.997C76.2674 18.927 76.0411 18.8547 75.8078 18.78C75.5791 18.7053 75.3528 18.6213 75.1288 18.528C74.9094 18.43 74.7134 18.3087 74.5408 18.164C74.3681 18.0193 74.2281 17.842 74.1208 17.632C74.0181 17.4173 73.9668 17.1583 73.9668 16.855C73.9668 16.5843 74.0228 16.3253 74.1348 16.078C74.2468 15.826 74.4101 15.6067 74.6248 15.42C74.8394 15.2287 75.1031 15.077 75.4158 14.965C75.7284 14.853 76.0854 14.797 76.4868 14.797C76.9534 14.797 77.3711 14.8717 77.7398 15.021C78.1131 15.1657 78.4351 15.3663 78.7058 15.623L78.4258 16.078ZM80.4361 22V11.689H81.6821V15.861C81.9854 15.539 82.3214 15.2823 82.6901 15.091C83.0587 14.895 83.4834 14.797 83.9641 14.797C84.3514 14.797 84.6921 14.8623 84.9861 14.993C85.2847 15.119 85.5321 15.301 85.7281 15.539C85.9287 15.7723 86.0804 16.0547 86.1831 16.386C86.2857 16.7173 86.3371 17.0837 86.3371 17.485V22H85.0911V17.485C85.0911 16.9483 84.9674 16.533 84.7201 16.239C84.4774 15.9403 84.1041 15.791 83.6001 15.791C83.2314 15.791 82.8861 15.8797 82.5641 16.057C82.2467 16.2343 81.9527 16.4747 81.6821 16.778V22H80.4361ZM91.0854 14.797C91.6034 14.797 92.07 14.8833 92.4854 15.056C92.9054 15.2287 93.26 15.4737 93.5494 15.791C93.8434 16.1083 94.0674 16.4933 94.2214 16.946C94.38 17.394 94.4594 17.8957 94.4594 18.451C94.4594 19.011 94.38 19.515 94.2214 19.963C94.0674 20.411 93.8434 20.7937 93.5494 21.111C93.26 21.4283 92.9054 21.6733 92.4854 21.846C92.07 22.014 91.6034 22.098 91.0854 22.098C90.5674 22.098 90.0984 22.014 89.6784 21.846C89.263 21.6733 88.9084 21.4283 88.6144 21.111C88.3204 20.7937 88.094 20.411 87.9354 19.963C87.7767 19.515 87.6974 19.011 87.6974 18.451C87.6974 17.8957 87.7767 17.394 87.9354 16.946C88.094 16.4933 88.3204 16.1083 88.6144 15.791C88.9084 15.4737 89.263 15.2287 89.6784 15.056C90.0984 14.8833 90.5674 14.797 91.0854 14.797ZM91.0854 21.125C91.7854 21.125 92.308 20.8917 92.6534 20.425C92.9987 19.9537 93.1714 19.298 93.1714 18.458C93.1714 17.6133 92.9987 16.9553 92.6534 16.484C92.308 16.0127 91.7854 15.777 91.0854 15.777C90.7307 15.777 90.4227 15.8377 90.1614 15.959C89.9 16.0803 89.6807 16.2553 89.5034 16.484C89.3307 16.7127 89.2 16.995 89.1114 17.331C89.0274 17.6623 88.9854 18.038 88.9854 18.458C88.9854 18.878 89.0274 19.2537 89.1114 19.585C89.2 19.9163 89.3307 20.1963 89.5034 20.425C89.6807 20.649 89.9 20.8217 90.1614 20.943C90.4227 21.0643 90.7307 21.125 91.0854 21.125ZM95.0707 14.909H96.0507C96.1533 14.909 96.2373 14.9347 96.3027 14.986C96.368 15.0373 96.4123 15.098 96.4357 15.168L97.7937 19.732C97.831 19.9 97.866 20.0633 97.8987 20.222C97.9313 20.376 97.9593 20.5323 97.9827 20.691C98.02 20.5323 98.062 20.376 98.1087 20.222C98.1553 20.0633 98.2043 19.9 98.2557 19.732L99.7537 15.14C99.777 15.07 99.8167 15.0117 99.8727 14.965C99.9333 14.9183 100.008 14.895 100.097 14.895H100.636C100.729 14.895 100.806 14.9183 100.867 14.965C100.927 15.0117 100.969 15.07 100.993 15.14L102.456 19.732C102.507 19.8953 102.551 20.0563 102.589 20.215C102.631 20.3737 102.67 20.53 102.708 20.684C102.731 20.53 102.761 20.369 102.799 20.201C102.836 20.033 102.876 19.8767 102.918 19.732L104.304 15.168C104.327 15.0933 104.371 15.0327 104.437 14.986C104.502 14.9347 104.579 14.909 104.668 14.909H105.606L103.31 22H102.323C102.201 22 102.117 21.9207 102.071 21.762L100.503 16.953C100.465 16.8457 100.435 16.7383 100.412 16.631C100.388 16.519 100.365 16.4093 100.342 16.302C100.318 16.4093 100.295 16.519 100.272 16.631C100.248 16.743 100.218 16.8527 100.181 16.96L98.5917 21.762C98.5403 21.9207 98.4447 22 98.3047 22H97.3667L95.0707 14.909ZM110.806 14.909V22H109.56V14.909H110.806ZM111.086 12.683C111.086 12.8043 111.061 12.9187 111.009 13.026C110.963 13.1287 110.897 13.222 110.813 13.306C110.734 13.3853 110.641 13.4483 110.533 13.495C110.426 13.5417 110.312 13.565 110.19 13.565C110.069 13.565 109.955 13.5417 109.847 13.495C109.745 13.4483 109.651 13.3853 109.567 13.306C109.488 13.222 109.425 13.1287 109.378 13.026C109.332 12.9187 109.308 12.8043 109.308 12.683C109.308 12.5617 109.332 12.4473 109.378 12.34C109.425 12.228 109.488 12.1323 109.567 12.053C109.651 11.969 109.745 11.9037 109.847 11.857C109.955 11.8103 110.069 11.787 110.19 11.787C110.312 11.787 110.426 11.8103 110.533 11.857C110.641 11.9037 110.734 11.969 110.813 12.053C110.897 12.1323 110.963 12.228 111.009 12.34C111.061 12.4473 111.086 12.5617 111.086 12.683ZM115.151 22.112C114.591 22.112 114.16 21.9557 113.856 21.643C113.558 21.3303 113.408 20.88 113.408 20.292V15.952H112.554C112.48 15.952 112.417 15.931 112.365 15.889C112.314 15.8423 112.288 15.7723 112.288 15.679V15.182L113.45 15.035L113.737 12.844C113.747 12.774 113.777 12.718 113.828 12.676C113.88 12.6293 113.945 12.606 114.024 12.606H114.654V15.049H116.684V15.952H114.654V20.208C114.654 20.5067 114.727 20.7283 114.871 20.873C115.016 21.0177 115.203 21.09 115.431 21.09C115.562 21.09 115.674 21.0737 115.767 21.041C115.865 21.0037 115.949 20.964 116.019 20.922C116.089 20.88 116.148 20.8427 116.194 20.81C116.246 20.7727 116.29 20.754 116.327 20.754C116.393 20.754 116.451 20.7937 116.502 20.873L116.866 21.468C116.652 21.6687 116.393 21.8273 116.089 21.944C115.786 22.056 115.473 22.112 115.151 22.112ZM123.081 22.112C122.521 22.112 122.089 21.9557 121.786 21.643C121.487 21.3303 121.338 20.88 121.338 20.292V15.952H120.484C120.409 15.952 120.346 15.931 120.295 15.889C120.244 15.8423 120.218 15.7723 120.218 15.679V15.182L121.38 15.035L121.667 12.844C121.676 12.774 121.707 12.718 121.758 12.676C121.809 12.6293 121.875 12.606 121.954 12.606H122.584V15.049H124.614V15.952H122.584V20.208C122.584 20.5067 122.656 20.7283 122.801 20.873C122.946 21.0177 123.132 21.09 123.361 21.09C123.492 21.09 123.604 21.0737 123.697 21.041C123.795 21.0037 123.879 20.964 123.949 20.922C124.019 20.88 124.077 20.8427 124.124 20.81C124.175 20.7727 124.22 20.754 124.257 20.754C124.322 20.754 124.381 20.7937 124.432 20.873L124.796 21.468C124.581 21.6687 124.322 21.8273 124.019 21.944C123.716 22.056 123.403 22.112 123.081 22.112ZM129.025 14.797C129.543 14.797 130.009 14.8833 130.425 15.056C130.845 15.2287 131.199 15.4737 131.489 15.791C131.783 16.1083 132.007 16.4933 132.161 16.946C132.319 17.394 132.399 17.8957 132.399 18.451C132.399 19.011 132.319 19.515 132.161 19.963C132.007 20.411 131.783 20.7937 131.489 21.111C131.199 21.4283 130.845 21.6733 130.425 21.846C130.009 22.014 129.543 22.098 129.025 22.098C128.507 22.098 128.038 22.014 127.618 21.846C127.202 21.6733 126.848 21.4283 126.554 21.111C126.26 20.7937 126.033 20.411 125.875 19.963C125.716 19.515 125.637 19.011 125.637 18.451C125.637 17.8957 125.716 17.394 125.875 16.946C126.033 16.4933 126.26 16.1083 126.554 15.791C126.848 15.4737 127.202 15.2287 127.618 15.056C128.038 14.8833 128.507 14.797 129.025 14.797ZM129.025 21.125C129.725 21.125 130.247 20.8917 130.593 20.425C130.938 19.9537 131.111 19.298 131.111 18.458C131.111 17.6133 130.938 16.9553 130.593 16.484C130.247 16.0127 129.725 15.777 129.025 15.777C128.67 15.777 128.362 15.8377 128.101 15.959C127.839 16.0803 127.62 16.2553 127.443 16.484C127.27 16.7127 127.139 16.995 127.051 17.331C126.967 17.6623 126.925 18.038 126.925 18.458C126.925 18.878 126.967 19.2537 127.051 19.585C127.139 19.9163 127.27 20.1963 127.443 20.425C127.62 20.649 127.839 20.8217 128.101 20.943C128.362 21.0643 128.67 21.125 129.025 21.125ZM138.72 24.093C138.678 24.1863 138.624 24.261 138.559 24.317C138.498 24.373 138.403 24.401 138.272 24.401H137.348L138.643 21.587L135.717 14.909H136.795C136.902 14.909 136.986 14.937 137.047 14.993C137.108 15.0443 137.152 15.1027 137.18 15.168L139.077 19.634C139.119 19.7367 139.154 19.8393 139.182 19.942C139.215 20.0447 139.243 20.1497 139.266 20.257C139.299 20.1497 139.331 20.0447 139.364 19.942C139.397 19.8393 139.434 19.7343 139.476 19.627L141.317 15.168C141.345 15.0933 141.392 15.0327 141.457 14.986C141.527 14.9347 141.602 14.909 141.681 14.909H142.675L138.72 24.093ZM146.497 14.797C147.015 14.797 147.482 14.8833 147.897 15.056C148.317 15.2287 148.672 15.4737 148.961 15.791C149.255 16.1083 149.479 16.4933 149.633 16.946C149.792 17.394 149.871 17.8957 149.871 18.451C149.871 19.011 149.792 19.515 149.633 19.963C149.479 20.411 149.255 20.7937 148.961 21.111C148.672 21.4283 148.317 21.6733 147.897 21.846C147.482 22.014 147.015 22.098 146.497 22.098C145.979 22.098 145.51 22.014 145.09 21.846C144.675 21.6733 144.32 21.4283 144.026 21.111C143.732 20.7937 143.506 20.411 143.347 19.963C143.189 19.515 143.109 19.011 143.109 18.451C143.109 17.8957 143.189 17.394 143.347 16.946C143.506 16.4933 143.732 16.1083 144.026 15.791C144.32 15.4737 144.675 15.2287 145.09 15.056C145.51 14.8833 145.979 14.797 146.497 14.797ZM146.497 21.125C147.197 21.125 147.72 20.8917 148.065 20.425C148.411 19.9537 148.583 19.298 148.583 18.458C148.583 17.6133 148.411 16.9553 148.065 16.484C147.72 16.0127 147.197 15.777 146.497 15.777C146.143 15.777 145.835 15.8377 145.573 15.959C145.312 16.0803 145.093 16.2553 144.915 16.484C144.743 16.7127 144.612 16.995 144.523 17.331C144.439 17.6623 144.397 18.038 144.397 18.458C144.397 18.878 144.439 19.2537 144.523 19.585C144.612 19.9163 144.743 20.1963 144.915 20.425C145.093 20.649 145.312 20.8217 145.573 20.943C145.835 21.0643 146.143 21.125 146.497 21.125ZM152.485 14.909V19.431C152.485 19.9677 152.608 20.383 152.856 20.677C153.103 20.971 153.476 21.118 153.976 21.118C154.34 21.118 154.683 21.0317 155.005 20.859C155.327 20.6863 155.623 20.446 155.894 20.138V14.909H157.14V22H156.398C156.22 22 156.108 21.9137 156.062 21.741L155.964 20.978C155.656 21.3187 155.31 21.594 154.928 21.804C154.545 22.0093 154.106 22.112 153.612 22.112C153.224 22.112 152.881 22.049 152.583 21.923C152.289 21.7923 152.041 21.6103 151.841 21.377C151.64 21.1437 151.488 20.8613 151.386 20.53C151.288 20.1987 151.239 19.8323 151.239 19.431V14.909H152.485ZM164.763 14.797C165.281 14.797 165.748 14.8833 166.163 15.056C166.583 15.2287 166.938 15.4737 167.227 15.791C167.521 16.1083 167.745 16.4933 167.899 16.946C168.058 17.394 168.137 17.8957 168.137 18.451C168.137 19.011 168.058 19.515 167.899 19.963C167.745 20.411 167.521 20.7937 167.227 21.111C166.938 21.4283 166.583 21.6733 166.163 21.846C165.748 22.014 165.281 22.098 164.763 22.098C164.245 22.098 163.776 22.014 163.356 21.846C162.941 21.6733 162.586 21.4283 162.292 21.111C161.998 20.7937 161.772 20.411 161.613 19.963C161.454 19.515 161.375 19.011 161.375 18.451C161.375 17.8957 161.454 17.394 161.613 16.946C161.772 16.4933 161.998 16.1083 162.292 15.791C162.586 15.4737 162.941 15.2287 163.356 15.056C163.776 14.8833 164.245 14.797 164.763 14.797ZM164.763 21.125C165.463 21.125 165.986 20.8917 166.331 20.425C166.676 19.9537 166.849 19.298 166.849 18.458C166.849 17.6133 166.676 16.9553 166.331 16.484C165.986 16.0127 165.463 15.777 164.763 15.777C164.408 15.777 164.1 15.8377 163.839 15.959C163.578 16.0803 163.358 16.2553 163.181 16.484C163.008 16.7127 162.878 16.995 162.789 17.331C162.705 17.6623 162.663 18.038 162.663 18.458C162.663 18.878 162.705 19.2537 162.789 19.585C162.878 19.9163 163.008 20.1963 163.181 20.425C163.358 20.649 163.578 20.8217 163.839 20.943C164.1 21.0643 164.408 21.125 164.763 21.125ZM169.672 22V14.909H170.414C170.592 14.909 170.704 14.9953 170.75 15.168L170.848 15.938C171.156 15.5973 171.499 15.322 171.877 15.112C172.26 14.902 172.701 14.797 173.2 14.797C173.588 14.797 173.928 14.8623 174.222 14.993C174.521 15.119 174.768 15.301 174.964 15.539C175.165 15.7723 175.317 16.0547 175.419 16.386C175.522 16.7173 175.573 17.0837 175.573 17.485V22H174.327V17.485C174.327 16.9483 174.204 16.533 173.956 16.239C173.714 15.9403 173.34 15.791 172.836 15.791C172.468 15.791 172.122 15.8797 171.8 16.057C171.483 16.2343 171.189 16.4747 170.918 16.778V22H169.672ZM179.263 14.909H180.285C180.383 14.909 180.464 14.9347 180.53 14.986C180.595 15.0373 180.642 15.098 180.67 15.168L182.469 19.732C182.534 19.9 182.585 20.068 182.623 20.236C182.66 20.404 182.695 20.5697 182.728 20.733C182.765 20.5697 182.805 20.404 182.847 20.236C182.889 20.068 182.942 19.9 183.008 19.732L184.828 15.168C184.856 15.0933 184.9 15.0327 184.961 14.986C185.026 14.9347 185.105 14.909 185.199 14.909H186.172L183.281 22H182.154L179.263 14.909ZM188.709 14.909V22H187.463V14.909H188.709ZM188.989 12.683C188.989 12.8043 188.963 12.9187 188.912 13.026C188.865 13.1287 188.8 13.222 188.716 13.306C188.636 13.3853 188.543 13.4483 188.436 13.495C188.328 13.5417 188.214 13.565 188.093 13.565C187.971 13.565 187.857 13.5417 187.75 13.495C187.647 13.4483 187.554 13.3853 187.47 13.306C187.39 13.222 187.327 13.1287 187.281 13.026C187.234 12.9187 187.211 12.8043 187.211 12.683C187.211 12.5617 187.234 12.4473 187.281 12.34C187.327 12.228 187.39 12.1323 187.47 12.053C187.554 11.969 187.647 11.9037 187.75 11.857C187.857 11.8103 187.971 11.787 188.093 11.787C188.214 11.787 188.328 11.8103 188.436 11.857C188.543 11.9037 188.636 11.969 188.716 12.053C188.8 12.1323 188.865 12.228 188.912 12.34C188.963 12.4473 188.989 12.5617 188.989 12.683ZM195.896 22C195.718 22 195.606 21.9137 195.56 21.741L195.448 20.88C195.144 21.2487 194.797 21.545 194.405 21.769C194.017 21.9883 193.572 22.098 193.068 22.098C192.662 22.098 192.293 22.021 191.962 21.867C191.63 21.7083 191.348 21.4773 191.115 21.174C190.881 20.8707 190.702 20.4927 190.576 20.04C190.45 19.5873 190.387 19.067 190.387 18.479C190.387 17.9563 190.457 17.471 190.597 17.023C190.737 16.5703 190.937 16.1783 191.199 15.847C191.465 15.5157 191.787 15.2567 192.165 15.07C192.543 14.8787 192.972 14.783 193.453 14.783C193.887 14.783 194.258 14.8577 194.566 15.007C194.874 15.1517 195.149 15.357 195.392 15.623V11.689H196.638V22H195.896ZM193.481 21.09C193.887 21.09 194.241 20.9967 194.545 20.81C194.853 20.6233 195.135 20.3597 195.392 20.019V16.589C195.163 16.281 194.911 16.0663 194.636 15.945C194.365 15.819 194.064 15.756 193.733 15.756C193.07 15.756 192.561 15.9917 192.207 16.463C191.852 16.9343 191.675 17.6063 191.675 18.479C191.675 18.941 191.714 19.3377 191.794 19.669C191.873 19.9957 191.99 20.2663 192.144 20.481C192.298 20.691 192.487 20.845 192.711 20.943C192.935 21.041 193.191 21.09 193.481 21.09ZM201.532 14.797C201.957 14.797 202.349 14.8693 202.708 15.014C203.067 15.154 203.378 15.3593 203.639 15.63C203.9 15.896 204.103 16.2273 204.248 16.624C204.397 17.016 204.472 17.464 204.472 17.968C204.472 18.164 204.451 18.2947 204.409 18.36C204.367 18.4253 204.288 18.458 204.171 18.458H199.453C199.462 18.906 199.523 19.2957 199.635 19.627C199.747 19.9583 199.901 20.236 200.097 20.46C200.293 20.6793 200.526 20.845 200.797 20.957C201.068 21.0643 201.371 21.118 201.707 21.118C202.02 21.118 202.288 21.083 202.512 21.013C202.741 20.9383 202.937 20.859 203.1 20.775C203.263 20.691 203.399 20.614 203.506 20.544C203.618 20.4693 203.714 20.432 203.793 20.432C203.896 20.432 203.975 20.4717 204.031 20.551L204.381 21.006C204.227 21.1927 204.043 21.356 203.828 21.496C203.613 21.6313 203.382 21.7433 203.135 21.832C202.892 21.9207 202.64 21.986 202.379 22.028C202.118 22.0747 201.859 22.098 201.602 22.098C201.112 22.098 200.659 22.0163 200.244 21.853C199.833 21.685 199.476 21.4423 199.173 21.125C198.874 20.803 198.641 20.4063 198.473 19.935C198.305 19.4637 198.221 18.9223 198.221 18.311C198.221 17.8163 198.296 17.3543 198.445 16.925C198.599 16.4957 198.818 16.1247 199.103 15.812C199.388 15.4947 199.735 15.2473 200.146 15.07C200.557 14.888 201.019 14.797 201.532 14.797ZM201.56 15.714C200.958 15.714 200.484 15.889 200.139 16.239C199.794 16.5843 199.579 17.065 199.495 17.681H203.352C203.352 17.3917 203.312 17.128 203.233 16.89C203.154 16.6473 203.037 16.4397 202.883 16.267C202.729 16.0897 202.54 15.9543 202.316 15.861C202.097 15.763 201.845 15.714 201.56 15.714ZM208.937 14.797C209.455 14.797 209.922 14.8833 210.337 15.056C210.757 15.2287 211.112 15.4737 211.401 15.791C211.695 16.1083 211.919 16.4933 212.073 16.946C212.232 17.394 212.311 17.8957 212.311 18.451C212.311 19.011 212.232 19.515 212.073 19.963C211.919 20.411 211.695 20.7937 211.401 21.111C211.112 21.4283 210.757 21.6733 210.337 21.846C209.922 22.014 209.455 22.098 208.937 22.098C208.419 22.098 207.95 22.014 207.53 21.846C207.115 21.6733 206.76 21.4283 206.466 21.111C206.172 20.7937 205.946 20.411 205.787 19.963C205.628 19.515 205.549 19.011 205.549 18.451C205.549 17.8957 205.628 17.394 205.787 16.946C205.946 16.4933 206.172 16.1083 206.466 15.791C206.76 15.4737 207.115 15.2287 207.53 15.056C207.95 14.8833 208.419 14.797 208.937 14.797ZM208.937 21.125C209.637 21.125 210.16 20.8917 210.505 20.425C210.85 19.9537 211.023 19.298 211.023 18.458C211.023 17.6133 210.85 16.9553 210.505 16.484C210.16 16.0127 209.637 15.777 208.937 15.777C208.582 15.777 208.274 15.8377 208.013 15.959C207.752 16.0803 207.532 16.2553 207.355 16.484C207.182 16.7127 207.052 16.995 206.963 17.331C206.879 17.6623 206.837 18.038 206.837 18.458C206.837 18.878 206.879 19.2537 206.963 19.585C207.052 19.9163 207.182 20.1963 207.355 20.425C207.532 20.649 207.752 20.8217 208.013 20.943C208.274 21.0643 208.582 21.125 208.937 21.125ZM221.39 16.169C221.353 16.2203 221.316 16.26 221.278 16.288C221.241 16.316 221.187 16.33 221.117 16.33C221.047 16.33 220.97 16.302 220.886 16.246C220.807 16.1853 220.704 16.12 220.578 16.05C220.452 15.98 220.298 15.917 220.116 15.861C219.939 15.8003 219.72 15.77 219.458 15.77C219.113 15.77 218.807 15.833 218.541 15.959C218.275 16.0803 218.051 16.2577 217.869 16.491C217.692 16.7243 217.557 17.0067 217.463 17.338C217.375 17.6693 217.33 18.0403 217.33 18.451C217.33 18.8803 217.379 19.263 217.477 19.599C217.575 19.9303 217.713 20.2103 217.89 20.439C218.068 20.663 218.282 20.8357 218.534 20.957C218.791 21.0737 219.078 21.132 219.395 21.132C219.699 21.132 219.948 21.097 220.144 21.027C220.34 20.9523 220.504 20.8707 220.634 20.782C220.765 20.6933 220.872 20.614 220.956 20.544C221.04 20.4693 221.124 20.432 221.208 20.432C221.316 20.432 221.395 20.4717 221.446 20.551L221.796 21.006C221.488 21.384 221.103 21.6617 220.641 21.839C220.179 22.0117 219.692 22.098 219.178 22.098C218.735 22.098 218.322 22.0163 217.939 21.853C217.561 21.6897 217.232 21.454 216.952 21.146C216.672 20.8333 216.451 20.4507 216.287 19.998C216.129 19.5453 216.049 19.0297 216.049 18.451C216.049 17.9237 216.122 17.436 216.266 16.988C216.416 16.54 216.63 16.155 216.91 15.833C217.195 15.5063 217.545 15.252 217.96 15.07C218.376 14.888 218.852 14.797 219.388 14.797C219.883 14.797 220.322 14.8787 220.704 15.042C221.087 15.2007 221.425 15.427 221.719 15.721L221.39 16.169ZM228.296 22H227.743C227.622 22 227.524 21.9813 227.449 21.944C227.375 21.9067 227.326 21.8273 227.302 21.706L227.162 21.048C226.976 21.216 226.794 21.3677 226.616 21.503C226.439 21.6337 226.252 21.7457 226.056 21.839C225.86 21.9277 225.65 21.9953 225.426 22.042C225.207 22.0887 224.962 22.112 224.691 22.112C224.416 22.112 224.157 22.0747 223.914 22C223.676 21.9207 223.469 21.804 223.291 21.65C223.114 21.496 222.972 21.3023 222.864 21.069C222.762 20.831 222.71 20.551 222.71 20.229C222.71 19.949 222.787 19.6807 222.941 19.424C223.095 19.1627 223.343 18.9317 223.683 18.731C224.029 18.5303 224.479 18.367 225.034 18.241C225.59 18.1103 226.269 18.0357 227.071 18.017V17.464C227.071 16.9133 226.952 16.498 226.714 16.218C226.481 15.9333 226.133 15.791 225.671 15.791C225.368 15.791 225.111 15.8307 224.901 15.91C224.696 15.9847 224.516 16.071 224.362 16.169C224.213 16.2623 224.082 16.3487 223.97 16.428C223.863 16.5027 223.756 16.54 223.648 16.54C223.564 16.54 223.49 16.519 223.424 16.477C223.364 16.4303 223.315 16.3743 223.277 16.309L223.053 15.91C223.445 15.532 223.868 15.2497 224.32 15.063C224.773 14.8763 225.275 14.783 225.825 14.783C226.222 14.783 226.574 14.8483 226.882 14.979C227.19 15.1097 227.449 15.2917 227.659 15.525C227.869 15.7583 228.028 16.0407 228.135 16.372C228.243 16.7033 228.296 17.0673 228.296 17.464V22ZM225.062 21.237C225.282 21.237 225.482 21.216 225.664 21.174C225.846 21.1273 226.017 21.0643 226.175 20.985C226.339 20.901 226.493 20.8007 226.637 20.684C226.787 20.5673 226.931 20.4343 227.071 20.285V18.808C226.497 18.8267 226.01 18.8733 225.608 18.948C225.207 19.018 224.88 19.1113 224.628 19.228C224.376 19.3447 224.192 19.4823 224.075 19.641C223.963 19.7997 223.907 19.977 223.907 20.173C223.907 20.3597 223.938 20.5207 223.998 20.656C224.059 20.7913 224.141 20.9033 224.243 20.992C224.346 21.076 224.467 21.139 224.607 21.181C224.747 21.2183 224.899 21.237 225.062 21.237ZM231.57 11.689V22H230.324V11.689H231.57ZM235.152 11.689V22H233.906V11.689H235.152ZM236.942 21.23C236.942 21.1087 236.963 20.9943 237.005 20.887C237.052 20.7797 237.113 20.6863 237.187 20.607C237.267 20.5277 237.36 20.4647 237.467 20.418C237.575 20.3713 237.689 20.348 237.81 20.348C237.932 20.348 238.046 20.3713 238.153 20.418C238.261 20.4647 238.354 20.5277 238.433 20.607C238.513 20.6863 238.573 20.7797 238.615 20.887C238.662 20.9943 238.685 21.1087 238.685 21.23C238.685 21.356 238.662 21.4727 238.615 21.58C238.573 21.6827 238.513 21.7737 238.433 21.853C238.354 21.9323 238.261 21.993 238.153 22.035C238.046 22.0817 237.932 22.105 237.81 22.105C237.689 22.105 237.575 22.0817 237.467 22.035C237.36 21.993 237.267 21.9323 237.187 21.853C237.113 21.7737 237.052 21.6827 237.005 21.58C236.963 21.4727 236.942 21.356 236.942 21.23ZM66.4691 31.969H67.5961C67.7174 31.969 67.8178 31.9993 67.8971 32.06C67.9764 32.1207 68.0301 32.1977 68.0581 32.291L70.1301 39.263C70.1674 39.389 70.2001 39.5243 70.2281 39.669C70.2608 39.8137 70.2911 39.9653 70.3191 40.124C70.3518 39.9653 70.3844 39.8137 70.4171 39.669C70.4498 39.5197 70.4871 39.3843 70.5291 39.263L72.8881 32.291C72.9161 32.2117 72.9698 32.1393 73.0491 32.074C73.1331 32.004 73.2334 31.969 73.3501 31.969H73.7421C73.8634 31.969 73.9614 31.9993 74.0361 32.06C74.1154 32.1207 74.1714 32.1977 74.2041 32.291L76.5491 39.263C76.6331 39.5057 76.7078 39.7833 76.7731 40.096C76.8011 39.942 76.8268 39.795 76.8501 39.655C76.8734 39.515 76.9038 39.3843 76.9411 39.263L79.0201 32.291C79.0434 32.207 79.0948 32.1323 79.1741 32.067C79.2581 32.0017 79.3584 31.969 79.4751 31.969H80.5321L77.4031 42H76.1851L73.6441 34.349C73.5928 34.2043 73.5461 34.0363 73.5041 33.845C73.4808 33.9383 73.4574 34.0293 73.4341 34.118C73.4154 34.202 73.3944 34.279 73.3711 34.349L70.8161 42H69.5981L66.4691 31.969ZM84.3041 34.797C84.8221 34.797 85.2888 34.8833 85.7041 35.056C86.1241 35.2287 86.4788 35.4737 86.7681 35.791C87.0621 36.1083 87.2861 36.4933 87.4401 36.946C87.5988 37.394 87.6781 37.8957 87.6781 38.451C87.6781 39.011 87.5988 39.515 87.4401 39.963C87.2861 40.411 87.0621 40.7937 86.7681 41.111C86.4788 41.4283 86.1241 41.6733 85.7041 41.846C85.2888 42.014 84.8221 42.098 84.3041 42.098C83.7861 42.098 83.3171 42.014 82.8971 41.846C82.4818 41.6733 82.1271 41.4283 81.8331 41.111C81.5391 40.7937 81.3128 40.411 81.1541 39.963C80.9954 39.515 80.9161 39.011 80.9161 38.451C80.9161 37.8957 80.9954 37.394 81.1541 36.946C81.3128 36.4933 81.5391 36.1083 81.8331 35.791C82.1271 35.4737 82.4818 35.2287 82.8971 35.056C83.3171 34.8833 83.7861 34.797 84.3041 34.797ZM84.3041 41.125C85.0041 41.125 85.5268 40.8917 85.8721 40.425C86.2174 39.9537 86.3901 39.298 86.3901 38.458C86.3901 37.6133 86.2174 36.9553 85.8721 36.484C85.5268 36.0127 85.0041 35.777 84.3041 35.777C83.9494 35.777 83.6414 35.8377 83.3801 35.959C83.1188 36.0803 82.8994 36.2553 82.7221 36.484C82.5494 36.7127 82.4188 36.995 82.3301 37.331C82.2461 37.6623 82.2041 38.038 82.2041 38.458C82.2041 38.878 82.2461 39.2537 82.3301 39.585C82.4188 39.9163 82.5494 40.1963 82.7221 40.425C82.8994 40.649 83.1188 40.8217 83.3801 40.943C83.6414 41.0643 83.9494 41.125 84.3041 41.125ZM90.2914 34.909V39.431C90.2914 39.9677 90.4151 40.383 90.6624 40.677C90.9097 40.971 91.2831 41.118 91.7824 41.118C92.1464 41.118 92.4894 41.0317 92.8114 40.859C93.1334 40.6863 93.4297 40.446 93.7004 40.138V34.909H94.9464V42H94.2044C94.0271 42 93.9151 41.9137 93.8684 41.741L93.7704 40.978C93.4624 41.3187 93.1171 41.594 92.7344 41.804C92.3517 42.0093 91.9131 42.112 91.4184 42.112C91.0311 42.112 90.6881 42.049 90.3894 41.923C90.0954 41.7923 89.8481 41.6103 89.6474 41.377C89.4467 41.1437 89.2951 40.8613 89.1924 40.53C89.0944 40.1987 89.0454 39.8323 89.0454 39.431V34.909H90.2914ZM98.3787 31.689V42H97.1327V31.689H98.3787ZM105.566 42C105.388 42 105.276 41.9137 105.23 41.741L105.118 40.88C104.814 41.2487 104.467 41.545 104.075 41.769C103.687 41.9883 103.242 42.098 102.738 42.098C102.332 42.098 101.963 42.021 101.632 41.867C101.3 41.7083 101.018 41.4773 100.785 41.174C100.551 40.8707 100.372 40.4927 100.246 40.04C100.12 39.5873 100.057 39.067 100.057 38.479C100.057 37.9563 100.127 37.471 100.267 37.023C100.407 36.5703 100.607 36.1783 100.869 35.847C101.135 35.5157 101.457 35.2567 101.835 35.07C102.213 34.8787 102.642 34.783 103.123 34.783C103.557 34.783 103.928 34.8577 104.236 35.007C104.544 35.1517 104.819 35.357 105.062 35.623V31.689H106.308V42H105.566ZM103.151 41.09C103.557 41.09 103.911 40.9967 104.215 40.81C104.523 40.6233 104.805 40.3597 105.062 40.019V36.589C104.833 36.281 104.581 36.0663 104.306 35.945C104.035 35.819 103.734 35.756 103.403 35.756C102.74 35.756 102.231 35.9917 101.877 36.463C101.522 36.9343 101.345 37.6063 101.345 38.479C101.345 38.941 101.384 39.3377 101.464 39.669C101.543 39.9957 101.66 40.2663 101.814 40.481C101.968 40.691 102.157 40.845 102.381 40.943C102.605 41.041 102.861 41.09 103.151 41.09ZM113.181 44.093C113.139 44.1863 113.085 44.261 113.02 44.317C112.959 44.373 112.864 44.401 112.733 44.401H111.809L113.104 41.587L110.178 34.909H111.256C111.363 34.909 111.447 34.937 111.508 34.993C111.569 35.0443 111.613 35.1027 111.641 35.168L113.538 39.634C113.58 39.7367 113.615 39.8393 113.643 39.942C113.676 40.0447 113.704 40.1497 113.727 40.257C113.76 40.1497 113.792 40.0447 113.825 39.942C113.858 39.8393 113.895 39.7343 113.937 39.627L115.778 35.168C115.806 35.0933 115.853 35.0327 115.918 34.986C115.988 34.9347 116.063 34.909 116.142 34.909H117.136L113.181 44.093ZM120.958 34.797C121.476 34.797 121.943 34.8833 122.358 35.056C122.778 35.2287 123.133 35.4737 123.422 35.791C123.716 36.1083 123.94 36.4933 124.094 36.946C124.253 37.394 124.332 37.8957 124.332 38.451C124.332 39.011 124.253 39.515 124.094 39.963C123.94 40.411 123.716 40.7937 123.422 41.111C123.133 41.4283 122.778 41.6733 122.358 41.846C121.943 42.014 121.476 42.098 120.958 42.098C120.44 42.098 119.971 42.014 119.551 41.846C119.136 41.6733 118.781 41.4283 118.487 41.111C118.193 40.7937 117.967 40.411 117.808 39.963C117.65 39.515 117.57 39.011 117.57 38.451C117.57 37.8957 117.65 37.394 117.808 36.946C117.967 36.4933 118.193 36.1083 118.487 35.791C118.781 35.4737 119.136 35.2287 119.551 35.056C119.971 34.8833 120.44 34.797 120.958 34.797ZM120.958 41.125C121.658 41.125 122.181 40.8917 122.526 40.425C122.872 39.9537 123.044 39.298 123.044 38.458C123.044 37.6133 122.872 36.9553 122.526 36.484C122.181 36.0127 121.658 35.777 120.958 35.777C120.604 35.777 120.296 35.8377 120.034 35.959C119.773 36.0803 119.554 36.2553 119.376 36.484C119.204 36.7127 119.073 36.995 118.984 37.331C118.9 37.6623 118.858 38.038 118.858 38.458C118.858 38.878 118.9 39.2537 118.984 39.585C119.073 39.9163 119.204 40.1963 119.376 40.425C119.554 40.649 119.773 40.8217 120.034 40.943C120.296 41.0643 120.604 41.125 120.958 41.125ZM126.946 34.909V39.431C126.946 39.9677 127.069 40.383 127.317 40.677C127.564 40.971 127.937 41.118 128.437 41.118C128.801 41.118 129.144 41.0317 129.466 40.859C129.788 40.6863 130.084 40.446 130.355 40.138V34.909H131.601V42H130.859C130.681 42 130.569 41.9137 130.523 41.741L130.425 40.978C130.117 41.3187 129.771 41.594 129.389 41.804C129.006 42.0093 128.567 42.112 128.073 42.112C127.685 42.112 127.342 42.049 127.044 41.923C126.75 41.7923 126.502 41.6103 126.302 41.377C126.101 41.1437 125.949 40.8613 125.847 40.53C125.749 40.1987 125.7 39.8323 125.7 39.431V34.909H126.946ZM137.74 31.689V42H136.494V31.689H137.74ZM141.322 34.909V42H140.076V34.909H141.322ZM141.602 32.683C141.602 32.8043 141.576 32.9187 141.525 33.026C141.478 33.1287 141.413 33.222 141.329 33.306C141.25 33.3853 141.156 33.4483 141.049 33.495C140.942 33.5417 140.827 33.565 140.706 33.565C140.585 33.565 140.47 33.5417 140.363 33.495C140.26 33.4483 140.167 33.3853 140.083 33.306C140.004 33.222 139.941 33.1287 139.894 33.026C139.847 32.9187 139.824 32.8043 139.824 32.683C139.824 32.5617 139.847 32.4473 139.894 32.34C139.941 32.228 140.004 32.1323 140.083 32.053C140.167 31.969 140.26 31.9037 140.363 31.857C140.47 31.8103 140.585 31.787 140.706 31.787C140.827 31.787 140.942 31.8103 141.049 31.857C141.156 31.9037 141.25 31.969 141.329 32.053C141.413 32.1323 141.478 32.228 141.525 32.34C141.576 32.4473 141.602 32.5617 141.602 32.683ZM144.813 31.689V37.758H145.135C145.228 37.758 145.305 37.7463 145.366 37.723C145.427 37.695 145.494 37.6413 145.569 37.562L147.809 35.161C147.879 35.0863 147.949 35.0257 148.019 34.979C148.089 34.9323 148.182 34.909 148.299 34.909H149.433L146.822 37.688C146.757 37.7673 146.691 37.8373 146.626 37.898C146.565 37.9587 146.495 38.0123 146.416 38.059C146.5 38.115 146.575 38.1803 146.64 38.255C146.71 38.325 146.775 38.4067 146.836 38.5L149.608 42H148.488C148.385 42 148.297 41.9813 148.222 41.944C148.152 41.902 148.084 41.839 148.019 41.755L145.688 38.85C145.618 38.752 145.548 38.689 145.478 38.661C145.408 38.6283 145.303 38.612 145.163 38.612H144.813V42H143.56V31.689H144.813ZM153.243 34.797C153.668 34.797 154.06 34.8693 154.419 35.014C154.778 35.154 155.089 35.3593 155.35 35.63C155.611 35.896 155.814 36.2273 155.959 36.624C156.108 37.016 156.183 37.464 156.183 37.968C156.183 38.164 156.162 38.2947 156.12 38.36C156.078 38.4253 155.999 38.458 155.882 38.458H151.164C151.173 38.906 151.234 39.2957 151.346 39.627C151.458 39.9583 151.612 40.236 151.808 40.46C152.004 40.6793 152.237 40.845 152.508 40.957C152.779 41.0643 153.082 41.118 153.418 41.118C153.731 41.118 153.999 41.083 154.223 41.013C154.452 40.9383 154.648 40.859 154.811 40.775C154.974 40.691 155.11 40.614 155.217 40.544C155.329 40.4693 155.425 40.432 155.504 40.432C155.607 40.432 155.686 40.4717 155.742 40.551L156.092 41.006C155.938 41.1927 155.754 41.356 155.539 41.496C155.324 41.6313 155.093 41.7433 154.846 41.832C154.603 41.9207 154.351 41.986 154.09 42.028C153.829 42.0747 153.57 42.098 153.313 42.098C152.823 42.098 152.37 42.0163 151.955 41.853C151.544 41.685 151.187 41.4423 150.884 41.125C150.585 40.803 150.352 40.4063 150.184 39.935C150.016 39.4637 149.932 38.9223 149.932 38.311C149.932 37.8163 150.007 37.3543 150.156 36.925C150.31 36.4957 150.529 36.1247 150.814 35.812C151.099 35.4947 151.446 35.2473 151.857 35.07C152.268 34.888 152.73 34.797 153.243 34.797ZM153.271 35.714C152.669 35.714 152.195 35.889 151.85 36.239C151.505 36.5843 151.29 37.065 151.206 37.681H155.063C155.063 37.3917 155.023 37.128 154.944 36.89C154.865 36.6473 154.748 36.4397 154.594 36.267C154.44 36.0897 154.251 35.9543 154.027 35.861C153.808 35.763 153.556 35.714 153.271 35.714ZM162.634 42.112C162.074 42.112 161.642 41.9557 161.339 41.643C161.04 41.3303 160.891 40.88 160.891 40.292V35.952H160.037C159.962 35.952 159.899 35.931 159.848 35.889C159.797 35.8423 159.771 35.7723 159.771 35.679V35.182L160.933 35.035L161.22 32.844C161.229 32.774 161.26 32.718 161.311 32.676C161.362 32.6293 161.428 32.606 161.507 32.606H162.137V35.049H164.167V35.952H162.137V40.208C162.137 40.5067 162.209 40.7283 162.354 40.873C162.499 41.0177 162.685 41.09 162.914 41.09C163.045 41.09 163.157 41.0737 163.25 41.041C163.348 41.0037 163.432 40.964 163.502 40.922C163.572 40.88 163.63 40.8427 163.677 40.81C163.728 40.7727 163.773 40.754 163.81 40.754C163.875 40.754 163.934 40.7937 163.985 40.873L164.349 41.468C164.134 41.6687 163.875 41.8273 163.572 41.944C163.269 42.056 162.956 42.112 162.634 42.112ZM168.578 34.797C169.096 34.797 169.562 34.8833 169.978 35.056C170.398 35.2287 170.752 35.4737 171.042 35.791C171.336 36.1083 171.56 36.4933 171.714 36.946C171.872 37.394 171.952 37.8957 171.952 38.451C171.952 39.011 171.872 39.515 171.714 39.963C171.56 40.411 171.336 40.7937 171.042 41.111C170.752 41.4283 170.398 41.6733 169.978 41.846C169.562 42.014 169.096 42.098 168.578 42.098C168.06 42.098 167.591 42.014 167.171 41.846C166.755 41.6733 166.401 41.4283 166.107 41.111C165.813 40.7937 165.586 40.411 165.428 39.963C165.269 39.515 165.19 39.011 165.19 38.451C165.19 37.8957 165.269 37.394 165.428 36.946C165.586 36.4933 165.813 36.1083 166.107 35.791C166.401 35.4737 166.755 35.2287 167.171 35.056C167.591 34.8833 168.06 34.797 168.578 34.797ZM168.578 41.125C169.278 41.125 169.8 40.8917 170.146 40.425C170.491 39.9537 170.664 39.298 170.664 38.458C170.664 37.6133 170.491 36.9553 170.146 36.484C169.8 36.0127 169.278 35.777 168.578 35.777C168.223 35.777 167.915 35.8377 167.654 35.959C167.392 36.0803 167.173 36.2553 166.996 36.484C166.823 36.7127 166.692 36.995 166.604 37.331C166.52 37.6623 166.478 38.038 166.478 38.458C166.478 38.878 166.52 39.2537 166.604 39.585C166.692 39.9163 166.823 40.1963 166.996 40.425C167.173 40.649 167.392 40.8217 167.654 40.943C167.915 41.0643 168.223 41.125 168.578 41.125ZM180.254 36.078C180.198 36.1807 180.112 36.232 179.995 36.232C179.925 36.232 179.846 36.2063 179.757 36.155C179.668 36.1037 179.559 36.0477 179.428 35.987C179.302 35.9217 179.15 35.8633 178.973 35.812C178.796 35.756 178.586 35.728 178.343 35.728C178.133 35.728 177.944 35.756 177.776 35.812C177.608 35.8633 177.463 35.9357 177.342 36.029C177.225 36.1223 177.134 36.232 177.069 36.358C177.008 36.4793 176.978 36.6123 176.978 36.757C176.978 36.939 177.029 37.0907 177.132 37.212C177.239 37.3333 177.379 37.4383 177.552 37.527C177.725 37.6157 177.921 37.695 178.14 37.765C178.359 37.8303 178.583 37.9027 178.812 37.982C179.045 38.0567 179.272 38.1407 179.491 38.234C179.71 38.3273 179.906 38.444 180.079 38.584C180.252 38.724 180.389 38.8967 180.492 39.102C180.599 39.3027 180.653 39.5453 180.653 39.83C180.653 40.1567 180.595 40.46 180.478 40.74C180.361 41.0153 180.189 41.2557 179.96 41.461C179.731 41.6617 179.451 41.8203 179.12 41.937C178.789 42.0537 178.406 42.112 177.972 42.112C177.477 42.112 177.029 42.0327 176.628 41.874C176.227 41.7107 175.886 41.503 175.606 41.251L175.9 40.775C175.937 40.7143 175.982 40.6677 176.033 40.635C176.084 40.6023 176.152 40.586 176.236 40.586C176.32 40.586 176.409 40.6187 176.502 40.684C176.595 40.7493 176.707 40.8217 176.838 40.901C176.973 40.9803 177.134 41.0527 177.321 41.118C177.512 41.1833 177.75 41.216 178.035 41.216C178.278 41.216 178.49 41.1857 178.672 41.125C178.854 41.0597 179.006 40.9733 179.127 40.866C179.248 40.7587 179.337 40.635 179.393 40.495C179.454 40.355 179.484 40.2057 179.484 40.047C179.484 39.851 179.43 39.69 179.323 39.564C179.22 39.4333 179.083 39.3237 178.91 39.235C178.737 39.1417 178.539 39.0623 178.315 38.997C178.096 38.927 177.869 38.8547 177.636 38.78C177.407 38.7053 177.181 38.6213 176.957 38.528C176.738 38.43 176.542 38.3087 176.369 38.164C176.196 38.0193 176.056 37.842 175.949 37.632C175.846 37.4173 175.795 37.1583 175.795 36.855C175.795 36.5843 175.851 36.3253 175.963 36.078C176.075 35.826 176.238 35.6067 176.453 35.42C176.668 35.2287 176.931 35.077 177.244 34.965C177.557 34.853 177.914 34.797 178.315 34.797C178.782 34.797 179.199 34.8717 179.568 35.021C179.941 35.1657 180.263 35.3663 180.534 35.623L180.254 36.078ZM185.071 34.797C185.496 34.797 185.888 34.8693 186.247 35.014C186.607 35.154 186.917 35.3593 187.178 35.63C187.44 35.896 187.643 36.2273 187.787 36.624C187.937 37.016 188.011 37.464 188.011 37.968C188.011 38.164 187.99 38.2947 187.948 38.36C187.906 38.4253 187.827 38.458 187.71 38.458H182.992C183.002 38.906 183.062 39.2957 183.174 39.627C183.286 39.9583 183.44 40.236 183.636 40.46C183.832 40.6793 184.066 40.845 184.336 40.957C184.607 41.0643 184.91 41.118 185.246 41.118C185.559 41.118 185.827 41.083 186.051 41.013C186.28 40.9383 186.476 40.859 186.639 40.775C186.803 40.691 186.938 40.614 187.045 40.544C187.157 40.4693 187.253 40.432 187.332 40.432C187.435 40.432 187.514 40.4717 187.57 40.551L187.92 41.006C187.766 41.1927 187.582 41.356 187.367 41.496C187.153 41.6313 186.922 41.7433 186.674 41.832C186.432 41.9207 186.18 41.986 185.918 42.028C185.657 42.0747 185.398 42.098 185.141 42.098C184.651 42.098 184.199 42.0163 183.783 41.853C183.373 41.685 183.016 41.4423 182.712 41.125C182.414 40.803 182.18 40.4063 182.012 39.935C181.844 39.4637 181.76 38.9223 181.76 38.311C181.76 37.8163 181.835 37.3543 181.984 36.925C182.138 36.4957 182.358 36.1247 182.642 35.812C182.927 35.4947 183.275 35.2473 183.685 35.07C184.096 34.888 184.558 34.797 185.071 34.797ZM185.099 35.714C184.497 35.714 184.024 35.889 183.678 36.239C183.333 36.5843 183.118 37.065 183.034 37.681H186.891C186.891 37.3917 186.852 37.128 186.772 36.89C186.693 36.6473 186.576 36.4397 186.422 36.267C186.268 36.0897 186.079 35.9543 185.855 35.861C185.636 35.763 185.384 35.714 185.099 35.714ZM192.413 34.797C192.838 34.797 193.23 34.8693 193.589 35.014C193.948 35.154 194.259 35.3593 194.52 35.63C194.781 35.896 194.984 36.2273 195.129 36.624C195.278 37.016 195.353 37.464 195.353 37.968C195.353 38.164 195.332 38.2947 195.29 38.36C195.248 38.4253 195.169 38.458 195.052 38.458H190.334C190.343 38.906 190.404 39.2957 190.516 39.627C190.628 39.9583 190.782 40.236 190.978 40.46C191.174 40.6793 191.407 40.845 191.678 40.957C191.949 41.0643 192.252 41.118 192.588 41.118C192.901 41.118 193.169 41.083 193.393 41.013C193.622 40.9383 193.818 40.859 193.981 40.775C194.144 40.691 194.28 40.614 194.387 40.544C194.499 40.4693 194.595 40.432 194.674 40.432C194.777 40.432 194.856 40.4717 194.912 40.551L195.262 41.006C195.108 41.1927 194.924 41.356 194.709 41.496C194.494 41.6313 194.263 41.7433 194.016 41.832C193.773 41.9207 193.521 41.986 193.26 42.028C192.999 42.0747 192.74 42.098 192.483 42.098C191.993 42.098 191.54 42.0163 191.125 41.853C190.714 41.685 190.357 41.4423 190.054 41.125C189.755 40.803 189.522 40.4063 189.354 39.935C189.186 39.4637 189.102 38.9223 189.102 38.311C189.102 37.8163 189.177 37.3543 189.326 36.925C189.48 36.4957 189.699 36.1247 189.984 35.812C190.269 35.4947 190.616 35.2473 191.027 35.07C191.438 34.888 191.9 34.797 192.413 34.797ZM192.441 35.714C191.839 35.714 191.365 35.889 191.02 36.239C190.675 36.5843 190.46 37.065 190.376 37.681H194.233C194.233 37.3917 194.193 37.128 194.114 36.89C194.035 36.6473 193.918 36.4397 193.764 36.267C193.61 36.0897 193.421 35.9543 193.197 35.861C192.978 35.763 192.726 35.714 192.441 35.714ZM201.041 34.909V42H199.795V34.909H201.041ZM201.321 32.683C201.321 32.8043 201.295 32.9187 201.244 33.026C201.197 33.1287 201.132 33.222 201.048 33.306C200.968 33.3853 200.875 33.4483 200.768 33.495C200.66 33.5417 200.546 33.565 200.425 33.565C200.303 33.565 200.189 33.5417 200.082 33.495C199.979 33.4483 199.886 33.3853 199.802 33.306C199.722 33.222 199.659 33.1287 199.613 33.026C199.566 32.9187 199.543 32.8043 199.543 32.683C199.543 32.5617 199.566 32.4473 199.613 32.34C199.659 32.228 199.722 32.1323 199.802 32.053C199.886 31.969 199.979 31.9037 200.082 31.857C200.189 31.8103 200.303 31.787 200.425 31.787C200.546 31.787 200.66 31.8103 200.768 31.857C200.875 31.9037 200.968 31.969 201.048 32.053C201.132 32.1323 201.197 32.228 201.244 32.34C201.295 32.4473 201.321 32.5617 201.321 32.683ZM205.386 42.112C204.826 42.112 204.394 41.9557 204.091 41.643C203.792 41.3303 203.643 40.88 203.643 40.292V35.952H202.789C202.714 35.952 202.651 35.931 202.6 35.889C202.549 35.8423 202.523 35.7723 202.523 35.679V35.182L203.685 35.035L203.972 32.844C203.981 32.774 204.012 32.718 204.063 32.676C204.114 32.6293 204.18 32.606 204.259 32.606H204.889V35.049H206.919V35.952H204.889V40.208C204.889 40.5067 204.961 40.7283 205.106 40.873C205.251 41.0177 205.437 41.09 205.666 41.09C205.797 41.09 205.909 41.0737 206.002 41.041C206.1 41.0037 206.184 40.964 206.254 40.922C206.324 40.88 206.382 40.8427 206.429 40.81C206.48 40.7727 206.525 40.754 206.562 40.754C206.627 40.754 206.686 40.7937 206.737 40.873L207.101 41.468C206.886 41.6687 206.627 41.8273 206.324 41.944C206.021 42.056 205.708 42.112 205.386 42.112ZM211.167 42V34.909H211.909C212.086 34.909 212.198 34.9953 212.245 35.168L212.343 35.938C212.651 35.5973 212.994 35.322 213.372 35.112C213.754 34.902 214.195 34.797 214.695 34.797C215.082 34.797 215.423 34.8623 215.717 34.993C216.015 35.119 216.263 35.301 216.459 35.539C216.659 35.7723 216.811 36.0547 216.914 36.386C217.016 36.7173 217.068 37.0837 217.068 37.485V42H215.822V37.485C215.822 36.9483 215.698 36.533 215.451 36.239C215.208 35.9403 214.835 35.791 214.331 35.791C213.962 35.791 213.617 35.8797 213.295 36.057C212.977 36.2343 212.683 36.4747 212.413 36.778V42H211.167ZM221.816 34.797C222.334 34.797 222.8 34.8833 223.216 35.056C223.636 35.2287 223.99 35.4737 224.28 35.791C224.574 36.1083 224.798 36.4933 224.952 36.946C225.11 37.394 225.19 37.8957 225.19 38.451C225.19 39.011 225.11 39.515 224.952 39.963C224.798 40.411 224.574 40.7937 224.28 41.111C223.99 41.4283 223.636 41.6733 223.216 41.846C222.8 42.014 222.334 42.098 221.816 42.098C221.298 42.098 220.829 42.014 220.409 41.846C219.993 41.6733 219.639 41.4283 219.345 41.111C219.051 40.7937 218.824 40.411 218.666 39.963C218.507 39.515 218.428 39.011 218.428 38.451C218.428 37.8957 218.507 37.394 218.666 36.946C218.824 36.4933 219.051 36.1083 219.345 35.791C219.639 35.4737 219.993 35.2287 220.409 35.056C220.829 34.8833 221.298 34.797 221.816 34.797ZM221.816 41.125C222.516 41.125 223.038 40.8917 223.384 40.425C223.729 39.9537 223.902 39.298 223.902 38.458C223.902 37.6133 223.729 36.9553 223.384 36.484C223.038 36.0127 222.516 35.777 221.816 35.777C221.461 35.777 221.153 35.8377 220.892 35.959C220.63 36.0803 220.411 36.2553 220.234 36.484C220.061 36.7127 219.93 36.995 219.842 37.331C219.758 37.6623 219.716 38.038 219.716 38.458C219.716 38.878 219.758 39.2537 219.842 39.585C219.93 39.9163 220.061 40.1963 220.234 40.425C220.411 40.649 220.63 40.8217 220.892 40.943C221.153 41.0643 221.461 41.125 221.816 41.125ZM225.801 34.909H226.781C226.884 34.909 226.968 34.9347 227.033 34.986C227.098 35.0373 227.143 35.098 227.166 35.168L228.524 39.732C228.561 39.9 228.596 40.0633 228.629 40.222C228.662 40.376 228.69 40.5323 228.713 40.691C228.75 40.5323 228.792 40.376 228.839 40.222C228.886 40.0633 228.935 39.9 228.986 39.732L230.484 35.14C230.507 35.07 230.547 35.0117 230.603 34.965C230.664 34.9183 230.738 34.895 230.827 34.895H231.366C231.459 34.895 231.536 34.9183 231.597 34.965C231.658 35.0117 231.7 35.07 231.723 35.14L233.186 39.732C233.237 39.8953 233.282 40.0563 233.319 40.215C233.361 40.3737 233.401 40.53 233.438 40.684C233.461 40.53 233.492 40.369 233.529 40.201C233.566 40.033 233.606 39.8767 233.648 39.732L235.034 35.168C235.057 35.0933 235.102 35.0327 235.167 34.986C235.232 34.9347 235.309 34.909 235.398 34.909H236.336L234.04 42H233.053C232.932 42 232.848 41.9207 232.801 41.762L231.233 36.953C231.196 36.8457 231.165 36.7383 231.142 36.631C231.119 36.519 231.095 36.4093 231.072 36.302C231.049 36.4093 231.025 36.519 231.002 36.631C230.979 36.743 230.948 36.8527 230.911 36.96L229.322 41.762C229.271 41.9207 229.175 42 229.035 42H228.097L225.801 34.909ZM236.66 32.865C236.805 32.7297 236.963 32.6013 237.136 32.48C237.313 32.3587 237.505 32.2513 237.71 32.158C237.92 32.0647 238.144 31.9923 238.382 31.941C238.625 31.885 238.886 31.857 239.166 31.857C239.535 31.857 239.875 31.9107 240.188 32.018C240.505 32.1253 240.778 32.277 241.007 32.473C241.236 32.669 241.415 32.907 241.546 33.187C241.677 33.467 241.742 33.782 241.742 34.132C241.742 34.4867 241.688 34.7923 241.581 35.049C241.478 35.3057 241.345 35.532 241.182 35.728C241.023 35.9193 240.848 36.0873 240.657 36.232C240.466 36.372 240.286 36.505 240.118 36.631C239.955 36.757 239.812 36.883 239.691 37.009C239.574 37.135 239.507 37.275 239.488 37.429L239.362 38.5H238.508L238.424 37.338V37.261C238.424 37.065 238.475 36.8923 238.578 36.743C238.685 36.589 238.818 36.4467 238.977 36.316C239.14 36.1807 239.313 36.0477 239.495 35.917C239.682 35.7817 239.854 35.6347 240.013 35.476C240.176 35.3127 240.309 35.1283 240.412 34.923C240.519 34.7177 240.573 34.475 240.573 34.195C240.573 33.9943 240.533 33.8123 240.454 33.649C240.375 33.4857 240.267 33.348 240.132 33.236C239.997 33.1193 239.836 33.0307 239.649 32.97C239.467 32.9093 239.271 32.879 239.061 32.879C238.776 32.879 238.531 32.914 238.326 32.984C238.125 33.054 237.955 33.131 237.815 33.215C237.675 33.299 237.561 33.376 237.472 33.446C237.388 33.516 237.318 33.551 237.262 33.551C237.145 33.551 237.054 33.4973 236.989 33.39L236.66 32.865ZM238.032 41.23C238.032 41.1087 238.053 40.9943 238.095 40.887C238.142 40.7797 238.202 40.6863 238.277 40.607C238.356 40.5277 238.45 40.4647 238.557 40.418C238.664 40.3713 238.779 40.348 238.9 40.348C239.021 40.348 239.136 40.3713 239.243 40.418C239.35 40.4647 239.444 40.5277 239.523 40.607C239.602 40.6863 239.663 40.7797 239.705 40.887C239.752 40.9943 239.775 41.1087 239.775 41.23C239.775 41.356 239.752 41.4727 239.705 41.58C239.663 41.6827 239.602 41.7737 239.523 41.853C239.444 41.9323 239.35 41.993 239.243 42.035C239.136 42.0817 239.021 42.105 238.9 42.105C238.779 42.105 238.664 42.0817 238.557 42.035C238.45 41.993 238.356 41.9323 238.277 41.853C238.202 41.7737 238.142 41.6827 238.095 41.58C238.053 41.4727 238.032 41.356 238.032 41.23Z" fill="white"/>
<rect x="265" width="34" height="34" rx="8"/>
</svg>
