<svg width="214" height="34" viewBox="0 0 214 34" fill="none" xmlns="http://www.w3.org/2000/svg">
<path d="M0 17C0 7.61116 7.61116 0 17 0H155C164.389 0 172 7.61116 172 17V34H17C7.61116 34 0 26.3888 0 17V17Z" fill="#0078E5"/>
<path d="M0 17C0 7.61116 7.61116 0 17 0H155C164.389 0 172 7.61116 172 17V34H17C7.61116 34 0 26.3888 0 17V17Z" fill="white" fill-opacity="0.35"/>
<path d="M24.52 22H23.155V17.436H17.751V22H16.386V11.969H17.751V16.442H23.155V11.969H24.52V22ZM28.158 14.909V22H26.912V14.909H28.158ZM28.438 12.683C28.438 12.8043 28.4123 12.9187 28.361 13.026C28.3143 13.1287 28.249 13.222 28.165 13.306C28.0857 13.3853 27.9923 13.4483 27.885 13.495C27.7777 13.5417 27.6633 13.565 27.542 13.565C27.4207 13.565 27.3063 13.5417 27.199 13.495C27.0963 13.4483 27.003 13.3853 26.919 13.306C26.8397 13.222 26.7767 13.1287 26.73 13.026C26.6833 12.9187 26.66 12.8043 26.66 12.683C26.66 12.5617 26.6833 12.4473 26.73 12.34C26.7767 12.228 26.8397 12.1323 26.919 12.053C27.003 11.969 27.0963 11.9037 27.199 11.857C27.3063 11.8103 27.4207 11.787 27.542 11.787C27.6633 11.787 27.7777 11.8103 27.885 11.857C27.9923 11.9037 28.0857 11.969 28.165 12.053C28.249 12.1323 28.3143 12.228 28.361 12.34C28.4123 12.4473 28.438 12.5617 28.438 12.683ZM32.342 11.969V15.973C32.342 16.183 32.3374 16.3883 32.328 16.589C32.3234 16.7897 32.314 16.9927 32.3 17.198C32.286 17.3987 32.2674 17.6063 32.244 17.821C32.2254 18.031 32.202 18.2573 32.174 18.5H31.327C31.299 18.2573 31.2734 18.031 31.25 17.821C31.2314 17.6063 31.215 17.3987 31.201 17.198C31.187 16.9927 31.1754 16.7897 31.166 16.589C31.1614 16.3883 31.159 16.183 31.159 15.973V11.969H32.342ZM30.858 21.23C30.858 21.1087 30.879 20.9943 30.921 20.887C30.9677 20.7797 31.0284 20.6863 31.103 20.607C31.1824 20.5277 31.2757 20.4647 31.383 20.418C31.4904 20.3713 31.6047 20.348 31.726 20.348C31.8474 20.348 31.9617 20.3713 32.069 20.418C32.1764 20.4647 32.2697 20.5277 32.349 20.607C32.4284 20.6863 32.489 20.7797 32.531 20.887C32.5777 20.9943 32.601 21.1087 32.601 21.23C32.601 21.356 32.5777 21.4727 32.531 21.58C32.489 21.6827 32.4284 21.7737 32.349 21.853C32.2697 21.9323 32.1764 21.993 32.069 22.035C31.9617 22.0817 31.8474 22.105 31.726 22.105C31.6047 22.105 31.4904 22.0817 31.383 22.035C31.2757 21.993 31.1824 21.9323 31.103 21.853C31.0284 21.7737 30.9677 21.6827 30.921 21.58C30.879 21.4727 30.858 21.356 30.858 21.23ZM46.1899 22H44.8249V17.436H39.4209V22H38.0559V11.969H39.4209V16.442H44.8249V11.969H46.1899V22ZM51.3119 14.797C51.8299 14.797 52.2966 14.8833 52.7119 15.056C53.1319 15.2287 53.4866 15.4737 53.7759 15.791C54.0699 16.1083 54.2939 16.4933 54.4479 16.946C54.6066 17.394 54.6859 17.8957 54.6859 18.451C54.6859 19.011 54.6066 19.515 54.4479 19.963C54.2939 20.411 54.0699 20.7937 53.7759 21.111C53.4866 21.4283 53.1319 21.6733 52.7119 21.846C52.2966 22.014 51.8299 22.098 51.3119 22.098C50.7939 22.098 50.3249 22.014 49.9049 21.846C49.4896 21.6733 49.1349 21.4283 48.8409 21.111C48.5469 20.7937 48.3206 20.411 48.1619 19.963C48.0033 19.515 47.9239 19.011 47.9239 18.451C47.9239 17.8957 48.0033 17.394 48.1619 16.946C48.3206 16.4933 48.5469 16.1083 48.8409 15.791C49.1349 15.4737 49.4896 15.2287 49.9049 15.056C50.3249 14.8833 50.7939 14.797 51.3119 14.797ZM51.3119 21.125C52.0119 21.125 52.5346 20.8917 52.8799 20.425C53.2253 19.9537 53.3979 19.298 53.3979 18.458C53.3979 17.6133 53.2253 16.9553 52.8799 16.484C52.5346 16.0127 52.0119 15.777 51.3119 15.777C50.9573 15.777 50.6493 15.8377 50.3879 15.959C50.1266 16.0803 49.9073 16.2553 49.7299 16.484C49.5573 16.7127 49.4266 16.995 49.3379 17.331C49.2539 17.6623 49.2119 18.038 49.2119 18.458C49.2119 18.878 49.2539 19.2537 49.3379 19.585C49.4266 19.9163 49.5573 20.1963 49.7299 20.425C49.9073 20.649 50.1266 20.8217 50.3879 20.943C50.6493 21.0643 50.9573 21.125 51.3119 21.125ZM55.2972 14.909H56.2772C56.3799 14.909 56.4639 14.9347 56.5292 14.986C56.5946 15.0373 56.6389 15.098 56.6622 15.168L58.0202 19.732C58.0576 19.9 58.0926 20.0633 58.1252 20.222C58.1579 20.376 58.1859 20.5323 58.2092 20.691C58.2466 20.5323 58.2886 20.376 58.3352 20.222C58.3819 20.0633 58.4309 19.9 58.4822 19.732L59.9802 15.14C60.0036 15.07 60.0432 15.0117 60.0992 14.965C60.1599 14.9183 60.2346 14.895 60.3232 14.895H60.8622C60.9556 14.895 61.0326 14.9183 61.0932 14.965C61.1539 15.0117 61.1959 15.07 61.2192 15.14L62.6822 19.732C62.7336 19.8953 62.7779 20.0563 62.8152 20.215C62.8572 20.3737 62.8969 20.53 62.9342 20.684C62.9576 20.53 62.9879 20.369 63.0252 20.201C63.0626 20.033 63.1022 19.8767 63.1442 19.732L64.5302 15.168C64.5536 15.0933 64.5979 15.0327 64.6632 14.986C64.7286 14.9347 64.8056 14.909 64.8942 14.909H65.8322L63.5362 22H62.5492C62.4279 22 62.3439 21.9207 62.2972 21.762L60.7292 16.953C60.6919 16.8457 60.6616 16.7383 60.6382 16.631C60.6149 16.519 60.5916 16.4093 60.5682 16.302C60.5449 16.4093 60.5216 16.519 60.4982 16.631C60.4749 16.743 60.4446 16.8527 60.4072 16.96L58.8182 21.762C58.7669 21.9207 58.6712 22 58.5312 22H57.5932L55.2972 14.909ZM71.453 22H70.095V11.969H71.453V22ZM81.484 16.169C81.4467 16.2203 81.4093 16.26 81.372 16.288C81.3347 16.316 81.281 16.33 81.211 16.33C81.141 16.33 81.064 16.302 80.98 16.246C80.9007 16.1853 80.798 16.12 80.672 16.05C80.546 15.98 80.392 15.917 80.21 15.861C80.0327 15.8003 79.8133 15.77 79.552 15.77C79.2067 15.77 78.901 15.833 78.635 15.959C78.369 16.0803 78.145 16.2577 77.963 16.491C77.7857 16.7243 77.6503 17.0067 77.557 17.338C77.4683 17.6693 77.424 18.0403 77.424 18.451C77.424 18.8803 77.473 19.263 77.571 19.599C77.669 19.9303 77.8067 20.2103 77.984 20.439C78.1613 20.663 78.376 20.8357 78.628 20.957C78.8847 21.0737 79.1717 21.132 79.489 21.132C79.7923 21.132 80.042 21.097 80.238 21.027C80.434 20.9523 80.5973 20.8707 80.728 20.782C80.8587 20.6933 80.966 20.614 81.05 20.544C81.134 20.4693 81.218 20.432 81.302 20.432C81.4093 20.432 81.4887 20.4717 81.54 20.551L81.89 21.006C81.582 21.384 81.197 21.6617 80.735 21.839C80.273 22.0117 79.7853 22.098 79.272 22.098C78.8287 22.098 78.4157 22.0163 78.033 21.853C77.655 21.6897 77.326 21.454 77.046 21.146C76.766 20.8333 76.5443 20.4507 76.381 19.998C76.2223 19.5453 76.143 19.0297 76.143 18.451C76.143 17.9237 76.2153 17.436 76.36 16.988C76.5093 16.54 76.724 16.155 77.004 15.833C77.2887 15.5063 77.6387 15.252 78.054 15.07C78.4693 14.888 78.9453 14.797 79.482 14.797C79.9767 14.797 80.4153 14.8787 80.798 15.042C81.1807 15.2007 81.519 15.427 81.813 15.721L81.484 16.169ZM88.3902 22H87.8372C87.7158 22 87.6178 21.9813 87.5432 21.944C87.4685 21.9067 87.4195 21.8273 87.3962 21.706L87.2562 21.048C87.0695 21.216 86.8875 21.3677 86.7102 21.503C86.5328 21.6337 86.3462 21.7457 86.1502 21.839C85.9542 21.9277 85.7442 21.9953 85.5202 22.042C85.3008 22.0887 85.0558 22.112 84.7852 22.112C84.5098 22.112 84.2508 22.0747 84.0082 22C83.7702 21.9207 83.5625 21.804 83.3852 21.65C83.2078 21.496 83.0655 21.3023 82.9582 21.069C82.8555 20.831 82.8042 20.551 82.8042 20.229C82.8042 19.949 82.8812 19.6807 83.0352 19.424C83.1892 19.1627 83.4365 18.9317 83.7772 18.731C84.1225 18.5303 84.5728 18.367 85.1282 18.241C85.6835 18.1103 86.3625 18.0357 87.1652 18.017V17.464C87.1652 16.9133 87.0462 16.498 86.8082 16.218C86.5748 15.9333 86.2272 15.791 85.7652 15.791C85.4618 15.791 85.2052 15.8307 84.9952 15.91C84.7898 15.9847 84.6102 16.071 84.4562 16.169C84.3068 16.2623 84.1762 16.3487 84.0642 16.428C83.9568 16.5027 83.8495 16.54 83.7422 16.54C83.6582 16.54 83.5835 16.519 83.5182 16.477C83.4575 16.4303 83.4085 16.3743 83.3712 16.309L83.1472 15.91C83.5392 15.532 83.9615 15.2497 84.4142 15.063C84.8668 14.8763 85.3685 14.783 85.9192 14.783C86.3158 14.783 86.6682 14.8483 86.9762 14.979C87.2842 15.1097 87.5432 15.2917 87.7532 15.525C87.9632 15.7583 88.1218 16.0407 88.2292 16.372C88.3365 16.7033 88.3902 17.0673 88.3902 17.464V22ZM85.1562 21.237C85.3755 21.237 85.5762 21.216 85.7582 21.174C85.9402 21.1273 86.1105 21.0643 86.2692 20.985C86.4325 20.901 86.5865 20.8007 86.7312 20.684C86.8805 20.5673 87.0252 20.4343 87.1652 20.285V18.808C86.5912 18.8267 86.1035 18.8733 85.7022 18.948C85.3008 19.018 84.9742 19.1113 84.7222 19.228C84.4702 19.3447 84.2858 19.4823 84.1692 19.641C84.0572 19.7997 84.0012 19.977 84.0012 20.173C84.0012 20.3597 84.0315 20.5207 84.0922 20.656C84.1528 20.7913 84.2345 20.9033 84.3372 20.992C84.4398 21.076 84.5612 21.139 84.7012 21.181C84.8412 21.2183 84.9928 21.237 85.1562 21.237ZM90.2779 22V14.909H91.0199C91.1972 14.909 91.3092 14.9953 91.3559 15.168L91.4539 15.938C91.7619 15.5973 92.1049 15.322 92.4829 15.112C92.8655 14.902 93.3065 14.797 93.8059 14.797C94.1932 14.797 94.5339 14.8623 94.8279 14.993C95.1265 15.119 95.3739 15.301 95.5699 15.539C95.7705 15.7723 95.9222 16.0547 96.0249 16.386C96.1275 16.7173 96.1789 17.0837 96.1789 17.485V22H94.9329V17.485C94.9329 16.9483 94.8092 16.533 94.5619 16.239C94.3192 15.9403 93.9459 15.791 93.4419 15.791C93.0732 15.791 92.7279 15.8797 92.4059 16.057C92.0885 16.2343 91.7945 16.4747 91.5239 16.778V22H90.2779ZM100.764 22V11.689H102.01V15.861C102.314 15.539 102.65 15.2823 103.018 15.091C103.387 14.895 103.812 14.797 104.292 14.797C104.68 14.797 105.02 14.8623 105.314 14.993C105.613 15.119 105.86 15.301 106.056 15.539C106.257 15.7723 106.409 16.0547 106.511 16.386C106.614 16.7173 106.665 17.0837 106.665 17.485V22H105.419V17.485C105.419 16.9483 105.296 16.533 105.048 16.239C104.806 15.9403 104.432 15.791 103.928 15.791C103.56 15.791 103.214 15.8797 102.892 16.057C102.575 16.2343 102.281 16.4747 102.01 16.778V22H100.764ZM111.35 14.797C111.775 14.797 112.167 14.8693 112.526 15.014C112.886 15.154 113.196 15.3593 113.457 15.63C113.719 15.896 113.922 16.2273 114.066 16.624C114.216 17.016 114.29 17.464 114.29 17.968C114.29 18.164 114.269 18.2947 114.227 18.36C114.185 18.4253 114.106 18.458 113.989 18.458H109.271C109.281 18.906 109.341 19.2957 109.453 19.627C109.565 19.9583 109.719 20.236 109.915 20.46C110.111 20.6793 110.345 20.845 110.615 20.957C110.886 21.0643 111.189 21.118 111.525 21.118C111.838 21.118 112.106 21.083 112.33 21.013C112.559 20.9383 112.755 20.859 112.918 20.775C113.082 20.691 113.217 20.614 113.324 20.544C113.436 20.4693 113.532 20.432 113.611 20.432C113.714 20.432 113.793 20.4717 113.849 20.551L114.199 21.006C114.045 21.1927 113.861 21.356 113.646 21.496C113.432 21.6313 113.201 21.7433 112.953 21.832C112.711 21.9207 112.459 21.986 112.197 22.028C111.936 22.0747 111.677 22.098 111.42 22.098C110.93 22.098 110.478 22.0163 110.062 21.853C109.652 21.685 109.295 21.4423 108.991 21.125C108.693 20.803 108.459 20.4063 108.291 19.935C108.123 19.4637 108.039 18.9223 108.039 18.311C108.039 17.8163 108.114 17.3543 108.263 16.925C108.417 16.4957 108.637 16.1247 108.921 15.812C109.206 15.4947 109.554 15.2473 109.964 15.07C110.375 14.888 110.837 14.797 111.35 14.797ZM111.378 15.714C110.776 15.714 110.303 15.889 109.957 16.239C109.612 16.5843 109.397 17.065 109.313 17.681H113.17C113.17 17.3917 113.131 17.128 113.051 16.89C112.972 16.6473 112.855 16.4397 112.701 16.267C112.547 16.0897 112.358 15.9543 112.134 15.861C111.915 15.763 111.663 15.714 111.378 15.714ZM117.271 11.689V22H116.025V11.689H117.271ZM119.467 24.401V14.909H120.209C120.387 14.909 120.499 14.9953 120.545 15.168L120.65 16.008C120.954 15.6393 121.299 15.343 121.686 15.119C122.078 14.895 122.529 14.783 123.037 14.783C123.443 14.783 123.812 14.8623 124.143 15.021C124.475 15.175 124.757 15.406 124.99 15.714C125.224 16.0173 125.403 16.3953 125.529 16.848C125.655 17.3007 125.718 17.821 125.718 18.409C125.718 18.9317 125.648 19.4193 125.508 19.872C125.368 20.32 125.168 20.7097 124.906 21.041C124.645 21.3677 124.323 21.6267 123.94 21.818C123.562 22.0047 123.135 22.098 122.659 22.098C122.221 22.098 121.845 22.0257 121.532 21.881C121.224 21.7363 120.951 21.531 120.713 21.265V24.401H119.467ZM122.624 15.791C122.218 15.791 121.861 15.8843 121.553 16.071C121.25 16.2577 120.97 16.5213 120.713 16.862V20.292C120.942 20.6 121.192 20.817 121.462 20.943C121.738 21.069 122.043 21.132 122.379 21.132C123.037 21.132 123.544 20.8963 123.898 20.425C124.253 19.9537 124.43 19.2817 124.43 18.409C124.43 17.947 124.388 17.5503 124.304 17.219C124.225 16.8877 124.108 16.617 123.954 16.407C123.8 16.1923 123.611 16.036 123.387 15.938C123.163 15.84 122.909 15.791 122.624 15.791ZM131.978 24.093C131.936 24.1863 131.882 24.261 131.817 24.317C131.756 24.373 131.661 24.401 131.53 24.401H130.606L131.901 21.587L128.975 14.909H130.053C130.16 14.909 130.244 14.937 130.305 14.993C130.366 15.0443 130.41 15.1027 130.438 15.168L132.335 19.634C132.377 19.7367 132.412 19.8393 132.44 19.942C132.473 20.0447 132.501 20.1497 132.524 20.257C132.557 20.1497 132.589 20.0447 132.622 19.942C132.655 19.8393 132.692 19.7343 132.734 19.627L134.575 15.168C134.603 15.0933 134.65 15.0327 134.715 14.986C134.785 14.9347 134.86 14.909 134.939 14.909H135.933L131.978 24.093ZM139.755 14.797C140.273 14.797 140.74 14.8833 141.155 15.056C141.575 15.2287 141.93 15.4737 142.219 15.791C142.513 16.1083 142.737 16.4933 142.891 16.946C143.05 17.394 143.129 17.8957 143.129 18.451C143.129 19.011 143.05 19.515 142.891 19.963C142.737 20.411 142.513 20.7937 142.219 21.111C141.93 21.4283 141.575 21.6733 141.155 21.846C140.74 22.014 140.273 22.098 139.755 22.098C139.237 22.098 138.768 22.014 138.348 21.846C137.933 21.6733 137.578 21.4283 137.284 21.111C136.99 20.7937 136.764 20.411 136.605 19.963C136.447 19.515 136.367 19.011 136.367 18.451C136.367 17.8957 136.447 17.394 136.605 16.946C136.764 16.4933 136.99 16.1083 137.284 15.791C137.578 15.4737 137.933 15.2287 138.348 15.056C138.768 14.8833 139.237 14.797 139.755 14.797ZM139.755 21.125C140.455 21.125 140.978 20.8917 141.323 20.425C141.669 19.9537 141.841 19.298 141.841 18.458C141.841 17.6133 141.669 16.9553 141.323 16.484C140.978 16.0127 140.455 15.777 139.755 15.777C139.401 15.777 139.093 15.8377 138.831 15.959C138.57 16.0803 138.351 16.2553 138.173 16.484C138.001 16.7127 137.87 16.995 137.781 17.331C137.697 17.6623 137.655 18.038 137.655 18.458C137.655 18.878 137.697 19.2537 137.781 19.585C137.87 19.9163 138.001 20.1963 138.173 20.425C138.351 20.649 138.57 20.8217 138.831 20.943C139.093 21.0643 139.401 21.125 139.755 21.125ZM145.743 14.909V19.431C145.743 19.9677 145.866 20.383 146.114 20.677C146.361 20.971 146.734 21.118 147.234 21.118C147.598 21.118 147.941 21.0317 148.263 20.859C148.585 20.6863 148.881 20.446 149.152 20.138V14.909H150.398V22H149.656C149.478 22 149.366 21.9137 149.32 21.741L149.222 20.978C148.914 21.3187 148.568 21.594 148.186 21.804C147.803 22.0093 147.364 22.112 146.87 22.112C146.482 22.112 146.139 22.049 145.841 21.923C145.547 21.7923 145.299 21.6103 145.099 21.377C144.898 21.1437 144.746 20.8613 144.644 20.53C144.546 20.1987 144.497 19.8323 144.497 19.431V14.909H145.743ZM151.66 12.865C151.805 12.7297 151.963 12.6013 152.136 12.48C152.313 12.3587 152.505 12.2513 152.71 12.158C152.92 12.0647 153.144 11.9923 153.382 11.941C153.625 11.885 153.886 11.857 154.166 11.857C154.535 11.857 154.875 11.9107 155.188 12.018C155.505 12.1253 155.778 12.277 156.007 12.473C156.236 12.669 156.415 12.907 156.546 13.187C156.677 13.467 156.742 13.782 156.742 14.132C156.742 14.4867 156.688 14.7923 156.581 15.049C156.478 15.3057 156.345 15.532 156.182 15.728C156.023 15.9193 155.848 16.0873 155.657 16.232C155.466 16.372 155.286 16.505 155.118 16.631C154.955 16.757 154.812 16.883 154.691 17.009C154.574 17.135 154.507 17.275 154.488 17.429L154.362 18.5H153.508L153.424 17.338V17.261C153.424 17.065 153.475 16.8923 153.578 16.743C153.685 16.589 153.818 16.4467 153.977 16.316C154.14 16.1807 154.313 16.0477 154.495 15.917C154.682 15.7817 154.854 15.6347 155.013 15.476C155.176 15.3127 155.309 15.1283 155.412 14.923C155.519 14.7177 155.573 14.475 155.573 14.195C155.573 13.9943 155.533 13.8123 155.454 13.649C155.375 13.4857 155.267 13.348 155.132 13.236C154.997 13.1193 154.836 13.0307 154.649 12.97C154.467 12.9093 154.271 12.879 154.061 12.879C153.776 12.879 153.531 12.914 153.326 12.984C153.125 13.054 152.955 13.131 152.815 13.215C152.675 13.299 152.561 13.376 152.472 13.446C152.388 13.516 152.318 13.551 152.262 13.551C152.145 13.551 152.054 13.4973 151.989 13.39L151.66 12.865ZM153.032 21.23C153.032 21.1087 153.053 20.9943 153.095 20.887C153.142 20.7797 153.202 20.6863 153.277 20.607C153.356 20.5277 153.45 20.4647 153.557 20.418C153.664 20.3713 153.779 20.348 153.9 20.348C154.021 20.348 154.136 20.3713 154.243 20.418C154.35 20.4647 154.444 20.5277 154.523 20.607C154.602 20.6863 154.663 20.7797 154.705 20.887C154.752 20.9943 154.775 21.1087 154.775 21.23C154.775 21.356 154.752 21.4727 154.705 21.58C154.663 21.6827 154.602 21.7737 154.523 21.853C154.444 21.9323 154.35 21.993 154.243 22.035C154.136 22.0817 154.021 22.105 153.9 22.105C153.779 22.105 153.664 22.0817 153.557 22.035C153.45 21.993 153.356 21.9323 153.277 21.853C153.202 21.7737 153.142 21.6827 153.095 21.58C153.053 21.4727 153.032 21.356 153.032 21.23Z" fill="white"/>
<rect x="180" width="34" height="34" rx="8"/>
</svg>
