<svg width="218" height="34" viewBox="0 0 218 34" fill="none" xmlns="http://www.w3.org/2000/svg">
<rect width="34" height="34" rx="8" fill="#F8DE80"/>
<path d="M17.661 18.168C17.661 19.0107 17.5143 19.7893 17.221 20.504C16.933 21.2133 16.525 21.8293 15.997 22.352C15.469 22.8693 14.8317 23.2747 14.085 23.568C13.3437 23.856 12.5197 24 11.613 24H7.085V12.344H11.613C12.5197 12.344 13.3437 12.4907 14.085 12.784C14.8317 13.0773 15.469 13.4827 15.997 14C16.525 14.5173 16.933 15.1333 17.221 15.848C17.5143 16.5573 17.661 17.3307 17.661 18.168ZM14.893 18.168C14.893 17.592 14.8183 17.072 14.669 16.608C14.5197 16.144 14.3037 15.752 14.021 15.432C13.7437 15.1067 13.4023 14.8587 12.997 14.688C12.5917 14.512 12.1303 14.424 11.613 14.424H9.805V21.92H11.613C12.1303 21.92 12.5917 21.8347 12.997 21.664C13.4023 21.488 13.7437 21.24 14.021 20.92C14.3037 20.5947 14.5197 20.2 14.669 19.736C14.8183 19.272 14.893 18.7493 14.893 18.168ZM29.536 18.168C29.536 19.0107 29.3893 19.7893 29.096 20.504C28.808 21.2133 28.4 21.8293 27.872 22.352C27.344 22.8693 26.7067 23.2747 25.96 23.568C25.2187 23.856 24.3947 24 23.488 24H18.96V12.344H23.488C24.3947 12.344 25.2187 12.4907 25.96 12.784C26.7067 13.0773 27.344 13.4827 27.872 14C28.4 14.5173 28.808 15.1333 29.096 15.848C29.3893 16.5573 29.536 17.3307 29.536 18.168ZM26.768 18.168C26.768 17.592 26.6933 17.072 26.544 16.608C26.3947 16.144 26.1787 15.752 25.896 15.432C25.6187 15.1067 25.2773 14.8587 24.872 14.688C24.4667 14.512 24.0053 14.424 23.488 14.424H21.68V21.92H23.488C24.0053 21.92 24.4667 21.8347 24.872 21.664C25.2773 21.488 25.6187 21.24 25.896 20.92C26.1787 20.5947 26.3947 20.2 26.544 19.736C26.6933 19.272 26.768 18.7493 26.768 18.168Z" fill="white"/>
<path d="M42 18.5C42 8.28273 50.2827 0 60.5 0H201C210.389 0 218 7.61116 218 17V17C218 26.3888 210.389 34 201 34H42V18.5Z" fill="#F3F4F9"/>
<path d="M62.082 18.01V22H60.731V18.01L57.056 11.969H58.246C58.3673 11.969 58.463 11.9993 58.533 12.06C58.603 12.1207 58.6637 12.1953 58.715 12.284L61.011 16.183C61.1043 16.3463 61.1813 16.5003 61.242 16.645C61.3073 16.7897 61.3657 16.932 61.417 17.072C61.4683 16.9273 61.5243 16.7827 61.585 16.638C61.6457 16.4933 61.7227 16.3417 61.816 16.183L64.105 12.284C64.147 12.2093 64.203 12.1393 64.273 12.074C64.3477 12.004 64.4433 11.969 64.56 11.969H65.764L62.082 18.01ZM68.5126 14.797C68.9373 14.797 69.3293 14.8693 69.6886 15.014C70.0479 15.154 70.3583 15.3593 70.6196 15.63C70.8809 15.896 71.0839 16.2273 71.2286 16.624C71.3779 17.016 71.4526 17.464 71.4526 17.968C71.4526 18.164 71.4316 18.2947 71.3896 18.36C71.3476 18.4253 71.2683 18.458 71.1516 18.458H66.4336C66.4429 18.906 66.5036 19.2957 66.6156 19.627C66.7276 19.9583 66.8816 20.236 67.0776 20.46C67.2736 20.6793 67.5069 20.845 67.7776 20.957C68.0483 21.0643 68.3516 21.118 68.6876 21.118C69.0003 21.118 69.2686 21.083 69.4926 21.013C69.7213 20.9383 69.9173 20.859 70.0806 20.775C70.2439 20.691 70.3793 20.614 70.4866 20.544C70.5986 20.4693 70.6943 20.432 70.7736 20.432C70.8763 20.432 70.9556 20.4717 71.0116 20.551L71.3616 21.006C71.2076 21.1927 71.0233 21.356 70.8086 21.496C70.5939 21.6313 70.3629 21.7433 70.1156 21.832C69.8729 21.9207 69.6209 21.986 69.3596 22.028C69.0983 22.0747 68.8393 22.098 68.5826 22.098C68.0926 22.098 67.6399 22.0163 67.2246 21.853C66.8139 21.685 66.4569 21.4423 66.1536 21.125C65.8549 20.803 65.6216 20.4063 65.4536 19.935C65.2856 19.4637 65.2016 18.9223 65.2016 18.311C65.2016 17.8163 65.2763 17.3543 65.4256 16.925C65.5796 16.4957 65.7989 16.1247 66.0836 15.812C66.3683 15.4947 66.7159 15.2473 67.1266 15.07C67.5373 14.888 67.9993 14.797 68.5126 14.797ZM68.5406 15.714C67.9386 15.714 67.4649 15.889 67.1196 16.239C66.7743 16.5843 66.5596 17.065 66.4756 17.681H70.3326C70.3326 17.3917 70.2929 17.128 70.2136 16.89C70.1343 16.6473 70.0176 16.4397 69.8636 16.267C69.7096 16.0897 69.5206 15.9543 69.2966 15.861C69.0773 15.763 68.8253 15.714 68.5406 15.714ZM77.1074 16.078C77.0514 16.1807 76.9651 16.232 76.8484 16.232C76.7784 16.232 76.6991 16.2063 76.6104 16.155C76.5217 16.1037 76.4121 16.0477 76.2814 15.987C76.1554 15.9217 76.0037 15.8633 75.8264 15.812C75.6491 15.756 75.4391 15.728 75.1964 15.728C74.9864 15.728 74.7974 15.756 74.6294 15.812C74.4614 15.8633 74.3167 15.9357 74.1954 16.029C74.0787 16.1223 73.9877 16.232 73.9224 16.358C73.8617 16.4793 73.8314 16.6123 73.8314 16.757C73.8314 16.939 73.8827 17.0907 73.9854 17.212C74.0927 17.3333 74.2327 17.4383 74.4054 17.527C74.5781 17.6157 74.7741 17.695 74.9934 17.765C75.2127 17.8303 75.4367 17.9027 75.6654 17.982C75.8987 18.0567 76.1251 18.1407 76.3444 18.234C76.5637 18.3273 76.7597 18.444 76.9324 18.584C77.1051 18.724 77.2427 18.8967 77.3454 19.102C77.4527 19.3027 77.5064 19.5453 77.5064 19.83C77.5064 20.1567 77.4481 20.46 77.3314 20.74C77.2147 21.0153 77.0421 21.2557 76.8134 21.461C76.5847 21.6617 76.3047 21.8203 75.9734 21.937C75.6421 22.0537 75.2594 22.112 74.8254 22.112C74.3307 22.112 73.8827 22.0327 73.4814 21.874C73.0801 21.7107 72.7394 21.503 72.4594 21.251L72.7534 20.775C72.7907 20.7143 72.8351 20.6677 72.8864 20.635C72.9377 20.6023 73.0054 20.586 73.0894 20.586C73.1734 20.586 73.2621 20.6187 73.3554 20.684C73.4487 20.7493 73.5607 20.8217 73.6914 20.901C73.8267 20.9803 73.9877 21.0527 74.1744 21.118C74.3657 21.1833 74.6037 21.216 74.8884 21.216C75.1311 21.216 75.3434 21.1857 75.5254 21.125C75.7074 21.0597 75.8591 20.9733 75.9804 20.866C76.1017 20.7587 76.1904 20.635 76.2464 20.495C76.3071 20.355 76.3374 20.2057 76.3374 20.047C76.3374 19.851 76.2837 19.69 76.1764 19.564C76.0737 19.4333 75.9361 19.3237 75.7634 19.235C75.5907 19.1417 75.3924 19.0623 75.1684 18.997C74.9491 18.927 74.7227 18.8547 74.4894 18.78C74.2607 18.7053 74.0344 18.6213 73.8104 18.528C73.5911 18.43 73.3951 18.3087 73.2224 18.164C73.0497 18.0193 72.9097 17.842 72.8024 17.632C72.6997 17.4173 72.6484 17.1583 72.6484 16.855C72.6484 16.5843 72.7044 16.3253 72.8164 16.078C72.9284 15.826 73.0917 15.6067 73.3064 15.42C73.5211 15.2287 73.7847 15.077 74.0974 14.965C74.4101 14.853 74.7671 14.797 75.1684 14.797C75.6351 14.797 76.0527 14.8717 76.4214 15.021C76.7947 15.1657 77.1167 15.3663 77.3874 15.623L77.1074 16.078ZM78.7537 21.139C78.7537 21.0317 78.7724 20.9313 78.8097 20.838C78.8517 20.74 78.9077 20.656 78.9777 20.586C79.0524 20.5113 79.141 20.453 79.2437 20.411C79.3464 20.369 79.4584 20.348 79.5797 20.348C79.7197 20.348 79.8434 20.3737 79.9507 20.425C80.0627 20.4763 80.1537 20.5487 80.2237 20.642C80.2984 20.7307 80.3544 20.8357 80.3917 20.957C80.429 21.0737 80.4477 21.202 80.4477 21.342C80.4477 21.552 80.4174 21.7713 80.3567 22C80.296 22.224 80.2097 22.4457 80.0977 22.665C79.9857 22.889 79.8457 23.106 79.6777 23.316C79.5144 23.526 79.3277 23.7197 79.1177 23.897L78.9077 23.694C78.847 23.638 78.8167 23.5727 78.8167 23.498C78.8167 23.4373 78.8494 23.3743 78.9147 23.309C78.9614 23.2577 79.0197 23.1877 79.0897 23.099C79.1644 23.015 79.239 22.917 79.3137 22.805C79.3884 22.693 79.456 22.5693 79.5167 22.434C79.582 22.2987 79.6287 22.154 79.6567 22H79.5657C79.4444 22 79.3347 21.979 79.2367 21.937C79.1387 21.895 79.0524 21.8367 78.9777 21.762C78.9077 21.6827 78.8517 21.5917 78.8097 21.489C78.7724 21.3817 78.7537 21.265 78.7537 21.139ZM86.1775 14.909V22H84.9315V14.909H86.1775ZM86.4575 12.683C86.4575 12.8043 86.4319 12.9187 86.3805 13.026C86.3339 13.1287 86.2685 13.222 86.1845 13.306C86.1052 13.3853 86.0119 13.4483 85.9045 13.495C85.7972 13.5417 85.6829 13.565 85.5615 13.565C85.4402 13.565 85.3259 13.5417 85.2185 13.495C85.1159 13.4483 85.0225 13.3853 84.9385 13.306C84.8592 13.222 84.7962 13.1287 84.7495 13.026C84.7029 12.9187 84.6795 12.8043 84.6795 12.683C84.6795 12.5617 84.7029 12.4473 84.7495 12.34C84.7962 12.228 84.8592 12.1323 84.9385 12.053C85.0225 11.969 85.1159 11.9037 85.2185 11.857C85.3259 11.8103 85.4402 11.787 85.5615 11.787C85.6829 11.787 85.7972 11.8103 85.9045 11.857C86.0119 11.9037 86.1052 11.969 86.1845 12.053C86.2685 12.1323 86.3339 12.228 86.3805 12.34C86.4319 12.4473 86.4575 12.5617 86.4575 12.683ZM90.5226 22.112C89.9626 22.112 89.5309 21.9557 89.2276 21.643C88.9289 21.3303 88.7796 20.88 88.7796 20.292V15.952H87.9256C87.8509 15.952 87.7879 15.931 87.7366 15.889C87.6852 15.8423 87.6596 15.7723 87.6596 15.679V15.182L88.8216 15.035L89.1086 12.844C89.1179 12.774 89.1482 12.718 89.1996 12.676C89.2509 12.6293 89.3162 12.606 89.3956 12.606H90.0256V15.049H92.0556V15.952H90.0256V20.208C90.0256 20.5067 90.0979 20.7283 90.2426 20.873C90.3872 21.0177 90.5739 21.09 90.8026 21.09C90.9332 21.09 91.0452 21.0737 91.1386 21.041C91.2366 21.0037 91.3206 20.964 91.3906 20.922C91.4606 20.88 91.5189 20.8427 91.5656 20.81C91.6169 20.7727 91.6612 20.754 91.6986 20.754C91.7639 20.754 91.8222 20.7937 91.8736 20.873L92.2376 21.468C92.0229 21.6687 91.7639 21.8273 91.4606 21.944C91.1572 22.056 90.8446 22.112 90.5226 22.112ZM95.3793 14.909H96.3593C96.4619 14.909 96.5459 14.9347 96.6113 14.986C96.6766 15.0373 96.7209 15.098 96.7443 15.168L98.1023 19.732C98.1396 19.9 98.1746 20.0633 98.2073 20.222C98.2399 20.376 98.2679 20.5323 98.2913 20.691C98.3286 20.5323 98.3706 20.376 98.4173 20.222C98.4639 20.0633 98.5129 19.9 98.5643 19.732L100.062 15.14C100.086 15.07 100.125 15.0117 100.181 14.965C100.242 14.9183 100.317 14.895 100.405 14.895H100.944C101.038 14.895 101.115 14.9183 101.175 14.965C101.236 15.0117 101.278 15.07 101.301 15.14L102.764 19.732C102.816 19.8953 102.86 20.0563 102.897 20.215C102.939 20.3737 102.979 20.53 103.016 20.684C103.04 20.53 103.07 20.369 103.107 20.201C103.145 20.033 103.184 19.8767 103.226 19.732L104.612 15.168C104.636 15.0933 104.68 15.0327 104.745 14.986C104.811 14.9347 104.888 14.909 104.976 14.909H105.914L103.618 22H102.631C102.51 22 102.426 21.9207 102.379 21.762L100.811 16.953C100.774 16.8457 100.744 16.7383 100.72 16.631C100.697 16.519 100.674 16.4093 100.65 16.302C100.627 16.4093 100.604 16.519 100.58 16.631C100.557 16.743 100.527 16.8527 100.489 16.96L98.9003 21.762C98.8489 21.9207 98.7533 22 98.6133 22H97.6753L95.3793 14.909ZM109.892 14.797C110.41 14.797 110.877 14.8833 111.292 15.056C111.712 15.2287 112.067 15.4737 112.356 15.791C112.65 16.1083 112.874 16.4933 113.028 16.946C113.187 17.394 113.266 17.8957 113.266 18.451C113.266 19.011 113.187 19.515 113.028 19.963C112.874 20.411 112.65 20.7937 112.356 21.111C112.067 21.4283 111.712 21.6733 111.292 21.846C110.877 22.014 110.41 22.098 109.892 22.098C109.374 22.098 108.905 22.014 108.485 21.846C108.07 21.6733 107.715 21.4283 107.421 21.111C107.127 20.7937 106.901 20.411 106.742 19.963C106.583 19.515 106.504 19.011 106.504 18.451C106.504 17.8957 106.583 17.394 106.742 16.946C106.901 16.4933 107.127 16.1083 107.421 15.791C107.715 15.4737 108.07 15.2287 108.485 15.056C108.905 14.8833 109.374 14.797 109.892 14.797ZM109.892 21.125C110.592 21.125 111.115 20.8917 111.46 20.425C111.805 19.9537 111.978 19.298 111.978 18.458C111.978 17.6133 111.805 16.9553 111.46 16.484C111.115 16.0127 110.592 15.777 109.892 15.777C109.537 15.777 109.229 15.8377 108.968 15.959C108.707 16.0803 108.487 16.2553 108.31 16.484C108.137 16.7127 108.007 16.995 107.918 17.331C107.834 17.6623 107.792 18.038 107.792 18.458C107.792 18.878 107.834 19.2537 107.918 19.585C108.007 19.9163 108.137 20.1963 108.31 20.425C108.487 20.649 108.707 20.8217 108.968 20.943C109.229 21.0643 109.537 21.125 109.892 21.125ZM115.879 14.909V19.431C115.879 19.9677 116.003 20.383 116.25 20.677C116.498 20.971 116.871 21.118 117.37 21.118C117.734 21.118 118.077 21.0317 118.399 20.859C118.721 20.6863 119.018 20.446 119.288 20.138V14.909H120.534V22H119.792C119.615 22 119.503 21.9137 119.456 21.741L119.358 20.978C119.05 21.3187 118.705 21.594 118.322 21.804C117.94 22.0093 117.501 22.112 117.006 22.112C116.619 22.112 116.276 22.049 115.977 21.923C115.683 21.7923 115.436 21.6103 115.235 21.377C115.035 21.1437 114.883 20.8613 114.78 20.53C114.682 20.1987 114.633 19.8323 114.633 19.431V14.909H115.879ZM123.967 11.689V22H122.721V11.689H123.967ZM131.154 22C130.976 22 130.864 21.9137 130.818 21.741L130.706 20.88C130.402 21.2487 130.055 21.545 129.663 21.769C129.275 21.9883 128.83 22.098 128.326 22.098C127.92 22.098 127.551 22.021 127.22 21.867C126.888 21.7083 126.606 21.4773 126.373 21.174C126.139 20.8707 125.96 20.4927 125.834 20.04C125.708 19.5873 125.645 19.067 125.645 18.479C125.645 17.9563 125.715 17.471 125.855 17.023C125.995 16.5703 126.195 16.1783 126.457 15.847C126.723 15.5157 127.045 15.2567 127.423 15.07C127.801 14.8787 128.23 14.783 128.711 14.783C129.145 14.783 129.516 14.8577 129.824 15.007C130.132 15.1517 130.407 15.357 130.65 15.623V11.689H131.896V22H131.154ZM128.739 21.09C129.145 21.09 129.499 20.9967 129.803 20.81C130.111 20.6233 130.393 20.3597 130.65 20.019V16.589C130.421 16.281 130.169 16.0663 129.894 15.945C129.623 15.819 129.322 15.756 128.991 15.756C128.328 15.756 127.819 15.9917 127.465 16.463C127.11 16.9343 126.933 17.6063 126.933 18.479C126.933 18.941 126.972 19.3377 127.052 19.669C127.131 19.9957 127.248 20.2663 127.402 20.481C127.556 20.691 127.745 20.845 127.969 20.943C128.193 21.041 128.449 21.09 128.739 21.09ZM136.732 22V11.689H137.985V15.931C138.279 15.5903 138.615 15.3173 138.993 15.112C139.376 14.902 139.812 14.797 140.302 14.797C140.713 14.797 141.084 14.874 141.415 15.028C141.746 15.182 142.029 15.413 142.262 15.721C142.495 16.0243 142.675 16.4023 142.801 16.855C142.927 17.303 142.99 17.821 142.99 18.409C142.99 18.9317 142.92 19.4193 142.78 19.872C142.64 20.32 142.437 20.7097 142.171 21.041C141.91 21.3677 141.588 21.6267 141.205 21.818C140.827 22.0047 140.4 22.098 139.924 22.098C139.467 22.098 139.077 22.0093 138.755 21.832C138.438 21.6547 138.16 21.4073 137.922 21.09L137.859 21.734C137.822 21.9113 137.714 22 137.537 22H136.732ZM139.896 15.791C139.49 15.791 139.133 15.8843 138.825 16.071C138.522 16.2577 138.242 16.5213 137.985 16.862V20.292C138.209 20.6 138.456 20.817 138.727 20.943C139.002 21.069 139.308 21.132 139.644 21.132C140.307 21.132 140.815 20.8963 141.17 20.425C141.525 19.9537 141.702 19.2817 141.702 18.409C141.702 17.947 141.66 17.5503 141.576 17.219C141.497 16.8877 141.38 16.617 141.226 16.407C141.072 16.1923 140.883 16.036 140.659 15.938C140.435 15.84 140.181 15.791 139.896 15.791ZM147.317 14.797C147.742 14.797 148.134 14.8693 148.493 15.014C148.853 15.154 149.163 15.3593 149.424 15.63C149.686 15.896 149.889 16.2273 150.033 16.624C150.183 17.016 150.257 17.464 150.257 17.968C150.257 18.164 150.236 18.2947 150.194 18.36C150.152 18.4253 150.073 18.458 149.956 18.458H145.238C145.248 18.906 145.308 19.2957 145.42 19.627C145.532 19.9583 145.686 20.236 145.882 20.46C146.078 20.6793 146.312 20.845 146.582 20.957C146.853 21.0643 147.156 21.118 147.492 21.118C147.805 21.118 148.073 21.083 148.297 21.013C148.526 20.9383 148.722 20.859 148.885 20.775C149.049 20.691 149.184 20.614 149.291 20.544C149.403 20.4693 149.499 20.432 149.578 20.432C149.681 20.432 149.76 20.4717 149.816 20.551L150.166 21.006C150.012 21.1927 149.828 21.356 149.613 21.496C149.399 21.6313 149.168 21.7433 148.92 21.832C148.678 21.9207 148.426 21.986 148.164 22.028C147.903 22.0747 147.644 22.098 147.387 22.098C146.897 22.098 146.445 22.0163 146.029 21.853C145.619 21.685 145.262 21.4423 144.958 21.125C144.66 20.803 144.426 20.4063 144.258 19.935C144.09 19.4637 144.006 18.9223 144.006 18.311C144.006 17.8163 144.081 17.3543 144.23 16.925C144.384 16.4957 144.604 16.1247 144.888 15.812C145.173 15.4947 145.521 15.2473 145.931 15.07C146.342 14.888 146.804 14.797 147.317 14.797ZM147.345 15.714C146.743 15.714 146.27 15.889 145.924 16.239C145.579 16.5843 145.364 17.065 145.28 17.681H149.137C149.137 17.3917 149.098 17.128 149.018 16.89C148.939 16.6473 148.822 16.4397 148.668 16.267C148.514 16.0897 148.325 15.9543 148.101 15.861C147.882 15.763 147.63 15.714 147.345 15.714ZM154.559 24.401V14.909H155.301C155.478 14.909 155.59 14.9953 155.637 15.168L155.742 16.008C156.045 15.6393 156.391 15.343 156.778 15.119C157.17 14.895 157.62 14.783 158.129 14.783C158.535 14.783 158.904 14.8623 159.235 15.021C159.566 15.175 159.849 15.406 160.082 15.714C160.315 16.0173 160.495 16.3953 160.621 16.848C160.747 17.3007 160.81 17.821 160.81 18.409C160.81 18.9317 160.74 19.4193 160.6 19.872C160.46 20.32 160.259 20.7097 159.998 21.041C159.737 21.3677 159.415 21.6267 159.032 21.818C158.654 22.0047 158.227 22.098 157.751 22.098C157.312 22.098 156.937 22.0257 156.624 21.881C156.316 21.7363 156.043 21.531 155.805 21.265V24.401H154.559ZM157.716 15.791C157.31 15.791 156.953 15.8843 156.645 16.071C156.342 16.2577 156.062 16.5213 155.805 16.862V20.292C156.034 20.6 156.283 20.817 156.554 20.943C156.829 21.069 157.135 21.132 157.471 21.132C158.129 21.132 158.635 20.8963 158.99 20.425C159.345 19.9537 159.522 19.2817 159.522 18.409C159.522 17.947 159.48 17.5503 159.396 17.219C159.317 16.8877 159.2 16.617 159.046 16.407C158.892 16.1923 158.703 16.036 158.479 15.938C158.255 15.84 158.001 15.791 157.716 15.791ZM165.091 14.797C165.515 14.797 165.907 14.8693 166.267 15.014C166.626 15.154 166.936 15.3593 167.198 15.63C167.459 15.896 167.662 16.2273 167.807 16.624C167.956 17.016 168.031 17.464 168.031 17.968C168.031 18.164 168.01 18.2947 167.968 18.36C167.926 18.4253 167.846 18.458 167.73 18.458H163.012C163.021 18.906 163.082 19.2957 163.194 19.627C163.306 19.9583 163.46 20.236 163.656 20.46C163.852 20.6793 164.085 20.845 164.356 20.957C164.626 21.0643 164.93 21.118 165.266 21.118C165.578 21.118 165.847 21.083 166.071 21.013C166.299 20.9383 166.495 20.859 166.659 20.775C166.822 20.691 166.957 20.614 167.065 20.544C167.177 20.4693 167.272 20.432 167.352 20.432C167.454 20.432 167.534 20.4717 167.59 20.551L167.94 21.006C167.786 21.1927 167.601 21.356 167.387 21.496C167.172 21.6313 166.941 21.7433 166.694 21.832C166.451 21.9207 166.199 21.986 165.938 22.028C165.676 22.0747 165.417 22.098 165.161 22.098C164.671 22.098 164.218 22.0163 163.803 21.853C163.392 21.685 163.035 21.4423 162.732 21.125C162.433 20.803 162.2 20.4063 162.032 19.935C161.864 19.4637 161.78 18.9223 161.78 18.311C161.78 17.8163 161.854 17.3543 162.004 16.925C162.158 16.4957 162.377 16.1247 162.662 15.812C162.946 15.4947 163.294 15.2473 163.705 15.07C164.115 14.888 164.577 14.797 165.091 14.797ZM165.119 15.714C164.517 15.714 164.043 15.889 163.698 16.239C163.352 16.5843 163.138 17.065 163.054 17.681H166.911C166.911 17.3917 166.871 17.128 166.792 16.89C166.712 16.6473 166.596 16.4397 166.442 16.267C166.288 16.0897 166.099 15.9543 165.875 15.861C165.655 15.763 165.403 15.714 165.119 15.714ZM169.626 22V14.909H170.34C170.475 14.909 170.568 14.9347 170.62 14.986C170.671 15.0373 170.706 15.126 170.725 15.252L170.809 16.358C171.051 15.8633 171.35 15.4783 171.705 15.203C172.064 14.923 172.484 14.783 172.965 14.783C173.161 14.783 173.338 14.8063 173.497 14.853C173.655 14.895 173.802 14.9557 173.938 15.035L173.777 15.966C173.744 16.0827 173.672 16.141 173.56 16.141C173.494 16.141 173.394 16.12 173.259 16.078C173.123 16.0313 172.934 16.008 172.692 16.008C172.258 16.008 171.894 16.134 171.6 16.386C171.31 16.638 171.068 17.0043 170.872 17.485V22H169.626ZM175.552 22V15.973L174.768 15.882C174.67 15.8587 174.588 15.8237 174.523 15.777C174.462 15.7257 174.432 15.6533 174.432 15.56V15.049H175.552V14.363C175.552 13.957 175.608 13.5977 175.72 13.285C175.837 12.9677 176 12.7017 176.21 12.487C176.425 12.2677 176.681 12.102 176.98 11.99C177.279 11.878 177.615 11.822 177.988 11.822C178.305 11.822 178.599 11.8687 178.87 11.962L178.842 12.585C178.837 12.6783 178.798 12.7343 178.723 12.753C178.648 12.7717 178.543 12.781 178.408 12.781H178.191C177.976 12.781 177.78 12.809 177.603 12.865C177.43 12.921 177.281 13.012 177.155 13.138C177.029 13.264 176.931 13.4297 176.861 13.635C176.796 13.8403 176.763 14.0947 176.763 14.398V15.049H178.814V15.952H176.805V22H175.552ZM182.796 14.797C183.22 14.797 183.612 14.8693 183.972 15.014C184.331 15.154 184.641 15.3593 184.903 15.63C185.164 15.896 185.367 16.2273 185.512 16.624C185.661 17.016 185.736 17.464 185.736 17.968C185.736 18.164 185.715 18.2947 185.673 18.36C185.631 18.4253 185.551 18.458 185.435 18.458H180.717C180.726 18.906 180.787 19.2957 180.899 19.627C181.011 19.9583 181.165 20.236 181.361 20.46C181.557 20.6793 181.79 20.845 182.061 20.957C182.331 21.0643 182.635 21.118 182.971 21.118C183.283 21.118 183.552 21.083 183.776 21.013C184.004 20.9383 184.2 20.859 184.364 20.775C184.527 20.691 184.662 20.614 184.77 20.544C184.882 20.4693 184.977 20.432 185.057 20.432C185.159 20.432 185.239 20.4717 185.295 20.551L185.645 21.006C185.491 21.1927 185.306 21.356 185.092 21.496C184.877 21.6313 184.646 21.7433 184.399 21.832C184.156 21.9207 183.904 21.986 183.643 22.028C183.381 22.0747 183.122 22.098 182.866 22.098C182.376 22.098 181.923 22.0163 181.508 21.853C181.097 21.685 180.74 21.4423 180.437 21.125C180.138 20.803 179.905 20.4063 179.737 19.935C179.569 19.4637 179.485 18.9223 179.485 18.311C179.485 17.8163 179.559 17.3543 179.709 16.925C179.863 16.4957 180.082 16.1247 180.367 15.812C180.651 15.4947 180.999 15.2473 181.41 15.07C181.82 14.888 182.282 14.797 182.796 14.797ZM182.824 15.714C182.222 15.714 181.748 15.889 181.403 16.239C181.057 16.5843 180.843 17.065 180.759 17.681H184.616C184.616 17.3917 184.576 17.128 184.497 16.89C184.417 16.6473 184.301 16.4397 184.147 16.267C183.993 16.0897 183.804 15.9543 183.58 15.861C183.36 15.763 183.108 15.714 182.824 15.714ZM192.168 16.169C192.13 16.2203 192.093 16.26 192.056 16.288C192.018 16.316 191.965 16.33 191.895 16.33C191.825 16.33 191.748 16.302 191.664 16.246C191.584 16.1853 191.482 16.12 191.356 16.05C191.23 15.98 191.076 15.917 190.894 15.861C190.716 15.8003 190.497 15.77 190.236 15.77C189.89 15.77 189.585 15.833 189.319 15.959C189.053 16.0803 188.829 16.2577 188.647 16.491C188.469 16.7243 188.334 17.0067 188.241 17.338C188.152 17.6693 188.108 18.0403 188.108 18.451C188.108 18.8803 188.157 19.263 188.255 19.599C188.353 19.9303 188.49 20.2103 188.668 20.439C188.845 20.663 189.06 20.8357 189.312 20.957C189.568 21.0737 189.855 21.132 190.173 21.132C190.476 21.132 190.726 21.097 190.922 21.027C191.118 20.9523 191.281 20.8707 191.412 20.782C191.542 20.6933 191.65 20.614 191.734 20.544C191.818 20.4693 191.902 20.432 191.986 20.432C192.093 20.432 192.172 20.4717 192.224 20.551L192.574 21.006C192.266 21.384 191.881 21.6617 191.419 21.839C190.957 22.0117 190.469 22.098 189.956 22.098C189.512 22.098 189.099 22.0163 188.717 21.853C188.339 21.6897 188.01 21.454 187.73 21.146C187.45 20.8333 187.228 20.4507 187.065 19.998C186.906 19.5453 186.827 19.0297 186.827 18.451C186.827 17.9237 186.899 17.436 187.044 16.988C187.193 16.54 187.408 16.155 187.688 15.833C187.972 15.5063 188.322 15.252 188.738 15.07C189.153 14.888 189.629 14.797 190.166 14.797C190.66 14.797 191.099 14.8787 191.482 15.042C191.864 15.2007 192.203 15.427 192.497 15.721L192.168 16.169ZM196.015 22.112C195.455 22.112 195.023 21.9557 194.72 21.643C194.421 21.3303 194.272 20.88 194.272 20.292V15.952H193.418C193.343 15.952 193.28 15.931 193.229 15.889C193.177 15.8423 193.152 15.7723 193.152 15.679V15.182L194.314 15.035L194.601 12.844C194.61 12.774 194.64 12.718 194.692 12.676C194.743 12.6293 194.808 12.606 194.888 12.606H195.518V15.049H197.548V15.952H195.518V20.208C195.518 20.5067 195.59 20.7283 195.735 20.873C195.879 21.0177 196.066 21.09 196.295 21.09C196.425 21.09 196.537 21.0737 196.631 21.041C196.729 21.0037 196.813 20.964 196.883 20.922C196.953 20.88 197.011 20.8427 197.058 20.81C197.109 20.7727 197.153 20.754 197.191 20.754C197.256 20.754 197.314 20.7937 197.366 20.873L197.73 21.468C197.515 21.6687 197.256 21.8273 196.953 21.944C196.649 22.056 196.337 22.112 196.015 22.112ZM201.076 11.969V15.973C201.076 16.183 201.072 16.3883 201.062 16.589C201.058 16.7897 201.048 16.9927 201.034 17.198C201.02 17.3987 201.002 17.6063 200.978 17.821C200.96 18.031 200.936 18.2573 200.908 18.5H200.061C200.033 18.2573 200.008 18.031 199.984 17.821C199.966 17.6063 199.949 17.3987 199.935 17.198C199.921 16.9927 199.91 16.7897 199.9 16.589C199.896 16.3883 199.893 16.183 199.893 15.973V11.969H201.076ZM199.592 21.23C199.592 21.1087 199.613 20.9943 199.655 20.887C199.702 20.7797 199.763 20.6863 199.837 20.607C199.917 20.5277 200.01 20.4647 200.117 20.418C200.225 20.3713 200.339 20.348 200.46 20.348C200.582 20.348 200.696 20.3713 200.803 20.418C200.911 20.4647 201.004 20.5277 201.083 20.607C201.163 20.6863 201.223 20.7797 201.265 20.887C201.312 20.9943 201.335 21.1087 201.335 21.23C201.335 21.356 201.312 21.4727 201.265 21.58C201.223 21.6827 201.163 21.7737 201.083 21.853C201.004 21.9323 200.911 21.993 200.803 22.035C200.696 22.0817 200.582 22.105 200.46 22.105C200.339 22.105 200.225 22.0817 200.117 22.035C200.01 21.993 199.917 21.9323 199.837 21.853C199.763 21.7737 199.702 21.6827 199.655 21.58C199.613 21.4727 199.592 21.356 199.592 21.23Z" fill="#1A1C1D"/>
</svg>
