<svg width="239" height="34" viewBox="0 0 239 34" fill="none" xmlns="http://www.w3.org/2000/svg">
<rect width="34" height="34" rx="8" fill="#F8DE80"/>
<path d="M17.661 18.168C17.661 19.0107 17.5143 19.7893 17.221 20.504C16.933 21.2133 16.525 21.8293 15.997 22.352C15.469 22.8693 14.8317 23.2747 14.085 23.568C13.3437 23.856 12.5197 24 11.613 24H7.085V12.344H11.613C12.5197 12.344 13.3437 12.4907 14.085 12.784C14.8317 13.0773 15.469 13.4827 15.997 14C16.525 14.5173 16.933 15.1333 17.221 15.848C17.5143 16.5573 17.661 17.3307 17.661 18.168ZM14.893 18.168C14.893 17.592 14.8183 17.072 14.669 16.608C14.5197 16.144 14.3037 15.752 14.021 15.432C13.7437 15.1067 13.4023 14.8587 12.997 14.688C12.5917 14.512 12.1303 14.424 11.613 14.424H9.805V21.92H11.613C12.1303 21.92 12.5917 21.8347 12.997 21.664C13.4023 21.488 13.7437 21.24 14.021 20.92C14.3037 20.5947 14.5197 20.2 14.669 19.736C14.8183 19.272 14.893 18.7493 14.893 18.168ZM29.536 18.168C29.536 19.0107 29.3893 19.7893 29.096 20.504C28.808 21.2133 28.4 21.8293 27.872 22.352C27.344 22.8693 26.7067 23.2747 25.96 23.568C25.2187 23.856 24.3947 24 23.488 24H18.96V12.344H23.488C24.3947 12.344 25.2187 12.4907 25.96 12.784C26.7067 13.0773 27.344 13.4827 27.872 14C28.4 14.5173 28.808 15.1333 29.096 15.848C29.3893 16.5573 29.536 17.3307 29.536 18.168ZM26.768 18.168C26.768 17.592 26.6933 17.072 26.544 16.608C26.3947 16.144 26.1787 15.752 25.896 15.432C25.6187 15.1067 25.2773 14.8587 24.872 14.688C24.4667 14.512 24.0053 14.424 23.488 14.424H21.68V21.92H23.488C24.0053 21.92 24.4667 21.8347 24.872 21.664C25.2773 21.488 25.6187 21.24 25.896 20.92C26.1787 20.5947 26.3947 20.2 26.544 19.736C26.6933 19.272 26.768 18.7493 26.768 18.168Z" fill="white"/>
<path d="M42 0H222C231.389 0 239 7.61116 239 17V17C239 26.3888 231.389 34 222 34H60.5C50.2827 34 42 25.7173 42 15.5V0Z" fill="#F3F4F9"/>
<path d="M59.828 22H58.47V11.969H59.828V22ZM64.464 22.112C63.904 22.112 63.4723 21.9557 63.169 21.643C62.8703 21.3303 62.721 20.88 62.721 20.292V15.952H61.867C61.7923 15.952 61.7293 15.931 61.678 15.889C61.6266 15.8423 61.601 15.7723 61.601 15.679V15.182L62.763 15.035L63.05 12.844C63.0593 12.774 63.0896 12.718 63.141 12.676C63.1923 12.6293 63.2576 12.606 63.337 12.606H63.967V15.049H65.997V15.952H63.967V20.208C63.967 20.5067 64.0393 20.7283 64.184 20.873C64.3286 21.0177 64.5153 21.09 64.744 21.09C64.8746 21.09 64.9866 21.0737 65.08 21.041C65.178 21.0037 65.262 20.964 65.332 20.922C65.402 20.88 65.4603 20.8427 65.507 20.81C65.5583 20.7727 65.6026 20.754 65.64 20.754C65.7053 20.754 65.7636 20.7937 65.815 20.873L66.179 21.468C65.9643 21.6687 65.7053 21.8273 65.402 21.944C65.0986 22.056 64.786 22.112 64.464 22.112ZM68.6646 11.969V13.999L68.5526 15.084C68.5386 15.2333 68.499 15.35 68.4336 15.434C68.3683 15.5133 68.2633 15.553 68.1186 15.553C67.9973 15.553 67.9016 15.5133 67.8316 15.434C67.7663 15.35 67.7196 15.2333 67.6916 15.084L67.5796 13.999V11.969H68.6646ZM74.8242 16.078C74.7682 16.1807 74.6819 16.232 74.5652 16.232C74.4952 16.232 74.4159 16.2063 74.3272 16.155C74.2385 16.1037 74.1289 16.0477 73.9982 15.987C73.8722 15.9217 73.7205 15.8633 73.5432 15.812C73.3659 15.756 73.1559 15.728 72.9132 15.728C72.7032 15.728 72.5142 15.756 72.3462 15.812C72.1782 15.8633 72.0335 15.9357 71.9122 16.029C71.7955 16.1223 71.7045 16.232 71.6392 16.358C71.5785 16.4793 71.5482 16.6123 71.5482 16.757C71.5482 16.939 71.5995 17.0907 71.7022 17.212C71.8095 17.3333 71.9495 17.4383 72.1222 17.527C72.2949 17.6157 72.4909 17.695 72.7102 17.765C72.9295 17.8303 73.1535 17.9027 73.3822 17.982C73.6155 18.0567 73.8419 18.1407 74.0612 18.234C74.2805 18.3273 74.4765 18.444 74.6492 18.584C74.8219 18.724 74.9595 18.8967 75.0622 19.102C75.1695 19.3027 75.2232 19.5453 75.2232 19.83C75.2232 20.1567 75.1649 20.46 75.0482 20.74C74.9315 21.0153 74.7589 21.2557 74.5302 21.461C74.3015 21.6617 74.0215 21.8203 73.6902 21.937C73.3589 22.0537 72.9762 22.112 72.5422 22.112C72.0475 22.112 71.5995 22.0327 71.1982 21.874C70.7969 21.7107 70.4562 21.503 70.1762 21.251L70.4702 20.775C70.5075 20.7143 70.5519 20.6677 70.6032 20.635C70.6545 20.6023 70.7222 20.586 70.8062 20.586C70.8902 20.586 70.9789 20.6187 71.0722 20.684C71.1655 20.7493 71.2775 20.8217 71.4082 20.901C71.5435 20.9803 71.7045 21.0527 71.8912 21.118C72.0825 21.1833 72.3205 21.216 72.6052 21.216C72.8479 21.216 73.0602 21.1857 73.2422 21.125C73.4242 21.0597 73.5759 20.9733 73.6972 20.866C73.8185 20.7587 73.9072 20.635 73.9632 20.495C74.0239 20.355 74.0542 20.2057 74.0542 20.047C74.0542 19.851 74.0005 19.69 73.8932 19.564C73.7905 19.4333 73.6529 19.3237 73.4802 19.235C73.3075 19.1417 73.1092 19.0623 72.8852 18.997C72.6659 18.927 72.4395 18.8547 72.2062 18.78C71.9775 18.7053 71.7512 18.6213 71.5272 18.528C71.3079 18.43 71.1119 18.3087 70.9392 18.164C70.7665 18.0193 70.6265 17.842 70.5192 17.632C70.4165 17.4173 70.3652 17.1583 70.3652 16.855C70.3652 16.5843 70.4212 16.3253 70.5332 16.078C70.6452 15.826 70.8085 15.6067 71.0232 15.42C71.2379 15.2287 71.5015 15.077 71.8142 14.965C72.1269 14.853 72.4839 14.797 72.8852 14.797C73.3519 14.797 73.7695 14.8717 74.1382 15.021C74.5115 15.1657 74.8335 15.3663 75.1042 15.623L74.8242 16.078ZM84.3785 16.169C84.3412 16.2203 84.3039 16.26 84.2665 16.288C84.2292 16.316 84.1755 16.33 84.1055 16.33C84.0355 16.33 83.9585 16.302 83.8745 16.246C83.7952 16.1853 83.6925 16.12 83.5665 16.05C83.4405 15.98 83.2865 15.917 83.1045 15.861C82.9272 15.8003 82.7079 15.77 82.4465 15.77C82.1012 15.77 81.7955 15.833 81.5295 15.959C81.2635 16.0803 81.0395 16.2577 80.8575 16.491C80.6802 16.7243 80.5449 17.0067 80.4515 17.338C80.3629 17.6693 80.3185 18.0403 80.3185 18.451C80.3185 18.8803 80.3675 19.263 80.4655 19.599C80.5635 19.9303 80.7012 20.2103 80.8785 20.439C81.0559 20.663 81.2705 20.8357 81.5225 20.957C81.7792 21.0737 82.0662 21.132 82.3835 21.132C82.6869 21.132 82.9365 21.097 83.1325 21.027C83.3285 20.9523 83.4919 20.8707 83.6225 20.782C83.7532 20.6933 83.8605 20.614 83.9445 20.544C84.0285 20.4693 84.1125 20.432 84.1965 20.432C84.3039 20.432 84.3832 20.4717 84.4345 20.551L84.7845 21.006C84.4765 21.384 84.0915 21.6617 83.6295 21.839C83.1675 22.0117 82.6799 22.098 82.1665 22.098C81.7232 22.098 81.3102 22.0163 80.9275 21.853C80.5495 21.6897 80.2205 21.454 79.9405 21.146C79.6605 20.8333 79.4389 20.4507 79.2755 19.998C79.1169 19.5453 79.0375 19.0297 79.0375 18.451C79.0375 17.9237 79.1099 17.436 79.2545 16.988C79.4039 16.54 79.6185 16.155 79.8985 15.833C80.1832 15.5063 80.5332 15.252 80.9485 15.07C81.3639 14.888 81.8399 14.797 82.3765 14.797C82.8712 14.797 83.3099 14.8787 83.6925 15.042C84.0752 15.2007 84.4135 15.427 84.7075 15.721L84.3785 16.169ZM91.2847 22H90.7317C90.6104 22 90.5124 21.9813 90.4377 21.944C90.363 21.9067 90.314 21.8273 90.2907 21.706L90.1507 21.048C89.964 21.216 89.782 21.3677 89.6047 21.503C89.4274 21.6337 89.2407 21.7457 89.0447 21.839C88.8487 21.9277 88.6387 21.9953 88.4147 22.042C88.1954 22.0887 87.9504 22.112 87.6797 22.112C87.4044 22.112 87.1454 22.0747 86.9027 22C86.6647 21.9207 86.457 21.804 86.2797 21.65C86.1024 21.496 85.96 21.3023 85.8527 21.069C85.75 20.831 85.6987 20.551 85.6987 20.229C85.6987 19.949 85.7757 19.6807 85.9297 19.424C86.0837 19.1627 86.331 18.9317 86.6717 18.731C87.017 18.5303 87.4674 18.367 88.0227 18.241C88.578 18.1103 89.257 18.0357 90.0597 18.017V17.464C90.0597 16.9133 89.9407 16.498 89.7027 16.218C89.4694 15.9333 89.1217 15.791 88.6597 15.791C88.3564 15.791 88.0997 15.8307 87.8897 15.91C87.6844 15.9847 87.5047 16.071 87.3507 16.169C87.2014 16.2623 87.0707 16.3487 86.9587 16.428C86.8514 16.5027 86.744 16.54 86.6367 16.54C86.5527 16.54 86.478 16.519 86.4127 16.477C86.352 16.4303 86.303 16.3743 86.2657 16.309L86.0417 15.91C86.4337 15.532 86.856 15.2497 87.3087 15.063C87.7614 14.8763 88.263 14.783 88.8137 14.783C89.2104 14.783 89.5627 14.8483 89.8707 14.979C90.1787 15.1097 90.4377 15.2917 90.6477 15.525C90.8577 15.7583 91.0164 16.0407 91.1237 16.372C91.231 16.7033 91.2847 17.0673 91.2847 17.464V22ZM88.0507 21.237C88.27 21.237 88.4707 21.216 88.6527 21.174C88.8347 21.1273 89.005 21.0643 89.1637 20.985C89.327 20.901 89.481 20.8007 89.6257 20.684C89.775 20.5673 89.9197 20.4343 90.0597 20.285V18.808C89.4857 18.8267 88.998 18.8733 88.5967 18.948C88.1954 19.018 87.8687 19.1113 87.6167 19.228C87.3647 19.3447 87.1804 19.4823 87.0637 19.641C86.9517 19.7997 86.8957 19.977 86.8957 20.173C86.8957 20.3597 86.926 20.5207 86.9867 20.656C87.0474 20.7913 87.129 20.9033 87.2317 20.992C87.3344 21.076 87.4557 21.139 87.5957 21.181C87.7357 21.2183 87.8874 21.237 88.0507 21.237ZM94.5584 11.689V22H93.3124V11.689H94.5584ZM98.1404 11.689V22H96.8944V11.689H98.1404ZM103.143 14.797C103.568 14.797 103.96 14.8693 104.319 15.014C104.679 15.154 104.989 15.3593 105.25 15.63C105.512 15.896 105.715 16.2273 105.859 16.624C106.009 17.016 106.083 17.464 106.083 17.968C106.083 18.164 106.062 18.2947 106.02 18.36C105.978 18.4253 105.899 18.458 105.782 18.458H101.064C101.074 18.906 101.134 19.2957 101.246 19.627C101.358 19.9583 101.512 20.236 101.708 20.46C101.904 20.6793 102.138 20.845 102.408 20.957C102.679 21.0643 102.982 21.118 103.318 21.118C103.631 21.118 103.899 21.083 104.123 21.013C104.352 20.9383 104.548 20.859 104.711 20.775C104.875 20.691 105.01 20.614 105.117 20.544C105.229 20.4693 105.325 20.432 105.404 20.432C105.507 20.432 105.586 20.4717 105.642 20.551L105.992 21.006C105.838 21.1927 105.654 21.356 105.439 21.496C105.225 21.6313 104.994 21.7433 104.746 21.832C104.504 21.9207 104.252 21.986 103.99 22.028C103.729 22.0747 103.47 22.098 103.213 22.098C102.723 22.098 102.271 22.0163 101.855 21.853C101.445 21.685 101.088 21.4423 100.784 21.125C100.486 20.803 100.252 20.4063 100.084 19.935C99.9165 19.4637 99.8325 18.9223 99.8325 18.311C99.8325 17.8163 99.9071 17.3543 100.056 16.925C100.21 16.4957 100.43 16.1247 100.714 15.812C100.999 15.4947 101.347 15.2473 101.757 15.07C102.168 14.888 102.63 14.797 103.143 14.797ZM103.171 15.714C102.569 15.714 102.096 15.889 101.75 16.239C101.405 16.5843 101.19 17.065 101.106 17.681H104.963C104.963 17.3917 104.924 17.128 104.844 16.89C104.765 16.6473 104.648 16.4397 104.494 16.267C104.34 16.0897 104.151 15.9543 103.927 15.861C103.708 15.763 103.456 15.714 103.171 15.714ZM112.669 22C112.492 22 112.38 21.9137 112.333 21.741L112.221 20.88C111.918 21.2487 111.57 21.545 111.178 21.769C110.791 21.9883 110.345 22.098 109.841 22.098C109.435 22.098 109.067 22.021 108.735 21.867C108.404 21.7083 108.122 21.4773 107.888 21.174C107.655 20.8707 107.475 20.4927 107.349 20.04C107.223 19.5873 107.16 19.067 107.16 18.479C107.16 17.9563 107.23 17.471 107.37 17.023C107.51 16.5703 107.711 16.1783 107.972 15.847C108.238 15.5157 108.56 15.2567 108.938 15.07C109.316 14.8787 109.746 14.783 110.226 14.783C110.66 14.783 111.031 14.8577 111.339 15.007C111.647 15.1517 111.923 15.357 112.165 15.623V11.689H113.411V22H112.669ZM110.254 21.09C110.66 21.09 111.015 20.9967 111.318 20.81C111.626 20.6233 111.909 20.3597 112.165 20.019V16.589C111.937 16.281 111.685 16.0663 111.409 15.945C111.139 15.819 110.838 15.756 110.506 15.756C109.844 15.756 109.335 15.9917 108.98 16.463C108.626 16.9343 108.448 17.6063 108.448 18.479C108.448 18.941 108.488 19.3377 108.567 19.669C108.647 19.9957 108.763 20.2663 108.917 20.481C109.071 20.691 109.26 20.845 109.484 20.943C109.708 21.041 109.965 21.09 110.254 21.09ZM123.337 18.374C123.402 18.486 123.458 18.605 123.505 18.731C123.556 18.8523 123.605 18.976 123.652 19.102C123.698 18.9713 123.747 18.8477 123.799 18.731C123.85 18.6097 123.908 18.4883 123.974 18.367L127.369 12.2C127.429 12.0927 127.492 12.0273 127.558 12.004C127.623 11.9807 127.716 11.969 127.838 11.969H128.839V22H127.649V14.629C127.649 14.531 127.651 14.426 127.656 14.314C127.66 14.202 127.667 14.0877 127.677 13.971L124.24 20.243C124.123 20.453 123.96 20.558 123.75 20.558H123.554C123.344 20.558 123.18 20.453 123.064 20.243L119.55 13.95C119.564 14.0713 119.573 14.1903 119.578 14.307C119.587 14.4237 119.592 14.531 119.592 14.629V22H118.402V11.969H119.403C119.524 11.969 119.617 11.9807 119.683 12.004C119.748 12.0273 119.811 12.0927 119.872 12.2L123.337 18.374ZM132.471 14.909V22H131.225V14.909H132.471ZM132.751 12.683C132.751 12.8043 132.725 12.9187 132.674 13.026C132.627 13.1287 132.562 13.222 132.478 13.306C132.398 13.3853 132.305 13.4483 132.198 13.495C132.09 13.5417 131.976 13.565 131.855 13.565C131.733 13.565 131.619 13.5417 131.512 13.495C131.409 13.4483 131.316 13.3853 131.232 13.306C131.152 13.222 131.089 13.1287 131.043 13.026C130.996 12.9187 130.973 12.8043 130.973 12.683C130.973 12.5617 130.996 12.4473 131.043 12.34C131.089 12.228 131.152 12.1323 131.232 12.053C131.316 11.969 131.409 11.9037 131.512 11.857C131.619 11.8103 131.733 11.787 131.855 11.787C131.976 11.787 132.09 11.8103 132.198 11.857C132.305 11.9037 132.398 11.969 132.478 12.053C132.562 12.1323 132.627 12.228 132.674 12.34C132.725 12.4473 132.751 12.5617 132.751 12.683ZM134.667 22V14.909H135.409C135.586 14.909 135.698 14.9953 135.745 15.168L135.843 15.938C136.151 15.5973 136.494 15.322 136.872 15.112C137.254 14.902 137.695 14.797 138.195 14.797C138.582 14.797 138.923 14.8623 139.217 14.993C139.515 15.119 139.763 15.301 139.959 15.539C140.159 15.7723 140.311 16.0547 140.414 16.386C140.516 16.7173 140.568 17.0837 140.568 17.485V22H139.322V17.485C139.322 16.9483 139.198 16.533 138.951 16.239C138.708 15.9403 138.335 15.791 137.831 15.791C137.462 15.791 137.117 15.8797 136.795 16.057C136.477 16.2343 136.183 16.4747 135.913 16.778V22H134.667ZM143.832 14.909V22H142.586V14.909H143.832ZM144.112 12.683C144.112 12.8043 144.086 12.9187 144.035 13.026C143.988 13.1287 143.923 13.222 143.839 13.306C143.759 13.3853 143.666 13.4483 143.559 13.495C143.451 13.5417 143.337 13.565 143.216 13.565C143.094 13.565 142.98 13.5417 142.873 13.495C142.77 13.4483 142.677 13.3853 142.593 13.306C142.513 13.222 142.45 13.1287 142.404 13.026C142.357 12.9187 142.334 12.8043 142.334 12.683C142.334 12.5617 142.357 12.4473 142.404 12.34C142.45 12.228 142.513 12.1323 142.593 12.053C142.677 11.969 142.77 11.9037 142.873 11.857C142.98 11.8103 143.094 11.787 143.216 11.787C143.337 11.787 143.451 11.8103 143.559 11.857C143.666 11.9037 143.759 11.969 143.839 12.053C143.923 12.1323 143.988 12.228 144.035 12.34C144.086 12.4473 144.112 12.5617 144.112 12.683ZM146.028 22V14.909H146.77C146.947 14.909 147.059 14.9953 147.106 15.168L147.197 15.896C147.458 15.574 147.75 15.3103 148.072 15.105C148.399 14.8997 148.777 14.797 149.206 14.797C149.687 14.797 150.074 14.93 150.368 15.196C150.667 15.462 150.881 15.8213 151.012 16.274C151.11 16.0173 151.238 15.7957 151.397 15.609C151.56 15.4223 151.742 15.2683 151.943 15.147C152.144 15.0257 152.356 14.937 152.58 14.881C152.809 14.825 153.04 14.797 153.273 14.797C153.646 14.797 153.978 14.8577 154.267 14.979C154.561 15.0957 154.808 15.2683 155.009 15.497C155.214 15.7257 155.371 16.008 155.478 16.344C155.585 16.6753 155.639 17.0557 155.639 17.485V22H154.393V17.485C154.393 16.9297 154.272 16.5097 154.029 16.225C153.786 15.9357 153.434 15.791 152.972 15.791C152.767 15.791 152.571 15.8283 152.384 15.903C152.202 15.973 152.041 16.078 151.901 16.218C151.761 16.358 151.649 16.5353 151.565 16.75C151.486 16.96 151.446 17.205 151.446 17.485V22H150.2V17.485C150.2 16.9157 150.086 16.491 149.857 16.211C149.628 15.931 149.295 15.791 148.856 15.791C148.548 15.791 148.261 15.875 147.995 16.043C147.734 16.2063 147.493 16.4303 147.274 16.715V22H146.028ZM162.734 22H162.181C162.06 22 161.962 21.9813 161.887 21.944C161.812 21.9067 161.763 21.8273 161.74 21.706L161.6 21.048C161.413 21.216 161.231 21.3677 161.054 21.503C160.877 21.6337 160.69 21.7457 160.494 21.839C160.298 21.9277 160.088 21.9953 159.864 22.042C159.645 22.0887 159.4 22.112 159.129 22.112C158.854 22.112 158.595 22.0747 158.352 22C158.114 21.9207 157.906 21.804 157.729 21.65C157.552 21.496 157.409 21.3023 157.302 21.069C157.199 20.831 157.148 20.551 157.148 20.229C157.148 19.949 157.225 19.6807 157.379 19.424C157.533 19.1627 157.78 18.9317 158.121 18.731C158.466 18.5303 158.917 18.367 159.472 18.241C160.027 18.1103 160.706 18.0357 161.509 18.017V17.464C161.509 16.9133 161.39 16.498 161.152 16.218C160.919 15.9333 160.571 15.791 160.109 15.791C159.806 15.791 159.549 15.8307 159.339 15.91C159.134 15.9847 158.954 16.071 158.8 16.169C158.651 16.2623 158.52 16.3487 158.408 16.428C158.301 16.5027 158.193 16.54 158.086 16.54C158.002 16.54 157.927 16.519 157.862 16.477C157.801 16.4303 157.752 16.3743 157.715 16.309L157.491 15.91C157.883 15.532 158.305 15.2497 158.758 15.063C159.211 14.8763 159.712 14.783 160.263 14.783C160.66 14.783 161.012 14.8483 161.32 14.979C161.628 15.1097 161.887 15.2917 162.097 15.525C162.307 15.7583 162.466 16.0407 162.573 16.372C162.68 16.7033 162.734 17.0673 162.734 17.464V22ZM159.5 21.237C159.719 21.237 159.92 21.216 160.102 21.174C160.284 21.1273 160.454 21.0643 160.613 20.985C160.776 20.901 160.93 20.8007 161.075 20.684C161.224 20.5673 161.369 20.4343 161.509 20.285V18.808C160.935 18.8267 160.447 18.8733 160.046 18.948C159.645 19.018 159.318 19.1113 159.066 19.228C158.814 19.3447 158.63 19.4823 158.513 19.641C158.401 19.7997 158.345 19.977 158.345 20.173C158.345 20.3597 158.375 20.5207 158.436 20.656C158.497 20.7913 158.578 20.9033 158.681 20.992C158.784 21.076 158.905 21.139 159.045 21.181C159.185 21.2183 159.337 21.237 159.5 21.237ZM166.008 11.689V22H164.762V11.689H166.008ZM169.59 14.909V22H168.344V14.909H169.59ZM169.87 12.683C169.87 12.8043 169.844 12.9187 169.793 13.026C169.746 13.1287 169.681 13.222 169.597 13.306C169.517 13.3853 169.424 13.4483 169.317 13.495C169.209 13.5417 169.095 13.565 168.974 13.565C168.852 13.565 168.738 13.5417 168.631 13.495C168.528 13.4483 168.435 13.3853 168.351 13.306C168.271 13.222 168.208 13.1287 168.162 13.026C168.115 12.9187 168.092 12.8043 168.092 12.683C168.092 12.5617 168.115 12.4473 168.162 12.34C168.208 12.228 168.271 12.1323 168.351 12.053C168.435 11.969 168.528 11.9037 168.631 11.857C168.738 11.8103 168.852 11.787 168.974 11.787C169.095 11.787 169.209 11.8103 169.317 11.857C169.424 11.9037 169.517 11.969 169.597 12.053C169.681 12.1323 169.746 12.228 169.793 12.34C169.844 12.4473 169.87 12.5617 169.87 12.683ZM175.846 16.078C175.79 16.1807 175.703 16.232 175.587 16.232C175.517 16.232 175.437 16.2063 175.349 16.155C175.26 16.1037 175.15 16.0477 175.02 15.987C174.894 15.9217 174.742 15.8633 174.565 15.812C174.387 15.756 174.177 15.728 173.935 15.728C173.725 15.728 173.536 15.756 173.368 15.812C173.2 15.8633 173.055 15.9357 172.934 16.029C172.817 16.1223 172.726 16.232 172.661 16.358C172.6 16.4793 172.57 16.6123 172.57 16.757C172.57 16.939 172.621 17.0907 172.724 17.212C172.831 17.3333 172.971 17.4383 173.144 17.527C173.316 17.6157 173.512 17.695 173.732 17.765C173.951 17.8303 174.175 17.9027 174.404 17.982C174.637 18.0567 174.863 18.1407 175.083 18.234C175.302 18.3273 175.498 18.444 175.671 18.584C175.843 18.724 175.981 18.8967 176.084 19.102C176.191 19.3027 176.245 19.5453 176.245 19.83C176.245 20.1567 176.186 20.46 176.07 20.74C175.953 21.0153 175.78 21.2557 175.552 21.461C175.323 21.6617 175.043 21.8203 174.712 21.937C174.38 22.0537 173.998 22.112 173.564 22.112C173.069 22.112 172.621 22.0327 172.22 21.874C171.818 21.7107 171.478 21.503 171.198 21.251L171.492 20.775C171.529 20.7143 171.573 20.6677 171.625 20.635C171.676 20.6023 171.744 20.586 171.828 20.586C171.912 20.586 172 20.6187 172.094 20.684C172.187 20.7493 172.299 20.8217 172.43 20.901C172.565 20.9803 172.726 21.0527 172.913 21.118C173.104 21.1833 173.342 21.216 173.627 21.216C173.869 21.216 174.082 21.1857 174.264 21.125C174.446 21.0597 174.597 20.9733 174.719 20.866C174.84 20.7587 174.929 20.635 174.985 20.495C175.045 20.355 175.076 20.2057 175.076 20.047C175.076 19.851 175.022 19.69 174.915 19.564C174.812 19.4333 174.674 19.3237 174.502 19.235C174.329 19.1417 174.131 19.0623 173.907 18.997C173.687 18.927 173.461 18.8547 173.228 18.78C172.999 18.7053 172.773 18.6213 172.549 18.528C172.329 18.43 172.133 18.3087 171.961 18.164C171.788 18.0193 171.648 17.842 171.541 17.632C171.438 17.4173 171.387 17.1583 171.387 16.855C171.387 16.5843 171.443 16.3253 171.555 16.078C171.667 15.826 171.83 15.6067 172.045 15.42C172.259 15.2287 172.523 15.077 172.836 14.965C173.148 14.853 173.505 14.797 173.907 14.797C174.373 14.797 174.791 14.8717 175.16 15.021C175.533 15.1657 175.855 15.3663 176.126 15.623L175.846 16.078ZM180.005 22.112C179.445 22.112 179.013 21.9557 178.71 21.643C178.411 21.3303 178.262 20.88 178.262 20.292V15.952H177.408C177.333 15.952 177.27 15.931 177.219 15.889C177.168 15.8423 177.142 15.7723 177.142 15.679V15.182L178.304 15.035L178.591 12.844C178.6 12.774 178.631 12.718 178.682 12.676C178.733 12.6293 178.799 12.606 178.878 12.606H179.508V15.049H181.538V15.952H179.508V20.208C179.508 20.5067 179.58 20.7283 179.725 20.873C179.87 21.0177 180.056 21.09 180.285 21.09C180.416 21.09 180.528 21.0737 180.621 21.041C180.719 21.0037 180.803 20.964 180.873 20.922C180.943 20.88 181.001 20.8427 181.048 20.81C181.099 20.7727 181.144 20.754 181.181 20.754C181.246 20.754 181.305 20.7937 181.356 20.873L181.72 21.468C181.505 21.6687 181.246 21.8273 180.943 21.944C180.64 22.056 180.327 22.112 180.005 22.112ZM184.465 14.909V22H183.219V14.909H184.465ZM184.745 12.683C184.745 12.8043 184.719 12.9187 184.668 13.026C184.621 13.1287 184.556 13.222 184.472 13.306C184.392 13.3853 184.299 13.4483 184.192 13.495C184.084 13.5417 183.97 13.565 183.849 13.565C183.727 13.565 183.613 13.5417 183.506 13.495C183.403 13.4483 183.31 13.3853 183.226 13.306C183.146 13.222 183.083 13.1287 183.037 13.026C182.99 12.9187 182.967 12.8043 182.967 12.683C182.967 12.5617 182.99 12.4473 183.037 12.34C183.083 12.228 183.146 12.1323 183.226 12.053C183.31 11.969 183.403 11.9037 183.506 11.857C183.613 11.8103 183.727 11.787 183.849 11.787C183.97 11.787 184.084 11.8103 184.192 11.857C184.299 11.9037 184.392 11.969 184.472 12.053C184.556 12.1323 184.621 12.228 184.668 12.34C184.719 12.4473 184.745 12.5617 184.745 12.683ZM191.498 16.169C191.46 16.2203 191.423 16.26 191.386 16.288C191.348 16.316 191.295 16.33 191.225 16.33C191.155 16.33 191.078 16.302 190.994 16.246C190.914 16.1853 190.812 16.12 190.686 16.05C190.56 15.98 190.406 15.917 190.224 15.861C190.046 15.8003 189.827 15.77 189.566 15.77C189.22 15.77 188.915 15.833 188.649 15.959C188.383 16.0803 188.159 16.2577 187.977 16.491C187.799 16.7243 187.664 17.0067 187.571 17.338C187.482 17.6693 187.438 18.0403 187.438 18.451C187.438 18.8803 187.487 19.263 187.585 19.599C187.683 19.9303 187.82 20.2103 187.998 20.439C188.175 20.663 188.39 20.8357 188.642 20.957C188.898 21.0737 189.185 21.132 189.503 21.132C189.806 21.132 190.056 21.097 190.252 21.027C190.448 20.9523 190.611 20.8707 190.742 20.782C190.872 20.6933 190.98 20.614 191.064 20.544C191.148 20.4693 191.232 20.432 191.316 20.432C191.423 20.432 191.502 20.4717 191.554 20.551L191.904 21.006C191.596 21.384 191.211 21.6617 190.749 21.839C190.287 22.0117 189.799 22.098 189.286 22.098C188.842 22.098 188.429 22.0163 188.047 21.853C187.669 21.6897 187.34 21.454 187.06 21.146C186.78 20.8333 186.558 20.4507 186.395 19.998C186.236 19.5453 186.157 19.0297 186.157 18.451C186.157 17.9237 186.229 17.436 186.374 16.988C186.523 16.54 186.738 16.155 187.018 15.833C187.302 15.5063 187.652 15.252 188.068 15.07C188.483 14.888 188.959 14.797 189.496 14.797C189.99 14.797 190.429 14.8787 190.812 15.042C191.194 15.2007 191.533 15.427 191.827 15.721L191.498 16.169ZM202.931 11.969V13.11H199.69V22H198.332V13.11H195.077V11.969H202.931ZM203.04 22V14.909H203.754C203.889 14.909 203.982 14.9347 204.034 14.986C204.085 15.0373 204.12 15.126 204.139 15.252L204.223 16.358C204.465 15.8633 204.764 15.4783 205.119 15.203C205.478 14.923 205.898 14.783 206.379 14.783C206.575 14.783 206.752 14.8063 206.911 14.853C207.069 14.895 207.216 14.9557 207.352 15.035L207.191 15.966C207.158 16.0827 207.086 16.141 206.974 16.141C206.908 16.141 206.808 16.12 206.673 16.078C206.537 16.0313 206.348 16.008 206.106 16.008C205.672 16.008 205.308 16.134 205.014 16.386C204.724 16.638 204.482 17.0043 204.286 17.485V22H203.04ZM211.556 14.797C212.074 14.797 212.541 14.8833 212.956 15.056C213.376 15.2287 213.731 15.4737 214.02 15.791C214.314 16.1083 214.538 16.4933 214.692 16.946C214.851 17.394 214.93 17.8957 214.93 18.451C214.93 19.011 214.851 19.515 214.692 19.963C214.538 20.411 214.314 20.7937 214.02 21.111C213.731 21.4283 213.376 21.6733 212.956 21.846C212.541 22.014 212.074 22.098 211.556 22.098C211.038 22.098 210.569 22.014 210.149 21.846C209.734 21.6733 209.379 21.4283 209.085 21.111C208.791 20.7937 208.565 20.411 208.406 19.963C208.247 19.515 208.168 19.011 208.168 18.451C208.168 17.8957 208.247 17.394 208.406 16.946C208.565 16.4933 208.791 16.1083 209.085 15.791C209.379 15.4737 209.734 15.2287 210.149 15.056C210.569 14.8833 211.038 14.797 211.556 14.797ZM211.556 21.125C212.256 21.125 212.779 20.8917 213.124 20.425C213.469 19.9537 213.642 19.298 213.642 18.458C213.642 17.6133 213.469 16.9553 213.124 16.484C212.779 16.0127 212.256 15.777 211.556 15.777C211.201 15.777 210.893 15.8377 210.632 15.959C210.371 16.0803 210.151 16.2553 209.974 16.484C209.801 16.7127 209.671 16.995 209.582 17.331C209.498 17.6623 209.456 18.038 209.456 18.458C209.456 18.878 209.498 19.2537 209.582 19.585C209.671 19.9163 209.801 20.1963 209.974 20.425C210.151 20.649 210.371 20.8217 210.632 20.943C210.893 21.0643 211.201 21.125 211.556 21.125ZM216.465 22V14.909H217.207C217.385 14.909 217.497 14.9953 217.543 15.168L217.641 15.938C217.949 15.5973 218.292 15.322 218.67 15.112C219.053 14.902 219.494 14.797 219.993 14.797C220.381 14.797 220.721 14.8623 221.015 14.993C221.314 15.119 221.561 15.301 221.757 15.539C221.958 15.7723 222.11 16.0547 222.212 16.386C222.315 16.7173 222.366 17.0837 222.366 17.485V22H221.12V17.485C221.12 16.9483 220.997 16.533 220.749 16.239C220.507 15.9403 220.133 15.791 219.629 15.791C219.261 15.791 218.915 15.8797 218.593 16.057C218.276 16.2343 217.982 16.4747 217.711 16.778V22H216.465Z" fill="#1A1C1D"/>
</svg>
