<svg width="274" height="70" viewBox="0 0 274 70" fill="none" xmlns="http://www.w3.org/2000/svg">
<rect width="34" height="34" rx="8" fill="#F8DE80"/>
<path d="M17.661 18.168C17.661 19.0107 17.5143 19.7893 17.221 20.504C16.933 21.2133 16.525 21.8293 15.997 22.352C15.469 22.8693 14.8317 23.2747 14.085 23.568C13.3437 23.856 12.5197 24 11.613 24H7.085V12.344H11.613C12.5197 12.344 13.3437 12.4907 14.085 12.784C14.8317 13.0773 15.469 13.4827 15.997 14C16.525 14.5173 16.933 15.1333 17.221 15.848C17.5143 16.5573 17.661 17.3307 17.661 18.168ZM14.893 18.168C14.893 17.592 14.8183 17.072 14.669 16.608C14.5197 16.144 14.3037 15.752 14.021 15.432C13.7437 15.1067 13.4023 14.8587 12.997 14.688C12.5917 14.512 12.1303 14.424 11.613 14.424H9.805V21.92H11.613C12.1303 21.92 12.5917 21.8347 12.997 21.664C13.4023 21.488 13.7437 21.24 14.021 20.92C14.3037 20.5947 14.5197 20.2 14.669 19.736C14.8183 19.272 14.893 18.7493 14.893 18.168ZM29.536 18.168C29.536 19.0107 29.3893 19.7893 29.096 20.504C28.808 21.2133 28.4 21.8293 27.872 22.352C27.344 22.8693 26.7067 23.2747 25.96 23.568C25.2187 23.856 24.3947 24 23.488 24H18.96V12.344H23.488C24.3947 12.344 25.2187 12.4907 25.96 12.784C26.7067 13.0773 27.344 13.4827 27.872 14C28.4 14.5173 28.808 15.1333 29.096 15.848C29.3893 16.5573 29.536 17.3307 29.536 18.168ZM26.768 18.168C26.768 17.592 26.6933 17.072 26.544 16.608C26.3947 16.144 26.1787 15.752 25.896 15.432C25.6187 15.1067 25.2773 14.8587 24.872 14.688C24.4667 14.512 24.0053 14.424 23.488 14.424H21.68V21.92H23.488C24.0053 21.92 24.4667 21.8347 24.872 21.664C25.2773 21.488 25.6187 21.24 25.896 20.92C26.1787 20.5947 26.3947 20.2 26.544 19.736C26.6933 19.272 26.768 18.7493 26.768 18.168Z" fill="white"/>
<path d="M42 18.5C42 8.28273 50.2827 0 60.5 0H255.5C265.717 0 274 8.28273 274 18.5V35.5C274 45.7173 265.717 54 255.5 54H42V18.5Z" fill="#F3F4F9"/>
<path d="M66.352 22H64.987V17.436H59.583V22H58.218V11.969H59.583V16.442H64.987V11.969H66.352V22ZM71.411 14.797C71.8357 14.797 72.2277 14.8693 72.587 15.014C72.9464 15.154 73.2567 15.3593 73.518 15.63C73.7794 15.896 73.9824 16.2273 74.127 16.624C74.2764 17.016 74.351 17.464 74.351 17.968C74.351 18.164 74.33 18.2947 74.288 18.36C74.246 18.4253 74.1667 18.458 74.05 18.458H69.332C69.3414 18.906 69.402 19.2957 69.514 19.627C69.626 19.9583 69.78 20.236 69.976 20.46C70.172 20.6793 70.4054 20.845 70.676 20.957C70.9467 21.0643 71.25 21.118 71.586 21.118C71.8987 21.118 72.167 21.083 72.391 21.013C72.6197 20.9383 72.8157 20.859 72.979 20.775C73.1424 20.691 73.2777 20.614 73.385 20.544C73.497 20.4693 73.5927 20.432 73.672 20.432C73.7747 20.432 73.854 20.4717 73.91 20.551L74.26 21.006C74.106 21.1927 73.9217 21.356 73.707 21.496C73.4924 21.6313 73.2614 21.7433 73.014 21.832C72.7714 21.9207 72.5194 21.986 72.258 22.028C71.9967 22.0747 71.7377 22.098 71.481 22.098C70.991 22.098 70.5384 22.0163 70.123 21.853C69.7124 21.685 69.3554 21.4423 69.052 21.125C68.7534 20.803 68.52 20.4063 68.352 19.935C68.184 19.4637 68.1 18.9223 68.1 18.311C68.1 17.8163 68.1747 17.3543 68.324 16.925C68.478 16.4957 68.6974 16.1247 68.982 15.812C69.2667 15.4947 69.6144 15.2473 70.025 15.07C70.4357 14.888 70.8977 14.797 71.411 14.797ZM71.439 15.714C70.837 15.714 70.3634 15.889 70.018 16.239C69.6727 16.5843 69.458 17.065 69.374 17.681H73.231C73.231 17.3917 73.1914 17.128 73.112 16.89C73.0327 16.6473 72.916 16.4397 72.762 16.267C72.608 16.0897 72.419 15.9543 72.195 15.861C71.9757 15.763 71.7237 15.714 71.439 15.714ZM77.3318 11.689V22H76.0858V11.689H77.3318ZM80.9139 11.689V22H79.6679V11.689H80.9139ZM85.9799 14.797C86.4979 14.797 86.9646 14.8833 87.3799 15.056C87.7999 15.2287 88.1546 15.4737 88.4439 15.791C88.7379 16.1083 88.9619 16.4933 89.1159 16.946C89.2746 17.394 89.3539 17.8957 89.3539 18.451C89.3539 19.011 89.2746 19.515 89.1159 19.963C88.9619 20.411 88.7379 20.7937 88.4439 21.111C88.1546 21.4283 87.7999 21.6733 87.3799 21.846C86.9646 22.014 86.4979 22.098 85.9799 22.098C85.4619 22.098 84.9929 22.014 84.5729 21.846C84.1576 21.6733 83.8029 21.4283 83.5089 21.111C83.2149 20.7937 82.9886 20.411 82.8299 19.963C82.6712 19.515 82.5919 19.011 82.5919 18.451C82.5919 17.8957 82.6712 17.394 82.8299 16.946C82.9886 16.4933 83.2149 16.1083 83.5089 15.791C83.8029 15.4737 84.1576 15.2287 84.5729 15.056C84.9929 14.8833 85.4619 14.797 85.9799 14.797ZM85.9799 21.125C86.6799 21.125 87.2026 20.8917 87.5479 20.425C87.8932 19.9537 88.0659 19.298 88.0659 18.458C88.0659 17.6133 87.8932 16.9553 87.5479 16.484C87.2026 16.0127 86.6799 15.777 85.9799 15.777C85.6252 15.777 85.3172 15.8377 85.0559 15.959C84.7946 16.0803 84.5752 16.2553 84.3979 16.484C84.2252 16.7127 84.0946 16.995 84.0059 17.331C83.9219 17.6623 83.8799 18.038 83.8799 18.458C83.8799 18.878 83.9219 19.2537 84.0059 19.585C84.0946 19.9163 84.2252 20.1963 84.3979 20.425C84.5752 20.649 84.7946 20.8217 85.0559 20.943C85.3172 21.0643 85.6252 21.125 85.9799 21.125ZM90.5252 21.139C90.5252 21.0317 90.5439 20.9313 90.5812 20.838C90.6232 20.74 90.6792 20.656 90.7492 20.586C90.8239 20.5113 90.9125 20.453 91.0152 20.411C91.1179 20.369 91.2299 20.348 91.3512 20.348C91.4912 20.348 91.6149 20.3737 91.7222 20.425C91.8342 20.4763 91.9252 20.5487 91.9952 20.642C92.0699 20.7307 92.1259 20.8357 92.1632 20.957C92.2005 21.0737 92.2192 21.202 92.2192 21.342C92.2192 21.552 92.1889 21.7713 92.1282 22C92.0675 22.224 91.9812 22.4457 91.8692 22.665C91.7572 22.889 91.6172 23.106 91.4492 23.316C91.2859 23.526 91.0992 23.7197 90.8892 23.897L90.6792 23.694C90.6185 23.638 90.5882 23.5727 90.5882 23.498C90.5882 23.4373 90.6209 23.3743 90.6862 23.309C90.7329 23.2577 90.7912 23.1877 90.8612 23.099C90.9359 23.015 91.0105 22.917 91.0852 22.805C91.1599 22.693 91.2275 22.5693 91.2882 22.434C91.3535 22.2987 91.4002 22.154 91.4282 22H91.3372C91.2159 22 91.1062 21.979 91.0082 21.937C90.9102 21.895 90.8239 21.8367 90.7492 21.762C90.6792 21.6827 90.6232 21.5917 90.5812 21.489C90.5439 21.3817 90.5252 21.265 90.5252 21.139ZM101.554 22C101.377 22 101.265 21.9137 101.218 21.741L101.106 20.88C100.803 21.2487 100.455 21.545 100.063 21.769C99.6757 21.9883 99.23 22.098 98.726 22.098C98.32 22.098 97.9513 22.021 97.62 21.867C97.2887 21.7083 97.0063 21.4773 96.773 21.174C96.5397 20.8707 96.36 20.4927 96.234 20.04C96.108 19.5873 96.045 19.067 96.045 18.479C96.045 17.9563 96.115 17.471 96.255 17.023C96.395 16.5703 96.5957 16.1783 96.857 15.847C97.123 15.5157 97.445 15.2567 97.823 15.07C98.201 14.8787 98.6303 14.783 99.111 14.783C99.545 14.783 99.916 14.8577 100.224 15.007C100.532 15.1517 100.807 15.357 101.05 15.623V11.689H102.296V22H101.554ZM99.139 21.09C99.545 21.09 99.8997 20.9967 100.203 20.81C100.511 20.6233 100.793 20.3597 101.05 20.019V16.589C100.821 16.281 100.569 16.0663 100.294 15.945C100.023 15.819 99.7223 15.756 99.391 15.756C98.7283 15.756 98.2197 15.9917 97.865 16.463C97.5103 16.9343 97.333 17.6063 97.333 18.479C97.333 18.941 97.3727 19.3377 97.452 19.669C97.5313 19.9957 97.648 20.2663 97.802 20.481C97.956 20.691 98.145 20.845 98.369 20.943C98.593 21.041 98.8497 21.09 99.139 21.09ZM107.253 14.797C107.771 14.797 108.238 14.8833 108.653 15.056C109.073 15.2287 109.428 15.4737 109.717 15.791C110.011 16.1083 110.235 16.4933 110.389 16.946C110.548 17.394 110.627 17.8957 110.627 18.451C110.627 19.011 110.548 19.515 110.389 19.963C110.235 20.411 110.011 20.7937 109.717 21.111C109.428 21.4283 109.073 21.6733 108.653 21.846C108.238 22.014 107.771 22.098 107.253 22.098C106.735 22.098 106.266 22.014 105.846 21.846C105.431 21.6733 105.076 21.4283 104.782 21.111C104.488 20.7937 104.262 20.411 104.103 19.963C103.945 19.515 103.865 19.011 103.865 18.451C103.865 17.8957 103.945 17.394 104.103 16.946C104.262 16.4933 104.488 16.1083 104.782 15.791C105.076 15.4737 105.431 15.2287 105.846 15.056C106.266 14.8833 106.735 14.797 107.253 14.797ZM107.253 21.125C107.953 21.125 108.476 20.8917 108.821 20.425C109.167 19.9537 109.339 19.298 109.339 18.458C109.339 17.6133 109.167 16.9553 108.821 16.484C108.476 16.0127 107.953 15.777 107.253 15.777C106.899 15.777 106.591 15.8377 106.329 15.959C106.068 16.0803 105.849 16.2553 105.671 16.484C105.499 16.7127 105.368 16.995 105.279 17.331C105.195 17.6623 105.153 18.038 105.153 18.458C105.153 18.878 105.195 19.2537 105.279 19.585C105.368 19.9163 105.499 20.1963 105.671 20.425C105.849 20.649 106.068 20.8217 106.329 20.943C106.591 21.0643 106.899 21.125 107.253 21.125ZM116.949 24.093C116.907 24.1863 116.853 24.261 116.788 24.317C116.727 24.373 116.631 24.401 116.501 24.401H115.577L116.872 21.587L113.946 14.909H115.024C115.131 14.909 115.215 14.937 115.276 14.993C115.336 15.0443 115.381 15.1027 115.409 15.168L117.306 19.634C117.348 19.7367 117.383 19.8393 117.411 19.942C117.443 20.0447 117.471 20.1497 117.495 20.257C117.527 20.1497 117.56 20.0447 117.593 19.942C117.625 19.8393 117.663 19.7343 117.705 19.627L119.546 15.168C119.574 15.0933 119.62 15.0327 119.686 14.986C119.756 14.9347 119.83 14.909 119.91 14.909H120.904L116.949 24.093ZM124.726 14.797C125.244 14.797 125.711 14.8833 126.126 15.056C126.546 15.2287 126.901 15.4737 127.19 15.791C127.484 16.1083 127.708 16.4933 127.862 16.946C128.021 17.394 128.1 17.8957 128.1 18.451C128.1 19.011 128.021 19.515 127.862 19.963C127.708 20.411 127.484 20.7937 127.19 21.111C126.901 21.4283 126.546 21.6733 126.126 21.846C125.711 22.014 125.244 22.098 124.726 22.098C124.208 22.098 123.739 22.014 123.319 21.846C122.904 21.6733 122.549 21.4283 122.255 21.111C121.961 20.7937 121.735 20.411 121.576 19.963C121.417 19.515 121.338 19.011 121.338 18.451C121.338 17.8957 121.417 17.394 121.576 16.946C121.735 16.4933 121.961 16.1083 122.255 15.791C122.549 15.4737 122.904 15.2287 123.319 15.056C123.739 14.8833 124.208 14.797 124.726 14.797ZM124.726 21.125C125.426 21.125 125.949 20.8917 126.294 20.425C126.639 19.9537 126.812 19.298 126.812 18.458C126.812 17.6133 126.639 16.9553 126.294 16.484C125.949 16.0127 125.426 15.777 124.726 15.777C124.371 15.777 124.063 15.8377 123.802 15.959C123.541 16.0803 123.321 16.2553 123.144 16.484C122.971 16.7127 122.841 16.995 122.752 17.331C122.668 17.6623 122.626 18.038 122.626 18.458C122.626 18.878 122.668 19.2537 122.752 19.585C122.841 19.9163 122.971 20.1963 123.144 20.425C123.321 20.649 123.541 20.8217 123.802 20.943C124.063 21.0643 124.371 21.125 124.726 21.125ZM130.713 14.909V19.431C130.713 19.9677 130.837 20.383 131.084 20.677C131.332 20.971 131.705 21.118 132.204 21.118C132.568 21.118 132.911 21.0317 133.233 20.859C133.555 20.6863 133.852 20.446 134.122 20.138V14.909H135.368V22H134.626C134.449 22 134.337 21.9137 134.29 21.741L134.192 20.978C133.884 21.3187 133.539 21.594 133.156 21.804C132.774 22.0093 132.335 22.112 131.84 22.112C131.453 22.112 131.11 22.049 130.811 21.923C130.517 21.7923 130.27 21.6103 130.069 21.377C129.869 21.1437 129.717 20.8613 129.614 20.53C129.516 20.1987 129.467 19.8323 129.467 19.431V14.909H130.713ZM144.182 16.078C144.126 16.1807 144.039 16.232 143.923 16.232C143.853 16.232 143.773 16.2063 143.685 16.155C143.596 16.1037 143.486 16.0477 143.356 15.987C143.23 15.9217 143.078 15.8633 142.901 15.812C142.723 15.756 142.513 15.728 142.271 15.728C142.061 15.728 141.872 15.756 141.704 15.812C141.536 15.8633 141.391 15.9357 141.27 16.029C141.153 16.1223 141.062 16.232 140.997 16.358C140.936 16.4793 140.906 16.6123 140.906 16.757C140.906 16.939 140.957 17.0907 141.06 17.212C141.167 17.3333 141.307 17.4383 141.48 17.527C141.652 17.6157 141.848 17.695 142.068 17.765C142.287 17.8303 142.511 17.9027 142.74 17.982C142.973 18.0567 143.199 18.1407 143.419 18.234C143.638 18.3273 143.834 18.444 144.007 18.584C144.179 18.724 144.317 18.8967 144.42 19.102C144.527 19.3027 144.581 19.5453 144.581 19.83C144.581 20.1567 144.522 20.46 144.406 20.74C144.289 21.0153 144.116 21.2557 143.888 21.461C143.659 21.6617 143.379 21.8203 143.048 21.937C142.716 22.0537 142.334 22.112 141.9 22.112C141.405 22.112 140.957 22.0327 140.556 21.874C140.154 21.7107 139.814 21.503 139.534 21.251L139.828 20.775C139.865 20.7143 139.909 20.6677 139.961 20.635C140.012 20.6023 140.08 20.586 140.164 20.586C140.248 20.586 140.336 20.6187 140.43 20.684C140.523 20.7493 140.635 20.8217 140.766 20.901C140.901 20.9803 141.062 21.0527 141.249 21.118C141.44 21.1833 141.678 21.216 141.963 21.216C142.205 21.216 142.418 21.1857 142.6 21.125C142.782 21.0597 142.933 20.9733 143.055 20.866C143.176 20.7587 143.265 20.635 143.321 20.495C143.381 20.355 143.412 20.2057 143.412 20.047C143.412 19.851 143.358 19.69 143.251 19.564C143.148 19.4333 143.01 19.3237 142.838 19.235C142.665 19.1417 142.467 19.0623 142.243 18.997C142.023 18.927 141.797 18.8547 141.564 18.78C141.335 18.7053 141.109 18.6213 140.885 18.528C140.665 18.43 140.469 18.3087 140.297 18.164C140.124 18.0193 139.984 17.842 139.877 17.632C139.774 17.4173 139.723 17.1583 139.723 16.855C139.723 16.5843 139.779 16.3253 139.891 16.078C140.003 15.826 140.166 15.6067 140.381 15.42C140.595 15.2287 140.859 15.077 141.172 14.965C141.484 14.853 141.841 14.797 142.243 14.797C142.709 14.797 143.127 14.8717 143.496 15.021C143.869 15.1657 144.191 15.3663 144.462 15.623L144.182 16.078ZM148.341 22.112C147.781 22.112 147.349 21.9557 147.046 21.643C146.747 21.3303 146.598 20.88 146.598 20.292V15.952H145.744C145.669 15.952 145.606 15.931 145.555 15.889C145.504 15.8423 145.478 15.7723 145.478 15.679V15.182L146.64 15.035L146.927 12.844C146.936 12.774 146.967 12.718 147.018 12.676C147.069 12.6293 147.135 12.606 147.214 12.606H147.844V15.049H149.874V15.952H147.844V20.208C147.844 20.5067 147.916 20.7283 148.061 20.873C148.206 21.0177 148.392 21.09 148.621 21.09C148.752 21.09 148.864 21.0737 148.957 21.041C149.055 21.0037 149.139 20.964 149.209 20.922C149.279 20.88 149.337 20.8427 149.384 20.81C149.435 20.7727 149.48 20.754 149.517 20.754C149.582 20.754 149.641 20.7937 149.692 20.873L150.056 21.468C149.841 21.6687 149.582 21.8273 149.279 21.944C148.976 22.056 148.663 22.112 148.341 22.112ZM152.801 14.909V22H151.555V14.909H152.801ZM153.081 12.683C153.081 12.8043 153.055 12.9187 153.004 13.026C152.957 13.1287 152.892 13.222 152.808 13.306C152.728 13.3853 152.635 13.4483 152.528 13.495C152.42 13.5417 152.306 13.565 152.185 13.565C152.063 13.565 151.949 13.5417 151.842 13.495C151.739 13.4483 151.646 13.3853 151.562 13.306C151.482 13.222 151.419 13.1287 151.373 13.026C151.326 12.9187 151.303 12.8043 151.303 12.683C151.303 12.5617 151.326 12.4473 151.373 12.34C151.419 12.228 151.482 12.1323 151.562 12.053C151.646 11.969 151.739 11.9037 151.842 11.857C151.949 11.8103 152.063 11.787 152.185 11.787C152.306 11.787 152.42 11.8103 152.528 11.857C152.635 11.9037 152.728 11.969 152.808 12.053C152.892 12.1323 152.957 12.228 153.004 12.34C153.055 12.4473 153.081 12.5617 153.081 12.683ZM156.383 11.689V22H155.137V11.689H156.383ZM159.965 11.689V22H158.719V11.689H159.965ZM164.868 22V11.689H166.114V15.861C166.417 15.539 166.753 15.2823 167.122 15.091C167.49 14.895 167.915 14.797 168.396 14.797C168.783 14.797 169.124 14.8623 169.418 14.993C169.716 15.119 169.964 15.301 170.16 15.539C170.36 15.7723 170.512 16.0547 170.615 16.386C170.717 16.7173 170.769 17.0837 170.769 17.485V22H169.523V17.485C169.523 16.9483 169.399 16.533 169.152 16.239C168.909 15.9403 168.536 15.791 168.032 15.791C167.663 15.791 167.318 15.8797 166.996 16.057C166.678 16.2343 166.384 16.4747 166.114 16.778V22H164.868ZM177.855 22H177.302C177.181 22 177.083 21.9813 177.008 21.944C176.933 21.9067 176.884 21.8273 176.861 21.706L176.721 21.048C176.534 21.216 176.352 21.3677 176.175 21.503C175.998 21.6337 175.811 21.7457 175.615 21.839C175.419 21.9277 175.209 21.9953 174.985 22.042C174.766 22.0887 174.521 22.112 174.25 22.112C173.975 22.112 173.716 22.0747 173.473 22C173.235 21.9207 173.027 21.804 172.85 21.65C172.673 21.496 172.53 21.3023 172.423 21.069C172.32 20.831 172.269 20.551 172.269 20.229C172.269 19.949 172.346 19.6807 172.5 19.424C172.654 19.1627 172.901 18.9317 173.242 18.731C173.587 18.5303 174.038 18.367 174.593 18.241C175.148 18.1103 175.827 18.0357 176.63 18.017V17.464C176.63 16.9133 176.511 16.498 176.273 16.218C176.04 15.9333 175.692 15.791 175.23 15.791C174.927 15.791 174.67 15.8307 174.46 15.91C174.255 15.9847 174.075 16.071 173.921 16.169C173.772 16.2623 173.641 16.3487 173.529 16.428C173.422 16.5027 173.314 16.54 173.207 16.54C173.123 16.54 173.048 16.519 172.983 16.477C172.922 16.4303 172.873 16.3743 172.836 16.309L172.612 15.91C173.004 15.532 173.426 15.2497 173.879 15.063C174.332 14.8763 174.833 14.783 175.384 14.783C175.781 14.783 176.133 14.8483 176.441 14.979C176.749 15.1097 177.008 15.2917 177.218 15.525C177.428 15.7583 177.587 16.0407 177.694 16.372C177.801 16.7033 177.855 17.0673 177.855 17.464V22ZM174.621 21.237C174.84 21.237 175.041 21.216 175.223 21.174C175.405 21.1273 175.575 21.0643 175.734 20.985C175.897 20.901 176.051 20.8007 176.196 20.684C176.345 20.5673 176.49 20.4343 176.63 20.285V18.808C176.056 18.8267 175.568 18.8733 175.167 18.948C174.766 19.018 174.439 19.1113 174.187 19.228C173.935 19.3447 173.751 19.4823 173.634 19.641C173.522 19.7997 173.466 19.977 173.466 20.173C173.466 20.3597 173.496 20.5207 173.557 20.656C173.618 20.7913 173.699 20.9033 173.802 20.992C173.905 21.076 174.026 21.139 174.166 21.181C174.306 21.2183 174.458 21.237 174.621 21.237ZM178.628 14.909H179.65C179.748 14.909 179.83 14.9347 179.895 14.986C179.96 15.0373 180.007 15.098 180.035 15.168L181.834 19.732C181.899 19.9 181.951 20.068 181.988 20.236C182.025 20.404 182.06 20.5697 182.093 20.733C182.13 20.5697 182.17 20.404 182.212 20.236C182.254 20.068 182.308 19.9 182.373 19.732L184.193 15.168C184.221 15.0933 184.265 15.0327 184.326 14.986C184.391 14.9347 184.471 14.909 184.564 14.909H185.537L182.646 22H181.519L178.628 14.909ZM189.317 14.797C189.742 14.797 190.134 14.8693 190.493 15.014C190.853 15.154 191.163 15.3593 191.424 15.63C191.686 15.896 191.889 16.2273 192.033 16.624C192.183 17.016 192.257 17.464 192.257 17.968C192.257 18.164 192.236 18.2947 192.194 18.36C192.152 18.4253 192.073 18.458 191.956 18.458H187.238C187.248 18.906 187.308 19.2957 187.42 19.627C187.532 19.9583 187.686 20.236 187.882 20.46C188.078 20.6793 188.312 20.845 188.582 20.957C188.853 21.0643 189.156 21.118 189.492 21.118C189.805 21.118 190.073 21.083 190.297 21.013C190.526 20.9383 190.722 20.859 190.885 20.775C191.049 20.691 191.184 20.614 191.291 20.544C191.403 20.4693 191.499 20.432 191.578 20.432C191.681 20.432 191.76 20.4717 191.816 20.551L192.166 21.006C192.012 21.1927 191.828 21.356 191.613 21.496C191.399 21.6313 191.168 21.7433 190.92 21.832C190.678 21.9207 190.426 21.986 190.164 22.028C189.903 22.0747 189.644 22.098 189.387 22.098C188.897 22.098 188.445 22.0163 188.029 21.853C187.619 21.685 187.262 21.4423 186.958 21.125C186.66 20.803 186.426 20.4063 186.258 19.935C186.09 19.4637 186.006 18.9223 186.006 18.311C186.006 17.8163 186.081 17.3543 186.23 16.925C186.384 16.4957 186.604 16.1247 186.888 15.812C187.173 15.4947 187.521 15.2473 187.931 15.07C188.342 14.888 188.804 14.797 189.317 14.797ZM189.345 15.714C188.743 15.714 188.27 15.889 187.924 16.239C187.579 16.5843 187.364 17.065 187.28 17.681H191.137C191.137 17.3917 191.098 17.128 191.018 16.89C190.939 16.6473 190.822 16.4397 190.668 16.267C190.514 16.0897 190.325 15.9543 190.101 15.861C189.882 15.763 189.63 15.714 189.345 15.714ZM198.708 22.112C198.148 22.112 197.716 21.9557 197.413 21.643C197.114 21.3303 196.965 20.88 196.965 20.292V15.952H196.111C196.036 15.952 195.973 15.931 195.922 15.889C195.871 15.8423 195.845 15.7723 195.845 15.679V15.182L197.007 15.035L197.294 12.844C197.303 12.774 197.334 12.718 197.385 12.676C197.436 12.6293 197.502 12.606 197.581 12.606H198.211V15.049H200.241V15.952H198.211V20.208C198.211 20.5067 198.283 20.7283 198.428 20.873C198.573 21.0177 198.759 21.09 198.988 21.09C199.119 21.09 199.231 21.0737 199.324 21.041C199.422 21.0037 199.506 20.964 199.576 20.922C199.646 20.88 199.704 20.8427 199.751 20.81C199.802 20.7727 199.847 20.754 199.884 20.754C199.949 20.754 200.008 20.7937 200.059 20.873L200.423 21.468C200.208 21.6687 199.949 21.8273 199.646 21.944C199.343 22.056 199.03 22.112 198.708 22.112ZM201.782 22V11.689H203.028V15.861C203.331 15.539 203.667 15.2823 204.036 15.091C204.404 14.895 204.829 14.797 205.31 14.797C205.697 14.797 206.038 14.8623 206.332 14.993C206.63 15.119 206.878 15.301 207.074 15.539C207.274 15.7723 207.426 16.0547 207.529 16.386C207.631 16.7173 207.683 17.0837 207.683 17.485V22H206.437V17.485C206.437 16.9483 206.313 16.533 206.066 16.239C205.823 15.9403 205.45 15.791 204.946 15.791C204.577 15.791 204.232 15.8797 203.91 16.057C203.592 16.2343 203.298 16.4747 203.028 16.778V22H201.782ZM210.947 14.909V22H209.701V14.909H210.947ZM211.227 12.683C211.227 12.8043 211.201 12.9187 211.15 13.026C211.103 13.1287 211.038 13.222 210.954 13.306C210.875 13.3853 210.781 13.4483 210.674 13.495C210.567 13.5417 210.452 13.565 210.331 13.565C210.21 13.565 210.095 13.5417 209.988 13.495C209.885 13.4483 209.792 13.3853 209.708 13.306C209.629 13.222 209.566 13.1287 209.519 13.026C209.472 12.9187 209.449 12.8043 209.449 12.683C209.449 12.5617 209.472 12.4473 209.519 12.34C209.566 12.228 209.629 12.1323 209.708 12.053C209.792 11.969 209.885 11.9037 209.988 11.857C210.095 11.8103 210.21 11.787 210.331 11.787C210.452 11.787 210.567 11.8103 210.674 11.857C210.781 11.9037 210.875 11.969 210.954 12.053C211.038 12.1323 211.103 12.228 211.15 12.34C211.201 12.4473 211.227 12.5617 211.227 12.683ZM217.203 16.078C217.147 16.1807 217.061 16.232 216.944 16.232C216.874 16.232 216.795 16.2063 216.706 16.155C216.617 16.1037 216.508 16.0477 216.377 15.987C216.251 15.9217 216.099 15.8633 215.922 15.812C215.745 15.756 215.535 15.728 215.292 15.728C215.082 15.728 214.893 15.756 214.725 15.812C214.557 15.8633 214.412 15.9357 214.291 16.029C214.174 16.1223 214.083 16.232 214.018 16.358C213.957 16.4793 213.927 16.6123 213.927 16.757C213.927 16.939 213.978 17.0907 214.081 17.212C214.188 17.3333 214.328 17.4383 214.501 17.527C214.674 17.6157 214.87 17.695 215.089 17.765C215.308 17.8303 215.532 17.9027 215.761 17.982C215.994 18.0567 216.221 18.1407 216.44 18.234C216.659 18.3273 216.855 18.444 217.028 18.584C217.201 18.724 217.338 18.8967 217.441 19.102C217.548 19.3027 217.602 19.5453 217.602 19.83C217.602 20.1567 217.544 20.46 217.427 20.74C217.31 21.0153 217.138 21.2557 216.909 21.461C216.68 21.6617 216.4 21.8203 216.069 21.937C215.738 22.0537 215.355 22.112 214.921 22.112C214.426 22.112 213.978 22.0327 213.577 21.874C213.176 21.7107 212.835 21.503 212.555 21.251L212.849 20.775C212.886 20.7143 212.931 20.6677 212.982 20.635C213.033 20.6023 213.101 20.586 213.185 20.586C213.269 20.586 213.358 20.6187 213.451 20.684C213.544 20.7493 213.656 20.8217 213.787 20.901C213.922 20.9803 214.083 21.0527 214.27 21.118C214.461 21.1833 214.699 21.216 214.984 21.216C215.227 21.216 215.439 21.1857 215.621 21.125C215.803 21.0597 215.955 20.9733 216.076 20.866C216.197 20.7587 216.286 20.635 216.342 20.495C216.403 20.355 216.433 20.2057 216.433 20.047C216.433 19.851 216.379 19.69 216.272 19.564C216.169 19.4333 216.032 19.3237 215.859 19.235C215.686 19.1417 215.488 19.0623 215.264 18.997C215.045 18.927 214.818 18.8547 214.585 18.78C214.356 18.7053 214.13 18.6213 213.906 18.528C213.687 18.43 213.491 18.3087 213.318 18.164C213.145 18.0193 213.005 17.842 212.898 17.632C212.795 17.4173 212.744 17.1583 212.744 16.855C212.744 16.5843 212.8 16.3253 212.912 16.078C213.024 15.826 213.187 15.6067 213.402 15.42C213.617 15.2287 213.88 15.077 214.193 14.965C214.506 14.853 214.863 14.797 215.264 14.797C215.731 14.797 216.148 14.8717 216.517 15.021C216.89 15.1657 217.212 15.3663 217.483 15.623L217.203 16.078ZM220.996 14.909H221.976C222.079 14.909 222.163 14.9347 222.228 14.986C222.294 15.0373 222.338 15.098 222.361 15.168L223.719 19.732C223.757 19.9 223.792 20.0633 223.824 20.222C223.857 20.376 223.885 20.5323 223.908 20.691C223.946 20.5323 223.988 20.376 224.034 20.222C224.081 20.0633 224.13 19.9 224.181 19.732L225.679 15.14C225.703 15.07 225.742 15.0117 225.798 14.965C225.859 14.9183 225.934 14.895 226.022 14.895H226.561C226.655 14.895 226.732 14.9183 226.792 14.965C226.853 15.0117 226.895 15.07 226.918 15.14L228.381 19.732C228.433 19.8953 228.477 20.0563 228.514 20.215C228.556 20.3737 228.596 20.53 228.633 20.684C228.657 20.53 228.687 20.369 228.724 20.201C228.762 20.033 228.801 19.8767 228.843 19.732L230.229 15.168C230.253 15.0933 230.297 15.0327 230.362 14.986C230.428 14.9347 230.505 14.909 230.593 14.909H231.531L229.235 22H228.248C228.127 22 228.043 21.9207 227.996 21.762L226.428 16.953C226.391 16.8457 226.361 16.7383 226.337 16.631C226.314 16.519 226.291 16.4093 226.267 16.302C226.244 16.4093 226.221 16.519 226.197 16.631C226.174 16.743 226.144 16.8527 226.106 16.96L224.517 21.762C224.466 21.9207 224.37 22 224.23 22H223.292L220.996 14.909ZM232.639 22V11.689H233.885V15.861C234.189 15.539 234.525 15.2823 234.893 15.091C235.262 14.895 235.687 14.797 236.167 14.797C236.555 14.797 236.895 14.8623 237.189 14.993C237.488 15.119 237.735 15.301 237.931 15.539C238.132 15.7723 238.284 16.0547 238.386 16.386C238.489 16.7173 238.54 17.0837 238.54 17.485V22H237.294V17.485C237.294 16.9483 237.171 16.533 236.923 16.239C236.681 15.9403 236.307 15.791 235.803 15.791C235.435 15.791 235.089 15.8797 234.767 16.057C234.45 16.2343 234.156 16.4747 233.885 16.778V22H232.639ZM241.804 14.909V22H240.558V14.909H241.804ZM242.084 12.683C242.084 12.8043 242.059 12.9187 242.007 13.026C241.961 13.1287 241.895 13.222 241.811 13.306C241.732 13.3853 241.639 13.4483 241.531 13.495C241.424 13.5417 241.31 13.565 241.188 13.565C241.067 13.565 240.953 13.5417 240.845 13.495C240.743 13.4483 240.649 13.3853 240.565 13.306C240.486 13.222 240.423 13.1287 240.376 13.026C240.33 12.9187 240.306 12.8043 240.306 12.683C240.306 12.5617 240.33 12.4473 240.376 12.34C240.423 12.228 240.486 12.1323 240.565 12.053C240.649 11.969 240.743 11.9037 240.845 11.857C240.953 11.8103 241.067 11.787 241.188 11.787C241.31 11.787 241.424 11.8103 241.531 11.857C241.639 11.9037 241.732 11.969 241.811 12.053C241.895 12.1323 241.961 12.228 242.007 12.34C242.059 12.4473 242.084 12.5617 242.084 12.683ZM246.15 22.112C245.59 22.112 245.158 21.9557 244.855 21.643C244.556 21.3303 244.407 20.88 244.407 20.292V15.952H243.553C243.478 15.952 243.415 15.931 243.364 15.889C243.312 15.8423 243.287 15.7723 243.287 15.679V15.182L244.449 15.035L244.736 12.844C244.745 12.774 244.775 12.718 244.827 12.676C244.878 12.6293 244.943 12.606 245.023 12.606H245.653V15.049H247.683V15.952H245.653V20.208C245.653 20.5067 245.725 20.7283 245.87 20.873C246.014 21.0177 246.201 21.09 246.43 21.09C246.56 21.09 246.672 21.0737 246.766 21.041C246.864 21.0037 246.948 20.964 247.018 20.922C247.088 20.88 247.146 20.8427 247.193 20.81C247.244 20.7727 247.288 20.754 247.326 20.754C247.391 20.754 247.449 20.7937 247.501 20.873L247.865 21.468C247.65 21.6687 247.391 21.8273 247.088 21.944C246.784 22.056 246.472 22.112 246.15 22.112ZM252.03 14.797C252.455 14.797 252.847 14.8693 253.206 15.014C253.566 15.154 253.876 15.3593 254.137 15.63C254.399 15.896 254.602 16.2273 254.746 16.624C254.896 17.016 254.97 17.464 254.97 17.968C254.97 18.164 254.949 18.2947 254.907 18.36C254.865 18.4253 254.786 18.458 254.669 18.458H249.951C249.961 18.906 250.021 19.2957 250.133 19.627C250.245 19.9583 250.399 20.236 250.595 20.46C250.791 20.6793 251.025 20.845 251.295 20.957C251.566 21.0643 251.869 21.118 252.205 21.118C252.518 21.118 252.786 21.083 253.01 21.013C253.239 20.9383 253.435 20.859 253.598 20.775C253.762 20.691 253.897 20.614 254.004 20.544C254.116 20.4693 254.212 20.432 254.291 20.432C254.394 20.432 254.473 20.4717 254.529 20.551L254.879 21.006C254.725 21.1927 254.541 21.356 254.326 21.496C254.112 21.6313 253.881 21.7433 253.633 21.832C253.391 21.9207 253.139 21.986 252.877 22.028C252.616 22.0747 252.357 22.098 252.1 22.098C251.61 22.098 251.158 22.0163 250.742 21.853C250.332 21.685 249.975 21.4423 249.671 21.125C249.373 20.803 249.139 20.4063 248.971 19.935C248.803 19.4637 248.719 18.9223 248.719 18.311C248.719 17.8163 248.794 17.3543 248.943 16.925C249.097 16.4957 249.317 16.1247 249.601 15.812C249.886 15.4947 250.234 15.2473 250.644 15.07C251.055 14.888 251.517 14.797 252.03 14.797ZM252.058 15.714C251.456 15.714 250.983 15.889 250.637 16.239C250.292 16.5843 250.077 17.065 249.993 17.681H253.85C253.85 17.3917 253.811 17.128 253.731 16.89C253.652 16.6473 253.535 16.4397 253.381 16.267C253.227 16.0897 253.038 15.9543 252.814 15.861C252.595 15.763 252.343 15.714 252.058 15.714ZM58.022 42V34.909H58.764C58.9413 34.909 59.0533 34.9953 59.1 35.168L59.191 35.896C59.4523 35.574 59.744 35.3103 60.066 35.105C60.3927 34.8997 60.7707 34.797 61.2 34.797C61.6807 34.797 62.068 34.93 62.362 35.196C62.6607 35.462 62.8753 35.8213 63.006 36.274C63.104 36.0173 63.2323 35.7957 63.391 35.609C63.5543 35.4223 63.7363 35.2683 63.937 35.147C64.1377 35.0257 64.35 34.937 64.574 34.881C64.8027 34.825 65.0337 34.797 65.267 34.797C65.6403 34.797 65.9717 34.8577 66.261 34.979C66.555 35.0957 66.8023 35.2683 67.003 35.497C67.2083 35.7257 67.3647 36.008 67.472 36.344C67.5793 36.6753 67.633 37.0557 67.633 37.485V42H66.387V37.485C66.387 36.9297 66.2657 36.5097 66.023 36.225C65.7803 35.9357 65.428 35.791 64.966 35.791C64.7607 35.791 64.5647 35.8283 64.378 35.903C64.196 35.973 64.035 36.078 63.895 36.218C63.755 36.358 63.643 36.5353 63.559 36.75C63.4797 36.96 63.44 37.205 63.44 37.485V42H62.194V37.485C62.194 36.9157 62.0797 36.491 61.851 36.211C61.6223 35.931 61.2887 35.791 60.85 35.791C60.542 35.791 60.255 35.875 59.989 36.043C59.7277 36.2063 59.4873 36.4303 59.268 36.715V42H58.022ZM70.906 34.909V42H69.66V34.909H70.906ZM71.186 32.683C71.186 32.8043 71.1604 32.9187 71.109 33.026C71.0624 33.1287 70.997 33.222 70.913 33.306C70.8337 33.3853 70.7404 33.4483 70.633 33.495C70.5257 33.5417 70.4114 33.565 70.29 33.565C70.1687 33.565 70.0544 33.5417 69.947 33.495C69.8444 33.4483 69.751 33.3853 69.667 33.306C69.5877 33.222 69.5247 33.1287 69.478 33.026C69.4314 32.9187 69.408 32.8043 69.408 32.683C69.408 32.5617 69.4314 32.4473 69.478 32.34C69.5247 32.228 69.5877 32.1323 69.667 32.053C69.751 31.969 69.8444 31.9037 69.947 31.857C70.0544 31.8103 70.1687 31.787 70.29 31.787C70.4114 31.787 70.5257 31.8103 70.633 31.857C70.7404 31.9037 70.8337 31.969 70.913 32.053C70.997 32.1323 71.0624 32.228 71.109 32.34C71.1604 32.4473 71.186 32.5617 71.186 32.683ZM73.1021 42V34.909H73.8441C74.0214 34.909 74.1334 34.9953 74.1801 35.168L74.2781 35.938C74.5861 35.5973 74.9291 35.322 75.3071 35.112C75.6897 34.902 76.1307 34.797 76.6301 34.797C77.0174 34.797 77.3581 34.8623 77.6521 34.993C77.9507 35.119 78.1981 35.301 78.3941 35.539C78.5947 35.7723 78.7464 36.0547 78.8491 36.386C78.9517 36.7173 79.0031 37.0837 79.0031 37.485V42H77.7571V37.485C77.7571 36.9483 77.6334 36.533 77.3861 36.239C77.1434 35.9403 76.7701 35.791 76.2661 35.791C75.8974 35.791 75.5521 35.8797 75.2301 36.057C74.9127 36.2343 74.6187 36.4747 74.3481 36.778V42H73.1021ZM82.2674 34.909V42H81.0214V34.909H82.2674ZM82.5474 32.683C82.5474 32.8043 82.5217 32.9187 82.4704 33.026C82.4237 33.1287 82.3584 33.222 82.2744 33.306C82.195 33.3853 82.1017 33.4483 81.9944 33.495C81.887 33.5417 81.7727 33.565 81.6514 33.565C81.53 33.565 81.4157 33.5417 81.3084 33.495C81.2057 33.4483 81.1124 33.3853 81.0284 33.306C80.949 33.222 80.886 33.1287 80.8394 33.026C80.7927 32.9187 80.7694 32.8043 80.7694 32.683C80.7694 32.5617 80.7927 32.4473 80.8394 32.34C80.886 32.228 80.949 32.1323 81.0284 32.053C81.1124 31.969 81.2057 31.9037 81.3084 31.857C81.4157 31.8103 81.53 31.787 81.6514 31.787C81.7727 31.787 81.887 31.8103 81.9944 31.857C82.1017 31.9037 82.195 31.969 82.2744 32.053C82.3584 32.1323 82.4237 32.228 82.4704 32.34C82.5217 32.4473 82.5474 32.5617 82.5474 32.683ZM84.4634 42V34.909H85.2054C85.3827 34.909 85.4947 34.9953 85.5414 35.168L85.6324 35.896C85.8937 35.574 86.1854 35.3103 86.5074 35.105C86.8341 34.8997 87.2121 34.797 87.6414 34.797C88.1221 34.797 88.5094 34.93 88.8034 35.196C89.1021 35.462 89.3167 35.8213 89.4474 36.274C89.5454 36.0173 89.6737 35.7957 89.8324 35.609C89.9957 35.4223 90.1777 35.2683 90.3784 35.147C90.5791 35.0257 90.7914 34.937 91.0154 34.881C91.2441 34.825 91.4751 34.797 91.7084 34.797C92.0817 34.797 92.4131 34.8577 92.7024 34.979C92.9964 35.0957 93.2437 35.2683 93.4444 35.497C93.6497 35.7257 93.8061 36.008 93.9134 36.344C94.0207 36.6753 94.0744 37.0557 94.0744 37.485V42H92.8284V37.485C92.8284 36.9297 92.7071 36.5097 92.4644 36.225C92.2217 35.9357 91.8694 35.791 91.4074 35.791C91.2021 35.791 91.0061 35.8283 90.8194 35.903C90.6374 35.973 90.4764 36.078 90.3364 36.218C90.1964 36.358 90.0844 36.5353 90.0004 36.75C89.9211 36.96 89.8814 37.205 89.8814 37.485V42H88.6354V37.485C88.6354 36.9157 88.5211 36.491 88.2924 36.211C88.0637 35.931 87.7301 35.791 87.2914 35.791C86.9834 35.791 86.6964 35.875 86.4304 36.043C86.1691 36.2063 85.9287 36.4303 85.7094 36.715V42H84.4634ZM101.169 42H100.616C100.495 42 100.397 41.9813 100.322 41.944C100.248 41.9067 100.199 41.8273 100.175 41.706L100.035 41.048C99.8488 41.216 99.6668 41.3677 99.4895 41.503C99.3121 41.6337 99.1255 41.7457 98.9295 41.839C98.7335 41.9277 98.5235 41.9953 98.2995 42.042C98.0801 42.0887 97.8351 42.112 97.5645 42.112C97.2891 42.112 97.0301 42.0747 96.7875 42C96.5495 41.9207 96.3418 41.804 96.1645 41.65C95.9871 41.496 95.8448 41.3023 95.7375 41.069C95.6348 40.831 95.5835 40.551 95.5835 40.229C95.5835 39.949 95.6605 39.6807 95.8145 39.424C95.9685 39.1627 96.2158 38.9317 96.5565 38.731C96.9018 38.5303 97.3521 38.367 97.9075 38.241C98.4628 38.1103 99.1418 38.0357 99.9445 38.017V37.464C99.9445 36.9133 99.8255 36.498 99.5875 36.218C99.3541 35.9333 99.0065 35.791 98.5445 35.791C98.2411 35.791 97.9845 35.8307 97.7745 35.91C97.5691 35.9847 97.3895 36.071 97.2355 36.169C97.0861 36.2623 96.9555 36.3487 96.8435 36.428C96.7361 36.5027 96.6288 36.54 96.5215 36.54C96.4375 36.54 96.3628 36.519 96.2975 36.477C96.2368 36.4303 96.1878 36.3743 96.1505 36.309L95.9265 35.91C96.3185 35.532 96.7408 35.2497 97.1935 35.063C97.6461 34.8763 98.1478 34.783 98.6985 34.783C99.0951 34.783 99.4475 34.8483 99.7555 34.979C100.063 35.1097 100.322 35.2917 100.532 35.525C100.742 35.7583 100.901 36.0407 101.008 36.372C101.116 36.7033 101.169 37.0673 101.169 37.464V42ZM97.9355 41.237C98.1548 41.237 98.3555 41.216 98.5375 41.174C98.7195 41.1273 98.8898 41.0643 99.0485 40.985C99.2118 40.901 99.3658 40.8007 99.5105 40.684C99.6598 40.5673 99.8045 40.4343 99.9445 40.285V38.808C99.3705 38.8267 98.8828 38.8733 98.4815 38.948C98.0801 39.018 97.7535 39.1113 97.5015 39.228C97.2495 39.3447 97.0651 39.4823 96.9485 39.641C96.8365 39.7997 96.7805 39.977 96.7805 40.173C96.7805 40.3597 96.8108 40.5207 96.8715 40.656C96.9321 40.7913 97.0138 40.9033 97.1165 40.992C97.2191 41.076 97.3405 41.139 97.4805 41.181C97.6205 41.2183 97.7721 41.237 97.9355 41.237ZM104.443 31.689V42H103.197V31.689H104.443ZM108.025 34.909V42H106.779V34.909H108.025ZM108.305 32.683C108.305 32.8043 108.28 32.9187 108.228 33.026C108.182 33.1287 108.116 33.222 108.032 33.306C107.953 33.3853 107.86 33.4483 107.752 33.495C107.645 33.5417 107.531 33.565 107.409 33.565C107.288 33.565 107.174 33.5417 107.066 33.495C106.964 33.4483 106.87 33.3853 106.786 33.306C106.707 33.222 106.644 33.1287 106.597 33.026C106.551 32.9187 106.527 32.8043 106.527 32.683C106.527 32.5617 106.551 32.4473 106.597 32.34C106.644 32.228 106.707 32.1323 106.786 32.053C106.87 31.969 106.964 31.9037 107.066 31.857C107.174 31.8103 107.288 31.787 107.409 31.787C107.531 31.787 107.645 31.8103 107.752 31.857C107.86 31.9037 107.953 31.969 108.032 32.053C108.116 32.1323 108.182 32.228 108.228 32.34C108.28 32.4473 108.305 32.5617 108.305 32.683ZM114.281 36.078C114.225 36.1807 114.139 36.232 114.022 36.232C113.952 36.232 113.873 36.2063 113.784 36.155C113.696 36.1037 113.586 36.0477 113.455 35.987C113.329 35.9217 113.178 35.8633 113 35.812C112.823 35.756 112.613 35.728 112.37 35.728C112.16 35.728 111.971 35.756 111.803 35.812C111.635 35.8633 111.491 35.9357 111.369 36.029C111.253 36.1223 111.162 36.232 111.096 36.358C111.036 36.4793 111.005 36.6123 111.005 36.757C111.005 36.939 111.057 37.0907 111.159 37.212C111.267 37.3333 111.407 37.4383 111.579 37.527C111.752 37.6157 111.948 37.695 112.167 37.765C112.387 37.8303 112.611 37.9027 112.839 37.982C113.073 38.0567 113.299 38.1407 113.518 38.234C113.738 38.3273 113.934 38.444 114.106 38.584C114.279 38.724 114.417 38.8967 114.519 39.102C114.627 39.3027 114.68 39.5453 114.68 39.83C114.68 40.1567 114.622 40.46 114.505 40.74C114.389 41.0153 114.216 41.2557 113.987 41.461C113.759 41.6617 113.479 41.8203 113.147 41.937C112.816 42.0537 112.433 42.112 111.999 42.112C111.505 42.112 111.057 42.0327 110.655 41.874C110.254 41.7107 109.913 41.503 109.633 41.251L109.927 40.775C109.965 40.7143 110.009 40.6677 110.06 40.635C110.112 40.6023 110.179 40.586 110.263 40.586C110.347 40.586 110.436 40.6187 110.529 40.684C110.623 40.7493 110.735 40.8217 110.865 40.901C111.001 40.9803 111.162 41.0527 111.348 41.118C111.54 41.1833 111.778 41.216 112.062 41.216C112.305 41.216 112.517 41.1857 112.699 41.125C112.881 41.0597 113.033 40.9733 113.154 40.866C113.276 40.7587 113.364 40.635 113.42 40.495C113.481 40.355 113.511 40.2057 113.511 40.047C113.511 39.851 113.458 39.69 113.35 39.564C113.248 39.4333 113.11 39.3237 112.937 39.235C112.765 39.1417 112.566 39.0623 112.342 38.997C112.123 38.927 111.897 38.8547 111.663 38.78C111.435 38.7053 111.208 38.6213 110.984 38.528C110.765 38.43 110.569 38.3087 110.396 38.164C110.224 38.0193 110.084 37.842 109.976 37.632C109.874 37.4173 109.822 37.1583 109.822 36.855C109.822 36.5843 109.878 36.3253 109.99 36.078C110.102 35.826 110.266 35.6067 110.48 35.42C110.695 35.2287 110.959 35.077 111.271 34.965C111.584 34.853 111.941 34.797 112.342 34.797C112.809 34.797 113.227 34.8717 113.595 35.021C113.969 35.1657 114.291 35.3663 114.561 35.623L114.281 36.078ZM118.441 42.112C117.881 42.112 117.449 41.9557 117.146 41.643C116.847 41.3303 116.698 40.88 116.698 40.292V35.952H115.844C115.769 35.952 115.706 35.931 115.655 35.889C115.603 35.8423 115.578 35.7723 115.578 35.679V35.182L116.74 35.035L117.027 32.844C117.036 32.774 117.066 32.718 117.118 32.676C117.169 32.6293 117.234 32.606 117.314 32.606H117.944V35.049H119.974V35.952H117.944V40.208C117.944 40.5067 118.016 40.7283 118.161 40.873C118.305 41.0177 118.492 41.09 118.721 41.09C118.851 41.09 118.963 41.0737 119.057 41.041C119.155 41.0037 119.239 40.964 119.309 40.922C119.379 40.88 119.437 40.8427 119.484 40.81C119.535 40.7727 119.579 40.754 119.617 40.754C119.682 40.754 119.74 40.7937 119.792 40.873L120.156 41.468C119.941 41.6687 119.682 41.8273 119.379 41.944C119.075 42.056 118.763 42.112 118.441 42.112ZM122.9 34.909V42H121.654V34.909H122.9ZM123.18 32.683C123.18 32.8043 123.155 32.9187 123.103 33.026C123.057 33.1287 122.991 33.222 122.907 33.306C122.828 33.3853 122.735 33.4483 122.627 33.495C122.52 33.5417 122.406 33.565 122.284 33.565C122.163 33.565 122.049 33.5417 121.941 33.495C121.839 33.4483 121.745 33.3853 121.661 33.306C121.582 33.222 121.519 33.1287 121.472 33.026C121.426 32.9187 121.402 32.8043 121.402 32.683C121.402 32.5617 121.426 32.4473 121.472 32.34C121.519 32.228 121.582 32.1323 121.661 32.053C121.745 31.969 121.839 31.9037 121.941 31.857C122.049 31.8103 122.163 31.787 122.284 31.787C122.406 31.787 122.52 31.8103 122.627 31.857C122.735 31.9037 122.828 31.969 122.907 32.053C122.991 32.1323 123.057 32.228 123.103 32.34C123.155 32.4473 123.18 32.5617 123.18 32.683ZM129.933 36.169C129.896 36.2203 129.859 36.26 129.821 36.288C129.784 36.316 129.73 36.33 129.66 36.33C129.59 36.33 129.513 36.302 129.429 36.246C129.35 36.1853 129.247 36.12 129.121 36.05C128.995 35.98 128.841 35.917 128.659 35.861C128.482 35.8003 128.263 35.77 128.001 35.77C127.656 35.77 127.35 35.833 127.084 35.959C126.818 36.0803 126.594 36.2577 126.412 36.491C126.235 36.7243 126.1 37.0067 126.006 37.338C125.918 37.6693 125.873 38.0403 125.873 38.451C125.873 38.8803 125.922 39.263 126.02 39.599C126.118 39.9303 126.256 40.2103 126.433 40.439C126.611 40.663 126.825 40.8357 127.077 40.957C127.334 41.0737 127.621 41.132 127.938 41.132C128.242 41.132 128.491 41.097 128.687 41.027C128.883 40.9523 129.047 40.8707 129.177 40.782C129.308 40.6933 129.415 40.614 129.499 40.544C129.583 40.4693 129.667 40.432 129.751 40.432C129.859 40.432 129.938 40.4717 129.989 40.551L130.339 41.006C130.031 41.384 129.646 41.6617 129.184 41.839C128.722 42.0117 128.235 42.098 127.721 42.098C127.278 42.098 126.865 42.0163 126.482 41.853C126.104 41.6897 125.775 41.454 125.495 41.146C125.215 40.8333 124.994 40.4507 124.83 39.998C124.672 39.5453 124.592 39.0297 124.592 38.451C124.592 37.9237 124.665 37.436 124.809 36.988C124.959 36.54 125.173 36.155 125.453 35.833C125.738 35.5063 126.088 35.252 126.503 35.07C126.919 34.888 127.395 34.797 127.931 34.797C128.426 34.797 128.865 34.8787 129.247 35.042C129.63 35.2007 129.968 35.427 130.262 35.721L129.933 36.169ZM139.175 36.169C139.138 36.2203 139.101 36.26 139.063 36.288C139.026 36.316 138.972 36.33 138.902 36.33C138.832 36.33 138.755 36.302 138.671 36.246C138.592 36.1853 138.489 36.12 138.363 36.05C138.237 35.98 138.083 35.917 137.901 35.861C137.724 35.8003 137.505 35.77 137.243 35.77C136.898 35.77 136.592 35.833 136.326 35.959C136.06 36.0803 135.836 36.2577 135.654 36.491C135.477 36.7243 135.342 37.0067 135.248 37.338C135.16 37.6693 135.115 38.0403 135.115 38.451C135.115 38.8803 135.164 39.263 135.262 39.599C135.36 39.9303 135.498 40.2103 135.675 40.439C135.853 40.663 136.067 40.8357 136.319 40.957C136.576 41.0737 136.863 41.132 137.18 41.132C137.484 41.132 137.733 41.097 137.929 41.027C138.125 40.9523 138.289 40.8707 138.419 40.782C138.55 40.6933 138.657 40.614 138.741 40.544C138.825 40.4693 138.909 40.432 138.993 40.432C139.101 40.432 139.18 40.4717 139.231 40.551L139.581 41.006C139.273 41.384 138.888 41.6617 138.426 41.839C137.964 42.0117 137.477 42.098 136.963 42.098C136.52 42.098 136.107 42.0163 135.724 41.853C135.346 41.6897 135.017 41.454 134.737 41.146C134.457 40.8333 134.236 40.4507 134.072 39.998C133.914 39.5453 133.834 39.0297 133.834 38.451C133.834 37.9237 133.907 37.436 134.051 36.988C134.201 36.54 134.415 36.155 134.695 35.833C134.98 35.5063 135.33 35.252 135.745 35.07C136.161 34.888 136.637 34.797 137.173 34.797C137.668 34.797 138.107 34.8787 138.489 35.042C138.872 35.2007 139.21 35.427 139.504 35.721L139.175 36.169ZM140.874 42V31.689H142.12V35.861C142.423 35.539 142.759 35.2823 143.128 35.091C143.496 34.895 143.921 34.797 144.402 34.797C144.789 34.797 145.13 34.8623 145.424 34.993C145.722 35.119 145.97 35.301 146.166 35.539C146.366 35.7723 146.518 36.0547 146.621 36.386C146.723 36.7173 146.775 37.0837 146.775 37.485V42H145.529V37.485C145.529 36.9483 145.405 36.533 145.158 36.239C144.915 35.9403 144.542 35.791 144.038 35.791C143.669 35.791 143.324 35.8797 143.002 36.057C142.684 36.2343 142.39 36.4747 142.12 36.778V42H140.874ZM153.861 42H153.308C153.187 42 153.089 41.9813 153.014 41.944C152.939 41.9067 152.89 41.8273 152.867 41.706L152.727 41.048C152.54 41.216 152.358 41.3677 152.181 41.503C152.004 41.6337 151.817 41.7457 151.621 41.839C151.425 41.9277 151.215 41.9953 150.991 42.042C150.772 42.0887 150.527 42.112 150.256 42.112C149.981 42.112 149.722 42.0747 149.479 42C149.241 41.9207 149.033 41.804 148.856 41.65C148.679 41.496 148.536 41.3023 148.429 41.069C148.326 40.831 148.275 40.551 148.275 40.229C148.275 39.949 148.352 39.6807 148.506 39.424C148.66 39.1627 148.907 38.9317 149.248 38.731C149.593 38.5303 150.044 38.367 150.599 38.241C151.154 38.1103 151.833 38.0357 152.636 38.017V37.464C152.636 36.9133 152.517 36.498 152.279 36.218C152.046 35.9333 151.698 35.791 151.236 35.791C150.933 35.791 150.676 35.8307 150.466 35.91C150.261 35.9847 150.081 36.071 149.927 36.169C149.778 36.2623 149.647 36.3487 149.535 36.428C149.428 36.5027 149.32 36.54 149.213 36.54C149.129 36.54 149.054 36.519 148.989 36.477C148.928 36.4303 148.879 36.3743 148.842 36.309L148.618 35.91C149.01 35.532 149.432 35.2497 149.885 35.063C150.338 34.8763 150.839 34.783 151.39 34.783C151.787 34.783 152.139 34.8483 152.447 34.979C152.755 35.1097 153.014 35.2917 153.224 35.525C153.434 35.7583 153.593 36.0407 153.7 36.372C153.807 36.7033 153.861 37.0673 153.861 37.464V42ZM150.627 41.237C150.846 41.237 151.047 41.216 151.229 41.174C151.411 41.1273 151.581 41.0643 151.74 40.985C151.903 40.901 152.057 40.8007 152.202 40.684C152.351 40.5673 152.496 40.4343 152.636 40.285V38.808C152.062 38.8267 151.574 38.8733 151.173 38.948C150.772 39.018 150.445 39.1113 150.193 39.228C149.941 39.3447 149.757 39.4823 149.64 39.641C149.528 39.7997 149.472 39.977 149.472 40.173C149.472 40.3597 149.502 40.5207 149.563 40.656C149.624 40.7913 149.705 40.9033 149.808 40.992C149.911 41.076 150.032 41.139 150.172 41.181C150.312 41.2183 150.464 41.237 150.627 41.237ZM157.135 34.909V42H155.889V34.909H157.135ZM157.415 32.683C157.415 32.8043 157.389 32.9187 157.338 33.026C157.291 33.1287 157.226 33.222 157.142 33.306C157.062 33.3853 156.969 33.4483 156.862 33.495C156.754 33.5417 156.64 33.565 156.519 33.565C156.397 33.565 156.283 33.5417 156.176 33.495C156.073 33.4483 155.98 33.3853 155.896 33.306C155.816 33.222 155.753 33.1287 155.707 33.026C155.66 32.9187 155.637 32.8043 155.637 32.683C155.637 32.5617 155.66 32.4473 155.707 32.34C155.753 32.228 155.816 32.1323 155.896 32.053C155.98 31.969 156.073 31.9037 156.176 31.857C156.283 31.8103 156.397 31.787 156.519 31.787C156.64 31.787 156.754 31.8103 156.862 31.857C156.969 31.9037 157.062 31.969 157.142 32.053C157.226 32.1323 157.291 32.228 157.338 32.34C157.389 32.4473 157.415 32.5617 157.415 32.683ZM159.331 42V34.909H160.045C160.18 34.909 160.273 34.9347 160.325 34.986C160.376 35.0373 160.411 35.126 160.43 35.252L160.514 36.358C160.756 35.8633 161.055 35.4783 161.41 35.203C161.769 34.923 162.189 34.783 162.67 34.783C162.866 34.783 163.043 34.8063 163.202 34.853C163.36 34.895 163.507 34.9557 163.643 35.035L163.482 35.966C163.449 36.0827 163.377 36.141 163.265 36.141C163.199 36.141 163.099 36.12 162.964 36.078C162.828 36.0313 162.639 36.008 162.397 36.008C161.963 36.008 161.599 36.134 161.305 36.386C161.015 36.638 160.773 37.0043 160.577 37.485V42H159.331ZM164.193 32.865C164.338 32.7297 164.496 32.6013 164.669 32.48C164.846 32.3587 165.038 32.2513 165.243 32.158C165.453 32.0647 165.677 31.9923 165.915 31.941C166.158 31.885 166.419 31.857 166.699 31.857C167.068 31.857 167.408 31.9107 167.721 32.018C168.038 32.1253 168.311 32.277 168.54 32.473C168.769 32.669 168.948 32.907 169.079 33.187C169.21 33.467 169.275 33.782 169.275 34.132C169.275 34.4867 169.221 34.7923 169.114 35.049C169.011 35.3057 168.878 35.532 168.715 35.728C168.556 35.9193 168.381 36.0873 168.19 36.232C167.999 36.372 167.819 36.505 167.651 36.631C167.488 36.757 167.345 36.883 167.224 37.009C167.107 37.135 167.04 37.275 167.021 37.429L166.895 38.5H166.041L165.957 37.338V37.261C165.957 37.065 166.008 36.8923 166.111 36.743C166.218 36.589 166.351 36.4467 166.51 36.316C166.673 36.1807 166.846 36.0477 167.028 35.917C167.215 35.7817 167.387 35.6347 167.546 35.476C167.709 35.3127 167.842 35.1283 167.945 34.923C168.052 34.7177 168.106 34.475 168.106 34.195C168.106 33.9943 168.066 33.8123 167.987 33.649C167.908 33.4857 167.8 33.348 167.665 33.236C167.53 33.1193 167.369 33.0307 167.182 32.97C167 32.9093 166.804 32.879 166.594 32.879C166.309 32.879 166.064 32.914 165.859 32.984C165.658 33.054 165.488 33.131 165.348 33.215C165.208 33.299 165.094 33.376 165.005 33.446C164.921 33.516 164.851 33.551 164.795 33.551C164.678 33.551 164.587 33.4973 164.522 33.39L164.193 32.865ZM165.565 41.23C165.565 41.1087 165.586 40.9943 165.628 40.887C165.675 40.7797 165.735 40.6863 165.81 40.607C165.889 40.5277 165.983 40.4647 166.09 40.418C166.197 40.3713 166.312 40.348 166.433 40.348C166.554 40.348 166.669 40.3713 166.776 40.418C166.883 40.4647 166.977 40.5277 167.056 40.607C167.135 40.6863 167.196 40.7797 167.238 40.887C167.285 40.9943 167.308 41.1087 167.308 41.23C167.308 41.356 167.285 41.4727 167.238 41.58C167.196 41.6827 167.135 41.7737 167.056 41.853C166.977 41.9323 166.883 41.993 166.776 42.035C166.669 42.0817 166.554 42.105 166.433 42.105C166.312 42.105 166.197 42.0817 166.09 42.035C165.983 41.993 165.889 41.9323 165.81 41.853C165.735 41.7737 165.675 41.6827 165.628 41.58C165.586 41.4727 165.565 41.356 165.565 41.23Z" fill="#1A1C1D"/>
</svg>
