<svg width="208" height="36" viewBox="0 0 208 36" fill="none" xmlns="http://www.w3.org/2000/svg">
<path d="M150.041 22.59C150.187 22.59 150.314 22.6467 150.421 22.76L151.481 23.91C150.894 24.6367 150.171 25.1933 149.311 25.58C148.457 25.9667 147.431 26.16 146.231 26.16C145.157 26.16 144.191 25.9767 143.331 25.61C142.477 25.2433 141.747 24.7333 141.141 24.08C140.534 23.4267 140.067 22.6467 139.741 21.74C139.421 20.8333 139.261 19.8433 139.261 18.77C139.261 17.6833 139.441 16.69 139.801 15.79C140.161 14.8833 140.667 14.1033 141.321 13.45C141.974 12.7967 142.754 12.29 143.661 11.93C144.574 11.5633 145.581 11.38 146.681 11.38C147.754 11.38 148.691 11.5533 149.491 11.9C150.297 12.24 150.987 12.6933 151.561 13.26L150.661 14.51C150.607 14.59 150.537 14.66 150.451 14.72C150.371 14.78 150.257 14.81 150.111 14.81C149.957 14.81 149.801 14.75 149.641 14.63C149.481 14.51 149.277 14.38 149.031 14.24C148.784 14.1 148.471 13.97 148.091 13.85C147.717 13.73 147.241 13.67 146.661 13.67C145.981 13.67 145.354 13.79 144.781 14.03C144.214 14.2633 143.724 14.6 143.311 15.04C142.904 15.48 142.584 16.0167 142.351 16.65C142.124 17.2767 142.011 17.9833 142.011 18.77C142.011 19.5833 142.124 20.3067 142.351 20.94C142.584 21.5733 142.897 22.1067 143.291 22.54C143.684 22.9733 144.147 23.3067 144.681 23.54C145.214 23.7667 145.787 23.88 146.401 23.88C146.767 23.88 147.097 23.86 147.391 23.82C147.691 23.78 147.964 23.7167 148.211 23.63C148.464 23.5433 148.701 23.4333 148.921 23.3C149.147 23.16 149.371 22.99 149.591 22.79C149.657 22.73 149.727 22.6833 149.801 22.65C149.874 22.61 149.954 22.59 150.041 22.59ZM153.379 26V11.14H155.849V16.85C156.249 16.47 156.689 16.1633 157.169 15.93C157.649 15.6967 158.212 15.58 158.859 15.58C159.419 15.58 159.915 15.6767 160.349 15.87C160.782 16.0567 161.142 16.3233 161.429 16.67C161.722 17.01 161.942 17.42 162.089 17.9C162.242 18.3733 162.319 18.8967 162.319 19.47V26H159.849V19.47C159.849 18.8433 159.702 18.36 159.409 18.02C159.122 17.6733 158.689 17.5 158.109 17.5C157.682 17.5 157.282 17.5967 156.909 17.79C156.535 17.9833 156.182 18.2467 155.849 18.58V26H153.379ZM172.786 26H171.676C171.442 26 171.259 25.9667 171.126 25.9C170.992 25.8267 170.892 25.6833 170.826 25.47L170.606 24.74C170.346 24.9733 170.089 25.18 169.836 25.36C169.589 25.5333 169.332 25.68 169.066 25.8C168.799 25.92 168.516 26.01 168.216 26.07C167.916 26.13 167.582 26.16 167.216 26.16C166.782 26.16 166.382 26.1033 166.016 25.99C165.649 25.87 165.332 25.6933 165.066 25.46C164.806 25.2267 164.602 24.9367 164.456 24.59C164.309 24.2433 164.236 23.84 164.236 23.38C164.236 22.9933 164.336 22.6133 164.536 22.24C164.742 21.86 165.082 21.52 165.556 21.22C166.029 20.9133 166.659 20.66 167.446 20.46C168.232 20.26 169.209 20.1467 170.376 20.12V19.52C170.376 18.8333 170.229 18.3267 169.936 18C169.649 17.6667 169.229 17.5 168.676 17.5C168.276 17.5 167.942 17.5467 167.676 17.64C167.409 17.7333 167.176 17.84 166.976 17.96C166.782 18.0733 166.602 18.1767 166.436 18.27C166.269 18.3633 166.086 18.41 165.886 18.41C165.719 18.41 165.576 18.3667 165.456 18.28C165.336 18.1933 165.239 18.0867 165.166 17.96L164.716 17.17C165.896 16.09 167.319 15.55 168.986 15.55C169.586 15.55 170.119 15.65 170.586 15.85C171.059 16.0433 171.459 16.3167 171.786 16.67C172.112 17.0167 172.359 17.4333 172.526 17.92C172.699 18.4067 172.786 18.94 172.786 19.52V26ZM167.986 24.46C168.239 24.46 168.472 24.4367 168.686 24.39C168.899 24.3433 169.099 24.2733 169.286 24.18C169.479 24.0867 169.662 23.9733 169.836 23.84C170.016 23.7 170.196 23.5367 170.376 23.35V21.62C169.656 21.6533 169.052 21.7167 168.566 21.81C168.086 21.8967 167.699 22.01 167.406 22.15C167.112 22.29 166.902 22.4533 166.776 22.64C166.656 22.8267 166.596 23.03 166.596 23.25C166.596 23.6833 166.722 23.9933 166.976 24.18C167.236 24.3667 167.572 24.46 167.986 24.46ZM178.585 26.16C177.698 26.16 177.015 25.91 176.535 25.41C176.055 24.9033 175.815 24.2067 175.815 23.32V17.59H174.775C174.641 17.59 174.525 17.5467 174.425 17.46C174.331 17.3733 174.285 17.2433 174.285 17.07V16.09L175.935 15.82L176.455 13.02C176.481 12.8867 176.541 12.7833 176.635 12.71C176.735 12.6367 176.858 12.6 177.005 12.6H178.285V15.83H180.985V17.59H178.285V23.15C178.285 23.47 178.365 23.72 178.525 23.9C178.685 24.08 178.898 24.17 179.165 24.17C179.318 24.17 179.445 24.1533 179.545 24.12C179.651 24.08 179.741 24.04 179.815 24C179.895 23.96 179.965 23.9233 180.025 23.89C180.085 23.85 180.145 23.83 180.205 23.83C180.278 23.83 180.338 23.85 180.385 23.89C180.431 23.9233 180.481 23.9767 180.535 24.05L181.275 25.25C180.915 25.55 180.501 25.7767 180.035 25.93C179.568 26.0833 179.085 26.16 178.585 26.16ZM189.039 17.74C188.972 17.8467 188.902 17.9233 188.829 17.97C188.756 18.01 188.662 18.03 188.549 18.03C188.429 18.03 188.299 17.9967 188.159 17.93C188.026 17.8633 187.869 17.79 187.689 17.71C187.509 17.6233 187.302 17.5467 187.069 17.48C186.842 17.4133 186.572 17.38 186.259 17.38C185.772 17.38 185.389 17.4833 185.109 17.69C184.829 17.8967 184.689 18.1667 184.689 18.5C184.689 18.72 184.759 18.9067 184.899 19.06C185.046 19.2067 185.236 19.3367 185.469 19.45C185.709 19.5633 185.979 19.6667 186.279 19.76C186.579 19.8467 186.886 19.9433 187.199 20.05C187.512 20.1567 187.819 20.28 188.119 20.42C188.419 20.5533 188.686 20.7267 188.919 20.94C189.159 21.1467 189.349 21.3967 189.489 21.69C189.636 21.9833 189.709 22.3367 189.709 22.75C189.709 23.2433 189.619 23.7 189.439 24.12C189.259 24.5333 188.996 24.8933 188.649 25.2C188.302 25.5 187.872 25.7367 187.359 25.91C186.852 26.0767 186.269 26.16 185.609 26.16C185.256 26.16 184.909 26.1267 184.569 26.06C184.236 26 183.912 25.9133 183.599 25.8C183.292 25.6867 183.006 25.5533 182.739 25.4C182.479 25.2467 182.249 25.08 182.049 24.9L182.619 23.96C182.692 23.8467 182.779 23.76 182.879 23.7C182.979 23.64 183.106 23.61 183.259 23.61C183.412 23.61 183.556 23.6533 183.689 23.74C183.829 23.8267 183.989 23.92 184.169 24.02C184.349 24.12 184.559 24.2133 184.799 24.3C185.046 24.3867 185.356 24.43 185.729 24.43C186.022 24.43 186.272 24.3967 186.479 24.33C186.692 24.2567 186.866 24.1633 186.999 24.05C187.139 23.9367 187.239 23.8067 187.299 23.66C187.366 23.5067 187.399 23.35 187.399 23.19C187.399 22.95 187.326 22.7533 187.179 22.6C187.039 22.4467 186.849 22.3133 186.609 22.2C186.376 22.0867 186.106 21.9867 185.799 21.9C185.499 21.8067 185.189 21.7067 184.869 21.6C184.556 21.4933 184.246 21.37 183.939 21.23C183.639 21.0833 183.369 20.9 183.129 20.68C182.896 20.46 182.706 20.19 182.559 19.87C182.419 19.55 182.349 19.1633 182.349 18.71C182.349 18.29 182.432 17.89 182.599 17.51C182.766 17.13 183.009 16.8 183.329 16.52C183.656 16.2333 184.059 16.0067 184.539 15.84C185.026 15.6667 185.586 15.58 186.219 15.58C186.926 15.58 187.569 15.6967 188.149 15.93C188.729 16.1633 189.212 16.47 189.599 16.85L189.039 17.74Z" fill="#1A1C1D"/>
<rect x="0.5" y="0.5" width="35" height="35" rx="7.5" fill="white" stroke="#F3F4F9"/>
<path d="M11.25 13.5H24.75V15.0117H11.25V13.5ZM11.25 18.7383V17.2617H24.75V18.7383H11.25ZM11.25 22.5V20.9883H24.75V22.5H11.25Z" fill="#828282"/>
</svg>
