<svg width="343" height="36" viewBox="0 0 343 36" fill="none" xmlns="http://www.w3.org/2000/svg">
<rect x="0.5" y="0.5" width="35" height="35" rx="7.5" fill="white" stroke="#F3F4F9"/>
<path d="M20.5664 14.5547L17.1211 18L20.5664 21.4453L19.5117 22.5L15.0117 18L19.5117 13.5L20.5664 14.5547Z" fill="#828282"/>
<path d="M63.44 18.216C63.44 19.064 63.2987 19.8427 63.016 20.552C62.7333 21.2613 62.336 21.872 61.824 22.384C61.312 22.896 60.696 23.2933 59.976 23.576C59.256 23.8587 58.4587 24 57.584 24H53.168V12.432H57.584C58.4587 12.432 59.256 12.576 59.976 12.864C60.696 13.1467 61.312 13.544 61.824 14.056C62.336 14.5627 62.7333 15.1707 63.016 15.88C63.2987 16.5893 63.44 17.368 63.44 18.216ZM61.24 18.216C61.24 17.5813 61.1547 17.0133 60.984 16.512C60.8133 16.0053 60.5707 15.5787 60.256 15.232C59.9413 14.88 59.5573 14.6107 59.104 14.424C58.656 14.2373 58.1493 14.144 57.584 14.144H55.336V22.288H57.584C58.1493 22.288 58.656 22.1947 59.104 22.008C59.5573 21.8213 59.9413 21.5547 60.256 21.208C60.5707 20.856 60.8133 20.4293 60.984 19.928C61.1547 19.4213 61.24 18.8507 61.24 18.216ZM66.8171 15.792V21.008C66.8171 21.5093 66.9318 21.8987 67.1611 22.176C67.3958 22.448 67.7451 22.584 68.2091 22.584C68.5505 22.584 68.8705 22.5093 69.1691 22.36C69.4678 22.2053 69.7505 21.9947 70.0171 21.728V15.792H71.9931V24H70.7851C70.5291 24 70.3611 23.88 70.2811 23.64L70.1451 22.984C69.9745 23.1547 69.7985 23.312 69.6171 23.456C69.4358 23.5947 69.2411 23.7147 69.0331 23.816C68.8305 23.912 68.6091 23.9867 68.3691 24.04C68.1345 24.0987 67.8811 24.128 67.6091 24.128C67.1611 24.128 66.7638 24.0533 66.4171 23.904C66.0758 23.7493 65.7878 23.5333 65.5531 23.256C65.3185 22.9787 65.1398 22.6507 65.0171 22.272C64.8998 21.888 64.8411 21.4667 64.8411 21.008V15.792H66.8171ZM76.2069 12.112V24H74.2309V12.112H76.2069ZM84.2146 17.528C84.156 17.6027 84.0973 17.6613 84.0386 17.704C83.9853 17.7467 83.9053 17.768 83.7986 17.768C83.6973 17.768 83.5986 17.7387 83.5026 17.68C83.4066 17.616 83.292 17.5467 83.1586 17.472C83.0253 17.392 82.8653 17.3227 82.6786 17.264C82.4973 17.2 82.2706 17.168 81.9986 17.168C81.652 17.168 81.348 17.232 81.0866 17.36C80.8253 17.4827 80.6066 17.6613 80.4306 17.896C80.26 18.1307 80.132 18.416 80.0466 18.752C79.9613 19.0827 79.9186 19.4587 79.9186 19.88C79.9186 20.3173 79.964 20.7067 80.0546 21.048C80.1506 21.3893 80.2866 21.6773 80.4626 21.912C80.6386 22.1413 80.852 22.3173 81.1026 22.44C81.3533 22.5573 81.636 22.616 81.9506 22.616C82.2653 22.616 82.5186 22.5787 82.7106 22.504C82.908 22.424 83.0733 22.3387 83.2066 22.248C83.34 22.152 83.4546 22.0667 83.5506 21.992C83.652 21.912 83.764 21.872 83.8866 21.872C84.0466 21.872 84.1666 21.9333 84.2466 22.056L84.8146 22.776C84.596 23.032 84.3586 23.248 84.1026 23.424C83.8466 23.5947 83.58 23.7333 83.3026 23.84C83.0306 23.9413 82.748 24.0133 82.4546 24.056C82.1613 24.0987 81.8706 24.12 81.5826 24.12C81.076 24.12 80.5986 24.0267 80.1506 23.84C79.7026 23.648 79.3106 23.3707 78.9746 23.008C78.644 22.6453 78.38 22.2027 78.1826 21.68C77.9906 21.152 77.8946 20.552 77.8946 19.88C77.8946 19.2773 77.98 18.72 78.1506 18.208C78.3266 17.6907 78.5826 17.2453 78.9186 16.872C79.2546 16.4933 79.6706 16.1973 80.1666 15.984C80.6626 15.7707 81.2333 15.664 81.8786 15.664C82.492 15.664 83.028 15.7627 83.4866 15.96C83.9506 16.1573 84.3666 16.44 84.7346 16.808L84.2146 17.528ZM89.4636 15.664C89.981 15.664 90.4556 15.7467 90.8876 15.912C91.325 16.0773 91.701 16.32 92.0156 16.64C92.3303 16.9547 92.5756 17.344 92.7516 17.808C92.9276 18.2667 93.0156 18.792 93.0156 19.384C93.0156 19.5333 93.0076 19.6587 92.9916 19.76C92.981 19.856 92.957 19.9333 92.9196 19.992C92.8876 20.0453 92.8423 20.0853 92.7836 20.112C92.725 20.1333 92.6503 20.144 92.5596 20.144H87.4876C87.5463 20.9867 87.773 21.6053 88.1676 22C88.5623 22.3947 89.085 22.592 89.7356 22.592C90.0556 22.592 90.3303 22.5547 90.5596 22.48C90.7943 22.4053 90.997 22.3227 91.1676 22.232C91.3436 22.1413 91.4956 22.0587 91.6236 21.984C91.757 21.9093 91.885 21.872 92.0076 21.872C92.0876 21.872 92.157 21.888 92.2156 21.92C92.2743 21.952 92.325 21.9973 92.3676 22.056L92.9436 22.776C92.725 23.032 92.4796 23.248 92.2076 23.424C91.9356 23.5947 91.6503 23.7333 91.3516 23.84C91.0583 23.9413 90.757 24.0133 90.4476 24.056C90.1436 24.0987 89.8476 24.12 89.5596 24.12C88.989 24.12 88.4583 24.0267 87.9676 23.84C87.477 23.648 87.0503 23.368 86.6876 23C86.325 22.6267 86.0396 22.168 85.8316 21.624C85.6236 21.0747 85.5196 20.44 85.5196 19.72C85.5196 19.16 85.6103 18.6347 85.7916 18.144C85.973 17.648 86.2316 17.2187 86.5676 16.856C86.909 16.488 87.3223 16.1973 87.8076 15.984C88.2983 15.7707 88.8503 15.664 89.4636 15.664ZM89.5036 17.08C88.9276 17.08 88.477 17.2427 88.1516 17.568C87.8263 17.8933 87.6183 18.3547 87.5276 18.952H91.2396C91.2396 18.696 91.205 18.456 91.1356 18.232C91.0663 18.0027 90.9596 17.8027 90.8156 17.632C90.6716 17.4613 90.4903 17.328 90.2716 17.232C90.053 17.1307 89.797 17.08 89.5036 17.08ZM108.096 18.216C108.096 19.064 107.955 19.8427 107.672 20.552C107.39 21.2613 106.992 21.872 106.48 22.384C105.968 22.896 105.352 23.2933 104.632 23.576C103.912 23.8587 103.115 24 102.24 24H97.8243V12.432H102.24C103.115 12.432 103.912 12.576 104.632 12.864C105.352 13.1467 105.968 13.544 106.48 14.056C106.992 14.5627 107.39 15.1707 107.672 15.88C107.955 16.5893 108.096 17.368 108.096 18.216ZM105.896 18.216C105.896 17.5813 105.811 17.0133 105.64 16.512C105.47 16.0053 105.227 15.5787 104.912 15.232C104.598 14.88 104.214 14.6107 103.76 14.424C103.312 14.2373 102.806 14.144 102.24 14.144H99.9923V22.288H102.24C102.806 22.288 103.312 22.1947 103.76 22.008C104.214 21.8213 104.598 21.5547 104.912 21.208C105.227 20.856 105.47 20.4293 105.64 19.928C105.811 19.4213 105.896 18.8507 105.896 18.216ZM113.169 15.664C113.783 15.664 114.337 15.7627 114.833 15.96C115.335 16.1573 115.761 16.4373 116.113 16.8C116.465 17.1627 116.737 17.6053 116.929 18.128C117.121 18.6507 117.217 19.2347 117.217 19.88C117.217 20.5307 117.121 21.1173 116.929 21.64C116.737 22.1627 116.465 22.608 116.113 22.976C115.761 23.344 115.335 23.6267 114.833 23.824C114.337 24.0213 113.783 24.12 113.169 24.12C112.556 24.12 111.999 24.0213 111.497 23.824C110.996 23.6267 110.567 23.344 110.209 22.976C109.857 22.608 109.583 22.1627 109.385 21.64C109.193 21.1173 109.097 20.5307 109.097 19.88C109.097 19.2347 109.193 18.6507 109.385 18.128C109.583 17.6053 109.857 17.1627 110.209 16.8C110.567 16.4373 110.996 16.1573 111.497 15.96C111.999 15.7627 112.556 15.664 113.169 15.664ZM113.169 22.6C113.852 22.6 114.356 22.3707 114.681 21.912C115.012 21.4533 115.177 20.7813 115.177 19.896C115.177 19.0107 115.012 18.336 114.681 17.872C114.356 17.408 113.852 17.176 113.169 17.176C112.476 17.176 111.964 17.4107 111.633 17.88C111.303 18.344 111.137 19.016 111.137 19.896C111.137 20.776 111.303 21.448 111.633 21.912C111.964 22.3707 112.476 22.6 113.169 22.6ZM118.759 24V15.792H119.967C120.223 15.792 120.391 15.912 120.471 16.152L120.607 16.8C120.772 16.6293 120.946 16.4747 121.127 16.336C121.314 16.1973 121.508 16.0773 121.711 15.976C121.919 15.8747 122.14 15.7973 122.375 15.744C122.61 15.6907 122.866 15.664 123.143 15.664C123.591 15.664 123.988 15.7413 124.335 15.896C124.682 16.0453 124.97 16.2587 125.199 16.536C125.434 16.808 125.61 17.136 125.727 17.52C125.85 17.8987 125.911 18.3173 125.911 18.776V24H123.935V18.776C123.935 18.2747 123.818 17.888 123.583 17.616C123.354 17.3387 123.007 17.2 122.543 17.2C122.202 17.2 121.882 17.2773 121.583 17.432C121.284 17.5867 121.002 17.7973 120.735 18.064V24H118.759ZM129.957 15.792V24H127.981V15.792H129.957ZM130.253 13.4C130.253 13.5707 130.218 13.7307 130.149 13.88C130.08 14.0293 129.986 14.16 129.869 14.272C129.757 14.384 129.624 14.4747 129.469 14.544C129.314 14.608 129.149 14.64 128.973 14.64C128.802 14.64 128.64 14.608 128.485 14.544C128.336 14.4747 128.205 14.384 128.093 14.272C127.981 14.16 127.89 14.0293 127.821 13.88C127.757 13.7307 127.725 13.5707 127.725 13.4C127.725 13.224 127.757 13.0587 127.821 12.904C127.89 12.7493 127.981 12.616 128.093 12.504C128.205 12.392 128.336 12.304 128.485 12.24C128.64 12.1707 128.802 12.136 128.973 12.136C129.149 12.136 129.314 12.1707 129.469 12.24C129.624 12.304 129.757 12.392 129.869 12.504C129.986 12.616 130.08 12.7493 130.149 12.904C130.218 13.0587 130.253 13.224 130.253 13.4ZM132.197 24V15.792H133.405C133.661 15.792 133.829 15.912 133.909 16.152L134.045 16.8C134.21 16.6293 134.383 16.4747 134.565 16.336C134.751 16.1973 134.946 16.0773 135.149 15.976C135.357 15.8747 135.578 15.7973 135.813 15.744C136.047 15.6907 136.303 15.664 136.581 15.664C137.029 15.664 137.426 15.7413 137.773 15.896C138.119 16.0453 138.407 16.2587 138.637 16.536C138.871 16.808 139.047 17.136 139.165 17.52C139.287 17.8987 139.349 18.3173 139.349 18.776V24H137.373V18.776C137.373 18.2747 137.255 17.888 137.021 17.616C136.791 17.3387 136.445 17.2 135.981 17.2C135.639 17.2 135.319 17.2773 135.021 17.432C134.722 17.5867 134.439 17.7973 134.173 18.064V24H132.197Z" fill="#1A1C1D"/>
<rect x="305.854" y="0.5" width="36.6463" height="35" rx="7.5" fill="white" stroke="#F3F4F9"/>
<path d="M325.092 15.75V14.2383H323.615V15.75H325.092ZM325.092 21.7617V17.2617H323.615V21.7617H325.092ZM319.045 12.7266C320.522 11.25 322.291 10.5117 324.354 10.5117C326.416 10.5117 328.174 11.25 329.627 12.7266C331.104 14.1797 331.842 15.9375 331.842 18C331.842 20.0625 331.104 21.832 329.627 23.3086C328.174 24.7617 326.416 25.4883 324.354 25.4883C322.291 25.4883 320.522 24.7617 319.045 23.3086C317.592 21.832 316.865 20.0625 316.865 18C316.865 15.9375 317.592 14.1797 319.045 12.7266Z" fill="#828282"/>
</svg>
